<?xml version="1.0" encoding="utf-8" standalone="no"?>
<svg version="1.1" viewBox="0.00 0.00 625.00 679.00" xmlns="http://www.w3.org/2000/svg">
	<svg height="332.00" id="cluster1" width="203.00" x="188.00" y="178.50">
		<path d="M0.50 166.00L0.50 8.50 C0.50 4.08 4.08 0.50 8.50 0.50 L194.50 0.50 C198.92 0.50 202.50 4.08 202.50 8.50 L202.50 323.50 C202.50 327.92 198.92 331.50 194.50 331.50 L8.50 331.50 C4.08 331.50 0.50 327.92 0.50 323.50 ZM0.50 166.00" fill="none" stroke="#0d0d0d" stroke-opacity="0.60" stroke-width="1.00" />
		<path d="M1.00 166.00L1.00 9.00 C1.00 4.58 4.58 1.00 9.00 1.00 L194.00 1.00 C198.42 1.00 202.00 4.58 202.00 9.00 L202.00 323.00 C202.00 327.42 198.42 331.00 194.00 331.00 L9.00 331.00 C4.58 331.00 1.00 327.42 1.00 323.00 ZM1.00 166.00" fill="#c9c9c9" fill-opacity="0.60" />
		<svg height="15.00" width="149.50" x="8.00" y="7.00">
			<text dominant-baseline="middle" fill="#000000" fill-opacity="1.00" font-family="Verdana" font-size="12.00" font-weight="bold" text-anchor="middle" x="74.75" y="7.50">Theory of Constraints</text>
		</svg>
	</svg>
	<svg height="100.00" id="node12" width="200.00" x="189.50" y="488.50">
		<svg height="44.00" width="144.00" x="28.00" y="28.00">
			<path d="M2.00 22.00L2.00 11.00 C2.00 6.03 6.03 2.00 11.00 2.00 L133.00 2.00 C137.97 2.00 142.00 6.03 142.00 11.00 L142.00 33.00 C142.00 37.97 137.97 42.00 133.00 42.00 C133.00 42.00 133.00 42.00 133.00 42.00 L11.00 42.00 C6.03 42.00 2.00 37.97 2.00 33.00 ZM2.00 22.00" fill="#ecf3f3" fill-opacity="1.00" />
			<svg height="44.00" width="144.00" x="0.00" y="0.00">
				<path d="M2.00 22.00L2.00 11.00 C2.00 6.03 6.03 2.00 11.00 2.00 L133.00 2.00 C137.97 2.00 142.00 6.03 142.00 11.00 L142.00 33.00 C142.00 37.97 137.97 42.00 133.00 42.00 C133.00 42.00 133.00 42.00 133.00 42.00 L11.00 42.00 C6.03 42.00 2.00 37.97 2.00 33.00 ZM2.00 22.00" fill="none" stroke="#000000" stroke-opacity="1.00" stroke-width="1.50" />
				<svg height="30.00" width="130.00" x="7.00" y="7.00">
					<svg height="30.00" width="96.00" x="34.00" y="0.00">
						<svg height="30.00" width="96.00" x="0.00" y="0.00">
							<text dominant-baseline="middle" fill="#000000" fill-opacity="1.00" font-family="Verdana" font-size="14.00" font-weight="normal" text-anchor="middle" x="48.00" y="15.00">Decision Tree</text>
						</svg>
					</svg>
					<svg height="30.00" width="30.00" x="0.00" y="0.00">
						<svg x="0.00" y="-0.00">
							<path d="M22.17 2.61C22.17 1.17 21.00 0.00 19.57 0.00 L10.43 0.00 C9.00 0.00 7.83 1.17 7.83 2.61 L7.83 11.74 C7.83 13.17 9.00 14.35 10.43 14.35 L19.57 14.35 C21.00 14.35 22.17 13.17 22.17 11.74 L22.17 2.61 ZM30.00 18.26C30.00 16.83 28.83 15.65 27.39 15.65 L18.26 15.65 C16.83 15.65 15.65 16.83 15.65 18.26 L15.65 27.39 C15.65 28.83 16.83 30.00 18.26 30.00 L27.39 30.00 C28.83 30.00 30.00 28.83 30.00 27.39 L30.00 18.26 ZM23.96 23.74C23.90 24.38 23.75 24.76 23.11 24.83 C21.73 25.02 21.68 23.86 21.70 22.45 C21.74 21.37 22.06 20.67 23.13 20.82 C23.78 20.91 23.91 21.30 23.97 21.95 L25.49 21.95 L25.50 21.94 C25.33 20.30 24.38 19.55 23.01 19.50 C21.38 19.45 20.11 20.45 20.15 23.10 C20.18 24.85 21.09 26.15 22.85 26.15 C24.29 26.15 25.32 25.46 25.49 23.75 L25.49 23.74 L23.96 23.74 ZM18.07 10.43L18.09 10.38 L15.68 3.91 L14.30 3.91 L11.90 10.38 L11.92 10.43 L13.53 10.43 L13.96 9.14 L16.03 9.14 L16.47 10.43 L18.07 10.43 ZM15.60 7.85L14.39 7.85 L14.99 6.03 L15.60 7.85 ZM14.35 18.26C14.35 16.83 13.17 15.65 11.74 15.65 L2.61 15.65 C1.17 15.65 0.00 16.83 0.00 18.26 L0.00 27.39 C0.00 28.83 1.17 30.00 2.61 30.00 L11.74 30.00 C13.17 30.00 14.35 28.83 14.35 27.39 L14.35 18.26 ZM7.28 26.09C8.60 26.06 9.57 25.55 9.63 24.23 C9.65 23.47 9.31 22.96 8.79 22.72 C9.25 22.42 9.51 21.95 9.48 21.30 C9.43 20.05 8.43 19.62 7.19 19.57 C6.37 19.57 5.54 19.57 4.72 19.57 L4.72 26.09 L7.28 26.09 ZM6.26 23.36L6.26 24.80 L7.29 24.80 C7.83 24.77 8.11 24.52 8.09 24.01 C8.06 23.57 7.81 23.39 7.37 23.36 L6.26 23.36 ZM6.26 20.87L6.26 22.19 L7.15 22.19 C7.70 22.16 8.01 21.97 7.93 21.40 C7.90 21.12 7.76 20.88 7.11 20.87 L6.26 20.87 ZM6.26 20.87" fill="#000000" fill-opacity="1.00" fill-rule="evenodd" />
						</svg>
						<svg height="30.00" width="30.00" x="0.00" y="0.00" />
					</svg>
				</svg>
			</svg>
		</svg>
	</svg>
	<svg height="100.00" id="node11" width="200.00" x="189.50" y="382.50">
		<svg height="44.00" width="155.00" x="22.50" y="28.00">
			<path d="M2.00 22.00L2.00 11.00 C2.00 6.03 6.03 2.00 11.00 2.00 L144.00 2.00 C148.97 2.00 153.00 6.03 153.00 11.00 L153.00 33.00 C153.00 37.97 148.97 42.00 144.00 42.00 L11.00 42.00 C6.03 42.00 2.00 37.97 2.00 33.00 ZM2.00 22.00" fill="#ecf3f3" fill-opacity="1.00" />
			<svg height="44.00" width="155.00" x="0.00" y="0.00">
				<path d="M2.00 22.00L2.00 11.00 C2.00 6.03 6.03 2.00 11.00 2.00 L144.00 2.00 C148.97 2.00 153.00 6.03 153.00 11.00 L153.00 33.00 C153.00 37.97 148.97 42.00 144.00 42.00 L11.00 42.00 C6.03 42.00 2.00 37.97 2.00 33.00 ZM2.00 22.00" fill="none" stroke="#000000" stroke-opacity="1.00" stroke-width="1.50" />
				<svg height="30.00" width="141.00" x="7.00" y="7.00">
					<svg height="30.00" width="107.00" x="34.00" y="0.00">
						<svg height="30.00" width="107.00" x="0.00" y="0.00">
							<text dominant-baseline="middle" fill="#000000" fill-opacity="1.00" font-family="Verdana" font-size="14.00" font-weight="normal" text-anchor="middle" x="53.50" y="15.00">Transition Tree</text>
						</svg>
					</svg>
					<svg height="30.00" width="30.00" x="0.00" y="0.00">
						<svg x="0.00" y="-0.00">
							<path d="M22.17 2.61C22.17 1.17 21.00 0.00 19.57 0.00 L10.43 0.00 C9.00 0.00 7.83 1.17 7.83 2.61 L7.83 11.74 C7.83 13.17 9.00 14.35 10.43 14.35 L19.57 14.35 C21.00 14.35 22.17 13.17 22.17 11.74 L22.17 2.61 ZM30.00 18.26C30.00 16.83 28.83 15.65 27.39 15.65 L18.26 15.65 C16.83 15.65 15.65 16.83 15.65 18.26 L15.65 27.39 C15.65 28.83 16.83 30.00 18.26 30.00 L27.39 30.00 C28.83 30.00 30.00 28.83 30.00 27.39 L30.00 18.26 ZM23.96 23.74C23.90 24.38 23.75 24.76 23.11 24.83 C21.73 25.02 21.68 23.86 21.70 22.45 C21.74 21.37 22.06 20.67 23.13 20.82 C23.78 20.91 23.91 21.30 23.97 21.95 L25.49 21.95 L25.50 21.94 C25.33 20.30 24.38 19.55 23.01 19.50 C21.38 19.45 20.11 20.45 20.15 23.10 C20.18 24.85 21.09 26.15 22.85 26.15 C24.29 26.15 25.32 25.46 25.49 23.75 L25.49 23.74 L23.96 23.74 ZM18.07 10.43L18.09 10.38 L15.68 3.91 L14.30 3.91 L11.90 10.38 L11.92 10.43 L13.53 10.43 L13.96 9.14 L16.03 9.14 L16.47 10.43 L18.07 10.43 ZM15.60 7.85L14.39 7.85 L14.99 6.03 L15.60 7.85 ZM14.35 18.26C14.35 16.83 13.17 15.65 11.74 15.65 L2.61 15.65 C1.17 15.65 0.00 16.83 0.00 18.26 L0.00 27.39 C0.00 28.83 1.17 30.00 2.61 30.00 L11.74 30.00 C13.17 30.00 14.35 28.83 14.35 27.39 L14.35 18.26 ZM7.28 26.09C8.60 26.06 9.57 25.55 9.63 24.23 C9.65 23.47 9.31 22.96 8.79 22.72 C9.25 22.42 9.51 21.95 9.48 21.30 C9.43 20.05 8.43 19.62 7.19 19.57 C6.37 19.57 5.54 19.57 4.72 19.57 L4.72 26.09 L7.28 26.09 ZM6.26 23.36L6.26 24.80 L7.29 24.80 C7.83 24.77 8.11 24.52 8.09 24.01 C8.06 23.57 7.81 23.39 7.37 23.36 L6.26 23.36 ZM6.26 20.87L6.26 22.19 L7.15 22.19 C7.70 22.16 8.01 21.97 7.93 21.40 C7.90 21.12 7.76 20.88 7.11 20.87 L6.26 20.87 ZM6.26 20.87" fill="#000000" fill-opacity="1.00" fill-rule="evenodd" />
						</svg>
						<svg height="30.00" width="30.00" x="0.00" y="0.00" />
					</svg>
				</svg>
			</svg>
		</svg>
	</svg>
	<svg height="100.00" id="node27" width="200.00" x="189.50" y="432.50">
		<svg height="44.00" width="117.00" x="41.50" y="28.00">
			<path d="M2.00 22.00L2.00 11.00 C2.00 6.03 6.03 2.00 11.00 2.00 L106.00 2.00 C110.97 2.00 115.00 6.03 115.00 11.00 L115.00 33.00 C115.00 37.97 110.97 42.00 106.00 42.00 C106.00 42.00 106.00 42.00 106.00 42.00 L11.00 42.00 C6.03 42.00 2.00 37.97 2.00 33.00 ZM2.00 22.00" fill="#ecf3f3" fill-opacity="1.00" />
			<svg height="44.00" width="117.00" x="0.00" y="0.00">
				<path d="M2.00 22.00L2.00 11.00 C2.00 6.03 6.03 2.00 11.00 2.00 L106.00 2.00 C110.97 2.00 115.00 6.03 115.00 11.00 L115.00 33.00 C115.00 37.97 110.97 42.00 106.00 42.00 C106.00 42.00 106.00 42.00 106.00 42.00 L11.00 42.00 C6.03 42.00 2.00 37.97 2.00 33.00 ZM2.00 22.00" fill="none" stroke="#000000" stroke-opacity="1.00" stroke-width="1.50" />
				<svg height="30.00" width="103.00" x="7.00" y="7.00">
					<svg height="30.00" width="69.00" x="34.00" y="0.00">
						<svg height="30.00" width="69.00" x="0.00" y="0.00">
							<text dominant-baseline="middle" fill="#000000" fill-opacity="1.00" font-family="Verdana" font-size="14.00" font-weight="normal" text-anchor="middle" x="34.50" y="15.00">Goal Tree</text>
						</svg>
					</svg>
					<svg height="30.00" width="30.00" x="0.00" y="0.00">
						<svg x="0.00" y="-0.00">
							<path d="M22.17 2.61C22.17 1.17 21.00 0.00 19.57 0.00 L10.43 0.00 C9.00 0.00 7.83 1.17 7.83 2.61 L7.83 11.74 C7.83 13.17 9.00 14.35 10.43 14.35 L19.57 14.35 C21.00 14.35 22.17 13.17 22.17 11.74 L22.17 2.61 ZM30.00 18.26C30.00 16.83 28.83 15.65 27.39 15.65 L18.26 15.65 C16.83 15.65 15.65 16.83 15.65 18.26 L15.65 27.39 C15.65 28.83 16.83 30.00 18.26 30.00 L27.39 30.00 C28.83 30.00 30.00 28.83 30.00 27.39 L30.00 18.26 ZM23.96 23.74C23.90 24.38 23.75 24.76 23.11 24.83 C21.73 25.02 21.68 23.86 21.70 22.45 C21.74 21.37 22.06 20.67 23.13 20.82 C23.78 20.91 23.91 21.30 23.97 21.95 L25.49 21.95 L25.50 21.94 C25.33 20.30 24.38 19.55 23.01 19.50 C21.38 19.45 20.11 20.45 20.15 23.10 C20.18 24.85 21.09 26.15 22.85 26.15 C24.29 26.15 25.32 25.46 25.49 23.75 L25.49 23.74 L23.96 23.74 ZM18.07 10.43L18.09 10.38 L15.68 3.91 L14.30 3.91 L11.90 10.38 L11.92 10.43 L13.53 10.43 L13.96 9.14 L16.03 9.14 L16.47 10.43 L18.07 10.43 ZM15.60 7.85L14.39 7.85 L14.99 6.03 L15.60 7.85 ZM14.35 18.26C14.35 16.83 13.17 15.65 11.74 15.65 L2.61 15.65 C1.17 15.65 0.00 16.83 0.00 18.26 L0.00 27.39 C0.00 28.83 1.17 30.00 2.61 30.00 L11.74 30.00 C13.17 30.00 14.35 28.83 14.35 27.39 L14.35 18.26 ZM7.28 26.09C8.60 26.06 9.57 25.55 9.63 24.23 C9.65 23.47 9.31 22.96 8.79 22.72 C9.25 22.42 9.51 21.95 9.48 21.30 C9.43 20.05 8.43 19.62 7.19 19.57 C6.37 19.57 5.54 19.57 4.72 19.57 L4.72 26.09 L7.28 26.09 ZM6.26 23.36L6.26 24.80 L7.29 24.80 C7.83 24.77 8.11 24.52 8.09 24.01 C8.06 23.57 7.81 23.39 7.37 23.36 L6.26 23.36 ZM6.26 20.87L6.26 22.19 L7.15 22.19 C7.70 22.16 8.01 21.97 7.93 21.40 C7.90 21.12 7.76 20.88 7.11 20.87 L6.26 20.87 ZM6.26 20.87" fill="#000000" fill-opacity="1.00" fill-rule="evenodd" />
						</svg>
						<svg height="30.00" width="30.00" x="0.00" y="0.00" />
					</svg>
				</svg>
			</svg>
		</svg>
	</svg>
	<svg height="100.00" id="node25" width="200.00" x="398.50" y="538.50">
		<svg height="32.00" width="138.00" x="31.00" y="34.00">
			<path d="M2.00 16.00L2.00 11.00 C2.00 6.03 6.03 2.00 11.00 2.00 L127.00 2.00 C131.97 2.00 136.00 6.03 136.00 11.00 L136.00 21.00 C136.00 25.97 131.97 30.00 127.00 30.00 C127.00 30.00 127.00 30.00 127.00 30.00 L11.00 30.00 C6.03 30.00 2.00 25.97 2.00 21.00 ZM2.00 16.00" fill="#000000" fill-opacity="0.00" />
			<svg height="32.00" width="138.00" x="0.00" y="0.00">
				<svg height="22.00" width="128.00" x="5.00" y="5.00">
					<text dominant-baseline="middle" fill="#000000" fill-opacity="1.00" font-family="Verdana" font-size="14.00" font-weight="normal" text-anchor="middle" x="64.00" y="11.00">Prioritise Features</text>
				</svg>
			</svg>
		</svg>
	</svg>
	<svg height="100.00" id="node28" width="200.00" x="189.50" y="332.50">
		<svg height="44.00" width="169.00" x="15.50" y="28.00">
			<path d="M2.00 22.00L2.00 11.00 C2.00 6.03 6.03 2.00 11.00 2.00 L158.00 2.00 C162.97 2.00 167.00 6.03 167.00 11.00 L167.00 33.00 C167.00 37.97 162.97 42.00 158.00 42.00 L11.00 42.00 C6.03 42.00 2.00 37.97 2.00 33.00 ZM2.00 22.00" fill="#ecf3f3" fill-opacity="1.00" />
			<svg height="44.00" width="169.00" x="0.00" y="0.00">
				<path d="M2.00 22.00L2.00 11.00 C2.00 6.03 6.03 2.00 11.00 2.00 L158.00 2.00 C162.97 2.00 167.00 6.03 167.00 11.00 L167.00 33.00 C167.00 37.97 162.97 42.00 158.00 42.00 L11.00 42.00 C6.03 42.00 2.00 37.97 2.00 33.00 ZM2.00 22.00" fill="none" stroke="#000000" stroke-opacity="1.00" stroke-width="1.50" />
				<svg height="30.00" width="155.00" x="7.00" y="7.00">
					<svg height="30.00" width="121.00" x="34.00" y="0.00">
						<svg height="30.00" width="121.00" x="0.00" y="0.00">
							<text dominant-baseline="middle" fill="#000000" fill-opacity="1.00" font-family="Verdana" font-size="14.00" font-weight="normal" text-anchor="middle" x="60.50" y="15.00">Prerequisite Tree</text>
						</svg>
					</svg>
					<svg height="30.00" width="30.00" x="0.00" y="0.00">
						<svg x="0.00" y="-0.00">
							<path d="M22.17 2.61C22.17 1.17 21.00 0.00 19.57 0.00 L10.43 0.00 C9.00 0.00 7.83 1.17 7.83 2.61 L7.83 11.74 C7.83 13.17 9.00 14.35 10.43 14.35 L19.57 14.35 C21.00 14.35 22.17 13.17 22.17 11.74 L22.17 2.61 ZM30.00 18.26C30.00 16.83 28.83 15.65 27.39 15.65 L18.26 15.65 C16.83 15.65 15.65 16.83 15.65 18.26 L15.65 27.39 C15.65 28.83 16.83 30.00 18.26 30.00 L27.39 30.00 C28.83 30.00 30.00 28.83 30.00 27.39 L30.00 18.26 ZM23.96 23.74C23.90 24.38 23.75 24.76 23.11 24.83 C21.73 25.02 21.68 23.86 21.70 22.45 C21.74 21.37 22.06 20.67 23.13 20.82 C23.78 20.91 23.91 21.30 23.97 21.95 L25.49 21.95 L25.50 21.94 C25.33 20.30 24.38 19.55 23.01 19.50 C21.38 19.45 20.11 20.45 20.15 23.10 C20.18 24.85 21.09 26.15 22.85 26.15 C24.29 26.15 25.32 25.46 25.49 23.75 L25.49 23.74 L23.96 23.74 ZM18.07 10.43L18.09 10.38 L15.68 3.91 L14.30 3.91 L11.90 10.38 L11.92 10.43 L13.53 10.43 L13.96 9.14 L16.03 9.14 L16.47 10.43 L18.07 10.43 ZM15.60 7.85L14.39 7.85 L14.99 6.03 L15.60 7.85 ZM14.35 18.26C14.35 16.83 13.17 15.65 11.74 15.65 L2.61 15.65 C1.17 15.65 0.00 16.83 0.00 18.26 L0.00 27.39 C0.00 28.83 1.17 30.00 2.61 30.00 L11.74 30.00 C13.17 30.00 14.35 28.83 14.35 27.39 L14.35 18.26 ZM7.28 26.09C8.60 26.06 9.57 25.55 9.63 24.23 C9.65 23.47 9.31 22.96 8.79 22.72 C9.25 22.42 9.51 21.95 9.48 21.30 C9.43 20.05 8.43 19.62 7.19 19.57 C6.37 19.57 5.54 19.57 4.72 19.57 L4.72 26.09 L7.28 26.09 ZM6.26 23.36L6.26 24.80 L7.29 24.80 C7.83 24.77 8.11 24.52 8.09 24.01 C8.06 23.57 7.81 23.39 7.37 23.36 L6.26 23.36 ZM6.26 20.87L6.26 22.19 L7.15 22.19 C7.70 22.16 8.01 21.97 7.93 21.40 C7.90 21.12 7.76 20.88 7.11 20.87 L6.26 20.87 ZM6.26 20.87" fill="#000000" fill-opacity="1.00" fill-rule="evenodd" />
						</svg>
						<svg height="30.00" width="30.00" x="0.00" y="0.00" />
					</svg>
				</svg>
			</svg>
		</svg>
	</svg>
	<svg height="100.00" id="node3" width="200.00" x="-4.00" y="100.50">
		<svg height="44.00" width="150.00" x="25.00" y="28.00">
			<path d="M2.00 22.00L2.00 11.00 C2.00 6.03 6.03 2.00 11.00 2.00 L139.00 2.00 C143.97 2.00 148.00 6.03 148.00 11.00 L148.00 33.00 C148.00 37.97 143.97 42.00 139.00 42.00 L11.00 42.00 C6.03 42.00 2.00 37.97 2.00 33.00 ZM2.00 22.00" fill="#eaf4f3" fill-opacity="1.00" />
			<svg height="44.00" width="150.00" x="0.00" y="0.00">
				<path d="M2.00 22.00L2.00 11.00 C2.00 6.03 6.03 2.00 11.00 2.00 L139.00 2.00 C143.97 2.00 148.00 6.03 148.00 11.00 L148.00 33.00 C148.00 37.97 143.97 42.00 139.00 42.00 L11.00 42.00 C6.03 42.00 2.00 37.97 2.00 33.00 ZM2.00 22.00" fill="none" stroke="#000000" stroke-opacity="1.00" stroke-width="1.50" />
				<svg height="30.00" width="136.00" x="7.00" y="7.00">
					<svg height="30.00" width="102.00" x="34.00" y="0.00">
						<svg height="30.00" width="102.00" x="0.00" y="0.00">
							<text dominant-baseline="middle" fill="#000000" fill-opacity="1.00" font-family="Verdana" font-size="14.00" font-weight="normal" text-anchor="middle" x="51.00" y="15.00">Listen &amp; Learn</text>
						</svg>
					</svg>
					<svg height="30.00" width="30.00" x="0.00" y="0.00">
						<svg x="0.00" y="-0.00">
							<path d="M16.25 30.02L13.75 30.02 L13.75 6.27 L15.02 7.52 L16.25 6.27 L16.25 30.02 ZM12.78 19.54C10.80 18.90 8.85 19.25 7.64 20.32 C5.74 22.02 6.11 24.85 6.11 24.85 C6.11 24.85 9.34 25.79 11.25 24.09 C13.08 22.46 12.78 19.76 12.78 19.54 ZM17.21 19.54C19.18 18.90 21.14 19.25 22.34 20.32 C24.24 22.02 23.86 24.85 23.86 24.85 C23.86 24.85 20.65 25.79 18.74 24.09 C16.91 22.46 17.21 19.76 17.21 19.54 ZM22.59 18.11C24.02 16.90 25.79 16.52 27.17 17.01 C29.35 17.77 30.00 20.27 30.00 20.27 C30.00 20.27 27.61 22.18 25.43 21.40 C23.34 20.66 22.66 18.29 22.59 18.11 ZM7.41 18.11C5.98 16.90 4.21 16.52 2.82 17.01 C0.65 17.77 0.00 20.27 0.00 20.27 C0.00 20.27 2.39 22.18 4.58 21.40 C6.66 20.66 7.34 18.29 7.41 18.11 ZM12.70 18.06C13.01 16.31 12.50 14.70 11.45 13.80 C9.80 12.38 7.44 13.01 7.44 13.01 C7.44 13.01 7.01 15.86 8.68 17.29 C10.26 18.65 12.51 18.09 12.70 18.06 ZM17.30 18.06C16.99 16.31 17.50 14.70 18.55 13.80 C20.20 12.38 22.56 13.01 22.56 13.01 C22.56 13.01 22.99 15.86 21.32 17.29 C19.74 18.65 17.49 18.09 17.30 18.06 ZM22.97 15.12C23.50 13.61 24.62 12.57 25.85 12.32 C27.77 11.95 29.35 13.49 29.35 13.49 C29.35 13.49 28.42 15.91 26.48 16.30 C24.62 16.68 23.10 15.24 22.97 15.12 ZM7.03 15.12C6.50 13.61 5.38 12.57 4.15 12.32 C2.23 11.95 0.65 13.49 0.65 13.49 C0.65 13.49 1.57 15.91 3.52 16.30 C5.38 16.68 6.89 15.24 7.03 15.12 ZM16.98 12.18C16.95 10.52 17.66 9.12 18.76 8.45 C20.49 7.40 22.56 8.34 22.56 8.34 C22.56 8.34 22.52 11.01 20.79 12.06 C19.12 13.08 17.14 12.22 16.98 12.18 ZM13.03 12.18C13.06 10.52 12.34 9.12 11.24 8.45 C9.51 7.40 7.45 8.34 7.45 8.34 C7.45 8.34 7.48 11.01 9.21 12.06 C10.88 13.08 12.86 12.22 13.03 12.18 ZM7.04 11.55C7.14 10.10 6.56 8.82 5.61 8.19 C4.14 7.19 2.27 7.93 2.27 7.93 C2.27 7.93 2.19 10.29 3.67 11.30 C5.10 12.26 6.89 11.59 7.04 11.55 ZM22.96 11.55C22.86 10.10 23.44 8.82 24.39 8.19 C25.86 7.19 27.74 7.93 27.74 7.93 C27.74 7.93 27.81 10.29 26.32 11.30 C24.90 12.26 23.11 11.59 22.96 11.55 ZM17.76 7.86C17.05 6.48 17.07 4.99 17.73 3.98 C18.74 2.36 20.88 2.30 20.88 2.30 C20.88 2.30 21.95 4.56 20.92 6.19 C19.95 7.73 17.93 7.84 17.76 7.86 ZM12.24 7.86C12.95 6.48 12.93 4.99 12.29 3.98 C11.26 2.36 9.12 2.30 9.12 2.30 C9.12 2.30 8.05 4.56 9.07 6.19 C10.05 7.73 12.07 7.84 12.24 7.86 ZM8.50 7.50C8.58 6.26 8.09 5.20 7.30 4.66 C6.05 3.81 4.49 4.44 4.49 4.44 C4.49 4.44 4.41 6.43 5.67 7.27 C6.88 8.09 8.38 7.52 8.50 7.50 ZM21.50 7.50C21.43 6.26 21.91 5.20 22.70 4.66 C23.95 3.81 25.53 4.44 25.53 4.44 C25.53 4.44 25.59 6.43 24.33 7.27 C23.14 8.09 21.62 7.52 21.50 7.50 ZM15.05 6.18C13.80 5.34 13.12 4.08 13.20 2.91 C13.31 1.07 15.08 0.02 15.08 0.02 C15.08 0.02 17.05 1.43 16.94 3.28 C16.84 5.04 15.18 6.07 15.05 6.18 ZM15.05 6.18" fill="#000000" fill-opacity="1.00" fill-rule="evenodd" />
						</svg>
						<svg height="30.00" width="30.00" x="0.00" y="0.00" />
					</svg>
				</svg>
			</svg>
		</svg>
	</svg>
	<svg height="100.00" id="node5" width="200.00" x="-4.00" y="432.50">
		<svg height="44.00" width="166.00" x="17.00" y="28.00">
			<path d="M2.00 22.00L2.00 11.00 C2.00 6.03 6.03 2.00 11.00 2.00 L155.00 2.00 C159.97 2.00 164.00 6.03 164.00 11.00 L164.00 33.00 C164.00 37.97 159.97 42.00 155.00 42.00 L11.00 42.00 C6.03 42.00 2.00 37.97 2.00 33.00 ZM2.00 22.00" fill="#eaf4f3" fill-opacity="1.00" />
			<svg height="44.00" width="166.00" x="0.00" y="0.00">
				<path d="M2.00 22.00L2.00 11.00 C2.00 6.03 6.03 2.00 11.00 2.00 L155.00 2.00 C159.97 2.00 164.00 6.03 164.00 11.00 L164.00 33.00 C164.00 37.97 159.97 42.00 155.00 42.00 L11.00 42.00 C6.03 42.00 2.00 37.97 2.00 33.00 ZM2.00 22.00" fill="none" stroke="#000000" stroke-opacity="1.00" stroke-width="1.50" />
				<svg height="30.00" width="152.00" x="7.00" y="7.00">
					<svg height="30.00" width="118.00" x="34.00" y="0.00">
						<svg height="30.00" width="118.00" x="0.00" y="0.00">
							<text dominant-baseline="middle" fill="#000000" fill-opacity="1.00" font-family="Verdana" font-size="14.00" font-weight="normal" text-anchor="middle" x="59.00" y="15.00">Think &amp; Triumph</text>
						</svg>
					</svg>
					<svg height="30.00" width="30.00" x="0.00" y="0.00">
						<svg x="0.00" y="-0.00">
							<path d="M16.25 30.02L13.75 30.02 L13.75 6.27 L15.02 7.52 L16.25 6.27 L16.25 30.02 ZM12.78 19.54C10.80 18.90 8.85 19.25 7.64 20.32 C5.74 22.02 6.11 24.85 6.11 24.85 C6.11 24.85 9.34 25.79 11.25 24.09 C13.08 22.46 12.78 19.76 12.78 19.54 ZM17.21 19.54C19.18 18.90 21.14 19.25 22.34 20.32 C24.24 22.02 23.86 24.85 23.86 24.85 C23.86 24.85 20.65 25.79 18.74 24.09 C16.91 22.46 17.21 19.76 17.21 19.54 ZM22.59 18.11C24.02 16.90 25.79 16.52 27.17 17.01 C29.35 17.77 30.00 20.27 30.00 20.27 C30.00 20.27 27.61 22.18 25.43 21.40 C23.34 20.66 22.66 18.29 22.59 18.11 ZM7.41 18.11C5.98 16.90 4.21 16.52 2.82 17.01 C0.65 17.77 0.00 20.27 0.00 20.27 C0.00 20.27 2.39 22.18 4.58 21.40 C6.66 20.66 7.34 18.29 7.41 18.11 ZM12.70 18.06C13.01 16.31 12.50 14.70 11.45 13.80 C9.80 12.38 7.44 13.01 7.44 13.01 C7.44 13.01 7.01 15.86 8.68 17.29 C10.26 18.65 12.51 18.09 12.70 18.06 ZM17.30 18.06C16.99 16.31 17.50 14.70 18.55 13.80 C20.20 12.38 22.56 13.01 22.56 13.01 C22.56 13.01 22.99 15.86 21.32 17.29 C19.74 18.65 17.49 18.09 17.30 18.06 ZM22.97 15.12C23.50 13.61 24.62 12.57 25.85 12.32 C27.77 11.95 29.35 13.49 29.35 13.49 C29.35 13.49 28.42 15.91 26.48 16.30 C24.62 16.68 23.10 15.24 22.97 15.12 ZM7.03 15.12C6.50 13.61 5.38 12.57 4.15 12.32 C2.23 11.95 0.65 13.49 0.65 13.49 C0.65 13.49 1.57 15.91 3.52 16.30 C5.38 16.68 6.89 15.24 7.03 15.12 ZM16.98 12.18C16.95 10.52 17.66 9.12 18.76 8.45 C20.49 7.40 22.56 8.34 22.56 8.34 C22.56 8.34 22.52 11.01 20.79 12.06 C19.12 13.08 17.14 12.22 16.98 12.18 ZM13.03 12.18C13.06 10.52 12.34 9.12 11.24 8.45 C9.51 7.40 7.45 8.34 7.45 8.34 C7.45 8.34 7.48 11.01 9.21 12.06 C10.88 13.08 12.86 12.22 13.03 12.18 ZM7.04 11.55C7.14 10.10 6.56 8.82 5.61 8.19 C4.14 7.19 2.27 7.93 2.27 7.93 C2.27 7.93 2.19 10.29 3.67 11.30 C5.10 12.26 6.89 11.59 7.04 11.55 ZM22.96 11.55C22.86 10.10 23.44 8.82 24.39 8.19 C25.86 7.19 27.74 7.93 27.74 7.93 C27.74 7.93 27.81 10.29 26.32 11.30 C24.90 12.26 23.11 11.59 22.96 11.55 ZM17.76 7.86C17.05 6.48 17.07 4.99 17.73 3.98 C18.74 2.36 20.88 2.30 20.88 2.30 C20.88 2.30 21.95 4.56 20.92 6.19 C19.95 7.73 17.93 7.84 17.76 7.86 ZM12.24 7.86C12.95 6.48 12.93 4.99 12.29 3.98 C11.26 2.36 9.12 2.30 9.12 2.30 C9.12 2.30 8.05 4.56 9.07 6.19 C10.05 7.73 12.07 7.84 12.24 7.86 ZM8.50 7.50C8.58 6.26 8.09 5.20 7.30 4.66 C6.05 3.81 4.49 4.44 4.49 4.44 C4.49 4.44 4.41 6.43 5.67 7.27 C6.88 8.09 8.38 7.52 8.50 7.50 ZM21.50 7.50C21.43 6.26 21.91 5.20 22.70 4.66 C23.95 3.81 25.53 4.44 25.53 4.44 C25.53 4.44 25.59 6.43 24.33 7.27 C23.14 8.09 21.62 7.52 21.50 7.50 ZM15.05 6.18C13.80 5.34 13.12 4.08 13.20 2.91 C13.31 1.07 15.08 0.02 15.08 0.02 C15.08 0.02 17.05 1.43 16.94 3.28 C16.84 5.04 15.18 6.07 15.05 6.18 ZM15.05 6.18" fill="#000000" fill-opacity="1.00" fill-rule="evenodd" />
						</svg>
						<svg height="30.00" width="30.00" x="0.00" y="0.00" />
					</svg>
				</svg>
			</svg>
		</svg>
	</svg>
	<svg height="100.00" id="node30" width="200.00" x="398.50" y="282.50">
		<svg height="32.00" width="197.00" x="1.50" y="34.00">
			<path d="M2.00 16.00L2.00 11.00 C2.00 6.03 6.03 2.00 11.00 2.00 L186.00 2.00 C190.97 2.00 195.00 6.03 195.00 11.00 L195.00 21.00 C195.00 25.97 190.97 30.00 186.00 30.00 C186.00 30.00 186.00 30.00 186.00 30.00 L11.00 30.00 C6.03 30.00 2.00 25.97 2.00 21.00 ZM2.00 16.00" fill="#000000" fill-opacity="0.00" />
			<svg height="32.00" width="197.00" x="0.00" y="0.00">
				<svg height="22.00" width="187.00" x="5.00" y="5.00">
					<text dominant-baseline="middle" fill="#000000" fill-opacity="1.00" font-family="Verdana" font-size="14.00" font-weight="normal" text-anchor="middle" x="93.50" y="11.00">Review potential Solutions</text>
				</svg>
			</svg>
		</svg>
	</svg>
	<svg height="100.00" id="node32" width="200.00" x="398.50" y="433.50">
		<svg height="45.00" width="148.00" x="26.00" y="27.50">
			<path d="M2.00 22.50L2.00 11.00 C2.00 6.03 6.03 2.00 11.00 2.00 L137.00 2.00 C141.97 2.00 146.00 6.03 146.00 11.00 L146.00 34.00 C146.00 38.97 141.97 43.00 137.00 43.00 L11.00 43.00 C6.03 43.00 2.00 38.97 2.00 34.00 ZM2.00 22.50" fill="#000000" fill-opacity="0.00" />
			<svg height="45.00" width="148.00" x="0.00" y="0.00">
				<svg height="35.00" width="138.00" x="5.00" y="5.00">
					<text dominant-baseline="middle" fill="#000000" fill-opacity="1.00" font-family="Verdana" font-size="14.00" font-weight="normal" text-anchor="middle" x="69.00" y="8.75">Setting department</text>
					<text dominant-baseline="middle" fill="#000000" fill-opacity="1.00" font-family="Verdana" font-size="14.00" font-weight="normal" text-anchor="middle" x="69.00" y="26.25">Goals and KPIs</text>
				</svg>
			</svg>
		</svg>
	</svg>
	<svg height="100.00" id="node7" width="200.00" x="189.50" y="100.50">
		<svg height="44.00" width="80.00" x="60.00" y="28.00">
			<path d="M2.00 22.00L2.00 11.00 C2.00 6.03 6.03 2.00 11.00 2.00 L69.00 2.00 C73.97 2.00 78.00 6.03 78.00 11.00 L78.00 33.00 C78.00 37.97 73.97 42.00 69.00 42.00 C69.00 42.00 69.00 42.00 69.00 42.00 L11.00 42.00 C6.03 42.00 2.00 37.97 2.00 33.00 ZM2.00 22.00" fill="#ecf3f3" fill-opacity="1.00" />
			<svg height="44.00" width="80.00" x="0.00" y="0.00">
				<path d="M2.00 22.00L2.00 11.00 C2.00 6.03 6.03 2.00 11.00 2.00 L69.00 2.00 C73.97 2.00 78.00 6.03 78.00 11.00 L78.00 33.00 C78.00 37.97 73.97 42.00 69.00 42.00 C69.00 42.00 69.00 42.00 69.00 42.00 L11.00 42.00 C6.03 42.00 2.00 37.97 2.00 33.00 ZM2.00 22.00" fill="none" stroke="#000000" stroke-opacity="1.00" stroke-width="1.50" />
				<svg height="30.00" width="66.00" x="7.00" y="7.00">
					<svg height="30.00" width="32.00" x="34.00" y="0.00">
						<svg height="30.00" width="32.00" x="0.00" y="0.00">
							<text dominant-baseline="middle" fill="#000000" fill-opacity="1.00" font-family="Verdana" font-size="14.00" font-weight="normal" text-anchor="middle" x="16.00" y="15.00">IBIS</text>
						</svg>
					</svg>
					<svg height="30.00" width="30.00" x="0.00" y="0.00">
						<svg x="0.00" y="-0.00">
							<path d="M22.17 2.61C22.17 1.17 21.00 0.00 19.57 0.00 L10.43 0.00 C9.00 0.00 7.83 1.17 7.83 2.61 L7.83 11.74 C7.83 13.17 9.00 14.35 10.43 14.35 L19.57 14.35 C21.00 14.35 22.17 13.17 22.17 11.74 L22.17 2.61 ZM30.00 18.26C30.00 16.83 28.83 15.65 27.39 15.65 L18.26 15.65 C16.83 15.65 15.65 16.83 15.65 18.26 L15.65 27.39 C15.65 28.83 16.83 30.00 18.26 30.00 L27.39 30.00 C28.83 30.00 30.00 28.83 30.00 27.39 L30.00 18.26 ZM23.96 23.74C23.90 24.38 23.75 24.76 23.11 24.83 C21.73 25.02 21.68 23.86 21.70 22.45 C21.74 21.37 22.06 20.67 23.13 20.82 C23.78 20.91 23.91 21.30 23.97 21.95 L25.49 21.95 L25.50 21.94 C25.33 20.30 24.38 19.55 23.01 19.50 C21.38 19.45 20.11 20.45 20.15 23.10 C20.18 24.85 21.09 26.15 22.85 26.15 C24.29 26.15 25.32 25.46 25.49 23.75 L25.49 23.74 L23.96 23.74 ZM18.07 10.43L18.09 10.38 L15.68 3.91 L14.30 3.91 L11.90 10.38 L11.92 10.43 L13.53 10.43 L13.96 9.14 L16.03 9.14 L16.47 10.43 L18.07 10.43 ZM15.60 7.85L14.39 7.85 L14.99 6.03 L15.60 7.85 ZM14.35 18.26C14.35 16.83 13.17 15.65 11.74 15.65 L2.61 15.65 C1.17 15.65 0.00 16.83 0.00 18.26 L0.00 27.39 C0.00 28.83 1.17 30.00 2.61 30.00 L11.74 30.00 C13.17 30.00 14.35 28.83 14.35 27.39 L14.35 18.26 ZM7.28 26.09C8.60 26.06 9.57 25.55 9.63 24.23 C9.65 23.47 9.31 22.96 8.79 22.72 C9.25 22.42 9.51 21.95 9.48 21.30 C9.43 20.05 8.43 19.62 7.19 19.57 C6.37 19.57 5.54 19.57 4.72 19.57 L4.72 26.09 L7.28 26.09 ZM6.26 23.36L6.26 24.80 L7.29 24.80 C7.83 24.77 8.11 24.52 8.09 24.01 C8.06 23.57 7.81 23.39 7.37 23.36 L6.26 23.36 ZM6.26 20.87L6.26 22.19 L7.15 22.19 C7.70 22.16 8.01 21.97 7.93 21.40 C7.90 21.12 7.76 20.88 7.11 20.87 L6.26 20.87 ZM6.26 20.87" fill="#000000" fill-opacity="1.00" fill-rule="evenodd" />
						</svg>
						<svg height="30.00" width="30.00" x="0.00" y="0.00" />
					</svg>
				</svg>
			</svg>
		</svg>
	</svg>
	<svg height="100.00" id="node23" width="200.00" x="398.50" y="488.50">
		<svg height="45.00" width="146.00" x="27.00" y="27.50">
			<path d="M2.00 22.50L2.00 11.00 C2.00 6.03 6.03 2.00 11.00 2.00 L135.00 2.00 C139.97 2.00 144.00 6.03 144.00 11.00 L144.00 34.00 C144.00 38.97 139.97 43.00 135.00 43.00 C135.00 43.00 135.00 43.00 135.00 43.00 L11.00 43.00 C6.03 43.00 2.00 38.97 2.00 34.00 ZM2.00 22.50" fill="#000000" fill-opacity="0.00" />
			<svg height="45.00" width="146.00" x="0.00" y="0.00">
				<svg height="35.00" width="136.00" x="5.00" y="5.00">
					<text dominant-baseline="middle" fill="#000000" fill-opacity="1.00" font-family="Verdana" font-size="14.00" font-weight="normal" text-anchor="middle" x="68.00" y="8.75">Document Decision</text>
					<text dominant-baseline="middle" fill="#000000" fill-opacity="1.00" font-family="Verdana" font-size="14.00" font-weight="normal" text-anchor="middle" x="68.00" y="26.25">Finding Process</text>
				</svg>
			</svg>
		</svg>
	</svg>
	<svg height="100.00" id="node31" width="200.00" x="398.50" y="382.50">
		<svg height="45.00" width="151.00" x="24.50" y="27.50">
			<path d="M2.00 22.50L2.00 11.00 C2.00 6.03 6.03 2.00 11.00 2.00 L140.00 2.00 C144.97 2.00 149.00 6.03 149.00 11.00 L149.00 34.00 C149.00 38.97 144.97 43.00 140.00 43.00 L11.00 43.00 C6.03 43.00 2.00 38.97 2.00 34.00 ZM2.00 22.50" fill="#000000" fill-opacity="0.00" />
			<svg height="45.00" width="151.00" x="0.00" y="0.00">
				<svg height="35.00" width="141.00" x="5.00" y="5.00">
					<text dominant-baseline="middle" fill="#000000" fill-opacity="1.00" font-family="Verdana" font-size="14.00" font-weight="normal" text-anchor="middle" x="70.50" y="8.75">Detail the transition</text>
					<text dominant-baseline="middle" fill="#000000" fill-opacity="1.00" font-family="Verdana" font-size="14.00" font-weight="normal" text-anchor="middle" x="70.50" y="26.25">to a known goal</text>
				</svg>
			</svg>
		</svg>
	</svg>
	<svg height="100.00" id="node10" width="200.00" x="189.50" y="232.50">
		<svg height="44.00" width="191.00" x="4.50" y="28.00">
			<path d="M2.00 22.00L2.00 11.00 C2.00 6.03 6.03 2.00 11.00 2.00 L180.00 2.00 C184.97 2.00 189.00 6.03 189.00 11.00 L189.00 33.00 C189.00 37.97 184.97 42.00 180.00 42.00 C180.00 42.00 180.00 42.00 180.00 42.00 L11.00 42.00 C6.03 42.00 2.00 37.97 2.00 33.00 ZM2.00 22.00" fill="#ecf3f3" fill-opacity="1.00" />
			<svg height="44.00" width="191.00" x="0.00" y="0.00">
				<path d="M2.00 22.00L2.00 11.00 C2.00 6.03 6.03 2.00 11.00 2.00 L180.00 2.00 C184.97 2.00 189.00 6.03 189.00 11.00 L189.00 33.00 C189.00 37.97 184.97 42.00 180.00 42.00 C180.00 42.00 180.00 42.00 180.00 42.00 L11.00 42.00 C6.03 42.00 2.00 37.97 2.00 33.00 ZM2.00 22.00" fill="none" stroke="#000000" stroke-opacity="1.00" stroke-width="1.50" />
				<svg height="30.00" width="177.00" x="7.00" y="7.00">
					<svg height="30.00" width="143.00" x="34.00" y="0.00">
						<svg height="30.00" width="143.00" x="0.00" y="0.00">
							<text dominant-baseline="middle" fill="#000000" fill-opacity="1.00" font-family="Verdana" font-size="14.00" font-weight="normal" text-anchor="middle" x="71.50" y="15.00">Current Reality Tree</text>
						</svg>
					</svg>
					<svg height="30.00" width="30.00" x="0.00" y="0.00">
						<svg x="0.00" y="-0.00">
							<path d="M22.17 2.61C22.17 1.17 21.00 0.00 19.57 0.00 L10.43 0.00 C9.00 0.00 7.83 1.17 7.83 2.61 L7.83 11.74 C7.83 13.17 9.00 14.35 10.43 14.35 L19.57 14.35 C21.00 14.35 22.17 13.17 22.17 11.74 L22.17 2.61 ZM30.00 18.26C30.00 16.83 28.83 15.65 27.39 15.65 L18.26 15.65 C16.83 15.65 15.65 16.83 15.65 18.26 L15.65 27.39 C15.65 28.83 16.83 30.00 18.26 30.00 L27.39 30.00 C28.83 30.00 30.00 28.83 30.00 27.39 L30.00 18.26 ZM23.96 23.74C23.90 24.38 23.75 24.76 23.11 24.83 C21.73 25.02 21.68 23.86 21.70 22.45 C21.74 21.37 22.06 20.67 23.13 20.82 C23.78 20.91 23.91 21.30 23.97 21.95 L25.49 21.95 L25.50 21.94 C25.33 20.30 24.38 19.55 23.01 19.50 C21.38 19.45 20.11 20.45 20.15 23.10 C20.18 24.85 21.09 26.15 22.85 26.15 C24.29 26.15 25.32 25.46 25.49 23.75 L25.49 23.74 L23.96 23.74 ZM18.07 10.43L18.09 10.38 L15.68 3.91 L14.30 3.91 L11.90 10.38 L11.92 10.43 L13.53 10.43 L13.96 9.14 L16.03 9.14 L16.47 10.43 L18.07 10.43 ZM15.60 7.85L14.39 7.85 L14.99 6.03 L15.60 7.85 ZM14.35 18.26C14.35 16.83 13.17 15.65 11.74 15.65 L2.61 15.65 C1.17 15.65 0.00 16.83 0.00 18.26 L0.00 27.39 C0.00 28.83 1.17 30.00 2.61 30.00 L11.74 30.00 C13.17 30.00 14.35 28.83 14.35 27.39 L14.35 18.26 ZM7.28 26.09C8.60 26.06 9.57 25.55 9.63 24.23 C9.65 23.47 9.31 22.96 8.79 22.72 C9.25 22.42 9.51 21.95 9.48 21.30 C9.43 20.05 8.43 19.62 7.19 19.57 C6.37 19.57 5.54 19.57 4.72 19.57 L4.72 26.09 L7.28 26.09 ZM6.26 23.36L6.26 24.80 L7.29 24.80 C7.83 24.77 8.11 24.52 8.09 24.01 C8.06 23.57 7.81 23.39 7.37 23.36 L6.26 23.36 ZM6.26 20.87L6.26 22.19 L7.15 22.19 C7.70 22.16 8.01 21.97 7.93 21.40 C7.90 21.12 7.76 20.88 7.11 20.87 L6.26 20.87 ZM6.26 20.87" fill="#000000" fill-opacity="1.00" fill-rule="evenodd" />
						</svg>
						<svg height="30.00" width="30.00" x="0.00" y="0.00" />
					</svg>
				</svg>
			</svg>
		</svg>
	</svg>
	<svg height="100.00" id="node21" width="200.00" x="398.50" y="232.50">
		<svg height="32.00" width="154.00" x="23.00" y="34.00">
			<path d="M2.00 16.00L2.00 11.00 C2.00 6.03 6.03 2.00 11.00 2.00 L143.00 2.00 C147.97 2.00 152.00 6.03 152.00 11.00 L152.00 21.00 C152.00 25.97 147.97 30.00 143.00 30.00 L11.00 30.00 C6.03 30.00 2.00 25.97 2.00 21.00 ZM2.00 16.00" fill="#000000" fill-opacity="0.00" />
			<svg height="32.00" width="154.00" x="0.00" y="0.00">
				<svg height="22.00" width="144.00" x="5.00" y="5.00">
					<text dominant-baseline="middle" fill="#000000" fill-opacity="1.00" font-family="Verdana" font-size="14.00" font-weight="normal" text-anchor="middle" x="72.00" y="11.00">Find the Root-Cause</text>
				</svg>
			</svg>
		</svg>
	</svg>
	<svg height="100.00" id="node24" width="200.00" x="398.50" y="591.50">
		<svg height="45.00" width="149.00" x="25.50" y="27.50">
			<path d="M2.00 22.50L2.00 11.00 C2.00 6.03 6.03 2.00 11.00 2.00 L138.00 2.00 C142.97 2.00 147.00 6.03 147.00 11.00 L147.00 34.00 C147.00 38.97 142.97 43.00 138.00 43.00 L11.00 43.00 C6.03 43.00 2.00 38.97 2.00 34.00 ZM2.00 22.50" fill="#000000" fill-opacity="0.00" />
			<svg height="45.00" width="149.00" x="0.00" y="0.00">
				<svg height="35.00" width="139.00" x="5.00" y="5.00">
					<text dominant-baseline="middle" fill="#000000" fill-opacity="1.00" font-family="Verdana" font-size="14.00" font-weight="normal" text-anchor="middle" x="69.50" y="8.75">Materialise Benefits</text>
					<text dominant-baseline="middle" fill="#000000" fill-opacity="1.00" font-family="Verdana" font-size="14.00" font-weight="normal" text-anchor="middle" x="69.50" y="26.25">in Change Initiative</text>
				</svg>
			</svg>
		</svg>
	</svg>
	<svg height="100.00" id="node9" width="200.00" x="189.50" y="182.50">
		<svg height="44.00" width="178.00" x="11.00" y="28.00">
			<path d="M2.00 22.00L2.00 11.00 C2.00 6.03 6.03 2.00 11.00 2.00 L167.00 2.00 C171.97 2.00 176.00 6.03 176.00 11.00 L176.00 33.00 C176.00 37.97 171.97 42.00 167.00 42.00 L11.00 42.00 C6.03 42.00 2.00 37.97 2.00 33.00 ZM2.00 22.00" fill="#ecf3f3" fill-opacity="1.00" />
			<svg height="44.00" width="178.00" x="0.00" y="0.00">
				<path d="M2.00 22.00L2.00 11.00 C2.00 6.03 6.03 2.00 11.00 2.00 L167.00 2.00 C171.97 2.00 176.00 6.03 176.00 11.00 L176.00 33.00 C176.00 37.97 171.97 42.00 167.00 42.00 L11.00 42.00 C6.03 42.00 2.00 37.97 2.00 33.00 ZM2.00 22.00" fill="none" stroke="#000000" stroke-opacity="1.00" stroke-width="1.50" />
				<svg height="30.00" width="164.00" x="7.00" y="7.00">
					<svg height="30.00" width="130.00" x="34.00" y="0.00">
						<svg height="30.00" width="130.00" x="0.00" y="0.00">
							<text dominant-baseline="middle" fill="#000000" fill-opacity="1.00" font-family="Verdana" font-size="14.00" font-weight="normal" text-anchor="middle" x="65.00" y="15.00">Evaporating Cloud</text>
						</svg>
					</svg>
					<svg height="30.00" width="30.00" x="0.00" y="0.00">
						<svg x="0.00" y="-0.00">
							<path d="M22.17 2.61C22.17 1.17 21.00 0.00 19.57 0.00 L10.43 0.00 C9.00 0.00 7.83 1.17 7.83 2.61 L7.83 11.74 C7.83 13.17 9.00 14.35 10.43 14.35 L19.57 14.35 C21.00 14.35 22.17 13.17 22.17 11.74 L22.17 2.61 ZM30.00 18.26C30.00 16.83 28.83 15.65 27.39 15.65 L18.26 15.65 C16.83 15.65 15.65 16.83 15.65 18.26 L15.65 27.39 C15.65 28.83 16.83 30.00 18.26 30.00 L27.39 30.00 C28.83 30.00 30.00 28.83 30.00 27.39 L30.00 18.26 ZM23.96 23.74C23.90 24.38 23.75 24.76 23.11 24.83 C21.73 25.02 21.68 23.86 21.70 22.45 C21.74 21.37 22.06 20.67 23.13 20.82 C23.78 20.91 23.91 21.30 23.97 21.95 L25.49 21.95 L25.50 21.94 C25.33 20.30 24.38 19.55 23.01 19.50 C21.38 19.45 20.11 20.45 20.15 23.10 C20.18 24.85 21.09 26.15 22.85 26.15 C24.29 26.15 25.32 25.46 25.49 23.75 L25.49 23.74 L23.96 23.74 ZM18.07 10.43L18.09 10.38 L15.68 3.91 L14.30 3.91 L11.90 10.38 L11.92 10.43 L13.53 10.43 L13.96 9.14 L16.03 9.14 L16.47 10.43 L18.07 10.43 ZM15.60 7.85L14.39 7.85 L14.99 6.03 L15.60 7.85 ZM14.35 18.26C14.35 16.83 13.17 15.65 11.74 15.65 L2.61 15.65 C1.17 15.65 0.00 16.83 0.00 18.26 L0.00 27.39 C0.00 28.83 1.17 30.00 2.61 30.00 L11.74 30.00 C13.17 30.00 14.35 28.83 14.35 27.39 L14.35 18.26 ZM7.28 26.09C8.60 26.06 9.57 25.55 9.63 24.23 C9.65 23.47 9.31 22.96 8.79 22.72 C9.25 22.42 9.51 21.95 9.48 21.30 C9.43 20.05 8.43 19.62 7.19 19.57 C6.37 19.57 5.54 19.57 4.72 19.57 L4.72 26.09 L7.28 26.09 ZM6.26 23.36L6.26 24.80 L7.29 24.80 C7.83 24.77 8.11 24.52 8.09 24.01 C8.06 23.57 7.81 23.39 7.37 23.36 L6.26 23.36 ZM6.26 20.87L6.26 22.19 L7.15 22.19 C7.70 22.16 8.01 21.97 7.93 21.40 C7.90 21.12 7.76 20.88 7.11 20.87 L6.26 20.87 ZM6.26 20.87" fill="#000000" fill-opacity="1.00" fill-rule="evenodd" />
						</svg>
						<svg height="30.00" width="30.00" x="0.00" y="0.00" />
					</svg>
				</svg>
			</svg>
		</svg>
	</svg>
	<svg height="100.00" id="node20" width="200.00" x="398.50" y="182.50">
		<svg height="32.00" width="130.00" x="35.00" y="34.00">
			<path d="M2.00 16.00L2.00 11.00 C2.00 6.03 6.03 2.00 11.00 2.00 L119.00 2.00 C123.97 2.00 128.00 6.03 128.00 11.00 L128.00 21.00 C128.00 25.97 123.97 30.00 119.00 30.00 C119.00 30.00 119.00 30.00 119.00 30.00 L11.00 30.00 C6.03 30.00 2.00 25.97 2.00 21.00 ZM2.00 16.00" fill="#000000" fill-opacity="0.00" />
			<svg height="32.00" width="130.00" x="0.00" y="0.00">
				<svg height="22.00" width="120.00" x="5.00" y="5.00">
					<text dominant-baseline="middle" fill="#000000" fill-opacity="1.00" font-family="Verdana" font-size="14.00" font-weight="normal" text-anchor="middle" x="60.00" y="11.00">Resolve Conflicts</text>
				</svg>
			</svg>
		</svg>
	</svg>
	<svg height="100.00" id="node15" width="200.00" x="189.50" y="538.50">
		<svg height="44.00" width="132.00" x="34.00" y="28.00">
			<path d="M2.00 22.00L2.00 11.00 C2.00 6.03 6.03 2.00 11.00 2.00 L121.00 2.00 C125.97 2.00 130.00 6.03 130.00 11.00 L130.00 33.00 C130.00 37.97 125.97 42.00 121.00 42.00 C121.00 42.00 121.00 42.00 121.00 42.00 L11.00 42.00 C6.03 42.00 2.00 37.97 2.00 33.00 ZM2.00 22.00" fill="#ecf3f3" fill-opacity="1.00" />
			<svg height="44.00" width="132.00" x="0.00" y="0.00">
				<path d="M2.00 22.00L2.00 11.00 C2.00 6.03 6.03 2.00 11.00 2.00 L121.00 2.00 C125.97 2.00 130.00 6.03 130.00 11.00 L130.00 33.00 C130.00 37.97 125.97 42.00 121.00 42.00 C121.00 42.00 121.00 42.00 121.00 42.00 L11.00 42.00 C6.03 42.00 2.00 37.97 2.00 33.00 ZM2.00 22.00" fill="none" stroke="#000000" stroke-opacity="1.00" stroke-width="1.50" />
				<svg height="30.00" width="118.00" x="7.00" y="7.00">
					<svg height="30.00" width="84.00" x="34.00" y="0.00">
						<svg height="30.00" width="84.00" x="0.00" y="0.00">
							<text dominant-baseline="middle" fill="#000000" fill-opacity="1.00" font-family="Verdana" font-size="14.00" font-weight="normal" text-anchor="middle" x="42.00" y="15.00">Impact Map</text>
						</svg>
					</svg>
					<svg height="30.00" width="30.00" x="0.00" y="0.00">
						<svg x="0.00" y="-0.00">
							<path d="M22.17 2.61C22.17 1.17 21.00 0.00 19.57 0.00 L10.43 0.00 C9.00 0.00 7.83 1.17 7.83 2.61 L7.83 11.74 C7.83 13.17 9.00 14.35 10.43 14.35 L19.57 14.35 C21.00 14.35 22.17 13.17 22.17 11.74 L22.17 2.61 ZM30.00 18.26C30.00 16.83 28.83 15.65 27.39 15.65 L18.26 15.65 C16.83 15.65 15.65 16.83 15.65 18.26 L15.65 27.39 C15.65 28.83 16.83 30.00 18.26 30.00 L27.39 30.00 C28.83 30.00 30.00 28.83 30.00 27.39 L30.00 18.26 ZM23.96 23.74C23.90 24.38 23.75 24.76 23.11 24.83 C21.73 25.02 21.68 23.86 21.70 22.45 C21.74 21.37 22.06 20.67 23.13 20.82 C23.78 20.91 23.91 21.30 23.97 21.95 L25.49 21.95 L25.50 21.94 C25.33 20.30 24.38 19.55 23.01 19.50 C21.38 19.45 20.11 20.45 20.15 23.10 C20.18 24.85 21.09 26.15 22.85 26.15 C24.29 26.15 25.32 25.46 25.49 23.75 L25.49 23.74 L23.96 23.74 ZM18.07 10.43L18.09 10.38 L15.68 3.91 L14.30 3.91 L11.90 10.38 L11.92 10.43 L13.53 10.43 L13.96 9.14 L16.03 9.14 L16.47 10.43 L18.07 10.43 ZM15.60 7.85L14.39 7.85 L14.99 6.03 L15.60 7.85 ZM14.35 18.26C14.35 16.83 13.17 15.65 11.74 15.65 L2.61 15.65 C1.17 15.65 0.00 16.83 0.00 18.26 L0.00 27.39 C0.00 28.83 1.17 30.00 2.61 30.00 L11.74 30.00 C13.17 30.00 14.35 28.83 14.35 27.39 L14.35 18.26 ZM7.28 26.09C8.60 26.06 9.57 25.55 9.63 24.23 C9.65 23.47 9.31 22.96 8.79 22.72 C9.25 22.42 9.51 21.95 9.48 21.30 C9.43 20.05 8.43 19.62 7.19 19.57 C6.37 19.57 5.54 19.57 4.72 19.57 L4.72 26.09 L7.28 26.09 ZM6.26 23.36L6.26 24.80 L7.29 24.80 C7.83 24.77 8.11 24.52 8.09 24.01 C8.06 23.57 7.81 23.39 7.37 23.36 L6.26 23.36 ZM6.26 20.87L6.26 22.19 L7.15 22.19 C7.70 22.16 8.01 21.97 7.93 21.40 C7.90 21.12 7.76 20.88 7.11 20.87 L6.26 20.87 ZM6.26 20.87" fill="#000000" fill-opacity="1.00" fill-rule="evenodd" />
						</svg>
						<svg height="30.00" width="30.00" x="0.00" y="0.00" />
					</svg>
				</svg>
			</svg>
		</svg>
	</svg>
	<svg height="100.00" id="node29" width="200.00" x="398.50" y="331.50">
		<svg height="45.00" width="148.00" x="26.00" y="27.50">
			<path d="M2.00 22.50L2.00 11.00 C2.00 6.03 6.03 2.00 11.00 2.00 L137.00 2.00 C141.97 2.00 146.00 6.03 146.00 11.00 L146.00 34.00 C146.00 38.97 141.97 43.00 137.00 43.00 L11.00 43.00 C6.03 43.00 2.00 38.97 2.00 34.00 ZM2.00 22.50" fill="#000000" fill-opacity="0.00" />
			<svg height="45.00" width="148.00" x="0.00" y="0.00">
				<svg height="35.00" width="138.00" x="5.00" y="5.00">
					<text dominant-baseline="middle" fill="#000000" fill-opacity="1.00" font-family="Verdana" font-size="14.00" font-weight="normal" text-anchor="middle" x="69.00" y="8.75">Plan the next Steps</text>
					<text dominant-baseline="middle" fill="#000000" fill-opacity="1.00" font-family="Verdana" font-size="14.00" font-weight="normal" text-anchor="middle" x="69.00" y="26.25">to a known goal</text>
				</svg>
			</svg>
		</svg>
	</svg>
	<svg height="100.00" id="node19" width="200.00" x="398.50" y="102.50">
		<svg height="62.00" width="155.00" x="22.50" y="19.00">
			<path d="M2.00 31.00L2.00 11.00 C2.00 6.03 6.03 2.00 11.00 2.00 L144.00 2.00 C148.97 2.00 153.00 6.03 153.00 11.00 L153.00 51.00 C153.00 55.97 148.97 60.00 144.00 60.00 C144.00 60.00 144.00 60.00 144.00 60.00 L11.00 60.00 C6.03 60.00 2.00 55.97 2.00 51.00 ZM2.00 31.00" fill="#000000" fill-opacity="0.00" />
			<svg height="62.00" width="155.00" x="0.00" y="0.00">
				<svg height="52.00" width="145.00" x="5.00" y="5.00">
					<text dominant-baseline="middle" fill="#000000" fill-opacity="1.00" font-family="Verdana" font-size="14.00" font-weight="normal" text-anchor="middle" x="72.50" y="8.67">Answer questions,</text>
					<text dominant-baseline="middle" fill="#000000" fill-opacity="1.00" font-family="Verdana" font-size="14.00" font-weight="normal" text-anchor="middle" x="72.50" y="26.00">either by self-coach</text>
					<text dominant-baseline="middle" fill="#000000" fill-opacity="1.00" font-family="Verdana" font-size="14.00" font-weight="normal" text-anchor="middle" x="72.50" y="43.33">or dialogue mapping</text>
				</svg>
			</svg>
		</svg>
	</svg>
	<a href="https://vithanco.com/notations/causal-loop-diagram">
		<svg height="100.00" id="node17" width="200.00" x="189.50" y="0.50">
			<svg height="44.00" width="199.00" x="0.50" y="28.00">
				<path d="M2.00 22.00L2.00 11.00 C2.00 6.03 6.03 2.00 11.00 2.00 L188.00 2.00 C192.97 2.00 197.00 6.03 197.00 11.00 L197.00 33.00 C197.00 37.97 192.97 42.00 188.00 42.00 C188.00 42.00 188.00 42.00 188.00 42.00 L11.00 42.00 C6.03 42.00 2.00 37.97 2.00 33.00 ZM2.00 22.00" fill="#ecf3f3" fill-opacity="1.00" />
				<svg height="44.00" width="199.00" x="0.00" y="0.00">
					<path d="M2.00 22.00L2.00 11.00 C2.00 6.03 6.03 2.00 11.00 2.00 L188.00 2.00 C192.97 2.00 197.00 6.03 197.00 11.00 L197.00 33.00 C197.00 37.97 192.97 42.00 188.00 42.00 C188.00 42.00 188.00 42.00 188.00 42.00 L11.00 42.00 C6.03 42.00 2.00 37.97 2.00 33.00 ZM2.00 22.00" fill="none" stroke="#000000" stroke-opacity="1.00" stroke-width="1.50" />
					<svg height="30.00" width="185.00" x="7.00" y="7.00">
						<svg height="30.00" width="151.00" x="34.00" y="0.00">
							<svg height="30.00" width="151.00" x="0.00" y="0.00">
								<text dominant-baseline="middle" fill="#000000" fill-opacity="1.00" font-family="Verdana" font-size="14.00" font-weight="normal" text-anchor="middle" x="75.50" y="15.00">Causal Loop Diagram</text>
							</svg>
						</svg>
						<svg height="30.00" width="30.00" x="0.00" y="0.00">
							<svg x="0.00" y="-0.00">
								<path d="M22.17 2.61C22.17 1.17 21.00 0.00 19.57 0.00 L10.43 0.00 C9.00 0.00 7.83 1.17 7.83 2.61 L7.83 11.74 C7.83 13.17 9.00 14.35 10.43 14.35 L19.57 14.35 C21.00 14.35 22.17 13.17 22.17 11.74 L22.17 2.61 ZM30.00 18.26C30.00 16.83 28.83 15.65 27.39 15.65 L18.26 15.65 C16.83 15.65 15.65 16.83 15.65 18.26 L15.65 27.39 C15.65 28.83 16.83 30.00 18.26 30.00 L27.39 30.00 C28.83 30.00 30.00 28.83 30.00 27.39 L30.00 18.26 ZM23.96 23.74C23.90 24.38 23.75 24.76 23.11 24.83 C21.73 25.02 21.68 23.86 21.70 22.45 C21.74 21.37 22.06 20.67 23.13 20.82 C23.78 20.91 23.91 21.30 23.97 21.95 L25.49 21.95 L25.50 21.94 C25.33 20.30 24.38 19.55 23.01 19.50 C21.38 19.45 20.11 20.45 20.15 23.10 C20.18 24.85 21.09 26.15 22.85 26.15 C24.29 26.15 25.32 25.46 25.49 23.75 L25.49 23.74 L23.96 23.74 ZM18.07 10.43L18.09 10.38 L15.68 3.91 L14.30 3.91 L11.90 10.38 L11.92 10.43 L13.53 10.43 L13.96 9.14 L16.03 9.14 L16.47 10.43 L18.07 10.43 ZM15.60 7.85L14.39 7.85 L14.99 6.03 L15.60 7.85 ZM14.35 18.26C14.35 16.83 13.17 15.65 11.74 15.65 L2.61 15.65 C1.17 15.65 0.00 16.83 0.00 18.26 L0.00 27.39 C0.00 28.83 1.17 30.00 2.61 30.00 L11.74 30.00 C13.17 30.00 14.35 28.83 14.35 27.39 L14.35 18.26 ZM7.28 26.09C8.60 26.06 9.57 25.55 9.63 24.23 C9.65 23.47 9.31 22.96 8.79 22.72 C9.25 22.42 9.51 21.95 9.48 21.30 C9.43 20.05 8.43 19.62 7.19 19.57 C6.37 19.57 5.54 19.57 4.72 19.57 L4.72 26.09 L7.28 26.09 ZM6.26 23.36L6.26 24.80 L7.29 24.80 C7.83 24.77 8.11 24.52 8.09 24.01 C8.06 23.57 7.81 23.39 7.37 23.36 L6.26 23.36 ZM6.26 20.87L6.26 22.19 L7.15 22.19 C7.70 22.16 8.01 21.97 7.93 21.40 C7.90 21.12 7.76 20.88 7.11 20.87 L6.26 20.87 ZM6.26 20.87" fill="#000000" fill-opacity="1.00" fill-rule="evenodd" />
							</svg>
							<svg height="30.00" width="30.00" x="0.00" y="0.00" />
						</svg>
					</svg>
				</svg>
			</svg>
		</svg>
	</a>
	<svg height="100.00" id="node26" width="200.00" x="189.50" y="282.50">
		<svg height="44.00" width="184.00" x="8.00" y="28.00">
			<path d="M2.00 22.00L2.00 11.00 C2.00 6.03 6.03 2.00 11.00 2.00 L173.00 2.00 C177.97 2.00 182.00 6.03 182.00 11.00 L182.00 33.00 C182.00 37.97 177.97 42.00 173.00 42.00 C173.00 42.00 173.00 42.00 173.00 42.00 L11.00 42.00 C6.03 42.00 2.00 37.97 2.00 33.00 ZM2.00 22.00" fill="#ecf3f3" fill-opacity="1.00" />
			<svg height="44.00" width="184.00" x="0.00" y="0.00">
				<path d="M2.00 22.00L2.00 11.00 C2.00 6.03 6.03 2.00 11.00 2.00 L173.00 2.00 C177.97 2.00 182.00 6.03 182.00 11.00 L182.00 33.00 C182.00 37.97 177.97 42.00 173.00 42.00 C173.00 42.00 173.00 42.00 173.00 42.00 L11.00 42.00 C6.03 42.00 2.00 37.97 2.00 33.00 ZM2.00 22.00" fill="none" stroke="#000000" stroke-opacity="1.00" stroke-width="1.50" />
				<svg height="30.00" width="170.00" x="7.00" y="7.00">
					<svg height="30.00" width="136.00" x="34.00" y="0.00">
						<svg height="30.00" width="136.00" x="0.00" y="0.00">
							<text dominant-baseline="middle" fill="#000000" fill-opacity="1.00" font-family="Verdana" font-size="14.00" font-weight="normal" text-anchor="middle" x="68.00" y="15.00">Future Reality Tree</text>
						</svg>
					</svg>
					<svg height="30.00" width="30.00" x="0.00" y="0.00">
						<svg x="0.00" y="-0.00">
							<path d="M22.17 2.61C22.17 1.17 21.00 0.00 19.57 0.00 L10.43 0.00 C9.00 0.00 7.83 1.17 7.83 2.61 L7.83 11.74 C7.83 13.17 9.00 14.35 10.43 14.35 L19.57 14.35 C21.00 14.35 22.17 13.17 22.17 11.74 L22.17 2.61 ZM30.00 18.26C30.00 16.83 28.83 15.65 27.39 15.65 L18.26 15.65 C16.83 15.65 15.65 16.83 15.65 18.26 L15.65 27.39 C15.65 28.83 16.83 30.00 18.26 30.00 L27.39 30.00 C28.83 30.00 30.00 28.83 30.00 27.39 L30.00 18.26 ZM23.96 23.74C23.90 24.38 23.75 24.76 23.11 24.83 C21.73 25.02 21.68 23.86 21.70 22.45 C21.74 21.37 22.06 20.67 23.13 20.82 C23.78 20.91 23.91 21.30 23.97 21.95 L25.49 21.95 L25.50 21.94 C25.33 20.30 24.38 19.55 23.01 19.50 C21.38 19.45 20.11 20.45 20.15 23.10 C20.18 24.85 21.09 26.15 22.85 26.15 C24.29 26.15 25.32 25.46 25.49 23.75 L25.49 23.74 L23.96 23.74 ZM18.07 10.43L18.09 10.38 L15.68 3.91 L14.30 3.91 L11.90 10.38 L11.92 10.43 L13.53 10.43 L13.96 9.14 L16.03 9.14 L16.47 10.43 L18.07 10.43 ZM15.60 7.85L14.39 7.85 L14.99 6.03 L15.60 7.85 ZM14.35 18.26C14.35 16.83 13.17 15.65 11.74 15.65 L2.61 15.65 C1.17 15.65 0.00 16.83 0.00 18.26 L0.00 27.39 C0.00 28.83 1.17 30.00 2.61 30.00 L11.74 30.00 C13.17 30.00 14.35 28.83 14.35 27.39 L14.35 18.26 ZM7.28 26.09C8.60 26.06 9.57 25.55 9.63 24.23 C9.65 23.47 9.31 22.96 8.79 22.72 C9.25 22.42 9.51 21.95 9.48 21.30 C9.43 20.05 8.43 19.62 7.19 19.57 C6.37 19.57 5.54 19.57 4.72 19.57 L4.72 26.09 L7.28 26.09 ZM6.26 23.36L6.26 24.80 L7.29 24.80 C7.83 24.77 8.11 24.52 8.09 24.01 C8.06 23.57 7.81 23.39 7.37 23.36 L6.26 23.36 ZM6.26 20.87L6.26 22.19 L7.15 22.19 C7.70 22.16 8.01 21.97 7.93 21.40 C7.90 21.12 7.76 20.88 7.11 20.87 L6.26 20.87 ZM6.26 20.87" fill="#000000" fill-opacity="1.00" fill-rule="evenodd" />
						</svg>
						<svg height="30.00" width="30.00" x="0.00" y="0.00" />
					</svg>
				</svg>
			</svg>
		</svg>
	</svg>
	<svg height="100.00" id="node14" width="200.00" x="189.50" y="591.50">
		<svg height="49.00" width="181.00" x="9.50" y="25.50">
			<path d="M2.00 24.50L2.00 11.00 C2.00 6.03 6.03 2.00 11.00 2.00 L170.00 2.00 C174.97 2.00 179.00 6.03 179.00 11.00 L179.00 38.00 C179.00 42.97 174.97 47.00 170.00 47.00 C170.00 47.00 170.00 47.00 170.00 47.00 L11.00 47.00 C6.03 47.00 2.00 42.97 2.00 38.00 ZM2.00 24.50" fill="#ecf3f3" fill-opacity="1.00" />
			<svg height="49.00" width="181.00" x="0.00" y="0.00">
				<path d="M2.00 24.50L2.00 11.00 C2.00 6.03 6.03 2.00 11.00 2.00 L170.00 2.00 C174.97 2.00 179.00 6.03 179.00 11.00 L179.00 38.00 C179.00 42.97 174.97 47.00 170.00 47.00 C170.00 47.00 170.00 47.00 170.00 47.00 L11.00 47.00 C6.03 47.00 2.00 42.97 2.00 38.00 ZM2.00 24.50" fill="none" stroke="#000000" stroke-opacity="1.00" stroke-width="1.50" />
				<svg height="35.00" width="167.00" x="7.00" y="7.00">
					<svg height="35.00" width="133.00" x="34.00" y="0.00">
						<svg height="35.00" width="133.00" x="0.00" y="0.00">
							<text dominant-baseline="middle" fill="#000000" fill-opacity="1.00" font-family="Verdana" font-size="14.00" font-weight="normal" text-anchor="middle" x="66.50" y="8.75">Benefit Breakdown</text>
							<text dominant-baseline="middle" fill="#000000" fill-opacity="1.00" font-family="Verdana" font-size="14.00" font-weight="normal" text-anchor="middle" x="66.50" y="26.25">Structure</text>
						</svg>
					</svg>
					<svg height="35.00" width="30.00" x="0.00" y="0.00">
						<svg x="0.00" y="-2.50">
							<path d="M22.17 7.61C22.17 6.17 21.00 5.00 19.57 5.00 L10.43 5.00 C9.00 5.00 7.83 6.17 7.83 7.61 L7.83 16.74 C7.83 18.17 9.00 19.35 10.43 19.35 L19.57 19.35 C21.00 19.35 22.17 18.17 22.17 16.74 L22.17 7.61 ZM30.00 23.26C30.00 21.83 28.83 20.65 27.39 20.65 L18.26 20.65 C16.83 20.65 15.65 21.83 15.65 23.26 L15.65 32.39 C15.65 33.83 16.83 35.00 18.26 35.00 L27.39 35.00 C28.83 35.00 30.00 33.83 30.00 32.39 L30.00 23.26 ZM23.96 28.74C23.90 29.38 23.75 29.76 23.11 29.83 C21.73 30.02 21.68 28.86 21.70 27.45 C21.74 26.37 22.06 25.67 23.13 25.82 C23.78 25.91 23.91 26.30 23.97 26.95 L25.49 26.95 L25.50 26.94 C25.33 25.30 24.38 24.55 23.01 24.50 C21.38 24.45 20.11 25.45 20.15 28.10 C20.18 29.85 21.09 31.15 22.85 31.15 C24.29 31.15 25.32 30.46 25.49 28.75 L25.49 28.74 L23.96 28.74 ZM18.07 15.43L18.09 15.38 L15.68 8.91 L14.30 8.91 L11.90 15.38 L11.92 15.43 L13.53 15.43 L13.96 14.14 L16.03 14.14 L16.47 15.43 L18.07 15.43 ZM15.60 12.85L14.39 12.85 L14.99 11.03 L15.60 12.85 ZM14.35 23.26C14.35 21.83 13.17 20.65 11.74 20.65 L2.61 20.65 C1.17 20.65 0.00 21.83 0.00 23.26 L0.00 32.39 C0.00 33.83 1.17 35.00 2.61 35.00 L11.74 35.00 C13.17 35.00 14.35 33.83 14.35 32.39 L14.35 23.26 ZM7.28 31.09C8.60 31.06 9.57 30.55 9.63 29.23 C9.65 28.47 9.31 27.96 8.79 27.72 C9.25 27.42 9.51 26.95 9.48 26.30 C9.43 25.05 8.43 24.62 7.19 24.57 C6.37 24.57 5.54 24.57 4.72 24.57 L4.72 31.09 L7.28 31.09 ZM6.26 28.36L6.26 29.80 L7.29 29.80 C7.83 29.77 8.11 29.52 8.09 29.01 C8.06 28.57 7.81 28.39 7.37 28.36 L6.26 28.36 ZM6.26 25.87L6.26 27.19 L7.15 27.19 C7.70 27.16 8.01 26.97 7.93 26.40 C7.90 26.12 7.76 25.88 7.11 25.87 L6.26 25.87 ZM6.26 25.87" fill="#000000" fill-opacity="1.00" fill-rule="evenodd" />
						</svg>
						<svg height="30.00" width="30.00" x="0.00" y="2.00" />
					</svg>
				</svg>
			</svg>
		</svg>
	</svg>
	<svg height="100.00" id="node22" width="200.00" x="398.50" y="0.50">
		<svg height="45.00" width="139.00" x="30.50" y="27.50">
			<path d="M2.00 22.50L2.00 11.00 C2.00 6.03 6.03 2.00 11.00 2.00 L128.00 2.00 C132.97 2.00 137.00 6.03 137.00 11.00 L137.00 34.00 C137.00 38.97 132.97 43.00 128.00 43.00 C128.00 43.00 128.00 43.00 128.00 43.00 L11.00 43.00 C6.03 43.00 2.00 38.97 2.00 34.00 ZM2.00 22.50" fill="#000000" fill-opacity="0.00" />
			<svg height="45.00" width="139.00" x="0.00" y="0.00">
				<svg height="35.00" width="129.00" x="5.00" y="5.00">
					<text dominant-baseline="middle" fill="#000000" fill-opacity="1.00" font-family="Verdana" font-size="14.00" font-weight="normal" text-anchor="middle" x="64.50" y="8.75">Analyse Complex</text>
					<text dominant-baseline="middle" fill="#000000" fill-opacity="1.00" font-family="Verdana" font-size="14.00" font-weight="normal" text-anchor="middle" x="64.50" y="26.25">System Behaviour</text>
				</svg>
			</svg>
		</svg>
	</svg>
	<a href="">
		<svg height="100.00" id="node8" width="200.00" x="189.50" y="50.50">
			<svg height="44.00" width="147.00" x="26.50" y="28.00">
				<path d="M2.00 22.00L2.00 11.00 C2.00 6.03 6.03 2.00 11.00 2.00 L136.00 2.00 C140.97 2.00 145.00 6.03 145.00 11.00 L145.00 33.00 C145.00 37.97 140.97 42.00 136.00 42.00 L11.00 42.00 C6.03 42.00 2.00 37.97 2.00 33.00 ZM2.00 22.00" fill="#ecf3f3" fill-opacity="1.00" />
				<svg height="44.00" width="147.00" x="0.00" y="0.00">
					<path d="M2.00 22.00L2.00 11.00 C2.00 6.03 6.03 2.00 11.00 2.00 L136.00 2.00 C140.97 2.00 145.00 6.03 145.00 11.00 L145.00 33.00 C145.00 37.97 140.97 42.00 136.00 42.00 L11.00 42.00 C6.03 42.00 2.00 37.97 2.00 33.00 ZM2.00 22.00" fill="none" stroke="#000000" stroke-opacity="1.00" stroke-width="1.50" />
					<svg height="30.00" width="133.00" x="7.00" y="7.00">
						<svg height="30.00" width="99.00" x="34.00" y="0.00">
							<svg height="30.00" width="99.00" x="0.00" y="0.00">
								<text dominant-baseline="middle" fill="#000000" fill-opacity="1.00" font-family="Verdana" font-size="14.00" font-weight="normal" text-anchor="middle" x="49.50" y="15.00">Concept Maps</text>
							</svg>
						</svg>
						<svg height="30.00" width="30.00" x="0.00" y="0.00">
							<svg x="0.00" y="-0.00">
								<path d="M22.17 2.61C22.17 1.17 21.00 0.00 19.57 0.00 L10.43 0.00 C9.00 0.00 7.83 1.17 7.83 2.61 L7.83 11.74 C7.83 13.17 9.00 14.35 10.43 14.35 L19.57 14.35 C21.00 14.35 22.17 13.17 22.17 11.74 L22.17 2.61 ZM30.00 18.26C30.00 16.83 28.83 15.65 27.39 15.65 L18.26 15.65 C16.83 15.65 15.65 16.83 15.65 18.26 L15.65 27.39 C15.65 28.83 16.83 30.00 18.26 30.00 L27.39 30.00 C28.83 30.00 30.00 28.83 30.00 27.39 L30.00 18.26 ZM23.96 23.74C23.90 24.38 23.75 24.76 23.11 24.83 C21.73 25.02 21.68 23.86 21.70 22.45 C21.74 21.37 22.06 20.67 23.13 20.82 C23.78 20.91 23.91 21.30 23.97 21.95 L25.49 21.95 L25.50 21.94 C25.33 20.30 24.38 19.55 23.01 19.50 C21.38 19.45 20.11 20.45 20.15 23.10 C20.18 24.85 21.09 26.15 22.85 26.15 C24.29 26.15 25.32 25.46 25.49 23.75 L25.49 23.74 L23.96 23.74 ZM18.07 10.43L18.09 10.38 L15.68 3.91 L14.30 3.91 L11.90 10.38 L11.92 10.43 L13.53 10.43 L13.96 9.14 L16.03 9.14 L16.47 10.43 L18.07 10.43 ZM15.60 7.85L14.39 7.85 L14.99 6.03 L15.60 7.85 ZM14.35 18.26C14.35 16.83 13.17 15.65 11.74 15.65 L2.61 15.65 C1.17 15.65 0.00 16.83 0.00 18.26 L0.00 27.39 C0.00 28.83 1.17 30.00 2.61 30.00 L11.74 30.00 C13.17 30.00 14.35 28.83 14.35 27.39 L14.35 18.26 ZM7.28 26.09C8.60 26.06 9.57 25.55 9.63 24.23 C9.65 23.47 9.31 22.96 8.79 22.72 C9.25 22.42 9.51 21.95 9.48 21.30 C9.43 20.05 8.43 19.62 7.19 19.57 C6.37 19.57 5.54 19.57 4.72 19.57 L4.72 26.09 L7.28 26.09 ZM6.26 23.36L6.26 24.80 L7.29 24.80 C7.83 24.77 8.11 24.52 8.09 24.01 C8.06 23.57 7.81 23.39 7.37 23.36 L6.26 23.36 ZM6.26 20.87L6.26 22.19 L7.15 22.19 C7.70 22.16 8.01 21.97 7.93 21.40 C7.90 21.12 7.76 20.88 7.11 20.87 L6.26 20.87 ZM6.26 20.87" fill="#000000" fill-opacity="1.00" fill-rule="evenodd" />
							</svg>
							<svg height="30.00" width="30.00" x="0.00" y="0.00" />
						</svg>
					</svg>
				</svg>
			</svg>
		</svg>
	</a>
	<svg height="100.00" id="node18" width="200.00" x="398.50" y="49.50">
		<svg height="32.00" width="194.00" x="3.00" y="34.00">
			<path d="M2.00 16.00L2.00 11.00 C2.00 6.03 6.03 2.00 11.00 2.00 L183.00 2.00 C187.97 2.00 192.00 6.03 192.00 11.00 L192.00 21.00 C192.00 25.97 187.97 30.00 183.00 30.00 C183.00 30.00 183.00 30.00 183.00 30.00 L11.00 30.00 C6.03 30.00 2.00 25.97 2.00 21.00 ZM2.00 16.00" fill="#000000" fill-opacity="0.00" />
			<svg height="32.00" width="194.00" x="0.00" y="0.00">
				<svg height="22.00" width="184.00" x="5.00" y="5.00">
					<text dominant-baseline="middle" fill="#000000" fill-opacity="1.00" font-family="Verdana" font-size="14.00" font-weight="normal" text-anchor="middle" x="92.00" y="11.00">Define Shared Vocabulary</text>
				</svg>
			</svg>
		</svg>
	</svg>
	<svg height="8.00" id="edgeLine18" width="47.26" x="378.29" y="637.50">
		<path d="M8.91 4.00C17.88 4.00 26.93 4.00 35.77 4.00 " fill="none" stroke="#000000" stroke-opacity="1.00" stroke-width="1.50" />
		<svg height="8.00" id="edgeHead18" width="10.00" x="37.26" y="0.00">
			<path d="M0.00 3.00L0.00 3.00 L0.00 0.00 L10.00 4.00 L0.00 8.00 L0.00 5.00 L0.00 5.00 ZM0.00 3.00" fill="#000000" fill-opacity="1.00" />
		</svg>
		<svg height="8.00" id="edgeTail18" width="8.00" x="0.00" y="0.00">
			<path d="M6.83 6.83C8.39 5.27 8.39 2.73 6.83 1.17 C5.27 -0.39 2.73 -0.39 1.17 1.17 C-0.39 2.73 -0.39 5.27 1.17 6.83 C2.73 8.39 5.27 8.39 6.83 6.83 " fill="#000000" fill-opacity="1.00" />
		</svg>
	</svg>
	<svg height="119.90" id="edgeLine8" width="97.79" x="102.89" y="502.31">
		<path d="M5.98 8.34C20.04 38.29 46.30 84.89 83.11 111.19 C84.68 112.31 86.30 113.39 87.96 114.43 " fill="none" stroke="#000000" stroke-opacity="1.00" stroke-width="1.50" />
		<svg height="8.36" id="edgeHead8" width="10.68" x="87.10" y="111.54">
			<path d="M2.43 2.62L2.43 2.62 L3.89 0.00 L10.68 8.36 L0.00 6.99 L1.46 4.37 L1.46 4.37 ZM2.43 2.62" fill="#000000" fill-opacity="1.00" />
		</svg>
		<svg height="8.00" id="edgeTail8" width="8.00" x="0.00" y="0.00">
			<path d="M6.83 6.83C8.39 5.27 8.39 2.73 6.83 1.17 C5.27 -0.39 2.73 -0.39 1.17 1.17 C-0.39 2.73 -0.39 5.27 1.17 6.83 C2.73 8.39 5.27 8.39 6.83 6.83 " fill="#000000" fill-opacity="1.00" />
		</svg>
	</svg>
	<svg height="8.19" id="edgeLine23" width="54.01" x="372.31" y="377.89">
		<path d="M8.85 4.17C20.07 4.11 31.50 4.06 42.60 4.00 " fill="none" stroke="#000000" stroke-opacity="1.00" stroke-width="1.50" />
		<svg height="8.00" id="edgeHead23" width="10.02" x="43.99" y="-0.00">
			<path d="M0.01 3.00L0.01 3.00 L0.00 0.00 L10.02 3.95 L0.04 8.00 L0.02 5.00 L0.02 5.00 ZM0.01 3.00" fill="#000000" fill-opacity="1.00" />
		</svg>
		<svg height="8.00" id="edgeTail23" width="8.00" x="0.00" y="0.19">
			<path d="M6.83 6.83C8.39 5.27 8.39 2.73 6.83 1.17 C5.27 -0.39 2.73 -0.39 1.17 1.17 C-0.39 2.73 -0.39 5.27 1.17 6.83 C2.73 8.39 5.27 8.39 6.83 6.83 " fill="#000000" fill-opacity="1.00" />
		</svg>
	</svg>
	<svg height="77.44" id="edgeLine9" width="112.51" x="112.65" y="501.88">
		<path d="M7.08 7.39C23.70 25.30 47.72 47.99 73.35 61.62 C82.10 66.28 91.74 70.08 101.49 73.19 " fill="none" stroke="#000000" stroke-opacity="1.00" stroke-width="1.50" />
		<svg height="7.68" id="edgeHead9" width="10.72" x="101.79" y="69.76">
			<path d="M1.40 2.88L1.40 2.88 L2.24 0.00 L10.72 6.64 L0.00 7.68 L0.84 4.80 L0.84 4.80 ZM1.40 2.88" fill="#000000" fill-opacity="1.00" />
		</svg>
		<svg height="8.00" id="edgeTail9" width="8.00" x="-0.00" y="-0.00">
			<path d="M6.83 6.83C8.39 5.27 8.39 2.73 6.83 1.17 C5.27 -0.39 2.73 -0.39 1.17 1.17 C-0.39 2.73 -0.39 5.27 1.17 6.83 C2.73 8.39 5.27 8.39 6.83 6.83 " fill="#000000" fill-opacity="1.00" />
		</svg>
	</svg>
	<svg height="64.86" id="edgeLine22" width="92.27" x="114.41" y="398.63">
		<path d="M7.45 57.43C24.13 41.16 47.42 21.15 71.59 8.88 C74.86 7.22 78.24 5.67 81.70 4.21 " fill="none" stroke="#000000" stroke-opacity="1.00" stroke-width="1.50" />
		<svg height="7.47" id="edgeHead22" width="10.77" x="81.50" y="0.00">
			<path d="M1.08 2.80L1.08 2.80 L0.00 0.00 L10.77 0.15 L2.87 7.47 L1.79 4.67 L1.79 4.67 ZM1.08 2.80" fill="#000000" fill-opacity="1.00" />
		</svg>
		<svg height="8.00" id="edgeTail22" width="8.00" x="0.00" y="56.86">
			<path d="M6.83 6.83C8.39 5.27 8.39 2.73 6.83 1.17 C5.27 -0.39 2.73 -0.39 1.17 1.17 C-0.39 2.73 -0.39 5.27 1.17 6.83 C2.73 8.39 5.27 8.39 6.83 6.83 " fill="#000000" fill-opacity="1.00" />
		</svg>
	</svg>
	<svg height="8.00" id="edgeLine14" width="58.52" x="376.79" y="228.50">
		<path d="M8.79 4.00C21.71 4.00 34.82 4.00 47.28 4.00 " fill="none" stroke="#000000" stroke-opacity="1.00" stroke-width="1.50" />
		<svg height="8.00" id="edgeHead14" width="10.00" x="48.52" y="0.00">
			<path d="M0.00 3.00L0.00 3.00 L0.00 0.00 L10.00 4.00 L0.00 8.00 L0.00 5.00 L0.00 5.00 ZM0.00 3.00" fill="#000000" fill-opacity="1.00" />
		</svg>
		<svg height="8.00" id="edgeTail14" width="8.00" x="0.00" y="0.00">
			<path d="M6.83 6.83C8.39 5.27 8.39 2.73 6.83 1.17 C5.27 -0.39 2.73 -0.39 1.17 1.17 C-0.39 2.73 -0.39 5.27 1.17 6.83 C2.73 8.39 5.27 8.39 6.83 6.83 " fill="#000000" fill-opacity="1.00" />
		</svg>
	</svg>
	<svg height="112.51" id="edgeLine20" width="95.44" x="103.57" y="350.06">
		<path d="M6.17 104.05C20.55 75.28 46.70 31.65 82.43 7.44 C83.45 6.75 84.50 6.07 85.55 5.42 " fill="none" stroke="#000000" stroke-opacity="1.00" stroke-width="1.50" />
		<svg height="8.31" id="edgeHead20" width="10.69" x="84.75" y="0.00">
			<path d="M1.44 3.92L1.44 3.92 L0.00 1.29 L10.69 -0.00 L3.84 8.31 L2.40 5.68 L2.40 5.68 ZM1.44 3.92" fill="#000000" fill-opacity="1.00" />
		</svg>
		<svg height="8.00" id="edgeTail20" width="8.00" x="0.00" y="104.51">
			<path d="M6.83 6.83C8.39 5.27 8.39 2.73 6.83 1.17 C5.27 -0.39 2.73 -0.39 1.17 1.17 C-0.39 2.73 -0.39 5.27 1.17 6.83 C2.73 8.39 5.27 8.39 6.83 6.83 " fill="#000000" fill-opacity="1.00" />
		</svg>
	</svg>
	<svg height="8.00" id="edgeLine19" width="77.34" x="353.73" y="584.50">
		<path d="M8.75 4.00C27.19 4.00 47.12 4.00 65.85 4.00 " fill="none" stroke="#000000" stroke-opacity="1.00" stroke-width="1.50" />
		<svg height="8.00" id="edgeHead19" width="10.00" x="67.34" y="0.00">
			<path d="M0.00 3.00L0.00 3.00 L0.00 0.00 L10.00 4.00 L0.00 8.00 L0.00 5.00 L0.00 5.00 ZM0.00 3.00" fill="#000000" fill-opacity="1.00" />
		</svg>
		<svg height="8.00" id="edgeTail19" width="8.00" x="0.00" y="0.00">
			<path d="M6.83 6.83C8.39 5.27 8.39 2.73 6.83 1.17 C5.27 -0.39 2.73 -0.39 1.17 1.17 C-0.39 2.73 -0.39 5.27 1.17 6.83 C2.73 8.39 5.27 8.39 6.83 6.83 " fill="#000000" fill-opacity="1.00" />
		</svg>
	</svg>
	<svg height="8.00" id="edgeLine15" width="39.80" x="383.40" y="278.50">
		<path d="M8.77 4.00C15.31 4.00 21.85 4.00 28.31 4.00 " fill="none" stroke="#000000" stroke-opacity="1.00" stroke-width="1.50" />
		<svg height="8.00" id="edgeHead15" width="10.00" x="29.80" y="0.00">
			<path d="M0.00 3.00L0.00 3.00 L0.00 0.00 L10.00 4.00 L0.00 8.00 L0.00 5.00 L0.00 5.00 ZM0.00 3.00" fill="#000000" fill-opacity="1.00" />
		</svg>
		<svg height="8.00" id="edgeTail15" width="8.00" x="0.00" y="0.00">
			<path d="M6.83 6.83C8.39 5.27 8.39 2.73 6.83 1.17 C5.27 -0.39 2.73 -0.39 1.17 1.17 C-0.39 2.73 -0.39 5.27 1.17 6.83 C2.73 8.39 5.27 8.39 6.83 6.83 " fill="#000000" fill-opacity="1.00" />
		</svg>
	</svg>
	<svg height="8.13" id="edgeLine12" width="41.78" x="361.45" y="96.00">
		<path d="M8.94 4.11C16.00 4.07 23.21 4.04 30.44 4.00 " fill="none" stroke="#000000" stroke-opacity="1.00" stroke-width="1.50" />
		<svg height="8.00" id="edgeHead12" width="10.02" x="31.76" y="-0.00">
			<path d="M0.01 3.00L0.01 3.00 L0.00 0.00 L10.02 3.95 L0.04 8.00 L0.02 5.00 L0.02 5.00 ZM0.01 3.00" fill="#000000" fill-opacity="1.00" />
		</svg>
		<svg height="8.00" id="edgeTail12" width="8.00" x="0.00" y="0.13">
			<path d="M6.83 6.83C8.39 5.27 8.39 2.73 6.83 1.17 C5.27 -0.39 2.73 -0.39 1.17 1.17 C-0.39 2.73 -0.39 5.27 1.17 6.83 C2.73 8.39 5.27 8.39 6.83 6.83 " fill="#000000" fill-opacity="1.00" />
		</svg>
	</svg>
	<svg height="8.00" id="edgeLine21" width="55.36" x="177.38" y="478.50">
		<path d="M8.78 4.00C20.68 4.00 32.72 4.00 44.15 4.00 " fill="none" stroke="#000000" stroke-opacity="1.00" stroke-width="1.50" />
		<svg height="8.00" id="edgeHead21" width="10.00" x="45.36" y="0.00">
			<path d="M0.00 3.00L0.00 3.00 L0.00 0.00 L10.00 4.00 L0.00 8.00 L0.00 5.00 L0.00 5.00 ZM0.00 3.00" fill="#000000" fill-opacity="1.00" />
		</svg>
		<svg height="8.00" id="edgeTail21" width="8.00" x="0.00" y="0.00">
			<path d="M6.83 6.83C8.39 5.27 8.39 2.73 6.83 1.17 C5.27 -0.39 2.73 -0.39 1.17 1.17 C-0.39 2.73 -0.39 5.27 1.17 6.83 C2.73 8.39 5.27 8.39 6.83 6.83 " fill="#000000" fill-opacity="1.00" />
		</svg>
	</svg>
	<svg height="8.78" id="edgeLine13" width="94.57" x="327.99" y="146.90">
		<path d="M8.97 4.05C30.93 4.26 57.88 4.52 83.37 4.77 " fill="none" stroke="#000000" stroke-opacity="1.00" stroke-width="1.50" />
		<svg height="8.00" id="edgeHead13" width="10.04" x="84.54" y="0.78">
			<path d="M0.05 3.00L0.05 3.00 L0.08 0.00 L10.04 4.10 L0.00 8.00 L0.03 5.00 L0.03 5.00 ZM0.05 3.00" fill="#000000" fill-opacity="1.00" />
		</svg>
		<svg height="8.00" id="edgeTail13" width="8.00" x="0.00" y="0.00">
			<path d="M6.83 6.83C8.39 5.27 8.39 2.73 6.83 1.17 C5.27 -0.39 2.73 -0.39 1.17 1.17 C-0.39 2.73 -0.39 5.27 1.17 6.83 C2.73 8.39 5.27 8.39 6.83 6.83 " fill="#000000" fill-opacity="1.00" />
		</svg>
	</svg>
	<svg height="8.32" id="edgeLine26" width="79.80" x="346.24" y="478.79">
		<path d="M8.81 4.03C27.73 4.12 48.68 4.22 68.57 4.31 " fill="none" stroke="#000000" stroke-opacity="1.00" stroke-width="1.50" />
		<svg height="8.00" id="edgeHead26" width="10.02" x="69.79" y="0.32">
			<path d="M0.02 3.00L0.02 3.00 L0.04 0.00 L10.02 4.05 L0.00 8.00 L0.01 5.00 L0.01 5.00 ZM0.02 3.00" fill="#000000" fill-opacity="1.00" />
		</svg>
		<svg height="8.00" id="edgeTail26" width="8.00" x="0.00" y="0.00">
			<path d="M6.83 6.83C8.39 5.27 8.39 2.73 6.83 1.17 C5.27 -0.39 2.73 -0.39 1.17 1.17 C-0.39 2.73 -0.39 5.27 1.17 6.83 C2.73 8.39 5.27 8.39 6.83 6.83 " fill="#000000" fill-opacity="1.00" />
		</svg>
	</svg>
	<svg height="92.66" id="edgeLine4" width="89.27" x="106.43" y="170.22">
		<path d="M6.58 8.17C20.90 30.80 43.97 62.16 79.87 86.60 " fill="none" stroke="#000000" stroke-opacity="1.00" stroke-width="1.50" />
		<svg height="8.78" id="edgeHead4" width="10.57" x="78.70" y="83.88">
			<path d="M2.71 2.53L2.71 2.53 L4.33 0.00 L10.57 8.78 L0.00 6.73 L1.62 4.21 L1.62 4.21 ZM2.71 2.53" fill="#000000" fill-opacity="1.00" />
		</svg>
		<svg height="8.00" id="edgeTail4" width="8.00" x="0.00" y="0.00">
			<path d="M6.83 6.83C8.39 5.27 8.39 2.73 6.83 1.17 C5.27 -0.39 2.73 -0.39 1.17 1.17 C-0.39 2.73 -0.39 5.27 1.17 6.83 C2.73 8.39 5.27 8.39 6.83 6.83 " fill="#000000" fill-opacity="1.00" />
		</svg>
	</svg>
	<svg height="8.00" id="edgeLine16" width="43.24" x="387.33" y="46.50">
		<path d="M8.92 4.00C16.68 4.00 24.41 4.00 31.96 4.00 " fill="none" stroke="#000000" stroke-opacity="1.00" stroke-width="1.50" />
		<svg height="8.00" id="edgeHead16" width="10.00" x="33.24" y="0.00">
			<path d="M0.00 3.00L0.00 3.00 L0.00 0.00 L10.00 4.00 L0.00 8.00 L0.00 5.00 L0.00 5.00 ZM0.00 3.00" fill="#000000" fill-opacity="1.00" />
		</svg>
		<svg height="8.00" id="edgeTail16" width="8.00" x="0.00" y="0.00">
			<path d="M6.83 6.83C8.39 5.27 8.39 2.73 6.83 1.17 C5.27 -0.39 2.73 -0.39 1.17 1.17 C-0.39 2.73 -0.39 5.27 1.17 6.83 C2.73 8.39 5.27 8.39 6.83 6.83 " fill="#000000" fill-opacity="1.00" />
		</svg>
	</svg>
	<svg height="17.04" id="edgeLine2" width="48.87" x="168.69" y="116.01">
		<path d="M8.80 11.74C11.67 10.98 14.51 10.22 17.31 9.49 C23.99 7.74 30.93 5.96 37.91 4.20 " fill="none" stroke="#000000" stroke-opacity="1.00" stroke-width="1.50" />
		<svg height="7.76" id="edgeHead2" width="10.67" x="38.20" y="0.00">
			<path d="M0.73 2.91L0.73 2.91 L0.00 -0.00 L10.67 1.45 L1.94 7.76 L1.21 4.85 L1.21 4.85 ZM0.73 2.91" fill="#000000" fill-opacity="1.00" />
		</svg>
		<svg height="8.00" id="edgeTail2" width="8.00" x="0.00" y="9.04">
			<path d="M6.83 6.83C8.39 5.27 8.39 2.73 6.83 1.17 C5.27 -0.39 2.73 -0.39 1.17 1.17 C-0.39 2.73 -0.39 5.27 1.17 6.83 C2.73 8.39 5.27 8.39 6.83 6.83 " fill="#000000" fill-opacity="1.00" />
		</svg>
	</svg>
	<svg height="60.54" id="edgeLine11" width="81.44" x="114.41" y="70.95">
		<path d="M7.45 53.11C22.44 38.49 42.75 20.86 71.40 5.22 " fill="none" stroke="#000000" stroke-opacity="1.00" stroke-width="1.50" />
		<svg height="8.16" id="edgeHead11" width="10.72" x="70.72" y="0.00">
			<path d="M1.38 3.72L1.38 3.72 L0.00 1.06 L10.72 -0.00 L3.69 8.16 L2.31 5.50 L2.31 5.50 ZM1.38 3.72" fill="#000000" fill-opacity="1.00" />
		</svg>
		<svg height="8.00" id="edgeTail11" width="8.00" x="-0.00" y="52.54">
			<path d="M6.83 6.83C8.39 5.27 8.39 2.73 6.83 1.17 C5.27 -0.39 2.73 -0.39 1.17 1.17 C-0.39 2.73 -0.39 5.27 1.17 6.83 C2.73 8.39 5.27 8.39 6.83 6.83 " fill="#000000" fill-opacity="1.00" />
		</svg>
	</svg>
	<svg height="8.00" id="edgeLine1" width="81.76" x="169.40" y="146.50">
		<path d="M8.90 4.00C29.79 4.00 51.62 4.00 70.29 4.00 " fill="none" stroke="#000000" stroke-opacity="1.00" stroke-width="1.50" />
		<svg height="8.00" id="edgeHead1" width="10.00" x="71.76" y="0.00">
			<path d="M0.00 3.00L0.00 3.00 L0.00 0.00 L10.00 4.00 L0.00 8.00 L0.00 5.00 L0.00 5.00 ZM0.00 3.00" fill="#000000" fill-opacity="1.00" />
		</svg>
		<svg height="8.00" id="edgeTail1" width="8.00" x="0.00" y="0.00">
			<path d="M6.83 6.83C8.39 5.27 8.39 2.73 6.83 1.17 C5.27 -0.39 2.73 -0.39 1.17 1.17 C-0.39 2.73 -0.39 5.27 1.17 6.83 C2.73 8.39 5.27 8.39 6.83 6.83 " fill="#000000" fill-opacity="1.00" />
		</svg>
	</svg>
	<svg height="8.00" id="edgeLine25" width="59.38" x="365.23" y="428.50">
		<path d="M8.70 4.00C21.68 4.00 35.09 4.00 48.09 4.00 " fill="none" stroke="#000000" stroke-opacity="1.00" stroke-width="1.50" />
		<svg height="8.00" id="edgeHead25" width="10.00" x="49.38" y="0.00">
			<path d="M0.00 3.00L0.00 3.00 L0.00 0.00 L10.00 4.00 L0.00 8.00 L0.00 5.00 L0.00 5.00 ZM0.00 3.00" fill="#000000" fill-opacity="1.00" />
		</svg>
		<svg height="8.00" id="edgeTail25" width="8.00" x="0.00" y="0.00">
			<path d="M6.83 6.83C8.39 5.27 8.39 2.73 6.83 1.17 C5.27 -0.39 2.73 -0.39 1.17 1.17 C-0.39 2.73 -0.39 5.27 1.17 6.83 C2.73 8.39 5.27 8.39 6.83 6.83 " fill="#000000" fill-opacity="1.00" />
		</svg>
	</svg>
	<svg height="43.58" id="edgeLine3" width="96.44" x="144.51" y="168.56">
		<path d="M8.42 5.89C32.85 16.35 61.50 28.62 86.15 39.17 " fill="none" stroke="#000000" stroke-opacity="1.00" stroke-width="1.50" />
		<svg height="7.61" id="edgeHead3" width="10.77" x="85.67" y="35.97">
			<path d="M1.97 2.75L1.97 2.75 L3.15 -0.00 L10.77 7.61 L0.00 7.35 L1.18 4.59 L1.18 4.59 ZM1.97 2.75" fill="#000000" fill-opacity="1.00" />
		</svg>
		<svg height="8.00" id="edgeTail3" width="8.00" x="0.00" y="-0.00">
			<path d="M6.83 6.83C8.39 5.27 8.39 2.73 6.83 1.17 C5.27 -0.39 2.73 -0.39 1.17 1.17 C-0.39 2.73 -0.39 5.27 1.17 6.83 C2.73 8.39 5.27 8.39 6.83 6.83 " fill="#000000" fill-opacity="1.00" />
		</svg>
	</svg>
	<svg height="22.73" id="edgeLine6" width="63.62" x="155.49" y="500.23">
		<path d="M8.75 5.55C16.07 7.90 23.43 10.19 30.51 12.27 C37.67 14.39 45.14 16.48 52.64 18.51 " fill="none" stroke="#000000" stroke-opacity="1.00" stroke-width="1.50" />
		<svg height="7.73" id="edgeHead6" width="10.69" x="52.93" y="15.00">
			<path d="M1.29 2.90L1.29 2.90 L2.06 -0.00 L10.69 6.44 L0.00 7.73 L0.77 4.83 L0.77 4.83 ZM1.29 2.90" fill="#000000" fill-opacity="1.00" />
		</svg>
		<svg height="8.00" id="edgeTail6" width="8.00" x="0.00" y="0.00">
			<path d="M6.83 6.83C8.39 5.27 8.39 2.73 6.83 1.17 C5.27 -0.39 2.73 -0.39 1.17 1.17 C-0.39 2.73 -0.39 5.27 1.17 6.83 C2.73 8.39 5.27 8.39 6.83 6.83 " fill="#000000" fill-opacity="1.00" />
		</svg>
	</svg>
	<svg height="8.00" id="edgeLine24" width="21.80" x="379.79" y="328.50">
		<path d="M8.84 4.00C9.38 4.00 9.92 4.00 10.46 4.00 " fill="none" stroke="#000000" stroke-opacity="1.00" stroke-width="1.50" />
		<svg height="8.00" id="edgeHead24" width="10.00" x="11.80" y="0.00">
			<path d="M0.00 3.00L0.00 3.00 L0.00 0.00 L10.00 4.00 L0.00 8.00 L0.00 5.00 L0.00 5.00 ZM0.00 3.00" fill="#000000" fill-opacity="1.00" />
		</svg>
		<svg height="8.00" id="edgeTail24" width="8.00" x="0.00" y="0.00">
			<path d="M6.83 6.83C8.39 5.27 8.39 2.73 6.83 1.17 C5.27 -0.39 2.73 -0.39 1.17 1.17 C-0.39 2.73 -0.39 5.27 1.17 6.83 C2.73 8.39 5.27 8.39 6.83 6.83 " fill="#000000" fill-opacity="1.00" />
		</svg>
	</svg>
	<svg height="16.06" id="edgeLine5" width="44.99" x="168.69" y="448.99">
		<path d="M8.80 10.76C11.67 10.00 14.51 9.24 17.31 8.51 C22.76 7.08 28.38 5.63 34.05 4.19 " fill="none" stroke="#000000" stroke-opacity="1.00" stroke-width="1.50" />
		<svg height="7.76" id="edgeHead5" width="10.67" x="34.32" y="0.00">
			<path d="M0.73 2.91L0.73 2.91 L0.00 0.00 L10.67 1.44 L1.95 7.76 L1.22 4.85 L1.22 4.85 ZM0.73 2.91" fill="#000000" fill-opacity="1.00" />
		</svg>
		<svg height="8.00" id="edgeTail5" width="8.00" x="0.00" y="8.06">
			<path d="M6.83 6.83C8.39 5.27 8.39 2.73 6.83 1.17 C5.27 -0.39 2.73 -0.39 1.17 1.17 C-0.39 2.73 -0.39 5.27 1.17 6.83 C2.73 8.39 5.27 8.39 6.83 6.83 " fill="#000000" fill-opacity="1.00" />
		</svg>
	</svg>
	<svg height="8.00" id="edgeLine17" width="67.57" x="359.72" y="534.50">
		<path d="M8.77 4.00C24.31 4.00 40.67 4.00 56.32 4.00 " fill="none" stroke="#000000" stroke-opacity="1.00" stroke-width="1.50" />
		<svg height="8.00" id="edgeHead17" width="10.00" x="57.57" y="0.00">
			<path d="M0.00 3.00L0.00 3.00 L0.00 0.00 L10.00 4.00 L0.00 8.00 L0.00 5.00 L0.00 5.00 ZM0.00 3.00" fill="#000000" fill-opacity="1.00" />
		</svg>
		<svg height="8.00" id="edgeTail17" width="8.00" x="0.00" y="0.00">
			<path d="M6.83 6.83C8.39 5.27 8.39 2.73 6.83 1.17 C5.27 -0.39 2.73 -0.39 1.17 1.17 C-0.39 2.73 -0.39 5.27 1.17 6.83 C2.73 8.39 5.27 8.39 6.83 6.83 " fill="#000000" fill-opacity="1.00" />
		</svg>
	</svg>
</svg>