<?xml version="1.0" encoding="utf-8" standalone="no"?>
<svg version="1.1" viewBox="0.00 0.00 635.00 677.50" xmlns="http://www.w3.org/2000/svg">
	<svg height="332.00" id="cluster1" width="203.00" x="188.00" y="178.00">
		<path d="M0.50 166.00L0.50 8.50 C0.50 4.08 4.08 0.50 8.50 0.50 L194.50 0.50 C198.92 0.50 202.50 4.08 202.50 8.50 L202.50 323.50 C202.50 327.92 198.92 331.50 194.50 331.50 L8.50 331.50 C4.08 331.50 0.50 327.92 0.50 323.50 ZM0.50 166.00" fill="none" stroke="#0d0d0d" stroke-opacity="0.60" stroke-width="1.00" />
		<path d="M1.00 166.00L1.00 9.00 C1.00 4.58 4.58 1.00 9.00 1.00 L194.00 1.00 C198.42 1.00 202.00 4.58 202.00 9.00 L202.00 323.00 C202.00 327.42 198.42 331.00 194.00 331.00 L9.00 331.00 C4.58 331.00 1.00 327.42 1.00 323.00 ZM1.00 166.00" fill="#c9c9c9" fill-opacity="0.60" />
		<svg height="19.00" width="149.50" x="8.00" y="3.00">
			<text dominant-baseline="middle" fill="#000000" fill-opacity="1.00" font-family="Verdana" font-size="12.00" font-weight="bold" text-anchor="middle" x="74.75" y="9.50">Theory of Constraints</text>
		</svg>
	</svg>
	<svg height="100.00" id="node9" width="200.00" x="189.50" y="182.00">
		<svg height="44.00" width="178.00" x="11.00" y="28.00">
			<path d="M2.00 22.00L2.00 11.00 C2.00 6.03 6.03 2.00 11.00 2.00 L167.00 2.00 C171.97 2.00 176.00 6.03 176.00 11.00 L176.00 33.00 C176.00 37.97 171.97 42.00 167.00 42.00 L11.00 42.00 C6.03 42.00 2.00 37.97 2.00 33.00 ZM2.00 22.00" fill="#ecf3f3" fill-opacity="1.00" />
			<svg height="44.00" width="178.00" x="0.00" y="0.00">
				<path d="M2.00 22.00L2.00 11.00 C2.00 6.03 6.03 2.00 11.00 2.00 L167.00 2.00 C171.97 2.00 176.00 6.03 176.00 11.00 L176.00 33.00 C176.00 37.97 171.97 42.00 167.00 42.00 L11.00 42.00 C6.03 42.00 2.00 37.97 2.00 33.00 ZM2.00 22.00" fill="none" stroke="#000000" stroke-opacity="1.00" stroke-width="1.50" />
				<svg height="30.00" width="164.00" x="7.00" y="7.00">
					<svg height="30.00" width="130.00" x="34.00" y="0.00">
						<svg height="30.00" width="130.00" x="0.00" y="0.00">
							<text dominant-baseline="middle" fill="#000000" fill-opacity="1.00" font-family="Verdana" font-size="14.00" font-weight="normal" text-anchor="middle" x="65.00" y="15.00">Evaporating Cloud</text>
						</svg>
					</svg>
					<svg height="30.00" width="30.00" x="0.00" y="0.00">
						<svg x="0.00" y="-0.00">
							<path d="M22.17 2.61C22.17 1.17 21.00 0.00 19.57 0.00 L10.43 0.00 C9.00 0.00 7.83 1.17 7.83 2.61 L7.83 11.74 C7.83 13.17 9.00 14.35 10.43 14.35 L19.57 14.35 C21.00 14.35 22.17 13.17 22.17 11.74 L22.17 2.61 ZM30.00 18.26C30.00 16.83 28.83 15.65 27.39 15.65 L18.26 15.65 C16.83 15.65 15.65 16.83 15.65 18.26 L15.65 27.39 C15.65 28.83 16.83 30.00 18.26 30.00 L27.39 30.00 C28.83 30.00 30.00 28.83 30.00 27.39 L30.00 18.26 ZM23.96 23.74C23.90 24.38 23.75 24.76 23.11 24.83 C21.73 25.02 21.68 23.86 21.70 22.45 C21.74 21.37 22.06 20.67 23.13 20.82 C23.78 20.91 23.91 21.30 23.97 21.95 L25.49 21.95 L25.50 21.94 C25.33 20.30 24.38 19.55 23.01 19.50 C21.38 19.45 20.11 20.45 20.15 23.10 C20.18 24.85 21.09 26.15 22.85 26.15 C24.29 26.15 25.32 25.46 25.49 23.75 L25.49 23.74 L23.96 23.74 ZM18.07 10.43L18.09 10.38 L15.68 3.91 L14.30 3.91 L11.90 10.38 L11.92 10.43 L13.53 10.43 L13.96 9.14 L16.03 9.14 L16.47 10.43 L18.07 10.43 ZM15.60 7.85L14.39 7.85 L14.99 6.03 L15.60 7.85 ZM14.35 18.26C14.35 16.83 13.17 15.65 11.74 15.65 L2.61 15.65 C1.17 15.65 0.00 16.83 0.00 18.26 L0.00 27.39 C0.00 28.83 1.17 30.00 2.61 30.00 L11.74 30.00 C13.17 30.00 14.35 28.83 14.35 27.39 L14.35 18.26 ZM7.28 26.09C8.60 26.06 9.57 25.55 9.63 24.23 C9.65 23.47 9.31 22.96 8.79 22.72 C9.25 22.42 9.51 21.95 9.48 21.30 C9.43 20.05 8.43 19.62 7.19 19.57 C6.37 19.57 5.54 19.57 4.72 19.57 L4.72 26.09 L7.28 26.09 ZM6.26 23.36L6.26 24.80 L7.29 24.80 C7.83 24.77 8.11 24.52 8.09 24.01 C8.06 23.57 7.81 23.39 7.37 23.36 L6.26 23.36 ZM6.26 20.87L6.26 22.19 L7.15 22.19 C7.70 22.16 8.01 21.97 7.93 21.40 C7.90 21.12 7.76 20.88 7.11 20.87 L6.26 20.87 ZM6.26 20.87" fill="#000000" fill-opacity="1.00" fill-rule="evenodd" />
						</svg>
						<svg height="30.00" width="30.00" x="0.00" y="0.00" />
					</svg>
				</svg>
			</svg>
		</svg>
	</svg>
	<svg height="100.00" id="node20" width="200.00" x="403.50" y="182.00">
		<svg height="32.00" width="130.00" x="35.00" y="34.00">
			<path d="M2.00 16.00L2.00 11.00 C2.00 6.03 6.03 2.00 11.00 2.00 L119.00 2.00 C123.97 2.00 128.00 6.03 128.00 11.00 L128.00 21.00 C128.00 25.97 123.97 30.00 119.00 30.00 C119.00 30.00 119.00 30.00 119.00 30.00 L11.00 30.00 C6.03 30.00 2.00 25.97 2.00 21.00 ZM2.00 16.00" fill="#000000" fill-opacity="0.00" />
			<svg height="32.00" width="130.00" x="0.00" y="0.00">
				<svg height="22.00" width="120.00" x="5.00" y="5.00">
					<text dominant-baseline="middle" fill="#000000" fill-opacity="1.00" font-family="Verdana" font-size="14.00" font-weight="normal" text-anchor="middle" x="60.00" y="11.00">Resolve Conflicts</text>
				</svg>
			</svg>
		</svg>
	</svg>
	<svg height="100.00" id="node26" width="200.00" x="189.50" y="282.00">
		<svg height="44.00" width="184.00" x="8.00" y="28.00">
			<path d="M2.00 22.00L2.00 11.00 C2.00 6.03 6.03 2.00 11.00 2.00 L173.00 2.00 C177.97 2.00 182.00 6.03 182.00 11.00 L182.00 33.00 C182.00 37.97 177.97 42.00 173.00 42.00 C173.00 42.00 173.00 42.00 173.00 42.00 L11.00 42.00 C6.03 42.00 2.00 37.97 2.00 33.00 ZM2.00 22.00" fill="#ecf3f3" fill-opacity="1.00" />
			<svg height="44.00" width="184.00" x="0.00" y="0.00">
				<path d="M2.00 22.00L2.00 11.00 C2.00 6.03 6.03 2.00 11.00 2.00 L173.00 2.00 C177.97 2.00 182.00 6.03 182.00 11.00 L182.00 33.00 C182.00 37.97 177.97 42.00 173.00 42.00 C173.00 42.00 173.00 42.00 173.00 42.00 L11.00 42.00 C6.03 42.00 2.00 37.97 2.00 33.00 ZM2.00 22.00" fill="none" stroke="#000000" stroke-opacity="1.00" stroke-width="1.50" />
				<svg height="30.00" width="170.00" x="7.00" y="7.00">
					<svg height="30.00" width="136.00" x="34.00" y="0.00">
						<svg height="30.00" width="136.00" x="0.00" y="0.00">
							<text dominant-baseline="middle" fill="#000000" fill-opacity="1.00" font-family="Verdana" font-size="14.00" font-weight="normal" text-anchor="middle" x="68.00" y="15.00">Future Reality Tree</text>
						</svg>
					</svg>
					<svg height="30.00" width="30.00" x="0.00" y="0.00">
						<svg x="0.00" y="-0.00">
							<path d="M22.17 2.61C22.17 1.17 21.00 0.00 19.57 0.00 L10.43 0.00 C9.00 0.00 7.83 1.17 7.83 2.61 L7.83 11.74 C7.83 13.17 9.00 14.35 10.43 14.35 L19.57 14.35 C21.00 14.35 22.17 13.17 22.17 11.74 L22.17 2.61 ZM30.00 18.26C30.00 16.83 28.83 15.65 27.39 15.65 L18.26 15.65 C16.83 15.65 15.65 16.83 15.65 18.26 L15.65 27.39 C15.65 28.83 16.83 30.00 18.26 30.00 L27.39 30.00 C28.83 30.00 30.00 28.83 30.00 27.39 L30.00 18.26 ZM23.96 23.74C23.90 24.38 23.75 24.76 23.11 24.83 C21.73 25.02 21.68 23.86 21.70 22.45 C21.74 21.37 22.06 20.67 23.13 20.82 C23.78 20.91 23.91 21.30 23.97 21.95 L25.49 21.95 L25.50 21.94 C25.33 20.30 24.38 19.55 23.01 19.50 C21.38 19.45 20.11 20.45 20.15 23.10 C20.18 24.85 21.09 26.15 22.85 26.15 C24.29 26.15 25.32 25.46 25.49 23.75 L25.49 23.74 L23.96 23.74 ZM18.07 10.43L18.09 10.38 L15.68 3.91 L14.30 3.91 L11.90 10.38 L11.92 10.43 L13.53 10.43 L13.96 9.14 L16.03 9.14 L16.47 10.43 L18.07 10.43 ZM15.60 7.85L14.39 7.85 L14.99 6.03 L15.60 7.85 ZM14.35 18.26C14.35 16.83 13.17 15.65 11.74 15.65 L2.61 15.65 C1.17 15.65 0.00 16.83 0.00 18.26 L0.00 27.39 C0.00 28.83 1.17 30.00 2.61 30.00 L11.74 30.00 C13.17 30.00 14.35 28.83 14.35 27.39 L14.35 18.26 ZM7.28 26.09C8.60 26.06 9.57 25.55 9.63 24.23 C9.65 23.47 9.31 22.96 8.79 22.72 C9.25 22.42 9.51 21.95 9.48 21.30 C9.43 20.05 8.43 19.62 7.19 19.57 C6.37 19.57 5.54 19.57 4.72 19.57 L4.72 26.09 L7.28 26.09 ZM6.26 23.36L6.26 24.80 L7.29 24.80 C7.83 24.77 8.11 24.52 8.09 24.01 C8.06 23.57 7.81 23.39 7.37 23.36 L6.26 23.36 ZM6.26 20.87L6.26 22.19 L7.15 22.19 C7.70 22.16 8.01 21.97 7.93 21.40 C7.90 21.12 7.76 20.88 7.11 20.87 L6.26 20.87 ZM6.26 20.87" fill="#000000" fill-opacity="1.00" fill-rule="evenodd" />
						</svg>
						<svg height="30.00" width="30.00" x="0.00" y="0.00" />
					</svg>
				</svg>
			</svg>
		</svg>
	</svg>
	<svg height="100.00" id="node3" width="200.00" x="-4.00" y="100.00">
		<svg height="44.00" width="150.00" x="25.00" y="28.00">
			<path d="M2.00 22.00L2.00 11.00 C2.00 6.03 6.03 2.00 11.00 2.00 L139.00 2.00 C143.97 2.00 148.00 6.03 148.00 11.00 L148.00 33.00 C148.00 37.97 143.97 42.00 139.00 42.00 L11.00 42.00 C6.03 42.00 2.00 37.97 2.00 33.00 ZM2.00 22.00" fill="#eaf4f3" fill-opacity="1.00" />
			<svg height="44.00" width="150.00" x="0.00" y="0.00">
				<path d="M2.00 22.00L2.00 11.00 C2.00 6.03 6.03 2.00 11.00 2.00 L139.00 2.00 C143.97 2.00 148.00 6.03 148.00 11.00 L148.00 33.00 C148.00 37.97 143.97 42.00 139.00 42.00 L11.00 42.00 C6.03 42.00 2.00 37.97 2.00 33.00 ZM2.00 22.00" fill="none" stroke="#000000" stroke-opacity="1.00" stroke-width="1.50" />
				<svg height="30.00" width="136.00" x="7.00" y="7.00">
					<svg height="30.00" width="102.00" x="34.00" y="0.00">
						<svg height="30.00" width="102.00" x="0.00" y="0.00">
							<text dominant-baseline="middle" fill="#000000" fill-opacity="1.00" font-family="Verdana" font-size="14.00" font-weight="normal" text-anchor="middle" x="51.00" y="15.00">Listen &amp; Learn</text>
						</svg>
					</svg>
					<svg height="30.00" width="30.00" x="0.00" y="0.00">
						<svg x="0.00" y="-0.00">
							<path d="M16.25 30.02L13.75 30.02 L13.75 6.27 L15.02 7.52 L16.25 6.27 L16.25 30.02 ZM12.78 19.54C10.80 18.90 8.85 19.25 7.64 20.32 C5.74 22.02 6.11 24.85 6.11 24.85 C6.11 24.85 9.34 25.79 11.25 24.09 C13.08 22.46 12.78 19.76 12.78 19.54 ZM17.21 19.54C19.18 18.90 21.14 19.25 22.34 20.32 C24.24 22.02 23.86 24.85 23.86 24.85 C23.86 24.85 20.65 25.79 18.74 24.09 C16.91 22.46 17.21 19.76 17.21 19.54 ZM22.59 18.11C24.02 16.90 25.79 16.52 27.17 17.01 C29.35 17.77 30.00 20.27 30.00 20.27 C30.00 20.27 27.61 22.18 25.43 21.40 C23.34 20.66 22.66 18.29 22.59 18.11 ZM7.41 18.11C5.98 16.90 4.21 16.52 2.82 17.01 C0.65 17.77 0.00 20.27 0.00 20.27 C0.00 20.27 2.39 22.18 4.58 21.40 C6.66 20.66 7.34 18.29 7.41 18.11 ZM12.70 18.06C13.01 16.31 12.50 14.70 11.45 13.80 C9.80 12.38 7.44 13.01 7.44 13.01 C7.44 13.01 7.01 15.86 8.68 17.29 C10.26 18.65 12.51 18.09 12.70 18.06 ZM17.30 18.06C16.99 16.31 17.50 14.70 18.55 13.80 C20.20 12.38 22.56 13.01 22.56 13.01 C22.56 13.01 22.99 15.86 21.32 17.29 C19.74 18.65 17.49 18.09 17.30 18.06 ZM22.97 15.12C23.50 13.61 24.62 12.57 25.85 12.32 C27.77 11.95 29.35 13.49 29.35 13.49 C29.35 13.49 28.42 15.91 26.48 16.30 C24.62 16.68 23.10 15.24 22.97 15.12 ZM7.03 15.12C6.50 13.61 5.38 12.57 4.15 12.32 C2.23 11.95 0.65 13.49 0.65 13.49 C0.65 13.49 1.57 15.91 3.52 16.30 C5.38 16.68 6.89 15.24 7.03 15.12 ZM16.98 12.18C16.95 10.52 17.66 9.12 18.76 8.45 C20.49 7.40 22.56 8.34 22.56 8.34 C22.56 8.34 22.52 11.01 20.79 12.06 C19.12 13.08 17.14 12.22 16.98 12.18 ZM13.03 12.18C13.06 10.52 12.34 9.12 11.24 8.45 C9.51 7.40 7.45 8.34 7.45 8.34 C7.45 8.34 7.48 11.01 9.21 12.06 C10.88 13.08 12.86 12.22 13.03 12.18 ZM7.04 11.55C7.14 10.10 6.56 8.82 5.61 8.19 C4.14 7.19 2.27 7.93 2.27 7.93 C2.27 7.93 2.19 10.29 3.67 11.30 C5.10 12.26 6.89 11.59 7.04 11.55 ZM22.96 11.55C22.86 10.10 23.44 8.82 24.39 8.19 C25.86 7.19 27.74 7.93 27.74 7.93 C27.74 7.93 27.81 10.29 26.32 11.30 C24.90 12.26 23.11 11.59 22.96 11.55 ZM17.76 7.86C17.05 6.48 17.07 4.99 17.73 3.98 C18.74 2.36 20.88 2.30 20.88 2.30 C20.88 2.30 21.95 4.56 20.92 6.19 C19.95 7.73 17.93 7.84 17.76 7.86 ZM12.24 7.86C12.95 6.48 12.93 4.99 12.29 3.98 C11.26 2.36 9.12 2.30 9.12 2.30 C9.12 2.30 8.05 4.56 9.07 6.19 C10.05 7.73 12.07 7.84 12.24 7.86 ZM8.50 7.50C8.58 6.26 8.09 5.20 7.30 4.66 C6.05 3.81 4.49 4.44 4.49 4.44 C4.49 4.44 4.41 6.43 5.67 7.27 C6.88 8.09 8.38 7.52 8.50 7.50 ZM21.50 7.50C21.43 6.26 21.91 5.20 22.70 4.66 C23.95 3.81 25.53 4.44 25.53 4.44 C25.53 4.44 25.59 6.43 24.33 7.27 C23.14 8.09 21.62 7.52 21.50 7.50 ZM15.05 6.18C13.80 5.34 13.12 4.08 13.20 2.91 C13.31 1.07 15.08 0.02 15.08 0.02 C15.08 0.02 17.05 1.43 16.94 3.28 C16.84 5.04 15.18 6.07 15.05 6.18 ZM15.05 6.18" fill="#000000" fill-opacity="1.00" fill-rule="evenodd" />
						</svg>
						<svg height="30.00" width="30.00" x="0.00" y="0.00" />
					</svg>
				</svg>
			</svg>
		</svg>
	</svg>
	<svg height="100.00" id="node29" width="200.00" x="403.50" y="332.00">
		<svg height="53.00" width="146.00" x="27.00" y="23.50">
			<path d="M2.00 26.50L2.00 11.00 C2.00 6.03 6.03 2.00 11.00 2.00 L135.00 2.00 C139.97 2.00 144.00 6.03 144.00 11.00 L144.00 42.00 C144.00 46.97 139.97 51.00 135.00 51.00 C135.00 51.00 135.00 51.00 135.00 51.00 L11.00 51.00 C6.03 51.00 2.00 46.97 2.00 42.00 ZM2.00 26.50" fill="#000000" fill-opacity="0.00" />
			<svg height="53.00" width="146.00" x="0.00" y="0.00">
				<svg height="43.00" width="136.00" x="5.00" y="5.00">
					<text dominant-baseline="middle" fill="#000000" fill-opacity="1.00" font-family="Verdana" font-size="14.00" font-weight="normal" text-anchor="middle" x="68.00" y="10.75">Plan the next stops</text>
					<text dominant-baseline="middle" fill="#000000" fill-opacity="1.00" font-family="Verdana" font-size="14.00" font-weight="normal" text-anchor="middle" x="68.00" y="32.25">to a known goal</text>
				</svg>
			</svg>
		</svg>
	</svg>
	<svg height="100.00" id="node24" width="200.00" x="403.50" y="588.00">
		<svg height="53.00" width="149.00" x="25.50" y="23.50">
			<path d="M2.00 26.50L2.00 11.00 C2.00 6.03 6.03 2.00 11.00 2.00 L138.00 2.00 C142.97 2.00 147.00 6.03 147.00 11.00 L147.00 42.00 C147.00 46.97 142.97 51.00 138.00 51.00 C138.00 51.00 138.00 51.00 138.00 51.00 L11.00 51.00 C6.03 51.00 2.00 46.97 2.00 42.00 ZM2.00 26.50" fill="#000000" fill-opacity="0.00" />
			<svg height="53.00" width="149.00" x="0.00" y="0.00">
				<svg height="43.00" width="139.00" x="5.00" y="5.00">
					<text dominant-baseline="middle" fill="#000000" fill-opacity="1.00" font-family="Verdana" font-size="14.00" font-weight="normal" text-anchor="middle" x="69.50" y="10.75">Materialise Benefits</text>
					<text dominant-baseline="middle" fill="#000000" fill-opacity="1.00" font-family="Verdana" font-size="14.00" font-weight="normal" text-anchor="middle" x="69.50" y="32.25">in Change Initiative</text>
				</svg>
			</svg>
		</svg>
	</svg>
	<svg height="100.00" id="node28" width="200.00" x="189.50" y="332.00">
		<svg height="44.00" width="169.00" x="15.50" y="28.00">
			<path d="M2.00 22.00L2.00 11.00 C2.00 6.03 6.03 2.00 11.00 2.00 L158.00 2.00 C162.97 2.00 167.00 6.03 167.00 11.00 L167.00 33.00 C167.00 37.97 162.97 42.00 158.00 42.00 L11.00 42.00 C6.03 42.00 2.00 37.97 2.00 33.00 ZM2.00 22.00" fill="#ecf3f3" fill-opacity="1.00" />
			<svg height="44.00" width="169.00" x="0.00" y="0.00">
				<path d="M2.00 22.00L2.00 11.00 C2.00 6.03 6.03 2.00 11.00 2.00 L158.00 2.00 C162.97 2.00 167.00 6.03 167.00 11.00 L167.00 33.00 C167.00 37.97 162.97 42.00 158.00 42.00 L11.00 42.00 C6.03 42.00 2.00 37.97 2.00 33.00 ZM2.00 22.00" fill="none" stroke="#000000" stroke-opacity="1.00" stroke-width="1.50" />
				<svg height="30.00" width="155.00" x="7.00" y="7.00">
					<svg height="30.00" width="121.00" x="34.00" y="0.00">
						<svg height="30.00" width="121.00" x="0.00" y="0.00">
							<text dominant-baseline="middle" fill="#000000" fill-opacity="1.00" font-family="Verdana" font-size="14.00" font-weight="normal" text-anchor="middle" x="60.50" y="15.00">Prerequisite Tree</text>
						</svg>
					</svg>
					<svg height="30.00" width="30.00" x="0.00" y="0.00">
						<svg x="0.00" y="-0.00">
							<path d="M22.17 2.61C22.17 1.17 21.00 0.00 19.57 0.00 L10.43 0.00 C9.00 0.00 7.83 1.17 7.83 2.61 L7.83 11.74 C7.83 13.17 9.00 14.35 10.43 14.35 L19.57 14.35 C21.00 14.35 22.17 13.17 22.17 11.74 L22.17 2.61 ZM30.00 18.26C30.00 16.83 28.83 15.65 27.39 15.65 L18.26 15.65 C16.83 15.65 15.65 16.83 15.65 18.26 L15.65 27.39 C15.65 28.83 16.83 30.00 18.26 30.00 L27.39 30.00 C28.83 30.00 30.00 28.83 30.00 27.39 L30.00 18.26 ZM23.96 23.74C23.90 24.38 23.75 24.76 23.11 24.83 C21.73 25.02 21.68 23.86 21.70 22.45 C21.74 21.37 22.06 20.67 23.13 20.82 C23.78 20.91 23.91 21.30 23.97 21.95 L25.49 21.95 L25.50 21.94 C25.33 20.30 24.38 19.55 23.01 19.50 C21.38 19.45 20.11 20.45 20.15 23.10 C20.18 24.85 21.09 26.15 22.85 26.15 C24.29 26.15 25.32 25.46 25.49 23.75 L25.49 23.74 L23.96 23.74 ZM18.07 10.43L18.09 10.38 L15.68 3.91 L14.30 3.91 L11.90 10.38 L11.92 10.43 L13.53 10.43 L13.96 9.14 L16.03 9.14 L16.47 10.43 L18.07 10.43 ZM15.60 7.85L14.39 7.85 L14.99 6.03 L15.60 7.85 ZM14.35 18.26C14.35 16.83 13.17 15.65 11.74 15.65 L2.61 15.65 C1.17 15.65 0.00 16.83 0.00 18.26 L0.00 27.39 C0.00 28.83 1.17 30.00 2.61 30.00 L11.74 30.00 C13.17 30.00 14.35 28.83 14.35 27.39 L14.35 18.26 ZM7.28 26.09C8.60 26.06 9.57 25.55 9.63 24.23 C9.65 23.47 9.31 22.96 8.79 22.72 C9.25 22.42 9.51 21.95 9.48 21.30 C9.43 20.05 8.43 19.62 7.19 19.57 C6.37 19.57 5.54 19.57 4.72 19.57 L4.72 26.09 L7.28 26.09 ZM6.26 23.36L6.26 24.80 L7.29 24.80 C7.83 24.77 8.11 24.52 8.09 24.01 C8.06 23.57 7.81 23.39 7.37 23.36 L6.26 23.36 ZM6.26 20.87L6.26 22.19 L7.15 22.19 C7.70 22.16 8.01 21.97 7.93 21.40 C7.90 21.12 7.76 20.88 7.11 20.87 L6.26 20.87 ZM6.26 20.87" fill="#000000" fill-opacity="1.00" fill-rule="evenodd" />
						</svg>
						<svg height="30.00" width="30.00" x="0.00" y="0.00" />
					</svg>
				</svg>
			</svg>
		</svg>
	</svg>
	<svg height="100.00" id="node10" width="200.00" x="189.50" y="232.00">
		<svg height="44.00" width="191.00" x="4.50" y="28.00">
			<path d="M2.00 22.00L2.00 11.00 C2.00 6.03 6.03 2.00 11.00 2.00 L180.00 2.00 C184.97 2.00 189.00 6.03 189.00 11.00 L189.00 33.00 C189.00 37.97 184.97 42.00 180.00 42.00 C180.00 42.00 180.00 42.00 180.00 42.00 L11.00 42.00 C6.03 42.00 2.00 37.97 2.00 33.00 ZM2.00 22.00" fill="#ecf3f3" fill-opacity="1.00" />
			<svg height="44.00" width="191.00" x="0.00" y="0.00">
				<path d="M2.00 22.00L2.00 11.00 C2.00 6.03 6.03 2.00 11.00 2.00 L180.00 2.00 C184.97 2.00 189.00 6.03 189.00 11.00 L189.00 33.00 C189.00 37.97 184.97 42.00 180.00 42.00 C180.00 42.00 180.00 42.00 180.00 42.00 L11.00 42.00 C6.03 42.00 2.00 37.97 2.00 33.00 ZM2.00 22.00" fill="none" stroke="#000000" stroke-opacity="1.00" stroke-width="1.50" />
				<svg height="30.00" width="177.00" x="7.00" y="7.00">
					<svg height="30.00" width="143.00" x="34.00" y="0.00">
						<svg height="30.00" width="143.00" x="0.00" y="0.00">
							<text dominant-baseline="middle" fill="#000000" fill-opacity="1.00" font-family="Verdana" font-size="14.00" font-weight="normal" text-anchor="middle" x="71.50" y="15.00">Current Reality Tree</text>
						</svg>
					</svg>
					<svg height="30.00" width="30.00" x="0.00" y="0.00">
						<svg x="0.00" y="-0.00">
							<path d="M22.17 2.61C22.17 1.17 21.00 0.00 19.57 0.00 L10.43 0.00 C9.00 0.00 7.83 1.17 7.83 2.61 L7.83 11.74 C7.83 13.17 9.00 14.35 10.43 14.35 L19.57 14.35 C21.00 14.35 22.17 13.17 22.17 11.74 L22.17 2.61 ZM30.00 18.26C30.00 16.83 28.83 15.65 27.39 15.65 L18.26 15.65 C16.83 15.65 15.65 16.83 15.65 18.26 L15.65 27.39 C15.65 28.83 16.83 30.00 18.26 30.00 L27.39 30.00 C28.83 30.00 30.00 28.83 30.00 27.39 L30.00 18.26 ZM23.96 23.74C23.90 24.38 23.75 24.76 23.11 24.83 C21.73 25.02 21.68 23.86 21.70 22.45 C21.74 21.37 22.06 20.67 23.13 20.82 C23.78 20.91 23.91 21.30 23.97 21.95 L25.49 21.95 L25.50 21.94 C25.33 20.30 24.38 19.55 23.01 19.50 C21.38 19.45 20.11 20.45 20.15 23.10 C20.18 24.85 21.09 26.15 22.85 26.15 C24.29 26.15 25.32 25.46 25.49 23.75 L25.49 23.74 L23.96 23.74 ZM18.07 10.43L18.09 10.38 L15.68 3.91 L14.30 3.91 L11.90 10.38 L11.92 10.43 L13.53 10.43 L13.96 9.14 L16.03 9.14 L16.47 10.43 L18.07 10.43 ZM15.60 7.85L14.39 7.85 L14.99 6.03 L15.60 7.85 ZM14.35 18.26C14.35 16.83 13.17 15.65 11.74 15.65 L2.61 15.65 C1.17 15.65 0.00 16.83 0.00 18.26 L0.00 27.39 C0.00 28.83 1.17 30.00 2.61 30.00 L11.74 30.00 C13.17 30.00 14.35 28.83 14.35 27.39 L14.35 18.26 ZM7.28 26.09C8.60 26.06 9.57 25.55 9.63 24.23 C9.65 23.47 9.31 22.96 8.79 22.72 C9.25 22.42 9.51 21.95 9.48 21.30 C9.43 20.05 8.43 19.62 7.19 19.57 C6.37 19.57 5.54 19.57 4.72 19.57 L4.72 26.09 L7.28 26.09 ZM6.26 23.36L6.26 24.80 L7.29 24.80 C7.83 24.77 8.11 24.52 8.09 24.01 C8.06 23.57 7.81 23.39 7.37 23.36 L6.26 23.36 ZM6.26 20.87L6.26 22.19 L7.15 22.19 C7.70 22.16 8.01 21.97 7.93 21.40 C7.90 21.12 7.76 20.88 7.11 20.87 L6.26 20.87 ZM6.26 20.87" fill="#000000" fill-opacity="1.00" fill-rule="evenodd" />
						</svg>
						<svg height="30.00" width="30.00" x="0.00" y="0.00" />
					</svg>
				</svg>
			</svg>
		</svg>
	</svg>
	<svg height="100.00" id="node27" width="200.00" x="189.50" y="432.00">
		<svg height="44.00" width="117.00" x="41.50" y="28.00">
			<path d="M2.00 22.00L2.00 11.00 C2.00 6.03 6.03 2.00 11.00 2.00 L106.00 2.00 C110.97 2.00 115.00 6.03 115.00 11.00 L115.00 33.00 C115.00 37.97 110.97 42.00 106.00 42.00 C106.00 42.00 106.00 42.00 106.00 42.00 L11.00 42.00 C6.03 42.00 2.00 37.97 2.00 33.00 ZM2.00 22.00" fill="#ecf3f3" fill-opacity="1.00" />
			<svg height="44.00" width="117.00" x="0.00" y="0.00">
				<path d="M2.00 22.00L2.00 11.00 C2.00 6.03 6.03 2.00 11.00 2.00 L106.00 2.00 C110.97 2.00 115.00 6.03 115.00 11.00 L115.00 33.00 C115.00 37.97 110.97 42.00 106.00 42.00 C106.00 42.00 106.00 42.00 106.00 42.00 L11.00 42.00 C6.03 42.00 2.00 37.97 2.00 33.00 ZM2.00 22.00" fill="none" stroke="#000000" stroke-opacity="1.00" stroke-width="1.50" />
				<svg height="30.00" width="103.00" x="7.00" y="7.00">
					<svg height="30.00" width="69.00" x="34.00" y="0.00">
						<svg height="30.00" width="69.00" x="0.00" y="0.00">
							<text dominant-baseline="middle" fill="#000000" fill-opacity="1.00" font-family="Verdana" font-size="14.00" font-weight="normal" text-anchor="middle" x="34.50" y="15.00">Goal Tree</text>
						</svg>
					</svg>
					<svg height="30.00" width="30.00" x="0.00" y="0.00">
						<svg x="0.00" y="-0.00">
							<path d="M22.17 2.61C22.17 1.17 21.00 0.00 19.57 0.00 L10.43 0.00 C9.00 0.00 7.83 1.17 7.83 2.61 L7.83 11.74 C7.83 13.17 9.00 14.35 10.43 14.35 L19.57 14.35 C21.00 14.35 22.17 13.17 22.17 11.74 L22.17 2.61 ZM30.00 18.26C30.00 16.83 28.83 15.65 27.39 15.65 L18.26 15.65 C16.83 15.65 15.65 16.83 15.65 18.26 L15.65 27.39 C15.65 28.83 16.83 30.00 18.26 30.00 L27.39 30.00 C28.83 30.00 30.00 28.83 30.00 27.39 L30.00 18.26 ZM23.96 23.74C23.90 24.38 23.75 24.76 23.11 24.83 C21.73 25.02 21.68 23.86 21.70 22.45 C21.74 21.37 22.06 20.67 23.13 20.82 C23.78 20.91 23.91 21.30 23.97 21.95 L25.49 21.95 L25.50 21.94 C25.33 20.30 24.38 19.55 23.01 19.50 C21.38 19.45 20.11 20.45 20.15 23.10 C20.18 24.85 21.09 26.15 22.85 26.15 C24.29 26.15 25.32 25.46 25.49 23.75 L25.49 23.74 L23.96 23.74 ZM18.07 10.43L18.09 10.38 L15.68 3.91 L14.30 3.91 L11.90 10.38 L11.92 10.43 L13.53 10.43 L13.96 9.14 L16.03 9.14 L16.47 10.43 L18.07 10.43 ZM15.60 7.85L14.39 7.85 L14.99 6.03 L15.60 7.85 ZM14.35 18.26C14.35 16.83 13.17 15.65 11.74 15.65 L2.61 15.65 C1.17 15.65 0.00 16.83 0.00 18.26 L0.00 27.39 C0.00 28.83 1.17 30.00 2.61 30.00 L11.74 30.00 C13.17 30.00 14.35 28.83 14.35 27.39 L14.35 18.26 ZM7.28 26.09C8.60 26.06 9.57 25.55 9.63 24.23 C9.65 23.47 9.31 22.96 8.79 22.72 C9.25 22.42 9.51 21.95 9.48 21.30 C9.43 20.05 8.43 19.62 7.19 19.57 C6.37 19.57 5.54 19.57 4.72 19.57 L4.72 26.09 L7.28 26.09 ZM6.26 23.36L6.26 24.80 L7.29 24.80 C7.83 24.77 8.11 24.52 8.09 24.01 C8.06 23.57 7.81 23.39 7.37 23.36 L6.26 23.36 ZM6.26 20.87L6.26 22.19 L7.15 22.19 C7.70 22.16 8.01 21.97 7.93 21.40 C7.90 21.12 7.76 20.88 7.11 20.87 L6.26 20.87 ZM6.26 20.87" fill="#000000" fill-opacity="1.00" fill-rule="evenodd" />
						</svg>
						<svg height="30.00" width="30.00" x="0.00" y="0.00" />
					</svg>
				</svg>
			</svg>
		</svg>
	</svg>
	<svg height="100.00" id="node30" width="200.00" x="403.50" y="282.00">
		<svg height="32.00" width="197.00" x="1.50" y="34.00">
			<path d="M2.00 16.00L2.00 11.00 C2.00 6.03 6.03 2.00 11.00 2.00 L186.00 2.00 C190.97 2.00 195.00 6.03 195.00 11.00 L195.00 21.00 C195.00 25.97 190.97 30.00 186.00 30.00 C186.00 30.00 186.00 30.00 186.00 30.00 L11.00 30.00 C6.03 30.00 2.00 25.97 2.00 21.00 ZM2.00 16.00" fill="#000000" fill-opacity="0.00" />
			<svg height="32.00" width="197.00" x="0.00" y="0.00">
				<svg height="22.00" width="187.00" x="5.00" y="5.00">
					<text dominant-baseline="middle" fill="#000000" fill-opacity="1.00" font-family="Verdana" font-size="14.00" font-weight="normal" text-anchor="middle" x="93.50" y="11.00">Review potential Solutions</text>
				</svg>
			</svg>
		</svg>
	</svg>
	<a href="https://vithanco.com/notations/causal-loop-diagram">
		<svg height="100.00" id="node17" width="200.00" x="189.50" y="0.00">
			<svg height="44.00" width="199.00" x="0.50" y="28.00">
				<path d="M2.00 22.00L2.00 11.00 C2.00 6.03 6.03 2.00 11.00 2.00 L188.00 2.00 C192.97 2.00 197.00 6.03 197.00 11.00 L197.00 33.00 C197.00 37.97 192.97 42.00 188.00 42.00 C188.00 42.00 188.00 42.00 188.00 42.00 L11.00 42.00 C6.03 42.00 2.00 37.97 2.00 33.00 ZM2.00 22.00" fill="#ecf3f3" fill-opacity="1.00" />
				<svg height="44.00" width="199.00" x="0.00" y="0.00">
					<path d="M2.00 22.00L2.00 11.00 C2.00 6.03 6.03 2.00 11.00 2.00 L188.00 2.00 C192.97 2.00 197.00 6.03 197.00 11.00 L197.00 33.00 C197.00 37.97 192.97 42.00 188.00 42.00 C188.00 42.00 188.00 42.00 188.00 42.00 L11.00 42.00 C6.03 42.00 2.00 37.97 2.00 33.00 ZM2.00 22.00" fill="none" stroke="#000000" stroke-opacity="1.00" stroke-width="1.50" />
					<svg height="30.00" width="185.00" x="7.00" y="7.00">
						<svg height="30.00" width="151.00" x="34.00" y="0.00">
							<svg height="30.00" width="151.00" x="0.00" y="0.00">
								<text dominant-baseline="middle" fill="#000000" fill-opacity="1.00" font-family="Verdana" font-size="14.00" font-weight="normal" text-anchor="middle" x="75.50" y="15.00">Causal Loop Diagram</text>
							</svg>
						</svg>
						<svg height="30.00" width="30.00" x="0.00" y="0.00">
							<svg x="0.00" y="-0.00">
								<path d="M22.17 2.61C22.17 1.17 21.00 0.00 19.57 0.00 L10.43 0.00 C9.00 0.00 7.83 1.17 7.83 2.61 L7.83 11.74 C7.83 13.17 9.00 14.35 10.43 14.35 L19.57 14.35 C21.00 14.35 22.17 13.17 22.17 11.74 L22.17 2.61 ZM30.00 18.26C30.00 16.83 28.83 15.65 27.39 15.65 L18.26 15.65 C16.83 15.65 15.65 16.83 15.65 18.26 L15.65 27.39 C15.65 28.83 16.83 30.00 18.26 30.00 L27.39 30.00 C28.83 30.00 30.00 28.83 30.00 27.39 L30.00 18.26 ZM23.96 23.74C23.90 24.38 23.75 24.76 23.11 24.83 C21.73 25.02 21.68 23.86 21.70 22.45 C21.74 21.37 22.06 20.67 23.13 20.82 C23.78 20.91 23.91 21.30 23.97 21.95 L25.49 21.95 L25.50 21.94 C25.33 20.30 24.38 19.55 23.01 19.50 C21.38 19.45 20.11 20.45 20.15 23.10 C20.18 24.85 21.09 26.15 22.85 26.15 C24.29 26.15 25.32 25.46 25.49 23.75 L25.49 23.74 L23.96 23.74 ZM18.07 10.43L18.09 10.38 L15.68 3.91 L14.30 3.91 L11.90 10.38 L11.92 10.43 L13.53 10.43 L13.96 9.14 L16.03 9.14 L16.47 10.43 L18.07 10.43 ZM15.60 7.85L14.39 7.85 L14.99 6.03 L15.60 7.85 ZM14.35 18.26C14.35 16.83 13.17 15.65 11.74 15.65 L2.61 15.65 C1.17 15.65 0.00 16.83 0.00 18.26 L0.00 27.39 C0.00 28.83 1.17 30.00 2.61 30.00 L11.74 30.00 C13.17 30.00 14.35 28.83 14.35 27.39 L14.35 18.26 ZM7.28 26.09C8.60 26.06 9.57 25.55 9.63 24.23 C9.65 23.47 9.31 22.96 8.79 22.72 C9.25 22.42 9.51 21.95 9.48 21.30 C9.43 20.05 8.43 19.62 7.19 19.57 C6.37 19.57 5.54 19.57 4.72 19.57 L4.72 26.09 L7.28 26.09 ZM6.26 23.36L6.26 24.80 L7.29 24.80 C7.83 24.77 8.11 24.52 8.09 24.01 C8.06 23.57 7.81 23.39 7.37 23.36 L6.26 23.36 ZM6.26 20.87L6.26 22.19 L7.15 22.19 C7.70 22.16 8.01 21.97 7.93 21.40 C7.90 21.12 7.76 20.88 7.11 20.87 L6.26 20.87 ZM6.26 20.87" fill="#000000" fill-opacity="1.00" fill-rule="evenodd" />
							</svg>
							<svg height="30.00" width="30.00" x="0.00" y="0.00" />
						</svg>
					</svg>
				</svg>
			</svg>
		</svg>
	</a>
	<svg height="100.00" id="node11" width="200.00" x="189.50" y="382.00">
		<svg height="44.00" width="155.00" x="22.50" y="28.00">
			<path d="M2.00 22.00L2.00 11.00 C2.00 6.03 6.03 2.00 11.00 2.00 L144.00 2.00 C148.97 2.00 153.00 6.03 153.00 11.00 L153.00 33.00 C153.00 37.97 148.97 42.00 144.00 42.00 L11.00 42.00 C6.03 42.00 2.00 37.97 2.00 33.00 ZM2.00 22.00" fill="#ecf3f3" fill-opacity="1.00" />
			<svg height="44.00" width="155.00" x="0.00" y="0.00">
				<path d="M2.00 22.00L2.00 11.00 C2.00 6.03 6.03 2.00 11.00 2.00 L144.00 2.00 C148.97 2.00 153.00 6.03 153.00 11.00 L153.00 33.00 C153.00 37.97 148.97 42.00 144.00 42.00 L11.00 42.00 C6.03 42.00 2.00 37.97 2.00 33.00 ZM2.00 22.00" fill="none" stroke="#000000" stroke-opacity="1.00" stroke-width="1.50" />
				<svg height="30.00" width="141.00" x="7.00" y="7.00">
					<svg height="30.00" width="107.00" x="34.00" y="0.00">
						<svg height="30.00" width="107.00" x="0.00" y="0.00">
							<text dominant-baseline="middle" fill="#000000" fill-opacity="1.00" font-family="Verdana" font-size="14.00" font-weight="normal" text-anchor="middle" x="53.50" y="15.00">Transition Tree</text>
						</svg>
					</svg>
					<svg height="30.00" width="30.00" x="0.00" y="0.00">
						<svg x="0.00" y="-0.00">
							<path d="M22.17 2.61C22.17 1.17 21.00 0.00 19.57 0.00 L10.43 0.00 C9.00 0.00 7.83 1.17 7.83 2.61 L7.83 11.74 C7.83 13.17 9.00 14.35 10.43 14.35 L19.57 14.35 C21.00 14.35 22.17 13.17 22.17 11.74 L22.17 2.61 ZM30.00 18.26C30.00 16.83 28.83 15.65 27.39 15.65 L18.26 15.65 C16.83 15.65 15.65 16.83 15.65 18.26 L15.65 27.39 C15.65 28.83 16.83 30.00 18.26 30.00 L27.39 30.00 C28.83 30.00 30.00 28.83 30.00 27.39 L30.00 18.26 ZM23.96 23.74C23.90 24.38 23.75 24.76 23.11 24.83 C21.73 25.02 21.68 23.86 21.70 22.45 C21.74 21.37 22.06 20.67 23.13 20.82 C23.78 20.91 23.91 21.30 23.97 21.95 L25.49 21.95 L25.50 21.94 C25.33 20.30 24.38 19.55 23.01 19.50 C21.38 19.45 20.11 20.45 20.15 23.10 C20.18 24.85 21.09 26.15 22.85 26.15 C24.29 26.15 25.32 25.46 25.49 23.75 L25.49 23.74 L23.96 23.74 ZM18.07 10.43L18.09 10.38 L15.68 3.91 L14.30 3.91 L11.90 10.38 L11.92 10.43 L13.53 10.43 L13.96 9.14 L16.03 9.14 L16.47 10.43 L18.07 10.43 ZM15.60 7.85L14.39 7.85 L14.99 6.03 L15.60 7.85 ZM14.35 18.26C14.35 16.83 13.17 15.65 11.74 15.65 L2.61 15.65 C1.17 15.65 0.00 16.83 0.00 18.26 L0.00 27.39 C0.00 28.83 1.17 30.00 2.61 30.00 L11.74 30.00 C13.17 30.00 14.35 28.83 14.35 27.39 L14.35 18.26 ZM7.28 26.09C8.60 26.06 9.57 25.55 9.63 24.23 C9.65 23.47 9.31 22.96 8.79 22.72 C9.25 22.42 9.51 21.95 9.48 21.30 C9.43 20.05 8.43 19.62 7.19 19.57 C6.37 19.57 5.54 19.57 4.72 19.57 L4.72 26.09 L7.28 26.09 ZM6.26 23.36L6.26 24.80 L7.29 24.80 C7.83 24.77 8.11 24.52 8.09 24.01 C8.06 23.57 7.81 23.39 7.37 23.36 L6.26 23.36 ZM6.26 20.87L6.26 22.19 L7.15 22.19 C7.70 22.16 8.01 21.97 7.93 21.40 C7.90 21.12 7.76 20.88 7.11 20.87 L6.26 20.87 ZM6.26 20.87" fill="#000000" fill-opacity="1.00" fill-rule="evenodd" />
						</svg>
						<svg height="30.00" width="30.00" x="0.00" y="0.00" />
					</svg>
				</svg>
			</svg>
		</svg>
	</svg>
	<svg height="100.00" id="node18" width="200.00" x="403.50" y="50.00">
		<svg height="32.00" width="139.00" x="30.50" y="34.00">
			<path d="M2.00 16.00L2.00 11.00 C2.00 6.03 6.03 2.00 11.00 2.00 L128.00 2.00 C132.97 2.00 137.00 6.03 137.00 11.00 L137.00 21.00 C137.00 25.97 132.97 30.00 128.00 30.00 C128.00 30.00 128.00 30.00 128.00 30.00 L11.00 30.00 C6.03 30.00 2.00 25.97 2.00 21.00 ZM2.00 16.00" fill="#000000" fill-opacity="0.00" />
			<svg height="32.00" width="139.00" x="0.00" y="0.00">
				<svg height="22.00" width="129.00" x="5.00" y="5.00">
					<text dominant-baseline="middle" fill="#000000" fill-opacity="1.00" font-family="Verdana" font-size="14.00" font-weight="normal" text-anchor="middle" x="64.50" y="11.00">Define Vocabulary</text>
				</svg>
			</svg>
		</svg>
	</svg>
	<svg height="100.00" id="node5" width="200.00" x="-4.00" y="432.00">
		<svg height="44.00" width="166.00" x="17.00" y="28.00">
			<path d="M2.00 22.00L2.00 11.00 C2.00 6.03 6.03 2.00 11.00 2.00 L155.00 2.00 C159.97 2.00 164.00 6.03 164.00 11.00 L164.00 33.00 C164.00 37.97 159.97 42.00 155.00 42.00 L11.00 42.00 C6.03 42.00 2.00 37.97 2.00 33.00 ZM2.00 22.00" fill="#eaf4f3" fill-opacity="1.00" />
			<svg height="44.00" width="166.00" x="0.00" y="0.00">
				<path d="M2.00 22.00L2.00 11.00 C2.00 6.03 6.03 2.00 11.00 2.00 L155.00 2.00 C159.97 2.00 164.00 6.03 164.00 11.00 L164.00 33.00 C164.00 37.97 159.97 42.00 155.00 42.00 L11.00 42.00 C6.03 42.00 2.00 37.97 2.00 33.00 ZM2.00 22.00" fill="none" stroke="#000000" stroke-opacity="1.00" stroke-width="1.50" />
				<svg height="30.00" width="152.00" x="7.00" y="7.00">
					<svg height="30.00" width="118.00" x="34.00" y="0.00">
						<svg height="30.00" width="118.00" x="0.00" y="0.00">
							<text dominant-baseline="middle" fill="#000000" fill-opacity="1.00" font-family="Verdana" font-size="14.00" font-weight="normal" text-anchor="middle" x="59.00" y="15.00">Think &amp; Triumph</text>
						</svg>
					</svg>
					<svg height="30.00" width="30.00" x="0.00" y="0.00">
						<svg x="0.00" y="-0.00">
							<path d="M16.25 30.02L13.75 30.02 L13.75 6.27 L15.02 7.52 L16.25 6.27 L16.25 30.02 ZM12.78 19.54C10.80 18.90 8.85 19.25 7.64 20.32 C5.74 22.02 6.11 24.85 6.11 24.85 C6.11 24.85 9.34 25.79 11.25 24.09 C13.08 22.46 12.78 19.76 12.78 19.54 ZM17.21 19.54C19.18 18.90 21.14 19.25 22.34 20.32 C24.24 22.02 23.86 24.85 23.86 24.85 C23.86 24.85 20.65 25.79 18.74 24.09 C16.91 22.46 17.21 19.76 17.21 19.54 ZM22.59 18.11C24.02 16.90 25.79 16.52 27.17 17.01 C29.35 17.77 30.00 20.27 30.00 20.27 C30.00 20.27 27.61 22.18 25.43 21.40 C23.34 20.66 22.66 18.29 22.59 18.11 ZM7.41 18.11C5.98 16.90 4.21 16.52 2.82 17.01 C0.65 17.77 0.00 20.27 0.00 20.27 C0.00 20.27 2.39 22.18 4.58 21.40 C6.66 20.66 7.34 18.29 7.41 18.11 ZM12.70 18.06C13.01 16.31 12.50 14.70 11.45 13.80 C9.80 12.38 7.44 13.01 7.44 13.01 C7.44 13.01 7.01 15.86 8.68 17.29 C10.26 18.65 12.51 18.09 12.70 18.06 ZM17.30 18.06C16.99 16.31 17.50 14.70 18.55 13.80 C20.20 12.38 22.56 13.01 22.56 13.01 C22.56 13.01 22.99 15.86 21.32 17.29 C19.74 18.65 17.49 18.09 17.30 18.06 ZM22.97 15.12C23.50 13.61 24.62 12.57 25.85 12.32 C27.77 11.95 29.35 13.49 29.35 13.49 C29.35 13.49 28.42 15.91 26.48 16.30 C24.62 16.68 23.10 15.24 22.97 15.12 ZM7.03 15.12C6.50 13.61 5.38 12.57 4.15 12.32 C2.23 11.95 0.65 13.49 0.65 13.49 C0.65 13.49 1.57 15.91 3.52 16.30 C5.38 16.68 6.89 15.24 7.03 15.12 ZM16.98 12.18C16.95 10.52 17.66 9.12 18.76 8.45 C20.49 7.40 22.56 8.34 22.56 8.34 C22.56 8.34 22.52 11.01 20.79 12.06 C19.12 13.08 17.14 12.22 16.98 12.18 ZM13.03 12.18C13.06 10.52 12.34 9.12 11.24 8.45 C9.51 7.40 7.45 8.34 7.45 8.34 C7.45 8.34 7.48 11.01 9.21 12.06 C10.88 13.08 12.86 12.22 13.03 12.18 ZM7.04 11.55C7.14 10.10 6.56 8.82 5.61 8.19 C4.14 7.19 2.27 7.93 2.27 7.93 C2.27 7.93 2.19 10.29 3.67 11.30 C5.10 12.26 6.89 11.59 7.04 11.55 ZM22.96 11.55C22.86 10.10 23.44 8.82 24.39 8.19 C25.86 7.19 27.74 7.93 27.74 7.93 C27.74 7.93 27.81 10.29 26.32 11.30 C24.90 12.26 23.11 11.59 22.96 11.55 ZM17.76 7.86C17.05 6.48 17.07 4.99 17.73 3.98 C18.74 2.36 20.88 2.30 20.88 2.30 C20.88 2.30 21.95 4.56 20.92 6.19 C19.95 7.73 17.93 7.84 17.76 7.86 ZM12.24 7.86C12.95 6.48 12.93 4.99 12.29 3.98 C11.26 2.36 9.12 2.30 9.12 2.30 C9.12 2.30 8.05 4.56 9.07 6.19 C10.05 7.73 12.07 7.84 12.24 7.86 ZM8.50 7.50C8.58 6.26 8.09 5.20 7.30 4.66 C6.05 3.81 4.49 4.44 4.49 4.44 C4.49 4.44 4.41 6.43 5.67 7.27 C6.88 8.09 8.38 7.52 8.50 7.50 ZM21.50 7.50C21.43 6.26 21.91 5.20 22.70 4.66 C23.95 3.81 25.53 4.44 25.53 4.44 C25.53 4.44 25.59 6.43 24.33 7.27 C23.14 8.09 21.62 7.52 21.50 7.50 ZM15.05 6.18C13.80 5.34 13.12 4.08 13.20 2.91 C13.31 1.07 15.08 0.02 15.08 0.02 C15.08 0.02 17.05 1.43 16.94 3.28 C16.84 5.04 15.18 6.07 15.05 6.18 ZM15.05 6.18" fill="#000000" fill-opacity="1.00" fill-rule="evenodd" />
						</svg>
						<svg height="30.00" width="30.00" x="0.00" y="0.00" />
					</svg>
				</svg>
			</svg>
		</svg>
	</svg>
	<svg height="100.00" id="node12" width="200.00" x="189.50" y="488.00">
		<svg height="44.00" width="144.00" x="28.00" y="28.00">
			<path d="M2.00 22.00L2.00 11.00 C2.00 6.03 6.03 2.00 11.00 2.00 L133.00 2.00 C137.97 2.00 142.00 6.03 142.00 11.00 L142.00 33.00 C142.00 37.97 137.97 42.00 133.00 42.00 C133.00 42.00 133.00 42.00 133.00 42.00 L11.00 42.00 C6.03 42.00 2.00 37.97 2.00 33.00 ZM2.00 22.00" fill="#ecf3f3" fill-opacity="1.00" />
			<svg height="44.00" width="144.00" x="0.00" y="0.00">
				<path d="M2.00 22.00L2.00 11.00 C2.00 6.03 6.03 2.00 11.00 2.00 L133.00 2.00 C137.97 2.00 142.00 6.03 142.00 11.00 L142.00 33.00 C142.00 37.97 137.97 42.00 133.00 42.00 C133.00 42.00 133.00 42.00 133.00 42.00 L11.00 42.00 C6.03 42.00 2.00 37.97 2.00 33.00 ZM2.00 22.00" fill="none" stroke="#000000" stroke-opacity="1.00" stroke-width="1.50" />
				<svg height="30.00" width="130.00" x="7.00" y="7.00">
					<svg height="30.00" width="96.00" x="34.00" y="0.00">
						<svg height="30.00" width="96.00" x="0.00" y="0.00">
							<text dominant-baseline="middle" fill="#000000" fill-opacity="1.00" font-family="Verdana" font-size="14.00" font-weight="normal" text-anchor="middle" x="48.00" y="15.00">Decision Tree</text>
						</svg>
					</svg>
					<svg height="30.00" width="30.00" x="0.00" y="0.00">
						<svg x="0.00" y="-0.00">
							<path d="M22.17 2.61C22.17 1.17 21.00 0.00 19.57 0.00 L10.43 0.00 C9.00 0.00 7.83 1.17 7.83 2.61 L7.83 11.74 C7.83 13.17 9.00 14.35 10.43 14.35 L19.57 14.35 C21.00 14.35 22.17 13.17 22.17 11.74 L22.17 2.61 ZM30.00 18.26C30.00 16.83 28.83 15.65 27.39 15.65 L18.26 15.65 C16.83 15.65 15.65 16.83 15.65 18.26 L15.65 27.39 C15.65 28.83 16.83 30.00 18.26 30.00 L27.39 30.00 C28.83 30.00 30.00 28.83 30.00 27.39 L30.00 18.26 ZM23.96 23.74C23.90 24.38 23.75 24.76 23.11 24.83 C21.73 25.02 21.68 23.86 21.70 22.45 C21.74 21.37 22.06 20.67 23.13 20.82 C23.78 20.91 23.91 21.30 23.97 21.95 L25.49 21.95 L25.50 21.94 C25.33 20.30 24.38 19.55 23.01 19.50 C21.38 19.45 20.11 20.45 20.15 23.10 C20.18 24.85 21.09 26.15 22.85 26.15 C24.29 26.15 25.32 25.46 25.49 23.75 L25.49 23.74 L23.96 23.74 ZM18.07 10.43L18.09 10.38 L15.68 3.91 L14.30 3.91 L11.90 10.38 L11.92 10.43 L13.53 10.43 L13.96 9.14 L16.03 9.14 L16.47 10.43 L18.07 10.43 ZM15.60 7.85L14.39 7.85 L14.99 6.03 L15.60 7.85 ZM14.35 18.26C14.35 16.83 13.17 15.65 11.74 15.65 L2.61 15.65 C1.17 15.65 0.00 16.83 0.00 18.26 L0.00 27.39 C0.00 28.83 1.17 30.00 2.61 30.00 L11.74 30.00 C13.17 30.00 14.35 28.83 14.35 27.39 L14.35 18.26 ZM7.28 26.09C8.60 26.06 9.57 25.55 9.63 24.23 C9.65 23.47 9.31 22.96 8.79 22.72 C9.25 22.42 9.51 21.95 9.48 21.30 C9.43 20.05 8.43 19.62 7.19 19.57 C6.37 19.57 5.54 19.57 4.72 19.57 L4.72 26.09 L7.28 26.09 ZM6.26 23.36L6.26 24.80 L7.29 24.80 C7.83 24.77 8.11 24.52 8.09 24.01 C8.06 23.57 7.81 23.39 7.37 23.36 L6.26 23.36 ZM6.26 20.87L6.26 22.19 L7.15 22.19 C7.70 22.16 8.01 21.97 7.93 21.40 C7.90 21.12 7.76 20.88 7.11 20.87 L6.26 20.87 ZM6.26 20.87" fill="#000000" fill-opacity="1.00" fill-rule="evenodd" />
						</svg>
						<svg height="30.00" width="30.00" x="0.00" y="0.00" />
					</svg>
				</svg>
			</svg>
		</svg>
	</svg>
	<svg height="100.00" id="node22" width="200.00" x="403.50" y="0.00">
		<svg height="32.00" width="207.00" x="-3.50" y="34.00">
			<path d="M2.00 16.00L2.00 11.00 C2.00 6.03 6.03 2.00 11.00 2.00 L196.00 2.00 C200.97 2.00 205.00 6.03 205.00 11.00 L205.00 21.00 C205.00 25.97 200.97 30.00 196.00 30.00 C196.00 30.00 196.00 30.00 196.00 30.00 L11.00 30.00 C6.03 30.00 2.00 25.97 2.00 21.00 ZM2.00 16.00" fill="#000000" fill-opacity="0.00" />
			<svg height="32.00" width="207.00" x="0.00" y="0.00">
				<svg height="22.00" width="197.00" x="5.00" y="5.00">
					<text dominant-baseline="middle" fill="#000000" fill-opacity="1.00" font-family="Verdana" font-size="14.00" font-weight="normal" text-anchor="middle" x="98.50" y="11.00">Analyse Complex Behaviour</text>
				</svg>
			</svg>
		</svg>
	</svg>
	<svg height="100.00" id="node31" width="200.00" x="403.50" y="381.00">
		<svg height="32.00" width="151.00" x="24.50" y="34.00">
			<path d="M2.00 16.00L2.00 11.00 C2.00 6.03 6.03 2.00 11.00 2.00 L140.00 2.00 C144.97 2.00 149.00 6.03 149.00 11.00 L149.00 21.00 C149.00 25.97 144.97 30.00 140.00 30.00 L11.00 30.00 C6.03 30.00 2.00 25.97 2.00 21.00 ZM2.00 16.00" fill="#000000" fill-opacity="0.00" />
			<svg height="32.00" width="151.00" x="0.00" y="0.00">
				<svg height="22.00" width="141.00" x="5.00" y="5.00">
					<text dominant-baseline="middle" fill="#000000" fill-opacity="1.00" font-family="Verdana" font-size="14.00" font-weight="normal" text-anchor="middle" x="70.50" y="11.00">Detail the transition</text>
				</svg>
			</svg>
		</svg>
	</svg>
	<svg height="100.00" id="node7" width="200.00" x="189.50" y="100.00">
		<svg height="44.00" width="80.00" x="60.00" y="28.00">
			<path d="M2.00 22.00L2.00 11.00 C2.00 6.03 6.03 2.00 11.00 2.00 L69.00 2.00 C73.97 2.00 78.00 6.03 78.00 11.00 L78.00 33.00 C78.00 37.97 73.97 42.00 69.00 42.00 C69.00 42.00 69.00 42.00 69.00 42.00 L11.00 42.00 C6.03 42.00 2.00 37.97 2.00 33.00 ZM2.00 22.00" fill="#ecf3f3" fill-opacity="1.00" />
			<svg height="44.00" width="80.00" x="0.00" y="0.00">
				<path d="M2.00 22.00L2.00 11.00 C2.00 6.03 6.03 2.00 11.00 2.00 L69.00 2.00 C73.97 2.00 78.00 6.03 78.00 11.00 L78.00 33.00 C78.00 37.97 73.97 42.00 69.00 42.00 C69.00 42.00 69.00 42.00 69.00 42.00 L11.00 42.00 C6.03 42.00 2.00 37.97 2.00 33.00 ZM2.00 22.00" fill="none" stroke="#000000" stroke-opacity="1.00" stroke-width="1.50" />
				<svg height="30.00" width="66.00" x="7.00" y="7.00">
					<svg height="30.00" width="32.00" x="34.00" y="0.00">
						<svg height="30.00" width="32.00" x="0.00" y="0.00">
							<text dominant-baseline="middle" fill="#000000" fill-opacity="1.00" font-family="Verdana" font-size="14.00" font-weight="normal" text-anchor="middle" x="16.00" y="15.00">IBIS</text>
						</svg>
					</svg>
					<svg height="30.00" width="30.00" x="0.00" y="0.00">
						<svg x="0.00" y="-0.00">
							<path d="M22.17 2.61C22.17 1.17 21.00 0.00 19.57 0.00 L10.43 0.00 C9.00 0.00 7.83 1.17 7.83 2.61 L7.83 11.74 C7.83 13.17 9.00 14.35 10.43 14.35 L19.57 14.35 C21.00 14.35 22.17 13.17 22.17 11.74 L22.17 2.61 ZM30.00 18.26C30.00 16.83 28.83 15.65 27.39 15.65 L18.26 15.65 C16.83 15.65 15.65 16.83 15.65 18.26 L15.65 27.39 C15.65 28.83 16.83 30.00 18.26 30.00 L27.39 30.00 C28.83 30.00 30.00 28.83 30.00 27.39 L30.00 18.26 ZM23.96 23.74C23.90 24.38 23.75 24.76 23.11 24.83 C21.73 25.02 21.68 23.86 21.70 22.45 C21.74 21.37 22.06 20.67 23.13 20.82 C23.78 20.91 23.91 21.30 23.97 21.95 L25.49 21.95 L25.50 21.94 C25.33 20.30 24.38 19.55 23.01 19.50 C21.38 19.45 20.11 20.45 20.15 23.10 C20.18 24.85 21.09 26.15 22.85 26.15 C24.29 26.15 25.32 25.46 25.49 23.75 L25.49 23.74 L23.96 23.74 ZM18.07 10.43L18.09 10.38 L15.68 3.91 L14.30 3.91 L11.90 10.38 L11.92 10.43 L13.53 10.43 L13.96 9.14 L16.03 9.14 L16.47 10.43 L18.07 10.43 ZM15.60 7.85L14.39 7.85 L14.99 6.03 L15.60 7.85 ZM14.35 18.26C14.35 16.83 13.17 15.65 11.74 15.65 L2.61 15.65 C1.17 15.65 0.00 16.83 0.00 18.26 L0.00 27.39 C0.00 28.83 1.17 30.00 2.61 30.00 L11.74 30.00 C13.17 30.00 14.35 28.83 14.35 27.39 L14.35 18.26 ZM7.28 26.09C8.60 26.06 9.57 25.55 9.63 24.23 C9.65 23.47 9.31 22.96 8.79 22.72 C9.25 22.42 9.51 21.95 9.48 21.30 C9.43 20.05 8.43 19.62 7.19 19.57 C6.37 19.57 5.54 19.57 4.72 19.57 L4.72 26.09 L7.28 26.09 ZM6.26 23.36L6.26 24.80 L7.29 24.80 C7.83 24.77 8.11 24.52 8.09 24.01 C8.06 23.57 7.81 23.39 7.37 23.36 L6.26 23.36 ZM6.26 20.87L6.26 22.19 L7.15 22.19 C7.70 22.16 8.01 21.97 7.93 21.40 C7.90 21.12 7.76 20.88 7.11 20.87 L6.26 20.87 ZM6.26 20.87" fill="#000000" fill-opacity="1.00" fill-rule="evenodd" />
						</svg>
						<svg height="30.00" width="30.00" x="0.00" y="0.00" />
					</svg>
				</svg>
			</svg>
		</svg>
	</svg>
	<svg height="100.00" id="node21" width="200.00" x="403.50" y="232.00">
		<svg height="32.00" width="127.00" x="36.50" y="34.00">
			<path d="M2.00 16.00L2.00 11.00 C2.00 6.03 6.03 2.00 11.00 2.00 L116.00 2.00 C120.97 2.00 125.00 6.03 125.00 11.00 L125.00 21.00 C125.00 25.97 120.97 30.00 116.00 30.00 C116.00 30.00 116.00 30.00 116.00 30.00 L11.00 30.00 C6.03 30.00 2.00 25.97 2.00 21.00 ZM2.00 16.00" fill="#000000" fill-opacity="0.00" />
			<svg height="32.00" width="127.00" x="0.00" y="0.00">
				<svg height="22.00" width="117.00" x="5.00" y="5.00">
					<text dominant-baseline="middle" fill="#000000" fill-opacity="1.00" font-family="Verdana" font-size="14.00" font-weight="normal" text-anchor="middle" x="58.50" y="11.00">Find Root-Cause</text>
				</svg>
			</svg>
		</svg>
	</svg>
	<svg height="100.00" id="node19" width="200.00" x="403.50" y="100.00">
		<svg height="32.00" width="135.00" x="32.50" y="34.00">
			<path d="M2.00 16.00L2.00 11.00 C2.00 6.03 6.03 2.00 11.00 2.00 L124.00 2.00 C128.97 2.00 133.00 6.03 133.00 11.00 L133.00 21.00 C133.00 25.97 128.97 30.00 124.00 30.00 C124.00 30.00 124.00 30.00 124.00 30.00 L11.00 30.00 C6.03 30.00 2.00 25.97 2.00 21.00 ZM2.00 16.00" fill="#000000" fill-opacity="0.00" />
			<svg height="32.00" width="135.00" x="0.00" y="0.00">
				<svg height="22.00" width="125.00" x="5.00" y="5.00">
					<text dominant-baseline="middle" fill="#000000" fill-opacity="1.00" font-family="Verdana" font-size="14.00" font-weight="normal" text-anchor="middle" x="62.50" y="11.00">Answer questions</text>
				</svg>
			</svg>
		</svg>
	</svg>
	<svg height="100.00" id="node32" width="200.00" x="403.50" y="430.00">
		<svg height="53.00" width="150.00" x="25.00" y="23.50">
			<path d="M2.00 26.50L2.00 11.00 C2.00 6.03 6.03 2.00 11.00 2.00 L139.00 2.00 C143.97 2.00 148.00 6.03 148.00 11.00 L148.00 42.00 C148.00 46.97 143.97 51.00 139.00 51.00 C139.00 51.00 139.00 51.00 139.00 51.00 L11.00 51.00 C6.03 51.00 2.00 46.97 2.00 42.00 ZM2.00 26.50" fill="#000000" fill-opacity="0.00" />
			<svg height="53.00" width="150.00" x="0.00" y="0.00">
				<svg height="43.00" width="140.00" x="5.00" y="5.00">
					<text dominant-baseline="middle" fill="#000000" fill-opacity="1.00" font-family="Verdana" font-size="14.00" font-weight="normal" text-anchor="middle" x="70.00" y="10.75">Setting Department</text>
					<text dominant-baseline="middle" fill="#000000" fill-opacity="1.00" font-family="Verdana" font-size="14.00" font-weight="normal" text-anchor="middle" x="70.00" y="32.25">Goals and KPIs</text>
				</svg>
			</svg>
		</svg>
	</svg>
	<svg height="100.00" id="node25" width="200.00" x="403.50" y="538.00">
		<svg height="32.00" width="138.00" x="31.00" y="34.00">
			<path d="M2.00 16.00L2.00 11.00 C2.00 6.03 6.03 2.00 11.00 2.00 L127.00 2.00 C131.97 2.00 136.00 6.03 136.00 11.00 L136.00 21.00 C136.00 25.97 131.97 30.00 127.00 30.00 C127.00 30.00 127.00 30.00 127.00 30.00 L11.00 30.00 C6.03 30.00 2.00 25.97 2.00 21.00 ZM2.00 16.00" fill="#000000" fill-opacity="0.00" />
			<svg height="32.00" width="138.00" x="0.00" y="0.00">
				<svg height="22.00" width="128.00" x="5.00" y="5.00">
					<text dominant-baseline="middle" fill="#000000" fill-opacity="1.00" font-family="Verdana" font-size="14.00" font-weight="normal" text-anchor="middle" x="64.00" y="11.00">Prioritise Features</text>
				</svg>
			</svg>
		</svg>
	</svg>
	<svg height="100.00" id="node23" width="200.00" x="403.50" y="489.00">
		<svg height="53.00" width="146.00" x="27.00" y="23.50">
			<path d="M2.00 26.50L2.00 11.00 C2.00 6.03 6.03 2.00 11.00 2.00 L135.00 2.00 C139.97 2.00 144.00 6.03 144.00 11.00 L144.00 42.00 C144.00 46.97 139.97 51.00 135.00 51.00 C135.00 51.00 135.00 51.00 135.00 51.00 L11.00 51.00 C6.03 51.00 2.00 46.97 2.00 42.00 ZM2.00 26.50" fill="#000000" fill-opacity="0.00" />
			<svg height="53.00" width="146.00" x="0.00" y="0.00">
				<svg height="43.00" width="136.00" x="5.00" y="5.00">
					<text dominant-baseline="middle" fill="#000000" fill-opacity="1.00" font-family="Verdana" font-size="14.00" font-weight="normal" text-anchor="middle" x="68.00" y="10.75">Document Decisión</text>
					<text dominant-baseline="middle" fill="#000000" fill-opacity="1.00" font-family="Verdana" font-size="14.00" font-weight="normal" text-anchor="middle" x="68.00" y="32.25">finding process</text>
				</svg>
			</svg>
		</svg>
	</svg>
	<a href="">
		<svg height="100.00" id="node8" width="200.00" x="189.50" y="50.00">
			<svg height="44.00" width="147.00" x="26.50" y="28.00">
				<path d="M2.00 22.00L2.00 11.00 C2.00 6.03 6.03 2.00 11.00 2.00 L136.00 2.00 C140.97 2.00 145.00 6.03 145.00 11.00 L145.00 33.00 C145.00 37.97 140.97 42.00 136.00 42.00 L11.00 42.00 C6.03 42.00 2.00 37.97 2.00 33.00 ZM2.00 22.00" fill="#ecf3f3" fill-opacity="1.00" />
				<svg height="44.00" width="147.00" x="0.00" y="0.00">
					<path d="M2.00 22.00L2.00 11.00 C2.00 6.03 6.03 2.00 11.00 2.00 L136.00 2.00 C140.97 2.00 145.00 6.03 145.00 11.00 L145.00 33.00 C145.00 37.97 140.97 42.00 136.00 42.00 L11.00 42.00 C6.03 42.00 2.00 37.97 2.00 33.00 ZM2.00 22.00" fill="none" stroke="#000000" stroke-opacity="1.00" stroke-width="1.50" />
					<svg height="30.00" width="133.00" x="7.00" y="7.00">
						<svg height="30.00" width="99.00" x="34.00" y="0.00">
							<svg height="30.00" width="99.00" x="0.00" y="0.00">
								<text dominant-baseline="middle" fill="#000000" fill-opacity="1.00" font-family="Verdana" font-size="14.00" font-weight="normal" text-anchor="middle" x="49.50" y="15.00">Concept Maps</text>
							</svg>
						</svg>
						<svg height="30.00" width="30.00" x="0.00" y="0.00">
							<svg x="0.00" y="-0.00">
								<path d="M22.17 2.61C22.17 1.17 21.00 0.00 19.57 0.00 L10.43 0.00 C9.00 0.00 7.83 1.17 7.83 2.61 L7.83 11.74 C7.83 13.17 9.00 14.35 10.43 14.35 L19.57 14.35 C21.00 14.35 22.17 13.17 22.17 11.74 L22.17 2.61 ZM30.00 18.26C30.00 16.83 28.83 15.65 27.39 15.65 L18.26 15.65 C16.83 15.65 15.65 16.83 15.65 18.26 L15.65 27.39 C15.65 28.83 16.83 30.00 18.26 30.00 L27.39 30.00 C28.83 30.00 30.00 28.83 30.00 27.39 L30.00 18.26 ZM23.96 23.74C23.90 24.38 23.75 24.76 23.11 24.83 C21.73 25.02 21.68 23.86 21.70 22.45 C21.74 21.37 22.06 20.67 23.13 20.82 C23.78 20.91 23.91 21.30 23.97 21.95 L25.49 21.95 L25.50 21.94 C25.33 20.30 24.38 19.55 23.01 19.50 C21.38 19.45 20.11 20.45 20.15 23.10 C20.18 24.85 21.09 26.15 22.85 26.15 C24.29 26.15 25.32 25.46 25.49 23.75 L25.49 23.74 L23.96 23.74 ZM18.07 10.43L18.09 10.38 L15.68 3.91 L14.30 3.91 L11.90 10.38 L11.92 10.43 L13.53 10.43 L13.96 9.14 L16.03 9.14 L16.47 10.43 L18.07 10.43 ZM15.60 7.85L14.39 7.85 L14.99 6.03 L15.60 7.85 ZM14.35 18.26C14.35 16.83 13.17 15.65 11.74 15.65 L2.61 15.65 C1.17 15.65 0.00 16.83 0.00 18.26 L0.00 27.39 C0.00 28.83 1.17 30.00 2.61 30.00 L11.74 30.00 C13.17 30.00 14.35 28.83 14.35 27.39 L14.35 18.26 ZM7.28 26.09C8.60 26.06 9.57 25.55 9.63 24.23 C9.65 23.47 9.31 22.96 8.79 22.72 C9.25 22.42 9.51 21.95 9.48 21.30 C9.43 20.05 8.43 19.62 7.19 19.57 C6.37 19.57 5.54 19.57 4.72 19.57 L4.72 26.09 L7.28 26.09 ZM6.26 23.36L6.26 24.80 L7.29 24.80 C7.83 24.77 8.11 24.52 8.09 24.01 C8.06 23.57 7.81 23.39 7.37 23.36 L6.26 23.36 ZM6.26 20.87L6.26 22.19 L7.15 22.19 C7.70 22.16 8.01 21.97 7.93 21.40 C7.90 21.12 7.76 20.88 7.11 20.87 L6.26 20.87 ZM6.26 20.87" fill="#000000" fill-opacity="1.00" fill-rule="evenodd" />
							</svg>
							<svg height="30.00" width="30.00" x="0.00" y="0.00" />
						</svg>
					</svg>
				</svg>
			</svg>
		</svg>
	</a>
	<svg height="100.00" id="node14" width="200.00" x="189.50" y="588.00">
		<svg height="44.00" width="78.00" x="61.00" y="28.00">
			<path d="M2.00 22.00L2.00 11.00 C2.00 6.03 6.03 2.00 11.00 2.00 L67.00 2.00 C71.97 2.00 76.00 6.03 76.00 11.00 L76.00 33.00 C76.00 37.97 71.97 42.00 67.00 42.00 C67.00 42.00 67.00 42.00 67.00 42.00 L11.00 42.00 C6.03 42.00 2.00 37.97 2.00 33.00 ZM2.00 22.00" fill="#ecf3f3" fill-opacity="1.00" />
			<svg height="44.00" width="78.00" x="0.00" y="0.00">
				<path d="M2.00 22.00L2.00 11.00 C2.00 6.03 6.03 2.00 11.00 2.00 L67.00 2.00 C71.97 2.00 76.00 6.03 76.00 11.00 L76.00 33.00 C76.00 37.97 71.97 42.00 67.00 42.00 C67.00 42.00 67.00 42.00 67.00 42.00 L11.00 42.00 C6.03 42.00 2.00 37.97 2.00 33.00 ZM2.00 22.00" fill="none" stroke="#000000" stroke-opacity="1.00" stroke-width="1.50" />
				<svg height="30.00" width="64.00" x="7.00" y="7.00">
					<svg height="30.00" width="30.00" x="34.00" y="0.00">
						<svg height="30.00" width="30.00" x="0.00" y="0.00">
							<text dominant-baseline="middle" fill="#000000" fill-opacity="1.00" font-family="Verdana" font-size="14.00" font-weight="normal" text-anchor="middle" x="15.00" y="15.00">BBS</text>
						</svg>
					</svg>
					<svg height="30.00" width="30.00" x="0.00" y="0.00">
						<svg x="0.00" y="-0.00">
							<path d="M22.17 2.61C22.17 1.17 21.00 0.00 19.57 0.00 L10.43 0.00 C9.00 0.00 7.83 1.17 7.83 2.61 L7.83 11.74 C7.83 13.17 9.00 14.35 10.43 14.35 L19.57 14.35 C21.00 14.35 22.17 13.17 22.17 11.74 L22.17 2.61 ZM30.00 18.26C30.00 16.83 28.83 15.65 27.39 15.65 L18.26 15.65 C16.83 15.65 15.65 16.83 15.65 18.26 L15.65 27.39 C15.65 28.83 16.83 30.00 18.26 30.00 L27.39 30.00 C28.83 30.00 30.00 28.83 30.00 27.39 L30.00 18.26 ZM23.96 23.74C23.90 24.38 23.75 24.76 23.11 24.83 C21.73 25.02 21.68 23.86 21.70 22.45 C21.74 21.37 22.06 20.67 23.13 20.82 C23.78 20.91 23.91 21.30 23.97 21.95 L25.49 21.95 L25.50 21.94 C25.33 20.30 24.38 19.55 23.01 19.50 C21.38 19.45 20.11 20.45 20.15 23.10 C20.18 24.85 21.09 26.15 22.85 26.15 C24.29 26.15 25.32 25.46 25.49 23.75 L25.49 23.74 L23.96 23.74 ZM18.07 10.43L18.09 10.38 L15.68 3.91 L14.30 3.91 L11.90 10.38 L11.92 10.43 L13.53 10.43 L13.96 9.14 L16.03 9.14 L16.47 10.43 L18.07 10.43 ZM15.60 7.85L14.39 7.85 L14.99 6.03 L15.60 7.85 ZM14.35 18.26C14.35 16.83 13.17 15.65 11.74 15.65 L2.61 15.65 C1.17 15.65 0.00 16.83 0.00 18.26 L0.00 27.39 C0.00 28.83 1.17 30.00 2.61 30.00 L11.74 30.00 C13.17 30.00 14.35 28.83 14.35 27.39 L14.35 18.26 ZM7.28 26.09C8.60 26.06 9.57 25.55 9.63 24.23 C9.65 23.47 9.31 22.96 8.79 22.72 C9.25 22.42 9.51 21.95 9.48 21.30 C9.43 20.05 8.43 19.62 7.19 19.57 C6.37 19.57 5.54 19.57 4.72 19.57 L4.72 26.09 L7.28 26.09 ZM6.26 23.36L6.26 24.80 L7.29 24.80 C7.83 24.77 8.11 24.52 8.09 24.01 C8.06 23.57 7.81 23.39 7.37 23.36 L6.26 23.36 ZM6.26 20.87L6.26 22.19 L7.15 22.19 C7.70 22.16 8.01 21.97 7.93 21.40 C7.90 21.12 7.76 20.88 7.11 20.87 L6.26 20.87 ZM6.26 20.87" fill="#000000" fill-opacity="1.00" fill-rule="evenodd" />
						</svg>
						<svg height="30.00" width="30.00" x="0.00" y="0.00" />
					</svg>
				</svg>
			</svg>
		</svg>
	</svg>
	<svg height="100.00" id="node15" width="200.00" x="189.50" y="538.00">
		<svg height="44.00" width="132.00" x="34.00" y="28.00">
			<path d="M2.00 22.00L2.00 11.00 C2.00 6.03 6.03 2.00 11.00 2.00 L121.00 2.00 C125.97 2.00 130.00 6.03 130.00 11.00 L130.00 33.00 C130.00 37.97 125.97 42.00 121.00 42.00 C121.00 42.00 121.00 42.00 121.00 42.00 L11.00 42.00 C6.03 42.00 2.00 37.97 2.00 33.00 ZM2.00 22.00" fill="#ecf3f3" fill-opacity="1.00" />
			<svg height="44.00" width="132.00" x="0.00" y="0.00">
				<path d="M2.00 22.00L2.00 11.00 C2.00 6.03 6.03 2.00 11.00 2.00 L121.00 2.00 C125.97 2.00 130.00 6.03 130.00 11.00 L130.00 33.00 C130.00 37.97 125.97 42.00 121.00 42.00 C121.00 42.00 121.00 42.00 121.00 42.00 L11.00 42.00 C6.03 42.00 2.00 37.97 2.00 33.00 ZM2.00 22.00" fill="none" stroke="#000000" stroke-opacity="1.00" stroke-width="1.50" />
				<svg height="30.00" width="118.00" x="7.00" y="7.00">
					<svg height="30.00" width="84.00" x="34.00" y="0.00">
						<svg height="30.00" width="84.00" x="0.00" y="0.00">
							<text dominant-baseline="middle" fill="#000000" fill-opacity="1.00" font-family="Verdana" font-size="14.00" font-weight="normal" text-anchor="middle" x="42.00" y="15.00">Impact Map</text>
						</svg>
					</svg>
					<svg height="30.00" width="30.00" x="0.00" y="0.00">
						<svg x="0.00" y="-0.00">
							<path d="M22.17 2.61C22.17 1.17 21.00 0.00 19.57 0.00 L10.43 0.00 C9.00 0.00 7.83 1.17 7.83 2.61 L7.83 11.74 C7.83 13.17 9.00 14.35 10.43 14.35 L19.57 14.35 C21.00 14.35 22.17 13.17 22.17 11.74 L22.17 2.61 ZM30.00 18.26C30.00 16.83 28.83 15.65 27.39 15.65 L18.26 15.65 C16.83 15.65 15.65 16.83 15.65 18.26 L15.65 27.39 C15.65 28.83 16.83 30.00 18.26 30.00 L27.39 30.00 C28.83 30.00 30.00 28.83 30.00 27.39 L30.00 18.26 ZM23.96 23.74C23.90 24.38 23.75 24.76 23.11 24.83 C21.73 25.02 21.68 23.86 21.70 22.45 C21.74 21.37 22.06 20.67 23.13 20.82 C23.78 20.91 23.91 21.30 23.97 21.95 L25.49 21.95 L25.50 21.94 C25.33 20.30 24.38 19.55 23.01 19.50 C21.38 19.45 20.11 20.45 20.15 23.10 C20.18 24.85 21.09 26.15 22.85 26.15 C24.29 26.15 25.32 25.46 25.49 23.75 L25.49 23.74 L23.96 23.74 ZM18.07 10.43L18.09 10.38 L15.68 3.91 L14.30 3.91 L11.90 10.38 L11.92 10.43 L13.53 10.43 L13.96 9.14 L16.03 9.14 L16.47 10.43 L18.07 10.43 ZM15.60 7.85L14.39 7.85 L14.99 6.03 L15.60 7.85 ZM14.35 18.26C14.35 16.83 13.17 15.65 11.74 15.65 L2.61 15.65 C1.17 15.65 0.00 16.83 0.00 18.26 L0.00 27.39 C0.00 28.83 1.17 30.00 2.61 30.00 L11.74 30.00 C13.17 30.00 14.35 28.83 14.35 27.39 L14.35 18.26 ZM7.28 26.09C8.60 26.06 9.57 25.55 9.63 24.23 C9.65 23.47 9.31 22.96 8.79 22.72 C9.25 22.42 9.51 21.95 9.48 21.30 C9.43 20.05 8.43 19.62 7.19 19.57 C6.37 19.57 5.54 19.57 4.72 19.57 L4.72 26.09 L7.28 26.09 ZM6.26 23.36L6.26 24.80 L7.29 24.80 C7.83 24.77 8.11 24.52 8.09 24.01 C8.06 23.57 7.81 23.39 7.37 23.36 L6.26 23.36 ZM6.26 20.87L6.26 22.19 L7.15 22.19 C7.70 22.16 8.01 21.97 7.93 21.40 C7.90 21.12 7.76 20.88 7.11 20.87 L6.26 20.87 ZM6.26 20.87" fill="#000000" fill-opacity="1.00" fill-rule="evenodd" />
						</svg>
						<svg height="30.00" width="30.00" x="0.00" y="0.00" />
					</svg>
				</svg>
			</svg>
		</svg>
	</svg>
	<svg height="22.73" id="edgeLine6" width="63.62" x="155.49" y="499.73">
		<path d="M8.75 5.54C16.07 7.90 23.43 10.18 30.51 12.27 C37.84 14.43 45.49 16.58 53.16 18.65 " fill="none" stroke="#000000" stroke-opacity="1.00" stroke-width="1.50" />
		<svg height="7.73" id="edgeHead6" width="10.69" x="52.93" y="15.00">
			<path d="M1.29 2.90L1.29 2.90 L2.06 -0.00 L10.69 6.44 L0.00 7.73 L0.77 4.83 L0.77 4.83 ZM1.29 2.90" fill="#000000" fill-opacity="1.00" />
		</svg>
		<svg height="8.00" id="edgeTail6" width="8.00" x="0.00" y="-0.00">
			<path d="M6.83 6.83C8.39 5.27 8.39 2.73 6.83 1.17 C5.27 -0.39 2.73 -0.39 1.17 1.17 C-0.39 2.73 -0.39 5.27 1.17 6.83 C2.73 8.39 5.27 8.39 6.83 6.83 " fill="#000000" fill-opacity="1.00" />
		</svg>
	</svg>
	<svg height="8.00" id="edgeLine18" width="103.62" x="326.94" y="634.00">
		<path d="M8.65 4.00C33.12 4.00 64.13 4.00 92.77 4.00 " fill="none" stroke="#000000" stroke-opacity="1.00" stroke-width="1.50" />
		<svg height="8.00" id="edgeHead18" width="10.00" x="93.62" y="0.00">
			<path d="M0.00 3.00L0.00 3.00 L0.00 0.00 L10.00 4.00 L0.00 8.00 L0.00 5.00 L0.00 5.00 ZM0.00 3.00" fill="#000000" fill-opacity="1.00" />
		</svg>
		<svg height="8.00" id="edgeTail18" width="8.00" x="0.00" y="0.00">
			<path d="M6.83 6.83C8.39 5.27 8.39 2.73 6.83 1.17 C5.27 -0.39 2.73 -0.39 1.17 1.17 C-0.39 2.73 -0.39 5.27 1.17 6.83 C2.73 8.39 5.27 8.39 6.83 6.83 " fill="#000000" fill-opacity="1.00" />
		</svg>
	</svg>
	<svg height="8.00" id="edgeLine21" width="55.36" x="177.38" y="478.00">
		<path d="M8.78 4.00C20.80 4.00 32.97 4.00 44.51 4.00 " fill="none" stroke="#000000" stroke-opacity="1.00" stroke-width="1.50" />
		<svg height="8.00" id="edgeHead21" width="10.00" x="45.36" y="0.00">
			<path d="M0.00 3.00L0.00 3.00 L0.00 0.00 L10.00 4.00 L0.00 8.00 L0.00 5.00 L0.00 5.00 ZM0.00 3.00" fill="#000000" fill-opacity="1.00" />
		</svg>
		<svg height="8.00" id="edgeTail21" width="8.00" x="0.00" y="0.00">
			<path d="M6.83 6.83C8.39 5.27 8.39 2.73 6.83 1.17 C5.27 -0.39 2.73 -0.39 1.17 1.17 C-0.39 2.73 -0.39 5.27 1.17 6.83 C2.73 8.39 5.27 8.39 6.83 6.83 " fill="#000000" fill-opacity="1.00" />
		</svg>
	</svg>
	<svg height="112.51" id="edgeLine20" width="95.44" x="103.57" y="349.56">
		<path d="M6.17 104.05C20.55 75.28 46.70 31.65 82.43 7.44 C83.58 6.66 84.76 5.90 85.95 5.17 " fill="none" stroke="#000000" stroke-opacity="1.00" stroke-width="1.50" />
		<svg height="8.30" id="edgeHead20" width="10.70" x="84.74" y="0.00">
			<path d="M1.43 3.91L1.43 3.91 L0.00 1.27 L10.70 0.00 L3.83 8.30 L2.39 5.67 L2.39 5.67 ZM1.43 3.91" fill="#000000" fill-opacity="1.00" />
		</svg>
		<svg height="8.00" id="edgeTail20" width="8.00" x="0.00" y="104.51">
			<path d="M6.83 6.83C8.39 5.27 8.39 2.73 6.83 1.17 C5.27 -0.39 2.73 -0.39 1.17 1.17 C-0.39 2.73 -0.39 5.27 1.17 6.83 C2.73 8.39 5.27 8.39 6.83 6.83 " fill="#000000" fill-opacity="1.00" />
		</svg>
	</svg>
	<svg height="8.66" id="edgeLine26" width="83.71" x="346.48" y="476.78">
		<path d="M8.90 4.61C29.04 4.42 51.53 4.21 72.75 4.01 " fill="none" stroke="#000000" stroke-opacity="1.00" stroke-width="1.50" />
		<svg height="8.00" id="edgeHead26" width="10.04" x="73.67" y="0.00">
			<path d="M0.03 3.00L0.03 3.00 L0.00 0.00 L10.04 3.91 L0.08 8.00 L0.05 5.00 L0.05 5.00 ZM0.03 3.00" fill="#000000" fill-opacity="1.00" />
		</svg>
		<svg height="8.00" id="edgeTail26" width="8.00" x="0.00" y="0.66">
			<path d="M6.83 6.83C8.39 5.27 8.39 2.73 6.83 1.17 C5.27 -0.39 2.73 -0.39 1.17 1.17 C-0.39 2.73 -0.39 5.27 1.17 6.83 C2.73 8.39 5.27 8.39 6.83 6.83 " fill="#000000" fill-opacity="1.00" />
		</svg>
	</svg>
	<svg height="43.58" id="edgeLine3" width="96.44" x="144.51" y="168.06">
		<path d="M8.42 5.89C32.96 16.40 61.75 28.73 86.48 39.31 " fill="none" stroke="#000000" stroke-opacity="1.00" stroke-width="1.50" />
		<svg height="7.61" id="edgeHead3" width="10.77" x="85.67" y="35.97">
			<path d="M1.97 2.75L1.97 2.75 L3.15 -0.00 L10.77 7.61 L0.00 7.35 L1.18 4.59 L1.18 4.59 ZM1.97 2.75" fill="#000000" fill-opacity="1.00" />
		</svg>
		<svg height="8.00" id="edgeTail3" width="8.00" x="0.00" y="-0.00">
			<path d="M6.83 6.83C8.39 5.27 8.39 2.73 6.83 1.17 C5.27 -0.39 2.73 -0.39 1.17 1.17 C-0.39 2.73 -0.39 5.27 1.17 6.83 C2.73 8.39 5.27 8.39 6.83 6.83 " fill="#000000" fill-opacity="1.00" />
		</svg>
	</svg>
	<svg height="17.04" id="edgeLine2" width="48.87" x="168.69" y="115.51">
		<path d="M8.80 11.74C11.67 10.98 14.51 10.22 17.31 9.49 C24.15 7.69 31.26 5.87 38.41 4.07 " fill="none" stroke="#000000" stroke-opacity="1.00" stroke-width="1.50" />
		<svg height="7.76" id="edgeHead2" width="10.67" x="38.20" y="-0.00">
			<path d="M0.73 2.91L0.73 2.91 L0.00 -0.00 L10.67 1.45 L1.94 7.76 L1.21 4.85 L1.21 4.85 ZM0.73 2.91" fill="#000000" fill-opacity="1.00" />
		</svg>
		<svg height="8.00" id="edgeTail2" width="8.00" x="0.00" y="9.04">
			<path d="M6.83 6.83C8.39 5.27 8.39 2.73 6.83 1.17 C5.27 -0.39 2.73 -0.39 1.17 1.17 C-0.39 2.73 -0.39 5.27 1.17 6.83 C2.73 8.39 5.27 8.39 6.83 6.83 " fill="#000000" fill-opacity="1.00" />
		</svg>
	</svg>
	<svg height="8.27" id="edgeLine17" width="72.28" x="359.92" y="534.35">
		<path d="M8.81 4.02C26.03 4.10 44.31 4.19 61.64 4.27 " fill="none" stroke="#000000" stroke-opacity="1.00" stroke-width="1.50" />
		<svg height="8.00" id="edgeHead17" width="10.02" x="62.27" y="0.27">
			<path d="M0.02 3.00L0.02 3.00 L0.04 0.00 L10.02 4.05 L0.00 8.00 L0.01 5.00 L0.01 5.00 ZM0.02 3.00" fill="#000000" fill-opacity="1.00" />
		</svg>
		<svg height="8.00" id="edgeTail17" width="8.00" x="0.00" y="-0.00">
			<path d="M6.83 6.83C8.39 5.27 8.39 2.73 6.83 1.17 C5.27 -0.39 2.73 -0.39 1.17 1.17 C-0.39 2.73 -0.39 5.27 1.17 6.83 C2.73 8.39 5.27 8.39 6.83 6.83 " fill="#000000" fill-opacity="1.00" />
		</svg>
	</svg>
	<svg height="92.66" id="edgeLine4" width="89.27" x="106.43" y="169.72">
		<path d="M6.58 8.17C22.11 32.72 47.95 67.54 79.57 87.28 C79.67 87.34 79.77 87.40 79.86 87.46 " fill="none" stroke="#000000" stroke-opacity="1.00" stroke-width="1.50" />
		<svg height="8.34" id="edgeHead4" width="10.69" x="78.59" y="84.32">
			<path d="M2.42 2.63L2.42 2.63 L3.87 0.00 L10.69 8.34 L0.00 7.01 L1.45 4.38 L1.45 4.38 ZM2.42 2.63" fill="#000000" fill-opacity="1.00" />
		</svg>
		<svg height="8.00" id="edgeTail4" width="8.00" x="0.00" y="0.00">
			<path d="M6.83 6.83C8.39 5.27 8.39 2.73 6.83 1.17 C5.27 -0.39 2.73 -0.39 1.17 1.17 C-0.39 2.73 -0.39 5.27 1.17 6.83 C2.73 8.39 5.27 8.39 6.83 6.83 " fill="#000000" fill-opacity="1.00" />
		</svg>
	</svg>
	<svg height="8.00" id="edgeLine14" width="63.35" x="376.73" y="228.00">
		<path d="M8.75 4.00C23.50 4.00 38.54 4.00 52.70 4.00 " fill="none" stroke="#000000" stroke-opacity="1.00" stroke-width="1.50" />
		<svg height="8.00" id="edgeHead14" width="10.00" x="53.35" y="0.00">
			<path d="M0.00 3.00L0.00 3.00 L0.00 0.00 L10.00 4.00 L0.00 8.00 L0.00 5.00 L0.00 5.00 ZM0.00 3.00" fill="#000000" fill-opacity="1.00" />
		</svg>
		<svg height="8.00" id="edgeTail14" width="8.00" x="0.00" y="0.00">
			<path d="M6.83 6.83C8.39 5.27 8.39 2.73 6.83 1.17 C5.27 -0.39 2.73 -0.39 1.17 1.17 C-0.39 2.73 -0.39 5.27 1.17 6.83 C2.73 8.39 5.27 8.39 6.83 6.83 " fill="#000000" fill-opacity="1.00" />
		</svg>
	</svg>
	<svg height="8.00" id="edgeLine16" width="14.45" x="387.19" y="46.00">
		<path d="M8.58 4.00C8.70 4.00 8.82 4.00 8.95 4.00 " fill="none" stroke="#000000" stroke-opacity="1.00" stroke-width="1.50" />
		<svg height="8.00" id="edgeHead16" width="10.00" x="4.45" y="0.00">
			<path d="M0.00 3.00L0.00 3.00 L0.00 0.00 L10.00 4.00 L0.00 8.00 L0.00 5.00 L0.00 5.00 ZM0.00 3.00" fill="#000000" fill-opacity="1.00" />
		</svg>
		<svg height="8.00" id="edgeTail16" width="8.00" x="0.00" y="0.00">
			<path d="M6.83 6.83C8.39 5.27 8.39 2.73 6.83 1.17 C5.27 -0.39 2.73 -0.39 1.17 1.17 C-0.39 2.73 -0.39 5.27 1.17 6.83 C2.73 8.39 5.27 8.39 6.83 6.83 " fill="#000000" fill-opacity="1.00" />
		</svg>
	</svg>
	<svg height="60.54" id="edgeLine11" width="81.44" x="114.41" y="70.45">
		<path d="M7.45 53.11C22.50 38.43 42.93 20.70 71.78 5.02 " fill="none" stroke="#000000" stroke-opacity="1.00" stroke-width="1.50" />
		<svg height="8.16" id="edgeHead11" width="10.72" x="70.72" y="0.00">
			<path d="M1.38 3.72L1.38 3.72 L0.00 1.06 L10.72 0.00 L3.68 8.16 L2.30 5.50 L2.30 5.50 ZM1.38 3.72" fill="#000000" fill-opacity="1.00" />
		</svg>
		<svg height="8.00" id="edgeTail11" width="8.00" x="-0.00" y="52.54">
			<path d="M6.83 6.83C8.39 5.27 8.39 2.73 6.83 1.17 C5.27 -0.39 2.73 -0.39 1.17 1.17 C-0.39 2.73 -0.39 5.27 1.17 6.83 C2.73 8.39 5.27 8.39 6.83 6.83 " fill="#000000" fill-opacity="1.00" />
		</svg>
	</svg>
	<svg height="8.00" id="edgeLine1" width="81.76" x="169.40" y="146.00">
		<path d="M8.90 4.00C29.98 4.00 52.03 4.00 70.82 4.00 " fill="none" stroke="#000000" stroke-opacity="1.00" stroke-width="1.50" />
		<svg height="8.00" id="edgeHead1" width="10.00" x="71.76" y="0.00">
			<path d="M0.00 3.00L0.00 3.00 L0.00 0.00 L10.00 4.00 L0.00 8.00 L0.00 5.00 L0.00 5.00 ZM0.00 3.00" fill="#000000" fill-opacity="1.00" />
		</svg>
		<svg height="8.00" id="edgeTail1" width="8.00" x="0.00" y="0.00">
			<path d="M6.83 6.83C8.39 5.27 8.39 2.73 6.83 1.17 C5.27 -0.39 2.73 -0.39 1.17 1.17 C-0.39 2.73 -0.39 5.27 1.17 6.83 C2.73 8.39 5.27 8.39 6.83 6.83 " fill="#000000" fill-opacity="1.00" />
		</svg>
	</svg>
	<svg height="16.06" id="edgeLine5" width="44.99" x="168.69" y="448.49">
		<path d="M8.80 10.76C11.67 10.00 14.51 9.24 17.31 8.51 C22.90 7.04 28.67 5.56 34.49 4.08 " fill="none" stroke="#000000" stroke-opacity="1.00" stroke-width="1.50" />
		<svg height="7.76" id="edgeHead5" width="10.67" x="34.32" y="-0.00">
			<path d="M0.73 2.91L0.73 2.91 L0.00 0.00 L10.67 1.44 L1.95 7.76 L1.22 4.85 L1.22 4.85 ZM0.73 2.91" fill="#000000" fill-opacity="1.00" />
		</svg>
		<svg height="8.00" id="edgeTail5" width="8.00" x="0.00" y="8.06">
			<path d="M6.83 6.83C8.39 5.27 8.39 2.73 6.83 1.17 C5.27 -0.39 2.73 -0.39 1.17 1.17 C-0.39 2.73 -0.39 5.27 1.17 6.83 C2.73 8.39 5.27 8.39 6.83 6.83 " fill="#000000" fill-opacity="1.00" />
		</svg>
	</svg>
	<svg height="8.24" id="edgeLine25" width="64.26" x="365.24" y="427.39">
		<path d="M8.90 4.22C23.62 4.15 38.94 4.08 53.66 4.01 " fill="none" stroke="#000000" stroke-opacity="1.00" stroke-width="1.50" />
		<svg height="8.00" id="edgeHead25" width="10.02" x="54.24" y="0.00">
			<path d="M0.01 3.00L0.01 3.00 L0.00 0.00 L10.02 3.95 L0.04 8.00 L0.02 5.00 L0.02 5.00 ZM0.01 3.00" fill="#000000" fill-opacity="1.00" />
		</svg>
		<svg height="8.00" id="edgeTail25" width="8.00" x="0.00" y="0.24">
			<path d="M6.83 6.83C8.39 5.27 8.39 2.73 6.83 1.17 C5.27 -0.39 2.73 -0.39 1.17 1.17 C-0.39 2.73 -0.39 5.27 1.17 6.83 C2.73 8.39 5.27 8.39 6.83 6.83 " fill="#000000" fill-opacity="1.00" />
		</svg>
	</svg>
	<svg height="8.00" id="edgeLine12" width="74.24" x="361.39" y="96.00">
		<path d="M8.81 4.00C26.66 4.00 45.57 4.00 63.34 4.00 " fill="none" stroke="#000000" stroke-opacity="1.00" stroke-width="1.50" />
		<svg height="8.00" id="edgeHead12" width="10.00" x="64.24" y="0.00">
			<path d="M0.00 3.00L0.00 3.00 L0.00 0.00 L10.00 4.00 L0.00 8.00 L0.00 5.00 L0.00 5.00 ZM0.00 3.00" fill="#000000" fill-opacity="1.00" />
		</svg>
		<svg height="8.00" id="edgeTail12" width="8.00" x="0.00" y="0.00">
			<path d="M6.83 6.83C8.39 5.27 8.39 2.73 6.83 1.17 C5.27 -0.39 2.73 -0.39 1.17 1.17 C-0.39 2.73 -0.39 5.27 1.17 6.83 C2.73 8.39 5.27 8.39 6.83 6.83 " fill="#000000" fill-opacity="1.00" />
		</svg>
	</svg>
	<svg height="8.00" id="edgeLine23" width="59.66" x="372.46" y="378.00">
		<path d="M8.84 4.00C22.12 4.00 35.74 4.00 48.82 4.00 " fill="none" stroke="#000000" stroke-opacity="1.00" stroke-width="1.50" />
		<svg height="8.00" id="edgeHead23" width="10.00" x="49.66" y="0.00">
			<path d="M0.00 3.00L0.00 3.00 L0.00 0.00 L10.00 4.00 L0.00 8.00 L0.00 5.00 L0.00 5.00 ZM0.00 3.00" fill="#000000" fill-opacity="1.00" />
		</svg>
		<svg height="8.00" id="edgeTail23" width="8.00" x="0.00" y="0.00">
			<path d="M6.83 6.83C8.39 5.27 8.39 2.73 6.83 1.17 C5.27 -0.39 2.73 -0.39 1.17 1.17 C-0.39 2.73 -0.39 5.27 1.17 6.83 C2.73 8.39 5.27 8.39 6.83 6.83 " fill="#000000" fill-opacity="1.00" />
		</svg>
	</svg>
	<svg height="64.87" id="edgeLine22" width="92.27" x="114.41" y="398.12">
		<path d="M7.45 57.44C24.13 41.17 47.42 21.16 71.59 8.89 C74.96 7.18 78.45 5.58 82.03 4.09 " fill="none" stroke="#000000" stroke-opacity="1.00" stroke-width="1.50" />
		<svg height="7.47" id="edgeHead22" width="10.77" x="81.50" y="0.00">
			<path d="M1.07 2.80L1.07 2.80 L0.00 -0.00 L10.77 0.16 L2.86 7.47 L1.79 4.67 L1.79 4.67 ZM1.07 2.80" fill="#000000" fill-opacity="1.00" />
		</svg>
		<svg height="8.00" id="edgeTail22" width="8.00" x="0.00" y="56.87">
			<path d="M6.83 6.83C8.39 5.27 8.39 2.73 6.83 1.17 C5.27 -0.39 2.73 -0.39 1.17 1.17 C-0.39 2.73 -0.39 5.27 1.17 6.83 C2.73 8.39 5.27 8.39 6.83 6.83 " fill="#000000" fill-opacity="1.00" />
		</svg>
	</svg>
	<svg height="8.00" id="edgeLine15" width="58.13" x="383.49" y="278.00">
		<path d="M8.80 4.00C21.85 4.00 34.98 4.00 47.41 4.00 " fill="none" stroke="#000000" stroke-opacity="1.00" stroke-width="1.50" />
		<svg height="8.00" id="edgeHead15" width="10.00" x="48.13" y="0.00">
			<path d="M0.00 3.00L0.00 3.00 L0.00 0.00 L10.00 4.00 L0.00 8.00 L0.00 5.00 L0.00 5.00 ZM0.00 3.00" fill="#000000" fill-opacity="1.00" />
		</svg>
		<svg height="8.00" id="edgeTail15" width="8.00" x="0.00" y="0.00">
			<path d="M6.83 6.83C8.39 5.27 8.39 2.73 6.83 1.17 C5.27 -0.39 2.73 -0.39 1.17 1.17 C-0.39 2.73 -0.39 5.27 1.17 6.83 C2.73 8.39 5.27 8.39 6.83 6.83 " fill="#000000" fill-opacity="1.00" />
		</svg>
	</svg>
	<svg height="8.00" id="edgeLine13" width="109.69" x="327.91" y="146.00">
		<path d="M8.85 4.00C35.16 4.00 68.75 4.00 98.80 4.00 " fill="none" stroke="#000000" stroke-opacity="1.00" stroke-width="1.50" />
		<svg height="8.00" id="edgeHead13" width="10.00" x="99.69" y="0.00">
			<path d="M0.00 3.00L0.00 3.00 L0.00 0.00 L10.00 4.00 L0.00 8.00 L0.00 5.00 L0.00 5.00 ZM0.00 3.00" fill="#000000" fill-opacity="1.00" />
		</svg>
		<svg height="8.00" id="edgeTail13" width="8.00" x="0.00" y="0.00">
			<path d="M6.83 6.83C8.39 5.27 8.39 2.73 6.83 1.17 C5.27 -0.39 2.73 -0.39 1.17 1.17 C-0.39 2.73 -0.39 5.27 1.17 6.83 C2.73 8.39 5.27 8.39 6.83 6.83 " fill="#000000" fill-opacity="1.00" />
		</svg>
	</svg>
	<svg height="8.00" id="edgeLine19" width="82.37" x="353.82" y="584.00">
		<path d="M8.98 4.00C29.14 4.00 51.11 4.00 71.53 4.00 " fill="none" stroke="#000000" stroke-opacity="1.00" stroke-width="1.50" />
		<svg height="8.00" id="edgeHead19" width="10.00" x="72.37" y="0.00">
			<path d="M0.00 3.00L0.00 3.00 L0.00 0.00 L10.00 4.00 L0.00 8.00 L0.00 5.00 L0.00 5.00 ZM0.00 3.00" fill="#000000" fill-opacity="1.00" />
		</svg>
		<svg height="8.00" id="edgeTail19" width="8.00" x="0.00" y="0.00">
			<path d="M6.83 6.83C8.39 5.27 8.39 2.73 6.83 1.17 C5.27 -0.39 2.73 -0.39 1.17 1.17 C-0.39 2.73 -0.39 5.27 1.17 6.83 C2.73 8.39 5.27 8.39 6.83 6.83 " fill="#000000" fill-opacity="1.00" />
		</svg>
	</svg>
	<svg height="8.00" id="edgeLine24" width="27.04" x="379.79" y="328.00">
		<path d="M8.84 4.00C11.30 4.00 13.77 4.00 16.24 4.00 " fill="none" stroke="#000000" stroke-opacity="1.00" stroke-width="1.50" />
		<svg height="8.00" id="edgeHead24" width="10.00" x="17.04" y="0.00">
			<path d="M0.00 3.00L0.00 3.00 L0.00 0.00 L10.00 4.00 L0.00 8.00 L0.00 5.00 L0.00 5.00 ZM0.00 3.00" fill="#000000" fill-opacity="1.00" />
		</svg>
		<svg height="8.00" id="edgeTail24" width="8.00" x="0.00" y="0.00">
			<path d="M6.83 6.83C8.39 5.27 8.39 2.73 6.83 1.17 C5.27 -0.39 2.73 -0.39 1.17 1.17 C-0.39 2.73 -0.39 5.27 1.17 6.83 C2.73 8.39 5.27 8.39 6.83 6.83 " fill="#000000" fill-opacity="1.00" />
		</svg>
	</svg>
	<svg height="77.46" id="edgeLine9" width="112.51" x="112.65" y="501.38">
		<path d="M7.08 7.40C23.70 25.30 47.72 48.00 73.35 61.63 C82.29 66.38 92.15 70.25 102.12 73.39 " fill="none" stroke="#000000" stroke-opacity="1.00" stroke-width="1.50" />
		<svg height="7.68" id="edgeHead9" width="10.72" x="101.79" y="69.78">
			<path d="M1.39 2.88L1.39 2.88 L2.23 -0.00 L10.72 6.63 L0.00 7.68 L0.84 4.80 L0.84 4.80 ZM1.39 2.88" fill="#000000" fill-opacity="1.00" />
		</svg>
		<svg height="8.00" id="edgeTail9" width="8.00" x="-0.00" y="0.00">
			<path d="M6.83 6.83C8.39 5.27 8.39 2.73 6.83 1.17 C5.27 -0.39 2.73 -0.39 1.17 1.17 C-0.39 2.73 -0.39 5.27 1.17 6.83 C2.73 8.39 5.27 8.39 6.83 6.83 " fill="#000000" fill-opacity="1.00" />
		</svg>
	</svg>
	<svg height="135.99" id="edgeLine8" width="149.42" x="102.76" y="501.97">
		<path d="M5.97 8.37C19.91 38.49 46.07 85.24 83.24 111.03 C99.46 122.29 120.21 128.50 138.78 131.92 " fill="none" stroke="#000000" stroke-opacity="1.00" stroke-width="1.50" />
		<svg height="7.90" id="edgeHead8" width="10.51" x="138.91" y="128.09">
			<path d="M0.79 2.96L0.79 2.96 L1.27 0.00 L10.51 5.53 L0.00 7.90 L0.48 4.94 L0.48 4.94 ZM0.79 2.96" fill="#000000" fill-opacity="1.00" />
		</svg>
		<svg height="8.00" id="edgeTail8" width="8.00" x="0.00" y="0.00">
			<path d="M6.83 6.83C8.39 5.27 8.39 2.73 6.83 1.17 C5.27 -0.39 2.73 -0.39 1.17 1.17 C-0.39 2.73 -0.39 5.27 1.17 6.83 C2.73 8.39 5.27 8.39 6.83 6.83 " fill="#000000" fill-opacity="1.00" />
		</svg>
	</svg>
</svg>