<?xml version="1.0" encoding="utf-8" standalone="no"?>
<svg version="1.1" viewBox="0.00 0.00 340.00 457.00" xmlns="http://www.w3.org/2000/svg">
	<svg height="100.00" id="node7" width="100.00" x="54.50" y="228.00">
		<svg height="68.00" width="100.00" x="0.00" y="16.00">
			<path d="M2.00 34.00L2.00 11.00 C2.00 6.03 6.03 2.00 11.00 2.00 L89.00 2.00 C93.97 2.00 98.00 6.03 98.00 11.00 L98.00 57.00 C98.00 61.97 93.97 66.00 89.00 66.00 L11.00 66.00 C6.03 66.00 2.00 61.97 2.00 57.00 ZM2.00 34.00" fill="#ffffff" fill-opacity="1.00" />
			<svg height="68.00" width="100.00" x="0.00" y="0.00">
				<path d="M2.75 21.75L2.75 10.25 C2.75 6.11 6.11 2.75 10.25 2.75 L89.75 2.75 C93.89 2.75 97.25 6.11 97.25 10.25 L97.25 21.75 L2.75 21.75 " fill="#a34753" fill-opacity="1.00" />
				<text dominant-baseline="middle" fill="#ffffff" fill-opacity="1.00" font-family="Verdana" font-size="11.00" font-weight="bold" text-anchor="middle" x="50.00" y="12.25">Undesirable Effect</text>
				<svg height="68.00" width="100.00" x="0.00" y="0.00">
					<path d="M2.00 34.00L2.00 11.00 C2.00 6.03 6.03 2.00 11.00 2.00 L89.00 2.00 C93.97 2.00 98.00 6.03 98.00 11.00 L98.00 57.00 C98.00 61.97 93.97 66.00 89.00 66.00 L11.00 66.00 C6.03 66.00 2.00 61.97 2.00 57.00 ZM2.00 34.00" fill="none" stroke="#000000" stroke-opacity="1.00" stroke-width="1.50" />
					<svg height="35.00" width="86.00" x="7.00" y="26.00">
						<svg height="35.00" width="86.00" x="0.00" y="0.00">
							<text dominant-baseline="middle" fill="#000000" fill-opacity="1.00" font-family="Verdana" font-size="14.00" font-weight="normal" text-anchor="middle" x="43.00" y="8.75">The</text>
							<text dominant-baseline="middle" fill="#000000" fill-opacity="1.00" font-family="Verdana" font-size="14.00" font-weight="normal" text-anchor="middle" x="43.00" y="26.25">problem is</text>
						</svg>
					</svg>
				</svg>
			</svg>
		</svg>
	</svg>
	<svg height="100.00" id="node5" width="100.00" x="138.50" y="144.00">
		<svg height="68.00" width="100.00" x="0.00" y="16.00">
			<path d="M2.00 34.00L2.00 11.00 C2.00 6.03 6.03 2.00 11.00 2.00 L89.00 2.00 C93.97 2.00 98.00 6.03 98.00 11.00 L98.00 57.00 C98.00 61.97 93.97 66.00 89.00 66.00 L11.00 66.00 C6.03 66.00 2.00 61.97 2.00 57.00 ZM2.00 34.00" fill="#ffffff" fill-opacity="1.00" />
			<svg height="68.00" width="100.00" x="0.00" y="0.00">
				<path d="M2.75 21.75L2.75 10.25 C2.75 6.11 6.11 2.75 10.25 2.75 L89.75 2.75 C93.89 2.75 97.25 6.11 97.25 10.25 L97.25 21.75 L2.75 21.75 " fill="#a7f253" fill-opacity="1.00" />
				<text dominant-baseline="middle" fill="#000000" fill-opacity="1.00" font-family="Verdana" font-size="11.00" font-weight="bold" text-anchor="middle" x="50.00" y="12.25">Desirable Effect</text>
				<svg height="68.00" width="100.00" x="0.00" y="0.00">
					<path d="M2.00 34.00L2.00 11.00 C2.00 6.03 6.03 2.00 11.00 2.00 L89.00 2.00 C93.97 2.00 98.00 6.03 98.00 11.00 L98.00 57.00 C98.00 61.97 93.97 66.00 89.00 66.00 L11.00 66.00 C6.03 66.00 2.00 61.97 2.00 57.00 ZM2.00 34.00" fill="none" stroke="#000000" stroke-opacity="1.00" stroke-width="1.50" />
					<svg height="35.00" width="86.00" x="7.00" y="26.00">
						<svg height="35.00" width="86.00" x="0.00" y="0.00">
							<text dominant-baseline="middle" fill="#000000" fill-opacity="1.00" font-family="Verdana" font-size="14.00" font-weight="normal" text-anchor="middle" x="43.00" y="8.75">A desirable</text>
							<text dominant-baseline="middle" fill="#000000" fill-opacity="1.00" font-family="Verdana" font-size="14.00" font-weight="normal" text-anchor="middle" x="43.00" y="26.25">effect is ...</text>
						</svg>
					</svg>
				</svg>
			</svg>
		</svg>
	</svg>
	<svg height="100.00" id="node2" width="100.00" x="96.50" y="-6.00">
		<svg height="32.00" width="32.00" x="34.00" y="34.00">
			<svg height="32.00" width="32.00" x="0.00" y="0.00">
				<svg x="0.00" y="-0.00">
					<path d="M6.57 13.27C6.57 13.27 6.64 13.51 6.75 13.85 C7.05 14.81 7.61 16.63 7.61 16.63 L5.40 16.63 C5.40 16.63 5.44 16.51 5.51 16.28 C5.59 16.05 5.67 15.77 5.77 15.44 L6.09 14.44 C6.20 14.11 6.28 13.84 6.36 13.61 C6.43 13.39 6.47 13.27 6.47 13.27 L6.57 13.27 L6.57 13.27 ZM19.37 11.55L17.68 11.55 L17.68 16.93 L17.57 16.93 L13.69 11.55 L12.21 11.55 L12.21 20.00 L13.91 20.00 L13.91 14.59 L14.01 14.59 L17.91 20.00 L19.37 20.00 L19.37 11.55 ZM26.49 13.72C26.92 14.20 27.13 14.88 27.13 15.75 C27.13 16.65 26.92 17.33 26.51 17.83 C26.08 18.31 25.48 18.55 24.69 18.55 L23.43 18.55 C23.43 18.55 23.43 18.41 23.43 18.13 C23.43 17.87 23.43 17.53 23.43 17.11 C23.43 16.69 23.43 16.24 23.43 15.77 C23.43 15.31 23.43 14.85 23.43 14.44 C23.43 14.01 23.43 13.67 23.43 13.40 C23.43 13.13 23.43 13.00 23.43 13.00 L24.69 13.00 C25.47 13.00 26.07 13.24 26.49 13.72 ZM24.97 11.53L21.65 11.53 L21.65 20.00 L24.97 20.00 C26.24 20.00 27.23 19.63 27.91 18.89 C28.60 18.15 28.95 17.09 28.95 15.72 C28.95 14.39 28.60 13.36 27.91 12.63 C27.21 11.91 26.24 11.53 24.97 11.53 ZM7.61 11.55L5.52 11.55 L2.60 20.00 L4.37 20.00 L5.03 17.95 L7.99 17.95 C7.99 17.95 8.03 18.05 8.09 18.25 C8.16 18.47 8.23 18.71 8.31 18.97 C8.40 19.24 8.47 19.48 8.53 19.69 C8.60 19.89 8.63 20.00 8.63 20.00 L10.55 20.00 L7.61 11.55 ZM32.00 16.00C32.00 24.84 24.84 32.00 16.00 32.00 C12.43 32.00 9.13 30.83 6.47 28.85 C2.55 25.93 0.00 21.27 0.00 16.00 C0.00 7.16 7.16 0.00 16.00 0.00 C24.84 0.00 32.00 7.16 32.00 16.00 ZM32.00 16.00" fill="#000000" fill-opacity="1.00" />
				</svg>
				<svg height="32.00" width="32.00" x="0.00" y="0.00" />
			</svg>
		</svg>
	</svg>
	<svg height="100.00" id="node4" width="100.00" x="96.50" y="60.00">
		<svg height="68.00" width="100.00" x="0.00" y="16.00">
			<path d="M2.00 34.00L2.00 11.00 C2.00 6.03 6.03 2.00 11.00 2.00 L89.00 2.00 C93.97 2.00 98.00 6.03 98.00 11.00 L98.00 57.00 C98.00 61.97 93.97 66.00 89.00 66.00 L11.00 66.00 C6.03 66.00 2.00 61.97 2.00 57.00 ZM2.00 34.00" fill="#ffffff" fill-opacity="1.00" />
			<svg height="68.00" width="100.00" x="0.00" y="0.00">
				<path d="M2.75 21.75L2.75 10.25 C2.75 6.11 6.11 2.75 10.25 2.75 L89.75 2.75 C93.89 2.75 97.25 6.11 97.25 10.25 L97.25 21.75 L2.75 21.75 " fill="#3d26ea" fill-opacity="1.00" />
				<text dominant-baseline="middle" fill="#ffffff" fill-opacity="1.00" font-family="Verdana" font-size="11.00" font-weight="bold" text-anchor="middle" x="50.00" y="12.25">Intermediate Effect</text>
				<svg height="68.00" width="100.00" x="0.00" y="0.00">
					<path d="M2.00 34.00L2.00 11.00 C2.00 6.03 6.03 2.00 11.00 2.00 L89.00 2.00 C93.97 2.00 98.00 6.03 98.00 11.00 L98.00 57.00 C98.00 61.97 93.97 66.00 89.00 66.00 L11.00 66.00 C6.03 66.00 2.00 61.97 2.00 57.00 ZM2.00 34.00" fill="none" stroke="#000000" stroke-opacity="1.00" stroke-width="1.50" />
					<svg height="35.00" width="86.00" x="7.00" y="26.00">
						<svg height="35.00" width="86.00" x="0.00" y="0.00">
							<text dominant-baseline="middle" fill="#000000" fill-opacity="1.00" font-family="Verdana" font-size="14.00" font-weight="normal" text-anchor="middle" x="43.00" y="8.75">An effect</text>
							<text dominant-baseline="middle" fill="#000000" fill-opacity="1.00" font-family="Verdana" font-size="14.00" font-weight="normal" text-anchor="middle" x="43.00" y="26.25">is ...</text>
						</svg>
					</svg>
				</svg>
			</svg>
		</svg>
	</svg>
	<svg height="100.00" id="node3" width="100.00" x="214.50" y="312.00">
		<svg height="51.00" width="55.50" x="22.00" y="24.50">
			<path d="M2.00 25.50L2.00 11.00 C2.00 6.03 6.03 2.00 11.00 2.00 L44.50 2.00 C49.47 2.00 53.50 6.03 53.50 11.00 L53.50 40.00 C53.50 44.97 49.47 49.00 44.50 49.00 L11.00 49.00 C6.03 49.00 2.00 44.97 2.00 40.00 ZM2.00 25.50" fill="#ffffff" fill-opacity="1.00" />
			<svg height="51.00" width="55.50" x="0.00" y="0.00">
				<path d="M2.75 21.75L2.75 10.25 C2.75 6.11 6.11 2.75 10.25 2.75 L45.25 2.75 C49.39 2.75 52.75 6.11 52.75 10.25 L52.75 21.75 L2.75 21.75 " fill="#3e354c" fill-opacity="1.00" />
				<text dominant-baseline="middle" fill="#ffffff" fill-opacity="1.00" font-family="Verdana" font-size="11.00" font-weight="bold" text-anchor="middle" x="27.75" y="12.25">Given</text>
				<svg height="51.00" width="55.50" x="0.00" y="0.00">
					<path d="M2.00 25.50L2.00 11.00 C2.00 6.03 6.03 2.00 11.00 2.00 L44.50 2.00 C49.47 2.00 53.50 6.03 53.50 11.00 L53.50 40.00 C53.50 44.97 49.47 49.00 44.50 49.00 L11.00 49.00 C6.03 49.00 2.00 44.97 2.00 40.00 ZM2.00 25.50" fill="none" stroke="#000000" stroke-opacity="1.00" stroke-width="1.50" />
					<svg height="18.00" width="41.50" x="7.00" y="26.00">
						<svg height="18.00" width="41.50" x="0.00" y="0.00">
							<text dominant-baseline="middle" fill="#000000" fill-opacity="1.00" font-family="Verdana" font-size="14.00" font-weight="normal" text-anchor="middle" x="20.75" y="9.00">Given</text>
						</svg>
					</svg>
				</svg>
			</svg>
		</svg>
	</svg>
	<svg height="100.00" id="node6" width="100.00" x="15.50" y="312.00">
		<svg height="68.00" width="65.50" x="17.00" y="16.00">
			<path d="M2.00 34.00L2.00 11.00 C2.00 6.03 6.03 2.00 11.00 2.00 L54.50 2.00 C59.47 2.00 63.50 6.03 63.50 11.00 L63.50 57.00 C63.50 61.97 59.47 66.00 54.50 66.00 L11.00 66.00 C6.03 66.00 2.00 61.97 2.00 57.00 ZM2.00 34.00" fill="#ffffff" fill-opacity="1.00" />
			<svg height="68.00" width="65.50" x="0.00" y="0.00">
				<path d="M2.75 21.75L2.75 10.25 C2.75 6.11 6.11 2.75 10.25 2.75 L55.25 2.75 C59.39 2.75 62.75 6.11 62.75 10.25 L62.75 21.75 L2.75 21.75 " fill="#8e96cc" fill-opacity="1.00" />
				<text dominant-baseline="middle" fill="#000000" fill-opacity="1.00" font-family="Verdana" font-size="11.00" font-weight="bold" text-anchor="middle" x="32.75" y="12.25">Injection</text>
				<svg height="68.00" width="65.50" x="0.00" y="0.00">
					<path d="M2.00 34.00L2.00 11.00 C2.00 6.03 6.03 2.00 11.00 2.00 L54.50 2.00 C59.47 2.00 63.50 6.03 63.50 11.00 L63.50 57.00 C63.50 61.97 59.47 66.00 54.50 66.00 L11.00 66.00 C6.03 66.00 2.00 61.97 2.00 57.00 ZM2.00 34.00" fill="none" stroke="#000000" stroke-opacity="1.00" stroke-width="1.50" />
					<svg height="35.00" width="51.50" x="7.00" y="26.00">
						<svg height="35.00" width="51.50" x="0.00" y="0.00">
							<text dominant-baseline="middle" fill="#000000" fill-opacity="1.00" font-family="Verdana" font-size="14.00" font-weight="normal" text-anchor="middle" x="25.75" y="8.75">I can</text>
							<text dominant-baseline="middle" fill="#000000" fill-opacity="1.00" font-family="Verdana" font-size="14.00" font-weight="normal" text-anchor="middle" x="25.75" y="26.25">change</text>
						</svg>
					</svg>
				</svg>
			</svg>
		</svg>
	</svg>
	<svg height="100.00" id="node1" width="100.00" x="15.50" y="378.00">
		<svg height="32.00" width="32.00" x="34.00" y="34.00">
			<svg height="32.00" width="32.00" x="0.00" y="0.00">
				<svg x="0.00" y="-0.00">
					<path d="M18.67 16.00L13.33 16.00 L13.33 0.00 L18.67 0.00 L18.67 16.00 ZM24.28 2.33L22.67 4.47 C26.64 6.79 29.33 11.08 29.33 16.00 C29.33 23.35 23.35 29.33 16.00 29.33 C8.65 29.33 2.67 23.35 2.67 16.00 C2.67 11.08 5.36 6.79 9.33 4.47 L7.72 2.33 C3.09 5.15 0.00 10.20 0.00 16.00 C0.00 24.84 7.16 32.00 16.00 32.00 C24.84 32.00 32.00 24.84 32.00 16.00 C32.00 10.20 28.91 5.15 24.28 2.33 ZM24.28 2.33" fill="#000000" fill-opacity="1.00" />
				</svg>
				<svg height="32.00" width="32.00" x="0.00" y="0.00" />
			</svg>
		</svg>
	</svg>
	<svg height="197.57" id="edgeLine2" width="64.75" x="67.90" y="48.02">
		<path d="M19.91 187.30C5.95 144.76 -7.72 78.32 20.39 29.98 C27.73 17.36 41.91 9.16 54.41 4.10 " fill="none" stroke="#000000" stroke-opacity="1.00" stroke-width="1.50" />
		<svg height="7.54" id="edgeHead2" width="10.76" x="53.98" y="0.00">
			<path d="M1.01 2.83L1.01 2.83 L0.00 0.00 L10.76 0.42 L2.68 7.54 L1.68 4.71 L1.68 4.71 ZM1.01 2.83" fill="#000000" fill-opacity="1.00" />
		</svg>
		<svg height="10.76" id="edgeTail2" width="7.57" x="16.41" y="186.81">
			<path d="M4.73 0.98L4.73 0.98 L7.57 0.00 L7.03 10.76 L0.00 2.60 L2.84 1.63 L2.84 1.63 ZM4.73 0.98" fill="#000000" fill-opacity="1.00" />
		</svg>
	</svg>
	<svg height="19.28" id="edgeLine9" width="9.88" x="162.30" y="142.25">
		<path d="M4.94 9.64C4.88 9.53 4.83 9.43 4.78 9.33 " fill="none" stroke="#000000" stroke-opacity="1.00" stroke-width="1.50" />
		<svg height="10.72" id="edgeHead9" width="8.12" x="0.00" y="-0.00">
			<path d="M3.67 9.35L3.67 9.35 L1.00 10.72 L0.00 -0.00 L8.12 7.07 L5.45 8.44 L5.45 8.44 ZM3.67 9.35" fill="#000000" fill-opacity="1.00" />
		</svg>
		<svg height="10.72" id="edgeTail9" width="8.12" x="1.76" y="8.56">
			<path d="M4.45 1.36L4.45 1.36 L7.12 -0.00 L8.12 10.72 L0.00 3.64 L2.67 2.28 L2.67 2.28 ZM4.45 1.36" fill="#000000" fill-opacity="1.00" />
		</svg>
	</svg>
	<svg height="294.31" id="edgeLine5" width="152.93" x="160.53" y="44.46">
		<path d="M128.04 286.31C132.04 279.80 135.59 272.71 137.77 265.54 C156.85 202.49 149.68 180.33 129.77 117.54 C116.77 76.55 114.89 60.96 81.77 33.54 C61.26 16.57 31.54 8.14 10.61 4.08 " fill="none" stroke="#000000" stroke-opacity="1.00" stroke-width="1.50" />
		<svg height="7.88" id="edgeHead5" width="10.54" x="0.00" y="0.00">
			<path d="M9.68 4.92L9.68 4.92 L9.17 7.88 L0.00 2.24 L10.54 -0.00 L10.02 2.95 L10.02 2.95 ZM9.68 4.92" fill="#000000" fill-opacity="1.00" />
		</svg>
		<svg height="8.00" id="edgeTail5" width="8.00" x="121.39" y="286.31">
			<path d="M6.83 6.83C8.39 5.27 8.39 2.73 6.83 1.17 C5.27 -0.39 2.73 -0.39 1.17 1.17 C-0.39 2.73 -0.39 5.27 1.17 6.83 C2.73 8.39 5.27 8.39 6.83 6.83 " fill="#000000" fill-opacity="1.00" />
		</svg>
	</svg>
	<svg height="19.28" id="edgeLine12" width="19.75" x="136.53" y="226.25">
		<path d="M7.70 11.76C9.22 10.28 10.74 8.80 12.25 7.32 " fill="none" stroke="#000000" stroke-opacity="1.00" stroke-width="1.50" />
		<svg height="9.85" id="edgeHead12" width="9.95" x="9.80" y="-0.00">
			<path d="M2.10 6.27L2.10 6.27 L0.00 4.13 L9.95 0.00 L5.59 9.85 L3.49 7.70 L3.49 7.70 ZM2.10 6.27" fill="#000000" fill-opacity="1.00" />
		</svg>
		<svg height="9.85" id="edgeTail12" width="9.95" x="0.00" y="9.43">
			<path d="M7.85 3.58L7.85 3.58 L9.95 5.73 L0.00 9.85 L4.36 0.00 L6.46 2.15 L6.46 2.15 ZM7.85 3.58" fill="#000000" fill-opacity="1.00" />
		</svg>
	</svg>
	<svg height="132.98" id="edgeLine13" width="103.88" x="95.95" y="226.44">
		<path d="M8.64 127.89C34.60 121.28 66.94 108.38 84.34 83.56 C98.97 62.69 101.03 34.13 99.40 10.70 " fill="none" stroke="#000000" stroke-opacity="1.00" stroke-width="1.50" />
		<svg height="10.33" id="edgeHead13" width="7.96" x="95.34" y="-0.00">
			<path d="M2.99 10.05L2.99 10.05 L0.00 10.33 L3.04 -0.00 L7.96 9.57 L4.98 9.86 L4.98 9.86 ZM2.99 10.05" fill="#000000" fill-opacity="1.00" />
		</svg>
		<svg height="8.00" id="edgeTail13" width="8.00" x="0.00" y="124.98">
			<path d="M6.83 6.83C8.39 5.27 8.39 2.73 6.83 1.17 C5.27 -0.39 2.73 -0.39 1.17 1.17 C-0.39 2.73 -0.39 5.27 1.17 6.83 C2.73 8.39 5.27 8.39 6.83 6.83 " fill="#000000" fill-opacity="1.00" />
		</svg>
	</svg>
	<svg height="33.64" id="edgeLine14" width="23.72" x="236.58" y="177.18">
		<path d="M10.43 29.58C16.11 26.99 19.72 22.74 19.72 16.82 C19.72 10.90 16.11 6.65 10.43 4.06 " fill="none" stroke="#000000" stroke-opacity="1.00" stroke-width="1.50" />
		<svg height="7.75" id="edgeHead14" width="10.68" x="0.00" y="-0.00">
			<path d="M9.44 4.84L9.44 4.84 L8.69 7.75 L0.00 1.38 L10.68 0.00 L9.93 2.91 L9.93 2.91 ZM9.44 4.84" fill="#000000" fill-opacity="1.00" />
		</svg>
		<svg height="7.75" id="edgeTail14" width="10.68" x="0.00" y="25.89">
			<path d="M9.93 4.84L9.93 4.84 L10.68 7.75 L0.00 6.37 L8.69 0.00 L9.44 2.91 L9.44 2.91 ZM9.93 4.84" fill="#000000" fill-opacity="1.00" />
		</svg>
	</svg>
	<svg height="285.18" id="edgeLine3" width="121.24" x="11.12" y="44.74">
		<path d="M28.28 276.71C26.63 272.95 25.22 269.10 24.17 265.26 C-3.16 164.89 -11.02 113.52 55.17 33.26 C68.96 16.55 92.61 8.19 110.63 4.08 " fill="none" stroke="#000000" stroke-opacity="1.00" stroke-width="1.50" />
		<svg height="7.85" id="edgeHead3" width="10.58" x="110.65" y="0.00">
			<path d="M0.58 2.94L0.58 2.94 L0.00 0.00 L10.58 1.99 L1.55 7.85 L0.97 4.91 L0.97 4.91 ZM0.58 2.94" fill="#000000" fill-opacity="1.00" />
		</svg>
		<svg height="8.00" id="edgeTail3" width="8.00" x="26.46" y="277.18">
			<path d="M6.83 6.83C8.39 5.27 8.39 2.73 6.83 1.17 C5.27 -0.39 2.73 -0.39 1.17 1.17 C-0.39 2.73 -0.39 5.27 1.17 6.83 C2.73 8.39 5.27 8.39 6.83 6.83 " fill="#000000" fill-opacity="1.00" />
		</svg>
	</svg>
	<svg height="187.37" id="edgeLine8" width="76.71" x="36.96" y="142.48">
		<path d="M11.96 178.63C10.90 174.92 9.99 171.18 9.33 167.52 C4.29 139.53 0.42 130.53 9.33 103.52 C21.29 67.28 47.15 32.82 69.57 7.79 " fill="none" stroke="#000000" stroke-opacity="1.00" stroke-width="1.50" />
		<svg height="10.07" id="edgeHead8" width="9.71" x="67.00" y="-0.00">
			<path d="M2.21 6.69L2.21 6.69 L0.00 4.66 L9.71 -0.00 L5.90 10.07 L3.69 8.04 L3.69 8.04 ZM2.21 6.69" fill="#000000" fill-opacity="1.00" />
		</svg>
		<svg height="8.00" id="edgeTail8" width="8.00" x="9.46" y="179.37">
			<path d="M6.83 6.83C8.39 5.27 8.39 2.73 6.83 1.17 C5.27 -0.39 2.73 -0.39 1.17 1.17 C-0.39 2.73 -0.39 5.27 1.17 6.83 C2.73 8.39 5.27 8.39 6.83 6.83 " fill="#000000" fill-opacity="1.00" />
		</svg>
	</svg>
	<svg height="28.14" id="edgeLine11" width="23.72" x="194.58" y="95.93">
		<path d="M10.43 24.09C16.11 22.06 19.72 18.72 19.72 14.07 C19.72 9.42 16.11 6.08 10.43 4.05 " fill="none" stroke="#000000" stroke-opacity="1.00" stroke-width="1.50" />
		<svg height="7.84" id="edgeHead11" width="10.59" x="0.00" y="0.00">
			<path d="M9.60 4.90L9.60 4.90 L9.01 7.84 L0.00 1.94 L10.59 -0.00 L10.00 2.94 L10.00 2.94 ZM9.60 4.90" fill="#000000" fill-opacity="1.00" />
		</svg>
		<svg height="7.84" id="edgeTail11" width="10.59" x="0.00" y="20.30">
			<path d="M10.00 4.90L10.00 4.90 L10.59 7.84 L0.00 5.90 L9.01 -0.00 L9.60 2.94 L9.60 2.94 ZM10.00 4.90" fill="#000000" fill-opacity="1.00" />
		</svg>
	</svg>
	<svg height="111.91" id="edgeLine15" width="51.50" x="207.04" y="226.49">
		<path d="M45.82 103.47C36.90 80.06 23.78 47.32 10.26 19.51 C8.65 16.20 6.92 12.81 5.13 9.43 " fill="none" stroke="#000000" stroke-opacity="1.00" stroke-width="1.50" />
		<svg height="10.70" id="edgeHead15" width="8.29" x="0.00" y="-0.00">
			<path d="M3.90 9.27L3.90 9.27 L1.26 10.70 L0.00 0.00 L8.29 6.88 L5.66 8.31 L5.66 8.31 ZM3.90 9.27" fill="#000000" fill-opacity="1.00" />
		</svg>
		<svg height="8.00" id="edgeTail15" width="8.00" x="43.50" y="103.91">
			<path d="M6.83 6.83C8.39 5.27 8.39 2.73 6.83 1.17 C5.27 -0.39 2.73 -0.39 1.17 1.17 C-0.39 2.73 -0.39 5.27 1.17 6.83 C2.73 8.39 5.27 8.39 6.83 6.83 " fill="#000000" fill-opacity="1.00" />
		</svg>
	</svg>
	<svg height="19.44" id="edgeLine6" width="8.00" x="142.29" y="58.31">
		<path d="M4.00 8.67C4.00 8.57 4.00 8.47 4.00 8.38 " fill="none" stroke="#000000" stroke-opacity="1.00" stroke-width="1.50" />
		<svg height="10.00" id="edgeHead6" width="8.00" x="0.00" y="-0.00">
			<path d="M3.00 10.00L3.00 10.00 L0.00 10.00 L4.00 0.00 L8.00 10.00 L5.00 10.00 L5.00 10.00 ZM3.00 10.00" fill="#000000" fill-opacity="1.00" />
		</svg>
		<svg height="10.00" id="edgeTail6" width="8.00" x="0.00" y="9.44">
			<path d="M5.00 0.00L5.00 0.00 L8.00 0.00 L4.00 10.00 L0.00 0.00 L3.00 0.00 L3.00 0.00 ZM5.00 0.00" fill="#000000" fill-opacity="1.00" />
		</svg>
	</svg>
	<svg height="103.15" id="edgeLine7" width="28.10" x="108.84" y="142.44">
		<path d="M4.09 92.55C8.80 70.68 14.98 43.57 21.45 19.56 C22.25 16.58 23.12 13.51 24.02 10.42 " fill="none" stroke="#000000" stroke-opacity="1.00" stroke-width="1.50" />
		<svg height="10.73" id="edgeHead7" width="7.66" x="20.44" y="-0.00">
			<path d="M2.87 9.29L2.87 9.29 L0.00 8.43 L6.71 0.00 L7.66 10.73 L4.79 9.87 L4.79 9.87 ZM2.87 9.29" fill="#000000" fill-opacity="1.00" />
		</svg>
		<svg height="10.61" id="edgeTail7" width="7.82" x="0.00" y="92.54">
			<path d="M4.89 1.04L4.89 1.04 L7.82 1.66 L1.83 10.61 L0.00 -0.00 L2.93 0.62 L2.93 0.62 ZM4.89 1.04" fill="#000000" fill-opacity="1.00" />
		</svg>
	</svg>
	<svg height="220.33" id="edgeLine10" width="95.15" x="194.73" y="117.96">
		<path d="M79.35 211.76C90.44 169.85 102.96 94.85 69.57 44.04 C56.23 23.76 32.93 11.50 10.53 4.12 " fill="none" stroke="#000000" stroke-opacity="1.00" stroke-width="1.50" />
		<svg height="7.66" id="edgeHead10" width="10.73" x="0.00" y="0.00">
			<path d="M9.29 4.79L9.29 4.79 L8.43 7.66 L0.00 0.96 L10.73 -0.00 L9.87 2.87 L9.87 2.87 ZM9.29 4.79" fill="#000000" fill-opacity="1.00" />
		</svg>
		<svg height="8.00" id="edgeTail10" width="8.00" x="74.09" y="212.33">
			<path d="M6.83 6.83C8.39 5.27 8.39 2.73 6.83 1.17 C5.27 -0.39 2.73 -0.39 1.17 1.17 C-0.39 2.73 -0.39 5.27 1.17 6.83 C2.73 8.39 5.27 8.39 6.83 6.83 " fill="#000000" fill-opacity="1.00" />
		</svg>
	</svg>
	<svg height="46.28" id="edgeLine18" width="86.50" x="152.53" y="303.72">
		<path d="M78.08 40.01C58.25 29.85 32.64 16.72 9.66 4.95 " fill="none" stroke="#000000" stroke-opacity="1.00" stroke-width="1.50" />
		<svg height="8.12" id="edgeHead18" width="10.72" x="0.00" y="-0.00">
			<path d="M8.44 5.45L8.44 5.45 L7.07 8.12 L0.00 -0.00 L10.72 1.00 L9.36 3.67 L9.36 3.67 ZM8.44 5.45" fill="#000000" fill-opacity="1.00" />
		</svg>
		<svg height="8.00" id="edgeTail18" width="8.00" x="78.50" y="38.28">
			<path d="M6.83 6.83C8.39 5.27 8.39 2.73 6.83 1.17 C5.27 -0.39 2.73 -0.39 1.17 1.17 C-0.39 2.73 -0.39 5.27 1.17 6.83 C2.73 8.39 5.27 8.39 6.83 6.83 " fill="#000000" fill-opacity="1.00" />
		</svg>
	</svg>
	<svg height="19.67" id="edgeLine17" width="11.45" x="77.98" y="310.25">
		<path d="M6.15 11.16C6.37 10.69 6.59 10.22 6.81 9.75 " fill="none" stroke="#000000" stroke-opacity="1.00" stroke-width="1.50" />
		<svg height="10.75" id="edgeHead17" width="7.91" x="3.55" y="0.00">
			<path d="M2.71 8.60L2.71 8.60 L0.00 7.31 L7.91 0.00 L7.22 10.75 L4.52 9.46 L4.52 9.46 ZM2.71 8.60" fill="#000000" fill-opacity="1.00" />
		</svg>
		<svg height="8.00" id="edgeTail17" width="8.00" x="0.00" y="11.67">
			<path d="M6.83 6.83C8.39 5.27 8.39 2.73 6.83 1.17 C5.27 -0.39 2.73 -0.39 1.17 1.17 C-0.39 2.73 -0.39 5.27 1.17 6.83 C2.73 8.39 5.27 8.39 6.83 6.83 " fill="#000000" fill-opacity="1.00" />
		</svg>
	</svg>
	<svg height="23.28" id="edgeLine1" width="8.00" x="61.29" y="394.46">
		<path d="M4.00 19.28L4.00 10.38 C4.00 10.28 4.00 10.17 4.00 10.07 " fill="none" stroke="#000000" stroke-opacity="1.00" stroke-width="1.50" />
		<svg height="10.00" id="edgeHead1" width="8.00" x="0.00" y="0.00">
			<path d="M3.00 10.00L3.00 10.00 L0.00 10.00 L4.00 0.00 L8.00 10.00 L5.00 10.00 L5.00 10.00 ZM3.00 10.00" fill="#000000" fill-opacity="1.00" />
		</svg>
		<svg height="8.90" id="edgeTail1" width="0.00" x="4.00" y="10.38">
			<path d="M0.00 8.90L0.00 0.00 " fill="#000000" fill-opacity="1.00" />
		</svg>
	</svg>
	<svg height="117.04" id="edgeLine4" width="74.97" x="160.46" y="44.49">
		<path d="M57.96 107.49C59.49 104.21 60.81 100.87 61.83 97.51 C70.07 70.29 77.43 57.29 61.83 33.51 C50.57 16.34 28.24 8.06 10.68 4.09 " fill="none" stroke="#000000" stroke-opacity="1.00" stroke-width="1.50" />
		<svg height="7.86" id="edgeHead4" width="10.57" x="0.00" y="-0.00">
			<path d="M9.64 4.91L9.64 4.91 L9.07 7.86 L0.00 2.06 L10.57 0.00 L10.01 2.95 L10.01 2.95 ZM9.64 4.91" fill="#000000" fill-opacity="1.00" />
		</svg>
		<svg height="10.70" id="edgeTail4" width="8.24" x="52.85" y="106.34">
			<path d="M5.60 2.35L5.60 2.35 L8.24 3.77 L0.00 10.70 L1.19 -0.00 L3.84 1.41 L3.84 1.41 ZM5.60 2.35" fill="#000000" fill-opacity="1.00" />
		</svg>
	</svg>
	<svg height="33.64" id="edgeLine16" width="23.72" x="152.58" y="261.18">
		<path d="M10.43 29.58C16.11 26.99 19.72 22.74 19.72 16.82 C19.72 10.90 16.11 6.65 10.43 4.06 " fill="none" stroke="#000000" stroke-opacity="1.00" stroke-width="1.50" />
		<svg height="7.75" id="edgeHead16" width="10.68" x="0.00" y="-0.00">
			<path d="M9.44 4.84L9.44 4.84 L8.69 7.75 L0.00 1.38 L10.68 0.00 L9.93 2.91 L9.93 2.91 ZM9.44 4.84" fill="#000000" fill-opacity="1.00" />
		</svg>
		<svg height="7.75" id="edgeTail16" width="10.68" x="0.00" y="25.89">
			<path d="M9.93 4.84L9.93 4.84 L10.68 7.75 L0.00 6.37 L8.69 0.00 L9.44 2.91 L9.44 2.91 ZM9.93 4.84" fill="#000000" fill-opacity="1.00" />
		</svg>
	</svg>
</svg>