<svg width="645.7800000000002" height="391.33" viewBox="-42.0 -50.06999999999999 645.7800000000002 391.33" xmlns="http://www.w3.org/2000/svg"><defs>
  <symbol id="vithanco-watermark" viewBox="0 0 162.12 162.0">
  <path d="M 121.68 34.67 L 94.40 81.89 L 81.07 104.96 L 101.28 139.95 L 114.61 116.88 L 162.12 34.67 Z" fill="#000000" fill-opacity="0.3"/>
  <path d="M 81.07 58.81 L 95.01 34.67 L 121.68 34.67 L 141.72 0 L 115.05 0 L 47.07 0 L 20.40 0 L 40.44 34.67 L 67.11 34.67 Z" fill="#000000" fill-opacity="0.3"/>
  <path d="M 40.44 34.67 L 0 34.67 L 47.51 116.88 L 60.84 139.96 L 81.07 104.96 L 67.73 81.89 Z" fill="#000000" fill-opacity="0.3"/>
  <text x="9.13" y="158.59" font-family="Arial" font-size="18.67" fill="#000000" fill-opacity="0.3">VITHANCO.COM</text>
</symbol>
</defs>
<g id="group-germany" class="vgraph-group depth-0"><rect x="8" y="35.68000000000001" width="545.7800000000002" height="107" rx="8" fill="#b2b2b2" fill-opacity="0.4" stroke="#000000" stroke-width="2"/><text x="280.89" y="52.98000000000002" text-anchor="middle" fill="#000000" font-size="14" font-family="Helvetica">Germany</text></g><g id="group-england" class="vgraph-group depth-0"><rect x="122.04" y="150.68" width="420.2199999999999" height="107" rx="8" fill="#b2b2b2" fill-opacity="0.4" stroke="#000000" stroke-width="2"/><text x="332.1500000000001" y="167.98000000000005" text-anchor="middle" fill="#000000" font-size="14" font-family="Helvetica">England</text></g><path d="M 75.81 13.680000000000007 C 94.39 13.680000000000007, 122.19 13.680000000000007, 143.65 13.680000000000007" fill="none" stroke="#bbbbbb" stroke-width="1"/><polygon points="143.62,10.180000000000007 153.62,13.680000000000007 143.62,17.180000000000007" fill="#bbbbbb" stroke="#bbbbbb" stroke-width="1"/><path d="M 197.1 13.680000000000007 C 246.76999999999998 13.680000000000007, 376.17 13.680000000000007, 436.24 13.680000000000007" fill="none" stroke="#bbbbbb" stroke-width="1"/><polygon points="436.11,10.180000000000007 446.11,13.680000000000007 436.11,17.180000000000007" fill="#bbbbbb" stroke="#bbbbbb" stroke-width="1"/><path d="M 93.19 101.67999999999999 C 157.73999999999998 101.67999999999999, 291.1 101.67999999999999, 380.0 101.67999999999999" fill="none" stroke="#555555" stroke-width="1" stroke-dasharray="5,5"/><polygon points="379.9199999999999,98.17999999999999 389.9199999999999,101.67999999999999 379.9199999999999,105.17999999999999" fill="#555555" stroke="#555555" stroke-width="1"/><text x="176.12" y="98.48000000000002" text-anchor="middle" fill="#000000" font-size="12" font-family="Helvetica">led to</text><path d="M 222.53 216.68 C 267.76 216.68, 338.03 216.68, 391.77 216.68" fill="none" stroke="#555555" stroke-width="1" stroke-dasharray="5,5"/><polygon points="391.46,213.18 401.46,216.68 391.46,220.18" fill="#555555" stroke="#555555" stroke-width="1"/><path d="M 222.60999999999999 202.60000000000002 C 262.85 189.73000000000002, 322.88 169.5, 373.7 148.18 C 392.3400000000001 140.36, 412.4899999999999 130.58, 429.3400000000001 122.01000000000002" fill="none" stroke="#555555" stroke-width="1" stroke-dasharray="5,5"/><polygon points="427.52,119.01000000000002 438.01,117.55000000000001 430.7199999999999,125.24000000000002" fill="#555555" stroke="#555555" stroke-width="1"/><text x="306.95" y="144.98000000000005" text-anchor="middle" fill="#000000" font-size="12" font-family="Helvetica">industrialization enabled</text><g transform="translate(15.969999999999999,68.72999999999999)"><rect x="0" y="0" width="77.10000000000001" height="65.9" rx="9" fill="#4682b4"/><rect x="0.7500000000000001" y="0.7500000000000001" width="75.60000000000001" height="64.4" rx="9" fill="none" stroke="#13427f" stroke-width="1.5"/><text x="38.550000000000004" y="21.050000000000004" text-anchor="middle" fill="#000000" font-size="14" font-family="Helvetica">Napoleon</text><text x="38.550000000000004" y="37.85" text-anchor="middle" fill="#000000" font-size="14" font-family="Helvetica">defeats</text><text x="38.550000000000004" y="54.650000000000006" text-anchor="middle" fill="#000000" font-size="14" font-family="Helvetica">Prussia</text></g><g transform="translate(391.69,86.92999999999999)"><rect x="0" y="0" width="154.10000000000002" height="29.5" rx="9" fill="#4682b4"/><rect x="0.7500000000000001" y="0.7500000000000001" width="152.60000000000002" height="28" rx="9" fill="none" stroke="#13427f" stroke-width="1.5"/><text x="77.05000000000001" y="19.65" text-anchor="middle" fill="#000000" font-size="14" font-family="Helvetica">German Unification</text></g><g transform="translate(129.87,183.73000000000002)"><rect x="0" y="0" width="92.50000000000001" height="65.9" rx="9" fill="#4682b4"/><rect x="0.7500000000000001" y="0.7500000000000001" width="91.00000000000001" height="64.4" rx="9" fill="none" stroke="#13427f" stroke-width="1.5"/><text x="46.25000000000001" y="21.050000000000004" text-anchor="middle" fill="#000000" font-size="14" font-family="Helvetica">Industrial</text><text x="46.25000000000001" y="37.85" text-anchor="middle" fill="#000000" font-size="14" font-family="Helvetica">Revolution</text><text x="46.25000000000001" y="54.650000000000006" text-anchor="middle" fill="#000000" font-size="14" font-family="Helvetica">peaks</text></g><g transform="translate(403.24,192.13)"><rect x="0" y="0" width="131" height="49.1" rx="9" fill="#4682b4"/><rect x="0.7500000000000001" y="0.7500000000000001" width="129.5" height="47.6" rx="9" fill="none" stroke="#13427f" stroke-width="1.5"/><text x="65.5" y="21.049999999999997" text-anchor="middle" fill="#000000" font-size="14" font-family="Helvetica">Franco-Prussian</text><text x="65.5" y="37.85" text-anchor="middle" fill="#000000" font-size="14" font-family="Helvetica">War impact</text></g><g transform="translate(33.57,-0.06999999999999318)"><rect x="0" y="0" width="41.900000000000006" height="27.5" rx="9" fill="#808080"/><rect x="0.7500000000000001" y="0.7500000000000001" width="40.400000000000006" height="26" rx="9" fill="none" stroke="#404040" stroke-width="1.5"/><text x="20.950000000000003" y="17.95" text-anchor="middle" fill="#000000" font-size="12" font-family="Helvetica">1800</text></g><g transform="translate(155.17000000000002,-0.06999999999999318)"><rect x="0" y="0" width="41.900000000000006" height="27.5" rx="9" fill="#808080"/><rect x="0.7500000000000001" y="0.7500000000000001" width="40.400000000000006" height="26" rx="9" fill="none" stroke="#404040" stroke-width="1.5"/><text x="20.950000000000003" y="17.95" text-anchor="middle" fill="#000000" font-size="12" font-family="Helvetica">1850</text></g><g transform="translate(447.79,-0.06999999999999318)"><rect x="0" y="0" width="41.900000000000006" height="27.5" rx="9" fill="#808080"/><rect x="0.7500000000000001" y="0.7500000000000001" width="40.400000000000006" height="26" rx="9" fill="none" stroke="#404040" stroke-width="1.5"/><text x="20.950000000000003" y="17.95" text-anchor="middle" fill="#000000" font-size="12" font-family="Helvetica">1871</text></g><text x="280.89" y="282.97999999999996" text-anchor="middle" fill="#000000" font-size="14" font-family="Helvetica">19th Century Europe</text><use href="#vithanco-watermark" x="12.36995" y="243.2228960399704" width="43.69949999999999" height="43.6671539600296"/></svg>