<?xml version="1.0" encoding="utf-8" standalone="no"?>
<svg version="1.1" viewBox="0.00 0.00 809.00 782.00" xmlns="http://www.w3.org/2000/svg">
	<svg height="100.00" id="node1" width="160.00" x="139.50" y="2.50">
		<svg height="49.00" width="110.00" x="25.00" y="25.50">
			<path d="M2.00 24.50L2.00 11.00 C2.00 6.03 6.03 2.00 11.00 2.00 L99.00 2.00 C103.97 2.00 108.00 6.03 108.00 11.00 L108.00 38.00 C108.00 42.97 103.97 47.00 99.00 47.00 L11.00 47.00 C6.03 47.00 2.00 42.97 2.00 38.00 ZM2.00 24.50" fill="#cfebec" fill-opacity="1.00" />
			<svg height="49.00" width="110.00" x="0.00" y="0.00">
				<path d="M2.00 24.50L2.00 11.00 C2.00 6.03 6.03 2.00 11.00 2.00 L99.00 2.00 C103.97 2.00 108.00 6.03 108.00 11.00 L108.00 38.00 C108.00 42.97 103.97 47.00 99.00 47.00 L11.00 47.00 C6.03 47.00 2.00 42.97 2.00 38.00 ZM2.00 24.50" fill="none" stroke="#000000" stroke-opacity="1.00" stroke-width="1.50" />
				<svg height="35.00" width="96.00" x="7.00" y="7.00">
					<svg height="35.00" width="96.00" x="0.00" y="0.00">
						<text dominant-baseline="middle" fill="#000000" fill-opacity="1.00" font-family="Verdana" font-size="14.00" font-weight="normal" text-anchor="middle" x="48.00" y="8.75">Freelancer</text>
						<text dominant-baseline="middle" fill="#000000" fill-opacity="1.00" font-family="Verdana" font-size="14.00" font-weight="normal" text-anchor="middle" x="48.00" y="26.25">or Consultant</text>
					</svg>
				</svg>
			</svg>
		</svg>
	</svg>
	<svg height="82.21" id="edgeLine1" width="61.00" x="233.42" y="74.58">
		<path d="M6.74 7.84C20.07 26.51 37.35 50.70 50.65 69.31 L57.00 78.21 " fill="none" stroke="#000000" stroke-opacity="1.00" stroke-width="1.50" />
		<svg height="8.90" id="edgeHead1" width="6.36" x="50.65" y="69.31">
			<path d="M6.36 8.90L0.00 -0.00 " fill="#000000" fill-opacity="1.00" />
		</svg>
		<svg height="8.00" id="edgeTail1" width="8.00" x="0.00" y="0.00">
			<path d="M6.83 6.83C8.39 5.27 8.39 2.73 6.83 1.17 C5.27 -0.39 2.73 -0.39 1.17 1.17 C-0.39 2.73 -0.39 5.27 1.17 6.83 C2.73 8.39 5.27 8.39 6.83 6.83 " fill="#000000" fill-opacity="1.00" />
		</svg>
	</svg>
	<svg height="100.00" id="node2" width="160.00" x="224.50" y="123.50">
		<svg height="45.00" width="133.00" x="13.50" y="27.50">
			<path d="M2.00 22.50L2.00 11.00 C2.00 6.03 6.03 2.00 11.00 2.00 L122.00 2.00 C126.97 2.00 131.00 6.03 131.00 11.00 L131.00 34.00 C131.00 38.97 126.97 43.00 122.00 43.00 C122.00 43.00 122.00 43.00 122.00 43.00 L11.00 43.00 C6.03 43.00 2.00 38.97 2.00 34.00 ZM2.00 22.50" fill="#000000" fill-opacity="0.00" />
			<svg height="45.00" width="133.00" x="0.00" y="0.00">
				<svg height="35.00" width="123.00" x="5.00" y="5.00">
					<text dominant-baseline="middle" fill="#000000" fill-opacity="1.00" font-family="Verdana" font-size="14.00" font-weight="normal" text-anchor="middle" x="61.50" y="8.75">starts a new</text>
					<text dominant-baseline="middle" fill="#000000" fill-opacity="1.00" font-family="Verdana" font-size="14.00" font-weight="normal" text-anchor="middle" x="61.50" y="26.25">engagement with</text>
				</svg>
			</svg>
		</svg>
	</svg>
	<svg height="100.00" id="node3" width="160.00" x="399.50" y="474.00">
		<svg height="32.00" width="55.00" x="52.50" y="34.00">
			<path d="M2.00 16.00L2.00 11.00 C2.00 6.03 6.03 2.00 11.00 2.00 L44.00 2.00 C48.97 2.00 53.00 6.03 53.00 11.00 L53.00 21.00 C53.00 25.97 48.97 30.00 44.00 30.00 L11.00 30.00 C6.03 30.00 2.00 25.97 2.00 21.00 ZM2.00 16.00" fill="#cfebec" fill-opacity="1.00" />
			<svg height="32.00" width="55.00" x="0.00" y="0.00">
				<path d="M2.00 16.00L2.00 11.00 C2.00 6.03 6.03 2.00 11.00 2.00 L44.00 2.00 C48.97 2.00 53.00 6.03 53.00 11.00 L53.00 21.00 C53.00 25.97 48.97 30.00 44.00 30.00 L11.00 30.00 C6.03 30.00 2.00 25.97 2.00 21.00 ZM2.00 16.00" fill="none" stroke="#000000" stroke-opacity="1.00" stroke-width="1.50" />
				<svg height="18.00" width="41.00" x="7.00" y="7.00">
					<svg height="18.00" width="41.00" x="0.00" y="0.00">
						<text dominant-baseline="middle" fill="#000000" fill-opacity="1.00" font-family="Verdana" font-size="14.00" font-weight="normal" text-anchor="middle" x="20.50" y="9.00">Client</text>
					</svg>
				</svg>
			</svg>
		</svg>
	</svg>
	<svg height="323.12" id="edgeLine2" width="158.21" x="295.50" y="190.17">
		<path d="M7.71 4.00L7.18 12.95 C5.75 37.97 4.00 75.29 4.00 107.83 C4.00 107.83 4.00 107.83 4.00 222.33 C4.00 255.85 95.79 297.85 148.28 319.12 " fill="none" stroke="#000000" stroke-opacity="1.00" stroke-width="1.50" />
		<svg height="7.43" id="edgeHead2" width="10.77" x="147.44" y="315.66">
			<path d="M1.86 2.79L1.86 2.79 L2.97 0.00 L10.77 7.43 L0.00 7.43 L1.11 4.64 L1.11 4.64 ZM1.86 2.79" fill="#000000" fill-opacity="1.00" />
		</svg>
		<svg height="8.95" id="edgeTail2" width="0.53" x="7.18" y="4.00">
			<path d="M0.53 -0.00L0.00 8.95 " fill="#000000" fill-opacity="1.00" />
		</svg>
	</svg>
	<svg height="100.00" id="node4" width="160.00" x="371.50" y="527.00">
		<svg height="32.00" width="36.00" x="62.00" y="34.00">
			<path d="M2.00 16.00L2.00 11.00 C2.00 6.03 6.03 2.00 11.00 2.00 L25.00 2.00 C29.97 2.00 34.00 6.03 34.00 11.00 C34.00 11.00 34.00 11.00 34.00 11.00 L34.00 21.00 C34.00 25.97 29.97 30.00 25.00 30.00 L11.00 30.00 C6.03 30.00 2.00 25.97 2.00 21.00 ZM2.00 16.00" fill="#000000" fill-opacity="0.00" />
			<svg height="32.00" width="36.00" x="0.00" y="0.00">
				<svg height="22.00" width="26.00" x="5.00" y="5.00">
					<text dominant-baseline="middle" fill="#000000" fill-opacity="1.00" font-family="Verdana" font-size="14.00" font-weight="normal" text-anchor="middle" x="13.00" y="11.00">has</text>
				</svg>
			</svg>
		</svg>
	</svg>
	<svg height="28.61" id="edgeLine3" width="19.31" x="454.90" y="537.91">
		<path d="M12.97 8.27C11.74 10.51 10.48 12.81 9.24 15.07 L4.00 24.61 " fill="none" stroke="#000000" stroke-opacity="1.00" stroke-width="1.50" />
		<svg height="9.54" id="edgeHead3" width="5.24" x="4.00" y="15.07">
			<path d="M0.00 9.54L5.24 0.00 " fill="#000000" fill-opacity="1.00" />
		</svg>
		<svg height="8.00" id="edgeTail3" width="8.00" x="11.31" y="0.00">
			<path d="M6.83 6.83C8.39 5.27 8.39 2.73 6.83 1.17 C5.27 -0.39 2.73 -0.39 1.17 1.17 C-0.39 2.73 -0.39 5.27 1.17 6.83 C2.73 8.39 5.27 8.39 6.83 6.83 " fill="#000000" fill-opacity="1.00" />
		</svg>
	</svg>
	<svg height="100.00" id="node5" width="160.00" x="266.50" y="580.00">
		<svg height="32.00" width="133.00" x="13.50" y="34.00">
			<path d="M2.00 16.00L2.00 11.00 C2.00 6.03 6.03 2.00 11.00 2.00 L122.00 2.00 C126.97 2.00 131.00 6.03 131.00 11.00 L131.00 21.00 C131.00 25.97 126.97 30.00 122.00 30.00 C122.00 30.00 122.00 30.00 122.00 30.00 L11.00 30.00 C6.03 30.00 2.00 25.97 2.00 21.00 ZM2.00 16.00" fill="#cfebec" fill-opacity="1.00" />
			<svg height="32.00" width="133.00" x="0.00" y="0.00">
				<path d="M2.00 16.00L2.00 11.00 C2.00 6.03 6.03 2.00 11.00 2.00 L122.00 2.00 C126.97 2.00 131.00 6.03 131.00 11.00 L131.00 21.00 C131.00 25.97 126.97 30.00 122.00 30.00 C122.00 30.00 122.00 30.00 122.00 30.00 L11.00 30.00 C6.03 30.00 2.00 25.97 2.00 21.00 ZM2.00 16.00" fill="none" stroke="#000000" stroke-opacity="1.00" stroke-width="1.50" />
				<svg height="18.00" width="119.00" x="7.00" y="7.00">
					<svg height="18.00" width="119.00" x="0.00" y="0.00">
						<text dominant-baseline="middle" fill="#000000" fill-opacity="1.00" font-family="Verdana" font-size="14.00" font-weight="normal" text-anchor="middle" x="59.50" y="9.00">Change initiative</text>
					</svg>
				</svg>
			</svg>
		</svg>
	</svg>
	<svg height="33.57" id="edgeLine4" width="64.87" x="374.22" y="581.97">
		<path d="M60.87 4.01L53.08 7.79 C40.21 14.04 24.11 21.86 9.67 28.87 " fill="none" stroke="#000000" stroke-opacity="1.00" stroke-width="1.50" />
		<svg height="7.97" id="edgeHead4" width="10.74" x="0.00" y="25.60">
			<path d="M9.43 4.50L9.43 4.50 L10.74 7.20 L0.00 7.97 L7.25 0.00 L8.56 2.70 L8.56 2.70 ZM9.43 4.50" fill="#000000" fill-opacity="1.00" />
		</svg>
		<svg height="3.78" id="edgeTail4" width="7.79" x="53.08" y="4.01">
			<path d="M7.79 -0.00L0.00 3.78 " fill="#000000" fill-opacity="1.00" />
		</svg>
	</svg>
	<svg height="321.18" id="edgeLine5" width="87.87" x="83.81" y="73.39">
		<path d="M79.76 6.36C46.09 26.44 9.69 57.71 9.69 99.11 C9.69 99.11 9.69 99.11 9.69 226.61 C9.69 253.64 7.28 284.28 5.10 306.43 L4.00 317.18 " fill="none" stroke="#000000" stroke-opacity="1.00" stroke-width="1.50" />
		<svg height="10.75" id="edgeHead5" width="1.10" x="4.00" y="306.43">
			<path d="M0.00 10.75L1.10 0.00 " fill="#000000" fill-opacity="1.00" />
		</svg>
		<svg height="8.00" id="edgeTail5" width="8.00" x="79.87" y="-0.00">
			<path d="M6.83 6.83C8.39 5.27 8.39 2.73 6.83 1.17 C5.27 -0.39 2.73 -0.39 1.17 1.17 C-0.39 2.73 -0.39 5.27 1.17 6.83 C2.73 8.39 5.27 8.39 6.83 6.83 " fill="#000000" fill-opacity="1.00" />
		</svg>
	</svg>
	<svg height="100.00" id="node6" width="160.00" x="5.50" y="361.50">
		<svg height="45.00" width="145.00" x="7.50" y="27.50">
			<path d="M2.00 22.50L2.00 11.00 C2.00 6.03 6.03 2.00 11.00 2.00 L134.00 2.00 C138.97 2.00 143.00 6.03 143.00 11.00 L143.00 34.00 C143.00 38.97 138.97 43.00 134.00 43.00 C134.00 43.00 134.00 43.00 134.00 43.00 L11.00 43.00 C6.03 43.00 2.00 38.97 2.00 34.00 ZM2.00 22.50" fill="#000000" fill-opacity="0.00" />
			<svg height="45.00" width="145.00" x="0.00" y="0.00">
				<svg height="35.00" width="135.00" x="5.00" y="5.00">
					<text dominant-baseline="middle" fill="#000000" fill-opacity="1.00" font-family="Verdana" font-size="14.00" font-weight="normal" text-anchor="middle" x="67.50" y="8.75">needs to</text>
					<text dominant-baseline="middle" fill="#000000" fill-opacity="1.00" font-family="Verdana" font-size="14.00" font-weight="normal" text-anchor="middle" x="67.50" y="26.25">understand quickly</text>
				</svg>
			</svg>
		</svg>
	</svg>
	<svg height="315.61" id="edgeLine6" width="203.33" x="88.73" y="428.16">
		<path d="M4.00 4.00L6.79 12.55 C13.75 34.65 21.77 66.31 21.77 94.84 C21.77 94.84 21.77 94.84 21.77 202.84 C21.77 278.77 122.56 303.51 192.41 311.53 " fill="none" stroke="#000000" stroke-opacity="1.00" stroke-width="1.50" />
		<svg height="7.96" id="edgeHead6" width="10.36" x="192.97" y="307.65">
			<path d="M0.52 2.99L0.52 2.99 L0.84 0.00 L10.36 5.03 L0.00 7.96 L0.31 4.98 L0.31 4.98 ZM0.52 2.99" fill="#000000" fill-opacity="1.00" />
		</svg>
		<svg height="8.55" id="edgeTail6" width="2.79" x="4.00" y="4.00">
			<path d="M0.00 -0.00L2.79 8.55 " fill="#000000" fill-opacity="1.00" />
		</svg>
	</svg>
	<svg height="28.11" id="edgeLine7" width="8.00" x="342.50" y="644.40">
		<path d="M4.00 8.93C4.00 10.39 4.00 11.85 4.00 13.32 L4.00 24.11 " fill="none" stroke="#000000" stroke-opacity="1.00" stroke-width="1.50" />
		<svg height="10.79" id="edgeHead7" width="0.00" x="4.00" y="13.32">
			<path d="M0.00 10.79L0.00 -0.00 " fill="#000000" fill-opacity="1.00" />
		</svg>
		<svg height="8.00" id="edgeTail7" width="8.00" x="0.00" y="-0.00">
			<path d="M6.83 6.83C8.39 5.27 8.39 2.73 6.83 1.17 C5.27 -0.39 2.73 -0.39 1.17 1.17 C-0.39 2.73 -0.39 5.27 1.17 6.83 C2.73 8.39 5.27 8.39 6.83 6.83 " fill="#000000" fill-opacity="1.00" />
		</svg>
	</svg>
	<svg height="100.00" id="node7" width="160.00" x="266.50" y="633.00">
		<svg height="32.00" width="43.00" x="58.50" y="34.00">
			<path d="M2.00 16.00L2.00 11.00 C2.00 6.03 6.03 2.00 11.00 2.00 L32.00 2.00 C36.97 2.00 41.00 6.03 41.00 11.00 C41.00 11.00 41.00 11.00 41.00 11.00 L41.00 21.00 C41.00 25.97 36.97 30.00 32.00 30.00 L11.00 30.00 C6.03 30.00 2.00 25.97 2.00 21.00 ZM2.00 16.00" fill="#000000" fill-opacity="0.00" />
			<svg height="32.00" width="43.00" x="0.00" y="0.00">
				<svg height="22.00" width="33.00" x="5.00" y="5.00">
					<text dominant-baseline="middle" fill="#000000" fill-opacity="1.00" font-family="Verdana" font-size="14.00" font-weight="normal" text-anchor="middle" x="16.50" y="11.00">uses</text>
				</svg>
			</svg>
		</svg>
	</svg>
	<svg height="28.71" id="edgeLine8" width="8.00" x="342.50" y="693.20">
		<path d="M4.00 4.00L4.00 12.82 C4.00 14.45 4.00 16.10 4.00 17.77 " fill="none" stroke="#000000" stroke-opacity="1.00" stroke-width="1.50" />
		<svg height="10.00" id="edgeHead8" width="8.00" x="0.00" y="18.71">
			<path d="M5.00 0.00L5.00 0.00 L8.00 0.00 L4.00 10.00 L0.00 0.00 L3.00 0.00 L3.00 0.00 ZM5.00 0.00" fill="#000000" fill-opacity="1.00" />
		</svg>
		<svg height="8.83" id="edgeTail8" width="0.00" x="4.00" y="4.00">
			<path d="M0.00 0.00L0.00 8.83 " fill="#000000" fill-opacity="1.00" />
		</svg>
	</svg>
	<svg height="100.00" id="node8" width="160.00" x="266.50" y="694.50">
		<svg height="49.00" width="112.00" x="24.00" y="25.50">
			<path d="M2.00 24.50L2.00 11.00 C2.00 6.03 6.03 2.00 11.00 2.00 L101.00 2.00 C105.97 2.00 110.00 6.03 110.00 11.00 L110.00 38.00 C110.00 42.97 105.97 47.00 101.00 47.00 L11.00 47.00 C6.03 47.00 2.00 42.97 2.00 38.00 ZM2.00 24.50" fill="#cfebec" fill-opacity="1.00" />
			<svg height="49.00" width="112.00" x="0.00" y="0.00">
				<path d="M2.00 24.50L2.00 11.00 C2.00 6.03 6.03 2.00 11.00 2.00 L101.00 2.00 C105.97 2.00 110.00 6.03 110.00 11.00 L110.00 38.00 C110.00 42.97 105.97 47.00 101.00 47.00 L11.00 47.00 C6.03 47.00 2.00 42.97 2.00 38.00 ZM2.00 24.50" fill="none" stroke="#000000" stroke-opacity="1.00" stroke-width="1.50" />
				<svg height="35.00" width="98.00" x="7.00" y="7.00">
					<svg height="35.00" width="98.00" x="0.00" y="0.00">
						<text dominant-baseline="middle" fill="#000000" fill-opacity="1.00" font-family="Verdana" font-size="14.00" font-weight="normal" text-anchor="middle" x="49.00" y="8.75">Technical</text>
						<text dominant-baseline="middle" fill="#000000" fill-opacity="1.00" font-family="Verdana" font-size="14.00" font-weight="normal" text-anchor="middle" x="49.00" y="26.25">Terms/Jargon</text>
					</svg>
				</svg>
			</svg>
		</svg>
	</svg>
	<svg height="100.00" id="node11" width="160.00" x="567.50" y="361.50">
		<svg height="32.00" width="106.00" x="27.00" y="34.00">
			<path d="M2.00 16.00L2.00 11.00 C2.00 6.03 6.03 2.00 11.00 2.00 L95.00 2.00 C99.97 2.00 104.00 6.03 104.00 11.00 L104.00 21.00 C104.00 25.97 99.97 30.00 95.00 30.00 C95.00 30.00 95.00 30.00 95.00 30.00 L11.00 30.00 C6.03 30.00 2.00 25.97 2.00 21.00 ZM2.00 16.00" fill="#cfebec" fill-opacity="1.00" />
			<svg height="32.00" width="106.00" x="0.00" y="0.00">
				<path d="M2.00 16.00L2.00 11.00 C2.00 6.03 6.03 2.00 11.00 2.00 L95.00 2.00 C99.97 2.00 104.00 6.03 104.00 11.00 L104.00 21.00 C104.00 25.97 99.97 30.00 95.00 30.00 C95.00 30.00 95.00 30.00 95.00 30.00 L11.00 30.00 C6.03 30.00 2.00 25.97 2.00 21.00 ZM2.00 16.00" fill="none" stroke="#000000" stroke-opacity="1.00" stroke-width="1.50" />
				<svg height="18.00" width="92.00" x="7.00" y="7.00">
					<svg height="18.00" width="92.00" x="0.00" y="0.00">
						<text dominant-baseline="middle" fill="#000000" fill-opacity="1.00" font-family="Verdana" font-size="14.00" font-weight="normal" text-anchor="middle" x="46.00" y="9.00">Concept Map</text>
					</svg>
				</svg>
			</svg>
		</svg>
	</svg>
	<svg height="140.85" id="edgeLine13" width="40.87" x="621.25" y="425.84">
		<path d="M32.72 8.85C36.02 23.27 38.68 42.44 35.25 59.16 C30.25 83.51 18.45 109.39 9.13 127.30 L4.00 136.85 " fill="none" stroke="#000000" stroke-opacity="1.00" stroke-width="1.50" />
		<svg height="9.55" id="edgeHead13" width="5.13" x="4.00" y="127.30">
			<path d="M0.00 9.55L5.13 -0.00 " fill="#000000" fill-opacity="1.00" />
		</svg>
		<svg height="8.00" id="edgeTail13" width="8.00" x="27.50" y="0.00">
			<path d="M6.83 6.83C8.39 5.27 8.39 2.73 6.83 1.17 C5.27 -0.39 2.73 -0.39 1.17 1.17 C-0.39 2.73 -0.39 5.27 1.17 6.83 C2.73 8.39 5.27 8.39 6.83 6.83 " fill="#000000" fill-opacity="1.00" />
		</svg>
	</svg>
	<svg height="100.00" id="node12" width="160.00" x="537.50" y="527.00">
		<svg height="32.00" width="65.00" x="47.50" y="34.00">
			<path d="M2.00 16.00L2.00 11.00 C2.00 6.03 6.03 2.00 11.00 2.00 L54.00 2.00 C58.97 2.00 63.00 6.03 63.00 11.00 L63.00 21.00 C63.00 25.97 58.97 30.00 54.00 30.00 C54.00 30.00 54.00 30.00 54.00 30.00 L11.00 30.00 C6.03 30.00 2.00 25.97 2.00 21.00 ZM2.00 16.00" fill="#000000" fill-opacity="0.00" />
			<svg height="32.00" width="65.00" x="0.00" y="0.00">
				<svg height="22.00" width="55.00" x="5.00" y="5.00">
					<text dominant-baseline="middle" fill="#000000" fill-opacity="1.00" font-family="Verdana" font-size="14.00" font-weight="normal" text-anchor="middle" x="27.50" y="11.00">clarifies</text>
				</svg>
			</svg>
		</svg>
	</svg>
	<svg height="134.43" id="edgeLine14" width="217.58" x="382.20" y="587.26">
		<path d="M213.58 4.00L206.01 8.62 C158.69 37.52 65.11 94.67 9.29 128.76 " fill="none" stroke="#000000" stroke-opacity="1.00" stroke-width="1.50" />
		<svg height="8.63" id="edgeHead14" width="10.62" x="0.00" y="125.80">
			<path d="M9.06 4.27L9.06 4.27 L10.62 6.83 L0.00 8.63 L6.45 0.00 L8.01 2.56 L8.01 2.56 ZM9.06 4.27" fill="#000000" fill-opacity="1.00" />
		</svg>
		<svg height="4.63" id="edgeTail14" width="7.57" x="206.01" y="4.00">
			<path d="M7.57 0.00L0.00 4.63 " fill="#000000" fill-opacity="1.00" />
		</svg>
	</svg>
	<svg height="100.00" id="node13" width="160.00" x="503.50" y="421.00">
		<svg height="32.00" width="109.00" x="25.50" y="34.00">
			<path d="M2.00 16.00L2.00 11.00 C2.00 6.03 6.03 2.00 11.00 2.00 L98.00 2.00 C102.97 2.00 107.00 6.03 107.00 11.00 L107.00 21.00 C107.00 25.97 102.97 30.00 98.00 30.00 C98.00 30.00 98.00 30.00 98.00 30.00 L11.00 30.00 C6.03 30.00 2.00 25.97 2.00 21.00 ZM2.00 16.00" fill="#000000" fill-opacity="0.00" />
			<svg height="32.00" width="109.00" x="0.00" y="0.00">
				<svg height="22.00" width="99.00" x="5.00" y="5.00">
					<text dominant-baseline="middle" fill="#000000" fill-opacity="1.00" font-family="Verdana" font-size="14.00" font-weight="normal" text-anchor="middle" x="49.50" y="11.00">is shared with</text>
				</svg>
			</svg>
		</svg>
	</svg>
	<svg height="36.23" id="edgeLine15" width="39.42" x="594.26" y="424.51">
		<path d="M31.73 7.32C25.32 13.07 18.28 19.40 11.81 25.21 L4.00 32.23 " fill="none" stroke="#000000" stroke-opacity="1.00" stroke-width="1.50" />
		<svg height="7.01" id="edgeHead15" width="7.81" x="4.00" y="25.21">
			<path d="M0.00 7.01L7.81 -0.00 " fill="#000000" fill-opacity="1.00" />
		</svg>
		<svg height="8.00" id="edgeTail15" width="8.00" x="31.42" y="0.00">
			<path d="M6.83 6.83C8.39 5.27 8.39 2.73 6.83 1.17 C5.27 -0.39 2.73 -0.39 1.17 1.17 C-0.39 2.73 -0.39 5.27 1.17 6.83 C2.73 8.39 5.27 8.39 6.83 6.83 " fill="#000000" fill-opacity="1.00" />
		</svg>
	</svg>
	<svg height="28.99" id="edgeLine16" width="54.96" x="505.21" y="481.40">
		<path d="M50.96 4.00L42.92 7.94 C32.25 13.17 20.54 18.92 9.86 24.16 " fill="none" stroke="#000000" stroke-opacity="1.00" stroke-width="1.50" />
		<svg height="7.99" id="edgeHead16" width="10.74" x="0.00" y="21.00">
			<path d="M9.42 4.48L9.42 4.48 L10.74 7.18 L0.00 7.99 L7.22 -0.00 L8.54 2.69 L8.54 2.69 ZM9.42 4.48" fill="#000000" fill-opacity="1.00" />
		</svg>
		<svg height="3.94" id="edgeTail16" width="8.04" x="42.92" y="4.00">
			<path d="M8.04 -0.00L0.00 3.94 " fill="#000000" fill-opacity="1.00" />
		</svg>
	</svg>
	<svg height="30.75" id="edgeLine17" width="70.91" x="500.31" y="310.76">
		<path d="M8.67 5.69C24.11 11.27 41.38 17.52 56.95 23.15 L66.90 26.75 " fill="none" stroke="#000000" stroke-opacity="1.00" stroke-width="1.50" />
		<svg height="3.60" id="edgeHead17" width="9.95" x="56.95" y="23.15">
			<path d="M9.95 3.60L0.00 0.00 " fill="#000000" fill-opacity="1.00" />
		</svg>
		<svg height="8.00" id="edgeTail17" width="8.00" x="0.00" y="-0.00">
			<path d="M6.83 6.83C8.39 5.27 8.39 2.73 6.83 1.17 C5.27 -0.39 2.73 -0.39 1.17 1.17 C-0.39 2.73 -0.39 5.27 1.17 6.83 C2.73 8.39 5.27 8.39 6.83 6.83 " fill="#000000" fill-opacity="1.00" />
		</svg>
	</svg>
	<svg height="100.00" id="node14" width="160.00" x="524.50" y="302.00">
		<svg height="32.00" width="163.00" x="-1.50" y="34.00">
			<path d="M2.00 16.00L2.00 11.00 C2.00 6.03 6.03 2.00 11.00 2.00 L152.00 2.00 C156.97 2.00 161.00 6.03 161.00 11.00 L161.00 21.00 C161.00 25.97 156.97 30.00 152.00 30.00 L11.00 30.00 C6.03 30.00 2.00 25.97 2.00 21.00 ZM2.00 16.00" fill="#000000" fill-opacity="0.00" />
			<svg height="32.00" width="163.00" x="0.00" y="0.00">
				<svg height="22.00" width="153.00" x="5.00" y="5.00">
					<text dominant-baseline="middle" fill="#000000" fill-opacity="1.00" font-family="Verdana" font-size="14.00" font-weight="normal" text-anchor="middle" x="76.50" y="11.00">provides feedback for</text>
				</svg>
			</svg>
		</svg>
	</svg>
	<svg height="34.90" id="edgeLine18" width="27.11" x="610.47" y="362.34">
		<path d="M4.00 4.00L9.20 10.96 C12.92 15.92 16.91 21.26 20.68 26.30 " fill="none" stroke="#000000" stroke-opacity="1.00" stroke-width="1.50" />
		<svg height="10.40" id="edgeHead18" width="9.19" x="17.92" y="24.50">
			<path d="M4.00 1.79L4.00 1.79 L6.41 -0.00 L9.19 10.40 L0.00 4.79 L2.40 2.99 L2.40 2.99 ZM4.00 1.79" fill="#000000" fill-opacity="1.00" />
		</svg>
		<svg height="6.96" id="edgeTail18" width="5.20" x="4.00" y="4.00">
			<path d="M0.00 0.00L5.20 6.96 " fill="#000000" fill-opacity="1.00" />
		</svg>
	</svg>
	<svg height="100.00" id="node15" width="160.00" x="383.50" y="249.00">
		<svg height="32.00" width="119.00" x="20.50" y="34.00">
			<path d="M2.00 16.00L2.00 11.00 C2.00 6.03 6.03 2.00 11.00 2.00 L108.00 2.00 C112.97 2.00 117.00 6.03 117.00 11.00 L117.00 21.00 C117.00 25.97 112.97 30.00 108.00 30.00 C108.00 30.00 108.00 30.00 108.00 30.00 L11.00 30.00 C6.03 30.00 2.00 25.97 2.00 21.00 ZM2.00 16.00" fill="#cfebec" fill-opacity="1.00" />
			<svg height="32.00" width="119.00" x="0.00" y="0.00">
				<path d="M2.00 16.00L2.00 11.00 C2.00 6.03 6.03 2.00 11.00 2.00 L108.00 2.00 C112.97 2.00 117.00 6.03 117.00 11.00 L117.00 21.00 C117.00 25.97 112.97 30.00 108.00 30.00 C108.00 30.00 108.00 30.00 108.00 30.00 L11.00 30.00 C6.03 30.00 2.00 25.97 2.00 21.00 ZM2.00 16.00" fill="none" stroke="#000000" stroke-opacity="1.00" stroke-width="1.50" />
				<svg height="18.00" width="105.00" x="7.00" y="7.00">
					<svg height="18.00" width="105.00" x="0.00" y="0.00">
						<text dominant-baseline="middle" fill="#000000" fill-opacity="1.00" font-family="Verdana" font-size="14.00" font-weight="normal" text-anchor="middle" x="52.50" y="9.00">Stakeholder(s)</text>
					</svg>
				</svg>
			</svg>
		</svg>
	</svg>
	<svg height="87.98" id="edgeLine19" width="16.69" x="461.36" y="313.09">
		<path d="M4.52 8.83C6.54 27.38 9.42 53.92 11.51 73.12 L12.69 83.98 " fill="none" stroke="#000000" stroke-opacity="1.00" stroke-width="1.50" />
		<svg height="10.86" id="edgeHead19" width="1.18" x="11.51" y="73.12">
			<path d="M1.18 10.86L0.00 -0.00 " fill="#000000" fill-opacity="1.00" />
		</svg>
		<svg height="8.00" id="edgeTail19" width="8.00" x="0.00" y="0.00">
			<path d="M6.83 6.83C8.39 5.27 8.39 2.73 6.83 1.17 C5.27 -0.39 2.73 -0.39 1.17 1.17 C-0.39 2.73 -0.39 5.27 1.17 6.83 C2.73 8.39 5.27 8.39 6.83 6.83 " fill="#000000" fill-opacity="1.00" />
		</svg>
	</svg>
	<svg height="100.00" id="node16" width="160.00" x="395.50" y="361.50">
		<svg height="32.00" width="70.00" x="45.00" y="34.00">
			<path d="M2.00 16.00L2.00 11.00 C2.00 6.03 6.03 2.00 11.00 2.00 L59.00 2.00 C63.97 2.00 68.00 6.03 68.00 11.00 L68.00 21.00 C68.00 25.97 63.97 30.00 59.00 30.00 C59.00 30.00 59.00 30.00 59.00 30.00 L11.00 30.00 C6.03 30.00 2.00 25.97 2.00 21.00 ZM2.00 16.00" fill="#000000" fill-opacity="0.00" />
			<svg height="32.00" width="70.00" x="0.00" y="0.00">
				<svg height="22.00" width="60.00" x="5.00" y="5.00">
					<text dominant-baseline="middle" fill="#000000" fill-opacity="1.00" font-family="Verdana" font-size="14.00" font-weight="normal" text-anchor="middle" x="30.00" y="11.00">work for</text>
				</svg>
			</svg>
		</svg>
	</svg>
	<svg height="87.95" id="edgeLine20" width="10.67" x="471.97" y="421.61">
		<path d="M4.00 4.00L4.32 12.80 C4.99 31.35 5.95 57.90 6.65 77.09 " fill="none" stroke="#000000" stroke-opacity="1.00" stroke-width="1.50" />
		<svg height="10.14" id="edgeHead20" width="7.99" x="2.68" y="77.81">
			<path d="M5.00 0.11L5.00 0.11 L7.99 0.00 L4.36 10.14 L0.00 0.29 L3.00 0.18 L3.00 0.18 ZM5.00 0.11" fill="#000000" fill-opacity="1.00" />
		</svg>
		<svg height="8.80" id="edgeTail20" width="0.32" x="4.00" y="4.00">
			<path d="M0.00 -0.00L0.32 8.80 " fill="#000000" fill-opacity="1.00" />
		</svg>
	</svg>
	<svg height="40.98" id="edgeLine22" width="115.52" x="272.59" y="67.01">
		<path d="M8.76 5.46C38.99 14.73 74.49 25.62 101.08 33.78 L111.52 36.98 " fill="none" stroke="#000000" stroke-opacity="1.00" stroke-width="1.50" />
		<svg height="3.20" id="edgeHead22" width="10.45" x="101.08" y="33.78">
			<path d="M10.45 3.20L0.00 -0.00 " fill="#000000" fill-opacity="1.00" />
		</svg>
		<svg height="8.00" id="edgeTail22" width="8.00" x="0.00" y="0.00">
			<path d="M6.83 6.83C8.39 5.27 8.39 2.73 6.83 1.17 C5.27 -0.39 2.73 -0.39 1.17 1.17 C-0.39 2.73 -0.39 5.27 1.17 6.83 C2.73 8.39 5.27 8.39 6.83 6.83 " fill="#000000" fill-opacity="1.00" />
		</svg>
	</svg>
	<svg height="100.00" id="node18" width="160.00" x="333.50" y="64.00">
		<svg height="32.00" width="62.00" x="49.00" y="34.00">
			<path d="M2.00 16.00L2.00 11.00 C2.00 6.03 6.03 2.00 11.00 2.00 L51.00 2.00 C55.97 2.00 60.00 6.03 60.00 11.00 L60.00 21.00 C60.00 25.97 55.97 30.00 51.00 30.00 L11.00 30.00 C6.03 30.00 2.00 25.97 2.00 21.00 ZM2.00 16.00" fill="#000000" fill-opacity="0.00" />
			<svg height="32.00" width="62.00" x="0.00" y="0.00">
				<svg height="22.00" width="52.00" x="5.00" y="5.00">
					<text dominant-baseline="middle" fill="#000000" fill-opacity="1.00" font-family="Verdana" font-size="14.00" font-weight="normal" text-anchor="middle" x="26.00" y="11.00">creates</text>
				</svg>
			</svg>
		</svg>
	</svg>
	<svg height="34.90" id="edgeLine23" width="30.87" x="421.10" y="124.34">
		<path d="M4.00 4.00L9.63 10.47 C14.23 15.77 19.23 21.51 23.90 26.88 " fill="none" stroke="#000000" stroke-opacity="1.00" stroke-width="1.50" />
		<svg height="10.17" id="edgeHead23" width="9.58" x="21.29" y="24.73">
			<path d="M3.77 1.97L3.77 1.97 L6.04 -0.00 L9.58 10.17 L0.00 5.25 L2.26 3.28 L2.26 3.28 ZM3.77 1.97" fill="#000000" fill-opacity="1.00" />
		</svg>
		<svg height="6.47" id="edgeTail23" width="5.63" x="4.00" y="4.00">
			<path d="M0.00 0.00L5.63 6.47 " fill="#000000" fill-opacity="1.00" />
		</svg>
	</svg>
	<svg height="100.00" id="node19" width="160.00" x="383.50" y="123.50">
		<svg height="32.00" width="83.00" x="38.50" y="34.00">
			<path d="M2.00 16.00L2.00 11.00 C2.00 6.03 6.03 2.00 11.00 2.00 L72.00 2.00 C76.97 2.00 81.00 6.03 81.00 11.00 L81.00 21.00 C81.00 25.97 76.97 30.00 72.00 30.00 C72.00 30.00 72.00 30.00 72.00 30.00 L11.00 30.00 C6.03 30.00 2.00 25.97 2.00 21.00 ZM2.00 16.00" fill="#cfebec" fill-opacity="1.00" />
			<svg height="32.00" width="83.00" x="0.00" y="0.00">
				<path d="M2.00 16.00L2.00 11.00 C2.00 6.03 6.03 2.00 11.00 2.00 L72.00 2.00 C76.97 2.00 81.00 6.03 81.00 11.00 L81.00 21.00 C81.00 25.97 76.97 30.00 72.00 30.00 C72.00 30.00 72.00 30.00 72.00 30.00 L11.00 30.00 C6.03 30.00 2.00 25.97 2.00 21.00 ZM2.00 16.00" fill="none" stroke="#000000" stroke-opacity="1.00" stroke-width="1.50" />
				<svg height="18.00" width="69.00" x="7.00" y="7.00">
					<svg height="18.00" width="69.00" x="0.00" y="0.00">
						<text dominant-baseline="middle" fill="#000000" fill-opacity="1.00" font-family="Verdana" font-size="14.00" font-weight="normal" text-anchor="middle" x="34.50" y="9.00">Iterations</text>
					</svg>
				</svg>
			</svg>
		</svg>
	</svg>
	<svg height="40.34" id="edgeLine24" width="128.77" x="503.10" y="182.17">
		<path d="M8.77 5.28C39.07 13.39 78.96 24.07 114.41 33.57 L124.77 36.34 " fill="none" stroke="#000000" stroke-opacity="1.00" stroke-width="1.50" />
		<svg height="2.77" id="edgeHead24" width="10.36" x="114.41" y="33.57">
			<path d="M10.36 2.77L0.00 -0.00 " fill="#000000" fill-opacity="1.00" />
		</svg>
		<svg height="8.00" id="edgeTail24" width="8.00" x="0.00" y="-0.00">
			<path d="M6.83 6.83C8.39 5.27 8.39 2.73 6.83 1.17 C5.27 -0.39 2.73 -0.39 1.17 1.17 C-0.39 2.73 -0.39 5.27 1.17 6.83 C2.73 8.39 5.27 8.39 6.83 6.83 " fill="#000000" fill-opacity="1.00" />
		</svg>
	</svg>
	<svg height="100.00" id="node20" width="160.00" x="622.50" y="189.50">
		<svg height="45.00" width="157.00" x="1.50" y="27.50">
			<path d="M2.00 22.50L2.00 11.00 C2.00 6.03 6.03 2.00 11.00 2.00 L146.00 2.00 C150.97 2.00 155.00 6.03 155.00 11.00 L155.00 34.00 C155.00 38.97 150.97 43.00 146.00 43.00 L11.00 43.00 C6.03 43.00 2.00 38.97 2.00 34.00 ZM2.00 22.50" fill="#000000" fill-opacity="0.00" />
			<svg height="45.00" width="157.00" x="0.00" y="0.00">
				<svg height="35.00" width="147.00" x="5.00" y="5.00">
					<text dominant-baseline="middle" fill="#000000" fill-opacity="1.00" font-family="Verdana" font-size="14.00" font-weight="normal" text-anchor="middle" x="73.50" y="8.75">represent successive</text>
					<text dominant-baseline="middle" fill="#000000" fill-opacity="1.00" font-family="Verdana" font-size="14.00" font-weight="normal" text-anchor="middle" x="73.50" y="26.25">improvements of</text>
				</svg>
			</svg>
		</svg>
	</svg>
	<svg height="140.67" id="edgeLine25" width="44.91" x="673.97" y="256.39">
		<path d="M34.13 4.00L36.00 12.44 C41.42 38.97 45.47 78.99 30.53 109.61 C25.70 119.51 17.48 127.85 8.77 134.54 " fill="none" stroke="#000000" stroke-opacity="1.00" stroke-width="1.50" />
		<svg height="9.01" id="edgeHead25" width="10.49" x="0.00" y="131.66">
			<path d="M8.77 4.10L8.77 4.10 L10.49 6.56 L0.00 9.01 L5.90 0.00 L7.62 2.46 L7.62 2.46 ZM8.77 4.10" fill="#000000" fill-opacity="1.00" />
		</svg>
		<svg height="8.44" id="edgeTail25" width="1.86" x="34.13" y="4.00">
			<path d="M0.00 -0.00L1.86 8.44 " fill="#000000" fill-opacity="1.00" />
		</svg>
	</svg>
	<svg height="41.50" id="edgeLine26" width="8.00" x="459.50" y="187.76">
		<path d="M4.00 8.95C4.00 14.75 4.00 21.03 4.00 26.91 L4.00 37.50 " fill="none" stroke="#000000" stroke-opacity="1.00" stroke-width="1.50" />
		<svg height="10.59" id="edgeHead26" width="0.00" x="4.00" y="26.91">
			<path d="M0.00 10.59L0.00 -0.00 " fill="#000000" fill-opacity="1.00" />
		</svg>
		<svg height="8.00" id="edgeTail26" width="8.00" x="0.00" y="0.00">
			<path d="M6.83 6.83C8.39 5.27 8.39 2.73 6.83 1.17 C5.27 -0.39 2.73 -0.39 1.17 1.17 C-0.39 2.73 -0.39 5.27 1.17 6.83 C2.73 8.39 5.27 8.39 6.83 6.83 " fill="#000000" fill-opacity="1.00" />
		</svg>
	</svg>
	<svg height="100.00" id="node21" width="160.00" x="383.50" y="189.50">
		<svg height="32.00" width="163.00" x="-1.50" y="34.00">
			<path d="M2.00 16.00L2.00 11.00 C2.00 6.03 6.03 2.00 11.00 2.00 L152.00 2.00 C156.97 2.00 161.00 6.03 161.00 11.00 L161.00 21.00 C161.00 25.97 156.97 30.00 152.00 30.00 L11.00 30.00 C6.03 30.00 2.00 25.97 2.00 21.00 ZM2.00 16.00" fill="#000000" fill-opacity="0.00" />
			<svg height="32.00" width="163.00" x="0.00" y="0.00">
				<svg height="22.00" width="153.00" x="5.00" y="5.00">
					<text dominant-baseline="middle" fill="#000000" fill-opacity="1.00" font-family="Verdana" font-size="14.00" font-weight="normal" text-anchor="middle" x="76.50" y="11.00">created with different</text>
				</svg>
			</svg>
		</svg>
	</svg>
	<svg height="34.90" id="edgeLine27" width="8.00" x="459.50" y="249.84">
		<path d="M4.00 4.00L4.00 12.92 C4.00 16.63 4.00 20.50 4.00 24.25 " fill="none" stroke="#000000" stroke-opacity="1.00" stroke-width="1.50" />
		<svg height="10.00" id="edgeHead27" width="8.00" x="0.00" y="24.90">
			<path d="M5.00 0.00L5.00 0.00 L8.00 0.00 L4.00 10.00 L0.00 0.00 L3.00 0.00 L3.00 0.00 ZM5.00 0.00" fill="#000000" fill-opacity="1.00" />
		</svg>
		<svg height="8.92" id="edgeTail27" width="0.00" x="4.00" y="4.00">
			<path d="M0.00 0.00L0.00 8.92 " fill="#000000" fill-opacity="1.00" />
		</svg>
	</svg>
	<svg height="100.00" id="node22" width="160.00" x="266.50" y="474.00">
		<svg height="32.00" width="139.00" x="10.50" y="34.00">
			<path d="M2.00 16.00L2.00 11.00 C2.00 6.03 6.03 2.00 11.00 2.00 L128.00 2.00 C132.97 2.00 137.00 6.03 137.00 11.00 L137.00 21.00 C137.00 25.97 132.97 30.00 128.00 30.00 C128.00 30.00 128.00 30.00 128.00 30.00 L11.00 30.00 C6.03 30.00 2.00 25.97 2.00 21.00 ZM2.00 16.00" fill="#000000" fill-opacity="0.00" />
			<svg height="32.00" width="139.00" x="0.00" y="0.00">
				<svg height="22.00" width="129.00" x="5.00" y="5.00">
					<text dominant-baseline="middle" fill="#000000" fill-opacity="1.00" font-family="Verdana" font-size="14.00" font-weight="normal" text-anchor="middle" x="64.50" y="11.00">can be member of</text>
				</svg>
			</svg>
		</svg>
	</svg>
	<svg height="200.68" id="edgeLine28" width="109.09" x="349.58" y="312.82">
		<path d="M102.90 8.18C80.96 50.00 31.95 143.41 9.09 186.98 L4.00 196.68 " fill="none" stroke="#000000" stroke-opacity="1.00" stroke-width="1.50" />
		<svg height="9.70" id="edgeHead28" width="5.09" x="4.00" y="186.98">
			<path d="M0.00 9.70L5.09 -0.00 " fill="#000000" fill-opacity="1.00" />
		</svg>
		<svg height="8.00" id="edgeTail28" width="8.00" x="101.09" y="-0.00">
			<path d="M6.83 6.83C8.39 5.27 8.39 2.73 6.83 1.17 C5.27 -0.39 2.73 -0.39 1.17 1.17 C-0.39 2.73 -0.39 5.27 1.17 6.83 C2.73 8.39 5.27 8.39 6.83 6.83 " fill="#000000" fill-opacity="1.00" />
		</svg>
	</svg>
	<svg height="81.44" id="edgeLine30" width="8.00" x="342.50" y="534.17">
		<path d="M4.00 4.00L4.00 12.78 C4.00 29.82 4.00 53.42 4.00 70.94 " fill="none" stroke="#000000" stroke-opacity="1.00" stroke-width="1.50" />
		<svg height="10.00" id="edgeHead30" width="8.00" x="0.00" y="71.44">
			<path d="M5.00 0.00L5.00 0.00 L8.00 0.00 L4.00 10.00 L0.00 0.00 L3.00 0.00 L3.00 0.00 ZM5.00 0.00" fill="#000000" fill-opacity="1.00" />
		</svg>
		<svg height="8.78" id="edgeTail30" width="0.00" x="4.00" y="4.00">
			<path d="M0.00 0.00L0.00 8.78 " fill="#000000" fill-opacity="1.00" />
		</svg>
	</svg>
	<svg height="100.00" id="node24" width="160.00" x="118.50" y="249.00">
		<svg height="32.00" width="75.00" x="42.50" y="34.00">
			<path d="M2.00 16.00L2.00 11.00 C2.00 6.03 6.03 2.00 11.00 2.00 L64.00 2.00 C68.97 2.00 73.00 6.03 73.00 11.00 L73.00 21.00 C73.00 25.97 68.97 30.00 64.00 30.00 C64.00 30.00 64.00 30.00 64.00 30.00 L11.00 30.00 C6.03 30.00 2.00 25.97 2.00 21.00 ZM2.00 16.00" fill="#000000" fill-opacity="0.00" />
			<svg height="32.00" width="75.00" x="0.00" y="0.00">
				<svg height="22.00" width="65.00" x="5.00" y="5.00">
					<text dominant-baseline="middle" fill="#000000" fill-opacity="1.00" font-family="Verdana" font-size="14.00" font-weight="normal" text-anchor="middle" x="32.50" y="11.00">works on</text>
				</svg>
			</svg>
		</svg>
	</svg>
	<svg height="213.44" id="edgeLine31" width="25.65" x="195.65" y="75.18">
		<path d="M21.24 8.73C17.01 57.92 8.77 153.94 4.92 198.73 L4.00 209.44 " fill="none" stroke="#000000" stroke-opacity="1.00" stroke-width="1.50" />
		<svg height="10.71" id="edgeHead31" width="0.92" x="4.00" y="198.73">
			<path d="M0.00 10.71L0.92 -0.00 " fill="#000000" fill-opacity="1.00" />
		</svg>
		<svg height="8.00" id="edgeTail31" width="8.00" x="17.65" y="-0.00">
			<path d="M6.83 6.83C8.39 5.27 8.39 2.73 6.83 1.17 C5.27 -0.39 2.73 -0.39 1.17 1.17 C-0.39 2.73 -0.39 5.27 1.17 6.83 C2.73 8.39 5.27 8.39 6.83 6.83 " fill="#000000" fill-opacity="1.00" />
		</svg>
	</svg>
	<svg height="306.03" id="edgeLine32" width="107.34" x="198.34" y="309.48">
		<path d="M4.00 4.00L6.25 12.65 C11.80 34.83 19.16 70.02 19.16 101.02 C19.16 101.02 19.16 101.02 19.16 215.52 C19.16 257.59 61.26 285.53 97.36 301.76 " fill="none" stroke="#000000" stroke-opacity="1.00" stroke-width="1.50" />
		<svg height="7.61" id="edgeHead32" width="10.77" x="96.57" y="298.42">
			<path d="M1.97 2.76L1.97 2.76 L3.15 0.00 L10.77 7.61 L0.00 7.36 L1.18 4.60 L1.18 4.60 ZM1.97 2.76" fill="#000000" fill-opacity="1.00" />
		</svg>
		<svg height="8.66" id="edgeTail32" width="2.25" x="4.00" y="4.00">
			<path d="M0.00 0.00L2.25 8.66 " fill="#000000" fill-opacity="1.00" />
		</svg>
	</svg>
</svg>