<?xml version="1.0" encoding="utf-8"?>
<!-- Generator: Adobe Illustrator 27.4.1, SVG Export Plug-In . SVG Version: 6.00 Build 0)  -->
<svg version="1.1" id="Layer_1" xmlns="http://www.w3.org/2000/svg" xmlns:xlink="http://www.w3.org/1999/xlink" x="0px" y="0px"
	 viewBox="0 0 123.21 113" style="enable-background:new 0 0 123.21 113;" xml:space="preserve">
<style type="text/css">
	.st0{fill:#231F20;}
	.st1{fill:#EA580C;}
	.st2{fill:#A5A5A5;}
	.st3{fill:#CCCCCC;}
	.st4{fill:#515751;}
	.st5{fill:#9D6381;}
	.st6{fill:#FFFFFF;}
</style>
<g>
	<g>
		<g>
			<path class="st0" d="M95,18.57l16.15,27.98c3.56,6.16,3.56,13.75,0,19.91L95,94.43c-3.56,6.16-10.13,9.95-17.24,9.95h-32.3
				c-7.11,0-13.68-3.79-17.24-9.95L12.06,66.45c-3.56-6.16-3.56-13.75,0-19.91l16.15-27.98c3.56-6.16,10.13-9.95,17.24-9.95h32.3
				C84.87,8.62,91.44,12.41,95,18.57z M63.34,75.27l15.32-26.53c0.77-1.33-0.19-3-1.73-3h-5.28c-1.87,0-3.6,0.97-4.58,2.56
				l-4.64,10.77c-0.32,0.74-1.36,0.74-1.68,0.01l-4.86-10.86c-0.98-1.55-2.69-2.49-4.53-2.49h-5.07c-1.54,0-2.5,1.66-1.73,3
				l15.32,26.53C60.65,76.6,62.57,76.6,63.34,75.27z"/>
		</g>
	</g>
	<g>
		<g>
			<circle class="st1" cx="27.71" cy="56.5" r="15.26"/>
		</g>
	</g>
	<g>
		<g>
			<circle class="st1" cx="78.43" cy="85.53" r="15.26"/>
		</g>
	</g>
	<g>
		<g>
			<path class="st2" d="M87.19,56.01c-7.32,0-13.44,5.16-14.91,12.04c1.93-0.68,4-1.05,6.16-1.05c9.41,0,17.18,7.02,18.37,16.11
				c3.44-2.8,5.64-7.06,5.64-11.84C102.44,62.84,95.61,56.01,87.19,56.01z"/>
		</g>
	</g>
	<g>
		<g>
			<path class="st3" d="M95.35,41.24c-7.56,0-13.83,5.49-15.04,12.7c2.13-0.85,4.45-1.32,6.88-1.32c9.13,0,16.73,6.57,18.32,15.25
				c3.13-2.79,5.1-6.86,5.1-11.38C110.61,48.07,103.77,41.24,95.35,41.24z"/>
		</g>
	</g>
	<g>
		<g>
			<path class="st4" d="M46.09,59.61c-1.48,8.81-9.15,15.53-18.38,15.53c-2.28,0-4.46-0.41-6.48-1.16
				c1.29,7.12,7.51,12.53,15.01,12.53c8.43,0,15.26-6.83,15.26-15.26C51.49,66.59,49.39,62.41,46.09,59.61z"/>
		</g>
	</g>
	<g>
		<g>
			<path class="st2" d="M54.7,73.75c-1.22,9.11-9.02,16.14-18.46,16.14c-2.15,0-4.21-0.37-6.13-1.04
				c1.52,6.83,7.6,11.93,14.89,11.93c8.43,0,15.26-6.83,15.26-15.26C60.26,80.79,58.09,76.55,54.7,73.75z"/>
		</g>
	</g>
	<g>
		<g>
			<circle class="st1" cx="78.43" cy="27.06" r="15.26"/>
		</g>
	</g>
	<g>
		<g>
			<path class="st5" d="M59.89,27.06c0-5.8,2.66-10.97,6.83-14.37c-1.6-0.57-3.32-0.88-5.12-0.88c-8.43,0-15.26,6.83-15.26,15.26
				s6.83,15.26,15.26,15.26c1.8,0,3.52-0.31,5.12-0.88C62.56,38.03,59.89,32.86,59.89,27.06z"/>
		</g>
	</g>
	<g>
		<g>
			<path class="st2" d="M43.12,27.06c0-5.82,2.7-11.02,6.91-14.41C48.45,12.1,46.76,11.8,45,11.8c-8.43,0-15.26,6.83-15.26,15.26
				S36.58,42.31,45,42.31c1.76,0,3.45-0.3,5.02-0.85C45.82,38.07,43.12,32.88,43.12,27.06z"/>
		</g>
	</g>
	<g>
		<path class="st6" d="M76.37,33.39c-0.7,0-1.4-0.27-1.93-0.8l-4.21-4.21c-1.07-1.07-1.07-2.8,0-3.87c1.07-1.07,2.8-1.07,3.87,0
			l4.21,4.21c1.07,1.07,1.07,2.8,0,3.87C77.76,33.12,77.06,33.39,76.37,33.39z"/>
	</g>
	<g>
		<path class="st6" d="M76.37,33.39c-0.7,0-1.4-0.27-1.93-0.8c-1.07-1.07-1.07-2.8,0-3.87l7.95-7.95c1.07-1.07,2.8-1.07,3.87,0
			c1.07,1.07,1.07,2.8,0,3.87l-7.95,7.95C77.77,33.12,77.07,33.39,76.37,33.39z"/>
	</g>
	<g>
		<path class="st6" d="M76.37,91.87c-0.7,0-1.4-0.27-1.93-0.8l-4.21-4.21c-1.07-1.07-1.07-2.8,0-3.87c1.07-1.07,2.8-1.07,3.87,0
			l4.21,4.21c1.07,1.07,1.07,2.8,0,3.87C77.76,91.6,77.06,91.87,76.37,91.87z"/>
	</g>
	<g>
		<path class="st6" d="M76.37,91.87c-0.7,0-1.4-0.27-1.93-0.8c-1.07-1.07-1.07-2.8,0-3.87l7.95-7.95c1.07-1.07,2.8-1.07,3.87,0
			c1.07,1.07,1.07,2.8,0,3.87l-7.95,7.95C77.77,91.6,77.07,91.87,76.37,91.87z"/>
	</g>
	<g>
		<path class="st6" d="M25.64,62.83c-0.7,0-1.4-0.27-1.93-0.8l-4.21-4.21c-1.07-1.07-1.07-2.8,0-3.87c1.07-1.07,2.8-1.07,3.87,0
			l4.21,4.21c1.07,1.07,1.07,2.8,0,3.87C27.04,62.57,26.34,62.83,25.64,62.83z"/>
	</g>
	<g>
		<path class="st6" d="M25.64,62.83c-0.7,0-1.4-0.27-1.93-0.8c-1.07-1.07-1.07-2.8,0-3.87l7.95-7.95c1.07-1.07,2.8-1.07,3.87,0
			c1.07,1.07,1.07,2.8,0,3.87l-7.95,7.95C27.04,62.57,26.34,62.83,25.64,62.83z"/>
	</g>
</g>
</svg>
