<svg width="272.36" height="364.0" viewBox="-50.0 -50.0 272.36 364.0" xmlns="http://www.w3.org/2000/svg"><metadata><vgl><![CDATA[metagraph IBIS]]></vgl></metadata><style>@import url('https://fonts.googleapis.com/css2?family=DM+Sans:ital,wght@0,300;0,400;0,500;0,600;0,700;1,400&amp;display=swap');</style>
<defs>
  <symbol id="vithanco-watermark" viewBox="0 0 162.12 162.0">
  <path d="M 121.68 34.67 L 94.40 81.89 L 81.07 104.96 L 101.28 139.95 L 114.61 116.88 L 162.12 34.67 Z" fill="#000000" fill-opacity="0.3"/>
  <path d="M 81.07 58.81 L 95.01 34.67 L 121.68 34.67 L 141.72 0 L 115.05 0 L 47.07 0 L 20.40 0 L 40.44 34.67 L 67.11 34.67 Z" fill="#000000" fill-opacity="0.3"/>
  <path d="M 40.44 34.67 L 0 34.67 L 47.51 116.88 L 60.84 139.96 L 81.07 104.96 L 67.73 81.89 Z" fill="#000000" fill-opacity="0.3"/>
  <text x="9.13" y="158.59" font-family="Arial" font-size="18.67" fill="#000000" fill-opacity="0.3">VITHANCO.COM</text>
</symbol>
</defs>
<path d="M 134.6762519598007 9.523059082031239 C 144.8517944335938 11.114978027343737, 152.20000000000002 16.340624999999985, 152.20000000000002 25.19999999999999 C 152.20000000000002 30.460253906249985, 149.60947049856185 34.43947674036025, 145.37472003243533 37.13766850233077" fill="none" stroke="#000000" stroke-width="1"/><polygon points="134.6762519598007,40.876940917968746 142.47379359188395,33.70419078319281 145.2448647673697,40.132344837071116" fill="#000000" stroke="#000000" stroke-width="1"/><path d="M 80.49401062011724 50.61197695732119 C 79.99232504919172 58.06985358462555, 79.82532521346903 66.4349842170439, 79.99301111294919 74.49686972398683" fill="none" stroke="#000000" stroke-width="1"/><polygon points="80.4781654284522,85.95049157685136 76.64578534009898,76.07310007613653 83.64187190771318,75.83906431295424" fill="#000000" stroke="#000000" stroke-width="1"/><path d="M 92.88183457154781 85.95049157685136 C 93.37642281704 78.47351186395848, 93.5363253273294 70.10211303158142, 93.36154210241595 62.04679421030954" fill="none" stroke="#000000" stroke-width="1"/><polygon points="92.8659893798828,50.61197695732119 96.70765386280395,60.48576113567258 89.71179041232585,60.72637406605005" fill="#000000" stroke="#000000" stroke-width="1"/><path d="M 70.77172117710113 137.0119769573212 C 65.51614984613816 145.07689005428983, 59.56919641488091 154.20276041061913, 53.92841902303375 162.85878971738097" fill="none" stroke="#000000" stroke-width="1"/><polygon points="47.74306828522719,172.35049157685137 50.27038963945118,162.06153406053883 56.135045790572676,165.88328866138818" fill="#000000" stroke="#000000" stroke-width="1"/><path d="M 102.29903738975526 137.0119769573212 C 107.4590528783371 145.07689005428983, 113.29787988357147 154.20276041061913, 118.83609768647597 162.85878971738097" fill="none" stroke="#000000" stroke-width="1"/><polygon points="124.90898750177695,172.35049157685137 116.57137979955466,165.81334404877435 122.46778706610114,162.04076120050996" fill="#000000" stroke="#000000" stroke-width="1"/><path d="M 28.420273799457338 172.35721453000892 C 26.371047102115533 149.31757256350676, 25.86110279070787 114.36493038128873, 36.68 86.39999999999999 C 40.38412175001775 76.82550226153391, 46.257730622347125 67.65833401906278, 52.6973947640863 59.49219436797587" fill="none" stroke="#000000" stroke-width="1"/><polygon points="60.123034363181105,50.729347152247946 56.49446690330527,60.68341658083496 51.07901071413706,56.248009692713005" fill="#000000" stroke="#000000" stroke-width="1"/><path d="M 144.21865688804738 172.3747274239419 C 146.51585723476748 149.34746123581914, 147.36864726050246 114.40318788184852, 136.68 86.39999999999999 C 133.01912834879042 76.80888204450513, 127.16323765658798 67.63490503148363, 120.7270640083572 59.467424047977886" fill="none" stroke="#000000" stroke-width="1"/><polygon points="113.29992243387429,50.705154013750416 122.34343594038435,56.22465249255897 116.9275697985038,60.65955879745781" fill="#000000" stroke="#000000" stroke-width="1"/><g transform="translate(39.18999999999999,-0.05000000000001137)"><rect x="0" y="0" width="94.98" height="50.5" rx="9" fill="#f0ebff"/><rect x="0.7500000000000001" y="0.7500000000000001" width="93.48" height="49" rx="9" fill="none" stroke="#6038d0" stroke-width="1.5"/><path d="M 9.75 0.7500000000000001 L 4.75 0.7500000000000001 L 4.75 49.75 L 9.75 49.75 Q 0.7500000000000001 49.75 0.7500000000000001 40.75 L 0.7500000000000001 9.75 Q 0.7500000000000001 0.7500000000000001 9.75 0.7500000000000001 Z" fill="#6038d0"/><circle cx="21.75" cy="15.75" r="9" fill="#6038d0"/><text x="21.75" y="19.17" text-anchor="middle" fill="#ffffff" font-size="9" font-family="'DM Sans', Helvetica, sans-serif" font-weight="700">?</text><text x="35.75" y="19.17" text-anchor="start" fill="#6038d0" font-size="9" font-family="'DM Sans', Helvetica, sans-serif" font-weight="600" letter-spacing="0.06em">QUESTION</text><text x="49.49" y="41.8" text-anchor="middle" fill="#301878" font-size="13" font-family="'DM Sans', Helvetica, sans-serif">Question</text></g><g transform="translate(45.56499999999999,86.35)"><rect x="0" y="0" width="82.23" height="50.5" rx="9" fill="#fff8e8"/><rect x="0.7500000000000001" y="0.7500000000000001" width="80.73" height="49" rx="9" fill="none" stroke="#c08820" stroke-width="1.5"/><path d="M 9.75 0.7500000000000001 L 4.75 0.7500000000000001 L 4.75 49.75 L 9.75 49.75 Q 0.7500000000000001 49.75 0.7500000000000001 40.75 L 0.7500000000000001 9.75 Q 0.7500000000000001 0.7500000000000001 9.75 0.7500000000000001 Z" fill="#c08820"/><circle cx="21.75" cy="15.75" r="9" fill="#c08820"/><text x="21.75" y="19.17" text-anchor="middle" fill="#ffffff" font-size="9" font-family="'DM Sans', Helvetica, sans-serif" font-weight="700">!</text><text x="35.75" y="19.17" text-anchor="start" fill="#c08820" font-size="9" font-family="'DM Sans', Helvetica, sans-serif" font-weight="600" letter-spacing="0.06em">ANSWER</text><text x="43.115" y="41.8" text-anchor="middle" fill="#784808" font-size="13" font-family="'DM Sans', Helvetica, sans-serif">Answer</text></g><g transform="translate(0.11999999999999389,172.75)"><rect x="0" y="0" width="63.12000000000001" height="50.5" rx="9" fill="#ebfff2"/><rect x="0.7500000000000001" y="0.7500000000000001" width="61.62000000000001" height="49" rx="9" fill="none" stroke="#20a048" stroke-width="1.5"/><path d="M 9.75 0.7500000000000001 L 4.75 0.7500000000000001 L 4.75 49.75 L 9.75 49.75 Q 0.7500000000000001 49.75 0.7500000000000001 40.75 L 0.7500000000000001 9.75 Q 0.7500000000000001 0.7500000000000001 9.75 0.7500000000000001 Z" fill="#20a048"/><circle cx="21.75" cy="15.75" r="9" fill="#20a048"/><text x="21.75" y="19.17" text-anchor="middle" fill="#ffffff" font-size="9" font-family="'DM Sans', Helvetica, sans-serif" font-weight="700">+</text><text x="35.75" y="19.17" text-anchor="start" fill="#20a048" font-size="9" font-family="'DM Sans', Helvetica, sans-serif" font-weight="600" letter-spacing="0.06em">PRO</text><text x="33.56" y="41.8" text-anchor="middle" fill="#085828" font-size="13" font-family="'DM Sans', Helvetica, sans-serif">Pro</text></g><g transform="translate(109.12,172.75)"><rect x="0" y="0" width="63.12000000000001" height="50.5" rx="9" fill="#ffebeb"/><rect x="0.7500000000000001" y="0.7500000000000001" width="61.62000000000001" height="49" rx="9" fill="none" stroke="#d03048" stroke-width="1.5"/><path d="M 9.75 0.7500000000000001 L 4.75 0.7500000000000001 L 4.75 49.75 L 9.75 49.75 Q 0.7500000000000001 49.75 0.7500000000000001 40.75 L 0.7500000000000001 9.75 Q 0.7500000000000001 0.7500000000000001 9.75 0.7500000000000001 Z" fill="#d03048"/><circle cx="21.75" cy="15.75" r="9" fill="#d03048"/><text x="21.75" y="19.17" text-anchor="middle" fill="#ffffff" font-size="9" font-family="'DM Sans', Helvetica, sans-serif" font-weight="700">−</text><text x="35.75" y="19.17" text-anchor="start" fill="#d03048" font-size="9" font-family="'DM Sans', Helvetica, sans-serif" font-weight="600" letter-spacing="0.06em">CON</text><text x="33.56" y="41.8" text-anchor="middle" fill="#881028" font-size="13" font-family="'DM Sans', Helvetica, sans-serif">Con</text></g><text x="86.17999999999999" y="243.6" text-anchor="middle" fill="#505048" font-size="14" font-family="Helvetica">IBIS Meta Model</text><use href="#vithanco-watermark" x="2.5854000000000004" y="235.57973693560325" width="25.854000000000003" height="25.834863064396746"/></svg>