<svg width="218.1796875" height="337.12" viewBox="-41.99999999999999 -50.16 218.1796875 337.12" xmlns="http://www.w3.org/2000/svg"><metadata><vgl><![CDATA[metagraph ADTree
]]></vgl></metadata><defs>
  <symbol id="icon-and" viewBox="0 0 24.0 24.0">
  <path d="M24 12C24 18.63 18.63 24 12 24C9.32 24 6.85 23.12 4.85 21.64C1.91 19.45 0 15.95 0 12C0 5.37 5.37 0 12 0C18.63 0 24 5.37 24 12ZM4.93 9.95L4.93 9.95Q4.98 10.13 5.06 10.39Q5.29 11.11 5.71 12.47L4.05 12.47Q4.08 12.38 4.13 12.21Q4.19 12.04 4.33 11.58L4.57 10.83Q4.65 10.58 4.77 10.21Q4.82 10.04 4.85 9.95L4.93 9.95ZM14.53 8.66L13.26 8.66L13.26 12.7L13.18 12.7L10.27 8.66L9.16 8.66L9.16 15L10.43 15L10.43 10.94L10.51 10.94L13.43 15L14.53 15L14.53 8.66ZM19.87 10.29Q20.19 10.65 20.35 11.81Q20.35 12.49 19.88 13.37Q19.56 13.73 18.52 13.91L17.57 13.91Q17.57 13.81 17.57 13.6Q17.57 13.4 17.57 12.83Q17.57 12.52 17.57 11.83Q17.57 11.48 17.57 10.83Q17.57 10.51 17.57 10.05Q17.57 9.85 17.57 9.75L18.52 9.75Q19.1 9.75 19.87 10.29Q19.55 9.93 19.87 10.29ZM18.73 8.65L16.24 8.65L16.24 15L18.73 15Q19.68 15 20.93 14.17Q21.45 13.61 21.71 11.79Q21.71 10.79 20.93 9.47Q20.41 8.93 18.73 8.65ZM5.71 8.66L4.14 8.66L1.95 15L3.28 15L3.77 13.46L5.99 13.46Q6.02 13.54 6.07 13.69Q6.12 13.85 6.23 14.23Q6.3 14.43 6.4 14.77Q6.45 14.92 6.47 15L7.91 15L5.71 8.66Z"/>
</symbol>
  <symbol id="icon-or" viewBox="0 0 24.0 24.0">
  <path d="M24 12C24 18.63 18.63 24 12 24C9.32 24 6.85 23.12 4.85 21.64C1.91 19.45 0 15.95 0 12C0 5.37 5.37 0 12 0C18.63 0 24 5.37 24 12ZM16.4 9.94Q16.63 10.15 16.73 10.7Q16.73 11.01 16.45 11.43Q16.26 11.6 15.67 11.69L14.5 11.69Q14.5 11.62 14.5 11.49Q14.5 11.35 14.5 10.99L14.5 10.4Q14.5 10.2 14.5 9.9Q14.5 9.77 14.5 9.7L15.66 9.7Q15.99 9.7 16.44 9.97L16.4 9.94ZM9.94 10.22Q10.24 10.62 10.4 11.83Q10.4 12.5 9.94 13.44Q9.63 13.84 8.71 14.04Q8.19 14.04 7.47 13.44Q7.16 13.03 7.01 11.83Q7.01 11.59 7.07 11.16Q7.14 10.79 7.48 10.22Q7.56 10.11 7.74 9.95Q8.01 9.73 8.71 9.62Q9.22 9.62 9.94 10.22ZM15.84 8.66L13.18 8.66L13.18 15L14.5 15Q14.5 14.88 14.5 14.65Q14.5 14.42 14.5 13.84Q14.5 13.54 14.5 13.03Q14.5 12.8 14.5 12.68L15.59 12.68L16.77 15L18.28 15L16.94 12.48Q17.31 12.34 17.79 11.78Q17.99 11.45 18.09 10.68Q18.09 10.06 17.49 9.2Q17.09 8.84 15.84 8.66ZM8.71 8.5Q7.78 8.5 6.48 9.39Q5.93 9.99 5.65 11.83Q5.65 12.38 5.89 13.3Q6.03 13.67 6.48 14.27Q7.02 14.86 8.71 15.16Q9.65 15.16 10.93 14.27Q11.48 13.67 11.75 11.83Q11.75 10.8 10.93 9.39Q10.39 8.79 8.71 8.5Z"/>
</symbol>
  <symbol id="vithanco-watermark" viewBox="0 0 162.12 162.0">
  <path d="M 121.68 34.67 L 94.40 81.89 L 81.07 104.96 L 101.28 139.95 L 114.61 116.88 L 162.12 34.67 Z" fill="#000000" fill-opacity="0.3"/>
  <path d="M 81.07 58.81 L 95.01 34.67 L 121.68 34.67 L 141.72 0 L 115.05 0 L 47.07 0 L 20.40 0 L 40.44 34.67 L 67.11 34.67 Z" fill="#000000" fill-opacity="0.3"/>
  <path d="M 40.44 34.67 L 0 34.67 L 47.51 116.88 L 60.84 139.96 L 81.07 104.96 L 67.73 81.89 Z" fill="#000000" fill-opacity="0.3"/>
  <text x="9.13" y="158.59" font-family="Arial" font-size="18.67" fill="#000000" fill-opacity="0.3">VITHANCO.COM</text>
</symbol>
</defs>
<path d="M 88.40244927325577 191.83114379882815 C 98.37884957232804 191.6691833496094, 106.28584175982805 186.40546875, 106.28584175982805 176.04000000000002 C 106.28584175982805 170.04746337890631, 103.64309949794146 165.76007847458123, 99.48558718103915 163.177845287025" fill="none" stroke="#000000" stroke-width="1"/><polygon points="88.40244927325577,160.24885620117186 98.99669642531322,160.35806829355784 96.61626077549205,166.94088882256065" fill="#000000" stroke="#000000" stroke-width="1"/><path d="M 51.17075142779679 151.6932974243164 C 50.63874284693332 144.2273270043172, 50.46355288747343 135.79338695747705, 50.645181549417124 127.6899134377743" fill="none" stroke="#000000" stroke-width="1" stroke-dasharray="2,2"/><polygon points="51.166600198050155,116.20508075127756 54.3056672705863,126.32418436346174 47.31017153668849,126.07310780737284" fill="#000000" stroke="#000000" stroke-width="1"/><path d="M 25.99284374901045 151.47790236475745 C 17.024105483381042 141.37580874725597, 8.63107208945746 128.9155825563675, 4.3258417598280365 115.92000000000002 C -4.190315924102734 90.21349378060059, 2.512027465537656 59.01922718879648, 11.080581609646213 38.58670409361991" fill="none" stroke="#000000" stroke-width="1"/><polygon points="15.9480906303106,28.44567267150665 15.129026362995855,39.00877513839621 8.720562237088886,36.192467707208436" fill="#000000" stroke="#000000" stroke-width="1"/><path d="M 83.03849682593157 151.4526165779577 C 93.5147703747837 141.84420108613548, 104.41268180153337 129.7290388404861, 110.32584175982802 115.92000000000002 C 118.76544274321375 96.21094788577507, 116.2691963980793 88.27976057249154, 110.32584175982802 67.67999999999999 C 107.63216832694957 58.34368555215399, 102.66046529399688 49.06897985834871, 97.85961798301597 41.04774000115518" fill="none" stroke="#000000" stroke-width="1"/><polygon points="91.85287482369756,31.325327858857886 100.04400302371928,38.04510604052504 94.06567684450116,41.68648161781386" fill="#000000" stroke="#000000" stroke-width="1"/><path d="M 63.48508332160593 116.20508075127756 C 64.0152324974787 123.67608650899288, 64.18856305194792 132.11167877602114, 64.00507498501355 140.21342139838399" fill="none" stroke="#000000" stroke-width="1" stroke-dasharray="2,2"/><polygon points="63.480932091859295,151.6932974243164 60.34435459322734,141.57342185220216 67.33978834614034,141.8262194166794" fill="#000000" stroke="#000000" stroke-width="1"/><path d="M 92.20169869342178 105.98686523437503 C 102.18662300982805 105.43051757812503, 109.88584175982803 100.70156250000002, 109.88584175982803 91.80000000000001 C 109.88584175982803 86.65378417968748, 107.31254330554337 82.90217274427414, 103.21197714072011 80.54516569375994" fill="none" stroke="#000000" stroke-width="1"/><polygon points="92.20169869342178,77.613134765625 102.7965087425488,77.61328615129024 100.4839613643735,84.22026160331781" fill="#000000" stroke="#000000" stroke-width="1"/><path d="M 41.189123009828045 67.39859375 C 37.346279238847195 59.459579076766964, 33.56898458638344 50.55096184242925, 30.601760055378648 42.449025059166836" fill="none" stroke="#000000" stroke-width="1"/><polygon points="27.024368065905875,31.71794132716954 33.612955350631765,40.01495992372266 27.000824479945766,42.31272521829069" fill="#000000" stroke="#000000" stroke-width="1"/><path d="M 60.48990425982804 67.39859375 C 63.60633072772355 58.25212940216065, 67.87121242474124 47.81869916423223, 72.18276540914626 38.81456771390517" fill="none" stroke="#000000" stroke-width="1"/><polygon points="77.3910003654036,28.722953524589542 76.06173319643024,39.23404522780904 69.79706171682652,36.11092319166638" fill="#000000" stroke="#000000" stroke-width="1"/><path d="M 26.43094135771526 32.0043573028286 C 22.250009629242957 51.790128408383346, 12.83275547671962 87.26457925333013, 22.325841759828037 115.92000000000002 C 25.386591447298954 125.15904697366753, 30.51344814010556 134.12750763980742, 35.97212875918971 142.17040263127362" fill="none" stroke="#000000" stroke-width="1"/><polygon points="42.678515197718035,151.47790236475745 34.071850082506934,145.29928475281474 39.80340044472216,141.2806617989423" fill="#000000" stroke="#000000" stroke-width="1"/><path d="M 36.1848692032817 28.3151010555774 C 40.68091245695716 36.034223209298794, 45.687800372919625 46.64408436398658, 49.85838617846524 56.93065305805439" fill="none" stroke="#000000" stroke-width="1"/><polygon points="53.845373009828045,67.39859375 46.929873773372385,59.372020987570124 53.44470517349047,56.81136251209249" fill="#000000" stroke="#000000" stroke-width="1"/><path d="M 100.80459911326139 24.764558882002802 C 111.20539437330487 34.21132844729327, 123.4688273794307 50.84551183242661, 128.32584175982805 67.67999999999999 C 134.26919639807934 88.27976057249154, 136.76544274321378 96.21094788577507, 128.32584175982805 115.92000000000002 C 122.01292145163009 130.66260164576028, 110.01847683361804 143.47455517149046, 97.57611490132273 153.36673092919784" fill="none" stroke="#000000" stroke-width="1"/><polygon points="88.51181498698463,160.0395958934703 94.29850881459132,151.16467760959083 98.56995898025015,156.71037084689613" fill="#000000" stroke="#000000" stroke-width="1"/><path d="M 86.70255002894731 32.16455980777741 C 84.648478574616 39.397205469347526, 81.40075369957952 48.33626184235239, 77.74856690489382 57.03610881285514" fill="none" stroke="#000000" stroke-width="1"/><polygon points="73.14615425982805,67.39859375 73.90810266010372,56.8312177921135 80.33169803868098,59.61284005480854" fill="#000000" stroke="#000000" stroke-width="1"/><g transform="translate(26.475841759828036,151.79000000000002)"><rect x="0" y="0" width="61.7" height="48.5" rx="9" fill="#ffffff"/><rect x="0.7500000000000001" y="0.7500000000000001" width="60.2" height="47" rx="9" fill="none" stroke="#000000" stroke-width="1.5"/><path d="M 9.75 1.5 L 51.95 1.5 Q 60.2 1.5 60.2 9.75 L 60.2 19.75 L 1.5 19.75 L 1.5 9.75 Q 1.5 1.5 9.75 1.5 Z" fill="#e53935"/><text x="30.85" y="14.1" text-anchor="middle" fill="#ffffff" font-size="11" font-family="Verdana">Attack</text><text x="30.85" y="38.65" text-anchor="middle" fill="#7f7f7f" font-size="14" font-family="Helvetica">Attack</text></g><g transform="translate(22.625841759828035,67.55000000000001)"><rect x="0" y="0" width="69.4" height="48.5" rx="9" fill="#ffffff"/><rect x="0.7500000000000001" y="0.7500000000000001" width="67.9" height="47" rx="9" fill="none" stroke="#000000" stroke-width="1.5"/><path d="M 9.75 1.5 L 59.650000000000006 1.5 Q 67.9 1.5 67.9 9.75 L 67.9 19.75 L 1.5 19.75 L 1.5 9.75 Q 1.5 1.5 9.75 1.5 Z" fill="#43a047"/><text x="34.7" y="14.1" text-anchor="middle" fill="#ffffff" font-size="11" font-family="Verdana">Defense</text><text x="34.7" y="38.65" text-anchor="middle" fill="#7f7f7f" font-size="14" font-family="Helvetica">Defense</text></g><g transform="translate(10.325841759828037,-0.1599999999999966)"><use href="#icon-and" x="0.0" y="0.0" width="32.0" height="32.0" fill="#000000"/></g><g transform="translate(71.32584175982802,-0.1599999999999966)"><use href="#icon-or" x="0.0" y="0.0" width="32.0" height="32.0" fill="#000000"/></g><text x="67.08984375" y="220.56000000000003" text-anchor="middle" fill="#000000" font-size="14" font-family="Helvetica">ADTree Meta Model</text><use href="#vithanco-watermark" x="106.6800390625" y="1.6126953125000032" width="17.726953124999998" height="17.713831768134714"/></svg>