<?xml version="1.0" encoding="utf-8" standalone="no"?>
<svg version="1.1" viewBox="0.00 0.00 226.00 760.00" xmlns="http://www.w3.org/2000/svg">
	<svg height="100.00" id="node1" width="200.00" x="13.00" y="-15.00">
		<svg height="44.00" width="88.00" x="56.00" y="28.00">
			<path d="M2.00 22.00L2.00 11.00 C2.00 6.03 6.03 2.00 11.00 2.00 L77.00 2.00 C81.97 2.00 86.00 6.03 86.00 11.00 L86.00 33.00 C86.00 37.97 81.97 42.00 77.00 42.00 C77.00 42.00 77.00 42.00 77.00 42.00 L11.00 42.00 C6.03 42.00 2.00 37.97 2.00 33.00 ZM2.00 22.00" fill="#f3f4f8" fill-opacity="1.00" />
			<svg height="44.00" width="88.00" x="0.00" y="0.00">
				<path d="M2.00 22.00L2.00 11.00 C2.00 6.03 6.03 2.00 11.00 2.00 L77.00 2.00 C81.97 2.00 86.00 6.03 86.00 11.00 L86.00 33.00 C86.00 37.97 81.97 42.00 77.00 42.00 C77.00 42.00 77.00 42.00 77.00 42.00 L11.00 42.00 C6.03 42.00 2.00 37.97 2.00 33.00 ZM2.00 22.00" fill="none" stroke="#000000" stroke-opacity="1.00" stroke-width="1.50" />
				<svg height="30.00" width="74.00" x="7.00" y="7.00">
					<svg height="30.00" width="40.00" x="34.00" y="0.00">
						<svg height="30.00" width="40.00" x="0.00" y="0.00">
							<text dominant-baseline="middle" fill="#000000" fill-opacity="1.00" font-family="Verdana" font-size="14.00" font-weight="normal" text-anchor="middle" x="20.00" y="15.00">Why?</text>
						</svg>
					</svg>
					<svg height="30.00" width="30.00" x="0.00" y="0.00">
						<svg x="0.00" y="-0.00">
							<path d="M18.30 27.00C18.30 28.50 16.80 30.00 15.00 30.00 C13.50 30.00 12.00 28.50 12.00 27.00 C12.00 25.20 13.50 23.70 15.00 23.70 C16.80 23.70 18.30 25.20 18.30 27.00 ZM15.30 0.00C10.20 0.00 6.30 3.30 6.30 9.90 L11.40 9.90 C11.40 7.20 12.30 4.80 15.00 4.80 C16.80 4.80 18.30 5.70 18.60 7.80 C18.60 9.90 17.70 10.80 16.20 12.30 C12.30 15.60 12.60 17.40 12.60 21.30 L17.70 21.30 C17.70 19.50 17.40 18.00 19.80 15.30 C21.60 13.50 23.70 11.40 23.70 8.10 C23.70 3.00 20.10 0.00 15.30 0.00 ZM15.30 0.00" fill="#5046f8" fill-opacity="1.00" />
						</svg>
						<svg height="30.00" width="30.00" x="0.00" y="0.00" />
					</svg>
				</svg>
			</svg>
		</svg>
	</svg>
	<svg height="24.63" id="edgeLine1" width="8.78" x="108.61" y="55.24">
		<path d="M4.39 8.78C4.39 10.45 4.39 12.14 4.39 13.82 " fill="none" stroke="#000000" stroke-opacity="1.00" stroke-width="1.50" />
		<svg height="10.00" id="edgeHead1" width="8.00" x="0.39" y="14.63">
			<path d="M5.00 0.00L5.00 0.00 L8.00 0.00 L4.00 10.00 L0.00 0.00 L3.00 0.00 L3.00 0.00 ZM5.00 0.00" fill="#000000" fill-opacity="1.00" />
		</svg>
		<svg height="8.78" id="edgeTail1" width="8.78" x="-0.00" y="0.00">
			<path d="M7.49 7.49C9.21 5.78 9.21 3.00 7.49 1.29 C5.78 -0.43 3.00 -0.43 1.29 1.29 C-0.43 3.00 -0.43 5.78 1.29 7.49 C3.00 9.21 5.78 9.21 7.49 7.49 " fill="#000000" fill-opacity="1.00" />
		</svg>
	</svg>
	<svg height="100.00" id="node2" width="200.00" x="13.00" y="50.00">
		<svg height="44.00" width="187.00" x="6.50" y="28.00">
			<path d="M2.00 22.00L2.00 11.00 C2.00 6.03 6.03 2.00 11.00 2.00 L176.00 2.00 C180.97 2.00 185.00 6.03 185.00 11.00 L185.00 33.00 C185.00 37.97 180.97 42.00 176.00 42.00 C176.00 42.00 176.00 42.00 176.00 42.00 L11.00 42.00 C6.03 42.00 2.00 37.97 2.00 33.00 ZM2.00 22.00" fill="#f6f7f8" fill-opacity="1.00" />
			<svg height="44.00" width="187.00" x="0.00" y="0.00">
				<path d="M2.00 22.00L2.00 11.00 C2.00 6.03 6.03 2.00 11.00 2.00 L176.00 2.00 C180.97 2.00 185.00 6.03 185.00 11.00 L185.00 33.00 C185.00 37.97 180.97 42.00 176.00 42.00 C176.00 42.00 176.00 42.00 176.00 42.00 L11.00 42.00 C6.03 42.00 2.00 37.97 2.00 33.00 ZM2.00 22.00" fill="none" stroke="#000000" stroke-opacity="1.00" stroke-width="1.50" />
				<svg height="30.00" width="173.00" x="7.00" y="7.00">
					<svg height="30.00" width="139.00" x="34.00" y="0.00">
						<svg height="30.00" width="139.00" x="0.00" y="0.00">
							<text dominant-baseline="middle" fill="#000000" fill-opacity="1.00" font-family="Verdana" font-size="14.00" font-weight="normal" text-anchor="middle" x="69.50" y="15.00">The Battery is dead</text>
						</svg>
					</svg>
					<svg height="30.00" width="30.00" x="0.00" y="0.00">
						<svg x="0.00" y="-0.00">
							<path d="M18.90 25.50C18.90 26.10 18.60 26.40 18.00 26.40 L12.00 26.40 C11.40 26.40 11.40 26.10 11.40 25.50 C11.40 25.20 11.40 24.90 12.00 24.90 L18.00 24.90 C18.60 24.90 18.90 25.20 18.90 25.50 ZM18.00 22.50L12.00 22.50 C11.40 22.50 11.40 22.80 11.40 23.10 C11.40 23.40 11.40 23.70 12.00 23.70 L18.00 23.70 C18.60 23.70 18.90 23.40 18.90 23.10 C18.90 22.80 18.60 22.50 18.00 22.50 ZM13.50 29.70C13.50 29.70 14.10 30.00 14.40 30.00 L15.60 30.00 C15.90 30.00 16.50 29.70 16.50 29.70 L18.30 27.60 L11.70 27.60 L13.50 29.70 ZM23.70 8.40C23.70 13.50 19.20 17.10 19.20 21.30 L10.80 21.30 C10.80 17.10 6.30 13.50 6.30 8.40 C6.30 3.00 10.50 0.00 15.00 0.00 C19.50 0.00 23.70 3.00 23.70 8.40 ZM14.10 4.50L13.80 3.30 C11.40 3.60 9.90 5.40 9.30 8.10 L10.80 8.10 C11.10 7.20 11.70 5.10 14.10 4.50 ZM14.10 4.50" fill="#b4aa45" fill-opacity="1.00" />
						</svg>
						<svg height="30.00" width="30.00" x="0.00" y="0.00" />
					</svg>
				</svg>
			</svg>
		</svg>
	</svg>
	<svg height="24.63" id="edgeLine2" width="8.78" x="108.61" y="120.24">
		<path d="M4.39 8.78C4.39 10.45 4.39 12.14 4.39 13.82 " fill="none" stroke="#000000" stroke-opacity="1.00" stroke-width="1.50" />
		<svg height="10.00" id="edgeHead2" width="8.00" x="0.39" y="14.63">
			<path d="M5.00 0.00L5.00 0.00 L8.00 0.00 L4.00 10.00 L0.00 0.00 L3.00 0.00 L3.00 0.00 ZM5.00 0.00" fill="#000000" fill-opacity="1.00" />
		</svg>
		<svg height="8.78" id="edgeTail2" width="8.78" x="-0.00" y="0.00">
			<path d="M7.49 7.49C9.21 5.78 9.21 3.00 7.49 1.29 C5.78 -0.43 3.00 -0.43 1.29 1.29 C-0.43 3.00 -0.43 5.78 1.29 7.49 C3.00 9.21 5.78 9.21 7.49 7.49 " fill="#000000" fill-opacity="1.00" />
		</svg>
	</svg>
	<svg height="100.00" id="node3" width="200.00" x="13.00" y="115.00">
		<svg height="44.00" width="88.00" x="56.00" y="28.00">
			<path d="M2.00 22.00L2.00 11.00 C2.00 6.03 6.03 2.00 11.00 2.00 L77.00 2.00 C81.97 2.00 86.00 6.03 86.00 11.00 L86.00 33.00 C86.00 37.97 81.97 42.00 77.00 42.00 C77.00 42.00 77.00 42.00 77.00 42.00 L11.00 42.00 C6.03 42.00 2.00 37.97 2.00 33.00 ZM2.00 22.00" fill="#f3f4f8" fill-opacity="1.00" />
			<svg height="44.00" width="88.00" x="0.00" y="0.00">
				<path d="M2.00 22.00L2.00 11.00 C2.00 6.03 6.03 2.00 11.00 2.00 L77.00 2.00 C81.97 2.00 86.00 6.03 86.00 11.00 L86.00 33.00 C86.00 37.97 81.97 42.00 77.00 42.00 C77.00 42.00 77.00 42.00 77.00 42.00 L11.00 42.00 C6.03 42.00 2.00 37.97 2.00 33.00 ZM2.00 22.00" fill="none" stroke="#000000" stroke-opacity="1.00" stroke-width="1.50" />
				<svg height="30.00" width="74.00" x="7.00" y="7.00">
					<svg height="30.00" width="40.00" x="34.00" y="0.00">
						<svg height="30.00" width="40.00" x="0.00" y="0.00">
							<text dominant-baseline="middle" fill="#000000" fill-opacity="1.00" font-family="Verdana" font-size="14.00" font-weight="normal" text-anchor="middle" x="20.00" y="15.00">Why?</text>
						</svg>
					</svg>
					<svg height="30.00" width="30.00" x="0.00" y="0.00">
						<svg x="0.00" y="-0.00">
							<path d="M18.30 27.00C18.30 28.50 16.80 30.00 15.00 30.00 C13.50 30.00 12.00 28.50 12.00 27.00 C12.00 25.20 13.50 23.70 15.00 23.70 C16.80 23.70 18.30 25.20 18.30 27.00 ZM15.30 0.00C10.20 0.00 6.30 3.30 6.30 9.90 L11.40 9.90 C11.40 7.20 12.30 4.80 15.00 4.80 C16.80 4.80 18.30 5.70 18.60 7.80 C18.60 9.90 17.70 10.80 16.20 12.30 C12.30 15.60 12.60 17.40 12.60 21.30 L17.70 21.30 C17.70 19.50 17.40 18.00 19.80 15.30 C21.60 13.50 23.70 11.40 23.70 8.10 C23.70 3.00 20.10 0.00 15.30 0.00 ZM15.30 0.00" fill="#5046f8" fill-opacity="1.00" />
						</svg>
						<svg height="30.00" width="30.00" x="0.00" y="0.00" />
					</svg>
				</svg>
			</svg>
		</svg>
	</svg>
	<svg height="100.00" id="node4" width="200.00" x="13.00" y="182.50">
		<svg height="49.00" width="165.00" x="17.50" y="25.50">
			<path d="M2.00 24.50L2.00 11.00 C2.00 6.03 6.03 2.00 11.00 2.00 L154.00 2.00 C158.97 2.00 163.00 6.03 163.00 11.00 L163.00 38.00 C163.00 42.97 158.97 47.00 154.00 47.00 C154.00 47.00 154.00 47.00 154.00 47.00 L11.00 47.00 C6.03 47.00 2.00 42.97 2.00 38.00 ZM2.00 24.50" fill="#f6f7f8" fill-opacity="1.00" />
			<svg height="49.00" width="165.00" x="0.00" y="0.00">
				<path d="M2.00 24.50L2.00 11.00 C2.00 6.03 6.03 2.00 11.00 2.00 L154.00 2.00 C158.97 2.00 163.00 6.03 163.00 11.00 L163.00 38.00 C163.00 42.97 158.97 47.00 154.00 47.00 C154.00 47.00 154.00 47.00 154.00 47.00 L11.00 47.00 C6.03 47.00 2.00 42.97 2.00 38.00 ZM2.00 24.50" fill="none" stroke="#000000" stroke-opacity="1.00" stroke-width="1.50" />
				<svg height="35.00" width="151.00" x="7.00" y="7.00">
					<svg height="35.00" width="117.00" x="34.00" y="0.00">
						<svg height="35.00" width="117.00" x="0.00" y="0.00">
							<text dominant-baseline="middle" fill="#000000" fill-opacity="1.00" font-family="Verdana" font-size="14.00" font-weight="normal" text-anchor="middle" x="58.50" y="8.75">The alternator is</text>
							<text dominant-baseline="middle" fill="#000000" fill-opacity="1.00" font-family="Verdana" font-size="14.00" font-weight="normal" text-anchor="middle" x="58.50" y="26.25">not functioning</text>
						</svg>
					</svg>
					<svg height="35.00" width="30.00" x="0.00" y="0.00">
						<svg x="0.00" y="-2.50">
							<path d="M18.90 30.50C18.90 31.10 18.60 31.40 18.00 31.40 L12.00 31.40 C11.40 31.40 11.40 31.10 11.40 30.50 C11.40 30.20 11.40 29.90 12.00 29.90 L18.00 29.90 C18.60 29.90 18.90 30.20 18.90 30.50 ZM18.00 27.50L12.00 27.50 C11.40 27.50 11.40 27.80 11.40 28.10 C11.40 28.40 11.40 28.70 12.00 28.70 L18.00 28.70 C18.60 28.70 18.90 28.40 18.90 28.10 C18.90 27.80 18.60 27.50 18.00 27.50 ZM13.50 34.70C13.50 34.70 14.10 35.00 14.40 35.00 L15.60 35.00 C15.90 35.00 16.50 34.70 16.50 34.70 L18.30 32.60 L11.70 32.60 L13.50 34.70 ZM23.70 13.40C23.70 18.50 19.20 22.10 19.20 26.30 L10.80 26.30 C10.80 22.10 6.30 18.50 6.30 13.40 C6.30 8.00 10.50 5.00 15.00 5.00 C19.50 5.00 23.70 8.00 23.70 13.40 ZM14.10 9.50L13.80 8.30 C11.40 8.60 9.90 10.40 9.30 13.10 L10.80 13.10 C11.10 12.20 11.70 10.10 14.10 9.50 ZM14.10 9.50" fill="#b4aa45" fill-opacity="1.00" />
						</svg>
						<svg height="30.00" width="30.00" x="0.00" y="2.00" />
					</svg>
				</svg>
			</svg>
		</svg>
	</svg>
	<svg height="24.52" id="edgeLine3" width="8.66" x="108.67" y="185.30">
		<path d="M4.33 8.67C4.33 10.32 4.33 12.00 4.33 13.67 " fill="none" stroke="#000000" stroke-opacity="1.00" stroke-width="1.50" />
		<svg height="10.00" id="edgeHead3" width="8.00" x="0.33" y="14.52">
			<path d="M5.00 0.00L5.00 0.00 L8.00 0.00 L4.00 10.00 L0.00 0.00 L3.00 0.00 L3.00 0.00 ZM5.00 0.00" fill="#000000" fill-opacity="1.00" />
		</svg>
		<svg height="8.66" id="edgeTail3" width="8.66" x="0.00" y="0.00">
			<path d="M7.39 7.39C9.09 5.70 9.09 2.96 7.39 1.27 C5.70 -0.43 2.96 -0.43 1.27 1.27 C-0.42 2.96 -0.42 5.70 1.27 7.39 C2.96 9.08 5.70 9.08 7.39 7.39 " fill="#000000" fill-opacity="1.00" />
		</svg>
	</svg>
	<svg height="24.39" id="edgeLine4" width="8.78" x="108.61" y="255.31">
		<path d="M4.39 8.77C4.39 10.43 4.39 12.10 4.39 13.76 " fill="none" stroke="#000000" stroke-opacity="1.00" stroke-width="1.50" />
		<svg height="10.00" id="edgeHead4" width="8.00" x="0.39" y="14.39">
			<path d="M5.00 0.00L5.00 0.00 L8.00 0.00 L4.00 10.00 L0.00 0.00 L3.00 0.00 L3.00 0.00 ZM5.00 0.00" fill="#000000" fill-opacity="1.00" />
		</svg>
		<svg height="8.78" id="edgeTail4" width="8.78" x="-0.00" y="-0.00">
			<path d="M7.49 7.49C9.21 5.78 9.21 3.00 7.49 1.29 C5.78 -0.43 3.00 -0.43 1.29 1.29 C-0.43 3.00 -0.43 5.78 1.29 7.49 C3.00 9.21 5.78 9.21 7.49 7.49 " fill="#000000" fill-opacity="1.00" />
		</svg>
	</svg>
	<svg height="100.00" id="node5" width="200.00" x="13.00" y="250.00">
		<svg height="44.00" width="88.00" x="56.00" y="28.00">
			<path d="M2.00 22.00L2.00 11.00 C2.00 6.03 6.03 2.00 11.00 2.00 L77.00 2.00 C81.97 2.00 86.00 6.03 86.00 11.00 L86.00 33.00 C86.00 37.97 81.97 42.00 77.00 42.00 C77.00 42.00 77.00 42.00 77.00 42.00 L11.00 42.00 C6.03 42.00 2.00 37.97 2.00 33.00 ZM2.00 22.00" fill="#f3f4f8" fill-opacity="1.00" />
			<svg height="44.00" width="88.00" x="0.00" y="0.00">
				<path d="M2.00 22.00L2.00 11.00 C2.00 6.03 6.03 2.00 11.00 2.00 L77.00 2.00 C81.97 2.00 86.00 6.03 86.00 11.00 L86.00 33.00 C86.00 37.97 81.97 42.00 77.00 42.00 C77.00 42.00 77.00 42.00 77.00 42.00 L11.00 42.00 C6.03 42.00 2.00 37.97 2.00 33.00 ZM2.00 22.00" fill="none" stroke="#000000" stroke-opacity="1.00" stroke-width="1.50" />
				<svg height="30.00" width="74.00" x="7.00" y="7.00">
					<svg height="30.00" width="40.00" x="34.00" y="0.00">
						<svg height="30.00" width="40.00" x="0.00" y="0.00">
							<text dominant-baseline="middle" fill="#000000" fill-opacity="1.00" font-family="Verdana" font-size="14.00" font-weight="normal" text-anchor="middle" x="20.00" y="15.00">Why?</text>
						</svg>
					</svg>
					<svg height="30.00" width="30.00" x="0.00" y="0.00">
						<svg x="0.00" y="-0.00">
							<path d="M18.30 27.00C18.30 28.50 16.80 30.00 15.00 30.00 C13.50 30.00 12.00 28.50 12.00 27.00 C12.00 25.20 13.50 23.70 15.00 23.70 C16.80 23.70 18.30 25.20 18.30 27.00 ZM15.30 0.00C10.20 0.00 6.30 3.30 6.30 9.90 L11.40 9.90 C11.40 7.20 12.30 4.80 15.00 4.80 C16.80 4.80 18.30 5.70 18.60 7.80 C18.60 9.90 17.70 10.80 16.20 12.30 C12.30 15.60 12.60 17.40 12.60 21.30 L17.70 21.30 C17.70 19.50 17.40 18.00 19.80 15.30 C21.60 13.50 23.70 11.40 23.70 8.10 C23.70 3.00 20.10 0.00 15.30 0.00 ZM15.30 0.00" fill="#5046f8" fill-opacity="1.00" />
						</svg>
						<svg height="30.00" width="30.00" x="0.00" y="0.00" />
					</svg>
				</svg>
			</svg>
		</svg>
	</svg>
	<svg height="24.52" id="edgeLine5" width="8.66" x="108.67" y="320.30">
		<path d="M4.33 8.67C4.33 10.32 4.33 12.00 4.33 13.67 " fill="none" stroke="#000000" stroke-opacity="1.00" stroke-width="1.50" />
		<svg height="10.00" id="edgeHead5" width="8.00" x="0.33" y="14.52">
			<path d="M5.00 0.00L5.00 0.00 L8.00 0.00 L4.00 10.00 L0.00 0.00 L3.00 0.00 L3.00 0.00 ZM5.00 0.00" fill="#000000" fill-opacity="1.00" />
		</svg>
		<svg height="8.66" id="edgeTail5" width="8.66" x="0.00" y="0.00">
			<path d="M7.39 7.39C9.09 5.70 9.09 2.96 7.39 1.27 C5.70 -0.43 2.96 -0.43 1.27 1.27 C-0.42 2.96 -0.42 5.70 1.27 7.39 C2.96 9.08 5.70 9.08 7.39 7.39 " fill="#000000" fill-opacity="1.00" />
		</svg>
	</svg>
	<svg height="100.00" id="node6" width="200.00" x="13.00" y="317.50">
		<svg height="49.00" width="164.00" x="18.00" y="25.50">
			<path d="M2.00 24.50L2.00 11.00 C2.00 6.03 6.03 2.00 11.00 2.00 L153.00 2.00 C157.97 2.00 162.00 6.03 162.00 11.00 L162.00 38.00 C162.00 42.97 157.97 47.00 153.00 47.00 C153.00 47.00 153.00 47.00 153.00 47.00 L11.00 47.00 C6.03 47.00 2.00 42.97 2.00 38.00 ZM2.00 24.50" fill="#f6f7f8" fill-opacity="1.00" />
			<svg height="49.00" width="164.00" x="0.00" y="0.00">
				<path d="M2.00 24.50L2.00 11.00 C2.00 6.03 6.03 2.00 11.00 2.00 L153.00 2.00 C157.97 2.00 162.00 6.03 162.00 11.00 L162.00 38.00 C162.00 42.97 157.97 47.00 153.00 47.00 C153.00 47.00 153.00 47.00 153.00 47.00 L11.00 47.00 C6.03 47.00 2.00 42.97 2.00 38.00 ZM2.00 24.50" fill="none" stroke="#000000" stroke-opacity="1.00" stroke-width="1.50" />
				<svg height="35.00" width="150.00" x="7.00" y="7.00">
					<svg height="35.00" width="116.00" x="34.00" y="0.00">
						<svg height="35.00" width="116.00" x="0.00" y="0.00">
							<text dominant-baseline="middle" fill="#000000" fill-opacity="1.00" font-family="Verdana" font-size="14.00" font-weight="normal" text-anchor="middle" x="58.00" y="8.75">The alternator</text>
							<text dominant-baseline="middle" fill="#000000" fill-opacity="1.00" font-family="Verdana" font-size="14.00" font-weight="normal" text-anchor="middle" x="58.00" y="26.25">belt has broken.</text>
						</svg>
					</svg>
					<svg height="35.00" width="30.00" x="0.00" y="0.00">
						<svg x="0.00" y="-2.50">
							<path d="M18.90 30.50C18.90 31.10 18.60 31.40 18.00 31.40 L12.00 31.40 C11.40 31.40 11.40 31.10 11.40 30.50 C11.40 30.20 11.40 29.90 12.00 29.90 L18.00 29.90 C18.60 29.90 18.90 30.20 18.90 30.50 ZM18.00 27.50L12.00 27.50 C11.40 27.50 11.40 27.80 11.40 28.10 C11.40 28.40 11.40 28.70 12.00 28.70 L18.00 28.70 C18.60 28.70 18.90 28.40 18.90 28.10 C18.90 27.80 18.60 27.50 18.00 27.50 ZM13.50 34.70C13.50 34.70 14.10 35.00 14.40 35.00 L15.60 35.00 C15.90 35.00 16.50 34.70 16.50 34.70 L18.30 32.60 L11.70 32.60 L13.50 34.70 ZM23.70 13.40C23.70 18.50 19.20 22.10 19.20 26.30 L10.80 26.30 C10.80 22.10 6.30 18.50 6.30 13.40 C6.30 8.00 10.50 5.00 15.00 5.00 C19.50 5.00 23.70 8.00 23.70 13.40 ZM14.10 9.50L13.80 8.30 C11.40 8.60 9.90 10.40 9.30 13.10 L10.80 13.10 C11.10 12.20 11.70 10.10 14.10 9.50 ZM14.10 9.50" fill="#b4aa45" fill-opacity="1.00" />
						</svg>
						<svg height="30.00" width="30.00" x="0.00" y="2.00" />
					</svg>
				</svg>
			</svg>
		</svg>
	</svg>
	<svg height="24.39" id="edgeLine6" width="8.78" x="108.61" y="390.31">
		<path d="M4.39 8.77C4.39 10.43 4.39 12.10 4.39 13.76 " fill="none" stroke="#000000" stroke-opacity="1.00" stroke-width="1.50" />
		<svg height="10.00" id="edgeHead6" width="8.00" x="0.39" y="14.39">
			<path d="M5.00 0.00L5.00 0.00 L8.00 0.00 L4.00 10.00 L0.00 0.00 L3.00 0.00 L3.00 0.00 ZM5.00 0.00" fill="#000000" fill-opacity="1.00" />
		</svg>
		<svg height="8.78" id="edgeTail6" width="8.78" x="-0.00" y="-0.00">
			<path d="M7.49 7.49C9.21 5.78 9.21 3.00 7.49 1.29 C5.78 -0.43 3.00 -0.43 1.29 1.29 C-0.43 3.00 -0.43 5.78 1.29 7.49 C3.00 9.21 5.78 9.21 7.49 7.49 " fill="#000000" fill-opacity="1.00" />
		</svg>
	</svg>
	<svg height="100.00" id="node7" width="200.00" x="13.00" y="385.00">
		<svg height="44.00" width="88.00" x="56.00" y="28.00">
			<path d="M2.00 22.00L2.00 11.00 C2.00 6.03 6.03 2.00 11.00 2.00 L77.00 2.00 C81.97 2.00 86.00 6.03 86.00 11.00 L86.00 33.00 C86.00 37.97 81.97 42.00 77.00 42.00 C77.00 42.00 77.00 42.00 77.00 42.00 L11.00 42.00 C6.03 42.00 2.00 37.97 2.00 33.00 ZM2.00 22.00" fill="#f3f4f8" fill-opacity="1.00" />
			<svg height="44.00" width="88.00" x="0.00" y="0.00">
				<path d="M2.00 22.00L2.00 11.00 C2.00 6.03 6.03 2.00 11.00 2.00 L77.00 2.00 C81.97 2.00 86.00 6.03 86.00 11.00 L86.00 33.00 C86.00 37.97 81.97 42.00 77.00 42.00 C77.00 42.00 77.00 42.00 77.00 42.00 L11.00 42.00 C6.03 42.00 2.00 37.97 2.00 33.00 ZM2.00 22.00" fill="none" stroke="#000000" stroke-opacity="1.00" stroke-width="1.50" />
				<svg height="30.00" width="74.00" x="7.00" y="7.00">
					<svg height="30.00" width="40.00" x="34.00" y="0.00">
						<svg height="30.00" width="40.00" x="0.00" y="0.00">
							<text dominant-baseline="middle" fill="#000000" fill-opacity="1.00" font-family="Verdana" font-size="14.00" font-weight="normal" text-anchor="middle" x="20.00" y="15.00">Why?</text>
						</svg>
					</svg>
					<svg height="30.00" width="30.00" x="0.00" y="0.00">
						<svg x="0.00" y="-0.00">
							<path d="M18.30 27.00C18.30 28.50 16.80 30.00 15.00 30.00 C13.50 30.00 12.00 28.50 12.00 27.00 C12.00 25.20 13.50 23.70 15.00 23.70 C16.80 23.70 18.30 25.20 18.30 27.00 ZM15.30 0.00C10.20 0.00 6.30 3.30 6.30 9.90 L11.40 9.90 C11.40 7.20 12.30 4.80 15.00 4.80 C16.80 4.80 18.30 5.70 18.60 7.80 C18.60 9.90 17.70 10.80 16.20 12.30 C12.30 15.60 12.60 17.40 12.60 21.30 L17.70 21.30 C17.70 19.50 17.40 18.00 19.80 15.30 C21.60 13.50 23.70 11.40 23.70 8.10 C23.70 3.00 20.10 0.00 15.30 0.00 ZM15.30 0.00" fill="#5046f8" fill-opacity="1.00" />
						</svg>
						<svg height="30.00" width="30.00" x="0.00" y="0.00" />
					</svg>
				</svg>
			</svg>
		</svg>
	</svg>
	<svg height="24.50" id="edgeLine7" width="8.73" x="108.64" y="455.13">
		<path d="M4.36 8.73C4.36 10.31 4.36 11.93 4.36 13.56 " fill="none" stroke="#000000" stroke-opacity="1.00" stroke-width="1.50" />
		<svg height="10.00" id="edgeHead7" width="8.00" x="0.36" y="14.50">
			<path d="M5.00 0.00L5.00 0.00 L8.00 0.00 L4.00 10.00 L0.00 0.00 L3.00 0.00 L3.00 0.00 ZM5.00 0.00" fill="#000000" fill-opacity="1.00" />
		</svg>
		<svg height="8.73" id="edgeTail7" width="8.73" x="-0.00" y="-0.00">
			<path d="M7.45 7.45C9.15 5.75 9.15 2.98 7.45 1.28 C5.75 -0.42 2.98 -0.42 1.28 1.28 C-0.43 2.98 -0.43 5.75 1.28 7.45 C2.98 9.16 5.75 9.16 7.45 7.45 " fill="#000000" fill-opacity="1.00" />
		</svg>
	</svg>
	<svg height="100.00" id="node8" width="200.00" x="13.00" y="469.50">
		<svg height="83.00" width="186.00" x="7.00" y="8.50">
			<path d="M2.00 41.50L2.00 11.00 C2.00 6.03 6.03 2.00 11.00 2.00 L175.00 2.00 C179.97 2.00 184.00 6.03 184.00 11.00 L184.00 72.00 C184.00 76.97 179.97 81.00 175.00 81.00 L11.00 81.00 C6.03 81.00 2.00 76.97 2.00 72.00 ZM2.00 41.50" fill="#f6f7f8" fill-opacity="1.00" />
			<svg height="83.00" width="186.00" x="0.00" y="0.00">
				<path d="M2.00 41.50L2.00 11.00 C2.00 6.03 6.03 2.00 11.00 2.00 L175.00 2.00 C179.97 2.00 184.00 6.03 184.00 11.00 L184.00 72.00 C184.00 76.97 179.97 81.00 175.00 81.00 L11.00 81.00 C6.03 81.00 2.00 76.97 2.00 72.00 ZM2.00 41.50" fill="none" stroke="#000000" stroke-opacity="1.00" stroke-width="1.50" />
				<svg height="69.00" width="172.00" x="7.00" y="7.00">
					<svg height="69.00" width="138.00" x="34.00" y="0.00">
						<svg height="69.00" width="138.00" x="0.00" y="0.00">
							<text dominant-baseline="middle" fill="#000000" fill-opacity="1.00" font-family="Verdana" font-size="14.00" font-weight="normal" text-anchor="middle" x="69.00" y="8.62">The alternator belt</text>
							<text dominant-baseline="middle" fill="#000000" fill-opacity="1.00" font-family="Verdana" font-size="14.00" font-weight="normal" text-anchor="middle" x="69.00" y="25.88">was well beyond its</text>
							<text dominant-baseline="middle" fill="#000000" fill-opacity="1.00" font-family="Verdana" font-size="14.00" font-weight="normal" text-anchor="middle" x="69.00" y="43.12">useful service life</text>
							<text dominant-baseline="middle" fill="#000000" fill-opacity="1.00" font-family="Verdana" font-size="14.00" font-weight="normal" text-anchor="middle" x="69.00" y="60.38">and not replaced.</text>
						</svg>
					</svg>
					<svg height="69.00" width="30.00" x="0.00" y="0.00">
						<svg x="0.00" y="-19.50">
							<path d="M18.90 64.50C18.90 65.10 18.60 65.40 18.00 65.40 L12.00 65.40 C11.40 65.40 11.40 65.10 11.40 64.50 C11.40 64.20 11.40 63.90 12.00 63.90 L18.00 63.90 C18.60 63.90 18.90 64.20 18.90 64.50 ZM18.00 61.50L12.00 61.50 C11.40 61.50 11.40 61.80 11.40 62.10 C11.40 62.40 11.40 62.70 12.00 62.70 L18.00 62.70 C18.60 62.70 18.90 62.40 18.90 62.10 C18.90 61.80 18.60 61.50 18.00 61.50 ZM13.50 68.70C13.50 68.70 14.10 69.00 14.40 69.00 L15.60 69.00 C15.90 69.00 16.50 68.70 16.50 68.70 L18.30 66.60 L11.70 66.60 L13.50 68.70 ZM23.70 47.40C23.70 52.50 19.20 56.10 19.20 60.30 L10.80 60.30 C10.80 56.10 6.30 52.50 6.30 47.40 C6.30 42.00 10.50 39.00 15.00 39.00 C19.50 39.00 23.70 42.00 23.70 47.40 ZM14.10 43.50L13.80 42.30 C11.40 42.60 9.90 44.40 9.30 47.10 L10.80 47.10 C11.10 46.20 11.70 44.10 14.10 43.50 ZM14.10 43.50" fill="#b4aa45" fill-opacity="1.00" />
						</svg>
						<svg height="30.00" width="30.00" x="0.00" y="19.00" />
					</svg>
				</svg>
			</svg>
		</svg>
	</svg>
	<svg height="100.00" id="node9" width="200.00" x="13.00" y="554.00">
		<svg height="44.00" width="88.00" x="56.00" y="28.00">
			<path d="M2.00 22.00L2.00 11.00 C2.00 6.03 6.03 2.00 11.00 2.00 L77.00 2.00 C81.97 2.00 86.00 6.03 86.00 11.00 L86.00 33.00 C86.00 37.97 81.97 42.00 77.00 42.00 C77.00 42.00 77.00 42.00 77.00 42.00 L11.00 42.00 C6.03 42.00 2.00 37.97 2.00 33.00 ZM2.00 22.00" fill="#f3f4f8" fill-opacity="1.00" />
			<svg height="44.00" width="88.00" x="0.00" y="0.00">
				<path d="M2.00 22.00L2.00 11.00 C2.00 6.03 6.03 2.00 11.00 2.00 L77.00 2.00 C81.97 2.00 86.00 6.03 86.00 11.00 L86.00 33.00 C86.00 37.97 81.97 42.00 77.00 42.00 C77.00 42.00 77.00 42.00 77.00 42.00 L11.00 42.00 C6.03 42.00 2.00 37.97 2.00 33.00 ZM2.00 22.00" fill="none" stroke="#000000" stroke-opacity="1.00" stroke-width="1.50" />
				<svg height="30.00" width="74.00" x="7.00" y="7.00">
					<svg height="30.00" width="40.00" x="34.00" y="0.00">
						<svg height="30.00" width="40.00" x="0.00" y="0.00">
							<text dominant-baseline="middle" fill="#000000" fill-opacity="1.00" font-family="Verdana" font-size="14.00" font-weight="normal" text-anchor="middle" x="20.00" y="15.00">Why?</text>
						</svg>
					</svg>
					<svg height="30.00" width="30.00" x="0.00" y="0.00">
						<svg x="0.00" y="-0.00">
							<path d="M18.30 27.00C18.30 28.50 16.80 30.00 15.00 30.00 C13.50 30.00 12.00 28.50 12.00 27.00 C12.00 25.20 13.50 23.70 15.00 23.70 C16.80 23.70 18.30 25.20 18.30 27.00 ZM15.30 0.00C10.20 0.00 6.30 3.30 6.30 9.90 L11.40 9.90 C11.40 7.20 12.30 4.80 15.00 4.80 C16.80 4.80 18.30 5.70 18.60 7.80 C18.60 9.90 17.70 10.80 16.20 12.30 C12.30 15.60 12.60 17.40 12.60 21.30 L17.70 21.30 C17.70 19.50 17.40 18.00 19.80 15.30 C21.60 13.50 23.70 11.40 23.70 8.10 C23.70 3.00 20.10 0.00 15.30 0.00 ZM15.30 0.00" fill="#5046f8" fill-opacity="1.00" />
						</svg>
						<svg height="30.00" width="30.00" x="0.00" y="0.00" />
					</svg>
				</svg>
			</svg>
		</svg>
	</svg>
	<svg height="24.53" id="edgeLine8" width="8.78" x="108.61" y="559.33">
		<path d="M4.39 8.78C4.39 10.43 4.39 12.06 4.39 13.67 " fill="none" stroke="#000000" stroke-opacity="1.00" stroke-width="1.50" />
		<svg height="10.00" id="edgeHead8" width="8.00" x="0.39" y="14.53">
			<path d="M5.00 0.00L5.00 0.00 L8.00 0.00 L4.00 10.00 L0.00 0.00 L3.00 0.00 L3.00 0.00 ZM5.00 0.00" fill="#000000" fill-opacity="1.00" />
		</svg>
		<svg height="8.78" id="edgeTail8" width="8.78" x="-0.00" y="0.00">
			<path d="M7.50 7.49C9.21 5.78 9.21 3.00 7.50 1.28 C5.78 -0.43 3.00 -0.43 1.29 1.28 C-0.43 3.00 -0.43 5.78 1.29 7.49 C3.00 9.21 5.78 9.21 7.50 7.49 " fill="#000000" fill-opacity="1.00" />
		</svg>
	</svg>
	<svg height="24.34" id="edgeLine9" width="8.97" x="108.51" y="624.30">
		<path d="M4.49 8.97C4.49 10.50 4.49 12.06 4.49 13.65 " fill="none" stroke="#000000" stroke-opacity="1.00" stroke-width="1.50" />
		<svg height="10.00" id="edgeHead9" width="8.00" x="0.49" y="14.34">
			<path d="M5.00 0.00L5.00 0.00 L8.00 0.00 L4.00 10.00 L0.00 0.00 L3.00 0.00 L3.00 0.00 ZM5.00 0.00" fill="#000000" fill-opacity="1.00" />
		</svg>
		<svg height="8.97" id="edgeTail9" width="8.97" x="0.00" y="-0.00">
			<path d="M7.66 7.66C9.41 5.90 9.41 3.06 7.66 1.31 C5.91 -0.44 3.07 -0.44 1.31 1.31 C-0.44 3.06 -0.44 5.90 1.31 7.66 C3.07 9.41 5.91 9.41 7.66 7.66 " fill="#000000" fill-opacity="1.00" />
		</svg>
	</svg>
	<svg height="100.00" id="node10" width="200.00" x="13.00" y="647.00">
		<svg height="100.00" width="200.00" x="0.00" y="0.00">
			<path d="M2.00 50.00L2.00 11.00 C2.00 6.03 6.03 2.00 11.00 2.00 L189.00 2.00 C193.97 2.00 198.00 6.03 198.00 11.00 L198.00 89.00 C198.00 93.97 193.97 98.00 189.00 98.00 L11.00 98.00 C6.03 98.00 2.00 93.97 2.00 89.00 ZM2.00 50.00" fill="#f6f7f8" fill-opacity="1.00" />
			<svg height="100.00" width="200.00" x="0.00" y="0.00">
				<path d="M2.00 50.00L2.00 11.00 C2.00 6.03 6.03 2.00 11.00 2.00 L189.00 2.00 C193.97 2.00 198.00 6.03 198.00 11.00 L198.00 89.00 C198.00 93.97 193.97 98.00 189.00 98.00 L11.00 98.00 C6.03 98.00 2.00 93.97 2.00 89.00 ZM2.00 50.00" fill="none" stroke="#000000" stroke-opacity="1.00" stroke-width="1.50" />
				<svg height="86.00" width="186.00" x="7.00" y="7.00">
					<svg height="86.00" width="152.00" x="34.00" y="0.00">
						<svg height="86.00" width="152.00" x="0.00" y="0.00">
							<text dominant-baseline="middle" fill="#000000" fill-opacity="1.00" font-family="Verdana" font-size="14.00" font-weight="normal" text-anchor="middle" x="76.00" y="8.60">The vehicle was not</text>
							<text dominant-baseline="middle" fill="#000000" fill-opacity="1.00" font-family="Verdana" font-size="14.00" font-weight="normal" text-anchor="middle" x="76.00" y="25.80">maintained according</text>
							<text dominant-baseline="middle" fill="#000000" fill-opacity="1.00" font-family="Verdana" font-size="14.00" font-weight="normal" text-anchor="middle" x="76.00" y="43.00">to the recommended</text>
							<text dominant-baseline="middle" fill="#000000" fill-opacity="1.00" font-family="Verdana" font-size="14.00" font-weight="normal" text-anchor="middle" x="76.00" y="60.20">service schedule.</text>
							<text dominant-baseline="middle" fill="#000000" fill-opacity="1.00" font-family="Verdana" font-size="14.00" font-weight="normal" text-anchor="middle" x="76.00" y="77.40">(A root cause)</text>
						</svg>
					</svg>
					<svg height="86.00" width="30.00" x="0.00" y="0.00">
						<svg x="0.00" y="-28.00">
							<path d="M18.90 81.50C18.90 82.10 18.60 82.40 18.00 82.40 L12.00 82.40 C11.40 82.40 11.40 82.10 11.40 81.50 C11.40 81.20 11.40 80.90 12.00 80.90 L18.00 80.90 C18.60 80.90 18.90 81.20 18.90 81.50 ZM18.00 78.50L12.00 78.50 C11.40 78.50 11.40 78.80 11.40 79.10 C11.40 79.40 11.40 79.70 12.00 79.70 L18.00 79.70 C18.60 79.70 18.90 79.40 18.90 79.10 C18.90 78.80 18.60 78.50 18.00 78.50 ZM13.50 85.70C13.50 85.70 14.10 86.00 14.40 86.00 L15.60 86.00 C15.90 86.00 16.50 85.70 16.50 85.70 L18.30 83.60 L11.70 83.60 L13.50 85.70 ZM23.70 64.40C23.70 69.50 19.20 73.10 19.20 77.30 L10.80 77.30 C10.80 73.10 6.30 69.50 6.30 64.40 C6.30 59.00 10.50 56.00 15.00 56.00 C19.50 56.00 23.70 59.00 23.70 64.40 ZM14.10 60.50L13.80 59.30 C11.40 59.60 9.90 61.40 9.30 64.10 L10.80 64.10 C11.10 63.20 11.70 61.10 14.10 60.50 ZM14.10 60.50" fill="#b4aa45" fill-opacity="1.00" />
						</svg>
						<svg height="30.00" width="30.00" x="0.00" y="28.00" />
					</svg>
				</svg>
			</svg>
		</svg>
	</svg>
</svg>