<?xml version="1.0" encoding="utf-8" standalone="no"?>
<svg version="1.1" viewBox="0.00 0.00 524.00 637.00" xmlns="http://www.w3.org/2000/svg">
	<svg height="100.00" id="node6" width="100.00" x="284.00" y="210.00">
		<svg height="32.00" width="32.00" x="34.00" y="34.00">
			<svg height="32.00" width="32.00" x="0.00" y="0.00">
				<svg x="0.00" y="-0.00">
					<path d="M6.57 13.27C6.57 13.27 6.64 13.51 6.75 13.85 C7.05 14.81 7.61 16.63 7.61 16.63 L5.40 16.63 C5.40 16.63 5.44 16.51 5.51 16.28 C5.59 16.05 5.67 15.77 5.77 15.44 L6.09 14.44 C6.20 14.11 6.28 13.84 6.36 13.61 C6.43 13.39 6.47 13.27 6.47 13.27 L6.57 13.27 L6.57 13.27 ZM19.37 11.55L17.68 11.55 L17.68 16.93 L17.57 16.93 L13.69 11.55 L12.21 11.55 L12.21 20.00 L13.91 20.00 L13.91 14.59 L14.01 14.59 L17.91 20.00 L19.37 20.00 L19.37 11.55 ZM26.49 13.72C26.92 14.20 27.13 14.88 27.13 15.75 C27.13 16.65 26.92 17.33 26.51 17.83 C26.08 18.31 25.48 18.55 24.69 18.55 L23.43 18.55 C23.43 18.55 23.43 18.41 23.43 18.13 C23.43 17.87 23.43 17.53 23.43 17.11 C23.43 16.69 23.43 16.24 23.43 15.77 C23.43 15.31 23.43 14.85 23.43 14.44 C23.43 14.01 23.43 13.67 23.43 13.40 C23.43 13.13 23.43 13.00 23.43 13.00 L24.69 13.00 C25.47 13.00 26.07 13.24 26.49 13.72 ZM24.97 11.53L21.65 11.53 L21.65 20.00 L24.97 20.00 C26.24 20.00 27.23 19.63 27.91 18.89 C28.60 18.15 28.95 17.09 28.95 15.72 C28.95 14.39 28.60 13.36 27.91 12.63 C27.21 11.91 26.24 11.53 24.97 11.53 ZM7.61 11.55L5.52 11.55 L2.60 20.00 L4.37 20.00 L5.03 17.95 L7.99 17.95 C7.99 17.95 8.03 18.05 8.09 18.25 C8.16 18.47 8.23 18.71 8.31 18.97 C8.40 19.24 8.47 19.48 8.53 19.69 C8.60 19.89 8.63 20.00 8.63 20.00 L10.55 20.00 L7.61 11.55 ZM32.00 16.00C32.00 24.84 24.84 32.00 16.00 32.00 C12.43 32.00 9.13 30.83 6.47 28.85 C2.55 25.93 0.00 21.27 0.00 16.00 C0.00 7.16 7.16 0.00 16.00 0.00 C24.84 0.00 32.00 7.16 32.00 16.00 ZM32.00 16.00" fill="#000000" fill-opacity="1.00" />
				</svg>
				<svg height="32.00" width="32.00" x="0.00" y="0.00" />
			</svg>
		</svg>
	</svg>
	<svg height="100.00" id="node3" width="100.00" x="173.00" y="492.00">
		<svg height="68.00" width="99.00" x="0.50" y="16.00">
			<path d="M2.00 34.00L2.00 11.00 C2.00 6.03 6.03 2.00 11.00 2.00 L88.00 2.00 C92.97 2.00 97.00 6.03 97.00 11.00 L97.00 57.00 C97.00 61.97 92.97 66.00 88.00 66.00 L11.00 66.00 C6.03 66.00 2.00 61.97 2.00 57.00 ZM2.00 34.00" fill="#ffffff" fill-opacity="1.00" />
			<svg height="68.00" width="99.00" x="0.00" y="0.00">
				<path d="M2.75 21.75L2.75 10.25 C2.75 6.11 6.11 2.75 10.25 2.75 L88.75 2.75 C92.89 2.75 96.25 6.11 96.25 10.25 L96.25 21.75 L2.75 21.75 " fill="#2847cc" fill-opacity="1.00" />
				<text dominant-baseline="middle" fill="#ffffff" fill-opacity="1.00" font-family="Verdana" font-size="11.00" font-weight="bold" text-anchor="middle" x="49.50" y="12.25">Given</text>
				<svg height="68.00" width="99.00" x="0.00" y="0.00">
					<path d="M2.00 34.00L2.00 11.00 C2.00 6.03 6.03 2.00 11.00 2.00 L88.00 2.00 C92.97 2.00 97.00 6.03 97.00 11.00 L97.00 57.00 C97.00 61.97 92.97 66.00 88.00 66.00 L11.00 66.00 C6.03 66.00 2.00 61.97 2.00 57.00 ZM2.00 34.00" fill="none" stroke="#000000" stroke-opacity="1.00" stroke-width="1.50" />
					<svg height="35.00" width="85.00" x="7.00" y="26.00">
						<svg height="35.00" width="85.00" x="0.00" y="0.00">
							<text dominant-baseline="middle" fill="#000000" fill-opacity="1.00" font-family="Verdana" font-size="14.00" font-weight="normal" text-anchor="middle" x="42.50" y="8.75">A given fact</text>
							<text dominant-baseline="middle" fill="#000000" fill-opacity="1.00" font-family="Verdana" font-size="14.00" font-weight="normal" text-anchor="middle" x="42.50" y="26.25">is that ...</text>
						</svg>
					</svg>
				</svg>
			</svg>
		</svg>
	</svg>
	<svg height="100.00" id="node5" width="100.00" x="133.00" y="13.00">
		<svg height="100.00" width="94.00" x="3.00" y="0.00">
			<path d="M2.00 50.00L2.00 11.00 C2.00 6.03 6.03 2.00 11.00 2.00 L83.00 2.00 C87.97 2.00 92.00 6.03 92.00 11.00 L92.00 89.00 C92.00 93.97 87.97 98.00 83.00 98.00 L11.00 98.00 C6.03 98.00 2.00 93.97 2.00 89.00 ZM2.00 50.00" fill="#ffffff" fill-opacity="1.00" />
			<svg height="100.00" width="94.00" x="0.00" y="0.00">
				<path d="M2.75 21.75L2.75 10.25 C2.75 6.11 6.11 2.75 10.25 2.75 L83.75 2.75 C87.89 2.75 91.25 6.11 91.25 10.25 L91.25 21.75 L2.75 21.75 " fill="#fed009" fill-opacity="1.00" />
				<text dominant-baseline="middle" fill="#000000" fill-opacity="1.00" font-family="Verdana" font-size="11.00" font-weight="bold" text-anchor="middle" x="47.00" y="12.25">Goal</text>
				<svg height="100.00" width="94.00" x="0.00" y="0.00">
					<path d="M2.00 50.00L2.00 11.00 C2.00 6.03 6.03 2.00 11.00 2.00 L83.00 2.00 C87.97 2.00 92.00 6.03 92.00 11.00 L92.00 89.00 C92.00 93.97 87.97 98.00 83.00 98.00 L11.00 98.00 C6.03 98.00 2.00 93.97 2.00 89.00 ZM2.00 50.00" fill="none" stroke="#000000" stroke-opacity="1.00" stroke-width="1.50" />
					<svg height="67.00" width="80.00" x="7.00" y="26.00">
						<svg height="67.00" width="80.00" x="0.00" y="0.00">
							<text dominant-baseline="middle" fill="#000000" fill-opacity="1.00" font-family="Verdana" font-size="9.25" font-weight="normal" text-anchor="middle" x="40.00" y="5.58">A Goal, ideally</text>
							<text dominant-baseline="middle" fill="#000000" fill-opacity="1.00" font-family="Verdana" font-size="9.25" font-weight="normal" text-anchor="middle" x="40.00" y="16.75">SMART: Specific,</text>
							<text dominant-baseline="middle" fill="#000000" fill-opacity="1.00" font-family="Verdana" font-size="9.25" font-weight="normal" text-anchor="middle" x="40.00" y="27.92">Measurable,</text>
							<text dominant-baseline="middle" fill="#000000" fill-opacity="1.00" font-family="Verdana" font-size="9.25" font-weight="normal" text-anchor="middle" x="40.00" y="39.08">Assignable,</text>
							<text dominant-baseline="middle" fill="#000000" fill-opacity="1.00" font-family="Verdana" font-size="9.25" font-weight="normal" text-anchor="middle" x="40.00" y="50.25">Realistic,</text>
							<text dominant-baseline="middle" fill="#000000" fill-opacity="1.00" font-family="Verdana" font-size="9.25" font-weight="normal" text-anchor="middle" x="40.00" y="61.42">Time-related</text>
						</svg>
					</svg>
				</svg>
			</svg>
		</svg>
	</svg>
	<svg height="100.00" id="node2" width="100.00" x="212.00" y="128.50">
		<svg height="99.00" width="100.00" x="0.00" y="0.50">
			<path d="M2.00 49.50L2.00 11.00 C2.00 6.03 6.03 2.00 11.00 2.00 L89.00 2.00 C93.97 2.00 98.00 6.03 98.00 11.00 L98.00 88.00 C98.00 92.97 93.97 97.00 89.00 97.00 L11.00 97.00 C6.03 97.00 2.00 92.97 2.00 88.00 ZM2.00 49.50" fill="#ffffff" fill-opacity="1.00" />
			<svg height="99.00" width="100.00" x="0.00" y="0.00">
				<path d="M2.75 21.75L2.75 10.25 C2.75 6.11 6.11 2.75 10.25 2.75 L89.75 2.75 C93.89 2.75 97.25 6.11 97.25 10.25 L97.25 21.75 L2.75 21.75 " fill="#68cc51" fill-opacity="1.00" />
				<text dominant-baseline="middle" fill="#000000" fill-opacity="1.00" font-family="Verdana" font-size="11.00" font-weight="bold" text-anchor="middle" x="50.00" y="12.25">Desirable Effect</text>
				<svg height="99.00" width="100.00" x="0.00" y="0.00">
					<path d="M2.00 49.50L2.00 11.00 C2.00 6.03 6.03 2.00 11.00 2.00 L89.00 2.00 C93.97 2.00 98.00 6.03 98.00 11.00 L98.00 88.00 C98.00 92.97 93.97 97.00 89.00 97.00 L11.00 97.00 C6.03 97.00 2.00 92.97 2.00 88.00 ZM2.00 49.50" fill="none" stroke="#000000" stroke-opacity="1.00" stroke-width="1.50" />
					<svg height="66.00" width="86.00" x="7.00" y="26.00">
						<svg height="66.00" width="86.00" x="0.00" y="0.00">
							<text dominant-baseline="middle" fill="#000000" fill-opacity="1.00" font-family="Verdana" font-size="11.25" font-weight="normal" text-anchor="middle" x="43.00" y="6.60">Here a</text>
							<text dominant-baseline="middle" fill="#000000" fill-opacity="1.00" font-family="Verdana" font-size="11.25" font-weight="normal" text-anchor="middle" x="43.00" y="19.80">positive</text>
							<text dominant-baseline="middle" fill="#000000" fill-opacity="1.00" font-family="Verdana" font-size="11.25" font-weight="normal" text-anchor="middle" x="43.00" y="33.00">effect of</text>
							<text dominant-baseline="middle" fill="#000000" fill-opacity="1.00" font-family="Verdana" font-size="11.25" font-weight="normal" text-anchor="middle" x="43.00" y="46.20">previous</text>
							<text dominant-baseline="middle" fill="#000000" fill-opacity="1.00" font-family="Verdana" font-size="11.25" font-weight="normal" text-anchor="middle" x="43.00" y="59.40">action</text>
						</svg>
					</svg>
				</svg>
			</svg>
		</svg>
	</svg>
	<svg height="100.00" id="node1" width="100.00" x="173.00" y="558.00">
		<svg height="32.00" width="32.00" x="34.00" y="34.00">
			<svg height="32.00" width="32.00" x="0.00" y="0.00">
				<svg x="0.00" y="-0.00">
					<path d="M18.67 16.00L13.33 16.00 L13.33 0.00 L18.67 0.00 L18.67 16.00 ZM24.28 2.33L22.67 4.47 C26.64 6.79 29.33 11.08 29.33 16.00 C29.33 23.35 23.35 29.33 16.00 29.33 C8.65 29.33 2.67 23.35 2.67 16.00 C2.67 11.08 5.36 6.79 9.33 4.47 L7.72 2.33 C3.09 5.15 0.00 10.20 0.00 16.00 C0.00 24.84 7.16 32.00 16.00 32.00 C24.84 32.00 32.00 24.84 32.00 16.00 C32.00 10.20 28.91 5.15 24.28 2.33 ZM24.28 2.33" fill="#000000" fill-opacity="1.00" />
				</svg>
				<svg height="32.00" width="32.00" x="0.00" y="0.00" />
			</svg>
		</svg>
	</svg>
	<svg height="100.00" id="node8" width="100.00" x="173.00" y="399.50">
		<svg height="85.00" width="93.00" x="3.50" y="7.50">
			<path d="M2.00 42.50L2.00 11.00 C2.00 6.03 6.03 2.00 11.00 2.00 L82.00 2.00 C86.97 2.00 91.00 6.03 91.00 11.00 L91.00 74.00 C91.00 78.97 86.97 83.00 82.00 83.00 L11.00 83.00 C6.03 83.00 2.00 78.97 2.00 74.00 ZM2.00 42.50" fill="#ffffff" fill-opacity="1.00" />
			<svg height="85.00" width="93.00" x="0.00" y="0.00">
				<path d="M2.75 21.75L2.75 10.25 C2.75 6.11 6.11 2.75 10.25 2.75 L82.75 2.75 C86.89 2.75 90.25 6.11 90.25 10.25 L90.25 21.75 L2.75 21.75 " fill="#99451e" fill-opacity="1.00" />
				<text dominant-baseline="middle" fill="#ffffff" fill-opacity="1.00" font-family="Verdana" font-size="11.00" font-weight="bold" text-anchor="middle" x="46.50" y="12.25">Effect/Result</text>
				<svg height="85.00" width="93.00" x="0.00" y="0.00">
					<path d="M2.00 42.50L2.00 11.00 C2.00 6.03 6.03 2.00 11.00 2.00 L82.00 2.00 C86.97 2.00 91.00 6.03 91.00 11.00 L91.00 74.00 C91.00 78.97 86.97 83.00 82.00 83.00 L11.00 83.00 C6.03 83.00 2.00 78.97 2.00 74.00 ZM2.00 42.50" fill="none" stroke="#000000" stroke-opacity="1.00" stroke-width="1.50" />
					<svg height="52.00" width="79.00" x="7.00" y="26.00">
						<svg height="52.00" width="79.00" x="0.00" y="0.00">
							<text dominant-baseline="middle" fill="#000000" fill-opacity="1.00" font-family="Verdana" font-size="14.00" font-weight="normal" text-anchor="middle" x="39.50" y="8.67">An effect</text>
							<text dominant-baseline="middle" fill="#000000" fill-opacity="1.00" font-family="Verdana" font-size="14.00" font-weight="normal" text-anchor="middle" x="39.50" y="26.00">of previous</text>
							<text dominant-baseline="middle" fill="#000000" fill-opacity="1.00" font-family="Verdana" font-size="14.00" font-weight="normal" text-anchor="middle" x="39.50" y="43.33">action</text>
						</svg>
					</svg>
				</svg>
			</svg>
		</svg>
	</svg>
	<svg height="100.00" id="node7" width="100.00" x="254.00" y="291.50">
		<svg height="99.00" width="100.00" x="0.00" y="0.50">
			<path d="M2.00 49.50L2.00 11.00 C2.00 6.03 6.03 2.00 11.00 2.00 L89.00 2.00 C93.97 2.00 98.00 6.03 98.00 11.00 L98.00 88.00 C98.00 92.97 93.97 97.00 89.00 97.00 L11.00 97.00 C6.03 97.00 2.00 92.97 2.00 88.00 ZM2.00 49.50" fill="#ffffff" fill-opacity="1.00" />
			<svg height="99.00" width="100.00" x="0.00" y="0.00">
				<path d="M2.75 21.75L2.75 10.25 C2.75 6.11 6.11 2.75 10.25 2.75 L89.75 2.75 C93.89 2.75 97.25 6.11 97.25 10.25 L97.25 21.75 L2.75 21.75 " fill="#661423" fill-opacity="1.00" />
				<text dominant-baseline="middle" fill="#ffffff" fill-opacity="1.00" font-family="Verdana" font-size="11.00" font-weight="bold" text-anchor="middle" x="50.00" y="12.25">Un-Desirable Effect</text>
				<svg height="99.00" width="100.00" x="0.00" y="0.00">
					<path d="M2.00 49.50L2.00 11.00 C2.00 6.03 6.03 2.00 11.00 2.00 L89.00 2.00 C93.97 2.00 98.00 6.03 98.00 11.00 L98.00 88.00 C98.00 92.97 93.97 97.00 89.00 97.00 L11.00 97.00 C6.03 97.00 2.00 92.97 2.00 88.00 ZM2.00 49.50" fill="none" stroke="#000000" stroke-opacity="1.00" stroke-width="1.50" />
					<svg height="66.00" width="86.00" x="7.00" y="26.00">
						<svg height="66.00" width="86.00" x="0.00" y="0.00">
							<text dominant-baseline="middle" fill="#000000" fill-opacity="1.00" font-family="Verdana" font-size="11.25" font-weight="normal" text-anchor="middle" x="43.00" y="6.60">Here a</text>
							<text dominant-baseline="middle" fill="#000000" fill-opacity="1.00" font-family="Verdana" font-size="11.25" font-weight="normal" text-anchor="middle" x="43.00" y="19.80">negative</text>
							<text dominant-baseline="middle" fill="#000000" fill-opacity="1.00" font-family="Verdana" font-size="11.25" font-weight="normal" text-anchor="middle" x="43.00" y="33.00">effect of</text>
							<text dominant-baseline="middle" fill="#000000" fill-opacity="1.00" font-family="Verdana" font-size="11.25" font-weight="normal" text-anchor="middle" x="43.00" y="46.20">previous</text>
							<text dominant-baseline="middle" fill="#000000" fill-opacity="1.00" font-family="Verdana" font-size="11.25" font-weight="normal" text-anchor="middle" x="43.00" y="59.40">action</text>
						</svg>
					</svg>
				</svg>
			</svg>
		</svg>
	</svg>
	<svg height="100.00" id="node4" width="100.00" x="354.00" y="492.00">
		<svg height="68.00" width="89.00" x="5.50" y="16.00">
			<path d="M2.00 34.00L2.00 11.00 C2.00 6.03 6.03 2.00 11.00 2.00 L78.00 2.00 C82.97 2.00 87.00 6.03 87.00 11.00 L87.00 57.00 C87.00 61.97 82.97 66.00 78.00 66.00 L11.00 66.00 C6.03 66.00 2.00 61.97 2.00 57.00 ZM2.00 34.00" fill="#ffffff" fill-opacity="1.00" />
			<svg height="68.00" width="89.00" x="0.00" y="0.00">
				<path d="M2.75 21.75L2.75 10.25 C2.75 6.11 6.11 2.75 10.25 2.75 L78.75 2.75 C82.89 2.75 86.25 6.11 86.25 10.25 L86.25 21.75 L2.75 21.75 " fill="#5c28cc" fill-opacity="1.00" />
				<text dominant-baseline="middle" fill="#ffffff" fill-opacity="1.00" font-family="Verdana" font-size="11.00" font-weight="bold" text-anchor="middle" x="44.50" y="12.25">Action</text>
				<svg height="68.00" width="89.00" x="0.00" y="0.00">
					<path d="M2.00 34.00L2.00 11.00 C2.00 6.03 6.03 2.00 11.00 2.00 L78.00 2.00 C82.97 2.00 87.00 6.03 87.00 11.00 L87.00 57.00 C87.00 61.97 82.97 66.00 78.00 66.00 L11.00 66.00 C6.03 66.00 2.00 61.97 2.00 57.00 ZM2.00 34.00" fill="none" stroke="#000000" stroke-opacity="1.00" stroke-width="1.50" />
					<svg height="35.00" width="75.00" x="7.00" y="26.00">
						<svg height="35.00" width="75.00" x="0.00" y="0.00">
							<text dominant-baseline="middle" fill="#000000" fill-opacity="1.00" font-family="Verdana" font-size="14.00" font-weight="normal" text-anchor="middle" x="37.50" y="8.75">We/I need</text>
							<text dominant-baseline="middle" fill="#000000" fill-opacity="1.00" font-family="Verdana" font-size="14.00" font-weight="normal" text-anchor="middle" x="37.50" y="26.25">to ...</text>
						</svg>
					</svg>
				</svg>
			</svg>
		</svg>
	</svg>
	<svg height="121.53" id="edgeLine21" width="44.60" x="261.87" y="389.21">
		<path d="M7.27 113.82C10.62 109.69 13.65 105.33 16.13 100.79 C31.07 73.36 37.71 39.18 40.56 10.64 " fill="none" stroke="#000000" stroke-opacity="1.00" stroke-width="1.50" />
		<svg height="10.31" id="edgeHead21" width="7.97" x="36.63" y="0.00">
			<path d="M2.99 9.88L2.99 9.88 L0.00 9.63 L4.84 0.00 L7.97 10.31 L4.98 10.05 L4.98 10.05 ZM2.99 9.88" fill="#000000" fill-opacity="1.00" />
		</svg>
		<svg height="8.00" id="edgeTail21" width="8.00" x="0.00" y="113.53">
			<path d="M6.83 6.83C8.39 5.27 8.39 2.73 6.83 1.17 C5.27 -0.39 2.73 -0.39 1.17 1.17 C-0.39 2.73 -0.39 5.27 1.17 6.83 C2.73 8.39 5.27 8.39 6.83 6.83 " fill="#000000" fill-opacity="1.00" />
		</svg>
	</svg>
	<svg height="22.71" id="edgeLine7" width="20.57" x="304.31" y="226.22">
		<path d="M13.40 14.79C11.48 12.68 9.46 10.44 7.36 8.13 " fill="none" stroke="#000000" stroke-opacity="1.00" stroke-width="1.50" />
		<svg height="10.10" id="edgeHead7" width="9.68" x="0.00" y="-0.00">
			<path d="M5.97 8.09L5.97 8.09 L3.75 10.10 L0.00 0.00 L9.68 4.73 L7.45 6.74 L7.45 6.74 ZM5.97 8.09" fill="#000000" fill-opacity="1.00" />
		</svg>
		<svg height="10.10" id="edgeTail7" width="9.68" x="10.89" y="12.61">
			<path d="M3.71 2.02L3.71 2.02 L5.93 0.00 L9.68 10.10 L0.00 5.37 L2.22 3.36 L2.22 3.36 ZM3.71 2.02" fill="#000000" fill-opacity="1.00" />
		</svg>
	</svg>
	<svg height="23.28" id="edgeLine1" width="8.00" x="219.00" y="574.46">
		<path d="M4.00 19.28L4.00 10.38 C4.00 10.28 4.00 10.17 4.00 10.07 " fill="none" stroke="#000000" stroke-opacity="1.00" stroke-width="1.50" />
		<svg height="10.00" id="edgeHead1" width="8.00" x="0.00" y="0.00">
			<path d="M3.00 10.00L3.00 10.00 L0.00 10.00 L4.00 0.00 L8.00 10.00 L5.00 10.00 L5.00 10.00 ZM3.00 10.00" fill="#000000" fill-opacity="1.00" />
		</svg>
		<svg height="8.90" id="edgeTail1" width="0.00" x="4.00" y="10.38">
			<path d="M0.00 8.90L0.00 0.00 " fill="#000000" fill-opacity="1.00" />
		</svg>
	</svg>
	<svg height="67.69" id="edgeLine8" width="20.35" x="272.85" y="226.24">
		<path d="M16.27 57.21C12.30 41.98 8.01 25.54 4.04 10.31 " fill="none" stroke="#000000" stroke-opacity="1.00" stroke-width="1.50" />
		<svg height="10.69" id="edgeHead8" width="7.74" x="0.00" y="-0.00">
			<path d="M2.90 9.93L2.90 9.93 L0.00 10.69 L1.35 0.00 L7.74 8.67 L4.84 9.43 L4.84 9.43 ZM2.90 9.93" fill="#000000" fill-opacity="1.00" />
		</svg>
		<svg height="10.69" id="edgeTail8" width="7.74" x="12.61" y="57.00">
			<path d="M4.84 0.76L4.84 0.76 L7.74 0.00 L6.39 10.69 L0.00 2.02 L2.90 1.27 L2.90 1.27 ZM4.84 0.76" fill="#000000" fill-opacity="1.00" />
		</svg>
	</svg>
	<svg height="284.01" id="edgeLine6" width="66.69" x="157.48" y="226.46">
		<path d="M18.84 276.21C15.94 272.21 13.43 267.98 11.52 263.54 C-2.73 230.48 6.79 218.23 11.52 182.54 C21.38 108.15 22.92 87.13 55.52 19.54 C57.21 16.04 59.09 12.54 61.10 9.07 " fill="none" stroke="#000000" stroke-opacity="1.00" stroke-width="1.50" />
		<svg height="10.61" id="edgeHead6" width="8.65" x="58.04" y="-0.00">
			<path d="M2.55 7.99L2.55 7.99 L0.00 6.41 L8.65 -0.00 L6.81 10.61 L4.26 9.04 L4.26 9.04 ZM2.55 7.99" fill="#000000" fill-opacity="1.00" />
		</svg>
		<svg height="8.00" id="edgeTail6" width="8.00" x="17.90" y="276.01">
			<path d="M6.83 6.83C8.39 5.27 8.39 2.73 6.83 1.17 C5.27 -0.39 2.73 -0.39 1.17 1.17 C-0.39 2.73 -0.39 5.27 1.17 6.83 C2.73 8.39 5.27 8.39 6.83 6.83 " fill="#000000" fill-opacity="1.00" />
		</svg>
	</svg>
	<svg height="48.60" id="edgeLine2" width="128.89" x="232.31" y="557.70">
		<path d="M4.00 44.60L12.12 41.73 C38.18 32.51 83.11 16.63 118.66 4.06 " fill="none" stroke="#000000" stroke-opacity="1.00" stroke-width="1.50" />
		<svg height="7.54" id="edgeHead2" width="10.76" x="118.13" y="0.00">
			<path d="M1.00 2.83L1.00 2.83 L0.00 -0.00 L10.76 0.44 L2.67 7.54 L1.67 4.71 L1.67 4.71 ZM1.00 2.83" fill="#000000" fill-opacity="1.00" />
		</svg>
		<svg height="2.87" id="edgeTail2" width="8.12" x="4.00" y="41.73">
			<path d="M0.00 2.87L8.12 0.00 " fill="#000000" fill-opacity="1.00" />
		</svg>
	</svg>
	<svg height="19.95" id="edgeLine9" width="15.10" x="216.02" y="111.45">
		<path d="M8.38 12.03C7.68 11.03 6.98 10.02 6.28 9.02 " fill="none" stroke="#000000" stroke-opacity="1.00" stroke-width="1.50" />
		<svg height="10.49" id="edgeHead9" width="9.00" x="0.00" y="-0.00">
			<path d="M4.89 8.78L4.89 8.78 L2.43 10.49 L0.00 -0.00 L9.00 5.92 L6.53 7.63 L6.53 7.63 ZM4.89 8.78" fill="#000000" fill-opacity="1.00" />
		</svg>
		<svg height="8.00" id="edgeTail9" width="8.00" x="7.10" y="11.95">
			<path d="M6.83 6.83C8.39 5.27 8.39 2.73 6.83 1.17 C5.27 -0.39 2.73 -0.39 1.17 1.17 C-0.39 2.73 -0.39 5.27 1.17 6.83 C2.73 8.39 5.27 8.39 6.83 6.83 " fill="#000000" fill-opacity="1.00" />
		</svg>
	</svg>
	<svg height="297.75" id="edgeLine10" width="40.47" x="171.00" y="111.18">
		<path d="M35.09 289.22C33.97 285.38 32.92 281.55 32.00 277.82 C4.47 165.90 0.86 134.95 6.00 19.82 C6.13 16.91 6.29 13.93 6.48 10.93 " fill="none" stroke="#000000" stroke-opacity="1.00" stroke-width="1.50" />
		<svg height="10.25" id="edgeHead10" width="7.98" x="2.56" y="-0.00">
			<path d="M2.99 9.90L2.99 9.90 L0.00 9.69 L4.69 -0.00 L7.98 10.25 L4.99 10.04 L4.99 10.04 ZM2.99 9.90" fill="#000000" fill-opacity="1.00" />
		</svg>
		<svg height="8.00" id="edgeTail10" width="8.00" x="32.47" y="289.75">
			<path d="M6.83 6.83C8.39 5.27 8.39 2.73 6.83 1.17 C5.27 -0.39 2.73 -0.39 1.17 1.17 C-0.39 2.73 -0.39 5.27 1.17 6.83 C2.73 8.39 5.27 8.39 6.83 6.83 " fill="#000000" fill-opacity="1.00" />
		</svg>
	</svg>
	<svg height="443.13" id="edgeLine11" width="284.67" x="228.33" y="67.51">
		<path d="M223.41 435.64C227.18 431.47 230.69 427.06 233.67 422.50 C271.32 364.91 280.67 343.80 280.67 275.00 C280.67 275.00 280.67 275.00 280.67 191.50 C280.67 67.16 103.85 20.20 10.66 4.08 " fill="none" stroke="#000000" stroke-opacity="1.00" stroke-width="1.50" />
		<svg height="7.89" id="edgeHead11" width="10.52" x="0.00" y="0.00">
			<path d="M9.70 4.93L9.70 4.93 L9.21 7.89 L0.00 2.30 L10.52 -0.00 L10.03 2.96 L10.03 2.96 ZM9.70 4.93" fill="#000000" fill-opacity="1.00" />
		</svg>
		<svg height="8.00" id="edgeTail11" width="8.00" x="216.05" y="435.13">
			<path d="M6.83 6.83C8.39 5.27 8.39 2.73 6.83 1.17 C5.27 -0.39 2.73 -0.39 1.17 1.17 C-0.39 2.73 -0.39 5.27 1.17 6.83 C2.73 8.39 5.27 8.39 6.83 6.83 " fill="#000000" fill-opacity="1.00" />
		</svg>
	</svg>
	<svg height="409.62" id="edgeLine12" width="123.16" x="53.00" y="104.07">
		<path d="M115.11 402.76C66.77 367.96 4.00 309.15 4.00 238.43 C4.00 238.43 4.00 238.43 4.00 154.93 C4.00 97.74 42.72 44.03 77.23 7.52 " fill="none" stroke="#000000" stroke-opacity="1.00" stroke-width="1.50" />
		<svg height="9.97" id="edgeHead12" width="9.83" x="74.68" y="-0.00">
			<path d="M2.16 6.49L2.16 6.49 L0.00 4.41 L9.83 0.00 L5.75 9.97 L3.59 7.88 L3.59 7.88 ZM2.16 6.49" fill="#000000" fill-opacity="1.00" />
		</svg>
		<svg height="8.00" id="edgeTail12" width="8.00" x="115.16" y="401.62">
			<path d="M6.83 6.83C8.39 5.27 8.39 2.73 6.83 1.17 C5.27 -0.39 2.73 -0.39 1.17 1.17 C-0.39 2.73 -0.39 5.27 1.17 6.83 C2.73 8.39 5.27 8.39 6.83 6.83 " fill="#000000" fill-opacity="1.00" />
		</svg>
	</svg>
	<svg height="172.74" id="edgeLine13" width="114.97" x="228.44" y="73.27">
		<path d="M109.13 163.90C112.38 136.51 113.75 89.31 91.56 57.73 C72.52 30.62 39.36 14.01 10.43 4.10 " fill="none" stroke="#000000" stroke-opacity="1.00" stroke-width="1.50" />
		<svg height="7.62" id="edgeHead13" width="10.74" x="0.00" y="0.00">
			<path d="M9.21 4.76L9.21 4.76 L8.30 7.62 L0.00 0.75 L10.74 0.00 L9.83 2.86 L9.83 2.86 ZM9.21 4.76" fill="#000000" fill-opacity="1.00" />
		</svg>
		<svg height="8.00" id="edgeTail13" width="8.00" x="104.48" y="164.74">
			<path d="M6.83 6.83C8.39 5.27 8.39 2.73 6.83 1.17 C5.27 -0.39 2.73 -0.39 1.17 1.17 C-0.39 2.73 -0.39 5.27 1.17 6.83 C2.73 8.39 5.27 8.39 6.83 6.83 " fill="#000000" fill-opacity="1.00" />
		</svg>
	</svg>
	<svg height="187.37" id="edgeLine14" width="78.54" x="178.38" y="111.35">
		<path d="M71.41 180.07C54.00 161.33 36.43 138.65 25.62 114.65 C11.02 82.27 5.68 42.80 4.03 10.93 " fill="none" stroke="#000000" stroke-opacity="1.00" stroke-width="1.50" />
		<svg height="10.15" id="edgeHead14" width="7.99" x="0.00" y="-0.00">
			<path d="M3.00 10.03L3.00 10.03 L0.00 10.15 L3.60 -0.00 L7.99 9.83 L5.00 9.95 L5.00 9.95 ZM3.00 10.03" fill="#000000" fill-opacity="1.00" />
		</svg>
		<svg height="8.00" id="edgeTail14" width="8.00" x="70.54" y="179.37">
			<path d="M6.83 6.83C8.39 5.27 8.39 2.73 6.83 1.17 C5.27 -0.39 2.73 -0.39 1.17 1.17 C-0.39 2.73 -0.39 5.27 1.17 6.83 C2.73 8.39 5.27 8.39 6.83 6.83 " fill="#000000" fill-opacity="1.00" />
		</svg>
	</svg>
	<svg height="149.17" id="edgeLine15" width="105.77" x="214.12" y="259.42">
		<path d="M4.02 138.37C3.61 105.42 8.60 63.38 31.88 34.58 C47.23 15.59 74.70 7.53 94.88 4.10 " fill="none" stroke="#000000" stroke-opacity="1.00" stroke-width="1.50" />
		<svg height="7.92" id="edgeHead15" width="10.46" x="95.31" y="0.00">
			<path d="M0.42 2.97L0.42 2.97 L0.00 -0.00 L10.46 2.57 L1.11 7.92 L0.69 4.95 L0.69 4.95 ZM0.42 2.97" fill="#000000" fill-opacity="1.00" />
		</svg>
		<svg height="10.12" id="edgeTail15" width="8.00" x="0.05" y="139.05">
			<path d="M5.00 0.09L5.00 0.09 L8.00 0.00 L4.30 10.12 L0.00 0.25 L3.00 0.16 L3.00 0.16 ZM5.00 0.09" fill="#000000" fill-opacity="1.00" />
		</svg>
	</svg>
	<svg height="247.24" id="edgeLine16" width="82.56" x="347.75" y="262.51">
		<path d="M67.17 238.52C78.92 186.52 91.02 94.84 51.25 31.49 C42.24 17.14 24.87 8.77 10.36 4.06 " fill="none" stroke="#000000" stroke-opacity="1.00" stroke-width="1.50" />
		<svg height="7.70" id="edgeHead16" width="10.71" x="0.00" y="0.00">
			<path d="M9.35 4.81L9.35 4.81 L8.53 7.70 L0.00 1.13 L10.71 0.00 L9.89 2.89 L9.89 2.89 ZM9.35 4.81" fill="#000000" fill-opacity="1.00" />
		</svg>
		<svg height="8.00" id="edgeTail16" width="8.00" x="62.06" y="239.24">
			<path d="M6.83 6.83C8.39 5.27 8.39 2.73 6.83 1.17 C5.27 -0.39 2.73 -0.39 1.17 1.17 C-0.39 2.73 -0.39 5.27 1.17 6.83 C2.73 8.39 5.27 8.39 6.83 6.83 " fill="#000000" fill-opacity="1.00" />
		</svg>
	</svg>
	<svg height="249.10" id="edgeLine17" width="105.49" x="270.04" y="269.63">
		<path d="M8.03 242.49C17.66 236.00 27.10 228.57 34.96 220.37 C70.62 183.15 78.86 169.22 91.96 119.37 C102.68 78.53 106.51 64.00 91.96 24.37 C89.76 18.37 85.93 12.72 81.80 7.85 " fill="none" stroke="#000000" stroke-opacity="1.00" stroke-width="1.50" />
		<svg height="10.00" id="edgeHead17" width="9.79" x="74.33" y="0.00">
			<path d="M6.17 7.93L6.17 7.93 L4.00 10.00 L0.00 0.00 L9.79 4.48 L7.62 6.55 L7.62 6.55 ZM6.17 7.93" fill="#000000" fill-opacity="1.00" />
		</svg>
		<svg height="8.00" id="edgeTail17" width="8.00" x="0.00" y="241.10">
			<path d="M6.83 6.83C8.39 5.27 8.39 2.73 6.83 1.17 C5.27 -0.39 2.73 -0.39 1.17 1.17 C-0.39 2.73 -0.39 5.27 1.17 6.83 C2.73 8.39 5.27 8.39 6.83 6.83 " fill="#000000" fill-opacity="1.00" />
		</svg>
	</svg>
	<svg height="20.22" id="edgeLine18" width="8.16" x="321.41" y="273.58">
		<path d="M4.03 10.10C4.08 9.98 4.12 9.87 4.16 9.75 " fill="none" stroke="#000000" stroke-opacity="1.00" stroke-width="1.50" />
		<svg height="10.77" id="edgeHead18" width="7.48" x="0.57" y="0.00">
			<path d="M2.81 9.00L2.81 9.00 L0.00 7.95 L7.27 0.00 L7.48 10.77 L4.68 9.71 L4.68 9.71 ZM2.81 9.00" fill="#000000" fill-opacity="1.00" />
		</svg>
		<svg height="10.77" id="edgeTail18" width="7.48" x="0.00" y="9.45">
			<path d="M4.68 1.77L4.68 1.77 L7.48 2.83 L0.21 10.77 L0.00 0.00 L2.81 1.06 L2.81 1.06 ZM4.68 1.77" fill="#000000" fill-opacity="1.00" />
		</svg>
	</svg>
	<svg height="19.45" id="edgeLine19" width="14.86" x="253.39" y="389.28">
		<path d="M6.46 11.00C7.07 10.20 7.68 9.40 8.29 8.60 " fill="none" stroke="#000000" stroke-opacity="1.00" stroke-width="1.50" />
		<svg height="10.37" id="edgeHead19" width="9.25" x="5.61" y="0.00">
			<path d="M2.38 7.33L2.38 7.33 L0.00 5.51 L9.25 -0.00 L6.36 10.37 L3.97 8.55 L3.97 8.55 ZM2.38 7.33" fill="#000000" fill-opacity="1.00" />
		</svg>
		<svg height="10.37" id="edgeTail19" width="9.25" x="0.00" y="9.08">
			<path d="M6.87 3.03L6.87 3.03 L9.25 4.85 L0.00 10.37 L2.89 -0.00 L5.28 1.82 L5.28 1.82 ZM6.87 3.03" fill="#000000" fill-opacity="1.00" />
		</svg>
	</svg>
	<svg height="120.65" id="edgeLine20" width="62.76" x="327.59" y="389.33">
		<path d="M56.58 112.32C41.77 82.92 21.32 42.32 4.77 9.48 " fill="none" stroke="#000000" stroke-opacity="1.00" stroke-width="1.50" />
		<svg height="10.73" id="edgeHead20" width="8.07" x="0.00" y="0.00">
			<path d="M3.61 9.38L3.61 9.38 L0.93 10.73 L0.00 -0.00 L8.07 7.13 L5.39 8.48 L5.39 8.48 ZM3.61 9.38" fill="#000000" fill-opacity="1.00" />
		</svg>
		<svg height="8.00" id="edgeTail20" width="8.00" x="54.76" y="112.65">
			<path d="M6.83 6.83C8.39 5.27 8.39 2.73 6.83 1.17 C5.27 -0.39 2.73 -0.39 1.17 1.17 C-0.39 2.73 -0.39 5.27 1.17 6.83 C2.73 8.39 5.27 8.39 6.83 6.83 " fill="#000000" fill-opacity="1.00" />
		</svg>
	</svg>
	<svg height="182.44" id="edgeLine4" width="32.24" x="204.66" y="226.29">
		<path d="M8.37 171.67C4.02 141.27 1.33 101.95 8.34 67.71 C12.34 48.23 19.78 27.97 27.69 10.00 " fill="none" stroke="#000000" stroke-opacity="1.00" stroke-width="1.50" />
		<svg height="10.76" id="edgeHead4" width="7.78" x="24.46" y="-0.00">
			<path d="M2.73 8.69L2.73 8.69 L0.00 7.45 L7.78 0.00 L7.28 10.76 L4.55 9.52 L4.55 9.52 ZM2.73 8.69" fill="#000000" fill-opacity="1.00" />
		</svg>
		<svg height="10.49" id="edgeTail4" width="7.91" x="4.55" y="171.95">
			<path d="M4.94 0.45L4.94 0.45 L7.91 -0.00 L5.48 10.49 L0.00 1.22 L2.96 0.76 L2.96 0.76 ZM4.94 0.45" fill="#000000" fill-opacity="1.00" />
		</svg>
	</svg>
	<svg height="48.87" id="edgeLine22" width="93.73" x="267.79" y="472.90">
		<path d="M85.54 42.77C61.92 30.96 33.78 16.89 9.70 4.85 " fill="none" stroke="#000000" stroke-opacity="1.00" stroke-width="1.50" />
		<svg height="8.05" id="edgeHead22" width="10.73" x="0.00" y="0.00">
			<path d="M8.50 5.37L8.50 5.37 L7.16 8.05 L0.00 0.00 L10.73 0.89 L9.39 3.58 L9.39 3.58 ZM8.50 5.37" fill="#000000" fill-opacity="1.00" />
		</svg>
		<svg height="8.00" id="edgeTail22" width="8.00" x="85.73" y="40.87">
			<path d="M6.83 6.83C8.39 5.27 8.39 2.73 6.83 1.17 C5.27 -0.39 2.73 -0.39 1.17 1.17 C-0.39 2.73 -0.39 5.27 1.17 6.83 C2.73 8.39 5.27 8.39 6.83 6.83 " fill="#000000" fill-opacity="1.00" />
		</svg>
	</svg>
	<svg height="529.56" id="edgeLine3" width="202.35" x="11.00" y="78.32">
		<path d="M198.35 525.56L189.89 523.38 C136.32 509.09 4.00 464.45 4.00 372.18 C4.00 372.18 4.00 372.18 4.00 180.68 C4.00 120.80 7.45 98.49 46.00 52.68 C64.51 30.69 92.12 14.87 116.78 4.14 " fill="none" stroke="#000000" stroke-opacity="1.00" stroke-width="1.50" />
		<svg height="7.53" id="edgeHead3" width="10.77" x="116.00" y="-0.00">
			<path d="M1.15 2.91L1.15 2.91 L0.00 0.14 L10.77 0.00 L3.07 7.53 L1.92 4.76 L1.92 4.76 ZM1.15 2.91" fill="#000000" fill-opacity="1.00" />
		</svg>
		<svg height="2.18" id="edgeTail3" width="8.46" x="189.89" y="523.38">
			<path d="M8.46 2.18L0.00 0.00 " fill="#000000" fill-opacity="1.00" />
		</svg>
	</svg>
	<svg height="19.31" id="edgeLine23" width="8.00" x="219.00" y="490.29">
		<path d="M4.00 10.35C4.00 10.24 4.00 10.14 4.00 10.03 " fill="none" stroke="#000000" stroke-opacity="1.00" stroke-width="1.50" />
		<svg height="10.00" id="edgeHead23" width="8.00" x="0.00" y="0.00">
			<path d="M3.00 10.00L3.00 10.00 L0.00 10.00 L4.00 0.00 L8.00 10.00 L5.00 10.00 L5.00 10.00 ZM3.00 10.00" fill="#000000" fill-opacity="1.00" />
		</svg>
		<svg height="8.00" id="edgeTail23" width="8.00" x="0.00" y="11.31">
			<path d="M6.83 6.83C8.39 5.27 8.39 2.73 6.83 1.17 C5.27 -0.39 2.73 -0.39 1.17 1.17 C-0.39 2.73 -0.39 5.27 1.17 6.83 C2.73 8.39 5.27 8.39 6.83 6.83 " fill="#000000" fill-opacity="1.00" />
		</svg>
	</svg>
	<svg height="311.48" id="edgeLine5" width="151.75" x="310.33" y="198.73">
		<path d="M121.98 303.20C123.86 299.30 125.48 295.30 126.67 291.27 C151.37 207.64 161.19 170.84 117.67 95.27 C93.61 53.50 47.41 23.54 9.84 4.77 " fill="none" stroke="#000000" stroke-opacity="1.00" stroke-width="1.50" />
		<svg height="7.96" id="edgeHead5" width="10.74" x="0.00" y="0.00">
			<path d="M8.57 5.26L8.57 5.26 L7.26 7.96 L0.00 0.00 L10.74 0.76 L9.44 3.46 L9.44 3.46 ZM8.57 5.26" fill="#000000" fill-opacity="1.00" />
		</svg>
		<svg height="8.00" id="edgeTail5" width="8.00" x="115.69" y="303.48">
			<path d="M6.83 6.83C8.39 5.27 8.39 2.73 6.83 1.17 C5.27 -0.39 2.73 -0.39 1.17 1.17 C-0.39 2.73 -0.39 5.27 1.17 6.83 C2.73 8.39 5.27 8.39 6.83 6.83 " fill="#000000" fill-opacity="1.00" />
		</svg>
	</svg>
</svg>