<?xml version="1.0" encoding="utf-8" standalone="no"?>
<svg version="1.1" viewBox="0.00 0.00 596.50 844.00" xmlns="http://www.w3.org/2000/svg">
	<svg height="100.00" id="node13" width="200.00" x="-0.50" y="514.00">
		<svg height="68.00" width="173.00" x="13.50" y="16.00">
			<path d="M2.00 34.00L2.00 11.00 C2.00 6.03 6.03 2.00 11.00 2.00 L162.00 2.00 C166.97 2.00 171.00 6.03 171.00 11.00 L171.00 57.00 C171.00 61.97 166.97 66.00 162.00 66.00 C162.00 66.00 162.00 66.00 162.00 66.00 L11.00 66.00 C6.03 66.00 2.00 61.97 2.00 57.00 ZM2.00 34.00" fill="#ffffff" fill-opacity="1.00" />
			<svg height="68.00" width="173.00" x="0.00" y="0.00">
				<path d="M2.75 21.75L2.75 10.25 C2.75 6.11 6.11 2.75 10.25 2.75 L162.75 2.75 C166.89 2.75 170.25 6.11 170.25 10.25 L170.25 21.75 L2.75 21.75 " fill="#3e354c" fill-opacity="1.00" />
				<text dominant-baseline="middle" fill="#ffffff" fill-opacity="1.00" font-family="Verdana" font-size="11.00" font-weight="bold" text-anchor="middle" x="86.50" y="12.25">Given</text>
				<svg height="68.00" width="173.00" x="0.00" y="0.00">
					<path d="M2.00 34.00L2.00 11.00 C2.00 6.03 6.03 2.00 11.00 2.00 L162.00 2.00 C166.97 2.00 171.00 6.03 171.00 11.00 L171.00 57.00 C171.00 61.97 166.97 66.00 162.00 66.00 C162.00 66.00 162.00 66.00 162.00 66.00 L11.00 66.00 C6.03 66.00 2.00 61.97 2.00 57.00 ZM2.00 34.00" fill="none" stroke="#000000" stroke-opacity="1.00" stroke-width="1.50" />
					<svg height="35.00" width="159.00" x="7.00" y="26.00">
						<svg height="35.00" width="159.00" x="0.00" y="0.00">
							<text dominant-baseline="middle" fill="#000000" fill-opacity="1.00" font-family="Verdana" font-size="14.00" font-weight="normal" text-anchor="middle" x="79.50" y="8.75">Limited Time available</text>
							<text dominant-baseline="middle" fill="#000000" fill-opacity="1.00" font-family="Verdana" font-size="14.00" font-weight="normal" text-anchor="middle" x="79.50" y="26.25">in a Day/Week/Month</text>
						</svg>
					</svg>
				</svg>
			</svg>
		</svg>
	</svg>
	<svg height="100.00" id="node4" width="200.00" x="181.50" y="380.50">
		<svg height="51.00" width="142.00" x="29.00" y="24.50">
			<path d="M2.00 25.50L2.00 11.00 C2.00 6.03 6.03 2.00 11.00 2.00 L131.00 2.00 C135.97 2.00 140.00 6.03 140.00 11.00 L140.00 40.00 C140.00 44.97 135.97 49.00 131.00 49.00 C131.00 49.00 131.00 49.00 131.00 49.00 L11.00 49.00 C6.03 49.00 2.00 44.97 2.00 40.00 ZM2.00 25.50" fill="#ffffff" fill-opacity="1.00" />
			<svg height="51.00" width="142.00" x="0.00" y="0.00">
				<path d="M2.75 21.75L2.75 10.25 C2.75 6.11 6.11 2.75 10.25 2.75 L131.75 2.75 C135.89 2.75 139.25 6.11 139.25 10.25 L139.25 21.75 L2.75 21.75 " fill="#a34753" fill-opacity="1.00" />
				<text dominant-baseline="middle" fill="#ffffff" fill-opacity="1.00" font-family="Verdana" font-size="11.00" font-weight="bold" text-anchor="middle" x="71.00" y="12.25">Undesirable Effect</text>
				<svg height="51.00" width="142.00" x="0.00" y="0.00">
					<path d="M2.00 25.50L2.00 11.00 C2.00 6.03 6.03 2.00 11.00 2.00 L131.00 2.00 C135.97 2.00 140.00 6.03 140.00 11.00 L140.00 40.00 C140.00 44.97 135.97 49.00 131.00 49.00 C131.00 49.00 131.00 49.00 131.00 49.00 L11.00 49.00 C6.03 49.00 2.00 44.97 2.00 40.00 ZM2.00 25.50" fill="none" stroke="#000000" stroke-opacity="1.00" stroke-width="1.50" />
					<svg height="18.00" width="128.00" x="7.00" y="26.00">
						<svg height="18.00" width="128.00" x="0.00" y="0.00">
							<text dominant-baseline="middle" fill="#000000" fill-opacity="1.00" font-family="Verdana" font-size="14.00" font-weight="normal" text-anchor="middle" x="64.00" y="9.00">Too little progress</text>
						</svg>
					</svg>
				</svg>
			</svg>
		</svg>
	</svg>
	<svg height="100.00" id="node17" width="200.00" x="165.50" y="176.00">
		<svg height="32.00" width="32.00" x="84.00" y="34.00">
			<svg height="32.00" width="32.00" x="0.00" y="0.00">
				<svg x="0.00" y="-0.00">
					<path d="M6.57 13.27C6.57 13.27 6.64 13.51 6.75 13.85 C7.05 14.81 7.61 16.63 7.61 16.63 L5.40 16.63 C5.40 16.63 5.44 16.51 5.51 16.28 C5.59 16.05 5.67 15.77 5.77 15.44 L6.09 14.44 C6.20 14.11 6.28 13.84 6.36 13.61 C6.43 13.39 6.47 13.27 6.47 13.27 L6.57 13.27 L6.57 13.27 ZM19.37 11.55L17.68 11.55 L17.68 16.93 L17.57 16.93 L13.69 11.55 L12.21 11.55 L12.21 20.00 L13.91 20.00 L13.91 14.59 L14.01 14.59 L17.91 20.00 L19.37 20.00 L19.37 11.55 ZM26.49 13.72C26.92 14.20 27.13 14.88 27.13 15.75 C27.13 16.65 26.92 17.33 26.51 17.83 C26.08 18.31 25.48 18.55 24.69 18.55 L23.43 18.55 C23.43 18.55 23.43 18.41 23.43 18.13 C23.43 17.87 23.43 17.53 23.43 17.11 C23.43 16.69 23.43 16.24 23.43 15.77 C23.43 15.31 23.43 14.85 23.43 14.44 C23.43 14.01 23.43 13.67 23.43 13.40 C23.43 13.13 23.43 13.00 23.43 13.00 L24.69 13.00 C25.47 13.00 26.07 13.24 26.49 13.72 ZM24.97 11.53L21.65 11.53 L21.65 20.00 L24.97 20.00 C26.24 20.00 27.23 19.63 27.91 18.89 C28.60 18.15 28.95 17.09 28.95 15.72 C28.95 14.39 28.60 13.36 27.91 12.63 C27.21 11.91 26.24 11.53 24.97 11.53 ZM7.61 11.55L5.52 11.55 L2.60 20.00 L4.37 20.00 L5.03 17.95 L7.99 17.95 C7.99 17.95 8.03 18.05 8.09 18.25 C8.16 18.47 8.23 18.71 8.31 18.97 C8.40 19.24 8.47 19.48 8.53 19.69 C8.60 19.89 8.63 20.00 8.63 20.00 L10.55 20.00 L7.61 11.55 ZM32.00 16.00C32.00 24.84 24.84 32.00 16.00 32.00 C12.43 32.00 9.13 30.83 6.47 28.85 C2.55 25.93 0.00 21.27 0.00 16.00 C0.00 7.16 7.16 0.00 16.00 0.00 C24.84 0.00 32.00 7.16 32.00 16.00 ZM32.00 16.00" fill="#000000" fill-opacity="1.00" />
				</svg>
				<svg height="32.00" width="32.00" x="0.00" y="0.00" />
			</svg>
		</svg>
	</svg>
	<svg height="100.00" id="node3" width="200.00" x="191.50" y="514.00">
		<svg height="68.00" width="139.00" x="30.50" y="16.00">
			<path d="M2.00 34.00L2.00 11.00 C2.00 6.03 6.03 2.00 11.00 2.00 L128.00 2.00 C132.97 2.00 137.00 6.03 137.00 11.00 L137.00 57.00 C137.00 61.97 132.97 66.00 128.00 66.00 C128.00 66.00 128.00 66.00 128.00 66.00 L11.00 66.00 C6.03 66.00 2.00 61.97 2.00 57.00 ZM2.00 34.00" fill="#ffffff" fill-opacity="1.00" />
			<svg height="68.00" width="139.00" x="0.00" y="0.00">
				<path d="M2.75 21.75L2.75 10.25 C2.75 6.11 6.11 2.75 10.25 2.75 L128.75 2.75 C132.89 2.75 136.25 6.11 136.25 10.25 L136.25 21.75 L2.75 21.75 " fill="#a34753" fill-opacity="1.00" />
				<text dominant-baseline="middle" fill="#ffffff" fill-opacity="1.00" font-family="Verdana" font-size="11.00" font-weight="bold" text-anchor="middle" x="69.50" y="12.25">Undesirable Effect</text>
				<svg height="68.00" width="139.00" x="0.00" y="0.00">
					<path d="M2.00 34.00L2.00 11.00 C2.00 6.03 6.03 2.00 11.00 2.00 L128.00 2.00 C132.97 2.00 137.00 6.03 137.00 11.00 L137.00 57.00 C137.00 61.97 132.97 66.00 128.00 66.00 C128.00 66.00 128.00 66.00 128.00 66.00 L11.00 66.00 C6.03 66.00 2.00 61.97 2.00 57.00 ZM2.00 34.00" fill="none" stroke="#000000" stroke-opacity="1.00" stroke-width="1.50" />
					<svg height="35.00" width="125.00" x="7.00" y="26.00">
						<svg height="35.00" width="125.00" x="0.00" y="0.00">
							<text dominant-baseline="middle" fill="#000000" fill-opacity="1.00" font-family="Verdana" font-size="14.00" font-weight="normal" text-anchor="middle" x="62.50" y="8.75">Spending time on</text>
							<text dominant-baseline="middle" fill="#000000" fill-opacity="1.00" font-family="Verdana" font-size="14.00" font-weight="normal" text-anchor="middle" x="62.50" y="26.25">the wrong things</text>
						</svg>
					</svg>
				</svg>
			</svg>
		</svg>
	</svg>
	<svg height="100.00" id="node10" width="200.00" x="247.50" y="594.50">
		<svg height="51.00" width="168.00" x="16.00" y="24.50">
			<path d="M2.00 25.50L2.00 11.00 C2.00 6.03 6.03 2.00 11.00 2.00 L157.00 2.00 C161.97 2.00 166.00 6.03 166.00 11.00 L166.00 40.00 C166.00 44.97 161.97 49.00 157.00 49.00 C157.00 49.00 157.00 49.00 157.00 49.00 L11.00 49.00 C6.03 49.00 2.00 44.97 2.00 40.00 ZM2.00 25.50" fill="#ffffff" fill-opacity="1.00" />
			<svg height="51.00" width="168.00" x="0.00" y="0.00">
				<path d="M2.75 21.75L2.75 10.25 C2.75 6.11 6.11 2.75 10.25 2.75 L157.75 2.75 C161.89 2.75 165.25 6.11 165.25 10.25 L165.25 21.75 L2.75 21.75 " fill="#a34753" fill-opacity="1.00" />
				<text dominant-baseline="middle" fill="#ffffff" fill-opacity="1.00" font-family="Verdana" font-size="11.00" font-weight="bold" text-anchor="middle" x="84.00" y="12.25">Undesirable Effect</text>
				<svg height="51.00" width="168.00" x="0.00" y="0.00">
					<path d="M2.00 25.50L2.00 11.00 C2.00 6.03 6.03 2.00 11.00 2.00 L157.00 2.00 C161.97 2.00 166.00 6.03 166.00 11.00 L166.00 40.00 C166.00 44.97 161.97 49.00 157.00 49.00 C157.00 49.00 157.00 49.00 157.00 49.00 L11.00 49.00 C6.03 49.00 2.00 44.97 2.00 40.00 ZM2.00 25.50" fill="none" stroke="#000000" stroke-opacity="1.00" stroke-width="1.50" />
					<svg height="18.00" width="154.00" x="7.00" y="26.00">
						<svg height="18.00" width="154.00" x="0.00" y="0.00">
							<text dominant-baseline="middle" fill="#000000" fill-opacity="1.00" font-family="Verdana" font-size="14.00" font-weight="normal" text-anchor="middle" x="77.00" y="9.00">Not planning my time</text>
						</svg>
					</svg>
				</svg>
			</svg>
		</svg>
	</svg>
	<svg height="100.00" id="node5" width="200.00" x="80.50" y="-11.50">
		<svg height="51.00" width="143.00" x="28.50" y="24.50">
			<path d="M2.00 25.50L2.00 11.00 C2.00 6.03 6.03 2.00 11.00 2.00 L132.00 2.00 C136.97 2.00 141.00 6.03 141.00 11.00 L141.00 40.00 C141.00 44.97 136.97 49.00 132.00 49.00 C132.00 49.00 132.00 49.00 132.00 49.00 L11.00 49.00 C6.03 49.00 2.00 44.97 2.00 40.00 ZM2.00 25.50" fill="#ffffff" fill-opacity="1.00" />
			<svg height="51.00" width="143.00" x="0.00" y="0.00">
				<path d="M2.75 21.75L2.75 10.25 C2.75 6.11 6.11 2.75 10.25 2.75 L132.75 2.75 C136.89 2.75 140.25 6.11 140.25 10.25 L140.25 21.75 L2.75 21.75 " fill="#a34753" fill-opacity="1.00" />
				<text dominant-baseline="middle" fill="#ffffff" fill-opacity="1.00" font-family="Verdana" font-size="11.00" font-weight="bold" text-anchor="middle" x="71.50" y="12.25">Undesirable Effect</text>
				<svg height="51.00" width="143.00" x="0.00" y="0.00">
					<path d="M2.00 25.50L2.00 11.00 C2.00 6.03 6.03 2.00 11.00 2.00 L132.00 2.00 C136.97 2.00 141.00 6.03 141.00 11.00 L141.00 40.00 C141.00 44.97 136.97 49.00 132.00 49.00 C132.00 49.00 132.00 49.00 132.00 49.00 L11.00 49.00 C6.03 49.00 2.00 44.97 2.00 40.00 ZM2.00 25.50" fill="none" stroke="#000000" stroke-opacity="1.00" stroke-width="1.50" />
					<svg height="18.00" width="129.00" x="7.00" y="26.00">
						<svg height="18.00" width="129.00" x="0.00" y="0.00">
							<text dominant-baseline="middle" fill="#000000" fill-opacity="1.00" font-family="Verdana" font-size="14.00" font-weight="normal" text-anchor="middle" x="64.50" y="9.00">Feeling exhausted</text>
						</svg>
					</svg>
				</svg>
			</svg>
		</svg>
	</svg>
	<svg height="100.00" id="node14" width="200.00" x="155.50" y="113.50">
		<svg height="51.00" width="152.00" x="24.00" y="24.50">
			<path d="M2.00 25.50L2.00 11.00 C2.00 6.03 6.03 2.00 11.00 2.00 L141.00 2.00 C145.97 2.00 150.00 6.03 150.00 11.00 L150.00 40.00 C150.00 44.97 145.97 49.00 141.00 49.00 C141.00 49.00 141.00 49.00 141.00 49.00 L11.00 49.00 C6.03 49.00 2.00 44.97 2.00 40.00 ZM2.00 25.50" fill="#ffffff" fill-opacity="1.00" />
			<svg height="51.00" width="152.00" x="0.00" y="0.00">
				<path d="M2.75 21.75L2.75 10.25 C2.75 6.11 6.11 2.75 10.25 2.75 L141.75 2.75 C145.89 2.75 149.25 6.11 149.25 10.25 L149.25 21.75 L2.75 21.75 " fill="#a34753" fill-opacity="1.00" />
				<text dominant-baseline="middle" fill="#ffffff" fill-opacity="1.00" font-family="Verdana" font-size="11.00" font-weight="bold" text-anchor="middle" x="76.00" y="12.25">Undesirable Effect</text>
				<svg height="51.00" width="152.00" x="0.00" y="0.00">
					<path d="M2.00 25.50L2.00 11.00 C2.00 6.03 6.03 2.00 11.00 2.00 L141.00 2.00 C145.97 2.00 150.00 6.03 150.00 11.00 L150.00 40.00 C150.00 44.97 145.97 49.00 141.00 49.00 C141.00 49.00 141.00 49.00 141.00 49.00 L11.00 49.00 C6.03 49.00 2.00 44.97 2.00 40.00 ZM2.00 25.50" fill="none" stroke="#000000" stroke-opacity="1.00" stroke-width="1.50" />
					<svg height="18.00" width="138.00" x="7.00" y="26.00">
						<svg height="18.00" width="138.00" x="0.00" y="0.00">
							<text dominant-baseline="middle" fill="#000000" fill-opacity="1.00" font-family="Verdana" font-size="14.00" font-weight="normal" text-anchor="middle" x="69.00" y="9.00">Working long hours</text>
						</svg>
					</svg>
				</svg>
			</svg>
		</svg>
	</svg>
	<svg height="100.00" id="node7" width="200.00" x="165.50" y="247.00">
		<svg height="68.00" width="121.00" x="39.50" y="16.00">
			<path d="M2.00 34.00L2.00 11.00 C2.00 6.03 6.03 2.00 11.00 2.00 L110.00 2.00 C114.97 2.00 119.00 6.03 119.00 11.00 L119.00 57.00 C119.00 61.97 114.97 66.00 110.00 66.00 C110.00 66.00 110.00 66.00 110.00 66.00 L11.00 66.00 C6.03 66.00 2.00 61.97 2.00 57.00 ZM2.00 34.00" fill="#ffffff" fill-opacity="1.00" />
			<svg height="68.00" width="121.00" x="0.00" y="0.00">
				<path d="M2.75 21.75L2.75 10.25 C2.75 6.11 6.11 2.75 10.25 2.75 L110.75 2.75 C114.89 2.75 118.25 6.11 118.25 10.25 L118.25 21.75 L2.75 21.75 " fill="#a34753" fill-opacity="1.00" />
				<text dominant-baseline="middle" fill="#ffffff" fill-opacity="1.00" font-family="Verdana" font-size="11.00" font-weight="bold" text-anchor="middle" x="60.50" y="12.25">Undesirable Effect</text>
				<svg height="68.00" width="121.00" x="0.00" y="0.00">
					<path d="M2.00 34.00L2.00 11.00 C2.00 6.03 6.03 2.00 11.00 2.00 L110.00 2.00 C114.97 2.00 119.00 6.03 119.00 11.00 L119.00 57.00 C119.00 61.97 114.97 66.00 110.00 66.00 C110.00 66.00 110.00 66.00 110.00 66.00 L11.00 66.00 C6.03 66.00 2.00 61.97 2.00 57.00 ZM2.00 34.00" fill="none" stroke="#000000" stroke-opacity="1.00" stroke-width="1.50" />
					<svg height="35.00" width="107.00" x="7.00" y="26.00">
						<svg height="35.00" width="107.00" x="0.00" y="0.00">
							<text dominant-baseline="middle" fill="#000000" fill-opacity="1.00" font-family="Verdana" font-size="14.00" font-weight="normal" text-anchor="middle" x="53.50" y="8.75">Putting myself</text>
							<text dominant-baseline="middle" fill="#000000" fill-opacity="1.00" font-family="Verdana" font-size="14.00" font-weight="normal" text-anchor="middle" x="53.50" y="26.25">under pressure</text>
						</svg>
					</svg>
				</svg>
			</svg>
		</svg>
	</svg>
	<svg height="100.00" id="node8" width="200.00" x="324.50" y="318.00">
		<svg height="32.00" width="32.00" x="84.00" y="34.00">
			<svg height="32.00" width="32.00" x="0.00" y="0.00">
				<svg x="0.00" y="-0.00">
					<path d="M6.57 13.27C6.57 13.27 6.64 13.51 6.75 13.85 C7.05 14.81 7.61 16.63 7.61 16.63 L5.40 16.63 C5.40 16.63 5.44 16.51 5.51 16.28 C5.59 16.05 5.67 15.77 5.77 15.44 L6.09 14.44 C6.20 14.11 6.28 13.84 6.36 13.61 C6.43 13.39 6.47 13.27 6.47 13.27 L6.57 13.27 L6.57 13.27 ZM19.37 11.55L17.68 11.55 L17.68 16.93 L17.57 16.93 L13.69 11.55 L12.21 11.55 L12.21 20.00 L13.91 20.00 L13.91 14.59 L14.01 14.59 L17.91 20.00 L19.37 20.00 L19.37 11.55 ZM26.49 13.72C26.92 14.20 27.13 14.88 27.13 15.75 C27.13 16.65 26.92 17.33 26.51 17.83 C26.08 18.31 25.48 18.55 24.69 18.55 L23.43 18.55 C23.43 18.55 23.43 18.41 23.43 18.13 C23.43 17.87 23.43 17.53 23.43 17.11 C23.43 16.69 23.43 16.24 23.43 15.77 C23.43 15.31 23.43 14.85 23.43 14.44 C23.43 14.01 23.43 13.67 23.43 13.40 C23.43 13.13 23.43 13.00 23.43 13.00 L24.69 13.00 C25.47 13.00 26.07 13.24 26.49 13.72 ZM24.97 11.53L21.65 11.53 L21.65 20.00 L24.97 20.00 C26.24 20.00 27.23 19.63 27.91 18.89 C28.60 18.15 28.95 17.09 28.95 15.72 C28.95 14.39 28.60 13.36 27.91 12.63 C27.21 11.91 26.24 11.53 24.97 11.53 ZM7.61 11.55L5.52 11.55 L2.60 20.00 L4.37 20.00 L5.03 17.95 L7.99 17.95 C7.99 17.95 8.03 18.05 8.09 18.25 C8.16 18.47 8.23 18.71 8.31 18.97 C8.40 19.24 8.47 19.48 8.53 19.69 C8.60 19.89 8.63 20.00 8.63 20.00 L10.55 20.00 L7.61 11.55 ZM32.00 16.00C32.00 24.84 24.84 32.00 16.00 32.00 C12.43 32.00 9.13 30.83 6.47 28.85 C2.55 25.93 0.00 21.27 0.00 16.00 C0.00 7.16 7.16 0.00 16.00 0.00 C24.84 0.00 32.00 7.16 32.00 16.00 ZM32.00 16.00" fill="#000000" fill-opacity="1.00" />
				</svg>
				<svg height="32.00" width="32.00" x="0.00" y="0.00" />
			</svg>
		</svg>
	</svg>
	<svg height="100.00" id="node18" width="200.00" x="318.50" y="755.50">
		<svg height="51.00" width="139.00" x="30.50" y="24.50">
			<path d="M2.00 25.50L2.00 11.00 C2.00 6.03 6.03 2.00 11.00 2.00 L128.00 2.00 C132.97 2.00 137.00 6.03 137.00 11.00 L137.00 40.00 C137.00 44.97 132.97 49.00 128.00 49.00 C128.00 49.00 128.00 49.00 128.00 49.00 L11.00 49.00 C6.03 49.00 2.00 44.97 2.00 40.00 ZM2.00 25.50" fill="#ffffff" fill-opacity="1.00" />
			<svg height="51.00" width="139.00" x="0.00" y="0.00">
				<path d="M2.75 21.75L2.75 10.25 C2.75 6.11 6.11 2.75 10.25 2.75 L128.75 2.75 C132.89 2.75 136.25 6.11 136.25 10.25 L136.25 21.75 L2.75 21.75 " fill="#8e96cc" fill-opacity="1.00" />
				<text dominant-baseline="middle" fill="#000000" fill-opacity="1.00" font-family="Verdana" font-size="11.00" font-weight="bold" text-anchor="middle" x="69.50" y="12.25">Changeable</text>
				<svg height="51.00" width="139.00" x="0.00" y="0.00">
					<path d="M2.00 25.50L2.00 11.00 C2.00 6.03 6.03 2.00 11.00 2.00 L128.00 2.00 C132.97 2.00 137.00 6.03 137.00 11.00 L137.00 40.00 C137.00 44.97 132.97 49.00 128.00 49.00 C128.00 49.00 128.00 49.00 128.00 49.00 L11.00 49.00 C6.03 49.00 2.00 44.97 2.00 40.00 ZM2.00 25.50" fill="none" stroke="#000000" stroke-opacity="1.00" stroke-width="1.50" />
					<svg height="18.00" width="125.00" x="7.00" y="26.00">
						<svg height="18.00" width="125.00" x="0.00" y="0.00">
							<text dominant-baseline="middle" fill="#000000" fill-opacity="1.00" font-family="Verdana" font-size="14.00" font-weight="normal" text-anchor="middle" x="62.50" y="9.00">No clear Priorities</text>
						</svg>
					</svg>
				</svg>
			</svg>
		</svg>
	</svg>
	<svg height="100.00" id="node9" width="200.00" x="390.50" y="514.00">
		<svg height="68.00" width="186.00" x="7.00" y="16.00">
			<path d="M2.00 34.00L2.00 11.00 C2.00 6.03 6.03 2.00 11.00 2.00 L175.00 2.00 C179.97 2.00 184.00 6.03 184.00 11.00 L184.00 57.00 C184.00 61.97 179.97 66.00 175.00 66.00 C175.00 66.00 175.00 66.00 175.00 66.00 L11.00 66.00 C6.03 66.00 2.00 61.97 2.00 57.00 ZM2.00 34.00" fill="#ffffff" fill-opacity="1.00" />
			<svg height="68.00" width="186.00" x="0.00" y="0.00">
				<path d="M2.75 21.75L2.75 10.25 C2.75 6.11 6.11 2.75 10.25 2.75 L175.75 2.75 C179.89 2.75 183.25 6.11 183.25 10.25 L183.25 21.75 L2.75 21.75 " fill="#a34753" fill-opacity="1.00" />
				<text dominant-baseline="middle" fill="#ffffff" fill-opacity="1.00" font-family="Verdana" font-size="11.00" font-weight="bold" text-anchor="middle" x="93.00" y="12.25">Undesirable Effect</text>
				<svg height="68.00" width="186.00" x="0.00" y="0.00">
					<path d="M2.00 34.00L2.00 11.00 C2.00 6.03 6.03 2.00 11.00 2.00 L175.00 2.00 C179.97 2.00 184.00 6.03 184.00 11.00 L184.00 57.00 C184.00 61.97 179.97 66.00 175.00 66.00 C175.00 66.00 175.00 66.00 175.00 66.00 L11.00 66.00 C6.03 66.00 2.00 61.97 2.00 57.00 ZM2.00 34.00" fill="none" stroke="#000000" stroke-opacity="1.00" stroke-width="1.50" />
					<svg height="35.00" width="172.00" x="7.00" y="26.00">
						<svg height="35.00" width="172.00" x="0.00" y="0.00">
							<text dominant-baseline="middle" fill="#000000" fill-opacity="1.00" font-family="Verdana" font-size="14.00" font-weight="normal" text-anchor="middle" x="86.00" y="8.75">Not reassessing existing</text>
							<text dominant-baseline="middle" fill="#000000" fill-opacity="1.00" font-family="Verdana" font-size="14.00" font-weight="normal" text-anchor="middle" x="86.00" y="26.25">items on To-Do list</text>
						</svg>
					</svg>
				</svg>
			</svg>
		</svg>
	</svg>
	<svg height="100.00" id="node21" width="200.00" x="318.50" y="675.00">
		<svg height="68.00" width="134.00" x="33.00" y="16.00">
			<path d="M2.00 34.00L2.00 11.00 C2.00 6.03 6.03 2.00 11.00 2.00 L123.00 2.00 C127.97 2.00 132.00 6.03 132.00 11.00 L132.00 57.00 C132.00 61.97 127.97 66.00 123.00 66.00 C123.00 66.00 123.00 66.00 123.00 66.00 L11.00 66.00 C6.03 66.00 2.00 61.97 2.00 57.00 ZM2.00 34.00" fill="#ffffff" fill-opacity="1.00" />
			<svg height="68.00" width="134.00" x="0.00" y="0.00">
				<path d="M2.75 21.75L2.75 10.25 C2.75 6.11 6.11 2.75 10.25 2.75 L123.75 2.75 C127.89 2.75 131.25 6.11 131.25 10.25 L131.25 21.75 L2.75 21.75 " fill="#a34753" fill-opacity="1.00" />
				<text dominant-baseline="middle" fill="#ffffff" fill-opacity="1.00" font-family="Verdana" font-size="11.00" font-weight="bold" text-anchor="middle" x="67.00" y="12.25">Undesirable Effect</text>
				<svg height="68.00" width="134.00" x="0.00" y="0.00">
					<path d="M2.00 34.00L2.00 11.00 C2.00 6.03 6.03 2.00 11.00 2.00 L123.00 2.00 C127.97 2.00 132.00 6.03 132.00 11.00 L132.00 57.00 C132.00 61.97 127.97 66.00 123.00 66.00 C123.00 66.00 123.00 66.00 123.00 66.00 L11.00 66.00 C6.03 66.00 2.00 61.97 2.00 57.00 ZM2.00 34.00" fill="none" stroke="#000000" stroke-opacity="1.00" stroke-width="1.50" />
					<svg height="35.00" width="120.00" x="7.00" y="26.00">
						<svg height="35.00" width="120.00" x="0.00" y="0.00">
							<text dominant-baseline="middle" fill="#000000" fill-opacity="1.00" font-family="Verdana" font-size="14.00" font-weight="normal" text-anchor="middle" x="60.00" y="8.75">Don&apos;t know what</text>
							<text dominant-baseline="middle" fill="#000000" fill-opacity="1.00" font-family="Verdana" font-size="14.00" font-weight="normal" text-anchor="middle" x="60.00" y="26.25">to prioritise</text>
						</svg>
					</svg>
				</svg>
			</svg>
		</svg>
	</svg>
	<svg height="100.00" id="node15" width="200.00" x="80.50" y="51.00">
		<svg height="32.00" width="32.00" x="84.00" y="34.00">
			<svg height="32.00" width="32.00" x="0.00" y="0.00">
				<svg x="0.00" y="-0.00">
					<path d="M6.57 13.27C6.57 13.27 6.64 13.51 6.75 13.85 C7.05 14.81 7.61 16.63 7.61 16.63 L5.40 16.63 C5.40 16.63 5.44 16.51 5.51 16.28 C5.59 16.05 5.67 15.77 5.77 15.44 L6.09 14.44 C6.20 14.11 6.28 13.84 6.36 13.61 C6.43 13.39 6.47 13.27 6.47 13.27 L6.57 13.27 L6.57 13.27 ZM19.37 11.55L17.68 11.55 L17.68 16.93 L17.57 16.93 L13.69 11.55 L12.21 11.55 L12.21 20.00 L13.91 20.00 L13.91 14.59 L14.01 14.59 L17.91 20.00 L19.37 20.00 L19.37 11.55 ZM26.49 13.72C26.92 14.20 27.13 14.88 27.13 15.75 C27.13 16.65 26.92 17.33 26.51 17.83 C26.08 18.31 25.48 18.55 24.69 18.55 L23.43 18.55 C23.43 18.55 23.43 18.41 23.43 18.13 C23.43 17.87 23.43 17.53 23.43 17.11 C23.43 16.69 23.43 16.24 23.43 15.77 C23.43 15.31 23.43 14.85 23.43 14.44 C23.43 14.01 23.43 13.67 23.43 13.40 C23.43 13.13 23.43 13.00 23.43 13.00 L24.69 13.00 C25.47 13.00 26.07 13.24 26.49 13.72 ZM24.97 11.53L21.65 11.53 L21.65 20.00 L24.97 20.00 C26.24 20.00 27.23 19.63 27.91 18.89 C28.60 18.15 28.95 17.09 28.95 15.72 C28.95 14.39 28.60 13.36 27.91 12.63 C27.21 11.91 26.24 11.53 24.97 11.53 ZM7.61 11.55L5.52 11.55 L2.60 20.00 L4.37 20.00 L5.03 17.95 L7.99 17.95 C7.99 17.95 8.03 18.05 8.09 18.25 C8.16 18.47 8.23 18.71 8.31 18.97 C8.40 19.24 8.47 19.48 8.53 19.69 C8.60 19.89 8.63 20.00 8.63 20.00 L10.55 20.00 L7.61 11.55 ZM32.00 16.00C32.00 24.84 24.84 32.00 16.00 32.00 C12.43 32.00 9.13 30.83 6.47 28.85 C2.55 25.93 0.00 21.27 0.00 16.00 C0.00 7.16 7.16 0.00 16.00 0.00 C24.84 0.00 32.00 7.16 32.00 16.00 ZM32.00 16.00" fill="#000000" fill-opacity="1.00" />
				</svg>
				<svg height="32.00" width="32.00" x="0.00" y="0.00" />
			</svg>
		</svg>
	</svg>
	<svg height="100.00" id="node12" width="200.00" x="181.50" y="443.00">
		<svg height="32.00" width="32.00" x="84.00" y="34.00">
			<svg height="32.00" width="32.00" x="0.00" y="0.00">
				<svg x="0.00" y="-0.00">
					<path d="M6.57 13.27C6.57 13.27 6.64 13.51 6.75 13.85 C7.05 14.81 7.61 16.63 7.61 16.63 L5.40 16.63 C5.40 16.63 5.44 16.51 5.51 16.28 C5.59 16.05 5.67 15.77 5.77 15.44 L6.09 14.44 C6.20 14.11 6.28 13.84 6.36 13.61 C6.43 13.39 6.47 13.27 6.47 13.27 L6.57 13.27 L6.57 13.27 ZM19.37 11.55L17.68 11.55 L17.68 16.93 L17.57 16.93 L13.69 11.55 L12.21 11.55 L12.21 20.00 L13.91 20.00 L13.91 14.59 L14.01 14.59 L17.91 20.00 L19.37 20.00 L19.37 11.55 ZM26.49 13.72C26.92 14.20 27.13 14.88 27.13 15.75 C27.13 16.65 26.92 17.33 26.51 17.83 C26.08 18.31 25.48 18.55 24.69 18.55 L23.43 18.55 C23.43 18.55 23.43 18.41 23.43 18.13 C23.43 17.87 23.43 17.53 23.43 17.11 C23.43 16.69 23.43 16.24 23.43 15.77 C23.43 15.31 23.43 14.85 23.43 14.44 C23.43 14.01 23.43 13.67 23.43 13.40 C23.43 13.13 23.43 13.00 23.43 13.00 L24.69 13.00 C25.47 13.00 26.07 13.24 26.49 13.72 ZM24.97 11.53L21.65 11.53 L21.65 20.00 L24.97 20.00 C26.24 20.00 27.23 19.63 27.91 18.89 C28.60 18.15 28.95 17.09 28.95 15.72 C28.95 14.39 28.60 13.36 27.91 12.63 C27.21 11.91 26.24 11.53 24.97 11.53 ZM7.61 11.55L5.52 11.55 L2.60 20.00 L4.37 20.00 L5.03 17.95 L7.99 17.95 C7.99 17.95 8.03 18.05 8.09 18.25 C8.16 18.47 8.23 18.71 8.31 18.97 C8.40 19.24 8.47 19.48 8.53 19.69 C8.60 19.89 8.63 20.00 8.63 20.00 L10.55 20.00 L7.61 11.55 ZM32.00 16.00C32.00 24.84 24.84 32.00 16.00 32.00 C12.43 32.00 9.13 30.83 6.47 28.85 C2.55 25.93 0.00 21.27 0.00 16.00 C0.00 7.16 7.16 0.00 16.00 0.00 C24.84 0.00 32.00 7.16 32.00 16.00 ZM32.00 16.00" fill="#000000" fill-opacity="1.00" />
				</svg>
				<svg height="32.00" width="32.00" x="0.00" y="0.00" />
			</svg>
		</svg>
	</svg>
	<svg height="100.00" id="node2" width="200.00" x="324.50" y="247.00">
		<svg height="51.00" width="125.00" x="37.50" y="24.50">
			<path d="M2.00 25.50L2.00 11.00 C2.00 6.03 6.03 2.00 11.00 2.00 L114.00 2.00 C118.97 2.00 123.00 6.03 123.00 11.00 L123.00 40.00 C123.00 44.97 118.97 49.00 114.00 49.00 C114.00 49.00 114.00 49.00 114.00 49.00 L11.00 49.00 C6.03 49.00 2.00 44.97 2.00 40.00 ZM2.00 25.50" fill="#ffffff" fill-opacity="1.00" />
			<svg height="51.00" width="125.00" x="0.00" y="0.00">
				<path d="M2.75 21.75L2.75 10.25 C2.75 6.11 6.11 2.75 10.25 2.75 L114.75 2.75 C118.89 2.75 122.25 6.11 122.25 10.25 L122.25 21.75 L2.75 21.75 " fill="#a34753" fill-opacity="1.00" />
				<text dominant-baseline="middle" fill="#ffffff" fill-opacity="1.00" font-family="Verdana" font-size="11.00" font-weight="bold" text-anchor="middle" x="62.50" y="12.25">Undesirable Effect</text>
				<svg height="51.00" width="125.00" x="0.00" y="0.00">
					<path d="M2.00 25.50L2.00 11.00 C2.00 6.03 6.03 2.00 11.00 2.00 L114.00 2.00 C118.97 2.00 123.00 6.03 123.00 11.00 L123.00 40.00 C123.00 44.97 118.97 49.00 114.00 49.00 C114.00 49.00 114.00 49.00 114.00 49.00 L11.00 49.00 C6.03 49.00 2.00 44.97 2.00 40.00 ZM2.00 25.50" fill="none" stroke="#000000" stroke-opacity="1.00" stroke-width="1.50" />
					<svg height="18.00" width="111.00" x="7.00" y="26.00">
						<svg height="18.00" width="111.00" x="0.00" y="0.00">
							<text dominant-baseline="middle" fill="#000000" fill-opacity="1.00" font-family="Verdana" font-size="14.00" font-weight="normal" text-anchor="middle" x="55.50" y="9.00">Too much to do</text>
						</svg>
					</svg>
				</svg>
			</svg>
		</svg>
	</svg>
	<svg height="39.43" id="edgeLine14" width="90.29" x="182.23" y="494.92">
		<path d="M8.47 33.50C33.55 23.99 58.61 14.49 76.02 7.89 L86.29 4.00 " fill="none" stroke="#000000" stroke-opacity="1.00" stroke-width="1.50" />
		<svg height="3.89" id="edgeHead14" width="10.27" x="76.02" y="4.00">
			<path d="M10.27 -0.00L0.00 3.89 " fill="#000000" fill-opacity="1.00" />
		</svg>
		<svg height="8.75" id="edgeTail14" width="8.75" x="0.00" y="30.68">
			<path d="M7.47 7.47C9.18 5.76 9.18 2.99 7.47 1.28 C5.76 -0.43 2.99 -0.43 1.28 1.28 C-0.43 2.99 -0.43 5.76 1.28 7.47 C2.99 9.18 5.76 9.18 7.47 7.47 " fill="#000000" fill-opacity="1.00" />
		</svg>
	</svg>
	<svg height="424.25" id="edgeLine18" width="74.00" x="100.90" y="107.55">
		<path d="M5.09 415.39C8.75 389.40 12.60 354.76 12.60 323.96 C12.60 323.96 12.60 323.96 12.60 117.46 C12.60 75.60 42.90 34.41 62.74 11.93 L70.00 4.00 " fill="none" stroke="#000000" stroke-opacity="1.00" stroke-width="1.50" />
		<svg height="7.92" id="edgeHead18" width="7.26" x="62.74" y="4.00">
			<path d="M7.26 -0.00L0.00 7.92 " fill="#000000" fill-opacity="1.00" />
		</svg>
		<svg height="8.90" id="edgeTail18" width="8.90" x="-0.00" y="415.35">
			<path d="M7.60 7.60C9.34 5.86 9.34 3.04 7.60 1.30 C5.86 -0.44 3.04 -0.44 1.30 1.30 C-0.43 3.04 -0.43 5.86 1.30 7.60 C3.04 9.33 5.86 9.33 7.60 7.60 " fill="#000000" fill-opacity="1.00" />
		</svg>
	</svg>
	<svg height="36.92" id="edgeLine7" width="8.00" x="420.50" y="320.77">
		<path d="M4.00 32.92L4.00 24.12 C4.00 19.90 4.00 15.40 4.00 10.92 " fill="none" stroke="#000000" stroke-opacity="1.00" stroke-width="1.50" />
		<svg height="10.00" id="edgeHead7" width="8.00" x="0.00" y="-0.00">
			<path d="M3.00 10.00L3.00 10.00 L0.00 10.00 L4.00 0.00 L8.00 10.00 L5.00 10.00 L5.00 10.00 ZM3.00 10.00" fill="#000000" fill-opacity="1.00" />
		</svg>
		<svg height="8.80" id="edgeTail7" width="0.00" x="4.00" y="24.12">
			<path d="M0.00 8.80L0.00 -0.00 " fill="#000000" fill-opacity="1.00" />
		</svg>
	</svg>
	<svg height="154.61" id="edgeLine8" width="58.11" x="424.74" y="377.46">
		<path d="M52.35 146.13C38.85 106.43 18.48 46.57 7.48 14.22 L4.00 4.00 " fill="none" stroke="#000000" stroke-opacity="1.00" stroke-width="1.50" />
		<svg height="10.22" id="edgeHead8" width="3.48" x="4.00" y="4.00">
			<path d="M0.00 0.00L3.48 10.22 " fill="#000000" fill-opacity="1.00" />
		</svg>
		<svg height="8.71" id="edgeTail8" width="8.71" x="49.40" y="145.90">
			<path d="M7.44 7.43C9.14 5.73 9.14 2.97 7.44 1.27 C5.74 -0.43 2.98 -0.43 1.28 1.27 C-0.43 2.97 -0.43 5.73 1.28 7.43 C2.98 9.14 5.74 9.14 7.44 7.43 " fill="#000000" fill-opacity="1.00" />
		</svg>
	</svg>
	<svg height="77.61" id="edgeLine20" width="16.10" x="266.51" y="329.02">
		<path d="M11.13 68.77C9.01 51.33 6.35 29.47 4.06 10.67 " fill="none" stroke="#000000" stroke-opacity="1.00" stroke-width="1.50" />
		<svg height="10.41" id="edgeHead20" width="7.94" x="0.00" y="0.00">
			<path d="M2.98 10.05L2.98 10.05 L0.00 10.41 L2.76 0.00 L7.94 9.44 L4.96 9.81 L4.96 9.81 ZM2.98 10.05" fill="#000000" fill-opacity="1.00" />
		</svg>
		<svg height="8.87" id="edgeTail20" width="8.87" x="7.23" y="68.74">
			<path d="M7.57 7.57C9.31 5.84 9.31 3.03 7.57 1.30 C5.84 -0.44 3.03 -0.44 1.30 1.30 C-0.43 3.03 -0.43 5.84 1.30 7.57 C3.03 9.30 5.84 9.30 7.57 7.57 " fill="#000000" fill-opacity="1.00" />
		</svg>
	</svg>
	<svg height="28.75" id="edgeLine21" width="10.41" x="256.92" y="187.12">
		<path d="M6.41 24.75L4.95 15.94 C4.67 14.24 4.38 12.50 4.09 10.75 " fill="none" stroke="#000000" stroke-opacity="1.00" stroke-width="1.50" />
		<svg height="10.52" id="edgeHead21" width="7.89" x="0.00" y="0.00">
			<path d="M2.96 10.03L2.96 10.03 L0.00 10.52 L2.32 0.00 L7.89 9.22 L4.93 9.70 L4.93 9.70 ZM2.96 10.03" fill="#000000" fill-opacity="1.00" />
		</svg>
		<svg height="8.81" id="edgeTail21" width="1.46" x="4.95" y="15.94">
			<path d="M1.46 8.81L0.00 0.00 " fill="#000000" fill-opacity="1.00" />
		</svg>
	</svg>
	<svg height="25.62" id="edgeLine28" width="23.60" x="367.89" y="668.05">
		<path d="M16.17 17.87C13.14 14.53 10.11 11.17 7.15 7.90 " fill="none" stroke="#000000" stroke-opacity="1.00" stroke-width="1.50" />
		<svg height="10.10" id="edgeHead28" width="9.67" x="0.00" y="-0.00">
			<path d="M5.97 8.09L5.97 8.09 L3.74 10.10 L0.00 0.00 L9.67 4.73 L7.45 6.75 L7.45 6.75 ZM5.97 8.09" fill="#000000" fill-opacity="1.00" />
		</svg>
		<svg height="8.90" id="edgeTail28" width="8.90" x="14.71" y="16.72">
			<path d="M7.59 7.60C9.33 5.86 9.33 3.04 7.59 1.31 C5.86 -0.43 3.04 -0.43 1.30 1.31 C-0.43 3.04 -0.43 5.86 1.30 7.60 C3.04 9.33 5.86 9.33 7.59 7.60 " fill="#000000" fill-opacity="1.00" />
		</svg>
	</svg>
	<svg height="28.74" id="edgeLine1" width="11.29" x="279.39" y="503.04">
		<path d="M6.34 20.12C6.07 18.31 5.81 16.51 5.56 14.76 L4.00 4.00 " fill="none" stroke="#000000" stroke-opacity="1.00" stroke-width="1.50" />
		<svg height="10.76" id="edgeHead1" width="1.56" x="4.00" y="4.00">
			<path d="M0.00 0.00L1.56 10.76 " fill="#000000" fill-opacity="1.00" />
		</svg>
		<svg height="8.66" id="edgeTail1" width="8.66" x="2.63" y="20.08">
			<path d="M7.40 7.39C9.09 5.70 9.09 2.96 7.40 1.26 C5.70 -0.43 2.96 -0.43 1.27 1.26 C-0.42 2.96 -0.42 5.70 1.27 7.39 C2.96 9.08 5.70 9.08 7.40 7.39 " fill="#000000" fill-opacity="1.00" />
		</svg>
	</svg>
	<svg height="28.34" id="edgeLine22" width="8.83" x="261.08" y="236.39">
		<path d="M4.42 19.51C4.42 17.94 4.42 16.39 4.42 14.87 L4.42 4.00 " fill="none" stroke="#000000" stroke-opacity="1.00" stroke-width="1.50" />
		<svg height="10.87" id="edgeHead22" width="0.00" x="4.42" y="4.00">
			<path d="M0.00 -0.00L0.00 10.87 " fill="#000000" fill-opacity="1.00" />
		</svg>
		<svg height="8.83" id="edgeTail22" width="8.83" x="0.00" y="19.51">
			<path d="M7.54 7.54C9.26 5.81 9.26 3.02 7.54 1.29 C5.81 -0.43 3.02 -0.43 1.29 1.29 C-0.43 3.02 -0.43 5.81 1.29 7.54 C3.02 9.26 5.81 9.26 7.54 7.54 " fill="#000000" fill-opacity="1.00" />
		</svg>
	</svg>
	<svg height="34.73" id="edgeLine16" width="41.03" x="187.10" y="106.55">
		<path d="M33.15 27.51C26.01 21.76 18.77 15.92 12.46 10.83 L4.00 4.00 " fill="none" stroke="#000000" stroke-opacity="1.00" stroke-width="1.50" />
		<svg height="6.83" id="edgeHead16" width="8.46" x="4.00" y="4.00">
			<path d="M0.00 0.00L8.46 6.83 " fill="#000000" fill-opacity="1.00" />
		</svg>
		<svg height="8.87" id="edgeTail16" width="8.87" x="32.16" y="25.86">
			<path d="M7.57 7.57C9.30 5.84 9.30 3.03 7.57 1.30 C5.84 -0.43 3.03 -0.43 1.30 1.30 C-0.43 3.03 -0.43 5.84 1.30 7.57 C3.03 9.30 5.84 9.30 7.57 7.57 " fill="#000000" fill-opacity="1.00" />
		</svg>
	</svg>
	<svg height="28.17" id="edgeLine17" width="8.00" x="176.50" y="62.40">
		<path d="M4.00 24.17L4.00 15.17 C4.00 13.78 4.00 12.36 4.00 10.93 " fill="none" stroke="#000000" stroke-opacity="1.00" stroke-width="1.50" />
		<svg height="10.00" id="edgeHead17" width="8.00" x="0.00" y="-0.00">
			<path d="M3.00 10.00L3.00 10.00 L0.00 10.00 L4.00 0.00 L8.00 10.00 L5.00 10.00 L5.00 10.00 ZM3.00 10.00" fill="#000000" fill-opacity="1.00" />
		</svg>
		<svg height="9.00" id="edgeTail17" width="0.00" x="4.00" y="15.17">
			<path d="M0.00 9.00L0.00 0.00 " fill="#000000" fill-opacity="1.00" />
		</svg>
	</svg>
	<svg height="47.01" id="edgeLine15" width="97.52" x="274.39" y="228.59">
		<path d="M89.31 41.02C62.87 29.55 33.52 16.81 13.85 8.27 L4.00 4.00 " fill="none" stroke="#000000" stroke-opacity="1.00" stroke-width="1.50" />
		<svg height="4.27" id="edgeHead15" width="9.85" x="4.00" y="4.00">
			<path d="M0.00 -0.00L9.85 4.27 " fill="#000000" fill-opacity="1.00" />
		</svg>
		<svg height="8.57" id="edgeTail15" width="8.57" x="88.95" y="38.44">
			<path d="M7.32 7.31C8.99 5.64 8.99 2.93 7.32 1.25 C5.64 -0.42 2.93 -0.42 1.26 1.25 C-0.42 2.93 -0.42 5.64 1.26 7.31 C2.93 8.99 5.64 8.99 7.32 7.31 " fill="#000000" fill-opacity="1.00" />
		</svg>
	</svg>
	<svg height="38.95" id="edgeLine2" width="80.53" x="335.21" y="370.40">
		<path d="M8.55 32.76C29.25 24.01 51.00 14.80 66.71 8.16 L76.53 4.01 " fill="none" stroke="#000000" stroke-opacity="1.00" stroke-width="1.50" />
		<svg height="4.15" id="edgeHead2" width="9.82" x="66.71" y="4.01">
			<path d="M9.82 -0.00L0.00 4.15 " fill="#000000" fill-opacity="1.00" />
		</svg>
		<svg height="8.90" id="edgeTail2" width="8.90" x="-0.00" y="30.05">
			<path d="M7.60 7.60C9.34 5.86 9.34 3.04 7.60 1.30 C5.86 -0.44 3.04 -0.44 1.30 1.30 C-0.43 3.04 -0.43 5.86 1.30 7.60 C3.04 9.33 5.86 9.33 7.60 7.60 " fill="#000000" fill-opacity="1.00" />
		</svg>
	</svg>
	<svg height="28.17" id="edgeLine13" width="8.00" x="277.50" y="454.40">
		<path d="M4.00 24.17L4.00 15.17 C4.00 13.78 4.00 12.36 4.00 10.93 " fill="none" stroke="#000000" stroke-opacity="1.00" stroke-width="1.50" />
		<svg height="10.00" id="edgeHead13" width="8.00" x="0.00" y="-0.00">
			<path d="M3.00 10.00L3.00 10.00 L0.00 10.00 L4.00 0.00 L8.00 10.00 L5.00 10.00 L5.00 10.00 ZM3.00 10.00" fill="#000000" fill-opacity="1.00" />
		</svg>
		<svg height="9.00" id="edgeTail13" width="0.00" x="4.00" y="15.17">
			<path d="M0.00 9.00L0.00 0.00 " fill="#000000" fill-opacity="1.00" />
		</svg>
	</svg>
	<svg height="24.38" id="edgeLine26" width="8.91" x="414.05" y="757.41">
		<path d="M4.45 15.47C4.45 13.88 4.45 12.27 4.45 10.65 " fill="none" stroke="#000000" stroke-opacity="1.00" stroke-width="1.50" />
		<svg height="10.00" id="edgeHead26" width="8.00" x="0.45" y="-0.00">
			<path d="M3.00 10.00L3.00 10.00 L0.00 10.00 L4.00 0.00 L8.00 10.00 L5.00 10.00 L5.00 10.00 ZM3.00 10.00" fill="#000000" fill-opacity="1.00" />
		</svg>
		<svg height="8.91" id="edgeTail26" width="8.91" x="0.00" y="15.47">
			<path d="M7.60 7.61C9.34 5.87 9.34 3.05 7.60 1.31 C5.86 -0.43 3.04 -0.43 1.30 1.31 C-0.43 3.05 -0.43 5.87 1.30 7.61 C3.04 9.34 5.86 9.34 7.60 7.61 " fill="#000000" fill-opacity="1.00" />
		</svg>
	</svg>
	<svg height="25.18" id="edgeLine34" width="19.20" x="313.91" y="596.41">
		<path d="M12.40 17.38C10.37 14.54 8.29 11.62 6.21 8.71 " fill="none" stroke="#000000" stroke-opacity="1.00" stroke-width="1.50" />
		<svg height="10.46" id="edgeHead34" width="9.06" x="0.00" y="-0.00">
			<path d="M4.99 8.72L4.99 8.72 L2.55 10.46 L0.00 -0.00 L9.06 5.81 L6.62 7.56 L6.62 7.56 ZM4.99 8.72" fill="#000000" fill-opacity="1.00" />
		</svg>
		<svg height="8.60" id="edgeTail34" width="8.60" x="10.59" y="16.58">
			<path d="M7.34 7.34C9.02 5.66 9.02 2.94 7.34 1.26 C5.66 -0.42 2.94 -0.42 1.26 1.26 C-0.42 2.94 -0.42 5.66 1.26 7.34 C2.94 9.02 5.66 9.02 7.34 7.34 " fill="#000000" fill-opacity="1.00" />
		</svg>
	</svg>
	<svg height="97.11" id="edgeLine38" width="45.02" x="434.49" y="596.08">
		<path d="M6.39 88.98C9.40 83.31 12.36 77.50 15.01 71.91 C24.46 51.95 33.68 29.19 40.97 10.15 " fill="none" stroke="#000000" stroke-opacity="1.00" stroke-width="1.50" />
		<svg height="10.77" id="edgeHead38" width="7.48" x="37.53" y="-0.00">
			<path d="M2.81 9.00L2.81 9.00 L0.00 7.94 L7.28 0.00 L7.48 10.77 L4.68 9.71 L4.68 9.71 ZM2.81 9.00" fill="#000000" fill-opacity="1.00" />
		</svg>
		<svg height="8.65" id="edgeTail38" width="8.65" x="-0.00" y="88.46">
			<path d="M7.38 7.38C9.07 5.69 9.07 2.96 7.38 1.27 C5.69 -0.42 2.96 -0.42 1.27 1.27 C-0.42 2.96 -0.42 5.69 1.27 7.38 C2.96 9.07 5.69 9.07 7.38 7.38 " fill="#000000" fill-opacity="1.00" />
		</svg>
	</svg>
	<svg height="26.42" id="edgeLine37" width="44.58" x="388.71" y="596.41">
		<path d="M8.11 20.02C16.84 15.23 26.05 10.17 35.15 5.17 " fill="none" stroke="#000000" stroke-opacity="1.00" stroke-width="1.50" />
		<svg height="8.32" id="edgeHead37" width="10.69" x="33.88" y="0.00">
			<path d="M1.44 3.94L1.44 3.94 L0.00 1.31 L10.69 0.00 L3.85 8.32 L2.41 5.69 L2.41 5.69 ZM1.44 3.94" fill="#000000" fill-opacity="1.00" />
		</svg>
		<svg height="8.65" id="edgeTail37" width="8.65" x="0.00" y="17.77">
			<path d="M7.38 7.38C9.07 5.70 9.07 2.96 7.38 1.27 C5.69 -0.42 2.95 -0.42 1.27 1.27 C-0.42 2.96 -0.42 5.70 1.27 7.38 C2.95 9.07 5.69 9.07 7.38 7.38 " fill="#000000" fill-opacity="1.00" />
		</svg>
	</svg>
</svg>