<?xml version="1.0" encoding="utf-8" standalone="no"?>
<svg version="1.1" viewBox="0.00 0.00 1029.50 94.00" xmlns="http://www.w3.org/2000/svg">
	<svg height="100.00" id="node5" width="200.00" x="499.50" y="-3.00">
		<svg height="51.00" width="143.00" x="28.50" y="24.50">
			<path d="M2.00 25.50L2.00 11.00 C2.00 6.03 6.03 2.00 11.00 2.00 L132.00 2.00 C136.97 2.00 141.00 6.03 141.00 11.00 L141.00 40.00 C141.00 44.97 136.97 49.00 132.00 49.00 C132.00 49.00 132.00 49.00 132.00 49.00 L11.00 49.00 C6.03 49.00 2.00 44.97 2.00 40.00 ZM2.00 25.50" fill="#ffffff" fill-opacity="1.00" />
			<svg height="51.00" width="143.00" x="0.00" y="0.00">
				<path d="M2.75 21.75L2.75 10.25 C2.75 6.11 6.11 2.75 10.25 2.75 L132.75 2.75 C136.89 2.75 140.25 6.11 140.25 10.25 L140.25 21.75 L2.75 21.75 " fill="#a34753" fill-opacity="1.00" />
				<text dominant-baseline="middle" fill="#ffffff" fill-opacity="1.00" font-family="Verdana" font-size="11.00" font-weight="bold" text-anchor="middle" x="71.50" y="12.25">Undesirable Effect</text>
				<svg height="51.00" width="143.00" x="0.00" y="0.00">
					<path d="M2.00 25.50L2.00 11.00 C2.00 6.03 6.03 2.00 11.00 2.00 L132.00 2.00 C136.97 2.00 141.00 6.03 141.00 11.00 L141.00 40.00 C141.00 44.97 136.97 49.00 132.00 49.00 C132.00 49.00 132.00 49.00 132.00 49.00 L11.00 49.00 C6.03 49.00 2.00 44.97 2.00 40.00 ZM2.00 25.50" fill="none" stroke="#f9424f" stroke-opacity="1.00" stroke-width="1.50" />
					<svg height="18.00" width="129.00" x="7.00" y="26.00">
						<svg height="18.00" width="129.00" x="0.00" y="0.00">
							<text dominant-baseline="middle" fill="#000000" fill-opacity="1.00" font-family="Verdana" font-size="14.00" font-weight="normal" text-anchor="middle" x="64.50" y="9.00">Feeling exhausted</text>
						</svg>
					</svg>
				</svg>
			</svg>
		</svg>
	</svg>
	<svg height="100.00" id="node7" width="200.00" x="667.50" y="-3.00">
		<svg height="68.00" width="121.00" x="39.50" y="16.00">
			<path d="M2.00 34.00L2.00 11.00 C2.00 6.03 6.03 2.00 11.00 2.00 L110.00 2.00 C114.97 2.00 119.00 6.03 119.00 11.00 L119.00 57.00 C119.00 61.97 114.97 66.00 110.00 66.00 C110.00 66.00 110.00 66.00 110.00 66.00 L11.00 66.00 C6.03 66.00 2.00 61.97 2.00 57.00 ZM2.00 34.00" fill="#ffffff" fill-opacity="1.00" />
			<svg height="68.00" width="121.00" x="0.00" y="0.00">
				<path d="M2.75 21.75L2.75 10.25 C2.75 6.11 6.11 2.75 10.25 2.75 L110.75 2.75 C114.89 2.75 118.25 6.11 118.25 10.25 L118.25 21.75 L2.75 21.75 " fill="#a34753" fill-opacity="1.00" />
				<text dominant-baseline="middle" fill="#ffffff" fill-opacity="1.00" font-family="Verdana" font-size="11.00" font-weight="bold" text-anchor="middle" x="60.50" y="12.25">Undesirable Effect</text>
				<svg height="68.00" width="121.00" x="0.00" y="0.00">
					<path d="M2.00 34.00L2.00 11.00 C2.00 6.03 6.03 2.00 11.00 2.00 L110.00 2.00 C114.97 2.00 119.00 6.03 119.00 11.00 L119.00 57.00 C119.00 61.97 114.97 66.00 110.00 66.00 C110.00 66.00 110.00 66.00 110.00 66.00 L11.00 66.00 C6.03 66.00 2.00 61.97 2.00 57.00 ZM2.00 34.00" fill="none" stroke="#f9424f" stroke-opacity="1.00" stroke-width="1.50" />
					<svg height="35.00" width="107.00" x="7.00" y="26.00">
						<svg height="35.00" width="107.00" x="0.00" y="0.00">
							<text dominant-baseline="middle" fill="#000000" fill-opacity="1.00" font-family="Verdana" font-size="14.00" font-weight="normal" text-anchor="middle" x="53.50" y="8.75">Putting myself</text>
							<text dominant-baseline="middle" fill="#000000" fill-opacity="1.00" font-family="Verdana" font-size="14.00" font-weight="normal" text-anchor="middle" x="53.50" y="26.25">under pressure</text>
						</svg>
					</svg>
				</svg>
			</svg>
		</svg>
	</svg>
	<svg height="100.00" id="node2" width="200.00" x="-24.50" y="-3.00">
		<svg height="51.00" width="125.00" x="37.50" y="24.50">
			<path d="M2.00 25.50L2.00 11.00 C2.00 6.03 6.03 2.00 11.00 2.00 L114.00 2.00 C118.97 2.00 123.00 6.03 123.00 11.00 L123.00 40.00 C123.00 44.97 118.97 49.00 114.00 49.00 C114.00 49.00 114.00 49.00 114.00 49.00 L11.00 49.00 C6.03 49.00 2.00 44.97 2.00 40.00 ZM2.00 25.50" fill="#ffffff" fill-opacity="1.00" />
			<svg height="51.00" width="125.00" x="0.00" y="0.00">
				<path d="M2.75 21.75L2.75 10.25 C2.75 6.11 6.11 2.75 10.25 2.75 L114.75 2.75 C118.89 2.75 122.25 6.11 122.25 10.25 L122.25 21.75 L2.75 21.75 " fill="#a34753" fill-opacity="1.00" />
				<text dominant-baseline="middle" fill="#ffffff" fill-opacity="1.00" font-family="Verdana" font-size="11.00" font-weight="bold" text-anchor="middle" x="62.50" y="12.25">Undesirable Effect</text>
				<svg height="51.00" width="125.00" x="0.00" y="0.00">
					<path d="M2.00 25.50L2.00 11.00 C2.00 6.03 6.03 2.00 11.00 2.00 L114.00 2.00 C118.97 2.00 123.00 6.03 123.00 11.00 L123.00 40.00 C123.00 44.97 118.97 49.00 114.00 49.00 C114.00 49.00 114.00 49.00 114.00 49.00 L11.00 49.00 C6.03 49.00 2.00 44.97 2.00 40.00 ZM2.00 25.50" fill="none" stroke="#f9424f" stroke-opacity="1.00" stroke-width="1.50" />
					<svg height="18.00" width="111.00" x="7.00" y="26.00">
						<svg height="18.00" width="111.00" x="0.00" y="0.00">
							<text dominant-baseline="middle" fill="#000000" fill-opacity="1.00" font-family="Verdana" font-size="14.00" font-weight="normal" text-anchor="middle" x="55.50" y="9.00">Too much to do</text>
						</svg>
					</svg>
				</svg>
			</svg>
		</svg>
	</svg>
	<svg height="100.00" id="node3" width="200.00" x="143.50" y="-3.00">
		<svg height="68.00" width="139.00" x="30.50" y="16.00">
			<path d="M2.00 34.00L2.00 11.00 C2.00 6.03 6.03 2.00 11.00 2.00 L128.00 2.00 C132.97 2.00 137.00 6.03 137.00 11.00 L137.00 57.00 C137.00 61.97 132.97 66.00 128.00 66.00 C128.00 66.00 128.00 66.00 128.00 66.00 L11.00 66.00 C6.03 66.00 2.00 61.97 2.00 57.00 ZM2.00 34.00" fill="#ffffff" fill-opacity="1.00" />
			<svg height="68.00" width="139.00" x="0.00" y="0.00">
				<path d="M2.75 21.75L2.75 10.25 C2.75 6.11 6.11 2.75 10.25 2.75 L128.75 2.75 C132.89 2.75 136.25 6.11 136.25 10.25 L136.25 21.75 L2.75 21.75 " fill="#a34753" fill-opacity="1.00" />
				<text dominant-baseline="middle" fill="#ffffff" fill-opacity="1.00" font-family="Verdana" font-size="11.00" font-weight="bold" text-anchor="middle" x="69.50" y="12.25">Undesirable Effect</text>
				<svg height="68.00" width="139.00" x="0.00" y="0.00">
					<path d="M2.00 34.00L2.00 11.00 C2.00 6.03 6.03 2.00 11.00 2.00 L128.00 2.00 C132.97 2.00 137.00 6.03 137.00 11.00 L137.00 57.00 C137.00 61.97 132.97 66.00 128.00 66.00 C128.00 66.00 128.00 66.00 128.00 66.00 L11.00 66.00 C6.03 66.00 2.00 61.97 2.00 57.00 ZM2.00 34.00" fill="none" stroke="#f9424f" stroke-opacity="1.00" stroke-width="1.50" />
					<svg height="35.00" width="125.00" x="7.00" y="26.00">
						<svg height="35.00" width="125.00" x="0.00" y="0.00">
							<text dominant-baseline="middle" fill="#000000" fill-opacity="1.00" font-family="Verdana" font-size="14.00" font-weight="normal" text-anchor="middle" x="62.50" y="8.75">Spending time on</text>
							<text dominant-baseline="middle" fill="#000000" fill-opacity="1.00" font-family="Verdana" font-size="14.00" font-weight="normal" text-anchor="middle" x="62.50" y="26.25">the wrong things</text>
						</svg>
					</svg>
				</svg>
			</svg>
		</svg>
	</svg>
	<svg height="100.00" id="node14" width="200.00" x="840.50" y="-3.00">
		<svg height="51.00" width="152.00" x="24.00" y="24.50">
			<path d="M2.00 25.50L2.00 11.00 C2.00 6.03 6.03 2.00 11.00 2.00 L141.00 2.00 C145.97 2.00 150.00 6.03 150.00 11.00 L150.00 40.00 C150.00 44.97 145.97 49.00 141.00 49.00 C141.00 49.00 141.00 49.00 141.00 49.00 L11.00 49.00 C6.03 49.00 2.00 44.97 2.00 40.00 ZM2.00 25.50" fill="#ffffff" fill-opacity="1.00" />
			<svg height="51.00" width="152.00" x="0.00" y="0.00">
				<path d="M2.75 21.75L2.75 10.25 C2.75 6.11 6.11 2.75 10.25 2.75 L141.75 2.75 C145.89 2.75 149.25 6.11 149.25 10.25 L149.25 21.75 L2.75 21.75 " fill="#a34753" fill-opacity="1.00" />
				<text dominant-baseline="middle" fill="#ffffff" fill-opacity="1.00" font-family="Verdana" font-size="11.00" font-weight="bold" text-anchor="middle" x="76.00" y="12.25">Undesirable Effect</text>
				<svg height="51.00" width="152.00" x="0.00" y="0.00">
					<path d="M2.00 25.50L2.00 11.00 C2.00 6.03 6.03 2.00 11.00 2.00 L141.00 2.00 C145.97 2.00 150.00 6.03 150.00 11.00 L150.00 40.00 C150.00 44.97 145.97 49.00 141.00 49.00 C141.00 49.00 141.00 49.00 141.00 49.00 L11.00 49.00 C6.03 49.00 2.00 44.97 2.00 40.00 ZM2.00 25.50" fill="none" stroke="#f9424f" stroke-opacity="1.00" stroke-width="1.50" />
					<svg height="18.00" width="138.00" x="7.00" y="26.00">
						<svg height="18.00" width="138.00" x="0.00" y="0.00">
							<text dominant-baseline="middle" fill="#000000" fill-opacity="1.00" font-family="Verdana" font-size="14.00" font-weight="normal" text-anchor="middle" x="69.00" y="9.00">Working long hours</text>
						</svg>
					</svg>
				</svg>
			</svg>
		</svg>
	</svg>
	<svg height="100.00" id="node4" width="200.00" x="320.50" y="-3.00">
		<svg height="51.00" width="142.00" x="29.00" y="24.50">
			<path d="M2.00 25.50L2.00 11.00 C2.00 6.03 6.03 2.00 11.00 2.00 L131.00 2.00 C135.97 2.00 140.00 6.03 140.00 11.00 L140.00 40.00 C140.00 44.97 135.97 49.00 131.00 49.00 C131.00 49.00 131.00 49.00 131.00 49.00 L11.00 49.00 C6.03 49.00 2.00 44.97 2.00 40.00 ZM2.00 25.50" fill="#ffffff" fill-opacity="1.00" />
			<svg height="51.00" width="142.00" x="0.00" y="0.00">
				<path d="M2.75 21.75L2.75 10.25 C2.75 6.11 6.11 2.75 10.25 2.75 L131.75 2.75 C135.89 2.75 139.25 6.11 139.25 10.25 L139.25 21.75 L2.75 21.75 " fill="#a34753" fill-opacity="1.00" />
				<text dominant-baseline="middle" fill="#ffffff" fill-opacity="1.00" font-family="Verdana" font-size="11.00" font-weight="bold" text-anchor="middle" x="71.00" y="12.25">Undesirable Effect</text>
				<svg height="51.00" width="142.00" x="0.00" y="0.00">
					<path d="M2.00 25.50L2.00 11.00 C2.00 6.03 6.03 2.00 11.00 2.00 L131.00 2.00 C135.97 2.00 140.00 6.03 140.00 11.00 L140.00 40.00 C140.00 44.97 135.97 49.00 131.00 49.00 C131.00 49.00 131.00 49.00 131.00 49.00 L11.00 49.00 C6.03 49.00 2.00 44.97 2.00 40.00 ZM2.00 25.50" fill="none" stroke="#f9424f" stroke-opacity="1.00" stroke-width="1.50" />
					<svg height="18.00" width="128.00" x="7.00" y="26.00">
						<svg height="18.00" width="128.00" x="0.00" y="0.00">
							<text dominant-baseline="middle" fill="#000000" fill-opacity="1.00" font-family="Verdana" font-size="14.00" font-weight="normal" text-anchor="middle" x="64.00" y="9.00">Too little progress</text>
						</svg>
					</svg>
				</svg>
			</svg>
		</svg>
	</svg>
</svg>