<?xml version="1.0" encoding="utf-8" standalone="no"?>
<svg version="1.1" viewBox="0.00 0.00 1232.00 821.00" xmlns="http://www.w3.org/2000/svg">
	<svg height="756.00" id="cluster6" width="212.00" x="807.00" y="40.00">
		<path d="M0.50 378.00L0.50 8.50 C0.50 4.08 4.08 0.50 8.50 0.50 L203.50 0.50 C207.92 0.50 211.50 4.08 211.50 8.50 L211.50 747.50 C211.50 751.92 207.92 755.50 203.50 755.50 L8.50 755.50 C4.08 755.50 0.50 751.92 0.50 747.50 ZM0.50 378.00" fill="none" stroke="#0d0d0d" stroke-opacity="0.60" stroke-width="1.00" />
		<path d="M1.00 378.00L1.00 9.00 C1.00 4.58 4.58 1.00 9.00 1.00 L203.00 1.00 C207.42 1.00 211.00 4.58 211.00 9.00 L211.00 747.00 C211.00 751.42 207.42 755.00 203.00 755.00 L9.00 755.00 C4.58 755.00 1.00 751.42 1.00 747.00 ZM1.00 378.00" fill="#c9c9c9" fill-opacity="0.60" />
		<svg height="15.00" width="130.00" x="8.00" y="7.00">
			<text dominant-baseline="middle" fill="#000000" fill-opacity="1.00" font-family="Verdana" font-size="12.00" font-weight="bold" text-anchor="middle" x="65.00" y="7.50">Benefits to Project</text>
		</svg>
	</svg>
	<svg height="210.00" id="cluster5" width="189.00" x="25.00" y="334.00">
		<path d="M0.50 105.00L0.50 8.50 C0.50 4.08 4.08 0.50 8.50 0.50 L180.50 0.50 C184.92 0.50 188.50 4.08 188.50 8.50 L188.50 201.50 C188.50 205.92 184.92 209.50 180.50 209.50 L8.50 209.50 C4.08 209.50 0.50 205.92 0.50 201.50 ZM0.50 105.00" fill="none" stroke="#0d0d0d" stroke-opacity="0.60" stroke-width="1.00" />
		<path d="M1.00 105.00L1.00 9.00 C1.00 4.58 4.58 1.00 9.00 1.00 L180.00 1.00 C184.42 1.00 188.00 4.58 188.00 9.00 L188.00 201.00 C188.00 205.42 184.42 209.00 180.00 209.00 L9.00 209.00 C4.58 209.00 1.00 205.42 1.00 201.00 ZM1.00 105.00" fill="#c9c9c9" fill-opacity="0.60" />
		<svg height="15.00" width="157.00" x="8.00" y="7.00">
			<text dominant-baseline="middle" fill="#000000" fill-opacity="1.00" font-family="Verdana" font-size="12.00" font-weight="bold" text-anchor="middle" x="78.50" y="7.50">Preparation to Session</text>
		</svg>
	</svg>
	<svg height="245.00" id="cluster4" width="176.00" x="226.00" y="256.00">
		<path d="M0.50 122.50L0.50 8.50 C0.50 4.08 4.08 0.50 8.50 0.50 L167.50 0.50 C171.92 0.50 175.50 4.08 175.50 8.50 L175.50 236.50 C175.50 240.92 171.92 244.50 167.50 244.50 L8.50 244.50 C4.08 244.50 0.50 240.92 0.50 236.50 ZM0.50 122.50" fill="none" stroke="#0d0d0d" stroke-opacity="0.60" stroke-width="1.00" />
		<path d="M1.00 122.50L1.00 9.00 C1.00 4.58 4.58 1.00 9.00 1.00 L167.00 1.00 C171.42 1.00 175.00 4.58 175.00 9.00 L175.00 236.00 C175.00 240.42 171.42 244.00 167.00 244.00 L9.00 244.00 C4.58 244.00 1.00 240.42 1.00 236.00 ZM1.00 122.50" fill="#c9c9c9" fill-opacity="0.60" />
		<svg height="15.00" width="130.50" x="8.00" y="7.00">
			<text dominant-baseline="middle" fill="#000000" fill-opacity="1.00" font-family="Verdana" font-size="12.00" font-weight="bold" text-anchor="middle" x="65.25" y="7.50">Facilitated Session</text>
		</svg>
	</svg>
	<svg height="518.00" id="cluster3" width="381.00" x="414.00" y="129.00">
		<path d="M0.50 259.00L0.50 8.50 C0.50 4.08 4.08 0.50 8.50 0.50 L372.50 0.50 C376.92 0.50 380.50 4.08 380.50 8.50 L380.50 509.50 C380.50 513.92 376.92 517.50 372.50 517.50 L8.50 517.50 C4.08 517.50 0.50 513.92 0.50 509.50 ZM0.50 259.00" fill="none" stroke="#0d0d0d" stroke-opacity="0.60" stroke-width="1.00" />
		<path d="M1.00 259.00L1.00 9.00 C1.00 4.58 4.58 1.00 9.00 1.00 L372.00 1.00 C376.42 1.00 380.00 4.58 380.00 9.00 L380.00 509.00 C380.00 513.42 376.42 517.00 372.00 517.00 L9.00 517.00 C4.58 517.00 1.00 513.42 1.00 509.00 ZM1.00 259.00" fill="#c9c9c9" fill-opacity="0.60" />
		<svg height="15.00" width="296.00" x="8.00" y="7.00">
			<text dominant-baseline="middle" fill="#000000" fill-opacity="1.00" font-family="Verdana" font-size="12.00" font-weight="bold" text-anchor="middle" x="148.00" y="7.50">How your project will be different this time</text>
		</svg>
	</svg>
	<svg height="100.00" id="node1" width="200.00" x="1019.00" y="394.00">
		<svg height="98.00" width="170.00" x="15.00" y="1.00">
			<path d="M2.00 49.00L2.00 11.00 C2.00 6.03 6.03 2.00 11.00 2.00 L159.00 2.00 C163.97 2.00 168.00 6.03 168.00 11.00 L168.00 87.00 C168.00 91.97 163.97 96.00 159.00 96.00 L11.00 96.00 C6.03 96.00 2.00 91.97 2.00 87.00 ZM2.00 49.00" fill="#ffffff" fill-opacity="1.00" />
			<svg height="98.00" width="170.00" x="0.00" y="0.00">
				<path d="M2.75 21.75L2.75 10.25 C2.75 6.11 6.11 2.75 10.25 2.75 L159.75 2.75 C163.89 2.75 167.25 6.11 167.25 10.25 L167.25 21.75 L2.75 21.75 " fill="#221c83" fill-opacity="1.00" />
				<text dominant-baseline="middle" fill="#ffffff" fill-opacity="1.00" font-family="Verdana" font-size="11.00" font-weight="bold" text-anchor="middle" x="85.00" y="12.25">Investment Objective</text>
				<svg height="98.00" width="170.00" x="0.00" y="0.00">
					<path d="M2.00 49.00L2.00 11.00 C2.00 6.03 6.03 2.00 11.00 2.00 L159.00 2.00 C163.97 2.00 168.00 6.03 168.00 11.00 L168.00 87.00 C168.00 91.97 163.97 96.00 159.00 96.00 L11.00 96.00 C6.03 96.00 2.00 91.97 2.00 87.00 ZM2.00 49.00" fill="none" stroke="#000000" stroke-opacity="1.00" stroke-width="1.50" />
					<svg height="65.00" width="156.00" x="7.00" y="26.00">
						<svg height="65.00" width="156.00" x="0.00" y="0.00">
							<text dominant-baseline="middle" fill="#000000" fill-opacity="1.00" font-family="Verdana" font-size="13.25" font-weight="normal" text-anchor="middle" x="78.00" y="8.12">Set the foundation for</text>
							<text dominant-baseline="middle" fill="#000000" fill-opacity="1.00" font-family="Verdana" font-size="13.25" font-weight="normal" text-anchor="middle" x="78.00" y="24.38">a successful project via</text>
							<text dominant-baseline="middle" fill="#000000" fill-opacity="1.00" font-family="Verdana" font-size="13.25" font-weight="normal" text-anchor="middle" x="78.00" y="40.62">a facilitated Benefit</text>
							<text dominant-baseline="middle" fill="#000000" fill-opacity="1.00" font-family="Verdana" font-size="13.25" font-weight="normal" text-anchor="middle" x="78.00" y="56.88">Realisation Method</text>
						</svg>
					</svg>
				</svg>
			</svg>
		</svg>
	</svg>
	<svg height="100.00" id="node2" width="200.00" x="813.00" y="56.00">
		<svg height="68.00" width="171.00" x="14.50" y="16.00">
			<path d="M2.00 34.00L2.00 11.00 C2.00 6.03 6.03 2.00 11.00 2.00 L160.00 2.00 C164.97 2.00 169.00 6.03 169.00 11.00 L169.00 57.00 C169.00 61.97 164.97 66.00 160.00 66.00 C160.00 66.00 160.00 66.00 160.00 66.00 L11.00 66.00 C6.03 66.00 2.00 61.97 2.00 57.00 ZM2.00 34.00" fill="#ffffff" fill-opacity="1.00" />
			<svg height="68.00" width="171.00" x="0.00" y="0.00">
				<path d="M2.75 21.75L2.75 10.25 C2.75 6.11 6.11 2.75 10.25 2.75 L160.75 2.75 C164.89 2.75 168.25 6.11 168.25 10.25 L168.25 21.75 L2.75 21.75 " fill="#6666fe" fill-opacity="1.00" />
				<text dominant-baseline="middle" fill="#ffffff" fill-opacity="1.00" font-family="Verdana" font-size="11.00" font-weight="bold" text-anchor="middle" x="85.50" y="12.25">Observable Benefit</text>
				<svg height="68.00" width="171.00" x="0.00" y="0.00">
					<path d="M2.00 34.00L2.00 11.00 C2.00 6.03 6.03 2.00 11.00 2.00 L160.00 2.00 C164.97 2.00 169.00 6.03 169.00 11.00 L169.00 57.00 C169.00 61.97 164.97 66.00 160.00 66.00 C160.00 66.00 160.00 66.00 160.00 66.00 L11.00 66.00 C6.03 66.00 2.00 61.97 2.00 57.00 ZM2.00 34.00" fill="none" stroke="#000000" stroke-opacity="1.00" stroke-width="1.50" />
					<svg height="35.00" width="157.00" x="7.00" y="26.00">
						<svg height="35.00" width="157.00" x="0.00" y="0.00">
							<text dominant-baseline="middle" fill="#000000" fill-opacity="1.00" font-family="Verdana" font-size="14.00" font-weight="normal" text-anchor="middle" x="78.50" y="8.75">Shared understanding</text>
							<text dominant-baseline="middle" fill="#000000" fill-opacity="1.00" font-family="Verdana" font-size="14.00" font-weight="normal" text-anchor="middle" x="78.50" y="26.25">of Project</text>
						</svg>
					</svg>
				</svg>
			</svg>
		</svg>
	</svg>
	<svg height="260.74" id="edgeLine1" width="119.61" x="996.10" y="135.89">
		<path d="M115.45 249.43C105.73 186.46 81.95 86.81 24.90 22.11 C19.94 16.49 14.24 11.42 8.10 6.85 " fill="none" stroke="#000000" stroke-opacity="1.00" stroke-width="1.50" />
		<svg height="10.47" id="edgeHead1" width="7.92" x="111.70" y="250.27">
			<path d="M4.95 0.43L4.95 0.43 L7.92 -0.00 L5.41 10.47 L0.00 1.15 L2.97 0.72 L2.97 0.72 ZM4.95 0.43" fill="#000000" fill-opacity="1.00" />
		</svg>
		<svg height="8.00" id="edgeTail1" width="8.00" x="0.00" y="0.00">
			<path d="M6.83 6.83C8.39 5.27 8.39 2.73 6.83 1.17 C5.27 -0.39 2.73 -0.39 1.17 1.17 C-0.39 2.73 -0.39 5.27 1.17 6.83 C2.73 8.39 5.27 8.39 6.83 6.83 " fill="#000000" fill-opacity="1.00" />
		</svg>
	</svg>
	<svg height="100.00" id="node3" width="200.00" x="813.00" y="498.00">
		<svg height="68.00" width="152.00" x="24.00" y="16.00">
			<path d="M2.00 34.00L2.00 11.00 C2.00 6.03 6.03 2.00 11.00 2.00 L141.00 2.00 C145.97 2.00 150.00 6.03 150.00 11.00 L150.00 57.00 C150.00 61.97 145.97 66.00 141.00 66.00 C141.00 66.00 141.00 66.00 141.00 66.00 L11.00 66.00 C6.03 66.00 2.00 61.97 2.00 57.00 ZM2.00 34.00" fill="#ffffff" fill-opacity="1.00" />
			<svg height="68.00" width="152.00" x="0.00" y="0.00">
				<path d="M2.75 21.75L2.75 10.25 C2.75 6.11 6.11 2.75 10.25 2.75 L141.75 2.75 C145.89 2.75 149.25 6.11 149.25 10.25 L149.25 21.75 L2.75 21.75 " fill="#0f7ffe" fill-opacity="1.00" />
				<text dominant-baseline="middle" fill="#ffffff" fill-opacity="1.00" font-family="Verdana" font-size="11.00" font-weight="bold" text-anchor="middle" x="76.00" y="12.25">Measurable Benefits</text>
				<svg height="68.00" width="152.00" x="0.00" y="0.00">
					<path d="M2.00 34.00L2.00 11.00 C2.00 6.03 6.03 2.00 11.00 2.00 L141.00 2.00 C145.97 2.00 150.00 6.03 150.00 11.00 L150.00 57.00 C150.00 61.97 145.97 66.00 141.00 66.00 C141.00 66.00 141.00 66.00 141.00 66.00 L11.00 66.00 C6.03 66.00 2.00 61.97 2.00 57.00 ZM2.00 34.00" fill="none" stroke="#000000" stroke-opacity="1.00" stroke-width="1.50" />
					<svg height="35.00" width="138.00" x="7.00" y="26.00">
						<svg height="35.00" width="138.00" x="0.00" y="0.00">
							<text dominant-baseline="middle" fill="#000000" fill-opacity="1.00" font-family="Verdana" font-size="14.00" font-weight="normal" text-anchor="middle" x="69.00" y="8.75">Pre-structure of</text>
							<text dominant-baseline="middle" fill="#000000" fill-opacity="1.00" font-family="Verdana" font-size="14.00" font-weight="normal" text-anchor="middle" x="69.00" y="26.25">Business Case (BC)</text>
						</svg>
					</svg>
				</svg>
			</svg>
		</svg>
	</svg>
	<svg height="26.42" id="edgeLine2" width="43.09" x="992.53" y="370.33">
		<path d="M33.14 20.72C24.81 15.93 16.38 11.10 8.09 6.35 " fill="none" stroke="#000000" stroke-opacity="1.00" stroke-width="1.50" />
		<svg height="8.44" id="edgeHead2" width="10.66" x="32.42" y="17.98">
			<path d="M2.49 2.60L2.49 2.60 L3.98 -0.00 L10.66 8.44 L0.00 6.93 L1.49 4.33 L1.49 4.33 ZM2.49 2.60" fill="#000000" fill-opacity="1.00" />
		</svg>
		<svg height="8.00" id="edgeTail2" width="8.00" x="0.00" y="0.00">
			<path d="M6.83 6.83C8.39 5.27 8.39 2.73 6.83 1.17 C5.27 -0.39 2.73 -0.39 1.17 1.17 C-0.39 2.73 -0.39 5.27 1.17 6.83 C2.73 8.39 5.27 8.39 6.83 6.83 " fill="#000000" fill-opacity="1.00" />
		</svg>
	</svg>
	<svg height="100.00" id="node4" width="200.00" x="813.00" y="277.00">
		<svg height="94.00" width="200.00" x="0.00" y="3.00">
			<path d="M2.00 47.00L2.00 11.00 C2.00 6.03 6.03 2.00 11.00 2.00 L189.00 2.00 C193.97 2.00 198.00 6.03 198.00 11.00 L198.00 83.00 C198.00 87.97 193.97 92.00 189.00 92.00 L11.00 92.00 C6.03 92.00 2.00 87.97 2.00 83.00 ZM2.00 47.00" fill="#ffffff" fill-opacity="1.00" />
			<svg height="94.00" width="200.00" x="0.00" y="0.00">
				<path d="M2.75 21.75L2.75 10.25 C2.75 6.11 6.11 2.75 10.25 2.75 L189.75 2.75 C193.89 2.75 197.25 6.11 197.25 10.25 L197.25 21.75 L2.75 21.75 " fill="#0f7ffe" fill-opacity="1.00" />
				<text dominant-baseline="middle" fill="#ffffff" fill-opacity="1.00" font-family="Verdana" font-size="11.00" font-weight="bold" text-anchor="middle" x="100.00" y="12.25">Measurable Benefits</text>
				<svg height="94.00" width="200.00" x="0.00" y="0.00">
					<path d="M2.00 47.00L2.00 11.00 C2.00 6.03 6.03 2.00 11.00 2.00 L189.00 2.00 C193.97 2.00 198.00 6.03 198.00 11.00 L198.00 83.00 C198.00 87.97 193.97 92.00 189.00 92.00 L11.00 92.00 C6.03 92.00 2.00 87.97 2.00 83.00 ZM2.00 47.00" fill="none" stroke="#000000" stroke-opacity="1.00" stroke-width="1.50" />
					<svg height="61.00" width="186.00" x="7.00" y="26.00">
						<svg height="61.00" width="186.00" x="0.00" y="0.00">
							<text dominant-baseline="middle" fill="#000000" fill-opacity="1.00" font-family="Verdana" font-size="12.00" font-weight="normal" text-anchor="middle" x="93.00" y="7.62">simple rules to determine</text>
							<text dominant-baseline="middle" fill="#000000" fill-opacity="1.00" font-family="Verdana" font-size="12.00" font-weight="normal" text-anchor="middle" x="93.00" y="22.88">whether an easy to implement</text>
							<text dominant-baseline="middle" fill="#000000" fill-opacity="1.00" font-family="Verdana" font-size="12.00" font-weight="normal" text-anchor="middle" x="93.00" y="38.12">additional feature should</text>
							<text dominant-baseline="middle" fill="#000000" fill-opacity="1.00" font-family="Verdana" font-size="12.00" font-weight="normal" text-anchor="middle" x="93.00" y="53.38">be added to scope or not</text>
						</svg>
					</svg>
				</svg>
			</svg>
		</svg>
	</svg>
	<svg height="247.32" id="edgeLine3" width="139.43" x="973.89" y="491.29">
		<path d="M135.26 11.08C123.84 68.54 98.91 155.73 47.11 212.71 C36.45 224.45 22.55 233.82 8.33 241.19 " fill="none" stroke="#000000" stroke-opacity="1.00" stroke-width="1.50" />
		<svg height="10.57" id="edgeHead3" width="7.86" x="131.57" y="0.00">
			<path d="M2.95 9.64L2.95 9.64 L0.00 9.07 L5.80 -0.00 L7.86 10.57 L4.91 10.01 L4.91 10.01 ZM2.95 9.64" fill="#000000" fill-opacity="1.00" />
		</svg>
		<svg height="8.00" id="edgeTail3" width="8.00" x="0.00" y="239.32">
			<path d="M6.83 6.83C8.39 5.27 8.39 2.73 6.83 1.17 C5.27 -0.39 2.73 -0.39 1.17 1.17 C-0.39 2.73 -0.39 5.27 1.17 6.83 C2.73 8.39 5.27 8.39 6.83 6.83 " fill="#000000" fill-opacity="1.00" />
		</svg>
	</svg>
	<svg height="100.00" id="node5" width="200.00" x="813.00" y="706.00">
		<svg height="68.00" width="126.00" x="37.00" y="16.00">
			<path d="M2.00 34.00L2.00 11.00 C2.00 6.03 6.03 2.00 11.00 2.00 L115.00 2.00 C119.97 2.00 124.00 6.03 124.00 11.00 L124.00 57.00 C124.00 61.97 119.97 66.00 115.00 66.00 C115.00 66.00 115.00 66.00 115.00 66.00 L11.00 66.00 C6.03 66.00 2.00 61.97 2.00 57.00 ZM2.00 34.00" fill="#ffffff" fill-opacity="1.00" />
			<svg height="68.00" width="126.00" x="0.00" y="0.00">
				<path d="M2.75 21.75L2.75 10.25 C2.75 6.11 6.11 2.75 10.25 2.75 L115.75 2.75 C119.89 2.75 123.25 6.11 123.25 10.25 L123.25 21.75 L2.75 21.75 " fill="#6666fe" fill-opacity="1.00" />
				<text dominant-baseline="middle" fill="#ffffff" fill-opacity="1.00" font-family="Verdana" font-size="11.00" font-weight="bold" text-anchor="middle" x="63.00" y="12.25">Observable Benefit</text>
				<svg height="68.00" width="126.00" x="0.00" y="0.00">
					<path d="M2.00 34.00L2.00 11.00 C2.00 6.03 6.03 2.00 11.00 2.00 L115.00 2.00 C119.97 2.00 124.00 6.03 124.00 11.00 L124.00 57.00 C124.00 61.97 119.97 66.00 115.00 66.00 C115.00 66.00 115.00 66.00 115.00 66.00 L11.00 66.00 C6.03 66.00 2.00 61.97 2.00 57.00 ZM2.00 34.00" fill="none" stroke="#000000" stroke-opacity="1.00" stroke-width="1.50" />
					<svg height="35.00" width="112.00" x="7.00" y="26.00">
						<svg height="35.00" width="112.00" x="0.00" y="0.00">
							<text dominant-baseline="middle" fill="#000000" fill-opacity="1.00" font-family="Verdana" font-size="14.00" font-weight="normal" text-anchor="middle" x="56.00" y="8.75">Use benefits for</text>
							<text dominant-baseline="middle" fill="#000000" fill-opacity="1.00" font-family="Verdana" font-size="14.00" font-weight="normal" text-anchor="middle" x="56.00" y="26.25">project success</text>
						</svg>
					</svg>
				</svg>
			</svg>
		</svg>
	</svg>
	<svg height="29.29" id="edgeLine4" width="54.13" x="981.43" y="488.48">
		<path d="M44.07 5.21C42.56 5.99 41.06 6.76 39.57 7.52 C29.53 12.65 18.91 17.95 8.40 23.13 " fill="none" stroke="#000000" stroke-opacity="1.00" stroke-width="1.50" />
		<svg height="8.15" id="edgeHead4" width="10.72" x="43.42" y="-0.00">
			<path d="M1.38 3.71L1.38 3.71 L0.00 1.05 L10.72 -0.00 L3.68 8.15 L2.30 5.49 L2.30 5.49 ZM1.38 3.71" fill="#000000" fill-opacity="1.00" />
		</svg>
		<svg height="8.00" id="edgeTail4" width="8.00" x="0.00" y="21.29">
			<path d="M6.83 6.83C8.39 5.27 8.39 2.73 6.83 1.17 C5.27 -0.39 2.73 -0.39 1.17 1.17 C-0.39 2.73 -0.39 5.27 1.17 6.83 C2.73 8.39 5.27 8.39 6.83 6.83 " fill="#000000" fill-opacity="1.00" />
		</svg>
	</svg>
	<svg height="100.00" id="node6" width="200.00" x="588.50" y="154.00">
		<svg height="85.00" width="173.00" x="13.50" y="7.50">
			<path d="M2.00 42.50L2.00 11.00 C2.00 6.03 6.03 2.00 11.00 2.00 L162.00 2.00 C166.97 2.00 171.00 6.03 171.00 11.00 L171.00 74.00 C171.00 78.97 166.97 83.00 162.00 83.00 L11.00 83.00 C6.03 83.00 2.00 78.97 2.00 74.00 ZM2.00 42.50" fill="#ffffff" fill-opacity="1.00" />
			<svg height="85.00" width="173.00" x="0.00" y="0.00">
				<path d="M2.75 21.75L2.75 10.25 C2.75 6.11 6.11 2.75 10.25 2.75 L162.75 2.75 C166.89 2.75 170.25 6.11 170.25 10.25 L170.25 21.75 L2.75 21.75 " fill="#28c2cc" fill-opacity="1.00" />
				<text dominant-baseline="middle" fill="#000000" fill-opacity="1.00" font-family="Verdana" font-size="11.00" font-weight="bold" text-anchor="middle" x="86.50" y="12.25">Business Change</text>
				<svg height="85.00" width="173.00" x="0.00" y="0.00">
					<path d="M2.00 42.50L2.00 11.00 C2.00 6.03 6.03 2.00 11.00 2.00 L162.00 2.00 C166.97 2.00 171.00 6.03 171.00 11.00 L171.00 74.00 C171.00 78.97 166.97 83.00 162.00 83.00 L11.00 83.00 C6.03 83.00 2.00 78.97 2.00 74.00 ZM2.00 42.50" fill="none" stroke="#000000" stroke-opacity="1.00" stroke-width="1.50" />
					<svg height="52.00" width="159.00" x="7.00" y="26.00">
						<svg height="52.00" width="159.00" x="0.00" y="0.00">
							<text dominant-baseline="middle" fill="#000000" fill-opacity="1.00" font-family="Verdana" font-size="14.00" font-weight="normal" text-anchor="middle" x="79.50" y="8.67">Create a shared visual</text>
							<text dominant-baseline="middle" fill="#000000" fill-opacity="1.00" font-family="Verdana" font-size="14.00" font-weight="normal" text-anchor="middle" x="79.50" y="26.00">representation of</text>
							<text dominant-baseline="middle" fill="#000000" fill-opacity="1.00" font-family="Verdana" font-size="14.00" font-weight="normal" text-anchor="middle" x="79.50" y="43.33">the project upfront</text>
						</svg>
					</svg>
				</svg>
			</svg>
		</svg>
	</svg>
	<svg height="100.00" id="node7" width="200.00" x="393.50" y="192.00">
		<svg height="98.00" width="147.00" x="26.50" y="1.00">
			<path d="M2.00 49.00L2.00 11.00 C2.00 6.03 6.03 2.00 11.00 2.00 L136.00 2.00 C140.97 2.00 145.00 6.03 145.00 11.00 L145.00 87.00 C145.00 91.97 140.97 96.00 136.00 96.00 L11.00 96.00 C6.03 96.00 2.00 91.97 2.00 87.00 ZM2.00 49.00" fill="#ffffff" fill-opacity="1.00" />
			<svg height="98.00" width="147.00" x="0.00" y="0.00">
				<path d="M2.75 21.75L2.75 10.25 C2.75 6.11 6.11 2.75 10.25 2.75 L136.75 2.75 C140.89 2.75 144.25 6.11 144.25 10.25 L144.25 21.75 L2.75 21.75 " fill="#28c2cc" fill-opacity="1.00" />
				<text dominant-baseline="middle" fill="#000000" fill-opacity="1.00" font-family="Verdana" font-size="11.00" font-weight="bold" text-anchor="middle" x="73.50" y="12.25">Business Change</text>
				<svg height="98.00" width="147.00" x="0.00" y="0.00">
					<path d="M2.00 49.00L2.00 11.00 C2.00 6.03 6.03 2.00 11.00 2.00 L136.00 2.00 C140.97 2.00 145.00 6.03 145.00 11.00 L145.00 87.00 C145.00 91.97 140.97 96.00 136.00 96.00 L11.00 96.00 C6.03 96.00 2.00 91.97 2.00 87.00 ZM2.00 49.00" fill="none" stroke="#000000" stroke-opacity="1.00" stroke-width="1.50" />
					<svg height="65.00" width="133.00" x="7.00" y="26.00">
						<svg height="65.00" width="133.00" x="0.00" y="0.00">
							<text dominant-baseline="middle" fill="#000000" fill-opacity="1.00" font-family="Verdana" font-size="13.25" font-weight="normal" text-anchor="middle" x="66.50" y="8.12">Keep the visual</text>
							<text dominant-baseline="middle" fill="#000000" fill-opacity="1.00" font-family="Verdana" font-size="13.25" font-weight="normal" text-anchor="middle" x="66.50" y="24.38">representation of</text>
							<text dominant-baseline="middle" fill="#000000" fill-opacity="1.00" font-family="Verdana" font-size="13.25" font-weight="normal" text-anchor="middle" x="66.50" y="40.62">the project updated</text>
							<text dominant-baseline="middle" fill="#000000" fill-opacity="1.00" font-family="Verdana" font-size="13.25" font-weight="normal" text-anchor="middle" x="66.50" y="56.88">during the project</text>
						</svg>
					</svg>
				</svg>
			</svg>
		</svg>
	</svg>
	<svg height="100.00" id="node8" width="200.00" x="588.50" y="416.00">
		<svg height="98.00" width="201.00" x="-0.50" y="1.00">
			<path d="M2.00 49.00L2.00 11.00 C2.00 6.03 6.03 2.00 11.00 2.00 L190.00 2.00 C194.97 2.00 199.00 6.03 199.00 11.00 L199.00 87.00 C199.00 91.97 194.97 96.00 190.00 96.00 L11.00 96.00 C6.03 96.00 2.00 91.97 2.00 87.00 ZM2.00 49.00" fill="#ffffff" fill-opacity="1.00" />
			<svg height="98.00" width="201.00" x="0.00" y="0.00">
				<path d="M2.75 21.75L2.75 10.25 C2.75 6.11 6.11 2.75 10.25 2.75 L190.75 2.75 C194.89 2.75 198.25 6.11 198.25 10.25 L198.25 21.75 L2.75 21.75 " fill="#28c2cc" fill-opacity="1.00" />
				<text dominant-baseline="middle" fill="#000000" fill-opacity="1.00" font-family="Verdana" font-size="11.00" font-weight="bold" text-anchor="middle" x="100.50" y="12.25">Business Change</text>
				<svg height="98.00" width="201.00" x="0.00" y="0.00">
					<path d="M2.00 49.00L2.00 11.00 C2.00 6.03 6.03 2.00 11.00 2.00 L190.00 2.00 C194.97 2.00 199.00 6.03 199.00 11.00 L199.00 87.00 C199.00 91.97 194.97 96.00 190.00 96.00 L11.00 96.00 C6.03 96.00 2.00 91.97 2.00 87.00 ZM2.00 49.00" fill="none" stroke="#000000" stroke-opacity="1.00" stroke-width="1.50" />
					<svg height="65.00" width="187.00" x="7.00" y="26.00">
						<svg height="65.00" width="187.00" x="0.00" y="0.00">
							<text dominant-baseline="middle" fill="#000000" fill-opacity="1.00" font-family="Verdana" font-size="13.25" font-weight="normal" text-anchor="middle" x="93.50" y="8.12">Think backwards with the</text>
							<text dominant-baseline="middle" fill="#000000" fill-opacity="1.00" font-family="Verdana" font-size="13.25" font-weight="normal" text-anchor="middle" x="93.50" y="24.38">end in mind, so from the</text>
							<text dominant-baseline="middle" fill="#000000" fill-opacity="1.00" font-family="Verdana" font-size="13.25" font-weight="normal" text-anchor="middle" x="93.50" y="40.62">benefits backwards towards</text>
							<text dominant-baseline="middle" fill="#000000" fill-opacity="1.00" font-family="Verdana" font-size="13.25" font-weight="normal" text-anchor="middle" x="93.50" y="56.88">the project activities</text>
						</svg>
					</svg>
				</svg>
			</svg>
		</svg>
	</svg>
	<svg height="227.62" id="edgeLine7" width="71.49" x="780.15" y="512.24">
		<path d="M61.46 222.82C47.11 215.30 33.72 205.22 24.85 191.76 C3.92 160.00 36.09 53.58 16.85 20.76 C14.08 16.03 10.83 11.59 7.21 7.42 " fill="none" stroke="#000000" stroke-opacity="1.00" stroke-width="1.50" />
		<svg height="7.93" id="edgeHead7" width="10.75" x="60.75" y="219.69">
			<path d="M2.16 2.71L2.16 2.71 L3.45 0.00 L10.75 7.93 L0.00 7.22 L1.30 4.51 L1.30 4.51 ZM2.16 2.71" fill="#000000" fill-opacity="1.00" />
		</svg>
		<svg height="8.00" id="edgeTail7" width="8.00" x="0.00" y="0.00">
			<path d="M6.83 6.83C8.39 5.27 8.39 2.73 6.83 1.17 C5.27 -0.39 2.73 -0.39 1.17 1.17 C-0.39 2.73 -0.39 5.27 1.17 6.83 C2.73 8.39 5.27 8.39 6.83 6.83 " fill="#000000" fill-opacity="1.00" />
		</svg>
	</svg>
	<a href="">
		<svg height="100.00" id="node9" width="200.00" x="214.00" y="281.00">
			<svg height="85.00" width="159.00" x="20.50" y="7.50">
				<path d="M2.00 42.50L2.00 11.00 C2.00 6.03 6.03 2.00 11.00 2.00 L148.00 2.00 C152.97 2.00 157.00 6.03 157.00 11.00 L157.00 74.00 C157.00 78.97 152.97 83.00 148.00 83.00 L11.00 83.00 C6.03 83.00 2.00 78.97 2.00 74.00 ZM2.00 42.50" fill="#ffffff" fill-opacity="1.00" />
				<svg height="85.00" width="159.00" x="0.00" y="0.00">
					<path d="M2.75 21.75L2.75 10.25 C2.75 6.11 6.11 2.75 10.25 2.75 L148.75 2.75 C152.89 2.75 156.25 6.11 156.25 10.25 L156.25 21.75 L2.75 21.75 " fill="#28cc83" fill-opacity="1.00" />
					<text dominant-baseline="middle" fill="#000000" fill-opacity="1.00" font-family="Verdana" font-size="11.00" font-weight="bold" text-anchor="middle" x="79.50" y="12.25">Enabler</text>
					<svg height="85.00" width="159.00" x="0.00" y="0.00">
						<path d="M2.00 42.50L2.00 11.00 C2.00 6.03 6.03 2.00 11.00 2.00 L148.00 2.00 C152.97 2.00 157.00 6.03 157.00 11.00 L157.00 74.00 C157.00 78.97 152.97 83.00 148.00 83.00 L11.00 83.00 C6.03 83.00 2.00 78.97 2.00 74.00 ZM2.00 42.50" fill="none" stroke="#000000" stroke-opacity="1.00" stroke-width="1.50" />
						<svg height="52.00" width="145.00" x="7.00" y="26.00">
							<svg height="52.00" width="145.00" x="0.00" y="0.00">
								<text dominant-baseline="middle" fill="#000000" fill-opacity="1.00" font-family="Verdana" font-size="14.00" font-weight="normal" text-anchor="middle" x="72.50" y="8.67">Basic Understanding</text>
								<text dominant-baseline="middle" fill="#000000" fill-opacity="1.00" font-family="Verdana" font-size="14.00" font-weight="normal" text-anchor="middle" x="72.50" y="26.00">of the Benefit</text>
								<text dominant-baseline="middle" fill="#000000" fill-opacity="1.00" font-family="Verdana" font-size="14.00" font-weight="normal" text-anchor="middle" x="72.50" y="43.33">Realisation Method</text>
							</svg>
						</svg>
					</svg>
				</svg>
			</svg>
		</svg>
	</a>
	<svg height="17.08" id="edgeLine9" width="30.08" x="391.50" y="277.56">
		<path d="M19.94 5.09C16.08 7.02 12.21 8.97 8.34 10.90 " fill="none" stroke="#000000" stroke-opacity="1.00" stroke-width="1.50" />
		<svg height="8.06" id="edgeHead9" width="10.73" x="19.35" y="0.00">
			<path d="M1.34 3.59L1.34 3.59 L0.00 0.91 L10.73 0.00 L3.59 8.06 L2.24 5.38 L2.24 5.38 ZM1.34 3.59" fill="#000000" fill-opacity="1.00" />
		</svg>
		<svg height="8.00" id="edgeTail9" width="8.00" x="0.00" y="9.08">
			<path d="M6.83 6.83C8.39 5.27 8.39 2.73 6.83 1.17 C5.27 -0.39 2.73 -0.39 1.17 1.17 C-0.39 2.73 -0.39 5.27 1.17 6.83 C2.73 8.39 5.27 8.39 6.83 6.83 " fill="#000000" fill-opacity="1.00" />
		</svg>
	</svg>
	<svg height="74.63" id="edgeLine10" width="197.92" x="391.71" y="356.25">
		<path d="M187.27 70.42C130.36 49.79 61.66 24.90 8.61 5.67 " fill="none" stroke="#000000" stroke-opacity="1.00" stroke-width="1.50" />
		<svg height="7.52" id="edgeHead10" width="10.76" x="187.15" y="67.11">
			<path d="M1.70 2.82L1.70 2.82 L2.73 -0.00 L10.76 7.17 L0.00 7.52 L1.02 4.70 L1.02 4.70 ZM1.70 2.82" fill="#000000" fill-opacity="1.00" />
		</svg>
		<svg height="8.00" id="edgeTail10" width="8.00" x="0.00" y="-0.00">
			<path d="M6.83 6.83C8.39 5.27 8.39 2.73 6.83 1.17 C5.27 -0.39 2.73 -0.39 1.17 1.17 C-0.39 2.73 -0.39 5.27 1.17 6.83 C2.73 8.39 5.27 8.39 6.83 6.83 " fill="#000000" fill-opacity="1.00" />
		</svg>
	</svg>
	<svg height="100.00" id="node10" width="200.00" x="214.00" y="402.00">
		<svg height="85.00" width="164.00" x="18.00" y="7.50">
			<path d="M2.00 42.50L2.00 11.00 C2.00 6.03 6.03 2.00 11.00 2.00 L153.00 2.00 C157.97 2.00 162.00 6.03 162.00 11.00 L162.00 74.00 C162.00 78.97 157.97 83.00 153.00 83.00 L11.00 83.00 C6.03 83.00 2.00 78.97 2.00 74.00 ZM2.00 42.50" fill="#ffffff" fill-opacity="1.00" />
			<svg height="85.00" width="164.00" x="0.00" y="0.00">
				<path d="M2.75 21.75L2.75 10.25 C2.75 6.11 6.11 2.75 10.25 2.75 L153.75 2.75 C157.89 2.75 161.25 6.11 161.25 10.25 L161.25 21.75 L2.75 21.75 " fill="#28cc83" fill-opacity="1.00" />
				<text dominant-baseline="middle" fill="#000000" fill-opacity="1.00" font-family="Verdana" font-size="11.00" font-weight="bold" text-anchor="middle" x="82.00" y="12.25">Enabler</text>
				<svg height="85.00" width="164.00" x="0.00" y="0.00">
					<path d="M2.00 42.50L2.00 11.00 C2.00 6.03 6.03 2.00 11.00 2.00 L153.00 2.00 C157.97 2.00 162.00 6.03 162.00 11.00 L162.00 74.00 C162.00 78.97 157.97 83.00 153.00 83.00 L11.00 83.00 C6.03 83.00 2.00 78.97 2.00 74.00 ZM2.00 42.50" fill="none" stroke="#000000" stroke-opacity="1.00" stroke-width="1.50" />
					<svg height="52.00" width="150.00" x="7.00" y="26.00">
						<svg height="52.00" width="150.00" x="0.00" y="0.00">
							<text dominant-baseline="middle" fill="#000000" fill-opacity="1.00" font-family="Verdana" font-size="14.00" font-weight="normal" text-anchor="middle" x="75.00" y="8.67">Guided creation of</text>
							<text dominant-baseline="middle" fill="#000000" fill-opacity="1.00" font-family="Verdana" font-size="14.00" font-weight="normal" text-anchor="middle" x="75.00" y="26.00">the first Benefit</text>
							<text dominant-baseline="middle" fill="#000000" fill-opacity="1.00" font-family="Verdana" font-size="14.00" font-weight="normal" text-anchor="middle" x="75.00" y="43.33">Breakdown Structure</text>
						</svg>
					</svg>
				</svg>
			</svg>
		</svg>
	</svg>
	<svg height="177.39" id="edgeLine11" width="219.17" x="393.95" y="244.93">
		<path d="M210.41 6.84C205.32 11.04 200.47 15.45 196.05 20.07 C180.48 36.31 186.93 48.14 171.05 64.07 C124.70 110.55 60.16 146.96 8.26 171.41 " fill="none" stroke="#000000" stroke-opacity="1.00" stroke-width="1.50" />
		<svg height="9.31" id="edgeHead11" width="10.34" x="208.83" y="-0.00">
			<path d="M1.85 5.37L1.85 5.37 L0.00 3.00 L10.34 0.00 L4.92 9.31 L3.08 6.95 L3.08 6.95 ZM1.85 5.37" fill="#000000" fill-opacity="1.00" />
		</svg>
		<svg height="8.00" id="edgeTail11" width="8.00" x="0.00" y="169.39">
			<path d="M6.83 6.83C8.39 5.27 8.39 2.73 6.83 1.17 C5.27 -0.39 2.73 -0.39 1.17 1.17 C-0.39 2.73 -0.39 5.27 1.17 6.83 C2.73 8.39 5.27 8.39 6.83 6.83 " fill="#000000" fill-opacity="1.00" />
		</svg>
	</svg>
	<svg height="30.91" id="edgeLine13" width="65.09" x="773.13" y="138.50">
		<path d="M54.74 4.56C39.57 11.24 23.70 18.23 8.32 25.01 " fill="none" stroke="#000000" stroke-opacity="1.00" stroke-width="1.50" />
		<svg height="7.69" id="edgeHead13" width="10.76" x="54.33" y="0.00">
			<path d="M1.21 3.11L1.21 3.11 L0.00 0.37 L10.76 -0.00 L3.22 7.69 L2.02 4.94 L2.02 4.94 ZM1.21 3.11" fill="#000000" fill-opacity="1.00" />
		</svg>
		<svg height="8.00" id="edgeTail13" width="8.00" x="0.00" y="22.91">
			<path d="M6.83 6.83C8.39 5.27 8.39 2.73 6.83 1.17 C5.27 -0.39 2.73 -0.39 1.17 1.17 C-0.39 2.73 -0.39 5.27 1.17 6.83 C2.73 8.39 5.27 8.39 6.83 6.83 " fill="#000000" fill-opacity="1.00" />
		</svg>
	</svg>
	<svg height="123.38" id="edgeLine14" width="90.29" x="380.89" y="289.16">
		<path d="M85.09 10.16C69.68 39.64 48.33 74.93 23.11 101.84 C18.43 106.84 13.27 111.65 7.86 116.23 " fill="none" stroke="#000000" stroke-opacity="1.00" stroke-width="1.50" />
		<svg height="10.72" id="edgeHead14" width="8.12" x="82.18" y="-0.00">
			<path d="M2.67 8.44L2.67 8.44 L0.00 7.08 L8.12 -0.00 L7.12 10.72 L4.45 9.35 L4.45 9.35 ZM2.67 8.44" fill="#000000" fill-opacity="1.00" />
		</svg>
		<svg height="8.00" id="edgeTail14" width="8.00" x="0.00" y="115.38">
			<path d="M6.83 6.83C8.39 5.27 8.39 2.73 6.83 1.17 C5.27 -0.39 2.73 -0.39 1.17 1.17 C-0.39 2.73 -0.39 5.27 1.17 6.83 C2.73 8.39 5.27 8.39 6.83 6.83 " fill="#000000" fill-opacity="1.00" />
		</svg>
	</svg>
	<svg height="21.86" id="edgeLine16" width="51.67" x="786.86" y="499.35">
		<path d="M41.11 17.67C30.48 13.75 19.49 9.71 8.57 5.68 " fill="none" stroke="#000000" stroke-opacity="1.00" stroke-width="1.50" />
		<svg height="7.51" id="edgeHead16" width="10.77" x="40.90" y="14.35">
			<path d="M1.73 2.82L1.73 2.82 L2.77 0.00 L10.77 7.21 L0.00 7.51 L1.04 4.70 L1.04 4.70 ZM1.73 2.82" fill="#000000" fill-opacity="1.00" />
		</svg>
		<svg height="8.00" id="edgeTail16" width="8.00" x="0.00" y="-0.00">
			<path d="M6.83 6.83C8.39 5.27 8.39 2.73 6.83 1.17 C5.27 -0.39 2.73 -0.39 1.17 1.17 C-0.39 2.73 -0.39 5.27 1.17 6.83 C2.73 8.39 5.27 8.39 6.83 6.83 " fill="#000000" fill-opacity="1.00" />
		</svg>
	</svg>
	<svg height="13.38" id="edgeLine17" width="195.22" x="394.33" y="457.99">
		<path d="M183.92 9.38C133.30 9.36 72.37 8.40 17.67 5.01 C14.79 4.83 11.87 4.63 8.92 4.41 " fill="none" stroke="#000000" stroke-opacity="1.00" stroke-width="1.50" />
		<svg height="8.00" id="edgeHead17" width="10.00" x="185.22" y="5.38">
			<path d="M0.00 3.00L0.00 3.00 L0.00 0.00 L10.00 3.99 L0.01 8.00 L0.00 5.00 L0.00 5.00 ZM0.00 3.00" fill="#000000" fill-opacity="1.00" />
		</svg>
		<svg height="8.00" id="edgeTail17" width="8.00" x="0.00" y="0.00">
			<path d="M6.83 6.83C8.39 5.27 8.39 2.73 6.83 1.17 C5.27 -0.39 2.73 -0.39 1.17 1.17 C-0.39 2.73 -0.39 5.27 1.17 6.83 C2.73 8.39 5.27 8.39 6.83 6.83 " fill="#000000" fill-opacity="1.00" />
		</svg>
	</svg>
	<svg height="100.00" id="node13" width="200.00" x="813.00" y="394.00">
		<svg height="68.00" width="133.50" x="33.50" y="16.00">
			<path d="M2.00 34.00L2.00 11.00 C2.00 6.03 6.03 2.00 11.00 2.00 L122.50 2.00 C127.47 2.00 131.50 6.03 131.50 11.00 L131.50 57.00 C131.50 61.97 127.47 66.00 122.50 66.00 C122.50 66.00 122.50 66.00 122.50 66.00 L11.00 66.00 C6.03 66.00 2.00 61.97 2.00 57.00 ZM2.00 34.00" fill="#ffffff" fill-opacity="1.00" />
			<svg height="68.00" width="133.50" x="0.00" y="0.00">
				<path d="M2.75 21.75L2.75 10.25 C2.75 6.11 6.11 2.75 10.25 2.75 L123.25 2.75 C127.39 2.75 130.75 6.11 130.75 10.25 L130.75 21.75 L2.75 21.75 " fill="#0f7ffe" fill-opacity="1.00" />
				<text dominant-baseline="middle" fill="#ffffff" fill-opacity="1.00" font-family="Verdana" font-size="11.00" font-weight="bold" text-anchor="middle" x="66.75" y="12.25">Measurable Benefits</text>
				<svg height="68.00" width="133.50" x="0.00" y="0.00">
					<path d="M2.00 34.00L2.00 11.00 C2.00 6.03 6.03 2.00 11.00 2.00 L122.50 2.00 C127.47 2.00 131.50 6.03 131.50 11.00 L131.50 57.00 C131.50 61.97 127.47 66.00 122.50 66.00 C122.50 66.00 122.50 66.00 122.50 66.00 L11.00 66.00 C6.03 66.00 2.00 61.97 2.00 57.00 ZM2.00 34.00" fill="none" stroke="#000000" stroke-opacity="1.00" stroke-width="1.50" />
					<svg height="35.00" width="119.50" x="7.00" y="26.00">
						<svg height="35.00" width="119.50" x="0.00" y="0.00">
							<text dominant-baseline="middle" fill="#000000" fill-opacity="1.00" font-family="Verdana" font-size="14.00" font-weight="normal" text-anchor="middle" x="59.75" y="8.75">Identification of</text>
							<text dominant-baseline="middle" fill="#000000" fill-opacity="1.00" font-family="Verdana" font-size="14.00" font-weight="normal" text-anchor="middle" x="59.75" y="26.25">reliable Benefits</text>
						</svg>
					</svg>
				</svg>
			</svg>
		</svg>
	</svg>
	<svg height="8.00" id="edgeLine18" width="57.43" x="978.18" y="440.00">
		<path d="M46.13 4.00C33.57 4.00 20.84 4.00 8.72 4.00 " fill="none" stroke="#000000" stroke-opacity="1.00" stroke-width="1.50" />
		<svg height="8.00" id="edgeHead18" width="10.00" x="47.43" y="0.00">
			<path d="M0.00 3.00L0.00 3.00 L0.00 0.00 L10.00 4.00 L0.00 8.00 L0.00 5.00 L0.00 5.00 ZM0.00 3.00" fill="#000000" fill-opacity="1.00" />
		</svg>
		<svg height="8.00" id="edgeTail18" width="8.00" x="0.00" y="0.00">
			<path d="M6.83 6.83C8.39 5.27 8.39 2.73 6.83 1.17 C5.27 -0.39 2.73 -0.39 1.17 1.17 C-0.39 2.73 -0.39 5.27 1.17 6.83 C2.73 8.39 5.27 8.39 6.83 6.83 " fill="#000000" fill-opacity="1.00" />
		</svg>
	</svg>
	<svg height="100.00" id="node14" width="200.00" x="813.00" y="602.00">
		<svg height="68.00" width="133.50" x="33.50" y="16.00">
			<path d="M2.00 34.00L2.00 11.00 C2.00 6.03 6.03 2.00 11.00 2.00 L122.50 2.00 C127.47 2.00 131.50 6.03 131.50 11.00 L131.50 57.00 C131.50 61.97 127.47 66.00 122.50 66.00 C122.50 66.00 122.50 66.00 122.50 66.00 L11.00 66.00 C6.03 66.00 2.00 61.97 2.00 57.00 ZM2.00 34.00" fill="#ffffff" fill-opacity="1.00" />
			<svg height="68.00" width="133.50" x="0.00" y="0.00">
				<path d="M2.75 21.75L2.75 10.25 C2.75 6.11 6.11 2.75 10.25 2.75 L123.25 2.75 C127.39 2.75 130.75 6.11 130.75 10.25 L130.75 21.75 L2.75 21.75 " fill="#0f7ffe" fill-opacity="1.00" />
				<text dominant-baseline="middle" fill="#ffffff" fill-opacity="1.00" font-family="Verdana" font-size="11.00" font-weight="bold" text-anchor="middle" x="66.75" y="12.25">Measurable Benefits</text>
				<svg height="68.00" width="133.50" x="0.00" y="0.00">
					<path d="M2.00 34.00L2.00 11.00 C2.00 6.03 6.03 2.00 11.00 2.00 L122.50 2.00 C127.47 2.00 131.50 6.03 131.50 11.00 L131.50 57.00 C131.50 61.97 127.47 66.00 122.50 66.00 C122.50 66.00 122.50 66.00 122.50 66.00 L11.00 66.00 C6.03 66.00 2.00 61.97 2.00 57.00 ZM2.00 34.00" fill="none" stroke="#000000" stroke-opacity="1.00" stroke-width="1.50" />
					<svg height="35.00" width="119.50" x="7.00" y="26.00">
						<svg height="35.00" width="119.50" x="0.00" y="0.00">
							<text dominant-baseline="middle" fill="#000000" fill-opacity="1.00" font-family="Verdana" font-size="14.00" font-weight="normal" text-anchor="middle" x="59.75" y="8.75">Identification</text>
							<text dominant-baseline="middle" fill="#000000" fill-opacity="1.00" font-family="Verdana" font-size="14.00" font-weight="normal" text-anchor="middle" x="59.75" y="26.25">of project scope</text>
						</svg>
					</svg>
				</svg>
			</svg>
		</svg>
	</svg>
	<svg height="138.96" id="edgeLine19" width="119.67" x="977.77" y="491.22">
		<path d="M114.53 10.18C97.86 42.37 73.59 81.42 43.23 108.78 C32.94 118.05 20.69 126.04 8.22 132.77 " fill="none" stroke="#000000" stroke-opacity="1.00" stroke-width="1.50" />
		<svg height="10.73" id="edgeHead19" width="8.08" x="111.59" y="-0.00">
			<path d="M2.68 8.48L2.68 8.48 L0.00 7.12 L8.08 0.00 L7.14 10.73 L4.46 9.38 L4.46 9.38 ZM2.68 8.48" fill="#000000" fill-opacity="1.00" />
		</svg>
		<svg height="8.00" id="edgeTail19" width="8.00" x="0.00" y="130.96">
			<path d="M6.83 6.83C8.39 5.27 8.39 2.73 6.83 1.17 C5.27 -0.39 2.73 -0.39 1.17 1.17 C-0.39 2.73 -0.39 5.27 1.17 6.83 C2.73 8.39 5.27 8.39 6.83 6.83 " fill="#000000" fill-opacity="1.00" />
		</svg>
	</svg>
	<svg height="100.00" id="node15" width="200.00" x="19.50" y="454.00">
		<svg height="68.00" width="177.00" x="11.50" y="16.00">
			<path d="M2.00 34.00L2.00 11.00 C2.00 6.03 6.03 2.00 11.00 2.00 L166.00 2.00 C170.97 2.00 175.00 6.03 175.00 11.00 L175.00 57.00 C175.00 61.97 170.97 66.00 166.00 66.00 C166.00 66.00 166.00 66.00 166.00 66.00 L11.00 66.00 C6.03 66.00 2.00 61.97 2.00 57.00 ZM2.00 34.00" fill="#ffffff" fill-opacity="1.00" />
			<svg height="68.00" width="177.00" x="0.00" y="0.00">
				<path d="M2.75 21.75L2.75 10.25 C2.75 6.11 6.11 2.75 10.25 2.75 L166.75 2.75 C170.89 2.75 174.25 6.11 174.25 10.25 L174.25 21.75 L2.75 21.75 " fill="#107f80" fill-opacity="1.00" />
				<text dominant-baseline="middle" fill="#ffffff" fill-opacity="1.00" font-family="Verdana" font-size="11.00" font-weight="bold" text-anchor="middle" x="88.50" y="12.25">Customer Enabler</text>
				<svg height="68.00" width="177.00" x="0.00" y="0.00">
					<path d="M2.00 34.00L2.00 11.00 C2.00 6.03 6.03 2.00 11.00 2.00 L166.00 2.00 C170.97 2.00 175.00 6.03 175.00 11.00 L175.00 57.00 C175.00 61.97 170.97 66.00 166.00 66.00 C166.00 66.00 166.00 66.00 166.00 66.00 L11.00 66.00 C6.03 66.00 2.00 61.97 2.00 57.00 ZM2.00 34.00" fill="none" stroke="#000000" stroke-opacity="1.00" stroke-width="1.50" />
					<svg height="35.00" width="163.00" x="7.00" y="26.00">
						<svg height="35.00" width="163.00" x="0.00" y="0.00">
							<text dominant-baseline="middle" fill="#000000" fill-opacity="1.00" font-family="Verdana" font-size="14.00" font-weight="normal" text-anchor="middle" x="81.50" y="8.75">Identify and invite</text>
							<text dominant-baseline="middle" fill="#000000" fill-opacity="1.00" font-family="Verdana" font-size="14.00" font-weight="normal" text-anchor="middle" x="81.50" y="26.25">Subject Matter Experts</text>
						</svg>
					</svg>
				</svg>
			</svg>
		</svg>
	</svg>
	<svg height="11.59" id="edgeLine20" width="27.45" x="206.14" y="472.20">
		<path d="M16.39 4.24C13.85 4.93 11.31 5.62 8.77 6.30 " fill="none" stroke="#000000" stroke-opacity="1.00" stroke-width="1.50" />
		<svg height="7.72" id="edgeHead20" width="10.70" x="16.75" y="0.00">
			<path d="M0.78 2.89L0.78 2.89 L0.00 -0.00 L10.70 1.25 L2.09 7.72 L1.30 4.82 L1.30 4.82 ZM0.78 2.89" fill="#000000" fill-opacity="1.00" />
		</svg>
		<svg height="8.00" id="edgeTail20" width="8.00" x="0.00" y="3.59">
			<path d="M6.83 6.83C8.39 5.27 8.39 2.73 6.83 1.17 C5.27 -0.39 2.73 -0.39 1.17 1.17 C-0.39 2.73 -0.39 5.27 1.17 6.83 C2.73 8.39 5.27 8.39 6.83 6.83 " fill="#000000" fill-opacity="1.00" />
		</svg>
	</svg>
	<svg height="15.36" id="edgeLine21" width="41.40" x="192.19" y="416.45">
		<path d="M30.43 11.14C23.13 9.17 15.78 7.18 8.55 5.23 " fill="none" stroke="#000000" stroke-opacity="1.00" stroke-width="1.50" />
		<svg height="7.72" id="edgeHead21" width="10.70" x="30.71" y="7.64">
			<path d="M1.30 2.89L1.30 2.89 L2.09 -0.00 L10.70 6.47 L0.00 7.72 L0.78 4.82 L0.78 4.82 ZM1.30 2.89" fill="#000000" fill-opacity="1.00" />
		</svg>
		<svg height="8.00" id="edgeTail21" width="8.00" x="0.00" y="0.00">
			<path d="M6.83 6.83C8.39 5.27 8.39 2.73 6.83 1.17 C5.27 -0.39 2.73 -0.39 1.17 1.17 C-0.39 2.73 -0.39 5.27 1.17 6.83 C2.73 8.39 5.27 8.39 6.83 6.83 " fill="#000000" fill-opacity="1.00" />
		</svg>
	</svg>
	<svg height="100.00" id="node16" width="200.00" x="19.50" y="350.00">
		<svg height="68.00" width="149.00" x="25.50" y="16.00">
			<path d="M2.00 34.00L2.00 11.00 C2.00 6.03 6.03 2.00 11.00 2.00 L138.00 2.00 C142.97 2.00 147.00 6.03 147.00 11.00 L147.00 57.00 C147.00 61.97 142.97 66.00 138.00 66.00 C138.00 66.00 138.00 66.00 138.00 66.00 L11.00 66.00 C6.03 66.00 2.00 61.97 2.00 57.00 ZM2.00 34.00" fill="#ffffff" fill-opacity="1.00" />
			<svg height="68.00" width="149.00" x="0.00" y="0.00">
				<path d="M2.75 21.75L2.75 10.25 C2.75 6.11 6.11 2.75 10.25 2.75 L138.75 2.75 C142.89 2.75 146.25 6.11 146.25 10.25 L146.25 21.75 L2.75 21.75 " fill="#107f80" fill-opacity="1.00" />
				<text dominant-baseline="middle" fill="#ffffff" fill-opacity="1.00" font-family="Verdana" font-size="11.00" font-weight="bold" text-anchor="middle" x="74.50" y="12.25">Customer Enabler</text>
				<svg height="68.00" width="149.00" x="0.00" y="0.00">
					<path d="M2.00 34.00L2.00 11.00 C2.00 6.03 6.03 2.00 11.00 2.00 L138.00 2.00 C142.97 2.00 147.00 6.03 147.00 11.00 L147.00 57.00 C147.00 61.97 142.97 66.00 138.00 66.00 C138.00 66.00 138.00 66.00 138.00 66.00 L11.00 66.00 C6.03 66.00 2.00 61.97 2.00 57.00 ZM2.00 34.00" fill="none" stroke="#000000" stroke-opacity="1.00" stroke-width="1.50" />
					<svg height="35.00" width="135.00" x="7.00" y="26.00">
						<svg height="35.00" width="135.00" x="0.00" y="0.00">
							<text dominant-baseline="middle" fill="#000000" fill-opacity="1.00" font-family="Verdana" font-size="14.00" font-weight="normal" text-anchor="middle" x="67.50" y="8.75">Identify and invite</text>
							<text dominant-baseline="middle" fill="#000000" fill-opacity="1.00" font-family="Verdana" font-size="14.00" font-weight="normal" text-anchor="middle" x="67.50" y="26.25">Senior Stakeholder</text>
						</svg>
					</svg>
				</svg>
			</svg>
		</svg>
	</svg>
	<svg height="100.00" id="node17" width="200.00" x="588.50" y="282.00">
		<svg height="98.00" width="168.00" x="16.00" y="1.00">
			<path d="M2.00 49.00L2.00 11.00 C2.00 6.03 6.03 2.00 11.00 2.00 L157.00 2.00 C161.97 2.00 166.00 6.03 166.00 11.00 L166.00 87.00 C166.00 91.97 161.97 96.00 157.00 96.00 L11.00 96.00 C6.03 96.00 2.00 91.97 2.00 87.00 ZM2.00 49.00" fill="#ffffff" fill-opacity="1.00" />
			<svg height="98.00" width="168.00" x="0.00" y="0.00">
				<path d="M2.75 21.75L2.75 10.25 C2.75 6.11 6.11 2.75 10.25 2.75 L157.75 2.75 C161.89 2.75 165.25 6.11 165.25 10.25 L165.25 21.75 L2.75 21.75 " fill="#28c2cc" fill-opacity="1.00" />
				<text dominant-baseline="middle" fill="#000000" fill-opacity="1.00" font-family="Verdana" font-size="11.00" font-weight="bold" text-anchor="middle" x="84.00" y="12.25">Business Change</text>
				<svg height="98.00" width="168.00" x="0.00" y="0.00">
					<path d="M2.00 49.00L2.00 11.00 C2.00 6.03 6.03 2.00 11.00 2.00 L157.00 2.00 C161.97 2.00 166.00 6.03 166.00 11.00 L166.00 87.00 C166.00 91.97 161.97 96.00 157.00 96.00 L11.00 96.00 C6.03 96.00 2.00 91.97 2.00 87.00 ZM2.00 49.00" fill="none" stroke="#000000" stroke-opacity="1.00" stroke-width="1.50" />
					<svg height="65.00" width="154.00" x="7.00" y="26.00">
						<svg height="65.00" width="154.00" x="0.00" y="0.00">
							<text dominant-baseline="middle" fill="#000000" fill-opacity="1.00" font-family="Verdana" font-size="13.25" font-weight="normal" text-anchor="middle" x="77.00" y="8.12">Use Benefits on a daily</text>
							<text dominant-baseline="middle" fill="#000000" fill-opacity="1.00" font-family="Verdana" font-size="13.25" font-weight="normal" text-anchor="middle" x="77.00" y="24.38">base as a tool for</text>
							<text dominant-baseline="middle" fill="#000000" fill-opacity="1.00" font-family="Verdana" font-size="13.25" font-weight="normal" text-anchor="middle" x="77.00" y="40.62">decisions and not just</text>
							<text dominant-baseline="middle" fill="#000000" fill-opacity="1.00" font-family="Verdana" font-size="13.25" font-weight="normal" text-anchor="middle" x="77.00" y="56.88">during Business Case</text>
						</svg>
					</svg>
				</svg>
			</svg>
		</svg>
	</svg>
	<svg height="21.39" id="edgeLine23" width="41.29" x="564.92" y="272.70">
		<path d="M31.03 16.61C23.47 13.08 15.86 9.53 8.40 6.05 " fill="none" stroke="#000000" stroke-opacity="1.00" stroke-width="1.50" />
		<svg height="7.85" id="edgeHead23" width="10.75" x="30.54" y="13.54">
			<path d="M2.11 2.72L2.11 2.72 L3.38 -0.00 L10.75 7.85 L0.00 7.25 L1.27 4.53 L1.27 4.53 ZM2.11 2.72" fill="#000000" fill-opacity="1.00" />
		</svg>
		<svg height="8.00" id="edgeTail23" width="8.00" x="0.00" y="-0.00">
			<path d="M6.83 6.83C8.39 5.27 8.39 2.73 6.83 1.17 C5.27 -0.39 2.73 -0.39 1.17 1.17 C-0.39 2.73 -0.39 5.27 1.17 6.83 C2.73 8.39 5.27 8.39 6.83 6.83 " fill="#000000" fill-opacity="1.00" />
		</svg>
	</svg>
	<svg height="121.29" id="edgeLine24" width="68.69" x="779.17" y="512.05">
		<path d="M58.80 116.18C46.06 108.99 34.23 99.75 25.83 87.95 C8.44 63.52 33.92 46.26 17.83 20.95 C14.81 16.20 11.32 11.73 7.49 7.53 " fill="none" stroke="#000000" stroke-opacity="1.00" stroke-width="1.50" />
		<svg height="8.15" id="edgeHead24" width="10.72" x="57.97" y="113.14">
			<path d="M2.30 2.67L2.30 2.67 L3.67 0.00 L10.72 8.15 L0.00 7.11 L1.38 4.45 L1.38 4.45 ZM2.30 2.67" fill="#000000" fill-opacity="1.00" />
		</svg>
		<svg height="8.00" id="edgeTail24" width="8.00" x="0.00" y="0.00">
			<path d="M6.83 6.83C8.39 5.27 8.39 2.73 6.83 1.17 C5.27 -0.39 2.73 -0.39 1.17 1.17 C-0.39 2.73 -0.39 5.27 1.17 6.83 C2.73 8.39 5.27 8.39 6.83 6.83 " fill="#000000" fill-opacity="1.00" />
		</svg>
	</svg>
	<svg height="12.58" id="edgeLine25" width="60.47" x="787.47" y="447.34">
		<path d="M49.18 4.11C36.22 5.39 22.54 6.75 8.94 8.09 " fill="none" stroke="#000000" stroke-opacity="1.00" stroke-width="1.50" />
		<svg height="7.96" id="edgeHead25" width="10.35" x="50.13" y="-0.00">
			<path d="M0.30 2.98L0.30 2.98 L0.00 -0.00 L10.35 3.00 L0.79 7.96 L0.49 4.97 L0.49 4.97 ZM0.30 2.98" fill="#000000" fill-opacity="1.00" />
		</svg>
		<svg height="8.00" id="edgeTail25" width="8.00" x="0.00" y="4.58">
			<path d="M6.83 6.83C8.39 5.27 8.39 2.73 6.83 1.17 C5.27 -0.39 2.73 -0.39 1.17 1.17 C-0.39 2.73 -0.39 5.27 1.17 6.83 C2.73 8.39 5.27 8.39 6.83 6.83 " fill="#000000" fill-opacity="1.00" />
		</svg>
	</svg>
	<svg height="48.04" id="edgeLine27" width="65.64" x="768.18" y="372.32">
		<path d="M56.41 6.03C49.69 10.51 43.08 15.09 36.82 19.68 C33.01 22.47 32.61 23.86 28.82 26.68 C22.13 31.64 15.06 36.60 7.88 41.45 " fill="none" stroke="#000000" stroke-opacity="1.00" stroke-width="1.50" />
		<svg height="8.82" id="edgeHead27" width="10.56" x="55.08" y="-0.00">
			<path d="M1.64 4.64L1.64 4.64 L0.00 2.13 L10.56 -0.00 L4.38 8.82 L2.74 6.31 L2.74 6.31 ZM1.64 4.64" fill="#000000" fill-opacity="1.00" />
		</svg>
		<svg height="8.00" id="edgeTail27" width="8.00" x="0.00" y="40.04">
			<path d="M6.83 6.83C8.39 5.27 8.39 2.73 6.83 1.17 C5.27 -0.39 2.73 -0.39 1.17 1.17 C-0.39 2.73 -0.39 5.27 1.17 6.83 C2.73 8.39 5.27 8.39 6.83 6.83 " fill="#000000" fill-opacity="1.00" />
		</svg>
	</svg>
	<svg height="8.67" id="edgeLine28" width="43.80" x="770.93" y="325.41">
		<path d="M32.45 4.03C24.51 4.21 16.56 4.39 8.75 4.56 " fill="none" stroke="#000000" stroke-opacity="1.00" stroke-width="1.50" />
		<svg height="8.00" id="edgeHead28" width="10.09" x="33.72" y="0.00">
			<path d="M0.07 3.00L0.07 3.00 L0.00 0.00 L10.09 3.78 L0.18 8.00 L0.11 5.00 L0.11 5.00 ZM0.07 3.00" fill="#000000" fill-opacity="1.00" />
		</svg>
		<svg height="8.00" id="edgeTail28" width="8.00" x="0.00" y="0.67">
			<path d="M6.83 6.83C8.39 5.27 8.39 2.73 6.83 1.17 C5.27 -0.39 2.73 -0.39 1.17 1.17 C-0.39 2.73 -0.39 5.27 1.17 6.83 C2.73 8.39 5.27 8.39 6.83 6.83 " fill="#000000" fill-opacity="1.00" />
		</svg>
	</svg>
	<svg height="100.00" id="node18" width="200.00" x="813.00" y="160.00">
		<svg height="68.00" width="144.00" x="28.00" y="16.00">
			<path d="M2.00 34.00L2.00 11.00 C2.00 6.03 6.03 2.00 11.00 2.00 L133.00 2.00 C137.97 2.00 142.00 6.03 142.00 11.00 L142.00 57.00 C142.00 61.97 137.97 66.00 133.00 66.00 C133.00 66.00 133.00 66.00 133.00 66.00 L11.00 66.00 C6.03 66.00 2.00 61.97 2.00 57.00 ZM2.00 34.00" fill="#ffffff" fill-opacity="1.00" />
			<svg height="68.00" width="144.00" x="0.00" y="0.00">
				<path d="M2.75 21.75L2.75 10.25 C2.75 6.11 6.11 2.75 10.25 2.75 L133.75 2.75 C137.89 2.75 141.25 6.11 141.25 10.25 L141.25 21.75 L2.75 21.75 " fill="#0f7ffe" fill-opacity="1.00" />
				<text dominant-baseline="middle" fill="#ffffff" fill-opacity="1.00" font-family="Verdana" font-size="11.00" font-weight="bold" text-anchor="middle" x="72.00" y="12.25">Measurable Benefits</text>
				<svg height="68.00" width="144.00" x="0.00" y="0.00">
					<path d="M2.00 34.00L2.00 11.00 C2.00 6.03 6.03 2.00 11.00 2.00 L133.00 2.00 C137.97 2.00 142.00 6.03 142.00 11.00 L142.00 57.00 C142.00 61.97 137.97 66.00 133.00 66.00 C133.00 66.00 133.00 66.00 133.00 66.00 L11.00 66.00 C6.03 66.00 2.00 61.97 2.00 57.00 ZM2.00 34.00" fill="none" stroke="#000000" stroke-opacity="1.00" stroke-width="1.50" />
					<svg height="35.00" width="130.00" x="7.00" y="26.00">
						<svg height="35.00" width="130.00" x="0.00" y="0.00">
							<text dominant-baseline="middle" fill="#000000" fill-opacity="1.00" font-family="Verdana" font-size="14.00" font-weight="normal" text-anchor="middle" x="65.00" y="8.75">Deliver project in</text>
							<text dominant-baseline="middle" fill="#000000" fill-opacity="1.00" font-family="Verdana" font-size="14.00" font-weight="normal" text-anchor="middle" x="65.00" y="26.25">meaningful stages</text>
						</svg>
					</svg>
				</svg>
			</svg>
		</svg>
	</svg>
	<svg height="162.82" id="edgeLine29" width="119.29" x="982.99" y="233.77">
		<path d="M115.02 152.13C99.17 113.07 73.71 62.63 38.01 28.23 C29.33 19.87 19.05 12.62 8.35 6.41 " fill="none" stroke="#000000" stroke-opacity="1.00" stroke-width="1.50" />
		<svg height="10.77" id="edgeHead29" width="7.44" x="111.85" y="152.05">
			<path d="M4.65 1.10L4.65 1.10 L7.44 -0.00 L7.39 10.77 L0.00 2.93 L2.79 1.83 L2.79 1.83 ZM4.65 1.10" fill="#000000" fill-opacity="1.00" />
		</svg>
		<svg height="8.00" id="edgeTail29" width="8.00" x="0.00" y="0.00">
			<path d="M6.83 6.83C8.39 5.27 8.39 2.73 6.83 1.17 C5.27 -0.39 2.73 -0.39 1.17 1.17 C-0.39 2.73 -0.39 5.27 1.17 6.83 C2.73 8.39 5.27 8.39 6.83 6.83 " fill="#000000" fill-opacity="1.00" />
		</svg>
	</svg>
	<svg height="44.14" id="edgeLine30" width="77.96" x="764.78" y="242.50">
		<path d="M67.82 5.07C58.45 9.80 49.08 14.67 40.22 19.50 C29.78 25.18 18.94 31.36 8.28 37.61 " fill="none" stroke="#000000" stroke-opacity="1.00" stroke-width="1.50" />
		<svg height="8.05" id="edgeHead30" width="10.73" x="67.22" y="-0.00">
			<path d="M1.34 3.58L1.34 3.58 L0.00 0.89 L10.73 0.00 L3.58 8.05 L2.24 5.37 L2.24 5.37 ZM1.34 3.58" fill="#000000" fill-opacity="1.00" />
		</svg>
		<svg height="8.00" id="edgeTail30" width="8.00" x="0.00" y="36.14">
			<path d="M6.83 6.83C8.39 5.27 8.39 2.73 6.83 1.17 C5.27 -0.39 2.73 -0.39 1.17 1.17 C-0.39 2.73 -0.39 5.27 1.17 6.83 C2.73 8.39 5.27 8.39 6.83 6.83 " fill="#000000" fill-opacity="1.00" />
		</svg>
	</svg>
	<svg height="99.09" id="edgeLine32" width="302.29" x="527.03" y="96.41">
		<path d="M290.93 4.00C224.07 3.83 133.91 11.54 62.97 46.59 C41.62 57.14 22.40 74.50 6.91 91.76 " fill="none" stroke="#000000" stroke-opacity="1.00" stroke-width="1.50" />
		<svg height="8.00" id="edgeHead32" width="10.04" x="292.26" y="0.02">
			<path d="M0.05 3.00L0.05 3.00 L0.07 0.00 L10.04 4.09 L0.00 8.00 L0.03 5.00 L0.03 5.00 ZM0.05 3.00" fill="#000000" fill-opacity="1.00" />
		</svg>
		<svg height="8.00" id="edgeTail32" width="8.00" x="0.00" y="91.09">
			<path d="M6.83 6.83C8.39 5.27 8.39 2.73 6.83 1.17 C5.27 -0.39 2.73 -0.39 1.17 1.17 C-0.39 2.73 -0.39 5.27 1.17 6.83 C2.73 8.39 5.27 8.39 6.83 6.83 " fill="#000000" fill-opacity="1.00" />
		</svg>
	</svg>
	<svg height="100.00" id="node19" width="200.00" x="588.50" y="546.00">
		<svg height="90.00" width="200.00" x="0.00" y="5.00">
			<path d="M2.00 45.00L2.00 11.00 C2.00 6.03 6.03 2.00 11.00 2.00 L189.00 2.00 C193.97 2.00 198.00 6.03 198.00 11.00 L198.00 79.00 C198.00 83.97 193.97 88.00 189.00 88.00 L11.00 88.00 C6.03 88.00 2.00 83.97 2.00 79.00 ZM2.00 45.00" fill="#ffffff" fill-opacity="1.00" />
			<svg height="90.00" width="200.00" x="0.00" y="0.00">
				<path d="M2.75 21.75L2.75 10.25 C2.75 6.11 6.11 2.75 10.25 2.75 L189.75 2.75 C193.89 2.75 197.25 6.11 197.25 10.25 L197.25 21.75 L2.75 21.75 " fill="#28c2cc" fill-opacity="1.00" />
				<text dominant-baseline="middle" fill="#000000" fill-opacity="1.00" font-family="Verdana" font-size="11.00" font-weight="bold" text-anchor="middle" x="100.00" y="12.25">Business Change</text>
				<svg height="90.00" width="200.00" x="0.00" y="0.00">
					<path d="M2.00 45.00L2.00 11.00 C2.00 6.03 6.03 2.00 11.00 2.00 L189.00 2.00 C193.97 2.00 198.00 6.03 198.00 11.00 L198.00 79.00 C198.00 83.97 193.97 88.00 189.00 88.00 L11.00 88.00 C6.03 88.00 2.00 83.97 2.00 79.00 ZM2.00 45.00" fill="none" stroke="#000000" stroke-opacity="1.00" stroke-width="1.50" />
					<svg height="57.00" width="186.00" x="7.00" y="26.00">
						<svg height="57.00" width="186.00" x="0.00" y="0.00">
							<text dominant-baseline="middle" fill="#000000" fill-opacity="1.00" font-family="Verdana" font-size="11.75" font-weight="normal" text-anchor="middle" x="93.00" y="7.12">Engage with Benefit Owners on</text>
							<text dominant-baseline="middle" fill="#000000" fill-opacity="1.00" font-family="Verdana" font-size="11.75" font-weight="normal" text-anchor="middle" x="93.00" y="21.38">a regular base, ensuring that</text>
							<text dominant-baseline="middle" fill="#000000" fill-opacity="1.00" font-family="Verdana" font-size="11.75" font-weight="normal" text-anchor="middle" x="93.00" y="35.62">the project delivers what they</text>
							<text dominant-baseline="middle" fill="#000000" fill-opacity="1.00" font-family="Verdana" font-size="11.75" font-weight="normal" text-anchor="middle" x="93.00" y="49.88">need to realise the benefit</text>
						</svg>
					</svg>
				</svg>
			</svg>
		</svg>
	</svg>
	<svg height="92.49" id="edgeLine35" width="123.13" x="728.51" y="638.08">
		<path d="M113.11 87.47C100.54 80.99 87.84 73.72 76.49 65.92 C51.99 49.09 27.56 27.17 7.51 7.49 " fill="none" stroke="#000000" stroke-opacity="1.00" stroke-width="1.50" />
		<svg height="8.06" id="edgeHead35" width="10.73" x="112.40" y="84.43">
			<path d="M2.24 2.69L2.24 2.69 L3.58 0.00 L10.73 8.06 L0.00 7.16 L1.34 4.48 L1.34 4.48 ZM2.24 2.69" fill="#000000" fill-opacity="1.00" />
		</svg>
		<svg height="8.00" id="edgeTail35" width="8.00" x="0.00" y="0.00">
			<path d="M6.83 6.83C8.39 5.27 8.39 2.73 6.83 1.17 C5.27 -0.39 2.73 -0.39 1.17 1.17 C-0.39 2.73 -0.39 5.27 1.17 6.83 C2.73 8.39 5.27 8.39 6.83 6.83 " fill="#000000" fill-opacity="1.00" />
		</svg>
	</svg>
	<svg height="78.39" id="edgeLine38" width="196.12" x="394.00" y="480.08">
		<path d="M185.60 74.20C129.40 52.47 61.55 26.24 8.63 5.79 " fill="none" stroke="#000000" stroke-opacity="1.00" stroke-width="1.50" />
		<svg height="7.46" id="edgeHead38" width="10.77" x="185.35" y="70.93">
			<path d="M1.80 2.80L1.80 2.80 L2.88 -0.00 L10.77 7.33 L0.00 7.46 L1.08 4.66 L1.08 4.66 ZM1.80 2.80" fill="#000000" fill-opacity="1.00" />
		</svg>
		<svg height="8.00" id="edgeTail38" width="8.00" x="0.00" y="-0.00">
			<path d="M6.83 6.83C8.39 5.27 8.39 2.73 6.83 1.17 C5.27 -0.39 2.73 -0.39 1.17 1.17 C-0.39 2.73 -0.39 5.27 1.17 6.83 C2.73 8.39 5.27 8.39 6.83 6.83 " fill="#000000" fill-opacity="1.00" />
		</svg>
	</svg>
	<svg height="263.47" id="edgeLine39" width="112.50" x="496.77" y="289.32">
		<path d="M104.11 255.86C100.19 252.00 96.52 247.94 93.23 243.68 C39.10 173.52 14.98 71.38 4.73 8.63 " fill="none" stroke="#000000" stroke-opacity="1.00" stroke-width="1.50" />
		<svg height="9.68" id="edgeHead39" width="10.09" x="102.41" y="253.79">
			<path d="M3.36 2.22L3.36 2.22 L5.38 -0.00 L10.09 9.68 L0.00 5.92 L2.02 3.70 L2.02 3.70 ZM3.36 2.22" fill="#000000" fill-opacity="1.00" />
		</svg>
		<svg height="8.00" id="edgeTail39" width="8.00" x="0.00" y="-0.00">
			<path d="M6.83 6.83C8.39 5.27 8.39 2.73 6.83 1.17 C5.27 -0.39 2.73 -0.39 1.17 1.17 C-0.39 2.73 -0.39 5.27 1.17 6.83 C2.73 8.39 5.27 8.39 6.83 6.83 " fill="#000000" fill-opacity="1.00" />
		</svg>
	</svg>
</svg>