<?xml version="1.0" encoding="utf-8" standalone="no"?>
<svg version="1.1" viewBox="0.00 0.00 822.00 711.00" xmlns="http://www.w3.org/2000/svg">
	<svg height="100.00" id="node13" width="200.00" x="603.50" y="17.00">
		<svg height="44.00" width="181.00" x="9.50" y="28.00">
			<path d="M2.00 22.00L2.00 11.00 C2.00 6.03 6.03 2.00 11.00 2.00 L170.00 2.00 C174.97 2.00 179.00 6.03 179.00 11.00 L179.00 33.00 C179.00 37.97 174.97 42.00 170.00 42.00 C170.00 42.00 170.00 42.00 170.00 42.00 L11.00 42.00 C6.03 42.00 2.00 37.97 2.00 33.00 ZM2.00 22.00" fill="#ffffff" fill-opacity="1.00" />
			<svg height="44.00" width="181.00" x="0.00" y="0.00">
				<path d="M2.00 22.00L2.00 11.00 C2.00 6.03 6.03 2.00 11.00 2.00 L170.00 2.00 C174.97 2.00 179.00 6.03 179.00 11.00 L179.00 33.00 C179.00 37.97 174.97 42.00 170.00 42.00 C170.00 42.00 170.00 42.00 170.00 42.00 L11.00 42.00 C6.03 42.00 2.00 37.97 2.00 33.00 ZM2.00 22.00" fill="none" stroke="#000000" stroke-opacity="1.00" stroke-width="1.50" />
				<svg height="30.00" width="167.00" x="7.00" y="7.00">
					<svg height="30.00" width="133.00" x="34.00" y="0.00">
						<svg height="30.00" width="133.00" x="0.00" y="0.00">
							<text dominant-baseline="middle" fill="#000000" fill-opacity="1.00" font-family="Verdana" font-size="14.00" font-weight="normal" text-anchor="middle" x="66.50" y="15.00">Ask her to prepare</text>
						</svg>
					</svg>
					<svg height="30.00" width="30.00" x="0.00" y="0.00">
						<svg x="0.00" y="-0.00">
							<path d="M15.00 0.00L1.25 7.50 L1.25 22.66 L15.00 30.00 L28.75 22.66 L28.75 7.57 L15.00 0.00 ZM24.89 8.31L15.00 13.57 L5.16 8.21 L14.99 2.85 L24.89 8.31 ZM3.75 10.29L13.75 15.74 L13.75 26.50 L3.75 21.16 L3.75 10.29 ZM16.25 26.50L16.25 15.75 L26.25 10.41 L26.25 21.16 L16.25 26.50 ZM16.25 26.50" fill="#28cc83" fill-opacity="1.00" />
						</svg>
						<svg height="30.00" width="30.00" x="0.00" y="0.00" />
					</svg>
				</svg>
			</svg>
		</svg>
	</svg>
	<svg height="100.00" id="node20" width="200.00" x="397.00" y="429.00">
		<svg height="57.00" width="190.00" x="5.00" y="21.50">
			<path d="M2.00 28.50L2.00 11.00 C2.00 6.03 6.03 2.00 11.00 2.00 L179.00 2.00 C183.97 2.00 188.00 6.03 188.00 11.00 L188.00 46.00 C188.00 50.97 183.97 55.00 179.00 55.00 C179.00 55.00 179.00 55.00 179.00 55.00 L11.00 55.00 C6.03 55.00 2.00 50.97 2.00 46.00 ZM2.00 28.50" fill="#ffffff" fill-opacity="1.00" />
			<svg height="57.00" width="190.00" x="0.00" y="0.00">
				<path d="M2.00 28.50L2.00 11.00 C2.00 6.03 6.03 2.00 11.00 2.00 L179.00 2.00 C183.97 2.00 188.00 6.03 188.00 11.00 L188.00 46.00 C188.00 50.97 183.97 55.00 179.00 55.00 C179.00 55.00 179.00 55.00 179.00 55.00 L11.00 55.00 C6.03 55.00 2.00 50.97 2.00 46.00 ZM2.00 28.50" fill="none" stroke="#000000" stroke-opacity="1.00" stroke-width="1.50" />
				<svg height="43.00" width="176.00" x="7.00" y="7.00">
					<svg height="43.00" width="142.00" x="34.00" y="0.00">
						<svg height="43.00" width="142.00" x="0.00" y="0.00">
							<text dominant-baseline="middle" fill="#000000" fill-opacity="1.00" font-family="Verdana" font-size="14.00" font-weight="normal" text-anchor="middle" x="71.00" y="10.75">Find good Car</text>
							<text dominant-baseline="middle" fill="#000000" fill-opacity="1.00" font-family="Verdana" font-size="14.00" font-weight="normal" text-anchor="middle" x="71.00" y="32.25">loan/leasing options</text>
						</svg>
					</svg>
					<svg height="43.00" width="30.00" x="0.00" y="0.00">
						<svg x="0.00" y="-6.50">
							<path d="M28.08 31.74C26.66 30.31 24.75 29.68 22.90 29.83 C21.91 29.90 20.95 29.54 20.25 28.85 L14.15 22.75 C13.46 22.05 13.10 21.09 13.17 20.10 C13.32 18.25 12.69 16.35 11.26 14.92 C9.98 13.64 8.30 13.00 6.61 13.00 C5.98 13.00 5.34 13.09 4.72 13.27 L8.69 17.24 C9.12 19.23 6.25 22.12 4.24 21.69 L0.28 17.73 C0.09 18.34 0.00 18.98 0.00 19.61 C0.00 21.30 0.64 22.98 1.93 24.26 C3.34 25.69 5.25 26.32 7.10 26.17 C8.09 26.10 9.05 26.46 9.75 27.16 L15.85 33.25 C16.54 33.95 16.90 34.91 16.83 35.90 C16.68 37.75 17.31 39.66 18.74 41.08 C20.02 42.36 21.70 43.00 23.39 43.00 C24.02 43.00 24.66 42.91 25.27 42.73 L21.31 38.76 C20.86 36.76 23.77 33.88 25.76 34.31 L29.73 38.27 C29.91 37.66 30.00 37.02 30.00 36.39 C30.00 34.70 29.36 33.02 28.08 31.74 ZM28.08 31.74" fill="#28c2cc" fill-opacity="1.00" />
						</svg>
						<svg height="30.00" width="30.00" x="0.00" y="6.00" />
					</svg>
				</svg>
			</svg>
		</svg>
	</svg>
	<svg height="100.00" id="node2" width="200.00" x="190.00" y="516.00">
		<svg height="57.00" width="182.00" x="9.00" y="21.50">
			<path d="M2.00 28.50L2.00 11.00 C2.00 6.03 6.03 2.00 11.00 2.00 L171.00 2.00 C175.97 2.00 180.00 6.03 180.00 11.00 L180.00 46.00 C180.00 50.97 175.97 55.00 171.00 55.00 C171.00 55.00 171.00 55.00 171.00 55.00 L11.00 55.00 C6.03 55.00 2.00 50.97 2.00 46.00 ZM2.00 28.50" fill="#ffffff" fill-opacity="1.00" />
			<svg height="57.00" width="182.00" x="0.00" y="0.00">
				<path d="M2.00 28.50L2.00 11.00 C2.00 6.03 6.03 2.00 11.00 2.00 L171.00 2.00 C175.97 2.00 180.00 6.03 180.00 11.00 L180.00 46.00 C180.00 50.97 175.97 55.00 171.00 55.00 C171.00 55.00 171.00 55.00 171.00 55.00 L11.00 55.00 C6.03 55.00 2.00 50.97 2.00 46.00 ZM2.00 28.50" fill="none" stroke="#000000" stroke-opacity="1.00" stroke-width="1.50" />
				<svg height="43.00" width="168.00" x="7.00" y="7.00">
					<svg height="43.00" width="134.00" x="34.00" y="0.00">
						<svg height="43.00" width="134.00" x="0.00" y="0.00">
							<text dominant-baseline="middle" fill="#000000" fill-opacity="1.00" font-family="Verdana" font-size="14.00" font-weight="normal" text-anchor="middle" x="67.00" y="10.75">Car Dealer (maybe</text>
							<text dominant-baseline="middle" fill="#000000" fill-opacity="1.00" font-family="Verdana" font-size="14.00" font-weight="normal" text-anchor="middle" x="67.00" y="32.25">more than one)</text>
						</svg>
					</svg>
					<svg height="43.00" width="30.00" x="0.00" y="0.00">
						<svg x="0.00" y="-6.50">
							<path d="M15.00 13.00C6.60 13.00 0.00 19.60 0.00 28.00 C0.00 36.40 6.60 43.00 15.00 43.00 C23.40 43.00 30.00 36.40 30.00 28.00 C30.00 19.60 23.40 13.00 15.00 13.00 ZM24.60 35.80C24.30 35.20 23.70 34.60 22.50 34.30 C19.50 33.70 16.80 33.10 18.00 30.70 C21.90 23.20 19.20 19.30 15.00 19.30 C10.80 19.30 7.80 23.50 12.00 30.70 C13.20 33.10 10.50 33.70 7.50 34.30 C6.30 34.60 5.70 35.20 5.40 35.80 C3.60 33.70 2.40 31.00 2.40 28.00 C2.40 21.10 8.10 15.40 15.00 15.40 C21.90 15.40 27.60 21.10 27.60 28.00 C27.60 31.00 26.40 33.70 24.60 35.80 ZM24.60 35.80" fill="#2871cc" fill-opacity="1.00" />
						</svg>
						<svg height="30.00" width="30.00" x="0.00" y="6.00" />
					</svg>
				</svg>
			</svg>
		</svg>
	</svg>
	<svg height="100.00" id="node3" width="200.00" x="397.00" y="516.00">
		<svg height="44.00" width="151.00" x="24.50" y="28.00">
			<path d="M2.00 22.00L2.00 11.00 C2.00 6.03 6.03 2.00 11.00 2.00 L140.00 2.00 C144.97 2.00 149.00 6.03 149.00 11.00 L149.00 33.00 C149.00 37.97 144.97 42.00 140.00 42.00 L11.00 42.00 C6.03 42.00 2.00 37.97 2.00 33.00 ZM2.00 22.00" fill="#ffffff" fill-opacity="1.00" />
			<svg height="44.00" width="151.00" x="0.00" y="0.00">
				<path d="M2.00 22.00L2.00 11.00 C2.00 6.03 6.03 2.00 11.00 2.00 L140.00 2.00 C144.97 2.00 149.00 6.03 149.00 11.00 L149.00 33.00 C149.00 37.97 144.97 42.00 140.00 42.00 L11.00 42.00 C6.03 42.00 2.00 37.97 2.00 33.00 ZM2.00 22.00" fill="none" stroke="#000000" stroke-opacity="1.00" stroke-width="1.50" />
				<svg height="30.00" width="137.00" x="7.00" y="7.00">
					<svg height="30.00" width="103.00" x="34.00" y="0.00">
						<svg height="30.00" width="103.00" x="0.00" y="0.00">
							<text dominant-baseline="middle" fill="#000000" fill-opacity="1.00" font-family="Verdana" font-size="14.00" font-weight="normal" text-anchor="middle" x="51.50" y="15.00">Provide advise</text>
						</svg>
					</svg>
					<svg height="30.00" width="30.00" x="0.00" y="0.00">
						<svg x="0.00" y="-0.00">
							<path d="M28.08 18.74C26.66 17.31 24.75 16.68 22.90 16.83 C21.91 16.90 20.95 16.54 20.25 15.85 L14.15 9.75 C13.46 9.05 13.10 8.09 13.17 7.10 C13.32 5.25 12.69 3.35 11.26 1.92 C9.98 0.64 8.30 0.00 6.61 0.00 C5.98 0.00 5.34 0.09 4.72 0.27 L8.69 4.24 C9.12 6.23 6.25 9.12 4.24 8.69 L0.28 4.73 C0.09 5.34 0.00 5.98 0.00 6.61 C0.00 8.30 0.64 9.98 1.93 11.26 C3.34 12.69 5.25 13.32 7.10 13.17 C8.09 13.10 9.05 13.46 9.75 14.16 L15.85 20.25 C16.54 20.95 16.90 21.91 16.83 22.90 C16.68 24.75 17.31 26.66 18.74 28.07 C20.02 29.36 21.70 30.00 23.39 30.00 C24.02 30.00 24.66 29.91 25.27 29.73 L21.31 25.76 C20.86 23.76 23.77 20.88 25.76 21.31 L29.73 25.27 C29.91 24.66 30.00 24.02 30.00 23.39 C30.00 21.70 29.36 20.02 28.08 18.74 ZM28.08 18.74" fill="#28c2cc" fill-opacity="1.00" />
						</svg>
						<svg height="30.00" width="30.00" x="0.00" y="0.00" />
					</svg>
				</svg>
			</svg>
		</svg>
	</svg>
	<svg height="100.00" id="node15" width="200.00" x="603.50" y="609.00">
		<svg height="78.00" width="163.00" x="18.50" y="11.00">
			<path d="M2.00 39.00L2.00 11.00 C2.00 6.03 6.03 2.00 11.00 2.00 L152.00 2.00 C156.97 2.00 161.00 6.03 161.00 11.00 L161.00 67.00 C161.00 71.97 156.97 76.00 152.00 76.00 L11.00 76.00 C6.03 76.00 2.00 71.97 2.00 67.00 ZM2.00 39.00" fill="#ffffff" fill-opacity="1.00" />
			<svg height="78.00" width="163.00" x="0.00" y="0.00">
				<path d="M2.00 39.00L2.00 11.00 C2.00 6.03 6.03 2.00 11.00 2.00 L152.00 2.00 C156.97 2.00 161.00 6.03 161.00 11.00 L161.00 67.00 C161.00 71.97 156.97 76.00 152.00 76.00 L11.00 76.00 C6.03 76.00 2.00 71.97 2.00 67.00 ZM2.00 39.00" fill="none" stroke="#000000" stroke-opacity="1.00" stroke-width="1.50" />
				<svg height="64.00" width="149.00" x="7.00" y="7.00">
					<svg height="64.00" width="115.00" x="34.00" y="0.00">
						<svg height="64.00" width="115.00" x="0.00" y="0.00">
							<text dominant-baseline="middle" fill="#000000" fill-opacity="1.00" font-family="Verdana" font-size="14.00" font-weight="normal" text-anchor="middle" x="57.50" y="10.67">Show him/her</text>
							<text dominant-baseline="middle" fill="#000000" fill-opacity="1.00" font-family="Verdana" font-size="14.00" font-weight="normal" text-anchor="middle" x="57.50" y="32.00">slight interest in</text>
							<text dominant-baseline="middle" fill="#000000" fill-opacity="1.00" font-family="Verdana" font-size="14.00" font-weight="normal" text-anchor="middle" x="57.50" y="53.33">a particular car</text>
						</svg>
					</svg>
					<svg height="64.00" width="30.00" x="0.00" y="0.00">
						<svg x="0.00" y="-17.00">
							<path d="M15.00 34.00L1.25 41.50 L1.25 56.66 L15.00 64.00 L28.75 56.66 L28.75 41.58 L15.00 34.00 ZM24.89 42.31L15.00 47.58 L5.16 42.21 L14.99 36.85 L24.89 42.31 ZM3.75 44.29L13.75 49.74 L13.75 60.50 L3.75 55.16 L3.75 44.29 ZM16.25 60.50L16.25 49.75 L26.25 44.41 L26.25 55.16 L16.25 60.50 ZM16.25 60.50" fill="#28cc83" fill-opacity="1.00" />
						</svg>
						<svg height="30.00" width="30.00" x="0.00" y="17.00" />
					</svg>
				</svg>
			</svg>
		</svg>
	</svg>
	<svg height="100.00" id="node19" width="200.00" x="190.00" y="426.00">
		<svg height="44.00" width="91.00" x="54.50" y="28.00">
			<path d="M2.00 22.00L2.00 11.00 C2.00 6.03 6.03 2.00 11.00 2.00 L80.00 2.00 C84.97 2.00 89.00 6.03 89.00 11.00 L89.00 33.00 C89.00 37.97 84.97 42.00 80.00 42.00 C80.00 42.00 80.00 42.00 80.00 42.00 L11.00 42.00 C6.03 42.00 2.00 37.97 2.00 33.00 ZM2.00 22.00" fill="#ffffff" fill-opacity="1.00" />
			<svg height="44.00" width="91.00" x="0.00" y="0.00">
				<path d="M2.00 22.00L2.00 11.00 C2.00 6.03 6.03 2.00 11.00 2.00 L80.00 2.00 C84.97 2.00 89.00 6.03 89.00 11.00 L89.00 33.00 C89.00 37.97 84.97 42.00 80.00 42.00 C80.00 42.00 80.00 42.00 80.00 42.00 L11.00 42.00 C6.03 42.00 2.00 37.97 2.00 33.00 ZM2.00 22.00" fill="none" stroke="#000000" stroke-opacity="1.00" stroke-width="1.50" />
				<svg height="30.00" width="77.00" x="7.00" y="7.00">
					<svg height="30.00" width="43.00" x="34.00" y="0.00">
						<svg height="30.00" width="43.00" x="0.00" y="0.00">
							<text dominant-baseline="middle" fill="#000000" fill-opacity="1.00" font-family="Verdana" font-size="14.00" font-weight="normal" text-anchor="middle" x="21.50" y="15.00">Banks</text>
						</svg>
					</svg>
					<svg height="30.00" width="30.00" x="0.00" y="0.00">
						<svg x="0.00" y="-0.00">
							<path d="M15.00 0.00C6.60 0.00 0.00 6.60 0.00 15.00 C0.00 23.40 6.60 30.00 15.00 30.00 C23.40 30.00 30.00 23.40 30.00 15.00 C30.00 6.60 23.40 0.00 15.00 0.00 ZM24.60 22.80C24.30 22.20 23.70 21.60 22.50 21.30 C19.50 20.70 16.80 20.10 18.00 17.70 C21.90 10.20 19.20 6.30 15.00 6.30 C10.80 6.30 7.80 10.50 12.00 17.70 C13.20 20.10 10.50 20.70 7.50 21.30 C6.30 21.60 5.70 22.20 5.40 22.80 C3.60 20.70 2.40 18.00 2.40 15.00 C2.40 8.10 8.10 2.40 15.00 2.40 C21.90 2.40 27.60 8.10 27.60 15.00 C27.60 18.00 26.40 20.70 24.60 22.80 ZM24.60 22.80" fill="#2871cc" fill-opacity="1.00" />
						</svg>
						<svg height="30.00" width="30.00" x="0.00" y="0.00" />
					</svg>
				</svg>
			</svg>
		</svg>
	</svg>
	<svg height="100.00" id="node10" width="200.00" x="397.00" y="222.00">
		<svg height="99.00" width="167.00" x="16.50" y="0.50">
			<path d="M2.00 49.50L2.00 11.00 C2.00 6.03 6.03 2.00 11.00 2.00 L156.00 2.00 C160.97 2.00 165.00 6.03 165.00 11.00 L165.00 88.00 C165.00 92.97 160.97 97.00 156.00 97.00 L11.00 97.00 C6.03 97.00 2.00 92.97 2.00 88.00 ZM2.00 49.50" fill="#ffffff" fill-opacity="1.00" />
			<svg height="99.00" width="167.00" x="0.00" y="0.00">
				<path d="M2.00 49.50L2.00 11.00 C2.00 6.03 6.03 2.00 11.00 2.00 L156.00 2.00 C160.97 2.00 165.00 6.03 165.00 11.00 L165.00 88.00 C165.00 92.97 160.97 97.00 156.00 97.00 L11.00 97.00 C6.03 97.00 2.00 92.97 2.00 88.00 ZM2.00 49.50" fill="none" stroke="#000000" stroke-opacity="1.00" stroke-width="1.50" />
				<svg height="85.00" width="153.00" x="7.00" y="7.00">
					<svg height="85.00" width="119.00" x="34.00" y="0.00">
						<svg height="85.00" width="119.00" x="0.00" y="0.00">
							<text dominant-baseline="middle" fill="#000000" fill-opacity="1.00" font-family="Verdana" font-size="14.00" font-weight="normal" text-anchor="middle" x="59.50" y="10.62">Share his</text>
							<text dominant-baseline="middle" fill="#000000" fill-opacity="1.00" font-family="Verdana" font-size="14.00" font-weight="normal" text-anchor="middle" x="59.50" y="31.88">experiences with</text>
							<text dominant-baseline="middle" fill="#000000" fill-opacity="1.00" font-family="Verdana" font-size="14.00" font-weight="normal" text-anchor="middle" x="59.50" y="53.12">the electric</text>
							<text dominant-baseline="middle" fill="#000000" fill-opacity="1.00" font-family="Verdana" font-size="14.00" font-weight="normal" text-anchor="middle" x="59.50" y="74.38">car he owns</text>
						</svg>
					</svg>
					<svg height="85.00" width="30.00" x="0.00" y="0.00">
						<svg x="0.00" y="-27.50">
							<path d="M28.08 73.74C26.66 72.31 24.75 71.67 22.90 71.83 C21.91 71.90 20.95 71.54 20.25 70.85 L14.15 64.75 C13.46 64.05 13.10 63.09 13.17 62.10 C13.32 60.25 12.69 58.35 11.26 56.92 C9.98 55.64 8.30 55.00 6.61 55.00 C5.98 55.00 5.34 55.09 4.72 55.27 L8.69 59.24 C9.12 61.23 6.25 64.12 4.24 63.69 L0.28 59.73 C0.09 60.34 0.00 60.98 0.00 61.61 C0.00 63.30 0.64 64.97 1.93 66.26 C3.34 67.69 5.25 68.33 7.10 68.17 C8.09 68.10 9.05 68.46 9.75 69.16 L15.85 75.25 C16.54 75.95 16.90 76.91 16.83 77.90 C16.68 79.75 17.31 81.66 18.74 83.08 C20.02 84.36 21.70 85.00 23.39 85.00 C24.02 85.00 24.66 84.91 25.27 84.72 L21.31 80.76 C20.86 78.76 23.77 75.88 25.76 76.31 L29.73 80.28 C29.91 79.66 30.00 79.03 30.00 78.39 C30.00 76.70 29.36 75.03 28.08 73.74 ZM28.08 73.74" fill="#28c2cc" fill-opacity="1.00" />
						</svg>
						<svg height="30.00" width="30.00" x="0.00" y="27.00" />
					</svg>
				</svg>
			</svg>
		</svg>
	</svg>
	<svg height="100.00" id="node4" width="200.00" x="603.50" y="512.00">
		<svg height="44.00" width="140.00" x="30.00" y="28.00">
			<path d="M2.00 22.00L2.00 11.00 C2.00 6.03 6.03 2.00 11.00 2.00 L129.00 2.00 C133.97 2.00 138.00 6.03 138.00 11.00 L138.00 33.00 C138.00 37.97 133.97 42.00 129.00 42.00 C129.00 42.00 129.00 42.00 129.00 42.00 L11.00 42.00 C6.03 42.00 2.00 37.97 2.00 33.00 ZM2.00 22.00" fill="#ffffff" fill-opacity="1.00" />
			<svg height="44.00" width="140.00" x="0.00" y="0.00">
				<path d="M2.00 22.00L2.00 11.00 C2.00 6.03 6.03 2.00 11.00 2.00 L129.00 2.00 C133.97 2.00 138.00 6.03 138.00 11.00 L138.00 33.00 C138.00 37.97 133.97 42.00 129.00 42.00 C129.00 42.00 129.00 42.00 129.00 42.00 L11.00 42.00 C6.03 42.00 2.00 37.97 2.00 33.00 ZM2.00 22.00" fill="none" stroke="#000000" stroke-opacity="1.00" stroke-width="1.50" />
				<svg height="30.00" width="126.00" x="7.00" y="7.00">
					<svg height="30.00" width="92.00" x="34.00" y="0.00">
						<svg height="30.00" width="92.00" x="0.00" y="0.00">
							<text dominant-baseline="middle" fill="#000000" fill-opacity="1.00" font-family="Verdana" font-size="14.00" font-weight="normal" text-anchor="middle" x="46.00" y="15.00">Visit him/her</text>
						</svg>
					</svg>
					<svg height="30.00" width="30.00" x="0.00" y="0.00">
						<svg x="0.00" y="-0.00">
							<path d="M15.00 0.00L1.25 7.50 L1.25 22.66 L15.00 30.00 L28.75 22.66 L28.75 7.57 L15.00 0.00 ZM24.89 8.31L15.00 13.57 L5.16 8.21 L14.99 2.85 L24.89 8.31 ZM3.75 10.29L13.75 15.74 L13.75 26.50 L3.75 21.16 L3.75 10.29 ZM16.25 26.50L16.25 15.75 L26.25 10.41 L26.25 21.16 L16.25 26.50 ZM16.25 26.50" fill="#28cc83" fill-opacity="1.00" />
						</svg>
						<svg height="30.00" width="30.00" x="0.00" y="0.00" />
					</svg>
				</svg>
			</svg>
		</svg>
	</svg>
	<svg height="100.00" id="node8" width="200.00" x="603.50" y="114.00">
		<svg height="57.00" width="166.00" x="17.00" y="21.50">
			<path d="M2.00 28.50L2.00 11.00 C2.00 6.03 6.03 2.00 11.00 2.00 L155.00 2.00 C159.97 2.00 164.00 6.03 164.00 11.00 L164.00 46.00 C164.00 50.97 159.97 55.00 155.00 55.00 C155.00 55.00 155.00 55.00 155.00 55.00 L11.00 55.00 C6.03 55.00 2.00 50.97 2.00 46.00 ZM2.00 28.50" fill="#ffffff" fill-opacity="1.00" />
			<svg height="57.00" width="166.00" x="0.00" y="0.00">
				<path d="M2.00 28.50L2.00 11.00 C2.00 6.03 6.03 2.00 11.00 2.00 L155.00 2.00 C159.97 2.00 164.00 6.03 164.00 11.00 L164.00 46.00 C164.00 50.97 159.97 55.00 155.00 55.00 C155.00 55.00 155.00 55.00 155.00 55.00 L11.00 55.00 C6.03 55.00 2.00 50.97 2.00 46.00 ZM2.00 28.50" fill="none" stroke="#000000" stroke-opacity="1.00" stroke-width="1.50" />
				<svg height="43.00" width="152.00" x="7.00" y="7.00">
					<svg height="43.00" width="118.00" x="34.00" y="0.00">
						<svg height="43.00" width="118.00" x="0.00" y="0.00">
							<text dominant-baseline="middle" fill="#000000" fill-opacity="1.00" font-family="Verdana" font-size="14.00" font-weight="normal" text-anchor="middle" x="59.00" y="10.75">Discuss what we</text>
							<text dominant-baseline="middle" fill="#000000" fill-opacity="1.00" font-family="Verdana" font-size="14.00" font-weight="normal" text-anchor="middle" x="59.00" y="32.25">want from a car</text>
						</svg>
					</svg>
					<svg height="43.00" width="30.00" x="0.00" y="0.00">
						<svg x="0.00" y="-6.50">
							<path d="M15.00 13.00L1.25 20.50 L1.25 35.66 L15.00 43.00 L28.75 35.66 L28.75 20.57 L15.00 13.00 ZM24.89 21.31L15.00 26.57 L5.16 21.21 L14.99 15.85 L24.89 21.31 ZM3.75 23.29L13.75 28.74 L13.75 39.50 L3.75 34.16 L3.75 23.29 ZM16.25 39.50L16.25 28.75 L26.25 23.41 L26.25 34.16 L16.25 39.50 ZM16.25 39.50" fill="#28cc83" fill-opacity="1.00" />
						</svg>
						<svg height="30.00" width="30.00" x="0.00" y="6.00" />
					</svg>
				</svg>
			</svg>
		</svg>
	</svg>
	<svg height="100.00" id="node9" width="200.00" x="190.00" y="235.00">
		<svg height="44.00" width="93.00" x="53.50" y="28.00">
			<path d="M2.00 22.00L2.00 11.00 C2.00 6.03 6.03 2.00 11.00 2.00 L82.00 2.00 C86.97 2.00 91.00 6.03 91.00 11.00 L91.00 33.00 C91.00 37.97 86.97 42.00 82.00 42.00 C82.00 42.00 82.00 42.00 82.00 42.00 L11.00 42.00 C6.03 42.00 2.00 37.97 2.00 33.00 ZM2.00 22.00" fill="#ffffff" fill-opacity="1.00" />
			<svg height="44.00" width="93.00" x="0.00" y="0.00">
				<path d="M2.00 22.00L2.00 11.00 C2.00 6.03 6.03 2.00 11.00 2.00 L82.00 2.00 C86.97 2.00 91.00 6.03 91.00 11.00 L91.00 33.00 C91.00 37.97 86.97 42.00 82.00 42.00 C82.00 42.00 82.00 42.00 82.00 42.00 L11.00 42.00 C6.03 42.00 2.00 37.97 2.00 33.00 ZM2.00 22.00" fill="none" stroke="#000000" stroke-opacity="1.00" stroke-width="1.50" />
				<svg height="30.00" width="79.00" x="7.00" y="7.00">
					<svg height="30.00" width="45.00" x="34.00" y="0.00">
						<svg height="30.00" width="45.00" x="0.00" y="0.00">
							<text dominant-baseline="middle" fill="#000000" fill-opacity="1.00" font-family="Verdana" font-size="14.00" font-weight="normal" text-anchor="middle" x="22.50" y="15.00">Friend</text>
						</svg>
					</svg>
					<svg height="30.00" width="30.00" x="0.00" y="0.00">
						<svg x="0.00" y="-0.00">
							<path d="M15.00 0.00C6.60 0.00 0.00 6.60 0.00 15.00 C0.00 23.40 6.60 30.00 15.00 30.00 C23.40 30.00 30.00 23.40 30.00 15.00 C30.00 6.60 23.40 0.00 15.00 0.00 ZM24.60 22.80C24.30 22.20 23.70 21.60 22.50 21.30 C19.50 20.70 16.80 20.10 18.00 17.70 C21.90 10.20 19.20 6.30 15.00 6.30 C10.80 6.30 7.80 10.50 12.00 17.70 C13.20 20.10 10.50 20.70 7.50 21.30 C6.30 21.60 5.70 22.20 5.40 22.80 C3.60 20.70 2.40 18.00 2.40 15.00 C2.40 8.10 8.10 2.40 15.00 2.40 C21.90 2.40 27.60 8.10 27.60 15.00 C27.60 18.00 26.40 20.70 24.60 22.80 ZM24.60 22.80" fill="#2871cc" fill-opacity="1.00" />
						</svg>
						<svg height="30.00" width="30.00" x="0.00" y="0.00" />
					</svg>
				</svg>
			</svg>
		</svg>
	</svg>
	<svg height="100.00" id="node1" width="200.00" x="-4.50" y="336.00">
		<svg height="78.00" width="165.00" x="17.50" y="11.00">
			<path d="M2.00 39.00L2.00 11.00 C2.00 6.03 6.03 2.00 11.00 2.00 L154.00 2.00 C158.97 2.00 163.00 6.03 163.00 11.00 L163.00 67.00 C163.00 71.97 158.97 76.00 154.00 76.00 L11.00 76.00 C6.03 76.00 2.00 71.97 2.00 67.00 ZM2.00 39.00" fill="#ffffff" fill-opacity="1.00" />
			<svg height="78.00" width="165.00" x="0.00" y="0.00">
				<path d="M2.00 39.00L2.00 11.00 C2.00 6.03 6.03 2.00 11.00 2.00 L154.00 2.00 C158.97 2.00 163.00 6.03 163.00 11.00 L163.00 67.00 C163.00 71.97 158.97 76.00 154.00 76.00 L11.00 76.00 C6.03 76.00 2.00 71.97 2.00 67.00 ZM2.00 39.00" fill="none" stroke="#000000" stroke-opacity="1.00" stroke-width="1.50" />
				<svg height="64.00" width="151.00" x="7.00" y="7.00">
					<svg height="64.00" width="117.00" x="34.00" y="0.00">
						<svg height="64.00" width="117.00" x="0.00" y="0.00">
							<text dominant-baseline="middle" fill="#000000" fill-opacity="1.00" font-family="Verdana" font-size="14.00" font-weight="normal" text-anchor="middle" x="58.50" y="10.67">Have a family</text>
							<text dominant-baseline="middle" fill="#000000" fill-opacity="1.00" font-family="Verdana" font-size="14.00" font-weight="normal" text-anchor="middle" x="58.50" y="32.00">car available</text>
							<text dominant-baseline="middle" fill="#000000" fill-opacity="1.00" font-family="Verdana" font-size="14.00" font-weight="normal" text-anchor="middle" x="58.50" y="53.33">when we need it</text>
						</svg>
					</svg>
					<svg height="64.00" width="30.00" x="0.00" y="0.00">
						<svg x="0.00" y="-17.00">
							<path d="M7.50 47.80C7.50 50.50 9.60 52.60 12.60 52.60 C14.70 52.60 16.50 51.40 17.10 49.30 L20.10 47.80 L20.10 47.80 C20.10 52.00 16.50 55.30 12.60 55.30 C8.40 55.30 5.10 52.00 5.10 47.80 C5.10 43.60 8.40 40.30 12.60 40.30 C13.80 40.30 15.00 40.60 16.20 41.20 L13.50 42.70 C13.20 42.70 12.90 42.70 12.60 42.70 C9.60 42.70 7.50 45.10 7.50 47.80 ZM12.60 45.10C11.10 45.10 9.90 46.30 9.90 47.80 C9.90 49.00 11.10 50.20 12.60 50.20 C13.80 50.20 15.00 49.00 15.00 47.80 L15.00 47.80 L19.20 45.40 C20.40 44.50 22.50 44.80 23.70 45.40 L30.00 41.80 L26.10 40.00 L26.40 35.50 L20.10 39.10 C20.10 40.30 19.20 42.40 18.00 43.00 L13.80 45.70 C13.50 45.40 12.90 45.10 12.60 45.10 ZM24.90 48.70C24.60 48.10 23.70 47.50 22.50 47.50 L22.50 47.80 C22.50 53.20 18.00 57.70 12.60 57.70 C6.90 57.70 2.40 53.20 2.40 47.80 C2.40 42.10 6.90 37.60 12.60 37.60 C14.40 37.60 16.20 38.20 17.70 39.10 C18.00 38.50 18.00 37.30 17.70 36.40 C16.20 35.80 14.40 35.20 12.60 35.20 C5.70 35.20 0.00 40.90 0.00 47.80 C0.00 51.40 1.50 54.70 4.20 57.10 L2.40 62.20 C2.40 62.50 3.00 63.10 3.30 62.50 L7.20 58.90 C8.70 59.80 10.50 60.10 12.60 60.10 C14.40 60.10 16.20 59.80 18.00 58.90 L21.60 62.50 C21.90 63.10 22.50 62.50 22.50 62.20 L20.70 57.10 C23.10 55.00 24.60 52.00 24.90 48.70 ZM24.90 48.70" fill="#221c83" fill-opacity="1.00" />
						</svg>
						<svg height="30.00" width="30.00" x="0.00" y="17.00" />
					</svg>
				</svg>
			</svg>
		</svg>
	</svg>
	<svg height="100.00" id="node21" width="200.00" x="603.50" y="429.00">
		<svg height="44.00" width="149.00" x="25.50" y="28.00">
			<path d="M2.00 22.00L2.00 11.00 C2.00 6.03 6.03 2.00 11.00 2.00 L138.00 2.00 C142.97 2.00 147.00 6.03 147.00 11.00 L147.00 33.00 C147.00 37.97 142.97 42.00 138.00 42.00 L11.00 42.00 C6.03 42.00 2.00 37.97 2.00 33.00 ZM2.00 22.00" fill="#ffffff" fill-opacity="1.00" />
			<svg height="44.00" width="149.00" x="0.00" y="0.00">
				<path d="M2.00 22.00L2.00 11.00 C2.00 6.03 6.03 2.00 11.00 2.00 L138.00 2.00 C142.97 2.00 147.00 6.03 147.00 11.00 L147.00 33.00 C147.00 37.97 142.97 42.00 138.00 42.00 L11.00 42.00 C6.03 42.00 2.00 37.97 2.00 33.00 ZM2.00 22.00" fill="none" stroke="#000000" stroke-opacity="1.00" stroke-width="1.50" />
				<svg height="30.00" width="135.00" x="7.00" y="7.00">
					<svg height="30.00" width="101.00" x="34.00" y="0.00">
						<svg height="30.00" width="101.00" x="0.00" y="0.00">
							<text dominant-baseline="middle" fill="#000000" fill-opacity="1.00" font-family="Verdana" font-size="14.00" font-weight="normal" text-anchor="middle" x="50.50" y="15.00">Google search</text>
						</svg>
					</svg>
					<svg height="30.00" width="30.00" x="0.00" y="0.00">
						<svg x="0.00" y="-0.00">
							<path d="M15.00 0.00L1.25 7.50 L1.25 22.66 L15.00 30.00 L28.75 22.66 L28.75 7.57 L15.00 0.00 ZM24.89 8.31L15.00 13.57 L5.16 8.21 L14.99 2.85 L24.89 8.31 ZM3.75 10.29L13.75 15.74 L13.75 26.50 L3.75 21.16 L3.75 10.29 ZM16.25 26.50L16.25 15.75 L26.25 10.41 L26.25 21.16 L16.25 26.50 ZM16.25 26.50" fill="#28cc83" fill-opacity="1.00" />
						</svg>
						<svg height="30.00" width="30.00" x="0.00" y="0.00" />
					</svg>
				</svg>
			</svg>
		</svg>
	</svg>
	<svg height="100.00" id="node12" width="200.00" x="397.00" y="17.00">
		<svg height="78.00" width="160.00" x="20.00" y="11.00">
			<path d="M2.00 39.00L2.00 11.00 C2.00 6.03 6.03 2.00 11.00 2.00 L149.00 2.00 C153.97 2.00 158.00 6.03 158.00 11.00 L158.00 67.00 C158.00 71.97 153.97 76.00 149.00 76.00 L11.00 76.00 C6.03 76.00 2.00 71.97 2.00 67.00 ZM2.00 39.00" fill="#ffffff" fill-opacity="1.00" />
			<svg height="78.00" width="160.00" x="0.00" y="0.00">
				<path d="M2.00 39.00L2.00 11.00 C2.00 6.03 6.03 2.00 11.00 2.00 L149.00 2.00 C153.97 2.00 158.00 6.03 158.00 11.00 L158.00 67.00 C158.00 71.97 153.97 76.00 149.00 76.00 L11.00 76.00 C6.03 76.00 2.00 71.97 2.00 67.00 ZM2.00 39.00" fill="none" stroke="#000000" stroke-opacity="1.00" stroke-width="1.50" />
				<svg height="64.00" width="146.00" x="7.00" y="7.00">
					<svg height="64.00" width="112.00" x="34.00" y="0.00">
						<svg height="64.00" width="112.00" x="0.00" y="0.00">
							<text dominant-baseline="middle" fill="#000000" fill-opacity="1.00" font-family="Verdana" font-size="14.00" font-weight="normal" text-anchor="middle" x="56.00" y="10.67">Provide her</text>
							<text dominant-baseline="middle" fill="#000000" fill-opacity="1.00" font-family="Verdana" font-size="14.00" font-weight="normal" text-anchor="middle" x="56.00" y="32.00">requirements &amp;</text>
							<text dominant-baseline="middle" fill="#000000" fill-opacity="1.00" font-family="Verdana" font-size="14.00" font-weight="normal" text-anchor="middle" x="56.00" y="53.33">wishes for a car</text>
						</svg>
					</svg>
					<svg height="64.00" width="30.00" x="0.00" y="0.00">
						<svg x="0.00" y="-17.00">
							<path d="M28.08 52.74C26.66 51.31 24.75 50.67 22.90 50.83 C21.91 50.90 20.95 50.54 20.25 49.85 L14.15 43.75 C13.46 43.05 13.10 42.09 13.17 41.10 C13.32 39.25 12.69 37.35 11.26 35.92 C9.98 34.64 8.30 34.00 6.61 34.00 C5.98 34.00 5.34 34.09 4.72 34.27 L8.69 38.24 C9.12 40.23 6.25 43.12 4.24 42.69 L0.28 38.73 C0.09 39.34 0.00 39.98 0.00 40.61 C0.00 42.30 0.64 43.98 1.93 45.26 C3.34 46.69 5.25 47.33 7.10 47.17 C8.09 47.10 9.05 47.46 9.75 48.16 L15.85 54.25 C16.54 54.95 16.90 55.91 16.83 56.90 C16.68 58.75 17.31 60.66 18.74 62.08 C20.02 63.36 21.70 64.00 23.39 64.00 C24.02 64.00 24.66 63.91 25.27 63.73 L21.31 59.76 C20.86 57.76 23.77 54.88 25.76 55.31 L29.73 59.27 C29.91 58.66 30.00 58.02 30.00 57.39 C30.00 55.70 29.36 54.02 28.08 52.74 ZM28.08 52.74" fill="#28c2cc" fill-opacity="1.00" />
						</svg>
						<svg height="30.00" width="30.00" x="0.00" y="17.00" />
					</svg>
				</svg>
			</svg>
		</svg>
	</svg>
	<svg height="100.00" id="node16" width="200.00" x="190.00" y="336.00">
		<svg height="57.00" width="159.00" x="20.50" y="21.50">
			<path d="M2.00 28.50L2.00 11.00 C2.00 6.03 6.03 2.00 11.00 2.00 L148.00 2.00 C152.97 2.00 157.00 6.03 157.00 11.00 L157.00 46.00 C157.00 50.97 152.97 55.00 148.00 55.00 C148.00 55.00 148.00 55.00 148.00 55.00 L11.00 55.00 C6.03 55.00 2.00 50.97 2.00 46.00 ZM2.00 28.50" fill="#ffffff" fill-opacity="1.00" />
			<svg height="57.00" width="159.00" x="0.00" y="0.00">
				<path d="M2.00 28.50L2.00 11.00 C2.00 6.03 6.03 2.00 11.00 2.00 L148.00 2.00 C152.97 2.00 157.00 6.03 157.00 11.00 L157.00 46.00 C157.00 50.97 152.97 55.00 148.00 55.00 C148.00 55.00 148.00 55.00 148.00 55.00 L11.00 55.00 C6.03 55.00 2.00 50.97 2.00 46.00 ZM2.00 28.50" fill="none" stroke="#000000" stroke-opacity="1.00" stroke-width="1.50" />
				<svg height="43.00" width="145.00" x="7.00" y="7.00">
					<svg height="43.00" width="111.00" x="34.00" y="0.00">
						<svg height="43.00" width="111.00" x="0.00" y="0.00">
							<text dominant-baseline="middle" fill="#000000" fill-opacity="1.00" font-family="Verdana" font-size="14.00" font-weight="normal" text-anchor="middle" x="55.50" y="10.75">Car comparison</text>
							<text dominant-baseline="middle" fill="#000000" fill-opacity="1.00" font-family="Verdana" font-size="14.00" font-weight="normal" text-anchor="middle" x="55.50" y="32.25">website</text>
						</svg>
					</svg>
					<svg height="43.00" width="30.00" x="0.00" y="0.00">
						<svg x="0.00" y="-6.50">
							<path d="M15.00 13.00C6.60 13.00 0.00 19.60 0.00 28.00 C0.00 36.40 6.60 43.00 15.00 43.00 C23.40 43.00 30.00 36.40 30.00 28.00 C30.00 19.60 23.40 13.00 15.00 13.00 ZM24.60 35.80C24.30 35.20 23.70 34.60 22.50 34.30 C19.50 33.70 16.80 33.10 18.00 30.70 C21.90 23.20 19.20 19.30 15.00 19.30 C10.80 19.30 7.80 23.50 12.00 30.70 C13.20 33.10 10.50 33.70 7.50 34.30 C6.30 34.60 5.70 35.20 5.40 35.80 C3.60 33.70 2.40 31.00 2.40 28.00 C2.40 21.10 8.10 15.40 15.00 15.40 C21.90 15.40 27.60 21.10 27.60 28.00 C27.60 31.00 26.40 33.70 24.60 35.80 ZM24.60 35.80" fill="#2871cc" fill-opacity="1.00" />
						</svg>
						<svg height="30.00" width="30.00" x="0.00" y="6.00" />
					</svg>
				</svg>
			</svg>
		</svg>
	</svg>
	<svg height="100.00" id="node11" width="200.00" x="603.50" y="222.00">
		<svg height="44.00" width="106.00" x="47.00" y="28.00">
			<path d="M2.00 22.00L2.00 11.00 C2.00 6.03 6.03 2.00 11.00 2.00 L95.00 2.00 C99.97 2.00 104.00 6.03 104.00 11.00 L104.00 33.00 C104.00 37.97 99.97 42.00 95.00 42.00 C95.00 42.00 95.00 42.00 95.00 42.00 L11.00 42.00 C6.03 42.00 2.00 37.97 2.00 33.00 ZM2.00 22.00" fill="#ffffff" fill-opacity="1.00" />
			<svg height="44.00" width="106.00" x="0.00" y="0.00">
				<path d="M2.00 22.00L2.00 11.00 C2.00 6.03 6.03 2.00 11.00 2.00 L95.00 2.00 C99.97 2.00 104.00 6.03 104.00 11.00 L104.00 33.00 C104.00 37.97 99.97 42.00 95.00 42.00 C95.00 42.00 95.00 42.00 95.00 42.00 L11.00 42.00 C6.03 42.00 2.00 37.97 2.00 33.00 ZM2.00 22.00" fill="none" stroke="#000000" stroke-opacity="1.00" stroke-width="1.50" />
				<svg height="30.00" width="92.00" x="7.00" y="7.00">
					<svg height="30.00" width="58.00" x="34.00" y="0.00">
						<svg height="30.00" width="58.00" x="0.00" y="0.00">
							<text dominant-baseline="middle" fill="#000000" fill-opacity="1.00" font-family="Verdana" font-size="14.00" font-weight="normal" text-anchor="middle" x="29.00" y="15.00">Call him</text>
						</svg>
					</svg>
					<svg height="30.00" width="30.00" x="0.00" y="0.00">
						<svg x="0.00" y="-0.00">
							<path d="M15.00 0.00L1.25 7.50 L1.25 22.66 L15.00 30.00 L28.75 22.66 L28.75 7.57 L15.00 0.00 ZM24.89 8.31L15.00 13.57 L5.16 8.21 L14.99 2.85 L24.89 8.31 ZM3.75 10.29L13.75 15.74 L13.75 26.50 L3.75 21.16 L3.75 10.29 ZM16.25 26.50L16.25 15.75 L26.25 10.41 L26.25 21.16 L16.25 26.50 ZM16.25 26.50" fill="#28cc83" fill-opacity="1.00" />
						</svg>
						<svg height="30.00" width="30.00" x="0.00" y="0.00" />
					</svg>
				</svg>
			</svg>
		</svg>
	</svg>
	<svg height="100.00" id="node5" width="200.00" x="190.00" y="114.00">
		<svg height="44.00" width="125.00" x="37.50" y="28.00">
			<path d="M2.00 22.00L2.00 11.00 C2.00 6.03 6.03 2.00 11.00 2.00 L114.00 2.00 C118.97 2.00 123.00 6.03 123.00 11.00 L123.00 33.00 C123.00 37.97 118.97 42.00 114.00 42.00 C114.00 42.00 114.00 42.00 114.00 42.00 L11.00 42.00 C6.03 42.00 2.00 37.97 2.00 33.00 ZM2.00 22.00" fill="#ffffff" fill-opacity="1.00" />
			<svg height="44.00" width="125.00" x="0.00" y="0.00">
				<path d="M2.00 22.00L2.00 11.00 C2.00 6.03 6.03 2.00 11.00 2.00 L114.00 2.00 C118.97 2.00 123.00 6.03 123.00 11.00 L123.00 33.00 C123.00 37.97 118.97 42.00 114.00 42.00 C114.00 42.00 114.00 42.00 114.00 42.00 L11.00 42.00 C6.03 42.00 2.00 37.97 2.00 33.00 ZM2.00 22.00" fill="none" stroke="#000000" stroke-opacity="1.00" stroke-width="1.50" />
				<svg height="30.00" width="111.00" x="7.00" y="7.00">
					<svg height="30.00" width="77.00" x="34.00" y="0.00">
						<svg height="30.00" width="77.00" x="0.00" y="0.00">
							<text dominant-baseline="middle" fill="#000000" fill-opacity="1.00" font-family="Verdana" font-size="14.00" font-weight="normal" text-anchor="middle" x="38.50" y="15.00">My Spouse</text>
						</svg>
					</svg>
					<svg height="30.00" width="30.00" x="0.00" y="0.00">
						<svg x="0.00" y="-0.00">
							<path d="M15.00 0.00C6.60 0.00 0.00 6.60 0.00 15.00 C0.00 23.40 6.60 30.00 15.00 30.00 C23.40 30.00 30.00 23.40 30.00 15.00 C30.00 6.60 23.40 0.00 15.00 0.00 ZM24.60 22.80C24.30 22.20 23.70 21.60 22.50 21.30 C19.50 20.70 16.80 20.10 18.00 17.70 C21.90 10.20 19.20 6.30 15.00 6.30 C10.80 6.30 7.80 10.50 12.00 17.70 C13.20 20.10 10.50 20.70 7.50 21.30 C6.30 21.60 5.70 22.20 5.40 22.80 C3.60 20.70 2.40 18.00 2.40 15.00 C2.40 8.10 8.10 2.40 15.00 2.40 C21.90 2.40 27.60 8.10 27.60 15.00 C27.60 18.00 26.40 20.70 24.60 22.80 ZM24.60 22.80" fill="#2871cc" fill-opacity="1.00" />
						</svg>
						<svg height="30.00" width="30.00" x="0.00" y="0.00" />
					</svg>
				</svg>
			</svg>
		</svg>
	</svg>
	<svg height="100.00" id="node14" width="200.00" x="397.00" y="601.00">
		<svg height="44.00" width="167.00" x="16.50" y="28.00">
			<path d="M2.00 22.00L2.00 11.00 C2.00 6.03 6.03 2.00 11.00 2.00 L156.00 2.00 C160.97 2.00 165.00 6.03 165.00 11.00 L165.00 33.00 C165.00 37.97 160.97 42.00 156.00 42.00 L11.00 42.00 C6.03 42.00 2.00 37.97 2.00 33.00 ZM2.00 22.00" fill="#ffffff" fill-opacity="1.00" />
			<svg height="44.00" width="167.00" x="0.00" y="0.00">
				<path d="M2.00 22.00L2.00 11.00 C2.00 6.03 6.03 2.00 11.00 2.00 L156.00 2.00 C160.97 2.00 165.00 6.03 165.00 11.00 L165.00 33.00 C165.00 37.97 160.97 42.00 156.00 42.00 L11.00 42.00 C6.03 42.00 2.00 37.97 2.00 33.00 ZM2.00 22.00" fill="none" stroke="#000000" stroke-opacity="1.00" stroke-width="1.50" />
				<svg height="30.00" width="153.00" x="7.00" y="7.00">
					<svg height="30.00" width="119.00" x="34.00" y="0.00">
						<svg height="30.00" width="119.00" x="0.00" y="0.00">
							<text dominant-baseline="middle" fill="#000000" fill-opacity="1.00" font-family="Verdana" font-size="14.00" font-weight="normal" text-anchor="middle" x="59.50" y="15.00">Provide Discount</text>
						</svg>
					</svg>
					<svg height="30.00" width="30.00" x="0.00" y="0.00">
						<svg x="0.00" y="-0.00">
							<path d="M28.08 18.74C26.66 17.31 24.75 16.68 22.90 16.83 C21.91 16.90 20.95 16.54 20.25 15.85 L14.15 9.75 C13.46 9.05 13.10 8.09 13.17 7.10 C13.32 5.25 12.69 3.35 11.26 1.92 C9.98 0.64 8.30 0.00 6.61 0.00 C5.98 0.00 5.34 0.09 4.72 0.27 L8.69 4.24 C9.12 6.23 6.25 9.12 4.24 8.69 L0.28 4.73 C0.09 5.34 0.00 5.98 0.00 6.61 C0.00 8.30 0.64 9.98 1.93 11.26 C3.34 12.69 5.25 13.32 7.10 13.17 C8.09 13.10 9.05 13.46 9.75 14.16 L15.85 20.25 C16.54 20.95 16.90 21.91 16.83 22.90 C16.68 24.75 17.31 26.66 18.74 28.07 C20.02 29.36 21.70 30.00 23.39 30.00 C24.02 30.00 24.66 29.91 25.27 29.73 L21.31 25.76 C20.86 23.76 23.77 20.88 25.76 21.31 L29.73 25.27 C29.91 24.66 30.00 24.02 30.00 23.39 C30.00 21.70 29.36 20.02 28.08 18.74 ZM28.08 18.74" fill="#28c2cc" fill-opacity="1.00" />
						</svg>
						<svg height="30.00" width="30.00" x="0.00" y="0.00" />
					</svg>
				</svg>
			</svg>
		</svg>
	</svg>
	<svg height="100.00" id="node18" width="200.00" x="603.50" y="336.00">
		<svg height="57.00" width="145.00" x="27.50" y="21.50">
			<path d="M2.00 28.50L2.00 11.00 C2.00 6.03 6.03 2.00 11.00 2.00 L134.00 2.00 C138.97 2.00 143.00 6.03 143.00 11.00 L143.00 46.00 C143.00 50.97 138.97 55.00 134.00 55.00 C134.00 55.00 134.00 55.00 134.00 55.00 L11.00 55.00 C6.03 55.00 2.00 50.97 2.00 46.00 ZM2.00 28.50" fill="#ffffff" fill-opacity="1.00" />
			<svg height="57.00" width="145.00" x="0.00" y="0.00">
				<path d="M2.00 28.50L2.00 11.00 C2.00 6.03 6.03 2.00 11.00 2.00 L134.00 2.00 C138.97 2.00 143.00 6.03 143.00 11.00 L143.00 46.00 C143.00 50.97 138.97 55.00 134.00 55.00 C134.00 55.00 134.00 55.00 134.00 55.00 L11.00 55.00 C6.03 55.00 2.00 50.97 2.00 46.00 ZM2.00 28.50" fill="none" stroke="#000000" stroke-opacity="1.00" stroke-width="1.50" />
				<svg height="43.00" width="131.00" x="7.00" y="7.00">
					<svg height="43.00" width="97.00" x="34.00" y="0.00">
						<svg height="43.00" width="97.00" x="0.00" y="0.00">
							<text dominant-baseline="middle" fill="#000000" fill-opacity="1.00" font-family="Verdana" font-size="14.00" font-weight="normal" text-anchor="middle" x="48.50" y="10.75">Review repair</text>
							<text dominant-baseline="middle" fill="#000000" fill-opacity="1.00" font-family="Verdana" font-size="14.00" font-weight="normal" text-anchor="middle" x="48.50" y="32.25">statistics</text>
						</svg>
					</svg>
					<svg height="43.00" width="30.00" x="0.00" y="0.00">
						<svg x="0.00" y="-6.50">
							<path d="M15.00 13.00L1.25 20.50 L1.25 35.66 L15.00 43.00 L28.75 35.66 L28.75 20.57 L15.00 13.00 ZM24.89 21.31L15.00 26.57 L5.16 21.21 L14.99 15.85 L24.89 21.31 ZM3.75 23.29L13.75 28.74 L13.75 39.50 L3.75 34.16 L3.75 23.29 ZM16.25 39.50L16.25 28.75 L26.25 23.41 L26.25 34.16 L16.25 39.50 ZM16.25 39.50" fill="#28cc83" fill-opacity="1.00" />
						</svg>
						<svg height="30.00" width="30.00" x="0.00" y="6.00" />
					</svg>
				</svg>
			</svg>
		</svg>
	</svg>
	<svg height="100.00" id="node7" width="200.00" x="397.00" y="114.00">
		<svg height="44.00" width="187.00" x="6.50" y="28.00">
			<path d="M2.00 22.00L2.00 11.00 C2.00 6.03 6.03 2.00 11.00 2.00 L176.00 2.00 C180.97 2.00 185.00 6.03 185.00 11.00 L185.00 33.00 C185.00 37.97 180.97 42.00 176.00 42.00 C176.00 42.00 176.00 42.00 176.00 42.00 L11.00 42.00 C6.03 42.00 2.00 37.97 2.00 33.00 ZM2.00 22.00" fill="#ffffff" fill-opacity="1.00" />
			<svg height="44.00" width="187.00" x="0.00" y="0.00">
				<path d="M2.00 22.00L2.00 11.00 C2.00 6.03 6.03 2.00 11.00 2.00 L176.00 2.00 C180.97 2.00 185.00 6.03 185.00 11.00 L185.00 33.00 C185.00 37.97 180.97 42.00 176.00 42.00 C176.00 42.00 176.00 42.00 176.00 42.00 L11.00 42.00 C6.03 42.00 2.00 37.97 2.00 33.00 ZM2.00 22.00" fill="none" stroke="#000000" stroke-opacity="1.00" stroke-width="1.50" />
				<svg height="30.00" width="173.00" x="7.00" y="7.00">
					<svg height="30.00" width="139.00" x="34.00" y="0.00">
						<svg height="30.00" width="139.00" x="0.00" y="0.00">
							<text dominant-baseline="middle" fill="#000000" fill-opacity="1.00" font-family="Verdana" font-size="14.00" font-weight="normal" text-anchor="middle" x="69.50" y="15.00">Help selecting a car</text>
						</svg>
					</svg>
					<svg height="30.00" width="30.00" x="0.00" y="0.00">
						<svg x="0.00" y="-0.00">
							<path d="M28.08 18.74C26.66 17.31 24.75 16.68 22.90 16.83 C21.91 16.90 20.95 16.54 20.25 15.85 L14.15 9.75 C13.46 9.05 13.10 8.09 13.17 7.10 C13.32 5.25 12.69 3.35 11.26 1.92 C9.98 0.64 8.30 0.00 6.61 0.00 C5.98 0.00 5.34 0.09 4.72 0.27 L8.69 4.24 C9.12 6.23 6.25 9.12 4.24 8.69 L0.28 4.73 C0.09 5.34 0.00 5.98 0.00 6.61 C0.00 8.30 0.64 9.98 1.93 11.26 C3.34 12.69 5.25 13.32 7.10 13.17 C8.09 13.10 9.05 13.46 9.75 14.16 L15.85 20.25 C16.54 20.95 16.90 21.91 16.83 22.90 C16.68 24.75 17.31 26.66 18.74 28.07 C20.02 29.36 21.70 30.00 23.39 30.00 C24.02 30.00 24.66 29.91 25.27 29.73 L21.31 25.76 C20.86 23.76 23.77 20.88 25.76 21.31 L29.73 25.27 C29.91 24.66 30.00 24.02 30.00 23.39 C30.00 21.70 29.36 20.02 28.08 18.74 ZM28.08 18.74" fill="#28c2cc" fill-opacity="1.00" />
						</svg>
						<svg height="30.00" width="30.00" x="0.00" y="0.00" />
					</svg>
				</svg>
			</svg>
		</svg>
	</svg>
	<svg height="100.00" id="node17" width="200.00" x="397.00" y="336.00">
		<svg height="57.00" width="149.00" x="25.50" y="21.50">
			<path d="M2.00 28.50L2.00 11.00 C2.00 6.03 6.03 2.00 11.00 2.00 L138.00 2.00 C142.97 2.00 147.00 6.03 147.00 11.00 L147.00 46.00 C147.00 50.97 142.97 55.00 138.00 55.00 C138.00 55.00 138.00 55.00 138.00 55.00 L11.00 55.00 C6.03 55.00 2.00 50.97 2.00 46.00 ZM2.00 28.50" fill="#ffffff" fill-opacity="1.00" />
			<svg height="57.00" width="149.00" x="0.00" y="0.00">
				<path d="M2.00 28.50L2.00 11.00 C2.00 6.03 6.03 2.00 11.00 2.00 L138.00 2.00 C142.97 2.00 147.00 6.03 147.00 11.00 L147.00 46.00 C147.00 50.97 142.97 55.00 138.00 55.00 C138.00 55.00 138.00 55.00 138.00 55.00 L11.00 55.00 C6.03 55.00 2.00 50.97 2.00 46.00 ZM2.00 28.50" fill="none" stroke="#000000" stroke-opacity="1.00" stroke-width="1.50" />
				<svg height="43.00" width="135.00" x="7.00" y="7.00">
					<svg height="43.00" width="101.00" x="34.00" y="0.00">
						<svg height="43.00" width="101.00" x="0.00" y="0.00">
							<text dominant-baseline="middle" fill="#000000" fill-opacity="1.00" font-family="Verdana" font-size="14.00" font-weight="normal" text-anchor="middle" x="50.50" y="10.75">Identify</text>
							<text dominant-baseline="middle" fill="#000000" fill-opacity="1.00" font-family="Verdana" font-size="14.00" font-weight="normal" text-anchor="middle" x="50.50" y="32.25">quality of cars</text>
						</svg>
					</svg>
					<svg height="43.00" width="30.00" x="0.00" y="0.00">
						<svg x="0.00" y="-6.50">
							<path d="M28.08 31.74C26.66 30.31 24.75 29.68 22.90 29.83 C21.91 29.90 20.95 29.54 20.25 28.85 L14.15 22.75 C13.46 22.05 13.10 21.09 13.17 20.10 C13.32 18.25 12.69 16.35 11.26 14.92 C9.98 13.64 8.30 13.00 6.61 13.00 C5.98 13.00 5.34 13.09 4.72 13.27 L8.69 17.24 C9.12 19.23 6.25 22.12 4.24 21.69 L0.28 17.73 C0.09 18.34 0.00 18.98 0.00 19.61 C0.00 21.30 0.64 22.98 1.93 24.26 C3.34 25.69 5.25 26.32 7.10 26.17 C8.09 26.10 9.05 26.46 9.75 27.16 L15.85 33.25 C16.54 33.95 16.90 34.91 16.83 35.90 C16.68 37.75 17.31 39.66 18.74 41.08 C20.02 42.36 21.70 43.00 23.39 43.00 C24.02 43.00 24.66 42.91 25.27 42.73 L21.31 38.76 C20.86 36.76 23.77 33.88 25.76 34.31 L29.73 38.27 C29.91 37.66 30.00 37.02 30.00 36.39 C30.00 34.70 29.36 33.02 28.08 31.74 ZM28.08 31.74" fill="#28c2cc" fill-opacity="1.00" />
						</svg>
						<svg height="30.00" width="30.00" x="0.00" y="6.00" />
					</svg>
				</svg>
			</svg>
		</svg>
	</svg>
	<svg height="8.98" id="edgeLine3" width="64.06" x="570.96" y="559.52">
		<path d="M8.90 4.88C23.49 4.60 38.65 4.30 53.14 4.02 " fill="none" stroke="#000000" stroke-opacity="1.00" stroke-width="1.50" />
		<svg height="8.00" id="edgeHead3" width="10.08" x="53.99" y="0.00">
			<path d="M0.06 3.00L0.06 3.00 L0.00 0.00 L10.08 3.81 L0.16 8.00 L0.10 5.00 L0.10 5.00 ZM0.06 3.00" fill="#000000" fill-opacity="1.00" />
		</svg>
		<svg height="8.00" id="edgeTail3" width="8.00" x="0.00" y="0.98">
			<path d="M6.83 6.83C8.39 5.27 8.39 2.73 6.83 1.17 C5.27 -0.39 2.73 -0.39 1.17 1.17 C-0.39 2.73 -0.39 5.27 1.17 6.83 C2.73 8.39 5.27 8.39 6.83 6.83 " fill="#000000" fill-opacity="1.00" />
		</svg>
	</svg>
	<svg height="8.00" id="edgeLine16" width="56.16" x="367.92" y="382.00">
		<path d="M8.70 4.00C20.79 4.00 33.20 4.00 45.23 4.00 " fill="none" stroke="#000000" stroke-opacity="1.00" stroke-width="1.50" />
		<svg height="8.00" id="edgeHead16" width="10.00" x="46.16" y="0.00">
			<path d="M0.00 3.00L0.00 3.00 L0.00 0.00 L10.00 4.00 L0.00 8.00 L0.00 5.00 L0.00 5.00 ZM0.00 3.00" fill="#000000" fill-opacity="1.00" />
		</svg>
		<svg height="8.00" id="edgeTail16" width="8.00" x="0.00" y="0.00">
			<path d="M6.83 6.83C8.39 5.27 8.39 2.73 6.83 1.17 C5.27 -0.39 2.73 -0.39 1.17 1.17 C-0.39 2.73 -0.39 5.27 1.17 6.83 C2.73 8.39 5.27 8.39 6.83 6.83 " fill="#000000" fill-opacity="1.00" />
		</svg>
	</svg>
	<svg height="8.00" id="edgeLine20" width="40.38" x="590.38" y="475.00">
		<path d="M8.91 4.00C15.89 4.00 22.87 4.00 29.73 4.00 " fill="none" stroke="#000000" stroke-opacity="1.00" stroke-width="1.50" />
		<svg height="8.00" id="edgeHead20" width="10.00" x="30.38" y="0.00">
			<path d="M0.00 3.00L0.00 3.00 L0.00 0.00 L10.00 4.00 L0.00 8.00 L0.00 5.00 L0.00 5.00 ZM0.00 3.00" fill="#000000" fill-opacity="1.00" />
		</svg>
		<svg height="8.00" id="edgeTail20" width="8.00" x="0.00" y="0.00">
			<path d="M6.83 6.83C8.39 5.27 8.39 2.73 6.83 1.17 C5.27 -0.39 2.73 -0.39 1.17 1.17 C-0.39 2.73 -0.39 5.27 1.17 6.83 C2.73 8.39 5.27 8.39 6.83 6.83 " fill="#000000" fill-opacity="1.00" />
		</svg>
	</svg>
	<svg height="8.00" id="edgeLine15" width="35.60" x="176.46" y="382.00">
		<path d="M8.88 4.00C14.18 4.00 19.51 4.00 24.80 4.00 " fill="none" stroke="#000000" stroke-opacity="1.00" stroke-width="1.50" />
		<svg height="8.00" id="edgeHead15" width="10.00" x="25.60" y="0.00">
			<path d="M0.00 3.00L0.00 3.00 L0.00 0.00 L10.00 4.00 L0.00 8.00 L0.00 5.00 L0.00 5.00 ZM0.00 3.00" fill="#000000" fill-opacity="1.00" />
		</svg>
		<svg height="8.00" id="edgeTail15" width="8.00" x="0.00" y="0.00">
			<path d="M6.83 6.83C8.39 5.27 8.39 2.73 6.83 1.17 C5.27 -0.39 2.73 -0.39 1.17 1.17 C-0.39 2.73 -0.39 5.27 1.17 6.83 C2.73 8.39 5.27 8.39 6.83 6.83 " fill="#000000" fill-opacity="1.00" />
		</svg>
	</svg>
	<svg height="40.19" id="edgeLine13" width="91.27" x="355.56" y="590.43">
		<path d="M8.35 5.81C32.30 15.74 58.61 26.65 81.41 36.10 " fill="none" stroke="#000000" stroke-opacity="1.00" stroke-width="1.50" />
		<svg height="7.53" id="edgeHead13" width="10.77" x="80.50" y="32.66">
			<path d="M1.92 2.78L1.92 2.78 L3.06 0.00 L10.77 7.53 L0.00 7.39 L1.15 4.62 L1.15 4.62 ZM1.92 2.78" fill="#000000" fill-opacity="1.00" />
		</svg>
		<svg height="8.00" id="edgeTail13" width="8.00" x="0.00" y="0.00">
			<path d="M6.83 6.83C8.39 5.27 8.39 2.73 6.83 1.17 C5.27 -0.39 2.73 -0.39 1.17 1.17 C-0.39 2.73 -0.39 5.27 1.17 6.83 C2.73 8.39 5.27 8.39 6.83 6.83 " fill="#000000" fill-opacity="1.00" />
		</svg>
	</svg>
	<svg height="8.00" id="edgeLine6" width="54.36" x="350.85" y="160.00">
		<path d="M8.93 4.00C20.09 4.00 31.85 4.00 43.60 4.00 " fill="none" stroke="#000000" stroke-opacity="1.00" stroke-width="1.50" />
		<svg height="8.00" id="edgeHead6" width="10.00" x="44.36" y="0.00">
			<path d="M0.00 3.00L0.00 3.00 L0.00 0.00 L10.00 4.00 L0.00 8.00 L0.00 5.00 L0.00 5.00 ZM0.00 3.00" fill="#000000" fill-opacity="1.00" />
		</svg>
		<svg height="8.00" id="edgeTail6" width="8.00" x="0.00" y="0.00">
			<path d="M6.83 6.83C8.39 5.27 8.39 2.73 6.83 1.17 C5.27 -0.39 2.73 -0.39 1.17 1.17 C-0.39 2.73 -0.39 5.27 1.17 6.83 C2.73 8.39 5.27 8.39 6.83 6.83 " fill="#000000" fill-opacity="1.00" />
		</svg>
	</svg>
	<svg height="45.26" id="edgeLine8" width="82.64" x="167.45" y="305.42">
		<path d="M8.35 38.98C30.28 27.47 53.43 15.33 73.03 5.04 " fill="none" stroke="#000000" stroke-opacity="1.00" stroke-width="1.50" />
		<svg height="8.19" id="edgeHead8" width="10.71" x="71.93" y="-0.00">
			<path d="M1.39 3.76L1.39 3.76 L0.00 1.11 L10.71 0.00 L3.72 8.19 L2.32 5.53 L2.32 5.53 ZM1.39 3.76" fill="#000000" fill-opacity="1.00" />
		</svg>
		<svg height="8.00" id="edgeTail8" width="8.00" x="0.00" y="37.26">
			<path d="M6.83 6.83C8.39 5.27 8.39 2.73 6.83 1.17 C5.27 -0.39 2.73 -0.39 1.17 1.17 C-0.39 2.73 -0.39 5.27 1.17 6.83 C2.73 8.39 5.27 8.39 6.83 6.83 " fill="#000000" fill-opacity="1.00" />
		</svg>
	</svg>
	<svg height="8.00" id="edgeLine7" width="33.29" x="588.89" y="160.00">
		<path d="M8.87 4.00C13.48 4.00 18.09 4.00 22.67 4.00 " fill="none" stroke="#000000" stroke-opacity="1.00" stroke-width="1.50" />
		<svg height="8.00" id="edgeHead7" width="10.00" x="23.29" y="0.00">
			<path d="M0.00 3.00L0.00 3.00 L0.00 0.00 L10.00 4.00 L0.00 8.00 L0.00 5.00 L0.00 5.00 ZM0.00 3.00" fill="#000000" fill-opacity="1.00" />
		</svg>
		<svg height="8.00" id="edgeTail7" width="8.00" x="0.00" y="0.00">
			<path d="M6.83 6.83C8.39 5.27 8.39 2.73 6.83 1.17 C5.27 -0.39 2.73 -0.39 1.17 1.17 C-0.39 2.73 -0.39 5.27 1.17 6.83 C2.73 8.39 5.27 8.39 6.83 6.83 " fill="#000000" fill-opacity="1.00" />
		</svg>
	</svg>
	<svg height="12.20" id="edgeLine9" width="80.32" x="334.97" y="273.76">
		<path d="M8.77 7.90C27.31 6.72 48.72 5.36 69.52 4.05 " fill="none" stroke="#000000" stroke-opacity="1.00" stroke-width="1.50" />
		<svg height="7.98" id="edgeHead9" width="10.23" x="70.09" y="0.00">
			<path d="M0.19 2.99L0.19 2.99 L0.00 -0.00 L10.23 3.36 L0.51 7.98 L0.32 4.99 L0.32 4.99 ZM0.19 2.99" fill="#000000" fill-opacity="1.00" />
		</svg>
		<svg height="8.00" id="edgeTail9" width="8.00" x="0.00" y="4.20">
			<path d="M6.83 6.83C8.39 5.27 8.39 2.73 6.83 1.17 C5.27 -0.39 2.73 -0.39 1.17 1.17 C-0.39 2.73 -0.39 5.27 1.17 6.83 C2.73 8.39 5.27 8.39 6.83 6.83 " fill="#000000" fill-opacity="1.00" />
		</svg>
	</svg>
	<svg height="8.00" id="edgeLine10" width="73.45" x="578.82" y="268.00">
		<path d="M8.78 4.00C26.96 4.00 45.69 4.00 62.61 4.00 " fill="none" stroke="#000000" stroke-opacity="1.00" stroke-width="1.50" />
		<svg height="8.00" id="edgeHead10" width="10.00" x="63.45" y="0.00">
			<path d="M0.00 3.00L0.00 3.00 L0.00 0.00 L10.00 4.00 L0.00 8.00 L0.00 5.00 L0.00 5.00 ZM0.00 3.00" fill="#000000" fill-opacity="1.00" />
		</svg>
		<svg height="8.00" id="edgeTail10" width="8.00" x="0.00" y="0.00">
			<path d="M6.83 6.83C8.39 5.27 8.39 2.73 6.83 1.17 C5.27 -0.39 2.73 -0.39 1.17 1.17 C-0.39 2.73 -0.39 5.27 1.17 6.83 C2.73 8.39 5.27 8.39 6.83 6.83 " fill="#000000" fill-opacity="1.00" />
		</svg>
	</svg>
	<svg height="34.85" id="edgeLine18" width="69.99" x="176.09" y="421.08">
		<path d="M8.25 5.98C26.02 14.29 44.17 22.78 60.26 30.30 " fill="none" stroke="#000000" stroke-opacity="1.00" stroke-width="1.50" />
		<svg height="7.86" id="edgeHead18" width="10.75" x="59.24" y="26.99">
			<path d="M2.12 2.72L2.12 2.72 L3.39 0.00 L10.75 7.86 L0.00 7.25 L1.27 4.53 L1.27 4.53 ZM2.12 2.72" fill="#000000" fill-opacity="1.00" />
		</svg>
		<svg height="8.00" id="edgeTail18" width="8.00" x="0.00" y="-0.00">
			<path d="M6.83 6.83C8.39 5.27 8.39 2.73 6.83 1.17 C5.27 -0.39 2.73 -0.39 1.17 1.17 C-0.39 2.73 -0.39 5.27 1.17 6.83 C2.73 8.39 5.27 8.39 6.83 6.83 " fill="#000000" fill-opacity="1.00" />
		</svg>
	</svg>
	<svg height="8.00" id="edgeLine12" width="39.48" x="575.31" y="63.00">
		<path d="M8.84 4.00C15.49 4.00 22.24 4.00 28.96 4.00 " fill="none" stroke="#000000" stroke-opacity="1.00" stroke-width="1.50" />
		<svg height="8.00" id="edgeHead12" width="10.00" x="29.48" y="0.00">
			<path d="M0.00 3.00L0.00 3.00 L0.00 0.00 L10.00 4.00 L0.00 8.00 L0.00 5.00 L0.00 5.00 ZM0.00 3.00" fill="#000000" fill-opacity="1.00" />
		</svg>
		<svg height="8.00" id="edgeTail12" width="8.00" x="0.00" y="0.00">
			<path d="M6.83 6.83C8.39 5.27 8.39 2.73 6.83 1.17 C5.27 -0.39 2.73 -0.39 1.17 1.17 C-0.39 2.73 -0.39 5.27 1.17 6.83 C2.73 8.39 5.27 8.39 6.83 6.83 " fill="#000000" fill-opacity="1.00" />
		</svg>
	</svg>
	<svg height="8.00" id="edgeLine2" width="43.83" x="379.43" y="562.00">
		<path d="M8.95 4.00C17.03 4.00 25.14 4.00 33.10 4.00 " fill="none" stroke="#000000" stroke-opacity="1.00" stroke-width="1.50" />
		<svg height="8.00" id="edgeHead2" width="10.00" x="33.83" y="0.00">
			<path d="M0.00 3.00L0.00 3.00 L0.00 0.00 L10.00 4.00 L0.00 8.00 L0.00 5.00 L0.00 5.00 ZM0.00 3.00" fill="#000000" fill-opacity="1.00" />
		</svg>
		<svg height="8.00" id="edgeTail2" width="8.00" x="0.00" y="0.00">
			<path d="M6.83 6.83C8.39 5.27 8.39 2.73 6.83 1.17 C5.27 -0.39 2.73 -0.39 1.17 1.17 C-0.39 2.73 -0.39 5.27 1.17 6.83 C2.73 8.39 5.27 8.39 6.83 6.83 " fill="#000000" fill-opacity="1.00" />
		</svg>
	</svg>
	<svg height="8.00" id="edgeLine17" width="62.77" x="569.81" y="382.00">
		<path d="M8.69 4.00C22.93 4.00 37.76 4.00 52.01 4.00 " fill="none" stroke="#000000" stroke-opacity="1.00" stroke-width="1.50" />
		<svg height="8.00" id="edgeHead17" width="10.00" x="52.77" y="0.00">
			<path d="M0.00 3.00L0.00 3.00 L0.00 0.00 L10.00 4.00 L0.00 8.00 L0.00 5.00 L0.00 5.00 ZM0.00 3.00" fill="#000000" fill-opacity="1.00" />
		</svg>
		<svg height="8.00" id="edgeTail17" width="8.00" x="0.00" y="0.00">
			<path d="M6.83 6.83C8.39 5.27 8.39 2.73 6.83 1.17 C5.27 -0.39 2.73 -0.39 1.17 1.17 C-0.39 2.73 -0.39 5.27 1.17 6.83 C2.73 8.39 5.27 8.39 6.83 6.83 " fill="#000000" fill-opacity="1.00" />
		</svg>
	</svg>
	<svg height="165.13" id="edgeLine4" width="145.09" x="119.60" y="184.18">
		<path d="M6.62 157.34C26.51 128.73 53.98 91.32 81.40 60.82 C98.58 41.72 119.71 22.15 136.96 7.04 " fill="none" stroke="#000000" stroke-opacity="1.00" stroke-width="1.50" />
		<svg height="9.57" id="edgeHead4" width="10.18" x="134.91" y="0.00">
			<path d="M1.96 5.79L1.96 5.79 L0.00 3.52 L10.18 -0.00 L5.24 9.57 L3.27 7.30 L3.27 7.30 ZM1.96 5.79" fill="#000000" fill-opacity="1.00" />
		</svg>
		<svg height="8.00" id="edgeTail4" width="8.00" x="-0.00" y="157.13">
			<path d="M6.83 6.83C8.39 5.27 8.39 2.73 6.83 1.17 C5.27 -0.39 2.73 -0.39 1.17 1.17 C-0.39 2.73 -0.39 5.27 1.17 6.83 C2.73 8.39 5.27 8.39 6.83 6.83 " fill="#000000" fill-opacity="1.00" />
		</svg>
	</svg>
	<svg height="8.81" id="edgeLine19" width="69.71" x="333.97" y="472.69">
		<path d="M8.84 4.07C24.17 4.29 41.52 4.54 58.90 4.80 " fill="none" stroke="#000000" stroke-opacity="1.00" stroke-width="1.50" />
		<svg height="8.00" id="edgeHead19" width="10.06" x="59.65" y="0.81">
			<path d="M0.07 3.00L0.07 3.00 L0.12 0.00 L10.06 4.15 L0.00 8.00 L0.04 5.00 L0.04 5.00 ZM0.07 3.00" fill="#000000" fill-opacity="1.00" />
		</svg>
		<svg height="8.00" id="edgeTail19" width="8.00" x="0.00" y="-0.00">
			<path d="M6.83 6.83C8.39 5.27 8.39 2.73 6.83 1.17 C5.27 -0.39 2.73 -0.39 1.17 1.17 C-0.39 2.73 -0.39 5.27 1.17 6.83 C2.73 8.39 5.27 8.39 6.83 6.83 " fill="#000000" fill-opacity="1.00" />
		</svg>
	</svg>
	<svg height="42.38" id="edgeLine11" width="85.12" x="333.59" y="103.57">
		<path d="M8.37 36.31C28.64 26.72 52.55 15.41 75.40 4.59 " fill="none" stroke="#000000" stroke-opacity="1.00" stroke-width="1.50" />
		<svg height="7.89" id="edgeHead11" width="10.75" x="74.37" y="-0.00">
			<path d="M1.28 3.37L1.28 3.37 L0.00 0.66 L10.75 -0.00 L3.42 7.89 L2.14 5.18 L2.14 5.18 ZM1.28 3.37" fill="#000000" fill-opacity="1.00" />
		</svg>
		<svg height="8.00" id="edgeTail11" width="8.00" x="0.00" y="34.38">
			<path d="M6.83 6.83C8.39 5.27 8.39 2.73 6.83 1.17 C5.27 -0.39 2.73 -0.39 1.17 1.17 C-0.39 2.73 -0.39 5.27 1.17 6.83 C2.73 8.39 5.27 8.39 6.83 6.83 " fill="#000000" fill-opacity="1.00" />
		</svg>
	</svg>
	<svg height="9.20" id="edgeLine14" width="44.78" x="578.82" y="650.32">
		<path d="M8.70 4.18C17.05 4.51 25.52 4.84 33.88 5.17 " fill="none" stroke="#000000" stroke-opacity="1.00" stroke-width="1.50" />
		<svg height="7.99" id="edgeHead14" width="10.15" x="34.63" y="1.21">
			<path d="M0.20 2.99L0.20 2.99 L0.31 -0.00 L10.15 4.38 L0.00 7.99 L0.12 4.99 L0.12 4.99 ZM0.20 2.99" fill="#000000" fill-opacity="1.00" />
		</svg>
		<svg height="8.00" id="edgeTail14" width="8.00" x="0.00" y="-0.00">
			<path d="M6.83 6.83C8.39 5.27 8.39 2.73 6.83 1.17 C5.27 -0.39 2.73 -0.39 1.17 1.17 C-0.39 2.73 -0.39 5.27 1.17 6.83 C2.73 8.39 5.27 8.39 6.83 6.83 " fill="#000000" fill-opacity="1.00" />
		</svg>
	</svg>
	<svg height="116.54" id="edgeLine1" width="115.21" x="119.07" y="422.63">
		<path d="M6.66 7.77C25.87 34.71 52.78 68.56 81.93 93.37 C89.30 99.64 97.57 105.53 106.01 110.91 " fill="none" stroke="#000000" stroke-opacity="1.00" stroke-width="1.50" />
		<svg height="8.63" id="edgeHead1" width="10.62" x="104.59" y="107.91">
			<path d="M2.61 2.56L2.61 2.56 L4.18 -0.00 L10.62 8.63 L0.00 6.82 L1.57 4.26 L1.57 4.26 ZM2.61 2.56" fill="#000000" fill-opacity="1.00" />
		</svg>
		<svg height="8.00" id="edgeTail1" width="8.00" x="0.00" y="-0.00">
			<path d="M6.83 6.83C8.39 5.27 8.39 2.73 6.83 1.17 C5.27 -0.39 2.73 -0.39 1.17 1.17 C-0.39 2.73 -0.39 5.27 1.17 6.83 C2.73 8.39 5.27 8.39 6.83 6.83 " fill="#000000" fill-opacity="1.00" />
		</svg>
	</svg>
</svg>