<?xml version="1.0" encoding="UTF-8"?>
<svg width="939.2" height="1068.6499999999999" viewBox="-50.17000000000001 -49.849999999999945 939.2 1068.6499999999999" xmlns="http://www.w3.org/2000/svg"><defs>
  <symbol id="icon-and" viewBox="0 0 24.0 24.0">
  <path d="M24 12C24 18.63 18.63 24 12 24C9.32 24 6.85 23.12 4.85 21.64C1.91 19.45 0 15.95 0 12C0 5.37 5.37 0 12 0C18.63 0 24 5.37 24 12ZM4.93 9.95L4.93 9.95Q4.98 10.13 5.06 10.39Q5.29 11.11 5.71 12.47L4.05 12.47Q4.08 12.38 4.13 12.21Q4.19 12.04 4.33 11.58L4.57 10.83Q4.65 10.58 4.77 10.21Q4.82 10.04 4.85 9.95L4.93 9.95ZM14.53 8.66L13.26 8.66L13.26 12.7L13.18 12.7L10.27 8.66L9.16 8.66L9.16 15L10.43 15L10.43 10.94L10.51 10.94L13.43 15L14.53 15L14.53 8.66ZM19.87 10.29Q20.19 10.65 20.35 11.81Q20.35 12.49 19.88 13.37Q19.56 13.73 18.52 13.91L17.57 13.91Q17.57 13.81 17.57 13.6Q17.57 13.4 17.57 12.83Q17.57 12.52 17.57 11.83Q17.57 11.48 17.57 10.83Q17.57 10.51 17.57 10.05Q17.57 9.85 17.57 9.75L18.52 9.75Q19.1 9.75 19.87 10.29Q19.55 9.93 19.87 10.29ZM18.73 8.65L16.24 8.65L16.24 15L18.73 15Q19.68 15 20.93 14.17Q21.45 13.61 21.71 11.79Q21.71 10.79 20.93 9.47Q20.41 8.93 18.73 8.65ZM5.71 8.66L4.14 8.66L1.95 15L3.28 15L3.77 13.46L5.99 13.46Q6.02 13.54 6.07 13.69Q6.12 13.85 6.23 14.23Q6.3 14.43 6.4 14.77Q6.45 14.92 6.47 15L7.91 15L5.71 8.66Z"/>
</symbol>
</defs>
<path d="M 352.08 198.53999999999996 C 352.08 185.62, 352.08 169.5, 352.08 156.09000000000003" fill="none" stroke="#000000" stroke-width="1"/><polygon points="348.58,156.21 352.08,146.21 355.58,156.21" fill="#000000" stroke="#000000" stroke-width="1"/><path d="M 439.25 193.39000000000013 C 417.6500000000001 177.56000000000006, 391.59 158.47000000000003, 373.62 145.30000000000007" fill="none" stroke="#000000" stroke-width="1"/><polygon points="371.77,148.28000000000011 365.77,139.54999999999995 375.9,142.64" fill="#000000" stroke="#000000" stroke-width="1"/><path d="M 197.07 407.15000000000003 C 219.42000000000004 388.3900000000001, 250.23 362.53, 270.39 345.6" fill="none" stroke="#000000" stroke-width="1"/><polygon points="268.03,343.02 277.94,339.2700000000001 272.53,348.3800000000001" fill="#000000" stroke="#000000" stroke-width="1"/><path d="M 291.08 407.15000000000003 C 291.08 391.53, 291.08 370.97999999999996, 291.08 354.7700000000001" fill="none" stroke="#000000" stroke-width="1"/><polygon points="287.58,354.8900000000001 291.08,344.8900000000001 294.58,354.8900000000001" fill="#000000" stroke="#000000" stroke-width="1"/><path d="M 168.33 501.66 C 168.44 491.36, 168.58 479.01000000000005, 168.7 467.63000000000005" fill="none" stroke="#000000" stroke-width="1"/><polygon points="165.2,467.71999999999997 168.81,457.76000000000005 172.2,467.80000000000007" fill="#000000" stroke="#000000" stroke-width="1"/><path d="M 166.08 670.09 C 166.08 662.6300000000001, 166.08 654.19, 166.08 646.09" fill="none" stroke="#000000" stroke-width="1" stroke-dasharray="2,2"/><polygon points="162.58,646.12 166.08,636.12 169.58,646.12" fill="#000000" stroke="#000000" stroke-width="1"/><path d="M 622.39 501.66 C 613.16 491.28000000000003, 602.1 478.83000000000004, 591.93 467.37" fill="none" stroke="#000000" stroke-width="1" stroke-dasharray="2,2"/><polygon points="589.4,469.80000000000007 585.38,460.00000000000006 594.64,465.1500000000001" fill="#000000" stroke="#000000" stroke-width="1"/><path d="M 46.08 302.75 C 46.08 289.61, 46.08 272.98999999999995, 46.08 258.3900000000001" fill="none" stroke="#000000" stroke-width="1" stroke-dasharray="2,2"/><polygon points="42.58,258.74 46.08,248.73999999999998 49.58,258.74" fill="#000000" stroke="#000000" stroke-width="1"/><path d="M 187.08 292.71000000000004 C 187.08 281.83000000000004, 187.08 269.74, 187.08 258.7600000000001" fill="none" stroke="#000000" stroke-width="1" stroke-dasharray="2,2"/><polygon points="183.58,258.9100000000001 187.08,248.91000000000008 190.58,258.9100000000001" fill="#000000" stroke="#000000" stroke-width="1"/><path d="M 462.67 407.15000000000003 C 465.2299999999999 394.01, 468.4799999999999 377.3900000000001, 471.33 362.7900000000001" fill="none" stroke="#000000" stroke-width="1" stroke-dasharray="2,2"/><polygon points="467.87,362.25 473.2199999999999,353.11 474.74,363.59000000000003" fill="#000000" stroke="#000000" stroke-width="1"/><path d="M 356.06 585.6300000000001 C 372.06 576.4300000000001, 390.58 565.7800000000001, 407.4099999999999 556.1" fill="none" stroke="#000000" stroke-width="1" stroke-dasharray="2,2"/><polygon points="405.37,553.24 415.78,551.2800000000001 408.86,559.3000000000001" fill="#000000" stroke="#000000" stroke-width="1"/><path d="M 207.76999999999998 104.22000000000003 C 215.10999999999999 95.96000000000005, 223.60999999999999 86.3900000000001, 231.9 77.06000000000006" fill="none" stroke="#000000" stroke-width="1" stroke-dasharray="2,2"/><polygon points="229.15,74.8900000000001 238.41,69.73000000000002 234.38000000000005,79.53999999999996" fill="#000000" stroke="#000000" stroke-width="1"/><path d="M 478.08 302.75 C 478.08 292.65000000000003, 478.08 280.5, 478.08 268.7800000000001" fill="none" stroke="#000000" stroke-width="1" stroke-dasharray="2,2"/><polygon points="474.58,268.83000000000004 478.08,258.83000000000004 481.58,268.83000000000004" fill="#000000" stroke="#000000" stroke-width="1"/><path d="M 82.03 198.30000000000007 C 100.16999999999999 186.42000000000007, 122.38 171.88000000000014, 141.69 159.23999999999998" fill="none" stroke="#000000" stroke-width="1"/><polygon points="139.65,156.39000000000013 149.93,153.84000000000003 143.49,162.25" fill="#000000" stroke="#000000" stroke-width="1"/><path d="M 187.08 198.53999999999996 C 187.08 188.23999999999998, 187.08 175.89000000000013, 187.08 164.51" fill="none" stroke="#000000" stroke-width="1"/><polygon points="183.58,164.64 187.08,154.64 190.58,164.64" fill="#000000" stroke="#000000" stroke-width="1"/><path d="M 166.65 585.8499999999999 C 166.83 578.3900000000001, 167.03 569.9499999999999, 167.23 561.8499999999999" fill="none" stroke="#000000" stroke-width="1" stroke-dasharray="2,2"/><polygon points="163.73,561.7900000000002 167.47,551.88 170.73,561.9599999999999" fill="#000000" stroke="#000000" stroke-width="1"/><path d="M 166.08 754.25 C 166.08 746.22, 166.08 737.89, 166.08 730.12" fill="none" stroke="#000000" stroke-width="1" stroke-dasharray="2,2"/><polygon points="162.58,730.37 166.08,720.37 169.58,730.37" fill="#000000" stroke="#000000" stroke-width="1"/><path d="M 126.34 875.21 C 130.48000000000005 867.1600000000001, 135.0 858.38, 139.47 849.72" fill="none" stroke="#000000" stroke-width="1"/><polygon points="136.26,848.2900000000001 143.95000000000005,841.0 142.49,851.5" fill="#000000" stroke="#000000" stroke-width="1"/><path d="M 205.82000000000005 875.21 C 201.68 867.1600000000001, 197.16 858.38, 192.69 849.72" fill="none" stroke="#000000" stroke-width="1"/><polygon points="189.67,851.5 188.20999999999998,841.0 195.9,848.2900000000001" fill="#000000" stroke="#000000" stroke-width="1"/><path d="M 537.74 401.8400000000001 C 527.3 388.96000000000004, 514.9499999999998 373.71999999999997, 504.2 360.46999999999997" fill="none" stroke="#000000" stroke-width="1"/><polygon points="501.59,362.80000000000007 498.01,352.83000000000004 507.03,358.3900000000001" fill="#000000" stroke="#000000" stroke-width="1"/><path d="M 612.16 407.15000000000003 C 586.69 392.16000000000014, 553.52 372.64000000000004, 526.55 356.7600000000001" fill="none" stroke="#000000" stroke-width="1"/><polygon points="525.06,359.94999999999993 518.22,351.8600000000001 528.61,353.9200000000001" fill="#000000" stroke="#000000" stroke-width="1"/><path d="M 702.52 585.8499999999999 C 693.8399999999998 577.26, 683.88 567.38, 674.61 558.2" fill="none" stroke="#000000" stroke-width="1" stroke-dasharray="2,2"/><polygon points="672.42,560.9599999999999 667.7800000000002,551.4300000000001 677.3399999999998,555.98" fill="#000000" stroke="#000000" stroke-width="1"/><path d="M 683.8299999999998 670.09 C 689.6800000000002 661.9300000000001, 696.37 652.62, 702.6700000000002 643.8399999999999" fill="none" stroke="#000000" stroke-width="1"/><polygon points="699.73,641.9200000000001 708.41,635.8299999999999 705.42,646.0" fill="#000000" stroke="#000000" stroke-width="1"/><path d="M 768.3299999999998 670.09 C 762.48 661.9300000000001, 755.7900000000002 652.62, 749.49 643.8399999999999" fill="none" stroke="#000000" stroke-width="1"/><polygon points="746.74,646.0 743.75,635.8299999999999 752.43,641.9200000000001" fill="#000000" stroke="#000000" stroke-width="1"/><path d="M 458.08 501.66 C 458.08 491.36, 458.08 479.01000000000005, 458.08 467.63000000000005" fill="none" stroke="#000000" stroke-width="1" stroke-dasharray="2,2"/><polygon points="454.58,467.76000000000005 458.08,457.76000000000005 461.58,467.76000000000005" fill="#000000" stroke="#000000" stroke-width="1"/><path d="M 429.44 585.8499999999999 C 433.28 577.9499999999999, 437.6500000000001 568.97, 441.8 560.4399999999999" fill="none" stroke="#000000" stroke-width="1"/><polygon points="438.51,559.19 446.03,551.73 444.81,562.25" fill="#000000" stroke="#000000" stroke-width="1"/><path d="M 491.74 585.8499999999999 C 487.17 577.87, 481.9799999999999 568.7700000000001, 477.05 560.1600000000001" fill="none" stroke="#000000" stroke-width="1"/><polygon points="474.13,562.1 472.21,551.6800000000002 480.21,558.62" fill="#000000" stroke="#000000" stroke-width="1"/><path d="M 567.9499999999998 585.6300000000001 C 550.55 576.3399999999999, 530.4 565.5799999999999, 512.14 555.8299999999999" fill="none" stroke="#000000" stroke-width="1"/><polygon points="510.7199999999999,559.04 503.55,551.24 514.02,552.87" fill="#000000" stroke="#000000" stroke-width="1"/><path d="M 462.21 772.4499999999999 C 471.28 756.1600000000001, 483.28 734.6, 492.28 718.4399999999999" fill="none" stroke="#000000" stroke-width="1"/><polygon points="489.04,717.0600000000001 496.96,710.03 495.1500000000001,720.47" fill="#000000" stroke="#000000" stroke-width="1"/><path d="M 547.1800000000002 772.4499999999999 C 538.3299999999998 756.26, 526.63 734.8499999999999, 517.81 718.72" fill="none" stroke="#000000" stroke-width="1"/><polygon points="514.9399999999998,720.7700000000001 513.21,710.3199999999999 521.08,717.4100000000001" fill="#000000" stroke="#000000" stroke-width="1"/><path d="M 341.9 116.20000000000006 C 333.07 106.38000000000011, 319.7199999999999 91.52999999999997, 306.85 77.21000000000005" fill="none" stroke="#000000" stroke-width="1"/><polygon points="304.46,79.79000000000009 300.38,70.00999999999999 309.67,75.11000000000001" fill="#000000" stroke="#000000" stroke-width="1"/><path d="M 298.81 313.2700000000001 C 307.18 299.21999999999997, 320.86 276.25, 332.27 257.1" fill="none" stroke="#000000" stroke-width="1"/><polygon points="329.25,255.32000000000008 337.38,248.51999999999998 335.26,258.9100000000001" fill="#000000" stroke="#000000" stroke-width="1"/><path d="M 505.08 678.3599999999999 C 505.08 669.2700000000001, 505.08 657.3000000000001, 505.08 645.99" fill="none" stroke="#000000" stroke-width="1"/><polygon points="501.58,646.1 505.08,636.1 508.58,646.1" fill="#000000" stroke="#000000" stroke-width="1"/><g transform="translate(203.57999999999998,0.15000000000005542)"><rect x="0" y="0" width="131" height="68.1" rx="9" fill="#ffffff"/><rect x="0.7500000000000001" y="0.7500000000000001" width="129.5" height="66.6" rx="9" fill="none" stroke="#000000" stroke-width="1.5"/><path d="M 9.75 1.5 L 121.25 1.5 Q 129.5 1.5 129.5 9.75 L 129.5 19.75 L 1.5 19.75 L 1.5 9.75 Q 1.5 1.5 9.75 1.5 Z" fill="#43a047"/><text x="65.5" y="14.1" text-anchor="middle" fill="#ffffff" font-size="11" font-family="Verdana">Defense</text><text x="65.5" y="40.05" text-anchor="middle" fill="#7f7f7f" font-size="14" font-family="Helvetica">Data</text><text x="65.5" y="56.85" text-anchor="middle" fill="#7f7f7f" font-size="14" font-family="Helvetica">Confidentiality</text></g><g transform="translate(282.72999999999996,198.59000000000003)"><rect x="0" y="0" width="138.70000000000002" height="48.5" rx="9" fill="#ffffff"/><rect x="0.7500000000000001" y="0.7500000000000001" width="137.20000000000002" height="47" rx="9" fill="none" stroke="#000000" stroke-width="1.5"/><path d="M 9.75 1.5 L 128.95000000000002 1.5 Q 137.20000000000002 1.5 137.20000000000002 9.75 L 137.20000000000002 19.75 L 1.5 19.75 L 1.5 9.75 Q 1.5 1.5 9.75 1.5 Z" fill="#43a047"/><text x="69.35000000000001" y="14.1" text-anchor="middle" fill="#ffffff" font-size="11" font-family="Verdana">Defense</text><text x="69.35000000000001" y="38.65" text-anchor="middle" fill="#7f7f7f" font-size="14" font-family="Helvetica">Network Security</text></g><g transform="translate(439.53,188.79000000000002)"><rect x="0" y="0" width="77.10000000000001" height="68.1" rx="9" fill="#ffffff"/><rect x="0.7500000000000001" y="0.7500000000000001" width="75.60000000000001" height="66.6" rx="9" fill="none" stroke="#000000" stroke-width="1.5"/><path d="M 9.75 1.5 L 67.35000000000001 1.5 Q 75.60000000000001 1.5 75.60000000000001 9.75 L 75.60000000000001 19.75 L 1.5 19.75 L 1.5 9.75 Q 1.5 1.5 9.75 1.5 Z" fill="#43a047"/><text x="38.550000000000004" y="14.1" text-anchor="middle" fill="#ffffff" font-size="11" font-family="Verdana">Defense</text><text x="38.550000000000004" y="40.05" text-anchor="middle" fill="#7f7f7f" font-size="14" font-family="Helvetica">Physical</text><text x="38.550000000000004" y="56.85" text-anchor="middle" fill="#7f7f7f" font-size="14" font-family="Helvetica">Security</text></g><g transform="translate(107.43,407.39000000000004)"><rect x="0" y="0" width="123.30000000000001" height="48.5" rx="9" fill="#ffffff"/><rect x="0.7500000000000001" y="0.7500000000000001" width="121.80000000000001" height="47" rx="9" fill="none" stroke="#000000" stroke-width="1.5"/><path d="M 9.75 1.5 L 113.55000000000001 1.5 Q 121.80000000000001 1.5 121.80000000000001 9.75 L 121.80000000000001 19.75 L 1.5 19.75 L 1.5 9.75 Q 1.5 1.5 9.75 1.5 Z" fill="#43a047"/><text x="61.650000000000006" y="14.1" text-anchor="middle" fill="#ffffff" font-size="11" font-family="Verdana">Defense</text><text x="61.650000000000006" y="38.65" text-anchor="middle" fill="#7f7f7f" font-size="14" font-family="Helvetica">Access Control</text></g><g transform="translate(248.67999999999998,407.39000000000004)"><rect x="0" y="0" width="84.80000000000001" height="48.5" rx="9" fill="#ffffff"/><rect x="0.7500000000000001" y="0.7500000000000001" width="83.30000000000001" height="47" rx="9" fill="none" stroke="#000000" stroke-width="1.5"/><path d="M 9.75 1.5 L 75.05000000000001 1.5 Q 83.30000000000001 1.5 83.30000000000001 9.75 L 83.30000000000001 19.75 L 1.5 19.75 L 1.5 9.75 Q 1.5 1.5 9.75 1.5 Z" fill="#43a047"/><text x="42.400000000000006" y="14.1" text-anchor="middle" fill="#ffffff" font-size="11" font-family="Verdana">Defense</text><text x="42.400000000000006" y="38.65" text-anchor="middle" fill="#7f7f7f" font-size="14" font-family="Helvetica">Firewalls</text></g><g transform="translate(125.68,501.7099999999999)"><rect x="0" y="0" width="84.80000000000001" height="48.5" rx="9" fill="#ffffff"/><rect x="0.7500000000000001" y="0.7500000000000001" width="83.30000000000001" height="47" rx="9" fill="none" stroke="#000000" stroke-width="1.5"/><path d="M 9.75 1.5 L 75.05000000000001 1.5 Q 83.30000000000001 1.5 83.30000000000001 9.75 L 83.30000000000001 19.75 L 1.5 19.75 L 1.5 9.75 Q 1.5 1.5 9.75 1.5 Z" fill="#43a047"/><text x="42.400000000000006" y="14.1" text-anchor="middle" fill="#ffffff" font-size="11" font-family="Verdana">Defense</text><text x="42.400000000000006" y="38.65" text-anchor="middle" fill="#7f7f7f" font-size="14" font-family="Helvetica">Passwords</text></g><g transform="translate(96.73,670.1899999999999)"><rect x="0" y="0" width="138.70000000000002" height="48.5" rx="9" fill="#ffffff"/><rect x="0.7500000000000001" y="0.7500000000000001" width="137.20000000000002" height="47" rx="9" fill="none" stroke="#000000" stroke-width="1.5"/><path d="M 9.75 1.5 L 128.95000000000002 1.5 Q 137.20000000000002 1.5 137.20000000000002 9.75 L 137.20000000000002 19.75 L 1.5 19.75 L 1.5 9.75 Q 1.5 1.5 9.75 1.5 Z" fill="#43a047"/><text x="69.35000000000001" y="14.1" text-anchor="middle" fill="#ffffff" font-size="11" font-family="Verdana">Defense</text><text x="69.35000000000001" y="38.65" text-anchor="middle" fill="#7f7f7f" font-size="14" font-family="Helvetica">Strong Passwords</text></g><g transform="translate(619.23,501.7099999999999)"><rect x="0" y="0" width="47.70000000000001" height="48.5" rx="9" fill="#ffffff"/><rect x="0.7500000000000001" y="0.7500000000000001" width="46.20000000000001" height="47" rx="9" fill="none" stroke="#000000" stroke-width="1.5"/><path d="M 9.75 1.5 L 37.95000000000001 1.5 Q 46.20000000000001 1.5 46.20000000000001 9.75 L 46.20000000000001 19.75 L 1.5 19.75 L 1.5 9.75 Q 1.5 1.5 9.75 1.5 Z" fill="#43a047"/><text x="23.850000000000005" y="14.1" text-anchor="middle" fill="#ffffff" font-size="11" font-family="Verdana">Defense</text><text x="23.850000000000005" y="38.65" text-anchor="middle" fill="#7f7f7f" font-size="14" font-family="Helvetica">Lock</text></g><g transform="translate(3.6799999999999926,302.99)"><rect x="0" y="0" width="84.80000000000001" height="48.5" rx="9" fill="#ffffff"/><rect x="0.7500000000000001" y="0.7500000000000001" width="83.30000000000001" height="47" rx="9" fill="none" stroke="#000000" stroke-width="1.5"/><path d="M 9.75 1.5 L 75.05000000000001 1.5 Q 83.30000000000001 1.5 83.30000000000001 9.75 L 83.30000000000001 19.75 L 1.5 19.75 L 1.5 9.75 Q 1.5 1.5 9.75 1.5 Z" fill="#43a047"/><text x="42.400000000000006" y="14.1" text-anchor="middle" fill="#ffffff" font-size="11" font-family="Verdana">Defense</text><text x="42.400000000000006" y="38.65" text-anchor="middle" fill="#7f7f7f" font-size="14" font-family="Helvetica">Screening</text></g><g transform="translate(136.98000000000002,293.19)"><rect x="0" y="0" width="100.20000000000002" height="68.1" rx="9" fill="#ffffff"/><rect x="0.7500000000000001" y="0.7500000000000001" width="98.70000000000002" height="66.6" rx="9" fill="none" stroke="#000000" stroke-width="1.5"/><path d="M 9.75 1.5 L 90.45000000000002 1.5 Q 98.70000000000002 1.5 98.70000000000002 9.75 L 98.70000000000002 19.75 L 1.5 19.75 L 1.5 9.75 Q 1.5 1.5 9.75 1.5 Z" fill="#43a047"/><text x="50.10000000000001" y="14.1" text-anchor="middle" fill="#ffffff" font-size="11" font-family="Verdana">Defense</text><text x="50.10000000000001" y="40.05" text-anchor="middle" fill="#7f7f7f" font-size="14" font-family="Helvetica">Sensitivity</text><text x="50.10000000000001" y="56.85" text-anchor="middle" fill="#7f7f7f" font-size="14" font-family="Helvetica">Training</text></g><g transform="translate(396.42999999999995,407.39000000000004)"><rect x="0" y="0" width="123.30000000000001" height="48.5" rx="9" fill="#ffffff"/><rect x="0.7500000000000001" y="0.7500000000000001" width="121.80000000000001" height="47" rx="9" fill="none" stroke="#000000" stroke-width="1.5"/><path d="M 9.75 1.5 L 113.55000000000001 1.5 Q 121.80000000000001 1.5 121.80000000000001 9.75 L 121.80000000000001 19.75 L 1.5 19.75 L 1.5 9.75 Q 1.5 1.5 9.75 1.5 Z" fill="#43a047"/><text x="61.650000000000006" y="14.1" text-anchor="middle" fill="#ffffff" font-size="11" font-family="Verdana">Defense</text><text x="61.650000000000006" y="38.65" text-anchor="middle" fill="#7f7f7f" font-size="14" font-family="Helvetica">Security Guard</text></g><g transform="translate(257.28,585.95)"><rect x="0" y="0" width="115.60000000000001" height="48.5" rx="9" fill="#ffffff"/><rect x="0.7500000000000001" y="0.7500000000000001" width="114.10000000000001" height="47" rx="9" fill="none" stroke="#000000" stroke-width="1.5"/><path d="M 9.75 1.5 L 105.85000000000001 1.5 Q 114.10000000000001 1.5 114.10000000000001 9.75 L 114.10000000000001 19.75 L 1.5 19.75 L 1.5 9.75 Q 1.5 1.5 9.75 1.5 Z" fill="#43a047"/><text x="57.800000000000004" y="14.1" text-anchor="middle" fill="#ffffff" font-size="11" font-family="Verdana">Defense</text><text x="57.800000000000004" y="38.65" text-anchor="middle" fill="#7f7f7f" font-size="14" font-family="Helvetica">Video Cameras</text></g><g transform="translate(121.58000000000001,104.26999999999998)"><rect x="0" y="0" width="131" height="48.5" rx="9" fill="#ffffff"/><rect x="0.7500000000000001" y="0.7500000000000001" width="129.5" height="47" rx="9" fill="none" stroke="#000000" stroke-width="1.5"/><path d="M 9.75 1.5 L 121.25 1.5 Q 129.5 1.5 129.5 9.75 L 129.5 19.75 L 1.5 19.75 L 1.5 9.75 Q 1.5 1.5 9.75 1.5 Z" fill="#e53935"/><text x="65.5" y="14.1" text-anchor="middle" fill="#ffffff" font-size="11" font-family="Verdana">Attack</text><text x="65.5" y="38.65" text-anchor="middle" fill="#7f7f7f" font-size="14" font-family="Helvetica">Employee Attack</text></g><g transform="translate(439.53,302.99)"><rect x="0" y="0" width="77.10000000000001" height="48.5" rx="9" fill="#ffffff"/><rect x="0.7500000000000001" y="0.7500000000000001" width="75.60000000000001" height="47" rx="9" fill="none" stroke="#000000" stroke-width="1.5"/><path d="M 9.75 1.5 L 67.35000000000001 1.5 Q 75.60000000000001 1.5 75.60000000000001 9.75 L 75.60000000000001 19.75 L 1.5 19.75 L 1.5 9.75 Q 1.5 1.5 9.75 1.5 Z" fill="#e53935"/><text x="38.550000000000004" y="14.1" text-anchor="middle" fill="#ffffff" font-size="11" font-family="Verdana">Attack</text><text x="38.550000000000004" y="38.65" text-anchor="middle" fill="#7f7f7f" font-size="14" font-family="Helvetica">Break In</text></g><g transform="translate(-0.1700000000000088,198.59000000000003)"><rect x="0" y="0" width="92.50000000000001" height="48.5" rx="9" fill="#ffffff"/><rect x="0.7500000000000001" y="0.7500000000000001" width="91.00000000000001" height="47" rx="9" fill="none" stroke="#000000" stroke-width="1.5"/><path d="M 9.75 1.5 L 82.75000000000001 1.5 Q 91.00000000000001 1.5 91.00000000000001 9.75 L 91.00000000000001 19.75 L 1.5 19.75 L 1.5 9.75 Q 1.5 1.5 9.75 1.5 Z" fill="#e53935"/><text x="46.25000000000001" y="14.1" text-anchor="middle" fill="#ffffff" font-size="11" font-family="Verdana">Attack</text><text x="46.25000000000001" y="38.65" text-anchor="middle" fill="#7f7f7f" font-size="14" font-family="Helvetica">Corruption</text></g><g transform="translate(110.03,198.59000000000003)"><rect x="0" y="0" width="154.10000000000002" height="48.5" rx="9" fill="#ffffff"/><rect x="0.7500000000000001" y="0.7500000000000001" width="152.60000000000002" height="47" rx="9" fill="none" stroke="#000000" stroke-width="1.5"/><path d="M 9.75 1.5 L 144.35000000000002 1.5 Q 152.60000000000002 1.5 152.60000000000002 9.75 L 152.60000000000002 19.75 L 1.5 19.75 L 1.5 9.75 Q 1.5 1.5 9.75 1.5 Z" fill="#e53935"/><text x="77.05000000000001" y="14.1" text-anchor="middle" fill="#ffffff" font-size="11" font-family="Verdana">Attack</text><text x="77.05000000000001" y="38.65" text-anchor="middle" fill="#7f7f7f" font-size="14" font-family="Helvetica">Social Engineering</text></g><g transform="translate(92.88000000000001,585.95)"><rect x="0" y="0" width="146.4" height="48.5" rx="9" fill="#ffffff"/><rect x="0.7500000000000001" y="0.7500000000000001" width="144.9" height="47" rx="9" fill="none" stroke="#000000" stroke-width="1.5"/><path d="M 9.75 1.5 L 136.65 1.5 Q 144.9 1.5 144.9 9.75 L 144.9 19.75 L 1.5 19.75 L 1.5 9.75 Q 1.5 1.5 9.75 1.5 Z" fill="#e53935"/><text x="73.2" y="14.1" text-anchor="middle" fill="#ffffff" font-size="11" font-family="Verdana">Attack</text><text x="73.2" y="38.65" text-anchor="middle" fill="#7f7f7f" font-size="14" font-family="Helvetica">Dictionary Attack</text></g><g transform="translate(127.53,754.5899999999999)"><rect x="0" y="0" width="77.10000000000001" height="84.9" rx="9" fill="#ffffff"/><rect x="0.7500000000000001" y="0.7500000000000001" width="75.60000000000001" height="83.4" rx="9" fill="none" stroke="#000000" stroke-width="1.5"/><path d="M 9.75 1.5 L 67.35000000000001 1.5 Q 75.60000000000001 1.5 75.60000000000001 9.75 L 75.60000000000001 19.75 L 1.5 19.75 L 1.5 9.75 Q 1.5 1.5 9.75 1.5 Z" fill="#e53935"/><text x="38.550000000000004" y="14.1" text-anchor="middle" fill="#ffffff" font-size="11" font-family="Verdana">Attack</text><text x="38.550000000000004" y="40.050000000000004" text-anchor="middle" fill="#7f7f7f" font-size="14" font-family="Helvetica">Strong</text><text x="38.550000000000004" y="56.85" text-anchor="middle" fill="#7f7f7f" font-size="14" font-family="Helvetica">Password</text><text x="38.550000000000004" y="73.65" text-anchor="middle" fill="#7f7f7f" font-size="14" font-family="Helvetica">Attacks</text></g><g transform="translate(85.92999999999999,875.6700000000001)"><rect x="0" y="0" width="46.300000000000004" height="68.1" rx="9" fill="#ffffff"/><rect x="0.7500000000000001" y="0.7500000000000001" width="44.800000000000004" height="66.6" rx="9" fill="none" stroke="#000000" stroke-width="1.5"/><path d="M 9.75 1.5 L 36.550000000000004 1.5 Q 44.800000000000004 1.5 44.800000000000004 9.75 L 44.800000000000004 19.75 L 1.5 19.75 L 1.5 9.75 Q 1.5 1.5 9.75 1.5 Z" fill="#e53935"/><text x="23.150000000000002" y="14.1" text-anchor="middle" fill="#ffffff" font-size="11" font-family="Verdana">Attack</text><text x="23.150000000000002" y="40.05" text-anchor="middle" fill="#7f7f7f" font-size="14" font-family="Helvetica">Find</text><text x="23.150000000000002" y="56.85" text-anchor="middle" fill="#7f7f7f" font-size="14" font-family="Helvetica">Note</text></g><g transform="translate(149.88,875.6700000000001)"><rect x="0" y="0" width="146.4" height="68.1" rx="9" fill="#ffffff"/><rect x="0.7500000000000001" y="0.7500000000000001" width="144.9" height="66.6" rx="9" fill="none" stroke="#000000" stroke-width="1.5"/><path d="M 9.75 1.5 L 136.65 1.5 Q 144.9 1.5 144.9 9.75 L 144.9 19.75 L 1.5 19.75 L 1.5 9.75 Q 1.5 1.5 9.75 1.5 Z" fill="#e53935"/><text x="73.2" y="14.1" text-anchor="middle" fill="#ffffff" font-size="11" font-family="Verdana">Attack</text><text x="73.2" y="40.05" text-anchor="middle" fill="#7f7f7f" font-size="14" font-family="Helvetica">Same Password</text><text x="73.2" y="56.85" text-anchor="middle" fill="#7f7f7f" font-size="14" font-family="Helvetica">Different Account</text></g><g transform="translate(537.9300000000001,397.59000000000003)"><rect x="0" y="0" width="46.300000000000004" height="68.1" rx="9" fill="#ffffff"/><rect x="0.7500000000000001" y="0.7500000000000001" width="44.800000000000004" height="66.6" rx="9" fill="none" stroke="#000000" stroke-width="1.5"/><path d="M 9.75 1.5 L 36.550000000000004 1.5 Q 44.800000000000004 1.5 44.800000000000004 9.75 L 44.800000000000004 19.75 L 1.5 19.75 L 1.5 9.75 Q 1.5 1.5 9.75 1.5 Z" fill="#e53935"/><text x="23.150000000000002" y="14.1" text-anchor="middle" fill="#ffffff" font-size="11" font-family="Verdana">Attack</text><text x="23.150000000000002" y="40.05" text-anchor="middle" fill="#7f7f7f" font-size="14" font-family="Helvetica">Back</text><text x="23.150000000000002" y="56.85" text-anchor="middle" fill="#7f7f7f" font-size="14" font-family="Helvetica">Door</text></g><g transform="translate(601.98,407.39000000000004)"><rect x="0" y="0" width="100.20000000000002" height="48.5" rx="9" fill="#ffffff"/><rect x="0.7500000000000001" y="0.7500000000000001" width="98.70000000000002" height="47" rx="9" fill="none" stroke="#000000" stroke-width="1.5"/><path d="M 9.75 1.5 L 90.45000000000002 1.5 Q 98.70000000000002 1.5 98.70000000000002 9.75 L 98.70000000000002 19.75 L 1.5 19.75 L 1.5 9.75 Q 1.5 1.5 9.75 1.5 Z" fill="#e53935"/><text x="50.10000000000001" y="14.1" text-anchor="middle" fill="#ffffff" font-size="11" font-family="Verdana">Attack</text><text x="50.10000000000001" y="38.65" text-anchor="middle" fill="#7f7f7f" font-size="14" font-family="Helvetica">Fire Escape</text></g><g transform="translate(675.98,585.95)"><rect x="0" y="0" width="100.20000000000002" height="48.5" rx="9" fill="#ffffff"/><rect x="0.7500000000000001" y="0.7500000000000001" width="98.70000000000002" height="47" rx="9" fill="none" stroke="#000000" stroke-width="1.5"/><path d="M 9.75 1.5 L 90.45000000000002 1.5 Q 98.70000000000002 1.5 98.70000000000002 9.75 L 98.70000000000002 19.75 L 1.5 19.75 L 1.5 9.75 Q 1.5 1.5 9.75 1.5 Z" fill="#e53935"/><text x="50.10000000000001" y="14.1" text-anchor="middle" fill="#ffffff" font-size="11" font-family="Verdana">Attack</text><text x="50.10000000000001" y="38.65" text-anchor="middle" fill="#7f7f7f" font-size="14" font-family="Helvetica">Defeat Lock</text></g><g transform="translate(620.83,670.1899999999999)"><rect x="0" y="0" width="92.50000000000001" height="48.5" rx="9" fill="#ffffff"/><rect x="0.7500000000000001" y="0.7500000000000001" width="91.00000000000001" height="47" rx="9" fill="none" stroke="#000000" stroke-width="1.5"/><path d="M 9.75 1.5 L 82.75000000000001 1.5 Q 91.00000000000001 1.5 91.00000000000001 9.75 L 91.00000000000001 19.75 L 1.5 19.75 L 1.5 9.75 Q 1.5 1.5 9.75 1.5 Z" fill="#e53935"/><text x="46.25000000000001" y="14.1" text-anchor="middle" fill="#ffffff" font-size="11" font-family="Verdana">Attack</text><text x="46.25000000000001" y="38.65" text-anchor="middle" fill="#7f7f7f" font-size="14" font-family="Helvetica">Force Open</text></g><g transform="translate(731.13,670.1899999999999)"><rect x="0" y="0" width="107.9" height="48.5" rx="9" fill="#ffffff"/><rect x="0.7500000000000001" y="0.7500000000000001" width="106.4" height="47" rx="9" fill="none" stroke="#000000" stroke-width="1.5"/><path d="M 9.75 1.5 L 98.15 1.5 Q 106.4 1.5 106.4 9.75 L 106.4 19.75 L 1.5 19.75 L 1.5 9.75 Q 1.5 1.5 9.75 1.5 Z" fill="#e53935"/><text x="53.95" y="14.1" text-anchor="middle" fill="#ffffff" font-size="11" font-family="Verdana">Attack</text><text x="53.95" y="38.65" text-anchor="middle" fill="#7f7f7f" font-size="14" font-family="Helvetica">Acquire Keys</text></g><g transform="translate(404.13,501.7099999999999)"><rect x="0" y="0" width="107.9" height="48.5" rx="9" fill="#ffffff"/><rect x="0.7500000000000001" y="0.7500000000000001" width="106.4" height="47" rx="9" fill="none" stroke="#000000" stroke-width="1.5"/><path d="M 9.75 1.5 L 98.15 1.5 Q 106.4 1.5 106.4 9.75 L 106.4 19.75 L 1.5 19.75 L 1.5 9.75 Q 1.5 1.5 9.75 1.5 Z" fill="#e53935"/><text x="53.95" y="14.1" text-anchor="middle" fill="#ffffff" font-size="11" font-family="Verdana">Attack</text><text x="53.95" y="38.65" text-anchor="middle" fill="#7f7f7f" font-size="14" font-family="Helvetica">Defeat Guard</text></g><g transform="translate(391.08,585.95)"><rect x="0" y="0" width="54.00000000000001" height="48.5" rx="9" fill="#ffffff"/><rect x="0.7500000000000001" y="0.7500000000000001" width="52.50000000000001" height="47" rx="9" fill="none" stroke="#000000" stroke-width="1.5"/><path d="M 9.75 1.5 L 44.25000000000001 1.5 Q 52.50000000000001 1.5 52.50000000000001 9.75 L 52.50000000000001 19.75 L 1.5 19.75 L 1.5 9.75 Q 1.5 1.5 9.75 1.5 Z" fill="#e53935"/><text x="27.000000000000004" y="14.1" text-anchor="middle" fill="#ffffff" font-size="11" font-family="Verdana">Attack</text><text x="27.000000000000004" y="38.65" text-anchor="middle" fill="#7f7f7f" font-size="14" font-family="Helvetica">Bribe</text></g><g transform="translate(462.67999999999995,585.95)"><rect x="0" y="0" width="84.80000000000001" height="48.5" rx="9" fill="#ffffff"/><rect x="0.7500000000000001" y="0.7500000000000001" width="83.30000000000001" height="47" rx="9" fill="none" stroke="#000000" stroke-width="1.5"/><path d="M 9.75 1.5 L 75.05000000000001 1.5 Q 83.30000000000001 1.5 83.30000000000001 9.75 L 83.30000000000001 19.75 L 1.5 19.75 L 1.5 9.75 Q 1.5 1.5 9.75 1.5 Z" fill="#e53935"/><text x="42.400000000000006" y="14.1" text-anchor="middle" fill="#ffffff" font-size="11" font-family="Verdana">Attack</text><text x="42.400000000000006" y="38.65" text-anchor="middle" fill="#7f7f7f" font-size="14" font-family="Helvetica">Overpower</text></g><g transform="translate(565.83,585.95)"><rect x="0" y="0" width="92.50000000000001" height="48.5" rx="9" fill="#ffffff"/><rect x="0.7500000000000001" y="0.7500000000000001" width="91.00000000000001" height="47" rx="9" fill="none" stroke="#000000" stroke-width="1.5"/><path d="M 9.75 1.5 L 82.75000000000001 1.5 Q 91.00000000000001 1.5 91.00000000000001 9.75 L 91.00000000000001 19.75 L 1.5 19.75 L 1.5 9.75 Q 1.5 1.5 9.75 1.5 Z" fill="#e53935"/><text x="46.25000000000001" y="14.1" text-anchor="middle" fill="#ffffff" font-size="11" font-family="Verdana">Attack</text><text x="46.25000000000001" y="38.65" text-anchor="middle" fill="#7f7f7f" font-size="14" font-family="Helvetica">Steal Keys</text></g><g transform="translate(406.67999999999995,772.79)"><rect x="0" y="0" width="84.80000000000001" height="48.5" rx="9" fill="#ffffff"/><rect x="0.7500000000000001" y="0.7500000000000001" width="83.30000000000001" height="47" rx="9" fill="none" stroke="#000000" stroke-width="1.5"/><path d="M 9.75 1.5 L 75.05000000000001 1.5 Q 83.30000000000001 1.5 83.30000000000001 9.75 L 83.30000000000001 19.75 L 1.5 19.75 L 1.5 9.75 Q 1.5 1.5 9.75 1.5 Z" fill="#e53935"/><text x="42.400000000000006" y="14.1" text-anchor="middle" fill="#ffffff" font-size="11" font-family="Verdana">Attack</text><text x="42.400000000000006" y="38.65" text-anchor="middle" fill="#7f7f7f" font-size="14" font-family="Helvetica">Outnumber</text></g><g transform="translate(509.98,772.79)"><rect x="0" y="0" width="100.20000000000002" height="48.5" rx="9" fill="#ffffff"/><rect x="0.7500000000000001" y="0.7500000000000001" width="98.70000000000002" height="47" rx="9" fill="none" stroke="#000000" stroke-width="1.5"/><path d="M 9.75 1.5 L 90.45000000000002 1.5 Q 98.70000000000002 1.5 98.70000000000002 9.75 L 98.70000000000002 19.75 L 1.5 19.75 L 1.5 9.75 Q 1.5 1.5 9.75 1.5 Z" fill="#e53935"/><text x="50.10000000000001" y="14.1" text-anchor="middle" fill="#ffffff" font-size="11" font-family="Verdana">Attack</text><text x="50.10000000000001" y="38.65" text-anchor="middle" fill="#7f7f7f" font-size="14" font-family="Helvetica">Use Weapons</text></g><g transform="translate(336.08,112.51999999999998)"><use href="#icon-and" x="0.0" y="0.0" width="32.0" height="32.0" fill="#000000"/></g><g transform="translate(275.08,311.24)"><use href="#icon-and" x="0.0" y="0.0" width="32.0" height="32.0" fill="#000000"/></g><g transform="translate(489.08,678.4399999999999)"><use href="#icon-and" x="0.0" y="0.0" width="32.0" height="32.0" fill="#000000"/></g><text x="419.54" y="960.52" text-anchor="middle" fill="#000000" font-size="14" font-family="Helvetica">Data Confidentiality, based on https://doi.org/10.1093/logcom/exs029</text></svg>