<svg width="233.92000000000004" height="496.37" viewBox="-41.84000000000003 -49.99000000000001 233.92000000000004 496.37" xmlns="http://www.w3.org/2000/svg"><defs>
  <symbol id="vithanco-watermark" viewBox="0 0 162.12 162.0">
  <path d="M 121.68 34.67 L 94.40 81.89 L 81.07 104.96 L 101.28 139.95 L 114.61 116.88 L 162.12 34.67 Z" fill="#000000" fill-opacity="0.3"/>
  <path d="M 81.07 58.81 L 95.01 34.67 L 121.68 34.67 L 141.72 0 L 115.05 0 L 47.07 0 L 20.40 0 L 40.44 34.67 L 67.11 34.67 Z" fill="#000000" fill-opacity="0.3"/>
  <path d="M 40.44 34.67 L 0 34.67 L 47.51 116.88 L 60.84 139.96 L 81.07 104.96 L 67.73 81.89 Z" fill="#000000" fill-opacity="0.3"/>
  <text x="9.13" y="158.59" font-family="Arial" font-size="18.67" fill="#000000" fill-opacity="0.3">VITHANCO.COM</text>
</symbol>
</defs>
<path d="M 75.11999999999999 38.75 C 75.11999999999999 48.410000000000025, 75.11999999999999 58.81000000000005, 75.11999999999999 65.02000000000004" fill="none" stroke="#000000" stroke-width="1"/><circle cx="75.13" cy="34.39000000000004" r="4" fill="#000000" stroke="#000000" stroke-width="1"/><path d="M 75.11999999999999 152.51000000000002 C 75.11999999999999 162.17000000000002, 75.11999999999999 172.57000000000002, 75.11999999999999 178.78" fill="none" stroke="#000000" stroke-width="1"/><circle cx="75.13" cy="148.15" r="4" fill="#000000" stroke="#000000" stroke-width="1"/><path d="M 75.11999999999999 266.27 C 75.11999999999999 275.92999999999995, 75.11999999999999 286.33000000000004, 75.11999999999999 292.54" fill="none" stroke="#000000" stroke-width="1"/><circle cx="75.13" cy="261.9099999999999" r="4" fill="#000000" stroke="#000000" stroke-width="1"/><path d="M 75.11999999999999 78.10000000000001 C 75.11999999999999 83.75999999999999, 75.11999999999999 93.01000000000006, 75.11999999999999 101.98000000000002" fill="none" stroke="#000000" stroke-width="1"/><polygon points="78.63,101.79000000000002 75.13,111.79000000000002 71.63,101.79000000000002" fill="#000000" stroke="#000000" stroke-width="1"/><path d="M 75.11999999999999 191.86 C 75.11999999999999 197.52, 75.11999999999999 206.76999999999998, 75.11999999999999 215.73999999999998" fill="none" stroke="#000000" stroke-width="1"/><polygon points="78.63,215.55 75.13,225.55 71.63,215.55" fill="#000000" stroke="#000000" stroke-width="1"/><path d="M 75.11999999999999 305.62 C 75.11999999999999 311.28000000000003, 75.11999999999999 320.53000000000003, 75.11999999999999 329.5" fill="none" stroke="#000000" stroke-width="1"/><polygon points="78.63,329.31 75.13,339.31 71.63,329.31" fill="#000000" stroke="#000000" stroke-width="1"/><g transform="translate(36.57499999999998,0.009999999999994458)"><rect x="0" y="0" width="77.10000000000001" height="29.5" rx="9" fill="#7db3ff"/><rect x="0.7500000000000001" y="0.7500000000000001" width="75.60000000000001" height="28" rx="9" fill="none" stroke="#000fa7" stroke-width="1.5"/><text x="38.550000000000004" y="19.65" text-anchor="middle" fill="#000000" font-size="14" font-family="Helvetica">Designer</text></g><g transform="translate(36.57499999999998,113.77000000000004)"><rect x="0" y="0" width="77.10000000000001" height="29.5" rx="9" fill="#7db3ff"/><rect x="0.7500000000000001" y="0.7500000000000001" width="75.60000000000001" height="28" rx="9" fill="none" stroke="#000fa7" stroke-width="1.5"/><text x="38.550000000000004" y="19.65" text-anchor="middle" fill="#000000" font-size="14" font-family="Helvetica">Typeface</text></g><g transform="translate(48.124999999999986,227.53)"><rect x="0" y="0" width="54.00000000000001" height="29.5" rx="9" fill="#7db3ff"/><rect x="0.7500000000000001" y="0.7500000000000001" width="52.50000000000001" height="28" rx="9" fill="none" stroke="#000fa7" stroke-width="1.5"/><text x="27.000000000000004" y="19.65" text-anchor="middle" fill="#000000" font-size="14" font-family="Helvetica">Glyph</text></g><g transform="translate(51.97499999999998,341.29)"><rect x="0" y="0" width="46.300000000000004" height="29.5" rx="9" fill="#7db3ff"/><rect x="0.7500000000000001" y="0.7500000000000001" width="44.800000000000004" height="28" rx="9" fill="none" stroke="#000fa7" stroke-width="1.5"/><text x="23.150000000000002" y="19.65" text-anchor="middle" fill="#000000" font-size="14" font-family="Helvetica">Text</text></g><g transform="translate(52.024999999999984,65.63999999999999)"><rect x="0" y="0" width="46.2" height="12" fill="#ffffff"/><text x="23.1" y="10.2" text-anchor="middle" fill="#000000" font-size="12" font-family="Helvetica">creates</text></g><g transform="translate(52.024999999999984,179.4)"><rect x="0" y="0" width="46.2" height="12" fill="#ffffff"/><text x="23.1" y="10.2" text-anchor="middle" fill="#000000" font-size="12" font-family="Helvetica">defines</text></g><g transform="translate(48.72499999999998,293.16)"><rect x="0" y="0" width="52.800000000000004" height="12" fill="#ffffff"/><text x="26.400000000000002" y="10.2" text-anchor="middle" fill="#000000" font-size="12" font-family="Helvetica">composes</text></g><text x="75.11999999999999" y="388.1" text-anchor="middle" fill="#000000" font-size="14" font-family="Helvetica">How does Design work?</text><use href="#vithanco-watermark" x="-38.33120000000003" y="407.8091718726869" width="35.08800000000001" height="35.06202812731311"/></svg>