<svg width="330.65" height="496.37" viewBox="-50.03 -49.99000000000001 330.65 496.37" xmlns="http://www.w3.org/2000/svg"><defs>
  <symbol id="vithanco-watermark" viewBox="0 0 162.12 162.0">
  <path d="M 121.68 34.67 L 94.40 81.89 L 81.07 104.96 L 101.28 139.95 L 114.61 116.88 L 162.12 34.67 Z" fill="#000000" fill-opacity="0.3"/>
  <path d="M 81.07 58.81 L 95.01 34.67 L 121.68 34.67 L 141.72 0 L 115.05 0 L 47.07 0 L 20.40 0 L 40.44 34.67 L 67.11 34.67 Z" fill="#000000" fill-opacity="0.3"/>
  <path d="M 40.44 34.67 L 0 34.67 L 47.51 116.88 L 60.84 139.96 L 81.07 104.96 L 67.73 81.89 Z" fill="#000000" fill-opacity="0.3"/>
  <text x="9.13" y="158.59" font-family="Arial" font-size="18.67" fill="#000000" fill-opacity="0.3">VITHANCO.COM</text>
</symbol>
</defs>
<path d="M 38.52 38.75 C 38.52 48.410000000000025, 38.52 58.81000000000005, 38.52 65.02000000000004" fill="none" stroke="#000000" stroke-width="1"/><circle cx="38.52" cy="34.39000000000004" r="4" fill="#000000" stroke="#000000" stroke-width="1"/><path d="M 132.48000000000005 152.22 C 134.60999999999999 161.95000000000002, 136.92000000000004 172.51000000000002, 138.29 178.78" fill="none" stroke="#000000" stroke-width="1"/><circle cx="131.57" cy="148.05" r="4" fill="#000000" stroke="#000000" stroke-width="1"/><path d="M 147.2 266.27 C 147.9 275.92999999999995, 148.66 286.33000000000004, 149.10999999999999 292.54" fill="none" stroke="#000000" stroke-width="1"/><circle cx="146.88000000000005" cy="261.9" r="4" fill="#000000" stroke="#000000" stroke-width="1"/><path d="M 153.45000000000005 36.97000000000003 C 146.25 47.10000000000002, 138.2 58.43000000000001, 133.51 65.02000000000004" fill="none" stroke="#000000" stroke-width="1"/><circle cx="155.87" cy="33.56" r="4" fill="#000000" stroke="#000000" stroke-width="1"/><path d="M 178.05 38.29000000000003 C 181.51 46.770000000000046, 185.34 56.53000000000003, 188.52 65.52000000000004 C 195.8 86.11000000000001, 202.96 111.10000000000001, 206.0 122.0" fill="none" stroke="#000000" stroke-width="1"/><circle cx="176.34" cy="34.170000000000016" r="4" fill="#000000" stroke="#000000" stroke-width="1"/><path d="M 47.38 78.10000000000001 C 58.41 84.90000000000003, 77.86 96.90000000000003, 94.83 107.37000000000005" fill="none" stroke="#000000" stroke-width="1"/><polygon points="96.5,104.28000000000003 103.16999999999999,112.51000000000006 92.83,110.24000000000002" fill="#000000" stroke="#000000" stroke-width="1"/><path d="M 140.12 191.86 C 140.73999999999998 197.52, 141.75 206.76999999999998, 142.73 215.73999999999998" fill="none" stroke="#000000" stroke-width="1"/><polygon points="146.19,215.23999999999998 143.8,225.56000000000003 139.23,216.0" fill="#000000" stroke="#000000" stroke-width="1"/><path d="M 152.20999999999998 305.62 C 155.10999999999999 311.53000000000003, 159.95000000000005 321.37, 164.55 330.71000000000004" fill="none" stroke="#000000" stroke-width="1"/><polygon points="167.58,328.95000000000005 168.86,339.46000000000004 161.3,332.04" fill="#000000" stroke="#000000" stroke-width="1"/><path d="M 129.32000000000005 78.10000000000001 C 129.10999999999999 83.75999999999999, 128.78 93.01000000000006, 128.45000000000005 101.98000000000002" fill="none" stroke="#000000" stroke-width="1"/><polygon points="131.96,101.92000000000002 128.09,111.79000000000002 124.96000000000002,101.67" fill="#000000" stroke="#000000" stroke-width="1"/><path d="M 206.86 135.0 C 204.25 156.63000000000002, 194.29 238.29000000000002, 184.52 305.28000000000003 C 183.35000000000005 313.33000000000004, 181.97 322.1, 180.69 330.0" fill="none" stroke="#000000" stroke-width="1"/><polygon points="184.19,330.32 179.12,339.62 177.28,329.19" fill="#000000" stroke="#000000" stroke-width="1"/><g transform="translate(-0.030000000000001137,0.009999999999994458)"><rect x="0" y="0" width="77.10000000000001" height="29.5" rx="9" fill="#7db3ff"/><rect x="0.7500000000000001" y="0.7500000000000001" width="75.60000000000001" height="28" rx="9" fill="none" stroke="#000fa7" stroke-width="1.5"/><text x="38.550000000000004" y="19.65" text-anchor="middle" fill="#000000" font-size="14" font-family="Helvetica">Designer</text></g><g transform="translate(88.97,113.77000000000004)"><rect x="0" y="0" width="77.10000000000001" height="29.5" rx="9" fill="#7db3ff"/><rect x="0.7500000000000001" y="0.7500000000000001" width="75.60000000000001" height="28" rx="9" fill="none" stroke="#000fa7" stroke-width="1.5"/><text x="38.550000000000004" y="19.65" text-anchor="middle" fill="#000000" font-size="14" font-family="Helvetica">Typeface</text></g><g transform="translate(118.52000000000001,227.53)"><rect x="0" y="0" width="54.00000000000001" height="29.5" rx="9" fill="#7db3ff"/><rect x="0.7500000000000001" y="0.7500000000000001" width="52.50000000000001" height="28" rx="9" fill="none" stroke="#000fa7" stroke-width="1.5"/><text x="27.000000000000004" y="19.65" text-anchor="middle" fill="#000000" font-size="14" font-family="Helvetica">Glyph</text></g><g transform="translate(153.37,341.29)"><rect x="0" y="0" width="46.300000000000004" height="29.5" rx="9" fill="#7db3ff"/><rect x="0.7500000000000001" y="0.7500000000000001" width="44.800000000000004" height="28" rx="9" fill="none" stroke="#000fa7" stroke-width="1.5"/><text x="23.150000000000002" y="19.65" text-anchor="middle" fill="#000000" font-size="14" font-family="Helvetica">Text</text></g><g transform="translate(145.37,0.009999999999994458)"><rect x="0" y="0" width="46.300000000000004" height="29.5" rx="9" fill="#7db3ff"/><rect x="0.7500000000000001" y="0.7500000000000001" width="44.800000000000004" height="28" rx="9" fill="none" stroke="#000fa7" stroke-width="1.5"/><text x="23.150000000000002" y="19.65" text-anchor="middle" fill="#000000" font-size="14" font-family="Helvetica">Font</text></g><g transform="translate(15.420000000000002,65.63999999999999)"><rect x="0" y="0" width="46.2" height="12" fill="#ffffff"/><text x="23.1" y="10.2" text-anchor="middle" fill="#000000" font-size="12" font-family="Helvetica">creates</text></g><g transform="translate(116.42000000000002,179.4)"><rect x="0" y="0" width="46.2" height="12" fill="#ffffff"/><text x="23.1" y="10.2" text-anchor="middle" fill="#000000" font-size="12" font-family="Helvetica">defines</text></g><g transform="translate(123.12,293.16)"><rect x="0" y="0" width="52.800000000000004" height="12" fill="#ffffff"/><text x="26.400000000000002" y="10.2" text-anchor="middle" fill="#000000" font-size="12" font-family="Helvetica">composes</text></g><g transform="translate(80.02000000000001,65.63999999999999)"><rect x="0" y="0" width="99.00000000000001" height="12" fill="#ffffff"/><text x="49.50000000000001" y="10.2" text-anchor="middle" fill="#000000" font-size="12" font-family="Helvetica">is a variant of</text></g><g transform="translate(184.42000000000002,122.52000000000004)"><rect x="0" y="0" width="46.2" height="12" fill="#ffffff"/><text x="23.1" y="10.2" text-anchor="middle" fill="#000000" font-size="12" font-family="Helvetica">renders</text></g><text x="115.28" y="388.1" text-anchor="middle" fill="#000000" font-size="14" font-family="Helvetica">What is Typography?</text><use href="#vithanco-watermark" x="-45.07025" y="391.85946169504075" width="49.5975" height="49.56078830495929"/></svg>