<svg width="369.85" height="268.85" viewBox="-49.89000000000001 -49.99000000000001 369.85 268.85" xmlns="http://www.w3.org/2000/svg"><defs>
  <symbol id="vithanco-watermark" viewBox="0 0 162.12 162.0">
  <path d="M 121.68 34.67 L 94.40 81.89 L 81.07 104.96 L 101.28 139.95 L 114.61 116.88 L 162.12 34.67 Z" fill="#000000" fill-opacity="0.3"/>
  <path d="M 81.07 58.81 L 95.01 34.67 L 121.68 34.67 L 141.72 0 L 115.05 0 L 47.07 0 L 20.40 0 L 40.44 34.67 L 67.11 34.67 Z" fill="#000000" fill-opacity="0.3"/>
  <path d="M 40.44 34.67 L 0 34.67 L 47.51 116.88 L 60.84 139.96 L 81.07 104.96 L 67.73 81.89 Z" fill="#000000" fill-opacity="0.3"/>
  <text x="9.13" y="158.59" font-family="Arial" font-size="18.67" fill="#000000" fill-opacity="0.3">VITHANCO.COM</text>
</symbol>
</defs>
<path d="M 105.69 34.640000000000015 C 88.57 45.309999999999995, 68.36999999999999 57.910000000000004, 56.97 65.02" fill="none" stroke="#000000" stroke-width="1"/><circle cx="109.48" cy="32.27000000000001" r="4" fill="#000000" stroke="#000000" stroke-width="1"/><path d="M 125.49000000000002 37.859999999999985 C 120.8 47.76000000000001, 115.66 58.62000000000001, 112.61999999999999 65.02" fill="none" stroke="#000000" stroke-width="1"/><circle cx="127.34" cy="33.95999999999998" r="4" fill="#000000" stroke="#000000" stroke-width="1"/><path d="M 146.83 37.859999999999985 C 151.7 47.76000000000001, 157.05 58.62000000000001, 160.2 65.02" fill="none" stroke="#000000" stroke-width="1"/><circle cx="144.9" cy="33.929999999999986" r="4" fill="#000000" stroke="#000000" stroke-width="1"/><path d="M 167.17 33.419999999999995 C 186.56 44.39, 210.19 57.76000000000001, 223.2 65.11999999999999" fill="none" stroke="#000000" stroke-width="1"/><circle cx="163.36" cy="31.259999999999987" r="4" fill="#000000" stroke="#000000" stroke-width="1"/><path d="M 46.27 78.10000000000001 C 44.48 83.89, 41.52 93.43, 38.68 102.59" fill="none" stroke="#000000" stroke-width="1"/><polygon points="42.11,103.33999999999999 35.81,111.86 35.43,101.27" fill="#000000" stroke="#000000" stroke-width="1"/><path d="M 109.26 78.10000000000001 C 108.54 83.76, 107.36 93.01, 106.22 101.98" fill="none" stroke="#000000" stroke-width="1"/><polygon points="109.7,102.32 104.96000000000002,111.80000000000001 102.76,101.44000000000001" fill="#000000" stroke="#000000" stroke-width="1"/><path d="M 163.76 78.10000000000001 C 164.58 83.76, 165.93 93.01, 167.23999999999998 101.98" fill="none" stroke="#000000" stroke-width="1"/><polygon points="170.69,101.4 168.67,111.80000000000001 163.76,102.41000000000003" fill="#000000" stroke="#000000" stroke-width="1"/><path d="M 233.96 78.10000000000001 C 234.99 83.76, 236.67 93.01, 238.31 101.98" fill="none" stroke="#000000" stroke-width="1"/><polygon points="241.75,101.35 240.1,111.81 234.86,102.60000000000001" fill="#000000" stroke="#000000" stroke-width="1"/><g transform="translate(112.81,0.009999999999994458)"><rect x="0" y="0" width="46.300000000000004" height="29.5" rx="9" fill="#ff7b6b"/><rect x="0.7500000000000001" y="0.7500000000000001" width="44.800000000000004" height="28" rx="9" fill="none" stroke="#ce0d07" stroke-width="1.5"/><text x="23.150000000000002" y="19.65" text-anchor="middle" fill="#000000" font-size="14" font-family="Helvetica">Font</text></g><g transform="translate(0.10999999999999233,113.76999999999998)"><rect x="0" y="0" width="61.7" height="29.5" rx="9" fill="#7db3ff"/><rect x="0.7500000000000001" y="0.7500000000000001" width="60.2" height="28" rx="9" fill="none" stroke="#000fa7" stroke-width="1.5"/><text x="30.85" y="19.65" text-anchor="middle" fill="#000000" font-size="14" font-family="Helvetica">Weight</text></g><g transform="translate(79.81000000000002,113.76999999999998)"><rect x="0" y="0" width="46.300000000000004" height="29.5" rx="9" fill="#7db3ff"/><rect x="0.7500000000000001" y="0.7500000000000001" width="44.800000000000004" height="28" rx="9" fill="none" stroke="#000fa7" stroke-width="1.5"/><text x="23.150000000000002" y="19.65" text-anchor="middle" fill="#000000" font-size="14" font-family="Helvetica">Size</text></g><g transform="translate(143.96,113.76999999999998)"><rect x="0" y="0" width="54.00000000000001" height="29.5" rx="9" fill="#7db3ff"/><rect x="0.7500000000000001" y="0.7500000000000001" width="52.50000000000001" height="28" rx="9" fill="none" stroke="#000fa7" stroke-width="1.5"/><text x="27.000000000000004" y="19.65" text-anchor="middle" fill="#000000" font-size="14" font-family="Helvetica">Style</text></g><g transform="translate(215.96,113.76999999999998)"><rect x="0" y="0" width="54.00000000000001" height="29.5" rx="9" fill="#7db3ff"/><rect x="0.7500000000000001" y="0.7500000000000001" width="52.50000000000001" height="28" rx="9" fill="none" stroke="#000fa7" stroke-width="1.5"/><text x="27.000000000000004" y="19.65" text-anchor="middle" fill="#000000" font-size="14" font-family="Helvetica">Color</text></g><g transform="translate(38.06,65.64)"><rect x="0" y="0" width="19.8" height="12" fill="#ffffff"/><text x="9.9" y="10.2" text-anchor="middle" fill="#000000" font-size="12" font-family="Helvetica">has</text></g><g transform="translate(100.06000000000002,65.64)"><rect x="0" y="0" width="19.8" height="12" fill="#ffffff"/><text x="9.9" y="10.2" text-anchor="middle" fill="#000000" font-size="12" font-family="Helvetica">has</text></g><g transform="translate(153.06,65.64)"><rect x="0" y="0" width="19.8" height="12" fill="#ffffff"/><text x="9.9" y="10.2" text-anchor="middle" fill="#000000" font-size="12" font-family="Helvetica">has</text></g><g transform="translate(223.06,65.64)"><rect x="0" y="0" width="19.8" height="12" fill="#ffffff"/><text x="9.9" y="10.2" text-anchor="middle" fill="#000000" font-size="12" font-family="Helvetica">has</text></g><text x="134.98000000000005" y="160.58" text-anchor="middle" fill="#000000" font-size="14" font-family="Helvetica">What is a Font?</text><use href="#vithanco-watermark" x="-45.85725000000001" y="174.52960011102888" width="40.3275" height="40.29764988897114"/></svg>