<?xml version="1.0" encoding="utf-8" standalone="no"?>
<svg version="1.1" viewBox="0.00 0.00 453.00 433.00" xmlns="http://www.w3.org/2000/svg">
	<svg height="100.00" id="node14" width="200.00" x="54.50" y="122.00">
		<svg height="51.00" width="152.00" x="24.00" y="24.50">
			<path d="M2.00 25.50L2.00 11.00 C2.00 6.03 6.03 2.00 11.00 2.00 L141.00 2.00 C145.97 2.00 150.00 6.03 150.00 11.00 L150.00 40.00 C150.00 44.97 145.97 49.00 141.00 49.00 C141.00 49.00 141.00 49.00 141.00 49.00 L11.00 49.00 C6.03 49.00 2.00 44.97 2.00 40.00 ZM2.00 25.50" fill="#ffffff" fill-opacity="1.00" />
			<svg height="51.00" width="152.00" x="0.00" y="0.00">
				<path d="M2.75 21.75L2.75 10.25 C2.75 6.11 6.11 2.75 10.25 2.75 L141.75 2.75 C145.89 2.75 149.25 6.11 149.25 10.25 L149.25 21.75 L2.75 21.75 " fill="#a34753" fill-opacity="1.00" />
				<text dominant-baseline="middle" fill="#ffffff" fill-opacity="1.00" font-family="Verdana" font-size="11.00" font-weight="bold" text-anchor="middle" x="76.00" y="12.25">Undesirable Effect</text>
				<svg height="51.00" width="152.00" x="0.00" y="0.00">
					<path d="M2.00 25.50L2.00 11.00 C2.00 6.03 6.03 2.00 11.00 2.00 L141.00 2.00 C145.97 2.00 150.00 6.03 150.00 11.00 L150.00 40.00 C150.00 44.97 145.97 49.00 141.00 49.00 C141.00 49.00 141.00 49.00 141.00 49.00 L11.00 49.00 C6.03 49.00 2.00 44.97 2.00 40.00 ZM2.00 25.50" fill="none" stroke="#000000" stroke-opacity="1.00" stroke-width="1.50" />
					<svg height="18.00" width="138.00" x="7.00" y="26.00">
						<svg height="18.00" width="138.00" x="0.00" y="0.00">
							<text dominant-baseline="middle" fill="#000000" fill-opacity="1.00" font-family="Verdana" font-size="14.00" font-weight="normal" text-anchor="middle" x="69.00" y="9.00">Working long hours</text>
						</svg>
					</svg>
				</svg>
			</svg>
		</svg>
	</svg>
	<svg height="100.00" id="node15" width="200.00" x="153.50" y="51.00">
		<svg height="32.00" width="32.00" x="84.00" y="34.00">
			<svg height="32.00" width="32.00" x="0.00" y="0.00">
				<svg x="0.00" y="-0.00">
					<path d="M6.57 13.27C6.57 13.27 6.64 13.51 6.75 13.85 C7.05 14.81 7.61 16.63 7.61 16.63 L5.40 16.63 C5.40 16.63 5.44 16.51 5.51 16.28 C5.59 16.05 5.67 15.77 5.77 15.44 L6.09 14.44 C6.20 14.11 6.28 13.84 6.36 13.61 C6.43 13.39 6.47 13.27 6.47 13.27 L6.57 13.27 L6.57 13.27 ZM19.37 11.55L17.68 11.55 L17.68 16.93 L17.57 16.93 L13.69 11.55 L12.21 11.55 L12.21 20.00 L13.91 20.00 L13.91 14.59 L14.01 14.59 L17.91 20.00 L19.37 20.00 L19.37 11.55 ZM26.49 13.72C26.92 14.20 27.13 14.88 27.13 15.75 C27.13 16.65 26.92 17.33 26.51 17.83 C26.08 18.31 25.48 18.55 24.69 18.55 L23.43 18.55 C23.43 18.55 23.43 18.41 23.43 18.13 C23.43 17.87 23.43 17.53 23.43 17.11 C23.43 16.69 23.43 16.24 23.43 15.77 C23.43 15.31 23.43 14.85 23.43 14.44 C23.43 14.01 23.43 13.67 23.43 13.40 C23.43 13.13 23.43 13.00 23.43 13.00 L24.69 13.00 C25.47 13.00 26.07 13.24 26.49 13.72 ZM24.97 11.53L21.65 11.53 L21.65 20.00 L24.97 20.00 C26.24 20.00 27.23 19.63 27.91 18.89 C28.60 18.15 28.95 17.09 28.95 15.72 C28.95 14.39 28.60 13.36 27.91 12.63 C27.21 11.91 26.24 11.53 24.97 11.53 ZM7.61 11.55L5.52 11.55 L2.60 20.00 L4.37 20.00 L5.03 17.95 L7.99 17.95 C7.99 17.95 8.03 18.05 8.09 18.25 C8.16 18.47 8.23 18.71 8.31 18.97 C8.40 19.24 8.47 19.48 8.53 19.69 C8.60 19.89 8.63 20.00 8.63 20.00 L10.55 20.00 L7.61 11.55 ZM32.00 16.00C32.00 24.84 24.84 32.00 16.00 32.00 C12.43 32.00 9.13 30.83 6.47 28.85 C2.55 25.93 0.00 21.27 0.00 16.00 C0.00 7.16 7.16 0.00 16.00 0.00 C24.84 0.00 32.00 7.16 32.00 16.00 ZM32.00 16.00" fill="#000000" fill-opacity="1.00" />
				</svg>
				<svg height="32.00" width="32.00" x="0.00" y="0.00" />
			</svg>
		</svg>
	</svg>
	<svg height="100.00" id="node2" width="200.00" x="-24.50" y="264.00">
		<svg height="51.00" width="125.00" x="37.50" y="24.50">
			<path d="M2.00 25.50L2.00 11.00 C2.00 6.03 6.03 2.00 11.00 2.00 L114.00 2.00 C118.97 2.00 123.00 6.03 123.00 11.00 L123.00 40.00 C123.00 44.97 118.97 49.00 114.00 49.00 C114.00 49.00 114.00 49.00 114.00 49.00 L11.00 49.00 C6.03 49.00 2.00 44.97 2.00 40.00 ZM2.00 25.50" fill="#ffffff" fill-opacity="1.00" />
			<svg height="51.00" width="125.00" x="0.00" y="0.00">
				<path d="M2.75 21.75L2.75 10.25 C2.75 6.11 6.11 2.75 10.25 2.75 L114.75 2.75 C118.89 2.75 122.25 6.11 122.25 10.25 L122.25 21.75 L2.75 21.75 " fill="#a34753" fill-opacity="1.00" />
				<text dominant-baseline="middle" fill="#ffffff" fill-opacity="1.00" font-family="Verdana" font-size="11.00" font-weight="bold" text-anchor="middle" x="62.50" y="12.25">Undesirable Effect</text>
				<svg height="51.00" width="125.00" x="0.00" y="0.00">
					<path d="M2.00 25.50L2.00 11.00 C2.00 6.03 6.03 2.00 11.00 2.00 L114.00 2.00 C118.97 2.00 123.00 6.03 123.00 11.00 L123.00 40.00 C123.00 44.97 118.97 49.00 114.00 49.00 C114.00 49.00 114.00 49.00 114.00 49.00 L11.00 49.00 C6.03 49.00 2.00 44.97 2.00 40.00 ZM2.00 25.50" fill="none" stroke="#f9424f" stroke-opacity="1.00" stroke-width="1.50" />
					<svg height="18.00" width="111.00" x="7.00" y="26.00">
						<svg height="18.00" width="111.00" x="0.00" y="0.00">
							<text dominant-baseline="middle" fill="#000000" fill-opacity="1.00" font-family="Verdana" font-size="14.00" font-weight="normal" text-anchor="middle" x="55.50" y="9.00">Too much to do</text>
						</svg>
					</svg>
				</svg>
			</svg>
		</svg>
	</svg>
	<svg height="100.00" id="node13" width="200.00" x="253.50" y="122.00">
		<svg height="68.00" width="173.00" x="13.50" y="16.00">
			<path d="M2.00 34.00L2.00 11.00 C2.00 6.03 6.03 2.00 11.00 2.00 L162.00 2.00 C166.97 2.00 171.00 6.03 171.00 11.00 L171.00 57.00 C171.00 61.97 166.97 66.00 162.00 66.00 C162.00 66.00 162.00 66.00 162.00 66.00 L11.00 66.00 C6.03 66.00 2.00 61.97 2.00 57.00 ZM2.00 34.00" fill="#ffffff" fill-opacity="1.00" />
			<svg height="68.00" width="173.00" x="0.00" y="0.00">
				<path d="M2.75 21.75L2.75 10.25 C2.75 6.11 6.11 2.75 10.25 2.75 L162.75 2.75 C166.89 2.75 170.25 6.11 170.25 10.25 L170.25 21.75 L2.75 21.75 " fill="#3e354c" fill-opacity="1.00" />
				<text dominant-baseline="middle" fill="#ffffff" fill-opacity="1.00" font-family="Verdana" font-size="11.00" font-weight="bold" text-anchor="middle" x="86.50" y="12.25">Given</text>
				<svg height="68.00" width="173.00" x="0.00" y="0.00">
					<path d="M2.00 34.00L2.00 11.00 C2.00 6.03 6.03 2.00 11.00 2.00 L162.00 2.00 C166.97 2.00 171.00 6.03 171.00 11.00 L171.00 57.00 C171.00 61.97 166.97 66.00 162.00 66.00 C162.00 66.00 162.00 66.00 162.00 66.00 L11.00 66.00 C6.03 66.00 2.00 61.97 2.00 57.00 ZM2.00 34.00" fill="none" stroke="#000000" stroke-opacity="1.00" stroke-width="1.50" />
					<svg height="35.00" width="159.00" x="7.00" y="26.00">
						<svg height="35.00" width="159.00" x="0.00" y="0.00">
							<text dominant-baseline="middle" fill="#000000" fill-opacity="1.00" font-family="Verdana" font-size="14.00" font-weight="normal" text-anchor="middle" x="79.50" y="8.75">Limited Time available</text>
							<text dominant-baseline="middle" fill="#000000" fill-opacity="1.00" font-family="Verdana" font-size="14.00" font-weight="normal" text-anchor="middle" x="79.50" y="26.25">in a Day/Week/Month</text>
						</svg>
					</svg>
				</svg>
			</svg>
		</svg>
	</svg>
	<svg height="100.00" id="node17" width="200.00" x="54.50" y="193.00">
		<svg height="32.00" width="32.00" x="84.00" y="34.00">
			<svg height="32.00" width="32.00" x="0.00" y="0.00">
				<svg x="0.00" y="-0.00">
					<path d="M6.57 13.27C6.57 13.27 6.64 13.51 6.75 13.85 C7.05 14.81 7.61 16.63 7.61 16.63 L5.40 16.63 C5.40 16.63 5.44 16.51 5.51 16.28 C5.59 16.05 5.67 15.77 5.77 15.44 L6.09 14.44 C6.20 14.11 6.28 13.84 6.36 13.61 C6.43 13.39 6.47 13.27 6.47 13.27 L6.57 13.27 L6.57 13.27 ZM19.37 11.55L17.68 11.55 L17.68 16.93 L17.57 16.93 L13.69 11.55 L12.21 11.55 L12.21 20.00 L13.91 20.00 L13.91 14.59 L14.01 14.59 L17.91 20.00 L19.37 20.00 L19.37 11.55 ZM26.49 13.72C26.92 14.20 27.13 14.88 27.13 15.75 C27.13 16.65 26.92 17.33 26.51 17.83 C26.08 18.31 25.48 18.55 24.69 18.55 L23.43 18.55 C23.43 18.55 23.43 18.41 23.43 18.13 C23.43 17.87 23.43 17.53 23.43 17.11 C23.43 16.69 23.43 16.24 23.43 15.77 C23.43 15.31 23.43 14.85 23.43 14.44 C23.43 14.01 23.43 13.67 23.43 13.40 C23.43 13.13 23.43 13.00 23.43 13.00 L24.69 13.00 C25.47 13.00 26.07 13.24 26.49 13.72 ZM24.97 11.53L21.65 11.53 L21.65 20.00 L24.97 20.00 C26.24 20.00 27.23 19.63 27.91 18.89 C28.60 18.15 28.95 17.09 28.95 15.72 C28.95 14.39 28.60 13.36 27.91 12.63 C27.21 11.91 26.24 11.53 24.97 11.53 ZM7.61 11.55L5.52 11.55 L2.60 20.00 L4.37 20.00 L5.03 17.95 L7.99 17.95 C7.99 17.95 8.03 18.05 8.09 18.25 C8.16 18.47 8.23 18.71 8.31 18.97 C8.40 19.24 8.47 19.48 8.53 19.69 C8.60 19.89 8.63 20.00 8.63 20.00 L10.55 20.00 L7.61 11.55 ZM32.00 16.00C32.00 24.84 24.84 32.00 16.00 32.00 C12.43 32.00 9.13 30.83 6.47 28.85 C2.55 25.93 0.00 21.27 0.00 16.00 C0.00 7.16 7.16 0.00 16.00 0.00 C24.84 0.00 32.00 7.16 32.00 16.00 ZM32.00 16.00" fill="#000000" fill-opacity="1.00" />
				</svg>
				<svg height="32.00" width="32.00" x="0.00" y="0.00" />
			</svg>
		</svg>
	</svg>
	<svg height="100.00" id="node4" width="200.00" x="134.50" y="344.50">
		<svg height="51.00" width="142.00" x="29.00" y="24.50">
			<path d="M2.00 25.50L2.00 11.00 C2.00 6.03 6.03 2.00 11.00 2.00 L131.00 2.00 C135.97 2.00 140.00 6.03 140.00 11.00 L140.00 40.00 C140.00 44.97 135.97 49.00 131.00 49.00 C131.00 49.00 131.00 49.00 131.00 49.00 L11.00 49.00 C6.03 49.00 2.00 44.97 2.00 40.00 ZM2.00 25.50" fill="#ffffff" fill-opacity="1.00" />
			<svg height="51.00" width="142.00" x="0.00" y="0.00">
				<path d="M2.75 21.75L2.75 10.25 C2.75 6.11 6.11 2.75 10.25 2.75 L131.75 2.75 C135.89 2.75 139.25 6.11 139.25 10.25 L139.25 21.75 L2.75 21.75 " fill="#a34753" fill-opacity="1.00" />
				<text dominant-baseline="middle" fill="#ffffff" fill-opacity="1.00" font-family="Verdana" font-size="11.00" font-weight="bold" text-anchor="middle" x="71.00" y="12.25">Undesirable Effect</text>
				<svg height="51.00" width="142.00" x="0.00" y="0.00">
					<path d="M2.00 25.50L2.00 11.00 C2.00 6.03 6.03 2.00 11.00 2.00 L131.00 2.00 C135.97 2.00 140.00 6.03 140.00 11.00 L140.00 40.00 C140.00 44.97 135.97 49.00 131.00 49.00 C131.00 49.00 131.00 49.00 131.00 49.00 L11.00 49.00 C6.03 49.00 2.00 44.97 2.00 40.00 ZM2.00 25.50" fill="none" stroke="#f9424f" stroke-opacity="1.00" stroke-width="1.50" />
					<svg height="18.00" width="128.00" x="7.00" y="26.00">
						<svg height="18.00" width="128.00" x="0.00" y="0.00">
							<text dominant-baseline="middle" fill="#000000" fill-opacity="1.00" font-family="Verdana" font-size="14.00" font-weight="normal" text-anchor="middle" x="64.00" y="9.00">Too little progress</text>
						</svg>
					</svg>
				</svg>
			</svg>
		</svg>
	</svg>
	<svg height="100.00" id="node7" width="200.00" x="134.50" y="264.00">
		<svg height="68.00" width="121.00" x="39.50" y="16.00">
			<path d="M2.00 34.00L2.00 11.00 C2.00 6.03 6.03 2.00 11.00 2.00 L110.00 2.00 C114.97 2.00 119.00 6.03 119.00 11.00 L119.00 57.00 C119.00 61.97 114.97 66.00 110.00 66.00 C110.00 66.00 110.00 66.00 110.00 66.00 L11.00 66.00 C6.03 66.00 2.00 61.97 2.00 57.00 ZM2.00 34.00" fill="#ffffff" fill-opacity="1.00" />
			<svg height="68.00" width="121.00" x="0.00" y="0.00">
				<path d="M2.75 21.75L2.75 10.25 C2.75 6.11 6.11 2.75 10.25 2.75 L110.75 2.75 C114.89 2.75 118.25 6.11 118.25 10.25 L118.25 21.75 L2.75 21.75 " fill="#a34753" fill-opacity="1.00" />
				<text dominant-baseline="middle" fill="#ffffff" fill-opacity="1.00" font-family="Verdana" font-size="11.00" font-weight="bold" text-anchor="middle" x="60.50" y="12.25">Undesirable Effect</text>
				<svg height="68.00" width="121.00" x="0.00" y="0.00">
					<path d="M2.00 34.00L2.00 11.00 C2.00 6.03 6.03 2.00 11.00 2.00 L110.00 2.00 C114.97 2.00 119.00 6.03 119.00 11.00 L119.00 57.00 C119.00 61.97 114.97 66.00 110.00 66.00 C110.00 66.00 110.00 66.00 110.00 66.00 L11.00 66.00 C6.03 66.00 2.00 61.97 2.00 57.00 ZM2.00 34.00" fill="none" stroke="#000000" stroke-opacity="1.00" stroke-width="1.50" />
					<svg height="35.00" width="107.00" x="7.00" y="26.00">
						<svg height="35.00" width="107.00" x="0.00" y="0.00">
							<text dominant-baseline="middle" fill="#000000" fill-opacity="1.00" font-family="Verdana" font-size="14.00" font-weight="normal" text-anchor="middle" x="53.50" y="8.75">Putting myself</text>
							<text dominant-baseline="middle" fill="#000000" fill-opacity="1.00" font-family="Verdana" font-size="14.00" font-weight="normal" text-anchor="middle" x="53.50" y="26.25">under pressure</text>
						</svg>
					</svg>
				</svg>
			</svg>
		</svg>
	</svg>
	<svg height="100.00" id="node5" width="200.00" x="153.50" y="-11.50">
		<svg height="51.00" width="143.00" x="28.50" y="24.50">
			<path d="M2.00 25.50L2.00 11.00 C2.00 6.03 6.03 2.00 11.00 2.00 L132.00 2.00 C136.97 2.00 141.00 6.03 141.00 11.00 L141.00 40.00 C141.00 44.97 136.97 49.00 132.00 49.00 C132.00 49.00 132.00 49.00 132.00 49.00 L11.00 49.00 C6.03 49.00 2.00 44.97 2.00 40.00 ZM2.00 25.50" fill="#ffffff" fill-opacity="1.00" />
			<svg height="51.00" width="143.00" x="0.00" y="0.00">
				<path d="M2.75 21.75L2.75 10.25 C2.75 6.11 6.11 2.75 10.25 2.75 L132.75 2.75 C136.89 2.75 140.25 6.11 140.25 10.25 L140.25 21.75 L2.75 21.75 " fill="#a34753" fill-opacity="1.00" />
				<text dominant-baseline="middle" fill="#ffffff" fill-opacity="1.00" font-family="Verdana" font-size="11.00" font-weight="bold" text-anchor="middle" x="71.50" y="12.25">Undesirable Effect</text>
				<svg height="51.00" width="143.00" x="0.00" y="0.00">
					<path d="M2.00 25.50L2.00 11.00 C2.00 6.03 6.03 2.00 11.00 2.00 L132.00 2.00 C136.97 2.00 141.00 6.03 141.00 11.00 L141.00 40.00 C141.00 44.97 136.97 49.00 132.00 49.00 C132.00 49.00 132.00 49.00 132.00 49.00 L11.00 49.00 C6.03 49.00 2.00 44.97 2.00 40.00 ZM2.00 25.50" fill="none" stroke="#000000" stroke-opacity="1.00" stroke-width="1.50" />
					<svg height="18.00" width="129.00" x="7.00" y="26.00">
						<svg height="18.00" width="129.00" x="0.00" y="0.00">
							<text dominant-baseline="middle" fill="#000000" fill-opacity="1.00" font-family="Verdana" font-size="14.00" font-weight="normal" text-anchor="middle" x="64.50" y="9.00">Feeling exhausted</text>
						</svg>
					</svg>
				</svg>
			</svg>
		</svg>
	</svg>
	<svg height="28.17" id="edgeLine17" width="8.00" x="249.50" y="62.40">
		<path d="M4.00 24.17L4.00 15.17 C4.00 13.78 4.00 12.36 4.00 10.93 " fill="none" stroke="#000000" stroke-opacity="1.00" stroke-width="1.50" />
		<svg height="10.00" id="edgeHead17" width="8.00" x="0.00" y="-0.00">
			<path d="M3.00 10.00L3.00 10.00 L0.00 10.00 L4.00 0.00 L8.00 10.00 L5.00 10.00 L5.00 10.00 ZM3.00 10.00" fill="#000000" fill-opacity="1.00" />
		</svg>
		<svg height="9.00" id="edgeTail17" width="0.00" x="4.00" y="15.17">
			<path d="M0.00 9.00L0.00 0.00 " fill="#000000" fill-opacity="1.00" />
		</svg>
	</svg>
	<svg height="42.61" id="edgeLine15" width="47.57" x="100.72" y="248.92">
		<path d="M7.71 35.32C17.18 27.05 27.16 18.33 35.41 11.13 L43.57 4.00 " fill="none" stroke="#000000" stroke-opacity="1.00" stroke-width="1.50" />
		<svg height="7.12" id="edgeHead15" width="8.16" x="35.41" y="4.00">
			<path d="M8.16 -0.00L0.00 7.12 " fill="#000000" fill-opacity="1.00" />
		</svg>
		<svg height="8.79" id="edgeTail15" width="8.79" x="-0.00" y="33.82">
			<path d="M7.51 7.50C9.22 5.78 9.22 3.00 7.51 1.28 C5.79 -0.43 3.01 -0.43 1.29 1.28 C-0.43 3.00 -0.43 5.78 1.29 7.50 C3.01 9.22 5.79 9.22 7.51 7.50 " fill="#000000" fill-opacity="1.00" />
		</svg>
	</svg>
	<svg height="24.38" id="edgeLine20" width="8.91" x="230.05" y="346.41">
		<path d="M4.45 15.47C4.45 13.88 4.45 12.27 4.45 10.65 " fill="none" stroke="#000000" stroke-opacity="1.00" stroke-width="1.50" />
		<svg height="10.00" id="edgeHead20" width="8.00" x="0.45" y="-0.00">
			<path d="M3.00 10.00L3.00 10.00 L0.00 10.00 L4.00 0.00 L8.00 10.00 L5.00 10.00 L5.00 10.00 ZM3.00 10.00" fill="#000000" fill-opacity="1.00" />
		</svg>
		<svg height="8.91" id="edgeTail20" width="8.91" x="0.00" y="15.47">
			<path d="M7.60 7.61C9.34 5.87 9.34 3.05 7.60 1.31 C5.86 -0.43 3.04 -0.43 1.30 1.31 C-0.43 3.05 -0.43 5.87 1.30 7.61 C3.04 9.34 5.86 9.34 7.60 7.61 " fill="#000000" fill-opacity="1.00" />
		</svg>
	</svg>
	<svg height="44.01" id="edgeLine16" width="59.48" x="186.67" y="105.91">
		<path d="M8.02 37.08C21.29 27.83 35.49 17.94 46.60 10.19 L55.48 4.01 " fill="none" stroke="#000000" stroke-opacity="1.00" stroke-width="1.50" />
		<svg height="6.19" id="edgeHead16" width="8.88" x="46.60" y="4.01">
			<path d="M8.88 0.00L0.00 6.19 " fill="#000000" fill-opacity="1.00" />
		</svg>
		<svg height="8.82" id="edgeTail16" width="8.82" x="-0.00" y="35.19">
			<path d="M7.52 7.53C9.25 5.81 9.25 3.02 7.52 1.30 C5.80 -0.43 3.01 -0.43 1.29 1.30 C-0.43 3.02 -0.43 5.81 1.29 7.53 C3.01 9.25 5.80 9.25 7.52 7.53 " fill="#000000" fill-opacity="1.00" />
		</svg>
	</svg>
	<svg height="36.92" id="edgeLine21" width="8.00" x="150.50" y="195.77">
		<path d="M4.00 32.92L4.00 24.12 C4.00 19.90 4.00 15.40 4.00 10.92 " fill="none" stroke="#000000" stroke-opacity="1.00" stroke-width="1.50" />
		<svg height="10.00" id="edgeHead21" width="8.00" x="0.00" y="-0.00">
			<path d="M3.00 10.00L3.00 10.00 L0.00 10.00 L4.00 0.00 L8.00 10.00 L5.00 10.00 L5.00 10.00 ZM3.00 10.00" fill="#000000" fill-opacity="1.00" />
		</svg>
		<svg height="8.80" id="edgeTail21" width="0.00" x="4.00" y="24.12">
			<path d="M0.00 8.80L0.00 -0.00 " fill="#000000" fill-opacity="1.00" />
		</svg>
	</svg>
	<svg height="35.78" id="edgeLine18" width="48.10" x="260.56" y="105.63">
		<path d="M40.16 28.95C30.41 22.22 20.80 15.59 12.82 10.08 L4.00 4.00 " fill="none" stroke="#000000" stroke-opacity="1.00" stroke-width="1.50" />
		<svg height="6.09" id="edgeHead18" width="8.82" x="4.00" y="4.00">
			<path d="M0.00 0.00L8.82 6.09 " fill="#000000" fill-opacity="1.00" />
		</svg>
		<svg height="8.72" id="edgeTail18" width="8.72" x="39.39" y="27.06">
			<path d="M7.44 7.44C9.14 5.74 9.14 2.98 7.44 1.28 C5.74 -0.42 2.98 -0.42 1.28 1.28 C-0.43 2.98 -0.43 5.74 1.28 7.44 C2.98 9.15 5.74 9.15 7.44 7.44 " fill="#000000" fill-opacity="1.00" />
		</svg>
	</svg>
	<svg height="34.40" id="edgeLine22" width="38.55" x="160.75" y="248.84">
		<path d="M30.88 27.18C24.28 21.49 17.78 15.89 12.12 11.00 L4.00 4.00 " fill="none" stroke="#000000" stroke-opacity="1.00" stroke-width="1.50" />
		<svg height="7.00" id="edgeHead22" width="8.12" x="4.00" y="4.00">
			<path d="M0.00 -0.00L8.12 7.00 " fill="#000000" fill-opacity="1.00" />
		</svg>
		<svg height="8.74" id="edgeTail22" width="8.74" x="29.82" y="25.66">
			<path d="M7.46 7.46C9.16 5.75 9.16 2.99 7.46 1.28 C5.75 -0.42 2.99 -0.42 1.28 1.28 C-0.43 2.99 -0.43 5.75 1.28 7.46 C2.99 9.17 5.75 9.17 7.46 7.46 " fill="#000000" fill-opacity="1.00" />
		</svg>
	</svg>
</svg>