<?xml version="1.0" encoding="utf-8" standalone="no"?>
<svg version="1.1" viewBox="0.00 0.00 936.50 674.00" xmlns="http://www.w3.org/2000/svg">
	<svg height="100.00" id="node13" width="200.00" x="432.50" y="177.00">
		<svg height="68.00" width="131.50" x="34.50" y="16.00">
			<path d="M2.00 34.00L2.00 11.00 C2.00 6.03 6.03 2.00 11.00 2.00 L120.50 2.00 C125.47 2.00 129.50 6.03 129.50 11.00 L129.50 57.00 C129.50 61.97 125.47 66.00 120.50 66.00 C120.50 66.00 120.50 66.00 120.50 66.00 L11.00 66.00 C6.03 66.00 2.00 61.97 2.00 57.00 ZM2.00 34.00" fill="#ffffff" fill-opacity="1.00" />
			<svg height="68.00" width="131.50" x="0.00" y="0.00">
				<path d="M2.75 21.75L2.75 10.25 C2.75 6.11 6.11 2.75 10.25 2.75 L121.25 2.75 C125.39 2.75 128.75 6.11 128.75 10.25 L128.75 21.75 L2.75 21.75 " fill="#8e96cc" fill-opacity="1.00" />
				<text dominant-baseline="middle" fill="#000000" fill-opacity="1.00" font-family="Verdana" font-size="11.00" font-weight="bold" text-anchor="middle" x="65.75" y="12.25">Injection</text>
				<svg height="68.00" width="131.50" x="0.00" y="0.00">
					<path d="M2.00 34.00L2.00 11.00 C2.00 6.03 6.03 2.00 11.00 2.00 L120.50 2.00 C125.47 2.00 129.50 6.03 129.50 11.00 L129.50 57.00 C129.50 61.97 125.47 66.00 120.50 66.00 C120.50 66.00 120.50 66.00 120.50 66.00 L11.00 66.00 C6.03 66.00 2.00 61.97 2.00 57.00 ZM2.00 34.00" fill="none" stroke="#000000" stroke-opacity="1.00" stroke-width="1.50" />
					<svg height="35.00" width="117.50" x="7.00" y="26.00">
						<svg height="35.00" width="117.50" x="0.00" y="0.00">
							<text dominant-baseline="middle" fill="#000000" fill-opacity="1.00" font-family="Verdana" font-size="14.00" font-weight="normal" text-anchor="middle" x="58.75" y="8.75">Plan Active Time</text>
							<text dominant-baseline="middle" fill="#000000" fill-opacity="1.00" font-family="Verdana" font-size="14.00" font-weight="normal" text-anchor="middle" x="58.75" y="26.25">(Gym/Sports)</text>
						</svg>
					</svg>
				</svg>
			</svg>
		</svg>
	</svg>
	<svg height="100.00" id="node9" width="200.00" x="432.50" y="86.00">
		<svg height="32.00" width="32.00" x="84.00" y="34.00">
			<svg height="32.00" width="32.00" x="0.00" y="0.00">
				<svg x="0.00" y="-0.00">
					<path d="M6.57 13.27C6.57 13.27 6.64 13.51 6.75 13.85 C7.05 14.81 7.61 16.63 7.61 16.63 L5.40 16.63 C5.40 16.63 5.44 16.51 5.51 16.28 C5.59 16.05 5.67 15.77 5.77 15.44 L6.09 14.44 C6.20 14.11 6.28 13.84 6.36 13.61 C6.43 13.39 6.47 13.27 6.47 13.27 L6.57 13.27 L6.57 13.27 ZM19.37 11.55L17.68 11.55 L17.68 16.93 L17.57 16.93 L13.69 11.55 L12.21 11.55 L12.21 20.00 L13.91 20.00 L13.91 14.59 L14.01 14.59 L17.91 20.00 L19.37 20.00 L19.37 11.55 ZM26.49 13.72C26.92 14.20 27.13 14.88 27.13 15.75 C27.13 16.65 26.92 17.33 26.51 17.83 C26.08 18.31 25.48 18.55 24.69 18.55 L23.43 18.55 C23.43 18.55 23.43 18.41 23.43 18.13 C23.43 17.87 23.43 17.53 23.43 17.11 C23.43 16.69 23.43 16.24 23.43 15.77 C23.43 15.31 23.43 14.85 23.43 14.44 C23.43 14.01 23.43 13.67 23.43 13.40 C23.43 13.13 23.43 13.00 23.43 13.00 L24.69 13.00 C25.47 13.00 26.07 13.24 26.49 13.72 ZM24.97 11.53L21.65 11.53 L21.65 20.00 L24.97 20.00 C26.24 20.00 27.23 19.63 27.91 18.89 C28.60 18.15 28.95 17.09 28.95 15.72 C28.95 14.39 28.60 13.36 27.91 12.63 C27.21 11.91 26.24 11.53 24.97 11.53 ZM7.61 11.55L5.52 11.55 L2.60 20.00 L4.37 20.00 L5.03 17.95 L7.99 17.95 C7.99 17.95 8.03 18.05 8.09 18.25 C8.16 18.47 8.23 18.71 8.31 18.97 C8.40 19.24 8.47 19.48 8.53 19.69 C8.60 19.89 8.63 20.00 8.63 20.00 L10.55 20.00 L7.61 11.55 ZM32.00 16.00C32.00 24.84 24.84 32.00 16.00 32.00 C12.43 32.00 9.13 30.83 6.47 28.85 C2.55 25.93 0.00 21.27 0.00 16.00 C0.00 7.16 7.16 0.00 16.00 0.00 C24.84 0.00 32.00 7.16 32.00 16.00 ZM32.00 16.00" fill="#000000" fill-opacity="1.00" />
				</svg>
				<svg height="32.00" width="32.00" x="0.00" y="0.00" />
			</svg>
		</svg>
	</svg>
	<svg height="100.00" id="node3" width="200.00" x="475.50" y="485.00">
		<svg height="68.00" width="132.50" x="34.00" y="16.00">
			<path d="M2.00 34.00L2.00 11.00 C2.00 6.03 6.03 2.00 11.00 2.00 L121.50 2.00 C126.47 2.00 130.50 6.03 130.50 11.00 L130.50 57.00 C130.50 61.97 126.47 66.00 121.50 66.00 C121.50 66.00 121.50 66.00 121.50 66.00 L11.00 66.00 C6.03 66.00 2.00 61.97 2.00 57.00 ZM2.00 34.00" fill="#ffffff" fill-opacity="1.00" />
			<svg height="68.00" width="132.50" x="0.00" y="0.00">
				<path d="M2.75 21.75L2.75 10.25 C2.75 6.11 6.11 2.75 10.25 2.75 L122.25 2.75 C126.39 2.75 129.75 6.11 129.75 10.25 L129.75 21.75 L2.75 21.75 " fill="#8e96cc" fill-opacity="1.00" />
				<text dominant-baseline="middle" fill="#000000" fill-opacity="1.00" font-family="Verdana" font-size="11.00" font-weight="bold" text-anchor="middle" x="66.25" y="12.25">Injection</text>
				<svg height="68.00" width="132.50" x="0.00" y="0.00">
					<path d="M2.00 34.00L2.00 11.00 C2.00 6.03 6.03 2.00 11.00 2.00 L121.50 2.00 C126.47 2.00 130.50 6.03 130.50 11.00 L130.50 57.00 C130.50 61.97 126.47 66.00 121.50 66.00 C121.50 66.00 121.50 66.00 121.50 66.00 L11.00 66.00 C6.03 66.00 2.00 61.97 2.00 57.00 ZM2.00 34.00" fill="none" stroke="#000000" stroke-opacity="1.00" stroke-width="1.50" />
					<svg height="35.00" width="118.50" x="7.00" y="26.00">
						<svg height="35.00" width="118.50" x="0.00" y="0.00">
							<text dominant-baseline="middle" fill="#000000" fill-opacity="1.00" font-family="Verdana" font-size="14.00" font-weight="normal" text-anchor="middle" x="59.25" y="8.75">Plan the day</text>
							<text dominant-baseline="middle" fill="#000000" fill-opacity="1.00" font-family="Verdana" font-size="14.00" font-weight="normal" text-anchor="middle" x="59.25" y="26.25">(evening before)</text>
						</svg>
					</svg>
				</svg>
			</svg>
		</svg>
	</svg>
	<svg height="100.00" id="node4" width="200.00" x="385.50" y="294.50">
		<svg height="85.00" width="175.50" x="12.00" y="7.50">
			<path d="M2.00 42.50L2.00 11.00 C2.00 6.03 6.03 2.00 11.00 2.00 L164.50 2.00 C169.47 2.00 173.50 6.03 173.50 11.00 L173.50 74.00 C173.50 78.97 169.47 83.00 164.50 83.00 L11.00 83.00 C6.03 83.00 2.00 78.97 2.00 74.00 ZM2.00 42.50" fill="#ffffff" fill-opacity="1.00" />
			<svg height="85.00" width="175.50" x="0.00" y="0.00">
				<path d="M2.75 21.75L2.75 10.25 C2.75 6.11 6.11 2.75 10.25 2.75 L165.25 2.75 C169.39 2.75 172.75 6.11 172.75 10.25 L172.75 21.75 L2.75 21.75 " fill="#a7f253" fill-opacity="1.00" />
				<text dominant-baseline="middle" fill="#000000" fill-opacity="1.00" font-family="Verdana" font-size="11.00" font-weight="bold" text-anchor="middle" x="87.75" y="12.25">Desirable Effect</text>
				<svg height="85.00" width="175.50" x="0.00" y="0.00">
					<path d="M2.00 42.50L2.00 11.00 C2.00 6.03 6.03 2.00 11.00 2.00 L164.50 2.00 C169.47 2.00 173.50 6.03 173.50 11.00 L173.50 74.00 C173.50 78.97 169.47 83.00 164.50 83.00 L11.00 83.00 C6.03 83.00 2.00 78.97 2.00 74.00 ZM2.00 42.50" fill="none" stroke="#000000" stroke-opacity="1.00" stroke-width="1.50" />
					<svg height="52.00" width="161.50" x="7.00" y="26.00">
						<svg height="52.00" width="161.50" x="0.00" y="0.00">
							<text dominant-baseline="middle" fill="#000000" fill-opacity="1.00" font-family="Verdana" font-size="14.00" font-weight="normal" text-anchor="middle" x="80.75" y="8.67">Deliver the most</text>
							<text dominant-baseline="middle" fill="#000000" fill-opacity="1.00" font-family="Verdana" font-size="14.00" font-weight="normal" text-anchor="middle" x="80.75" y="26.00">important tasks during</text>
							<text dominant-baseline="middle" fill="#000000" fill-opacity="1.00" font-family="Verdana" font-size="14.00" font-weight="normal" text-anchor="middle" x="80.75" y="43.33">regular working hours</text>
						</svg>
					</svg>
				</svg>
			</svg>
		</svg>
	</svg>
	<svg height="100.00" id="node14" width="200.00" x="606.50" y="177.00">
		<svg height="51.00" width="143.50" x="28.00" y="24.50">
			<path d="M2.00 25.50L2.00 11.00 C2.00 6.03 6.03 2.00 11.00 2.00 L132.50 2.00 C137.47 2.00 141.50 6.03 141.50 11.00 L141.50 40.00 C141.50 44.97 137.47 49.00 132.50 49.00 C132.50 49.00 132.50 49.00 132.50 49.00 L11.00 49.00 C6.03 49.00 2.00 44.97 2.00 40.00 ZM2.00 25.50" fill="#ffffff" fill-opacity="1.00" />
			<svg height="51.00" width="143.50" x="0.00" y="0.00">
				<path d="M2.75 21.75L2.75 10.25 C2.75 6.11 6.11 2.75 10.25 2.75 L133.25 2.75 C137.39 2.75 140.75 6.11 140.75 10.25 L140.75 21.75 L2.75 21.75 " fill="#a7f253" fill-opacity="1.00" />
				<text dominant-baseline="middle" fill="#000000" fill-opacity="1.00" font-family="Verdana" font-size="11.00" font-weight="bold" text-anchor="middle" x="71.75" y="12.25">Desirable Effect</text>
				<svg height="51.00" width="143.50" x="0.00" y="0.00">
					<path d="M2.00 25.50L2.00 11.00 C2.00 6.03 6.03 2.00 11.00 2.00 L132.50 2.00 C137.47 2.00 141.50 6.03 141.50 11.00 L141.50 40.00 C141.50 44.97 137.47 49.00 132.50 49.00 C132.50 49.00 132.50 49.00 132.50 49.00 L11.00 49.00 C6.03 49.00 2.00 44.97 2.00 40.00 ZM2.00 25.50" fill="none" stroke="#000000" stroke-opacity="1.00" stroke-width="1.50" />
					<svg height="18.00" width="129.50" x="7.00" y="26.00">
						<svg height="18.00" width="129.50" x="0.00" y="0.00">
							<text dominant-baseline="middle" fill="#000000" fill-opacity="1.00" font-family="Verdana" font-size="14.00" font-weight="normal" text-anchor="middle" x="64.75" y="9.00">I feel like I deliver</text>
						</svg>
					</svg>
				</svg>
			</svg>
		</svg>
	</svg>
	<svg height="100.00" id="node2" width="200.00" x="290.50" y="485.00">
		<svg height="68.00" width="164.50" x="17.50" y="16.00">
			<path d="M2.00 34.00L2.00 11.00 C2.00 6.03 6.03 2.00 11.00 2.00 L153.50 2.00 C158.47 2.00 162.50 6.03 162.50 11.00 L162.50 57.00 C162.50 61.97 158.47 66.00 153.50 66.00 C153.50 66.00 153.50 66.00 153.50 66.00 L11.00 66.00 C6.03 66.00 2.00 61.97 2.00 57.00 ZM2.00 34.00" fill="#ffffff" fill-opacity="1.00" />
			<svg height="68.00" width="164.50" x="0.00" y="0.00">
				<path d="M2.75 21.75L2.75 10.25 C2.75 6.11 6.11 2.75 10.25 2.75 L154.25 2.75 C158.39 2.75 161.75 6.11 161.75 10.25 L161.75 21.75 L2.75 21.75 " fill="#3d26ea" fill-opacity="1.00" />
				<text dominant-baseline="middle" fill="#ffffff" fill-opacity="1.00" font-family="Verdana" font-size="11.00" font-weight="bold" text-anchor="middle" x="82.25" y="12.25">Intermediate Effect</text>
				<svg height="68.00" width="164.50" x="0.00" y="0.00">
					<path d="M2.00 34.00L2.00 11.00 C2.00 6.03 6.03 2.00 11.00 2.00 L153.50 2.00 C158.47 2.00 162.50 6.03 162.50 11.00 L162.50 57.00 C162.50 61.97 158.47 66.00 153.50 66.00 C153.50 66.00 153.50 66.00 153.50 66.00 L11.00 66.00 C6.03 66.00 2.00 61.97 2.00 57.00 ZM2.00 34.00" fill="none" stroke="#000000" stroke-opacity="1.00" stroke-width="1.50" />
					<svg height="35.00" width="150.50" x="7.00" y="26.00">
						<svg height="35.00" width="150.50" x="0.00" y="0.00">
							<text dominant-baseline="middle" fill="#000000" fill-opacity="1.00" font-family="Verdana" font-size="14.00" font-weight="normal" text-anchor="middle" x="75.25" y="8.75">I can chose to work</text>
							<text dominant-baseline="middle" fill="#000000" fill-opacity="1.00" font-family="Verdana" font-size="14.00" font-weight="normal" text-anchor="middle" x="75.25" y="26.25">on the relevant tasks</text>
						</svg>
					</svg>
				</svg>
			</svg>
		</svg>
	</svg>
	<svg height="100.00" id="node7" width="200.00" x="269.50" y="177.00">
		<svg height="68.00" width="121.50" x="39.00" y="16.00">
			<path d="M2.00 34.00L2.00 11.00 C2.00 6.03 6.03 2.00 11.00 2.00 L110.50 2.00 C115.47 2.00 119.50 6.03 119.50 11.00 L119.50 57.00 C119.50 61.97 115.47 66.00 110.50 66.00 C110.50 66.00 110.50 66.00 110.50 66.00 L11.00 66.00 C6.03 66.00 2.00 61.97 2.00 57.00 ZM2.00 34.00" fill="#ffffff" fill-opacity="1.00" />
			<svg height="68.00" width="121.50" x="0.00" y="0.00">
				<path d="M2.75 21.75L2.75 10.25 C2.75 6.11 6.11 2.75 10.25 2.75 L111.25 2.75 C115.39 2.75 118.75 6.11 118.75 10.25 L118.75 21.75 L2.75 21.75 " fill="#a7f253" fill-opacity="1.00" />
				<text dominant-baseline="middle" fill="#000000" fill-opacity="1.00" font-family="Verdana" font-size="11.00" font-weight="bold" text-anchor="middle" x="60.75" y="12.25">Desirable Effect</text>
				<svg height="68.00" width="121.50" x="0.00" y="0.00">
					<path d="M2.00 34.00L2.00 11.00 C2.00 6.03 6.03 2.00 11.00 2.00 L110.50 2.00 C115.47 2.00 119.50 6.03 119.50 11.00 L119.50 57.00 C119.50 61.97 115.47 66.00 110.50 66.00 C110.50 66.00 110.50 66.00 110.50 66.00 L11.00 66.00 C6.03 66.00 2.00 61.97 2.00 57.00 ZM2.00 34.00" fill="none" stroke="#000000" stroke-opacity="1.00" stroke-width="1.50" />
					<svg height="35.00" width="107.50" x="7.00" y="26.00">
						<svg height="35.00" width="107.50" x="0.00" y="0.00">
							<text dominant-baseline="middle" fill="#000000" fill-opacity="1.00" font-family="Verdana" font-size="14.00" font-weight="normal" text-anchor="middle" x="53.75" y="8.75">I have free</text>
							<text dominant-baseline="middle" fill="#000000" fill-opacity="1.00" font-family="Verdana" font-size="14.00" font-weight="normal" text-anchor="middle" x="53.75" y="26.25">time for myself</text>
						</svg>
					</svg>
				</svg>
			</svg>
		</svg>
	</svg>
	<svg height="100.00" id="node5" width="200.00" x="385.50" y="394.00">
		<svg height="32.00" width="32.00" x="84.00" y="34.00">
			<svg height="32.00" width="32.00" x="0.00" y="0.00">
				<svg x="0.00" y="-0.00">
					<path d="M6.57 13.27C6.57 13.27 6.64 13.51 6.75 13.85 C7.05 14.81 7.61 16.63 7.61 16.63 L5.40 16.63 C5.40 16.63 5.44 16.51 5.51 16.28 C5.59 16.05 5.67 15.77 5.77 15.44 L6.09 14.44 C6.20 14.11 6.28 13.84 6.36 13.61 C6.43 13.39 6.47 13.27 6.47 13.27 L6.57 13.27 L6.57 13.27 ZM19.37 11.55L17.68 11.55 L17.68 16.93 L17.57 16.93 L13.69 11.55 L12.21 11.55 L12.21 20.00 L13.91 20.00 L13.91 14.59 L14.01 14.59 L17.91 20.00 L19.37 20.00 L19.37 11.55 ZM26.49 13.72C26.92 14.20 27.13 14.88 27.13 15.75 C27.13 16.65 26.92 17.33 26.51 17.83 C26.08 18.31 25.48 18.55 24.69 18.55 L23.43 18.55 C23.43 18.55 23.43 18.41 23.43 18.13 C23.43 17.87 23.43 17.53 23.43 17.11 C23.43 16.69 23.43 16.24 23.43 15.77 C23.43 15.31 23.43 14.85 23.43 14.44 C23.43 14.01 23.43 13.67 23.43 13.40 C23.43 13.13 23.43 13.00 23.43 13.00 L24.69 13.00 C25.47 13.00 26.07 13.24 26.49 13.72 ZM24.97 11.53L21.65 11.53 L21.65 20.00 L24.97 20.00 C26.24 20.00 27.23 19.63 27.91 18.89 C28.60 18.15 28.95 17.09 28.95 15.72 C28.95 14.39 28.60 13.36 27.91 12.63 C27.21 11.91 26.24 11.53 24.97 11.53 ZM7.61 11.55L5.52 11.55 L2.60 20.00 L4.37 20.00 L5.03 17.95 L7.99 17.95 C7.99 17.95 8.03 18.05 8.09 18.25 C8.16 18.47 8.23 18.71 8.31 18.97 C8.40 19.24 8.47 19.48 8.53 19.69 C8.60 19.89 8.63 20.00 8.63 20.00 L10.55 20.00 L7.61 11.55 ZM32.00 16.00C32.00 24.84 24.84 32.00 16.00 32.00 C12.43 32.00 9.13 30.83 6.47 28.85 C2.55 25.93 0.00 21.27 0.00 16.00 C0.00 7.16 7.16 0.00 16.00 0.00 C24.84 0.00 32.00 7.16 32.00 16.00 ZM32.00 16.00" fill="#000000" fill-opacity="1.00" />
				</svg>
				<svg height="32.00" width="32.00" x="0.00" y="0.00" />
			</svg>
		</svg>
	</svg>
	<svg height="100.00" id="node10" width="200.00" x="761.50" y="177.00">
		<svg height="51.00" width="94.00" x="53.00" y="24.50">
			<path d="M2.00 25.50L2.00 11.00 C2.00 6.03 6.03 2.00 11.00 2.00 L83.00 2.00 C87.97 2.00 92.00 6.03 92.00 11.00 L92.00 40.00 C92.00 44.97 87.97 49.00 83.00 49.00 L11.00 49.00 C6.03 49.00 2.00 44.97 2.00 40.00 ZM2.00 25.50" fill="#ffffff" fill-opacity="1.00" />
			<svg height="51.00" width="94.00" x="0.00" y="0.00">
				<path d="M2.75 21.75L2.75 10.25 C2.75 6.11 6.11 2.75 10.25 2.75 L83.75 2.75 C87.89 2.75 91.25 6.11 91.25 10.25 L91.25 21.75 L2.75 21.75 " fill="#8e96cc" fill-opacity="1.00" />
				<text dominant-baseline="middle" fill="#000000" fill-opacity="1.00" font-family="Verdana" font-size="11.00" font-weight="bold" text-anchor="middle" x="47.00" y="12.25">Injection</text>
				<svg height="51.00" width="94.00" x="0.00" y="0.00">
					<path d="M2.00 25.50L2.00 11.00 C2.00 6.03 6.03 2.00 11.00 2.00 L83.00 2.00 C87.97 2.00 92.00 6.03 92.00 11.00 L92.00 40.00 C92.00 44.97 87.97 49.00 83.00 49.00 L11.00 49.00 C6.03 49.00 2.00 44.97 2.00 40.00 ZM2.00 25.50" fill="none" stroke="#000000" stroke-opacity="1.00" stroke-width="1.50" />
					<svg height="18.00" width="80.00" x="7.00" y="26.00">
						<svg height="18.00" width="80.00" x="0.00" y="0.00">
							<text dominant-baseline="middle" fill="#000000" fill-opacity="1.00" font-family="Verdana" font-size="14.00" font-weight="normal" text-anchor="middle" x="40.00" y="9.00">Sleep Early</text>
						</svg>
					</svg>
				</svg>
			</svg>
		</svg>
	</svg>
	<a href="">
		<svg height="100.00" id="node8" width="200.00" x="432.50" y="3.50">
			<svg height="51.00" width="117.00" x="41.50" y="24.50">
				<path d="M2.00 25.50L2.00 11.00 C2.00 6.03 6.03 2.00 11.00 2.00 L106.00 2.00 C110.97 2.00 115.00 6.03 115.00 11.00 L115.00 40.00 C115.00 44.97 110.97 49.00 106.00 49.00 L11.00 49.00 C6.03 49.00 2.00 44.97 2.00 40.00 ZM2.00 25.50" fill="#ffffff" fill-opacity="1.00" />
				<svg height="51.00" width="117.00" x="0.00" y="0.00">
					<path d="M2.75 21.75L2.75 10.25 C2.75 6.11 6.11 2.75 10.25 2.75 L106.75 2.75 C110.89 2.75 114.25 6.11 114.25 10.25 L114.25 21.75 L2.75 21.75 " fill="#a7f253" fill-opacity="1.00" />
					<text dominant-baseline="middle" fill="#000000" fill-opacity="1.00" font-family="Verdana" font-size="11.00" font-weight="bold" text-anchor="middle" x="58.50" y="12.25">Desirable Effect</text>
					<svg height="51.00" width="117.00" x="0.00" y="0.00">
						<path d="M2.00 25.50L2.00 11.00 C2.00 6.03 6.03 2.00 11.00 2.00 L106.00 2.00 C110.97 2.00 115.00 6.03 115.00 11.00 L115.00 40.00 C115.00 44.97 110.97 49.00 106.00 49.00 L11.00 49.00 C6.03 49.00 2.00 44.97 2.00 40.00 ZM2.00 25.50" fill="none" stroke="#000000" stroke-opacity="1.00" stroke-width="1.50" />
						<svg height="18.00" width="103.00" x="7.00" y="26.00">
							<svg height="18.00" width="103.00" x="0.00" y="0.00">
								<text dominant-baseline="middle" fill="#000000" fill-opacity="1.00" font-family="Verdana" font-size="14.00" font-weight="normal" text-anchor="middle" x="51.50" y="9.00">Feel Energised</text>
							</svg>
						</svg>
					</svg>
				</svg>
			</svg>
		</svg>
	</a>
	<a href="">
		<svg height="100.00" id="node1" width="200.00" x="219.50" y="585.50">
			<svg height="51.00" width="185.50" x="7.50" y="24.50">
				<path d="M2.00 25.50L2.00 11.00 C2.00 6.03 6.03 2.00 11.00 2.00 L174.50 2.00 C179.47 2.00 183.50 6.03 183.50 11.00 L183.50 40.00 C183.50 44.97 179.47 49.00 174.50 49.00 C174.50 49.00 174.50 49.00 174.50 49.00 L11.00 49.00 C6.03 49.00 2.00 44.97 2.00 40.00 ZM2.00 25.50" fill="#ffffff" fill-opacity="1.00" />
				<svg height="51.00" width="185.50" x="0.00" y="0.00">
					<path d="M2.75 21.75L2.75 10.25 C2.75 6.11 6.11 2.75 10.25 2.75 L175.25 2.75 C179.39 2.75 182.75 6.11 182.75 10.25 L182.75 21.75 L2.75 21.75 " fill="#8e96cc" fill-opacity="1.00" />
					<text dominant-baseline="middle" fill="#000000" fill-opacity="1.00" font-family="Verdana" font-size="11.00" font-weight="bold" text-anchor="middle" x="92.75" y="12.25">Injection</text>
					<svg height="51.00" width="185.50" x="0.00" y="0.00">
						<path d="M2.00 25.50L2.00 11.00 C2.00 6.03 6.03 2.00 11.00 2.00 L174.50 2.00 C179.47 2.00 183.50 6.03 183.50 11.00 L183.50 40.00 C183.50 44.97 179.47 49.00 174.50 49.00 C174.50 49.00 174.50 49.00 174.50 49.00 L11.00 49.00 C6.03 49.00 2.00 44.97 2.00 40.00 ZM2.00 25.50" fill="none" stroke="#000000" stroke-opacity="1.00" stroke-width="1.50" />
						<svg height="18.00" width="171.50" x="7.00" y="26.00">
							<svg height="18.00" width="171.50" x="0.00" y="0.00">
								<text dominant-baseline="middle" fill="#000000" fill-opacity="1.00" font-family="Verdana" font-size="14.00" font-weight="normal" text-anchor="middle" x="85.75" y="9.00">Define Goals &amp; Priorities</text>
							</svg>
						</svg>
					</svg>
				</svg>
			</svg>
		</svg>
	</a>
	<svg height="53.43" id="edgeLine4" width="53.94" x="490.98" y="450.38">
		<path d="M46.64 46.16C34.42 34.08 21.48 21.28 11.55 11.47 L4.00 4.00 " fill="none" stroke="#000000" stroke-opacity="1.00" stroke-width="1.50" />
		<svg height="7.47" id="edgeHead4" width="7.55" x="4.00" y="4.00">
			<path d="M0.00 0.00L7.55 7.47 " fill="#000000" fill-opacity="1.00" />
		</svg>
		<svg height="8.00" id="edgeTail4" width="8.00" x="45.94" y="45.43">
			<path d="M6.83 6.83C8.39 5.27 8.39 2.73 6.83 1.17 C5.27 -0.39 2.73 -0.39 1.17 1.17 C-0.39 2.73 -0.39 5.27 1.17 6.83 C2.73 8.39 5.27 8.39 6.83 6.83 " fill="#000000" fill-opacity="1.00" />
		</svg>
	</svg>
	<svg height="45.49" id="edgeLine20" width="45.67" x="401.07" y="259.43">
		<path d="M38.28 38.11C28.15 28.03 17.52 17.44 7.69 7.65 " fill="none" stroke="#000000" stroke-opacity="1.00" stroke-width="1.50" />
		<svg height="9.89" id="edgeHead20" width="9.91" x="0.00" y="-0.00">
			<path d="M6.38 7.76L6.38 7.76 L4.26 9.89 L0.00 -0.00 L9.91 4.22 L7.79 6.35 L7.79 6.35 ZM6.38 7.76" fill="#000000" fill-opacity="1.00" />
		</svg>
		<svg height="8.00" id="edgeTail20" width="8.00" x="37.67" y="37.49">
			<path d="M6.83 6.83C8.39 5.27 8.39 2.73 6.83 1.17 C5.27 -0.39 2.73 -0.39 1.17 1.17 C-0.39 2.73 -0.39 5.27 1.17 6.83 C2.73 8.39 5.27 8.39 6.83 6.83 " fill="#000000" fill-opacity="1.00" />
		</svg>
	</svg>
	<svg height="53.51" id="edgeLine2" width="56.58" x="422.91" y="450.38">
		<path d="M7.57 46.16C20.47 34.08 34.13 21.29 44.61 11.47 L52.58 4.00 " fill="none" stroke="#000000" stroke-opacity="1.00" stroke-width="1.50" />
		<svg height="7.47" id="edgeHead2" width="7.97" x="44.61" y="4.00">
			<path d="M7.97 0.00L0.00 7.47 " fill="#000000" fill-opacity="1.00" />
		</svg>
		<svg height="8.00" id="edgeTail2" width="8.00" x="0.00" y="45.51">
			<path d="M6.83 6.83C8.39 5.27 8.39 2.73 6.83 1.17 C5.27 -0.39 2.73 -0.39 1.17 1.17 C-0.39 2.73 -0.39 5.27 1.17 6.83 C2.73 8.39 5.27 8.39 6.83 6.83 " fill="#000000" fill-opacity="1.00" />
		</svg>
	</svg>
	<svg height="48.35" id="edgeLine12" width="8.00" x="528.50" y="146.27">
		<path d="M4.00 39.61C4.00 31.20 4.00 22.58 4.00 14.96 L4.00 4.00 " fill="none" stroke="#000000" stroke-opacity="1.00" stroke-width="1.50" />
		<svg height="10.96" id="edgeHead12" width="0.00" x="4.00" y="4.00">
			<path d="M0.00 -0.00L0.00 10.96 " fill="#000000" fill-opacity="1.00" />
		</svg>
		<svg height="8.00" id="edgeTail12" width="8.00" x="0.00" y="40.35">
			<path d="M6.83 6.83C8.39 5.27 8.39 2.73 6.83 1.17 C5.27 -0.39 2.73 -0.39 1.17 1.17 C-0.39 2.73 -0.39 5.27 1.17 6.83 C2.73 8.39 5.27 8.39 6.83 6.83 " fill="#000000" fill-opacity="1.00" />
		</svg>
	</svg>
	<svg height="57.14" id="edgeLine7" width="98.00" x="426.48" y="139.56">
		<path d="M8.13 50.88C35.34 36.03 65.09 19.78 84.57 9.15 L94.00 4.00 " fill="none" stroke="#000000" stroke-opacity="1.00" stroke-width="1.50" />
		<svg height="5.15" id="edgeHead7" width="9.43" x="84.57" y="4.00">
			<path d="M9.43 0.00L0.00 5.15 " fill="#000000" fill-opacity="1.00" />
		</svg>
		<svg height="8.00" id="edgeTail7" width="8.00" x="0.00" y="49.14">
			<path d="M6.83 6.83C8.39 5.27 8.39 2.73 6.83 1.17 C5.27 -0.39 2.73 -0.39 1.17 1.17 C-0.39 2.73 -0.39 5.27 1.17 6.83 C2.73 8.39 5.27 8.39 6.83 6.83 " fill="#000000" fill-opacity="1.00" />
		</svg>
	</svg>
	<svg height="70.62" id="edgeLine9" width="274.72" x="542.55" y="134.93">
		<path d="M266.42 64.79C262.25 63.08 258.06 61.48 253.95 60.07 C168.44 30.72 62.10 12.69 14.73 5.57 L4.00 4.00 " fill="none" stroke="#000000" stroke-opacity="1.00" stroke-width="1.50" />
		<svg height="1.58" id="edgeHead9" width="10.73" x="4.00" y="4.00">
			<path d="M0.00 0.00L10.73 1.58 " fill="#000000" fill-opacity="1.00" />
		</svg>
		<svg height="8.00" id="edgeTail9" width="8.00" x="266.72" y="62.62">
			<path d="M6.83 6.83C8.39 5.27 8.39 2.73 6.83 1.17 C5.27 -0.39 2.73 -0.39 1.17 1.17 C-0.39 2.73 -0.39 5.27 1.17 6.83 C2.73 8.39 5.27 8.39 6.83 6.83 " fill="#000000" fill-opacity="1.00" />
		</svg>
	</svg>
	<svg height="48.44" id="edgeLine8" width="8.00" x="528.50" y="77.27">
		<path d="M4.00 44.44L4.00 35.77 C4.00 28.05 4.00 19.19 4.00 10.74 " fill="none" stroke="#000000" stroke-opacity="1.00" stroke-width="1.50" />
		<svg height="10.00" id="edgeHead8" width="8.00" x="0.00" y="0.00">
			<path d="M3.00 10.00L3.00 10.00 L0.00 10.00 L4.00 0.00 L8.00 10.00 L5.00 10.00 L5.00 10.00 ZM3.00 10.00" fill="#000000" fill-opacity="1.00" />
		</svg>
		<svg height="8.67" id="edgeTail8" width="0.00" x="4.00" y="35.77">
			<path d="M0.00 8.67L0.00 0.00 " fill="#000000" fill-opacity="1.00" />
		</svg>
	</svg>
	<svg height="48.50" id="edgeLine3" width="8.00" x="481.50" y="385.35">
		<path d="M4.00 44.50L4.00 35.60 C4.00 28.21 4.00 19.62 4.00 10.95 " fill="none" stroke="#000000" stroke-opacity="1.00" stroke-width="1.50" />
		<svg height="10.00" id="edgeHead3" width="8.00" x="0.00" y="0.00">
			<path d="M3.00 10.00L3.00 10.00 L0.00 10.00 L4.00 0.00 L8.00 10.00 L5.00 10.00 L5.00 10.00 ZM3.00 10.00" fill="#000000" fill-opacity="1.00" />
		</svg>
		<svg height="8.90" id="edgeTail3" width="0.00" x="4.00" y="35.60">
			<path d="M0.00 8.90L0.00 0.00 " fill="#000000" fill-opacity="1.00" />
		</svg>
	</svg>
	<svg height="54.84" id="edgeLine32" width="101.28" x="561.41" y="250.90">
		<path d="M8.43 48.53C36.37 33.92 66.68 18.08 91.64 5.04 " fill="none" stroke="#000000" stroke-opacity="1.00" stroke-width="1.50" />
		<svg height="8.18" id="edgeHead32" width="10.72" x="90.56" y="0.00">
			<path d="M1.39 3.75L1.39 3.75 L0.00 1.09 L10.72 0.00 L3.71 8.18 L2.32 5.52 L2.32 5.52 ZM1.39 3.75" fill="#000000" fill-opacity="1.00" />
		</svg>
		<svg height="8.00" id="edgeTail32" width="8.00" x="0.00" y="46.84">
			<path d="M6.83 6.83C8.39 5.27 8.39 2.73 6.83 1.17 C5.27 -0.39 2.73 -0.39 1.17 1.17 C-0.39 2.73 -0.39 5.27 1.17 6.83 C2.73 8.39 5.27 8.39 6.83 6.83 " fill="#000000" fill-opacity="1.00" />
		</svg>
	</svg>
	<svg height="55.04" id="edgeLine33" width="71.42" x="256.56" y="141.20">
		<path d="M63.57 48.19C45.69 34.93 26.52 20.70 12.66 10.43 L4.00 4.00 " fill="none" stroke="#000000" stroke-opacity="1.00" stroke-width="1.50" />
		<svg height="6.42" id="edgeHead33" width="8.66" x="4.00" y="4.00">
			<path d="M0.00 -0.00L8.66 6.42 " fill="#000000" fill-opacity="1.00" />
		</svg>
		<svg height="8.00" id="edgeTail33" width="8.00" x="63.42" y="47.04">
			<path d="M6.83 6.83C8.39 5.27 8.39 2.73 6.83 1.17 C5.27 -0.39 2.73 -0.39 1.17 1.17 C-0.39 2.73 -0.39 5.27 1.17 6.83 C2.73 8.39 5.27 8.39 6.83 6.83 " fill="#000000" fill-opacity="1.00" />
		</svg>
	</svg>
	<svg height="45.11" id="edgeLine35" width="33.63" x="334.31" y="567.30">
		<path d="M6.77 37.27C13.21 28.33 20.38 18.39 27.22 8.90 " fill="none" stroke="#000000" stroke-opacity="1.00" stroke-width="1.50" />
		<svg height="10.45" id="edgeHead35" width="9.09" x="24.54" y="0.00">
			<path d="M2.43 7.53L2.43 7.53 L0.00 5.77 L9.09 -0.00 L6.49 10.45 L4.06 8.70 L4.06 8.70 ZM2.43 7.53" fill="#000000" fill-opacity="1.00" />
		</svg>
		<svg height="8.00" id="edgeTail35" width="8.00" x="0.00" y="37.11">
			<path d="M6.83 6.83C8.39 5.27 8.39 2.73 6.83 1.17 C5.27 -0.39 2.73 -0.39 1.17 1.17 C-0.39 2.73 -0.39 5.27 1.17 6.83 C2.73 8.39 5.27 8.39 6.83 6.83 " fill="#000000" fill-opacity="1.00" />
		</svg>
	</svg>
	<svg height="465.53" id="edgeLine36" width="59.50" x="245.50" y="146.05">
		<path d="M4.00 4.00L4.00 12.61 C4.00 50.22 4.00 130.03 4.00 197.45 C4.00 298.95 4.00 298.95 4.00 298.95 C4.00 357.22 33.49 419.68 54.19 456.34 " fill="none" stroke="#a41b32" stroke-opacity="1.00" stroke-width="3.00" />
		<svg height="10.66" id="edgeHead36" width="8.47" x="51.03" y="454.87">
			<path d="M4.33 1.50L4.33 1.50 L6.93 0.00 L8.47 10.66 L0.00 4.00 L2.60 2.50 L2.60 2.50 ZM4.33 1.50" fill="#000000" fill-opacity="1.00" />
		</svg>
		<svg height="8.62" id="edgeTail36" width="0.00" x="4.00" y="4.00">
			<path d="M0.00 0.00L0.00 8.62 " fill="#000000" fill-opacity="1.00" />
		</svg>
	</svg>
	<svg height="100.00" id="node22" width="200.00" x="149.50" y="86.00">
		<svg height="32.00" width="32.00" x="84.00" y="34.00">
			<svg height="32.00" width="32.00" x="0.00" y="0.00">
				<svg x="0.00" y="-0.00">
					<path d="M6.57 13.27C6.57 13.27 6.64 13.51 6.75 13.85 C7.05 14.81 7.61 16.63 7.61 16.63 L5.40 16.63 C5.40 16.63 5.44 16.51 5.51 16.28 C5.59 16.05 5.67 15.77 5.77 15.44 L6.09 14.44 C6.20 14.11 6.28 13.84 6.36 13.61 C6.43 13.39 6.47 13.27 6.47 13.27 L6.57 13.27 L6.57 13.27 ZM19.37 11.55L17.68 11.55 L17.68 16.93 L17.57 16.93 L13.69 11.55 L12.21 11.55 L12.21 20.00 L13.91 20.00 L13.91 14.59 L14.01 14.59 L17.91 20.00 L19.37 20.00 L19.37 11.55 ZM26.49 13.72C26.92 14.20 27.13 14.88 27.13 15.75 C27.13 16.65 26.92 17.33 26.51 17.83 C26.08 18.31 25.48 18.55 24.69 18.55 L23.43 18.55 C23.43 18.55 23.43 18.41 23.43 18.13 C23.43 17.87 23.43 17.53 23.43 17.11 C23.43 16.69 23.43 16.24 23.43 15.77 C23.43 15.31 23.43 14.85 23.43 14.44 C23.43 14.01 23.43 13.67 23.43 13.40 C23.43 13.13 23.43 13.00 23.43 13.00 L24.69 13.00 C25.47 13.00 26.07 13.24 26.49 13.72 ZM24.97 11.53L21.65 11.53 L21.65 20.00 L24.97 20.00 C26.24 20.00 27.23 19.63 27.91 18.89 C28.60 18.15 28.95 17.09 28.95 15.72 C28.95 14.39 28.60 13.36 27.91 12.63 C27.21 11.91 26.24 11.53 24.97 11.53 ZM7.61 11.55L5.52 11.55 L2.60 20.00 L4.37 20.00 L5.03 17.95 L7.99 17.95 C7.99 17.95 8.03 18.05 8.09 18.25 C8.16 18.47 8.23 18.71 8.31 18.97 C8.40 19.24 8.47 19.48 8.53 19.69 C8.60 19.89 8.63 20.00 8.63 20.00 L10.55 20.00 L7.61 11.55 ZM32.00 16.00C32.00 24.84 24.84 32.00 16.00 32.00 C12.43 32.00 9.13 30.83 6.47 28.85 C2.55 25.93 0.00 21.27 0.00 16.00 C0.00 7.16 7.16 0.00 16.00 0.00 C24.84 0.00 32.00 7.16 32.00 16.00 ZM32.00 16.00" fill="#000000" fill-opacity="1.00" />
				</svg>
				<svg height="32.00" width="32.00" x="0.00" y="0.00" />
			</svg>
		</svg>
	</svg>
	<svg height="100.00" id="node23" width="200.00" x="1.50" y="177.00">
		<svg height="51.00" width="177.00" x="11.50" y="24.50">
			<path d="M2.00 25.50L2.00 11.00 C2.00 6.03 6.03 2.00 11.00 2.00 L166.00 2.00 C170.97 2.00 175.00 6.03 175.00 11.00 L175.00 40.00 C175.00 44.97 170.97 49.00 166.00 49.00 C166.00 49.00 166.00 49.00 166.00 49.00 L11.00 49.00 C6.03 49.00 2.00 44.97 2.00 40.00 ZM2.00 25.50" fill="#ffffff" fill-opacity="1.00" />
			<svg height="51.00" width="177.00" x="0.00" y="0.00">
				<path d="M2.75 21.75L2.75 10.25 C2.75 6.11 6.11 2.75 10.25 2.75 L166.75 2.75 C170.89 2.75 174.25 6.11 174.25 10.25 L174.25 21.75 L2.75 21.75 " fill="#8e96cc" fill-opacity="1.00" />
				<text dominant-baseline="middle" fill="#000000" fill-opacity="1.00" font-family="Verdana" font-size="11.00" font-weight="bold" text-anchor="middle" x="88.50" y="12.25">Injection</text>
				<svg height="51.00" width="177.00" x="0.00" y="0.00">
					<path d="M2.00 25.50L2.00 11.00 C2.00 6.03 6.03 2.00 11.00 2.00 L166.00 2.00 C170.97 2.00 175.00 6.03 175.00 11.00 L175.00 40.00 C175.00 44.97 170.97 49.00 166.00 49.00 C166.00 49.00 166.00 49.00 166.00 49.00 L11.00 49.00 C6.03 49.00 2.00 44.97 2.00 40.00 ZM2.00 25.50" fill="none" stroke="#000000" stroke-opacity="1.00" stroke-width="1.50" />
					<svg height="18.00" width="163.00" x="7.00" y="26.00">
						<svg height="18.00" width="163.00" x="0.00" y="0.00">
							<text dominant-baseline="middle" fill="#000000" fill-opacity="1.00" font-family="Verdana" font-size="14.00" font-weight="normal" text-anchor="middle" x="81.50" y="9.00">Monthly time to review</text>
						</svg>
					</svg>
				</svg>
			</svg>
		</svg>
	</svg>
	<svg height="65.01" id="edgeLine37" width="102.80" x="139.04" y="140.01">
		<path d="M8.01 58.60C35.18 42.26 68.40 22.28 89.50 9.59 L98.80 4.00 " fill="none" stroke="#000000" stroke-opacity="1.00" stroke-width="1.50" />
		<svg height="5.59" id="edgeHead37" width="9.30" x="89.50" y="4.00">
			<path d="M9.30 -0.00L0.00 5.59 " fill="#000000" fill-opacity="1.00" />
		</svg>
		<svg height="8.00" id="edgeTail37" width="8.00" x="0.00" y="57.01">
			<path d="M6.83 6.83C8.39 5.27 8.39 2.73 6.83 1.17 C5.27 -0.39 2.73 -0.39 1.17 1.17 C-0.39 2.73 -0.39 5.27 1.17 6.83 C2.73 8.39 5.27 8.39 6.83 6.83 " fill="#000000" fill-opacity="1.00" />
		</svg>
	</svg>
</svg>