<?xml version="1.0" encoding="utf-8" standalone="no"?>
<svg version="1.1" viewBox="0.00 0.00 440.50 630.00" xmlns="http://www.w3.org/2000/svg">
	<svg height="176.00" id="cluster1" width="122.00" x="233.44" y="145.00">
		<path d="M0.50 88.00L0.50 8.50 C0.50 4.08 4.08 0.50 8.50 0.50 L113.50 0.50 C117.92 0.50 121.50 4.08 121.50 8.50 L121.50 167.50 C121.50 171.92 117.92 175.50 113.50 175.50 L8.50 175.50 C4.08 175.50 0.50 171.92 0.50 167.50 ZM0.50 88.00" fill="none" stroke="#0d0d0d" stroke-opacity="0.60" stroke-width="1.00" />
		<path d="M1.00 88.00L1.00 9.00 C1.00 4.58 4.58 1.00 9.00 1.00 L113.00 1.00 C117.42 1.00 121.00 4.58 121.00 9.00 L121.00 167.00 C121.00 171.42 117.42 175.00 113.00 175.00 L9.00 175.00 C4.58 175.00 1.00 171.42 1.00 167.00 ZM1.00 88.00" fill="#c9c9c9" fill-opacity="0.60" />
		<svg height="15.00" width="81.00" x="8.00" y="7.00">
			<text dominant-baseline="middle" fill="#000000" fill-opacity="1.00" font-family="Verdana" font-size="12.00" font-weight="bold" text-anchor="middle" x="40.50" y="7.50">Meta Model</text>
		</svg>
	</svg>
	<svg height="176.00" id="cluster2" width="378.00" x="37.44" y="429.00">
		<path d="M0.50 88.00L0.50 8.50 C0.50 4.08 4.08 0.50 8.50 0.50 L369.50 0.50 C373.92 0.50 377.50 4.08 377.50 8.50 L377.50 167.50 C377.50 171.92 373.92 175.50 369.50 175.50 L8.50 175.50 C4.08 175.50 0.50 171.92 0.50 167.50 ZM0.50 88.00" fill="none" stroke="#0d0d0d" stroke-opacity="0.60" stroke-width="1.00" />
		<path d="M1.00 88.00L1.00 9.00 C1.00 4.58 4.58 1.00 9.00 1.00 L369.00 1.00 C373.42 1.00 377.00 4.58 377.00 9.00 L377.00 167.00 C377.00 171.42 373.42 175.00 369.00 175.00 L9.00 175.00 C4.58 175.00 1.00 171.42 1.00 167.00 ZM1.00 88.00" fill="#c9c9c9" fill-opacity="0.60" />
		<svg height="15.00" width="111.50" x="8.00" y="7.00">
			<text dominant-baseline="middle" fill="#000000" fill-opacity="1.00" font-family="Verdana" font-size="12.00" font-weight="bold" text-anchor="middle" x="55.75" y="7.50">Visual Elements</text>
		</svg>
	</svg>
	<svg height="100.00" id="node26" width="190.00" x="273.50" y="355.00">
		<svg height="32.00" width="99.00" x="45.50" y="34.00">
			<path d="M2.00 16.00L2.00 11.00 C2.00 6.03 6.03 2.00 11.00 2.00 L88.00 2.00 C92.97 2.00 97.00 6.03 97.00 11.00 L97.00 21.00 C97.00 25.97 92.97 30.00 88.00 30.00 C88.00 30.00 88.00 30.00 88.00 30.00 L11.00 30.00 C6.03 30.00 2.00 25.97 2.00 21.00 ZM2.00 16.00" fill="#000000" fill-opacity="0.00" />
			<svg height="32.00" width="99.00" x="0.00" y="0.00">
				<svg height="22.00" width="89.00" x="5.00" y="5.00">
					<text dominant-baseline="middle" fill="#000000" fill-opacity="1.00" font-family="Verdana" font-size="14.00" font-weight="normal" text-anchor="middle" x="44.50" y="11.00">defines valid</text>
				</svg>
			</svg>
		</svg>
	</svg>
	<svg height="100.00" id="node21" width="190.00" x="199.50" y="143.00">
		<svg height="32.00" width="74.50" x="57.50" y="34.00">
			<path d="M2.00 16.00L2.00 11.00 C2.00 6.03 6.03 2.00 11.00 2.00 L63.50 2.00 C68.47 2.00 72.50 6.03 72.50 11.00 L72.50 21.00 C72.50 25.97 68.47 30.00 63.50 30.00 C63.50 30.00 63.50 30.00 63.50 30.00 L11.00 30.00 C6.03 30.00 2.00 25.97 2.00 21.00 ZM2.00 16.00" fill="#cfebec" fill-opacity="1.00" />
			<svg height="32.00" width="75.00" x="0.00" y="0.00">
				<path d="M2.00 16.00L2.00 11.00 C2.00 6.03 6.03 2.00 11.00 2.00 L64.00 2.00 C68.97 2.00 73.00 6.03 73.00 11.00 L73.00 21.00 C73.00 25.97 68.97 30.00 64.00 30.00 C64.00 30.00 64.00 30.00 64.00 30.00 L11.00 30.00 C6.03 30.00 2.00 25.97 2.00 21.00 ZM2.00 16.00" fill="none" stroke="#000000" stroke-opacity="1.00" stroke-width="1.50" />
				<svg height="18.00" width="61.00" x="7.00" y="7.00">
					<svg height="18.00" width="61.00" x="0.00" y="0.00">
						<text dominant-baseline="middle" fill="#000000" fill-opacity="1.00" font-family="Verdana" font-size="14.00" font-weight="normal" text-anchor="middle" x="30.50" y="9.00">Notation</text>
					</svg>
				</svg>
			</svg>
		</svg>
	</svg>
	<svg height="100.00" id="node2" width="190.00" x="92.50" y="355.00">
		<svg height="32.00" width="85.00" x="52.50" y="34.00">
			<path d="M2.00 16.00L2.00 11.00 C2.00 6.03 6.03 2.00 11.00 2.00 L74.00 2.00 C78.97 2.00 83.00 6.03 83.00 11.00 L83.00 21.00 C83.00 25.97 78.97 30.00 74.00 30.00 C74.00 30.00 74.00 30.00 74.00 30.00 L11.00 30.00 C6.03 30.00 2.00 25.97 2.00 21.00 ZM2.00 16.00" fill="#000000" fill-opacity="0.00" />
			<svg height="32.00" width="85.00" x="0.00" y="0.00">
				<svg height="22.00" width="75.00" x="5.00" y="5.00">
					<text dominant-baseline="middle" fill="#000000" fill-opacity="1.00" font-family="Verdana" font-size="14.00" font-weight="normal" text-anchor="middle" x="37.50" y="11.00">consists of</text>
				</svg>
			</svg>
		</svg>
	</svg>
	<svg height="100.00" id="node17" width="190.00" x="-8.50" y="355.00">
		<svg height="32.00" width="74.00" x="58.00" y="34.00">
			<path d="M2.00 16.00L2.00 11.00 C2.00 6.03 6.03 2.00 11.00 2.00 L63.00 2.00 C67.97 2.00 72.00 6.03 72.00 11.00 L72.00 21.00 C72.00 25.97 67.97 30.00 63.00 30.00 C63.00 30.00 63.00 30.00 63.00 30.00 L11.00 30.00 C6.03 30.00 2.00 25.97 2.00 21.00 ZM2.00 16.00" fill="#000000" fill-opacity="0.00" />
			<svg height="32.00" width="74.00" x="0.00" y="0.00">
				<svg height="22.00" width="64.00" x="5.00" y="5.00">
					<text dominant-baseline="middle" fill="#000000" fill-opacity="1.00" font-family="Verdana" font-size="14.00" font-weight="normal" text-anchor="middle" x="32.00" y="11.00">can have</text>
				</svg>
			</svg>
		</svg>
	</svg>
	<svg height="100.00" id="node28" width="190.00" x="139.50" y="427.00">
		<svg height="32.00" width="168.00" x="11.00" y="34.00">
			<path d="M2.00 16.00L2.00 11.00 C2.00 6.03 6.03 2.00 11.00 2.00 L157.00 2.00 C161.97 2.00 166.00 6.03 166.00 11.00 L166.00 21.00 C166.00 25.97 161.97 30.00 157.00 30.00 L11.00 30.00 C6.03 30.00 2.00 25.97 2.00 21.00 ZM2.00 16.00" fill="#cfebec" fill-opacity="1.00" />
			<svg height="32.00" width="168.00" x="0.00" y="0.00">
				<path d="M2.00 16.00L2.00 11.00 C2.00 6.03 6.03 2.00 11.00 2.00 L157.00 2.00 C161.97 2.00 166.00 6.03 166.00 11.00 L166.00 21.00 C166.00 25.97 161.97 30.00 157.00 30.00 L11.00 30.00 C6.03 30.00 2.00 25.97 2.00 21.00 ZM2.00 16.00" fill="none" stroke="#000000" stroke-opacity="1.00" stroke-width="1.50" />
				<svg height="18.00" width="154.00" x="7.00" y="7.00">
					<svg height="18.00" width="154.00" x="0.00" y="0.00">
						<text dominant-baseline="middle" fill="#000000" fill-opacity="1.00" font-family="Verdana" font-size="14.00" font-weight="normal" text-anchor="middle" x="77.00" y="9.00">Visual Representation</text>
					</svg>
				</svg>
			</svg>
		</svg>
	</svg>
	<svg height="100.00" id="node7" width="190.00" x="-8.50" y="427.00">
		<svg height="32.00" width="84.50" x="52.50" y="34.00">
			<path d="M2.00 16.00L2.00 11.00 C2.00 6.03 6.03 2.00 11.00 2.00 L73.50 2.00 C78.47 2.00 82.50 6.03 82.50 11.00 L82.50 21.00 C82.50 25.97 78.47 30.00 73.50 30.00 C73.50 30.00 73.50 30.00 73.50 30.00 L11.00 30.00 C6.03 30.00 2.00 25.97 2.00 21.00 ZM2.00 16.00" fill="#cfebec" fill-opacity="1.00" />
			<svg height="32.00" width="85.00" x="0.00" y="0.00">
				<path d="M2.00 16.00L2.00 11.00 C2.00 6.03 6.03 2.00 11.00 2.00 L74.00 2.00 C78.97 2.00 83.00 6.03 83.00 11.00 L83.00 21.00 C83.00 25.97 78.97 30.00 74.00 30.00 C74.00 30.00 74.00 30.00 74.00 30.00 L11.00 30.00 C6.03 30.00 2.00 25.97 2.00 21.00 ZM2.00 16.00" fill="none" stroke="#000000" stroke-opacity="1.00" stroke-width="1.50" />
				<svg height="18.00" width="71.00" x="7.00" y="7.00">
					<svg height="18.00" width="71.00" x="0.00" y="0.00">
						<text dominant-baseline="middle" fill="#000000" fill-opacity="1.00" font-family="Verdana" font-size="14.00" font-weight="normal" text-anchor="middle" x="35.50" y="9.00">Cluster(s)</text>
					</svg>
				</svg>
			</svg>
		</svg>
	</svg>
	<svg height="100.00" id="node4" width="190.00" x="279.50" y="427.00">
		<svg height="32.00" width="70.00" x="60.00" y="34.00">
			<path d="M2.00 16.00L2.00 11.00 C2.00 6.03 6.03 2.00 11.00 2.00 L59.00 2.00 C63.97 2.00 68.00 6.03 68.00 11.00 L68.00 21.00 C68.00 25.97 63.97 30.00 59.00 30.00 C59.00 30.00 59.00 30.00 59.00 30.00 L11.00 30.00 C6.03 30.00 2.00 25.97 2.00 21.00 ZM2.00 16.00" fill="#cfebec" fill-opacity="1.00" />
			<svg height="32.00" width="70.00" x="0.00" y="0.00">
				<path d="M2.00 16.00L2.00 11.00 C2.00 6.03 6.03 2.00 11.00 2.00 L59.00 2.00 C63.97 2.00 68.00 6.03 68.00 11.00 L68.00 21.00 C68.00 25.97 63.97 30.00 59.00 30.00 C59.00 30.00 59.00 30.00 59.00 30.00 L11.00 30.00 C6.03 30.00 2.00 25.97 2.00 21.00 ZM2.00 16.00" fill="none" stroke="#000000" stroke-opacity="1.00" stroke-width="1.50" />
				<svg height="18.00" width="56.00" x="7.00" y="7.00">
					<svg height="18.00" width="56.00" x="0.00" y="0.00">
						<text dominant-baseline="middle" fill="#000000" fill-opacity="1.00" font-family="Verdana" font-size="14.00" font-weight="normal" text-anchor="middle" x="28.00" y="9.00">Edge(s)</text>
					</svg>
				</svg>
			</svg>
		</svg>
	</svg>
	<svg height="100.00" id="node25" width="190.00" x="199.50" y="196.00">
		<svg height="32.00" width="69.50" x="60.00" y="34.00">
			<path d="M2.00 16.00L2.00 11.00 C2.00 6.03 6.03 2.00 11.00 2.00 L58.50 2.00 C63.47 2.00 67.50 6.03 67.50 11.00 L67.50 21.00 C67.50 25.97 63.47 30.00 58.50 30.00 C58.50 30.00 58.50 30.00 58.50 30.00 L11.00 30.00 C6.03 30.00 2.00 25.97 2.00 21.00 ZM2.00 16.00" fill="#000000" fill-opacity="0.00" />
			<svg height="32.00" width="70.00" x="0.00" y="0.00">
				<svg height="22.00" width="60.00" x="5.00" y="5.00">
					<text dominant-baseline="middle" fill="#000000" fill-opacity="1.00" font-family="Verdana" font-size="14.00" font-weight="normal" text-anchor="middle" x="30.00" y="11.00">contains</text>
				</svg>
			</svg>
		</svg>
	</svg>
	<svg height="100.00" id="node3" width="190.00" x="-8.50" y="533.00">
		<svg height="32.00" width="71.00" x="59.50" y="34.00">
			<path d="M2.00 16.00L2.00 11.00 C2.00 6.03 6.03 2.00 11.00 2.00 L60.00 2.00 C64.97 2.00 69.00 6.03 69.00 11.00 L69.00 21.00 C69.00 25.97 64.97 30.00 60.00 30.00 C60.00 30.00 60.00 30.00 60.00 30.00 L11.00 30.00 C6.03 30.00 2.00 25.97 2.00 21.00 ZM2.00 16.00" fill="#cfebec" fill-opacity="1.00" />
			<svg height="32.00" width="71.00" x="0.00" y="0.00">
				<path d="M2.00 16.00L2.00 11.00 C2.00 6.03 6.03 2.00 11.00 2.00 L60.00 2.00 C64.97 2.00 69.00 6.03 69.00 11.00 L69.00 21.00 C69.00 25.97 64.97 30.00 60.00 30.00 C60.00 30.00 60.00 30.00 60.00 30.00 L11.00 30.00 C6.03 30.00 2.00 25.97 2.00 21.00 ZM2.00 16.00" fill="none" stroke="#000000" stroke-opacity="1.00" stroke-width="1.50" />
				<svg height="18.00" width="57.00" x="7.00" y="7.00">
					<svg height="18.00" width="57.00" x="0.00" y="0.00">
						<text dominant-baseline="middle" fill="#000000" fill-opacity="1.00" font-family="Verdana" font-size="14.00" font-weight="normal" text-anchor="middle" x="28.50" y="9.00">Node(s)</text>
					</svg>
				</svg>
			</svg>
		</svg>
	</svg>
	<svg height="100.00" id="node24" width="190.00" x="199.50" y="64.50">
		<svg height="45.00" width="192.50" x="-1.50" y="27.50">
			<path d="M2.00 22.50L2.00 11.00 C2.00 6.03 6.03 2.00 11.00 2.00 L181.50 2.00 C186.47 2.00 190.50 6.03 190.50 11.00 L190.50 34.00 C190.50 38.97 186.47 43.00 181.50 43.00 C181.50 43.00 181.50 43.00 181.50 43.00 L11.00 43.00 C6.03 43.00 2.00 38.97 2.00 34.00 ZM2.00 22.50" fill="#000000" fill-opacity="0.00" />
			<svg height="45.00" width="192.00" x="0.00" y="0.00">
				<svg height="35.00" width="182.00" x="5.00" y="5.00">
					<text dominant-baseline="middle" fill="#000000" fill-opacity="1.00" font-family="Verdana" font-size="14.00" font-weight="normal" text-anchor="middle" x="91.00" y="8.75">creation and</text>
					<text dominant-baseline="middle" fill="#000000" fill-opacity="1.00" font-family="Verdana" font-size="14.00" font-weight="normal" text-anchor="middle" x="91.00" y="26.25">manipulation is guided by</text>
				</svg>
			</svg>
		</svg>
	</svg>
	<svg height="100.00" id="node1" width="190.00" x="67.50" y="-21.00">
		<svg height="32.00" width="58.00" x="66.00" y="34.00">
			<path d="M2.00 16.00L2.00 11.00 C2.00 6.03 6.03 2.00 11.00 2.00 L47.00 2.00 C51.97 2.00 56.00 6.03 56.00 11.00 L56.00 21.00 C56.00 25.97 51.97 30.00 47.00 30.00 L11.00 30.00 C6.03 30.00 2.00 25.97 2.00 21.00 ZM2.00 16.00" fill="#8382ad" fill-opacity="1.00" />
			<svg height="32.00" width="58.00" x="0.00" y="0.00">
				<path d="M2.00 16.00L2.00 11.00 C2.00 6.03 6.03 2.00 11.00 2.00 L47.00 2.00 C51.97 2.00 56.00 6.03 56.00 11.00 L56.00 21.00 C56.00 25.97 51.97 30.00 47.00 30.00 L11.00 30.00 C6.03 30.00 2.00 25.97 2.00 21.00 ZM2.00 16.00" fill="none" stroke="#000000" stroke-opacity="1.00" stroke-width="1.50" />
				<svg height="18.00" width="44.00" x="7.00" y="7.00">
					<svg height="18.00" width="44.00" x="0.00" y="0.00">
						<text dominant-baseline="middle" fill="#000000" fill-opacity="1.00" font-family="Verdana" font-size="14.00" font-weight="normal" text-anchor="middle" x="22.00" y="9.00">Graph</text>
					</svg>
				</svg>
			</svg>
		</svg>
	</svg>
	<svg height="100.00" id="node18" width="190.00" x="199.50" y="249.00">
		<svg height="32.00" width="110.00" x="40.00" y="34.00">
			<path d="M2.00 16.00L2.00 11.00 C2.00 6.03 6.03 2.00 11.00 2.00 L99.00 2.00 C103.97 2.00 108.00 6.03 108.00 11.00 L108.00 21.00 C108.00 25.97 103.97 30.00 99.00 30.00 C99.00 30.00 99.00 30.00 99.00 30.00 L11.00 30.00 C6.03 30.00 2.00 25.97 2.00 21.00 ZM2.00 16.00" fill="#cfebec" fill-opacity="1.00" />
			<svg height="32.00" width="110.00" x="0.00" y="0.00">
				<path d="M2.00 16.00L2.00 11.00 C2.00 6.03 6.03 2.00 11.00 2.00 L99.00 2.00 C103.97 2.00 108.00 6.03 108.00 11.00 L108.00 21.00 C108.00 25.97 103.97 30.00 99.00 30.00 C99.00 30.00 99.00 30.00 99.00 30.00 L11.00 30.00 C6.03 30.00 2.00 25.97 2.00 21.00 ZM2.00 16.00" fill="none" stroke="#000000" stroke-opacity="1.00" stroke-width="1.50" />
				<svg height="18.00" width="96.00" x="7.00" y="7.00">
					<svg height="18.00" width="96.00" x="0.00" y="0.00">
						<text dominant-baseline="middle" fill="#000000" fill-opacity="1.00" font-family="Verdana" font-size="14.00" font-weight="normal" text-anchor="middle" x="48.00" y="9.00">Node Type(s)</text>
					</svg>
				</svg>
			</svg>
		</svg>
	</svg>
	<svg height="100.00" id="node29" width="190.00" x="107.50" y="480.00">
		<svg height="32.00" width="66.00" x="62.00" y="34.00">
			<path d="M2.00 16.00L2.00 11.00 C2.00 6.03 6.03 2.00 11.00 2.00 L55.00 2.00 C59.97 2.00 64.00 6.03 64.00 11.00 L64.00 21.00 C64.00 25.97 59.97 30.00 55.00 30.00 C55.00 30.00 55.00 30.00 55.00 30.00 L11.00 30.00 C6.03 30.00 2.00 25.97 2.00 21.00 ZM2.00 16.00" fill="#000000" fill-opacity="0.00" />
			<svg height="32.00" width="66.00" x="0.00" y="0.00">
				<svg height="22.00" width="56.00" x="5.00" y="5.00">
					<text dominant-baseline="middle" fill="#000000" fill-opacity="1.00" font-family="Verdana" font-size="14.00" font-weight="normal" text-anchor="middle" x="28.00" y="11.00">used by</text>
				</svg>
			</svg>
		</svg>
	</svg>
	<svg height="100.00" id="node27" width="190.00" x="-8.50" y="480.00">
		<svg height="32.00" width="59.00" x="65.50" y="34.00">
			<path d="M2.00 16.00L2.00 11.00 C2.00 6.03 6.03 2.00 11.00 2.00 L48.00 2.00 C52.97 2.00 57.00 6.03 57.00 11.00 L57.00 21.00 C57.00 25.97 52.97 30.00 48.00 30.00 L11.00 30.00 C6.03 30.00 2.00 25.97 2.00 21.00 ZM2.00 16.00" fill="#000000" fill-opacity="0.00" />
			<svg height="32.00" width="59.00" x="0.00" y="0.00">
				<svg height="22.00" width="49.00" x="5.00" y="5.00">
					<text dominant-baseline="middle" fill="#000000" fill-opacity="1.00" font-family="Verdana" font-size="14.00" font-weight="normal" text-anchor="middle" x="24.50" y="11.00">groups</text>
				</svg>
			</svg>
		</svg>
	</svg>
	<svg height="100.00" id="node5" width="190.00" x="237.50" y="480.00">
		<svg height="32.00" width="103.00" x="43.50" y="34.00">
			<path d="M2.00 16.00L2.00 11.00 C2.00 6.03 6.03 2.00 11.00 2.00 L92.00 2.00 C96.97 2.00 101.00 6.03 101.00 11.00 L101.00 21.00 C101.00 25.97 96.97 30.00 92.00 30.00 C92.00 30.00 92.00 30.00 92.00 30.00 L11.00 30.00 C6.03 30.00 2.00 25.97 2.00 21.00 ZM2.00 16.00" fill="#000000" fill-opacity="0.00" />
			<svg height="32.00" width="103.00" x="0.00" y="0.00">
				<svg height="22.00" width="93.00" x="5.00" y="5.00">
					<text dominant-baseline="middle" fill="#000000" fill-opacity="1.00" font-family="Verdana" font-size="14.00" font-weight="normal" text-anchor="middle" x="46.50" y="11.00">connects two</text>
				</svg>
			</svg>
		</svg>
	</svg>
	<svg height="100.00" id="node19" width="190.00" x="188.50" y="302.00">
		<svg height="32.00" width="61.00" x="64.50" y="34.00">
			<path d="M2.00 16.00L2.00 11.00 C2.00 6.03 6.03 2.00 11.00 2.00 L50.00 2.00 C54.97 2.00 59.00 6.03 59.00 11.00 L59.00 21.00 C59.00 25.97 54.97 30.00 50.00 30.00 L11.00 30.00 C6.03 30.00 2.00 25.97 2.00 21.00 ZM2.00 16.00" fill="#000000" fill-opacity="0.00" />
			<svg height="32.00" width="61.00" x="0.00" y="0.00">
				<svg height="22.00" width="51.00" x="5.00" y="5.00">
					<text dominant-baseline="middle" fill="#000000" fill-opacity="1.00" font-family="Verdana" font-size="14.00" font-weight="normal" text-anchor="middle" x="25.50" y="11.00">defines</text>
				</svg>
			</svg>
		</svg>
	</svg>
	<svg height="28.11" id="edgeLine35" width="8.00" x="82.44" y="540.40">
		<path d="M4.00 4.00L4.00 12.93 C4.00 14.39 4.00 15.85 4.00 17.32 " fill="none" stroke="#000000" stroke-opacity="1.00" stroke-width="1.50" />
		<svg height="10.00" id="edgeHead35" width="8.00" x="0.00" y="18.11">
			<path d="M5.00 0.00L5.00 0.00 L8.00 0.00 L4.00 10.00 L0.00 0.00 L3.00 0.00 L3.00 0.00 ZM5.00 0.00" fill="#000000" fill-opacity="1.00" />
		</svg>
		<svg height="8.93" id="edgeTail35" width="0.00" x="4.00" y="4.00">
			<path d="M0.00 -0.00L0.00 8.93 " fill="#000000" fill-opacity="1.00" />
		</svg>
	</svg>
	<svg height="56.21" id="edgeLine28" width="83.97" x="182.97" y="41.37">
		<path d="M8.11 6.75C26.48 18.37 50.61 33.64 70.94 46.49 L79.97 52.21 " fill="none" stroke="#000000" stroke-opacity="1.00" stroke-width="1.50" />
		<svg height="5.72" id="edgeHead28" width="9.04" x="70.94" y="46.49">
			<path d="M9.04 5.72L0.00 0.00 " fill="#000000" fill-opacity="1.00" />
		</svg>
		<svg height="8.79" id="edgeTail28" width="8.79" x="0.00" y="0.00">
			<path d="M7.51 7.50C9.22 5.79 9.22 3.00 7.51 1.28 C5.79 -0.43 3.00 -0.43 1.29 1.28 C-0.43 3.00 -0.43 5.79 1.29 7.50 C3.00 9.22 5.79 9.22 7.51 7.50 " fill="#000000" fill-opacity="1.00" />
		</svg>
	</svg>
	<svg height="28.11" id="edgeLine31" width="8.00" x="290.44" y="256.40">
		<path d="M4.00 4.00L4.00 12.93 C4.00 14.39 4.00 15.85 4.00 17.32 " fill="none" stroke="#000000" stroke-opacity="1.00" stroke-width="1.50" />
		<svg height="10.00" id="edgeHead31" width="8.00" x="0.00" y="18.11">
			<path d="M5.00 0.00L5.00 0.00 L8.00 0.00 L4.00 10.00 L0.00 0.00 L3.00 0.00 L3.00 0.00 ZM5.00 0.00" fill="#000000" fill-opacity="1.00" />
		</svg>
		<svg height="8.93" id="edgeTail31" width="0.00" x="4.00" y="4.00">
			<path d="M0.00 -0.00L0.00 8.93 " fill="#000000" fill-opacity="1.00" />
		</svg>
	</svg>
	<svg height="82.44" id="edgeLine32" width="60.38" x="303.61" y="312.20">
		<path d="M7.15 7.85C11.68 13.57 16.53 19.87 20.84 25.80 C31.16 40.01 42.11 56.43 50.51 69.35 L56.38 78.44 " fill="none" stroke="#000000" stroke-opacity="1.00" stroke-width="1.50" />
		<svg height="9.09" id="edgeHead32" width="5.87" x="50.51" y="69.35">
			<path d="M5.87 9.09L0.00 -0.00 " fill="#000000" fill-opacity="1.00" />
		</svg>
		<svg height="8.81" id="edgeTail32" width="8.81" x="0.00" y="0.00">
			<path d="M7.52 7.52C9.24 5.80 9.24 3.01 7.52 1.29 C5.80 -0.43 3.01 -0.43 1.29 1.29 C-0.43 3.01 -0.43 5.80 1.29 7.52 C3.01 9.24 5.80 9.24 7.52 7.52 " fill="#000000" fill-opacity="1.00" />
		</svg>
	</svg>
	<svg height="29.09" id="edgeLine4" width="25.42" x="339.55" y="490.42">
		<path d="M18.41 7.60C15.92 10.62 13.34 13.75 10.82 16.81 L4.00 25.09 " fill="none" stroke="#000000" stroke-opacity="1.00" stroke-width="1.50" />
		<svg height="8.28" id="edgeHead4" width="6.82" x="4.00" y="16.81">
			<path d="M0.00 8.28L6.82 0.00 " fill="#000000" fill-opacity="1.00" />
		</svg>
		<svg height="8.58" id="edgeTail4" width="8.58" x="16.84" y="-0.00">
			<path d="M7.32 7.32C8.99 5.65 8.99 2.93 7.32 1.26 C5.65 -0.41 2.93 -0.41 1.26 1.26 C-0.42 2.93 -0.42 5.65 1.26 7.32 C2.93 9.00 5.65 9.00 7.32 7.32 " fill="#000000" fill-opacity="1.00" />
		</svg>
	</svg>
	<svg height="351.48" id="edgeLine1" width="27.99" x="158.16" y="43.30">
		<path d="M4.29 8.57C4.29 25.42 4.29 49.28 4.29 70.20 C4.29 70.20 4.29 70.20 4.29 256.70 C4.29 285.03 13.17 316.53 20.34 337.36 L23.98 347.48 " fill="none" stroke="#000000" stroke-opacity="1.00" stroke-width="1.50" />
		<svg height="10.12" id="edgeHead1" width="3.64" x="20.34" y="337.36">
			<path d="M3.64 10.12L0.00 0.00 " fill="#000000" fill-opacity="1.00" />
		</svg>
		<svg height="8.57" id="edgeTail1" width="8.57" x="0.00" y="0.00">
			<path d="M7.32 7.31C8.99 5.64 8.99 2.93 7.32 1.25 C5.64 -0.42 2.93 -0.42 1.26 1.25 C-0.42 2.93 -0.42 5.64 1.26 7.31 C2.93 8.99 5.64 8.99 7.32 7.31 " fill="#000000" fill-opacity="1.00" />
		</svg>
	</svg>
	<svg height="100.40" id="edgeLine36" width="42.42" x="239.78" y="362.16">
		<path d="M38.42 4.00L35.13 12.25 C26.44 34.06 13.00 67.80 4.02 90.34 " fill="none" stroke="#000000" stroke-opacity="1.00" stroke-width="1.50" />
		<svg height="10.77" id="edgeHead36" width="7.43" x="0.00" y="89.63">
			<path d="M4.64 1.85L4.64 1.85 L7.43 2.96 L0.02 10.77 L0.00 -0.00 L2.79 1.11 L2.79 1.11 ZM4.64 1.85" fill="#000000" fill-opacity="1.00" />
		</svg>
		<svg height="8.24" id="edgeTail36" width="3.28" x="35.13" y="4.00">
			<path d="M3.28 -0.00L0.00 8.24 " fill="#000000" fill-opacity="1.00" />
		</svg>
	</svg>
	<svg height="28.21" id="edgeLine21" width="12.65" x="282.35" y="313.30">
		<path d="M7.36 8.64C7.00 10.30 6.64 11.97 6.28 13.64 L4.00 24.21 " fill="none" stroke="#000000" stroke-opacity="1.00" stroke-width="1.50" />
		<svg height="10.57" id="edgeHead21" width="2.28" x="4.00" y="13.64">
			<path d="M0.00 10.57L2.28 -0.00 " fill="#000000" fill-opacity="1.00" />
		</svg>
		<svg height="8.74" id="edgeTail21" width="8.74" x="3.91" y="-0.00">
			<path d="M7.46 7.46C9.17 5.75 9.17 2.99 7.46 1.28 C5.75 -0.43 2.99 -0.43 1.28 1.28 C-0.43 2.99 -0.43 5.75 1.28 7.46 C2.99 9.17 5.75 9.17 7.46 7.46 " fill="#000000" fill-opacity="1.00" />
		</svg>
	</svg>
	<svg height="28.11" id="edgeLine30" width="8.93" x="289.98" y="207.40">
		<path d="M4.47 8.93C4.47 10.39 4.47 11.85 4.47 13.32 L4.47 24.11 " fill="none" stroke="#000000" stroke-opacity="1.00" stroke-width="1.50" />
		<svg height="10.79" id="edgeHead30" width="0.00" x="4.47" y="13.32">
			<path d="M0.00 10.79L0.00 -0.00 " fill="#000000" fill-opacity="1.00" />
		</svg>
		<svg height="8.93" id="edgeTail30" width="8.93" x="0.00" y="-0.00">
			<path d="M7.62 7.62C9.37 5.88 9.37 3.05 7.62 1.31 C5.88 -0.44 3.05 -0.44 1.31 1.31 C-0.44 3.05 -0.44 5.88 1.31 7.62 C3.05 9.37 5.88 9.37 7.62 7.62 " fill="#000000" fill-opacity="1.00" />
		</svg>
	</svg>
	<svg height="39.54" id="edgeLine5" width="166.30" x="120.36" y="537.32">
		<path d="M162.30 4.01L153.58 5.81 C109.79 14.89 50.80 27.12 10.76 35.42 " fill="none" stroke="#000000" stroke-opacity="1.00" stroke-width="1.50" />
		<svg height="7.83" id="edgeHead5" width="10.60" x="0.00" y="31.71">
			<path d="M9.99 4.89L9.99 4.89 L10.60 7.83 L0.00 5.94 L8.98 -0.00 L9.59 2.93 L9.59 2.93 ZM9.99 4.89" fill="#000000" fill-opacity="1.00" />
		</svg>
		<svg height="1.81" id="edgeTail5" width="8.72" x="153.58" y="4.01">
			<path d="M8.72 0.00L0.00 1.81 " fill="#000000" fill-opacity="1.00" />
		</svg>
	</svg>
	<svg height="155.88" id="edgeLine2" width="139.47" x="11.02" y="412.74">
		<path d="M135.47 4.00L126.77 5.70 C125.64 5.90 124.53 6.09 123.42 6.27 C112.31 8.06 30.06 6.00 22.42 14.27 C-13.08 52.70 9.16 86.01 35.42 131.27 C39.10 137.61 44.16 143.56 49.45 148.79 " fill="none" stroke="#000000" stroke-opacity="1.00" stroke-width="1.50" />
		<svg height="9.70" id="edgeHead2" width="10.08" x="47.13" y="146.18">
			<path d="M3.37 2.22L3.37 2.22 L5.40 0.00 L10.08 9.70 L0.00 5.91 L2.02 3.69 L2.02 3.69 ZM3.37 2.22" fill="#000000" fill-opacity="1.00" />
		</svg>
		<svg height="1.70" id="edgeTail2" width="8.70" x="126.77" y="4.00">
			<path d="M8.70 0.00L0.00 1.70 " fill="#000000" fill-opacity="1.00" />
		</svg>
	</svg>
	<svg height="47.43" id="edgeLine29" width="8.00" x="290.44" y="131.20">
		<path d="M4.00 4.00L4.00 12.74 C4.00 20.54 4.00 28.92 4.00 36.47 " fill="none" stroke="#000000" stroke-opacity="1.00" stroke-width="1.50" />
		<svg height="10.00" id="edgeHead29" width="8.00" x="0.00" y="37.43">
			<path d="M5.00 0.00L5.00 0.00 L8.00 0.00 L4.00 10.00 L0.00 0.00 L3.00 0.00 L3.00 0.00 ZM5.00 0.00" fill="#000000" fill-opacity="1.00" />
		</svg>
		<svg height="8.74" id="edgeTail29" width="0.00" x="4.00" y="4.00">
			<path d="M0.00 0.00L0.00 8.74 " fill="#000000" fill-opacity="1.00" />
		</svg>
	</svg>
	<svg height="57.83" id="edgeLine3" width="141.85" x="224.34" y="405.00">
		<path d="M4.00 4.00L12.55 4.79 C46.96 8.09 89.37 13.66 105.10 22.00 C117.13 28.38 127.63 39.28 135.45 49.18 " fill="none" stroke="#000000" stroke-opacity="1.00" stroke-width="1.50" />
		<svg height="10.42" id="edgeHead3" width="9.16" x="132.69" y="47.41">
			<path d="M4.02 1.78L4.02 1.78 L6.43 0.00 L9.16 10.42 L0.00 4.76 L2.41 2.97 L2.41 2.97 ZM4.02 1.78" fill="#000000" fill-opacity="1.00" />
		</svg>
		<svg height="0.79" id="edgeTail3" width="8.55" x="4.00" y="4.00">
			<path d="M0.00 0.00L8.55 0.79 " fill="#000000" fill-opacity="1.00" />
		</svg>
	</svg>
	<svg height="47.05" id="edgeLine33" width="10.82" x="365.60" y="415.50">
		<path d="M4.00 4.00L4.76 12.86 C5.40 20.33 6.12 28.69 6.77 36.30 " fill="none" stroke="#000000" stroke-opacity="1.00" stroke-width="1.50" />
		<svg height="10.31" id="edgeHead33" width="7.97" x="2.85" y="36.74">
			<path d="M4.98 0.26L4.98 0.26 L7.97 0.00 L4.84 10.31 L0.00 0.69 L2.99 0.43 L2.99 0.43 ZM4.98 0.26" fill="#000000" fill-opacity="1.00" />
		</svg>
		<svg height="8.85" id="edgeTail33" width="0.76" x="4.00" y="4.00">
			<path d="M0.00 -0.00L0.76 8.85 " fill="#000000" fill-opacity="1.00" />
		</svg>
	</svg>
	<svg height="47.05" id="edgeLine19" width="8.00" x="82.44" y="415.50">
		<path d="M4.00 4.00L4.00 12.86 C4.00 20.33 4.00 28.69 4.00 36.30 " fill="none" stroke="#000000" stroke-opacity="1.00" stroke-width="1.50" />
		<svg height="10.00" id="edgeHead19" width="8.00" x="0.00" y="37.05">
			<path d="M5.00 0.00L5.00 0.00 L8.00 0.00 L4.00 10.00 L0.00 0.00 L3.00 0.00 L3.00 0.00 ZM5.00 0.00" fill="#000000" fill-opacity="1.00" />
		</svg>
		<svg height="8.85" id="edgeTail19" width="0.00" x="4.00" y="4.00">
			<path d="M0.00 -0.00L0.00 8.85 " fill="#000000" fill-opacity="1.00" />
		</svg>
	</svg>
	<svg height="352.85" id="edgeLine18" width="59.37" x="85.20" y="41.75">
		<path d="M51.58 7.22C34.15 22.48 14.24 45.61 14.24 71.75 C14.24 71.75 14.24 71.75 14.24 258.25 C14.24 285.75 9.71 317.04 6.00 338.05 L4.00 348.85 " fill="none" stroke="#000000" stroke-opacity="1.00" stroke-width="1.50" />
		<svg height="10.80" id="edgeHead18" width="2.00" x="4.00" y="338.05">
			<path d="M0.00 10.80L2.00 -0.00 " fill="#000000" fill-opacity="1.00" />
		</svg>
		<svg height="8.81" id="edgeTail18" width="8.81" x="50.56" y="-0.00">
			<path d="M7.52 7.52C9.24 5.80 9.24 3.01 7.52 1.29 C5.80 -0.43 3.01 -0.43 1.29 1.29 C-0.43 3.01 -0.43 5.80 1.29 7.52 C3.01 9.24 5.80 9.24 7.52 7.52 " fill="#000000" fill-opacity="1.00" />
		</svg>
	</svg>
	<svg height="28.11" id="edgeLine34" width="8.93" x="81.98" y="491.40">
		<path d="M4.47 8.93C4.47 10.39 4.47 11.85 4.47 13.32 L4.47 24.11 " fill="none" stroke="#000000" stroke-opacity="1.00" stroke-width="1.50" />
		<svg height="10.79" id="edgeHead34" width="0.00" x="4.47" y="13.32">
			<path d="M0.00 10.79L0.00 -0.00 " fill="#000000" fill-opacity="1.00" />
		</svg>
		<svg height="8.93" id="edgeTail34" width="8.93" x="-0.00" y="-0.00">
			<path d="M7.62 7.62C9.37 5.88 9.37 3.05 7.62 1.31 C5.88 -0.44 3.05 -0.44 1.31 1.31 C-0.44 3.05 -0.44 5.88 1.31 7.62 C3.05 9.37 5.88 9.37 7.62 7.62 " fill="#000000" fill-opacity="1.00" />
		</svg>
	</svg>
	<svg height="28.78" id="edgeLine37" width="21.17" x="206.91" y="490.73">
		<path d="M14.50 8.05C12.95 10.52 11.36 13.05 9.79 15.55 L4.00 24.78 " fill="none" stroke="#000000" stroke-opacity="1.00" stroke-width="1.50" />
		<svg height="9.23" id="edgeHead37" width="5.79" x="4.00" y="15.55">
			<path d="M0.00 9.23L5.79 -0.00 " fill="#000000" fill-opacity="1.00" />
		</svg>
		<svg height="8.72" id="edgeTail37" width="8.72" x="12.45" y="-0.00">
			<path d="M7.44 7.44C9.15 5.74 9.15 2.98 7.44 1.28 C5.74 -0.43 2.98 -0.43 1.28 1.28 C-0.43 2.98 -0.43 5.74 1.28 7.44 C2.98 9.15 5.74 9.15 7.44 7.44 " fill="#000000" fill-opacity="1.00" />
		</svg>
	</svg>
	<svg height="28.11" id="edgeLine38" width="58.85" x="117.12" y="540.40">
		<path d="M54.85 4.00L46.65 7.60 C34.79 12.81 21.72 18.56 9.75 23.83 " fill="none" stroke="#000000" stroke-opacity="1.00" stroke-width="1.50" />
		<svg height="7.69" id="edgeHead38" width="10.76" x="0.00" y="20.42">
			<path d="M9.56 4.58L9.56 4.58 L10.76 7.33 L0.00 7.69 L7.54 0.00 L8.75 2.75 L8.75 2.75 ZM9.56 4.58" fill="#000000" fill-opacity="1.00" />
		</svg>
		<svg height="3.60" id="edgeTail38" width="8.20" x="46.65" y="4.00">
			<path d="M8.20 -0.00L0.00 3.60 " fill="#000000" fill-opacity="1.00" />
		</svg>
	</svg>
</svg>